<svg width="135" height="130" viewBox="0 0 135 130" fill="none" xmlns="http://www.w3.org/2000/svg">
<path fill-rule="evenodd" clip-rule="evenodd" d="M108.907 91.9986C95.5334 114.339 70.7975 105.729 45.7959 96.8792C20.7944 88.0292 1.2868 73.6069 14.6601 51.2664C28.0335 28.926 59.1168 17.9957 84.1088 26.838C109.101 35.6804 122.224 69.7228 108.862 92.0503L108.907 91.9986Z" fill="#FDC800"/>
<g clip-path="url(#clip0_298_283)">
<path d="M49.2736 50.2183C40.6907 50.7109 32.6418 54.0462 26.2173 59.7718L36.1531 69.7077C39.8922 66.5948 44.4323 64.7136 49.2736 64.2713V50.2183Z" fill="#0085F2"/>
<path d="M33.0029 72.8556L23.0672 62.9199C17.3366 69.3427 13.9972 77.3921 13.5015 85.9772H27.5551C28.0004 81.135 29.8856 76.5944 33.0029 72.8556Z" fill="#0085F2"/>
<path d="M75.4449 85.9772H89.4985C89.0027 77.3921 85.6635 69.3427 79.9327 62.9199L69.9971 72.8556C73.1144 76.5943 74.9996 81.135 75.4449 85.9772Z" fill="#0085F2"/>
<path d="M75.4415 90.4302C75.1294 93.8595 74.1507 96.7199 72.9932 99.0143C74.1224 100.756 75.0637 102.227 75.6857 103.205C77.3794 105.866 77.0044 109.283 74.7737 111.514C74.232 112.056 73.6134 112.492 72.9429 112.815L75.2569 115.129C75.6924 115.564 76.2633 115.782 76.834 115.782C77.4049 115.782 77.9756 115.564 78.411 115.129C85.0794 108.461 88.9677 99.7604 89.4999 90.4302H75.4415Z" fill="#0085F2"/>
<path d="M27.5585 90.4302H13.5C14.0321 99.7604 17.9205 108.461 24.5887 115.129C25.0242 115.564 25.595 115.782 26.1657 115.782C26.7365 115.782 27.3074 115.564 27.7429 115.129L34.4986 108.373C35.3694 107.502 35.3694 106.089 34.4986 105.218C32.7356 103.455 28.2948 98.5196 27.5585 90.4302Z" fill="#0085F2"/>
<path d="M76.7829 59.7718C70.3584 54.046 62.3095 50.7109 53.7266 50.2183V64.2713C58.5677 64.7136 63.108 66.5948 66.8471 69.7077L76.7829 59.7718Z" fill="#0085F2"/>
<path d="M56.4475 83.2934C53.7196 80.5656 49.281 80.5656 46.5532 83.2934C43.8254 86.0213 43.8254 90.4599 46.5532 93.1877C49.9993 96.6338 66.9353 107.447 68.8552 108.669C69.7356 109.229 70.887 109.103 71.625 108.365C72.3629 107.627 72.4894 106.476 71.929 105.595C70.7073 103.676 59.8936 86.7394 56.4475 83.2934Z" fill="#0085F2"/>
</g>
<defs>
<clipPath id="clip0_298_283">
<rect width="76" height="76" fill="white" transform="translate(13.5 45)"/>
</clipPath>
</defs>
</svg>
