<svg width="135" height="130" viewBox="0 0 135 130" fill="none" xmlns="http://www.w3.org/2000/svg">
<path fill-rule="evenodd" clip-rule="evenodd" d="M108.907 91.9986C95.5334 114.339 70.7975 105.729 45.7959 96.8792C20.7944 88.0292 1.2868 73.6069 14.6601 51.2664C28.0335 28.926 59.1168 17.9957 84.1088 26.838C109.101 35.6804 122.224 69.7228 108.862 92.0503L108.907 91.9986Z" fill="#FDC800"/>
<path d="M77.0608 56.3037H19.9392C17.0851 56.3037 14.75 58.6389 14.75 61.4929V97.1917C14.75 100.046 17.0851 102.381 19.9392 102.381H37.8929V110.625H29.9943C27.5604 110.625 25.5691 112.216 25.5691 114.161V117.697H71.431V114.161C71.431 112.216 69.4396 110.625 67.0058 110.625H59.1072V102.381H77.0609C79.9149 102.381 82.25 100.046 82.25 97.1915V61.4929C82.25 58.6388 79.9149 56.3037 77.0608 56.3037ZM77.9107 76.3762H60.2153C60.2316 76.6292 60.2408 76.8843 60.2408 77.1414C60.2408 77.6444 60.209 78.1398 60.1477 78.6262H77.9106V93.6398H49.625V88.8283C49.2547 88.8635 48.8795 88.8823 48.5 88.8823C48.1205 88.8823 47.7453 88.8636 47.375 88.8283V93.6398H19.0893V78.6262H36.8522C36.7907 78.14 36.7591 77.6444 36.7591 77.1414C36.7591 76.8842 36.7682 76.6292 36.7845 76.3762H19.0893V61.3627C19.0893 60.967 19.4131 60.643 19.809 60.643H47.375V65.4545C47.7453 65.4193 48.1205 65.4006 48.5 65.4006C48.8795 65.4006 49.2547 65.4193 49.625 65.4545V60.643H77.191C77.5869 60.643 77.9106 60.9668 77.9106 61.3627V76.3762H77.9107ZM35.7837 73.2366C35.8115 73.3656 35.7823 73.4879 35.6995 73.5905C35.6166 73.6931 35.5032 73.7473 35.3712 73.7473H26.5927C26.4608 73.7473 26.3473 73.693 26.2645 73.5905C26.1817 73.4878 26.1526 73.3655 26.1803 73.2365C26.6571 71.0229 28.6256 69.3637 30.9819 69.3637C29.6103 69.3637 28.4985 68.2518 28.4985 66.8801C28.4985 65.5085 29.6104 64.3965 30.9821 64.3965C32.3536 64.3965 33.4656 65.5085 33.4656 66.8801C33.4656 68.2518 32.3536 69.3637 30.9819 69.3637C33.3382 69.364 35.3068 71.0231 35.7837 73.2366ZM35.7837 89.7351C35.8115 89.864 35.7823 89.9863 35.6995 90.0889C35.6166 90.1915 35.5032 90.2457 35.3712 90.2457H26.5927C26.4608 90.2457 26.3473 90.1914 26.2645 90.0889C26.1817 89.9862 26.1526 89.8639 26.1803 89.7349C26.6571 87.5213 28.6256 85.8621 30.9819 85.8621C29.6103 85.8621 28.4985 84.7502 28.4985 83.3785C28.4985 82.0069 29.6104 80.8949 30.9821 80.8949C32.3536 80.8949 33.4656 82.0069 33.4656 83.3785C33.4656 84.7502 32.3536 85.8621 30.9819 85.8621C33.3382 85.8624 35.3068 87.5215 35.7837 89.7351ZM61.3005 90.089C61.2177 89.9863 61.1886 89.864 61.2163 89.7351C61.6932 87.5215 63.6616 85.8622 66.0179 85.8622C64.6463 85.8622 63.5345 84.7503 63.5345 83.3787C63.5345 82.007 64.6464 80.8951 66.0181 80.8951C67.3896 80.8951 68.5017 82.007 68.5017 83.3787C68.5017 84.7503 67.3897 85.8622 66.0181 85.8622C68.3742 85.8622 70.3429 87.5213 70.8197 89.7349C70.8476 89.8639 70.8183 89.9862 70.7355 90.0887C70.6527 90.1914 70.5392 90.2455 70.4073 90.2455H61.6287C61.4968 90.2458 61.3834 90.1915 61.3005 90.089ZM44.3641 74.844C45.4626 75.2332 46.3048 76.2653 47.375 76.8238V78.974C46.41 78.6594 45.374 78.5121 44.3641 78.4526V74.844ZM48.5 67.6505C43.2583 67.6505 39.0091 71.8997 39.0091 77.1414C39.0091 82.3832 43.2583 86.6323 48.5 86.6323C53.7417 86.6323 57.9909 82.383 57.9909 77.1414C57.9909 71.8997 53.7417 67.6505 48.5 67.6505ZM54.8859 79.5458C54.8859 80.1671 54.3822 80.6708 53.7609 80.6708C52.3263 80.6708 50.4422 80.8082 49.2148 81.6193C49.0205 81.7793 48.7714 81.8755 48.5 81.8755C48.2286 81.8755 47.9797 81.7793 47.7852 81.6193C46.5578 80.8082 44.6736 80.6708 43.2389 80.6708C42.6177 80.6708 42.1139 80.1671 42.1139 79.5458V73.5324C42.1139 72.9111 42.6177 72.4074 43.2389 72.4074C45.2423 72.4074 46.2853 73.2409 47.3117 74.0613C47.6962 74.3685 48.0777 74.6734 48.4999 74.8779C48.9222 74.6734 49.3035 74.3685 49.6881 74.0613C50.7146 73.2409 51.7574 72.4074 53.7609 72.4074C54.3822 72.4074 54.8859 72.9111 54.8859 73.5324V79.5458ZM70.8196 73.2366C70.8474 73.3656 70.8182 73.4879 70.7353 73.5905C70.6525 73.6931 70.539 73.7473 70.4071 73.7473H61.6286C61.4967 73.7473 61.3832 73.693 61.3004 73.5905C61.2176 73.4878 61.1885 73.3655 61.2162 73.2365C61.693 71.0229 63.6615 69.3637 66.0178 69.3637C64.6461 69.3637 63.5344 68.2518 63.5344 66.8801C63.5344 65.5085 64.6463 64.3965 66.0179 64.3965C67.3895 64.3965 68.5015 65.5085 68.5015 66.8801C68.5015 68.2518 67.3895 69.3637 66.0178 69.3637C68.3741 69.364 70.3427 71.0231 70.8196 73.2366ZM49.625 76.8238C50.6952 76.2653 51.5375 75.2331 52.6359 74.844V78.4526C51.6257 78.5119 50.59 78.6594 49.625 78.974V76.8238Z" fill="#0085F2"/>
</svg>
