<svg width="135" height="130" viewBox="0 0 135 130" fill="none" xmlns="http://www.w3.org/2000/svg">
<g clip-path="url(#clip0_298_270)">
<path fill-rule="evenodd" clip-rule="evenodd" d="M108.907 91.9986C95.5334 114.339 70.7975 105.729 45.7959 96.8792C20.7944 88.0292 1.2868 73.6069 14.6601 51.2664C28.0335 28.926 59.1168 17.9957 84.1088 26.838C109.101 35.6804 122.224 69.7228 108.862 92.0503L108.907 91.9986Z" fill="#FDC800"/>
<path d="M61.125 56.7812H49.25C48.2662 56.7812 47.4688 57.5787 47.4688 58.5625V62.125C47.4688 63.1088 48.2662 63.9062 49.25 63.9062H61.125C62.1088 63.9062 62.9062 63.1088 62.9062 62.125V58.5625C62.9062 57.5787 62.1088 56.7812 61.125 56.7812Z" fill="#0085F2"/>
<path d="M26.6875 82.9062H14.8125C14.3401 82.9063 13.887 83.0939 13.553 83.428C13.2189 83.762 13.0312 84.2151 13.0312 84.6875C13.0312 85.1599 13.2189 85.613 13.553 85.947C13.887 86.2811 14.3401 86.4687 14.8125 86.4688H26.6875C27.1599 86.4687 27.613 86.2811 27.947 85.947C28.2811 85.613 28.4688 85.1599 28.4688 84.6875C28.4688 84.2151 28.2811 83.762 27.947 83.428C27.613 83.0939 27.1599 82.9063 26.6875 82.9062Z" fill="#0085F2"/>
<path d="M26.0938 98.9375C26.0938 98.4651 25.9061 98.012 25.572 97.678C25.238 97.3439 24.7849 97.1562 24.3125 97.1562H12.4375C11.9651 97.1562 11.512 97.3439 11.178 97.678C10.8439 98.012 10.6562 98.4651 10.6562 98.9375C10.6562 99.4099 10.8439 99.863 11.178 100.197C11.512 100.531 11.9651 100.719 12.4375 100.719H24.3125C24.7849 100.719 25.238 100.531 25.572 100.197C25.9061 99.863 26.0938 99.4099 26.0938 98.9375Z" fill="#0085F2"/>
<path d="M25.5 104.281H17.1875C16.7151 104.281 16.262 104.469 15.928 104.803C15.5939 105.137 15.4062 105.59 15.4062 106.062C15.4062 106.535 15.5939 106.988 15.928 107.322C16.262 107.656 16.7151 107.844 17.1875 107.844H25.5C25.9724 107.844 26.4255 107.656 26.7595 107.322C27.0936 106.988 27.2812 106.535 27.2812 106.062C27.2812 105.59 27.0936 105.137 26.7595 104.803C26.4255 104.469 25.9724 104.281 25.5 104.281Z" fill="#0085F2"/>
<path d="M26.0938 91.8125C26.0938 91.3401 25.9061 90.887 25.572 90.553C25.238 90.2189 24.7849 90.0312 24.3125 90.0312H8.875C8.40258 90.0312 7.94952 90.2189 7.61547 90.553C7.28142 90.887 7.09375 91.3401 7.09375 91.8125C7.09375 92.2849 7.28142 92.738 7.61547 93.072C7.94952 93.4061 8.40258 93.5938 8.875 93.5938H24.3125C24.7849 93.5938 25.238 93.4061 25.572 93.072C25.9061 92.738 26.0938 92.2849 26.0938 91.8125Z" fill="#0085F2"/>
<path d="M55.1875 95.375V75.1875C44.056 75.1875 35 84.2435 35 95.375C35 106.506 44.056 115.562 55.1875 115.562C66.319 115.562 75.375 106.506 75.375 95.375H55.1875Z" fill="#0085F2"/>
<path d="M74.7246 77.1696L76.6345 75.2595C76.8021 75.0946 76.9354 74.8981 77.0267 74.6814C77.118 74.4648 77.1655 74.2321 77.1665 73.997C77.1675 73.7619 77.1219 73.5289 77.0323 73.3114C76.9428 73.094 76.8111 72.8965 76.6448 72.7302C76.4785 72.5639 76.281 72.4322 76.0636 72.3427C75.8461 72.2532 75.6131 72.2076 75.378 72.2085C75.1429 72.2095 74.9103 72.257 74.6936 72.3483C74.4769 72.4396 74.2804 72.5729 74.1155 72.7405L72.1276 74.7282C68.2994 71.5746 63.6659 69.5537 58.75 68.8937V65.6875H51.625V68.8937C46.7093 69.5535 42.0757 71.574 38.2474 74.7273L36.2595 72.7396C36.0946 72.572 35.8981 72.4387 35.6814 72.3474C35.4648 72.2561 35.2321 72.2086 34.997 72.2076C34.7619 72.2067 34.5289 72.2523 34.3114 72.3418C34.094 72.4313 33.8965 72.5631 33.7302 72.7293C33.5639 72.8956 33.4322 73.0931 33.3427 73.3105C33.2532 73.528 33.2076 73.761 33.2085 73.9961C33.2095 74.2312 33.257 74.4639 33.3483 74.6805C33.4396 74.8972 33.5729 75.0937 33.7405 75.2586L35.6505 77.1687C31.0314 82.1053 28.4638 88.6144 28.4688 95.375C28.4688 110.108 40.4548 122.094 55.1875 122.094C69.9202 122.094 81.9063 110.108 81.9063 95.375C81.911 88.6147 79.3434 82.1059 74.7246 77.1696ZM55.1875 117.344C50.8425 117.344 46.5951 116.055 42.9823 113.641C39.3696 111.227 36.5538 107.796 34.891 103.782C33.2283 99.7678 32.7932 95.3506 33.6409 91.0891C34.4886 86.8276 36.5809 82.9131 39.6533 79.8407C42.7256 76.7684 46.6401 74.676 50.9016 73.8284C55.1631 72.9807 59.5803 73.4158 63.5946 75.0785C67.6088 76.7413 71.0399 79.5571 73.4539 83.1698C75.8678 86.7826 77.1563 91.03 77.1563 95.375C77.1563 98.26 76.588 101.117 75.484 103.782C74.38 106.447 72.7617 108.869 70.7218 110.909C68.6818 112.949 66.26 114.567 63.5946 115.671C60.9292 116.776 58.0725 117.344 55.1875 117.344Z" fill="#0085F2"/>
</g>
<defs>
<clipPath id="clip0_298_270">
<rect width="135" height="130" fill="white"/>
</clipPath>
</defs>
</svg>
