<svg width="135" height="130" viewBox="0 0 135 130" fill="none" xmlns="http://www.w3.org/2000/svg">
<path fill-rule="evenodd" clip-rule="evenodd" d="M108.907 91.9986C95.5334 114.339 70.7975 105.729 45.7959 96.8792C20.7944 88.0292 1.2868 73.6069 14.6601 51.2664C28.0335 28.926 59.1168 17.9957 84.1088 26.838C109.101 35.6804 122.224 69.7228 108.862 92.0503L108.907 91.9986Z" fill="#FDC800"/>
<path d="M85.0054 47.0723H23.9943C21.5665 47.0723 19.6665 48.9723 19.6665 51.2945V90.8778C19.6665 93.2 21.5665 95.2056 23.9943 95.2056H85.1109C87.4332 95.2056 89.4387 93.3056 89.4387 90.8778V51.2945C89.3332 48.9723 87.4332 47.0723 85.0054 47.0723ZM54.4998 88.5556C44.8943 88.5556 36.9776 80.7445 36.9776 71.0334C36.9776 61.4278 44.7887 53.5112 54.4998 53.5112C64.1054 53.5112 72.0221 61.3223 72.0221 71.0334C72.0221 80.7445 64.1054 88.5556 54.4998 88.5556Z" fill="#0085F2"/>
<path d="M62.4165 71.1392C62.4165 72.1947 61.8888 73.1447 60.9388 73.778L52.1776 79.0558C51.6499 79.3725 51.1221 79.4781 50.5943 79.4781C50.0665 79.4781 49.5388 79.3725 49.1165 79.0558C48.1665 78.528 47.5332 77.4725 47.5332 76.4169V65.8614C47.5332 64.8058 48.061 63.7503 49.1165 63.2225C50.0665 62.6947 51.2276 62.6947 52.1776 63.2225L60.9388 68.5003C61.8888 69.028 62.4165 69.978 62.4165 71.1392Z" fill="#0085F2"/>
<path d="M89.3334 104.916C89.3334 105.444 88.9111 105.972 88.2778 105.972H37.7167C37.0834 107.766 35.1834 109.033 32.7556 109.033C30.4334 109.033 28.4278 107.766 27.7945 105.972H21.6723C21.0389 105.972 20.6167 105.444 20.6167 104.916C20.6167 104.283 21.0389 103.861 21.6723 103.861H27.7945C28.3223 102.066 30.3278 100.8 32.7556 100.8C35.1834 100.8 37.0834 102.066 37.7167 103.861H88.2778C88.9111 103.861 89.3334 104.283 89.3334 104.916Z" fill="#0085F2"/>
</svg>
