<svg width="135" height="130" viewBox="0 0 135 130" fill="none" xmlns="http://www.w3.org/2000/svg">
<path fill-rule="evenodd" clip-rule="evenodd" d="M108.907 91.9986C95.5334 114.339 70.7975 105.729 45.7959 96.8792C20.7944 88.0292 1.2868 73.6069 14.6601 51.2664C28.0335 28.926 59.1168 17.9957 84.1088 26.838C109.101 35.6804 122.224 69.7228 108.862 92.0503L108.907 91.9986Z" fill="#FDC800"/>
<path d="M92.5662 99.1021C91.1833 95.214 89.7638 91.2964 88.399 87.3958C89.8086 84.124 90.4074 80.5602 90.1442 77.0074C87.0497 50.0401 48.9217 50.6263 46.7977 77.7199C45.846 93.2516 62.5238 104.954 76.7641 98.7931C80.8076 100.126 84.8681 101.48 88.9095 102.842C89.4261 103.003 89.9771 103.018 90.5017 102.885C91.0263 102.753 91.5041 102.478 91.8824 102.091C92.2607 101.704 92.5247 101.22 92.6454 100.693C92.766 100.165 92.7386 99.6149 92.5662 99.1021ZM60.2255 83.2167H56.9131C56.5985 83.2157 56.2971 83.0904 56.0746 82.8679C55.8522 82.6455 55.7268 82.344 55.7259 82.0294V78.0877C55.7218 77.9845 55.7288 75.3746 55.7259 75.3689C55.7305 75.0571 55.8576 74.7596 56.0798 74.5407C56.302 74.3219 56.6013 74.1992 56.9132 74.1992C57.225 74.1992 57.5244 74.3219 57.7465 74.5408C57.9687 74.7597 58.0958 75.0572 58.1004 75.369V76.3781C58.0998 77.4696 58.1008 79.7658 58.1004 80.8422H60.2255C60.5362 80.8485 60.832 80.9764 61.0494 81.1984C61.2669 81.4203 61.3887 81.7187 61.3887 82.0294C61.3887 82.3401 61.2669 82.6385 61.0494 82.8604C60.832 83.0824 60.5362 83.2103 60.2255 83.2167ZM64.8558 80.5098V82.0294C64.8494 82.34 64.7215 82.6357 64.4995 82.8531C64.2775 83.0705 63.9792 83.1923 63.6686 83.1923C63.3579 83.1922 63.0596 83.0705 62.8376 82.8531C62.6157 82.6357 62.4878 82.3399 62.4813 82.0293C62.4872 81.9012 62.4771 78.8946 62.4813 78.6576V75.369C62.4813 75.0541 62.6064 74.7521 62.8291 74.5294C63.0517 74.3068 63.3537 74.1817 63.6686 74.1817C63.9835 74.1817 64.2855 74.3068 64.5081 74.5294C64.7308 74.7521 64.8558 75.0541 64.8558 75.369L64.8558 80.5098ZM73.3803 75.7963L70.8158 82.4568C70.7264 82.6795 70.5718 82.8701 70.3723 83.0034C70.1727 83.1368 69.9376 83.2068 69.6976 83.2042C69.4576 83.2017 69.224 83.1267 69.0274 82.989C68.8307 82.8514 68.6802 82.6576 68.5956 82.433L66.1618 75.7726C66.0547 75.4766 66.0696 75.1503 66.2032 74.8653C66.3368 74.5803 66.5781 74.36 66.8741 74.253C67.1701 74.1459 67.4965 74.1608 67.7815 74.2944C68.0665 74.428 68.2868 74.6693 68.3938 74.9653L69.7354 78.6458L71.1601 74.9416C71.2788 74.6548 71.505 74.4257 71.7903 74.3032C72.0755 74.1808 72.3974 74.1747 72.6871 74.2862C72.9768 74.3977 73.2115 74.6181 73.341 74.9002C73.4705 75.1824 73.4846 75.5039 73.3803 75.7963ZM79.3165 77.7909C79.6284 77.7955 79.9259 77.9227 80.1447 78.1448C80.3636 78.367 80.4863 78.6663 80.4863 78.9782C80.4863 79.29 80.3636 79.5894 80.1447 79.8115C79.9259 80.0337 79.6284 80.1608 79.3165 80.1654H76.8589V80.8422H80.0526C80.3644 80.8469 80.6618 80.9741 80.8806 81.1962C81.0994 81.4183 81.222 81.7176 81.222 82.0294C81.222 82.3412 81.0994 82.6405 80.8806 82.8626C80.6618 83.0848 80.3644 83.2119 80.0526 83.2167H75.6717C75.5156 83.2172 75.361 83.1869 75.2167 83.1274C75.0724 83.0679 74.9413 82.9805 74.8309 82.8701C74.7206 82.7598 74.6332 82.6287 74.5737 82.4844C74.5142 82.3401 74.4839 82.1855 74.4844 82.0294V75.369C74.4839 75.2129 74.5142 75.0583 74.5737 74.914C74.6332 74.7697 74.7206 74.6386 74.8309 74.5282C74.9413 74.4179 75.0724 74.3305 75.2167 74.271C75.361 74.2115 75.5156 74.1812 75.6717 74.1817H80.0526C80.3633 74.1881 80.6591 74.316 80.8765 74.5379C81.094 74.7599 81.2158 75.0583 81.2157 75.369C81.2157 75.6797 81.0939 75.9781 80.8765 76.2C80.659 76.422 80.3632 76.5498 80.0525 76.5562H76.8589V77.7909H79.3165Z" fill="#0085F2"/>
<path d="M71.1605 102.64C67.8022 102.993 64.4073 102.64 61.1935 101.603C57.9797 100.567 55.0179 98.8704 52.4983 96.6224C49.9786 94.3743 47.9566 91.6244 46.562 88.5491C45.1674 85.4738 44.4309 82.141 44.3999 78.7644C44.4053 77.7726 44.4647 76.7818 44.5779 75.7964C43.4797 76.1021 42.4078 76.4952 41.3723 76.9718C30.929 81.6149 25.7758 94.9115 30.5805 105.323C30.5802 105.323 27.2203 114.786 26.4248 117.041C26.2397 117.553 26.2028 118.106 26.3184 118.638C26.4341 119.169 26.6975 119.658 27.0784 120.046C27.4593 120.434 27.9422 120.707 28.4714 120.833C29.0007 120.959 29.5547 120.933 30.0697 120.758C30.0697 120.758 39.8051 117.516 42.2153 116.709C45.376 118.003 48.7944 118.543 52.2 118.288C60.8828 117.615 69.0358 111.305 71.1605 102.64Z" fill="#0085F2"/>
</svg>
