<svg width="135" height="130" viewBox="0 0 135 130" fill="none" xmlns="http://www.w3.org/2000/svg">
<path fill-rule="evenodd" clip-rule="evenodd" d="M108.907 91.9986C95.5334 114.339 70.7975 105.729 45.7959 96.8792C20.7944 88.0292 1.2868 73.6069 14.6601 51.2664C28.0335 28.926 59.1168 17.9957 84.1088 26.838C109.101 35.6804 122.224 69.7228 108.862 92.0503L108.907 91.9986Z" fill="#FDC800"/>
<path d="M66.2406 50.7918C65.4949 47.7524 63.749 45.052 61.2835 43.1244C58.8181 41.1968 55.7762 40.154 52.6467 40.1636C49.5171 40.1732 46.4817 41.2346 44.0281 43.1773C41.5745 45.1199 39.8452 47.831 39.1181 50.8749C38.9929 50.9849 38.8923 51.1199 38.8227 51.2713C38.7532 51.4227 38.7162 51.5871 38.7144 51.7537V56.2424C38.7144 56.5574 38.8395 56.8594 39.0622 57.0821C39.2849 57.3048 39.5869 57.4299 39.9019 57.4299H42.1937C43.1039 57.4299 43.9768 57.0683 44.6204 56.4247C45.264 55.7811 45.6256 54.9082 45.6256 53.998C45.6256 53.0879 45.264 52.2149 44.6204 51.5713C43.9768 50.9277 43.1039 50.5662 42.1937 50.5662H41.6594C42.4123 48.2423 43.8802 46.2157 45.8536 44.7758C47.8269 43.336 50.2048 42.5564 52.6476 42.5485C55.0904 42.5406 57.4732 43.3048 59.4559 44.7318C61.4385 46.1589 62.9195 48.1759 63.6875 50.4949H63.26C62.3924 50.5462 61.5772 50.927 60.9811 51.5594C60.385 52.1918 60.0529 53.028 60.0529 53.8971C60.0529 54.7662 60.385 55.6024 60.9811 56.2348C61.5772 56.8672 62.3924 57.248 63.26 57.2993H65.4925C65.8074 57.2993 66.1095 57.1742 66.3322 56.9515C66.5549 56.7288 66.68 56.4267 66.68 56.1118V51.6824C66.6754 51.511 66.6337 51.3427 66.5579 51.189C66.482 51.0352 66.3738 50.8997 66.2406 50.7918Z" fill="#0085F2"/>
<path d="M71.43 73.7227C70.3853 71.344 68.672 69.3202 66.4985 67.8971C64.325 66.4741 61.7848 65.7132 59.1869 65.707H58.13C57.8151 65.707 57.513 65.8321 57.2903 66.0548C57.0676 66.2775 56.9425 66.5796 56.9425 66.8945C56.9425 68.0236 56.494 69.1064 55.6956 69.9048C54.8972 70.7032 53.8144 71.1517 52.6853 71.1517C51.5562 71.1517 50.4734 70.7032 49.675 69.9048C48.8767 69.1064 48.4281 68.0236 48.4281 66.8945C48.4281 66.5796 48.303 66.2775 48.0803 66.0548C47.8576 65.8321 47.5556 65.707 47.2406 65.707H46.1837C43.5959 65.7247 41.0686 66.4909 38.9066 67.9133C36.7447 69.3356 35.0406 71.3532 34 73.7227H71.43Z" fill="#0085F2"/>
<path d="M79.125 113.812H7.875C7.56006 113.812 7.25801 113.687 7.03531 113.465C6.81261 113.242 6.6875 112.94 6.6875 112.625C6.6875 112.31 6.81261 112.008 7.03531 111.785C7.25801 111.563 7.56006 111.438 7.875 111.438H79.125C79.4399 111.438 79.742 111.563 79.9647 111.785C80.1874 112.008 80.3125 112.31 80.3125 112.625C80.3125 112.94 80.1874 113.242 79.9647 113.465C79.742 113.687 79.4399 113.812 79.125 113.812Z" fill="#0085F2"/>
<path d="M18.2656 103.042V106.878C18.2656 107.193 18.1405 107.495 17.9178 107.717C17.6951 107.94 17.3931 108.065 17.0781 108.065C16.7632 108.065 16.4611 107.94 16.2384 107.717C16.0157 107.495 15.8906 107.193 15.8906 106.878V103.042C14.4705 103.318 13.1904 104.078 12.2697 105.194C11.3489 106.31 10.8448 107.711 10.8438 109.158V109.656C10.8438 109.971 10.9689 110.273 11.1916 110.496C11.4143 110.719 11.7163 110.844 12.0312 110.844H22.125C22.4399 110.844 22.742 110.719 22.9647 110.496C23.1874 110.273 23.3125 109.971 23.3125 109.656V109.158C23.3114 107.711 22.8073 106.31 21.8866 105.194C20.9658 104.078 19.6857 103.318 18.2656 103.042Z" fill="#0085F2"/>
<path d="M50.791 92.5798L50.4704 94.4561L52.1448 93.6248C52.3151 93.5353 52.5046 93.4886 52.697 93.4886C52.8894 93.4886 53.0788 93.5353 53.2492 93.6248L54.9235 94.5036L54.6029 92.6273C54.5718 92.4383 54.5868 92.2445 54.6468 92.0625C54.7067 91.8805 54.8098 91.7158 54.9473 91.5823L56.301 90.2523L54.4248 89.9792C54.2345 89.9506 54.0541 89.8762 53.8989 89.7625C53.7438 89.6487 53.6186 89.4989 53.5342 89.3261L52.7029 87.6279L51.8123 89.2786C51.7278 89.4514 51.6027 89.6012 51.4475 89.715C51.2924 89.8287 51.1119 89.9031 50.9217 89.9317L49.0454 90.2048L50.3992 91.5348C50.5451 91.6635 50.6572 91.8262 50.7255 92.0084C50.7938 92.1906 50.8163 92.3868 50.791 92.5798Z" fill="#0085F2"/>
<path d="M79.5171 79.5292C79.5347 79.0042 79.4459 78.4811 79.2561 77.9913C79.0663 77.5016 78.7794 77.0552 78.4127 76.6792C78.0541 76.3034 77.6229 76.0044 77.1452 75.8003C76.6675 75.5961 76.1534 75.4912 75.634 75.4917H29.7608C29.2414 75.4912 28.7272 75.5961 28.2496 75.8003C27.7719 76.0044 27.3407 76.3034 26.9821 76.6792C26.6058 77.07 26.3145 77.5344 26.1264 78.0433C25.9384 78.5522 25.8578 79.0945 25.8896 79.6361L29.0602 104.954V107.566C29.0848 108.434 29.4452 109.258 30.0655 109.865C30.6857 110.472 31.5174 110.814 32.3852 110.82H72.9621C73.8299 110.814 74.6616 110.472 75.2818 109.865C75.9021 109.258 76.2625 108.434 76.2871 107.566V104.954L79.4577 79.6361C79.4577 79.6361 79.5171 79.5648 79.5171 79.5292ZM45.4121 89.0292C45.4809 88.8182 45.6075 88.6306 45.7775 88.4879C45.9475 88.3452 46.1542 88.2529 46.3739 88.2217L50.0077 87.6873L51.6346 84.3861C51.7331 84.1885 51.8847 84.0222 52.0724 83.906C52.2602 83.7898 52.4766 83.7283 52.6974 83.7283C52.9182 83.7283 53.1346 83.7898 53.3223 83.906C53.5101 84.0222 53.6617 84.1885 53.7602 84.3861L55.3752 87.6873L59.009 88.2217C59.2289 88.2536 59.4354 88.3466 59.6051 88.4901C59.7748 88.6335 59.9009 88.8217 59.9689 89.0333C60.0369 89.2448 60.0443 89.4712 59.99 89.6867C59.9358 89.9022 59.8222 90.0982 59.6621 90.2523L57.0496 92.7936L57.6671 96.4273C57.7033 96.6452 57.678 96.8688 57.5941 97.0731C57.5102 97.2774 57.371 97.4543 57.1921 97.5838C57.0132 97.7133 56.8018 97.7904 56.5815 97.8064C56.3613 97.8223 56.1409 97.7766 55.9452 97.6742L52.7033 95.9998L49.4377 97.6742C49.242 97.7766 49.0216 97.8223 48.8014 97.8064C48.5811 97.7904 48.3697 97.7133 48.1908 97.5838C48.0119 97.4543 47.8727 97.2774 47.7888 97.0731C47.7049 96.8688 47.6796 96.6452 47.7158 96.4273L48.3333 92.7936L45.709 90.2286C45.5498 90.073 45.4376 89.8758 45.3851 89.6596C45.3326 89.4433 45.342 89.2167 45.4121 89.0055V89.0292ZM73.9121 107.566C73.9029 107.813 73.7992 108.047 73.6223 108.219C73.4455 108.392 73.2091 108.489 72.9621 108.492H32.4446C32.1976 108.489 31.9612 108.392 31.7843 108.219C31.6075 108.047 31.5037 107.813 31.4946 107.566V106.165H73.9477L73.9121 107.566Z" fill="#0085F2"/>
<path d="M58.6883 53.9267C58.6877 52.9374 59.0062 51.9743 59.5967 51.1806C60.1872 50.3869 61.0181 49.8049 61.9658 49.5211C61.1022 47.7919 59.7724 46.3386 58.1266 45.3252C56.4807 44.3119 54.5843 43.7788 52.6515 43.7862C50.7187 43.7936 48.8265 44.3412 47.1884 45.3672C45.5504 46.3931 44.2317 47.8566 43.3814 49.5924C44.3631 49.8664 45.2265 50.4573 45.8373 51.2732C46.4481 52.089 46.772 53.084 46.7584 54.1031C46.7448 55.1221 46.3947 56.1081 45.7624 56.9074C45.1301 57.7067 44.2513 58.2745 43.2627 58.5224C44.086 60.3634 45.4284 61.9243 47.1254 63.0139C48.8225 64.1035 50.8005 64.6744 52.8171 64.6567C54.8337 64.6391 56.8014 64.0336 58.4792 62.9145C60.1569 61.7954 61.4717 60.2112 62.2627 58.3561C61.2539 58.1306 60.3513 57.5699 59.7022 56.7655C59.053 55.961 58.6956 54.9604 58.6883 53.9267Z" fill="#0085F2"/>
</svg>
