<svg width="135" height="130" viewBox="0 0 135 130" fill="none" xmlns="http://www.w3.org/2000/svg">
<path fill-rule="evenodd" clip-rule="evenodd" d="M108.907 91.9986C95.5334 114.339 70.7975 105.729 45.7959 96.8792C20.7944 88.0292 1.2868 73.6069 14.6601 51.2664C28.0335 28.926 59.1168 17.9957 84.1088 26.838C109.101 35.6804 122.224 69.7228 108.862 92.0503L108.907 91.9986Z" fill="#FDC800"/>
<path d="M32.3125 83.4932H47.4769C48.0281 83.4869 48.5729 83.6117 49.0664 83.8574C49.5598 84.1031 49.9878 84.4626 50.315 84.9063C50.852 85.5088 51.199 86.2566 51.3125 87.0557C51.3125 87.3706 51.4376 87.6727 51.6603 87.8954C51.883 88.1181 52.1851 88.2432 52.5 88.2432C52.8149 88.2432 53.117 88.1181 53.3397 87.8954C53.5624 87.6727 53.6875 87.3706 53.6875 87.0557C53.801 86.2566 54.148 85.5088 54.685 84.9063C55.0122 84.4626 55.4402 84.1031 55.9336 83.8574C56.4271 83.6117 56.9719 83.4869 57.5231 83.4932H72.6875C73.3113 83.4933 73.9291 83.3706 74.5054 83.1319C75.0818 82.8933 75.6055 82.5434 76.0466 82.1023C76.4877 81.6612 76.8376 81.1375 77.0763 80.5611C77.3149 79.9847 77.4377 79.367 77.4375 78.7432V62.1182C77.4377 61.4943 77.3149 60.8766 77.0763 60.3002C76.8376 59.7238 76.4878 59.2001 76.0467 58.759C75.6055 58.3179 75.0818 57.968 74.5055 57.7294C73.9291 57.4907 73.3113 57.368 72.6875 57.3682H32.3125C31.6887 57.368 31.0709 57.4907 30.4945 57.7294C29.9182 57.968 29.3945 58.3179 28.9533 58.759C28.5122 59.2001 28.1624 59.7238 27.9237 60.3002C27.6851 60.8766 27.5623 61.4943 27.5625 62.1182V78.7432C27.5623 79.367 27.6851 79.9847 27.9237 80.5611C28.1624 81.1375 28.5123 81.6612 28.9534 82.1023C29.3945 82.5434 29.9182 82.8933 30.4946 83.1319C31.0709 83.3706 31.6887 83.4933 32.3125 83.4932ZM52.5238 80.1919C52.2138 80.1859 51.9184 80.0589 51.7008 79.8382C51.4832 79.6174 51.3605 79.3202 51.3589 79.0102C51.3574 78.7002 51.4771 78.4018 51.6925 78.1789C51.9079 77.9559 52.202 77.826 52.5119 77.8169C52.8218 77.8229 53.1172 77.9499 53.3348 78.1707C53.5525 78.3915 53.6751 78.6886 53.6767 78.9986C53.6782 79.3086 53.5585 79.607 53.3431 79.8299C53.1277 80.0529 52.8336 80.1828 52.5238 80.1919ZM53.7232 61.3225C54.922 61.5965 56.0021 62.2461 56.8059 63.1767C57.6098 64.1073 58.0955 65.2703 58.1922 66.4962C58.289 67.7222 57.9917 68.9469 57.3438 69.9921C56.6958 71.0373 55.731 71.8483 54.59 72.3068C53.5425 72.6766 53.6747 73.7479 53.6875 74.6106C53.6823 74.9221 53.5549 75.2191 53.3327 75.4375C53.1106 75.656 52.8115 75.7784 52.5 75.7784C52.1884 75.7783 51.8893 75.6559 51.6672 75.4375C51.4451 75.219 51.3177 74.922 51.3125 74.6105V73.53C51.3205 72.7814 51.5552 72.0528 51.9855 71.4402C52.4158 70.8276 53.0216 70.3597 53.7231 70.0982C54.2978 69.8753 54.8006 69.4997 55.1774 69.0119C55.5541 68.5241 55.7905 67.9426 55.861 67.3303C55.9315 66.718 55.8334 66.0981 55.5773 65.5375C55.3212 64.9768 54.9168 64.4968 54.4078 64.1492C53.8989 63.8016 53.3046 63.5996 52.6892 63.565C52.0739 63.5304 51.4607 63.6646 50.916 63.953C50.3713 64.2414 49.9157 64.6732 49.5984 65.2016C49.2812 65.73 49.1142 66.335 49.1157 66.9514C49.111 67.2633 48.9839 67.5609 48.7616 67.7798C48.5394 67.9987 48.24 68.1214 47.9281 68.1214C47.6161 68.1213 47.3167 67.9986 47.0945 67.7796C46.8724 67.5607 46.7452 67.2631 46.7406 66.9512C46.7477 66.0933 46.945 65.2476 47.3184 64.4752C47.6918 63.7028 48.2319 63.0228 48.8998 62.4844C49.5678 61.9459 50.3469 61.5624 51.181 61.3615C52.0151 61.1606 52.8834 61.1473 53.7232 61.3225Z" fill="#0085F2"/>
<path d="M84.5625 107.175H56.0625C55.2282 107.176 54.4089 107.397 53.6875 107.816C53.6892 108.594 53.6826 108.273 53.6994 109.004C53.6994 109.322 53.573 109.627 53.3481 109.852C53.1232 110.077 52.8181 110.203 52.5 110.203C52.1819 110.203 51.8768 110.077 51.6519 109.852C51.427 109.627 51.3006 109.322 51.3006 109.004C51.316 108.258 51.3114 108.601 51.3125 107.816C50.5911 107.397 49.7718 107.176 48.9375 107.175H20.4375C20.1228 107.176 19.8213 107.301 19.5988 107.524C19.3764 107.746 19.2509 108.048 19.25 108.362V109.55C19.2528 110.494 19.629 111.398 20.2965 112.066C20.964 112.733 21.8685 113.11 22.8125 113.112H46.3369C46.5441 113.114 46.7474 113.169 46.9266 113.273C47.1057 113.377 47.2545 113.526 47.3581 113.706C47.8879 114.598 48.6405 115.336 49.542 115.849C50.4434 116.362 51.4628 116.632 52.5 116.632C53.5371 116.632 54.5565 116.362 55.458 115.849C56.3594 115.336 57.112 114.598 57.6419 113.706C57.7454 113.527 57.8942 113.377 58.0734 113.273C58.2526 113.169 58.4559 113.113 58.6631 113.112H82.1875C83.1315 113.11 84.036 112.733 84.7035 112.066C85.371 111.398 85.7472 110.494 85.75 109.55V108.362C85.7491 108.048 85.6236 107.746 85.4012 107.524C85.1787 107.301 84.8772 107.176 84.5625 107.175Z" fill="#0085F2"/>
<path d="M51.3126 105.441V95.7391C49.0749 93.5604 46.422 93.6944 42.5013 95.4064C36.6846 98.1742 30.3752 99.7566 23.9407 100.062C23.3195 100.072 22.7274 100.327 22.2936 100.772C21.8599 101.217 21.6196 101.815 21.6251 102.437V104.8H48.9376C49.7719 104.801 50.5912 105.022 51.3126 105.441Z" fill="#0085F2"/>
<path d="M53.6875 95.7388V105.441C54.4089 105.022 55.2282 104.8 56.0625 104.8H83.375V102.436C83.3745 101.817 83.1322 101.222 82.6997 100.778C82.2672 100.335 81.6787 100.078 81.0594 100.061C74.6249 99.7564 68.3155 98.174 62.4987 95.4064C58.5767 93.6939 55.9273 93.5611 53.6875 95.7388Z" fill="#0085F2"/>
</svg>
