<svg width="135" height="130" viewBox="0 0 135 130" fill="none" xmlns="http://www.w3.org/2000/svg">
<path fill-rule="evenodd" clip-rule="evenodd" d="M108.907 91.9986C95.5334 114.339 70.7975 105.729 45.7959 96.8792C20.7944 88.0292 1.2868 73.6069 14.6601 51.2664C28.0335 28.926 59.1168 17.9957 84.1088 26.838C109.101 35.6804 122.224 69.7228 108.862 92.0503L108.907 91.9986Z" fill="#FDC800"/>
<path d="M52.5463 91.9031C61.112 91.9031 68.0779 84.9371 68.0779 76.3715C68.0779 67.8058 61.1119 60.8398 52.5463 60.8398C43.9806 60.8398 37.0146 67.8057 37.0146 76.3715C37.0146 84.9372 43.9806 91.9031 52.5463 91.9031Z" fill="#0085F2"/>
<path d="M39.3395 94.9862C33.3568 94.9862 28.5073 99.8356 28.5073 105.818V117.917C28.5073 119.067 29.4406 120 30.5904 120H74.5023C75.6522 120 76.5854 119.067 76.5854 117.917V106.118C76.7687 105.802 76.9354 105.46 77.0687 105.102L85.5677 82.6043C85.851 81.8543 86.001 81.0544 86.001 80.2462V54.9989C86.001 51.316 83.018 48.333 79.3351 48.333C75.6522 48.333 72.6692 51.316 72.6692 54.9989V79.0296L66.6448 94.9862H39.3395Z" fill="#0085F2"/>
<path d="M13.0672 58.84H17.9834C19.0166 58.84 19.8915 58.0901 20.0415 57.0736C20.3248 55.2238 20.8997 53.8573 21.7496 53.0323C22.5412 52.2658 23.6328 51.8908 25.0993 51.8908C26.6158 51.8908 27.774 52.3074 28.6572 53.174C29.5404 54.0406 29.9487 55.0821 29.9487 56.4653C29.9487 57.1152 29.7987 57.7152 29.4904 58.2984C29.3321 58.5901 28.7155 59.49 26.3658 61.4814C24.1827 63.3312 22.7079 65.0727 21.8496 66.7975C20.9747 68.5556 20.5498 71.1137 20.5498 74.5966C20.5498 75.7465 21.483 76.6798 22.6329 76.6798H27.074C28.2239 76.6798 29.1572 75.7465 29.1572 74.5966C29.1572 71.9053 29.4821 70.8054 29.6738 70.3888C29.8237 70.0555 30.4487 69.0723 32.9234 67.0225C35.2232 65.1144 36.773 63.3729 37.6562 61.7064C38.5645 59.9982 39.0227 58.1235 39.0227 56.1403C39.0227 52.5991 37.6811 49.641 35.0232 47.3413C32.4568 45.1249 29.1072 44 25.0659 44C21.2164 44 17.9584 45.1499 15.4003 47.408C12.8173 49.691 11.3424 52.7824 11.0091 56.5903C10.8925 57.7902 11.8507 58.84 13.0672 58.84Z" fill="#0085F2"/>
<path d="M27.0575 88.4618C28.2073 88.4618 29.1406 87.5287 29.1406 86.3787V81.9459C29.1406 80.7959 28.2073 79.8628 27.0575 79.8628H22.6246C21.4747 79.8628 20.5415 80.7959 20.5415 81.9459V86.3787C20.5415 87.5287 21.4747 88.4618 22.6246 88.4618H27.0575Z" fill="#0085F2"/>
</svg>
