<svg width="135" height="130" viewBox="0 0 135 130" fill="none" xmlns="http://www.w3.org/2000/svg">
<path fill-rule="evenodd" clip-rule="evenodd" d="M108.907 91.9986C95.5334 114.339 70.7975 105.729 45.7959 96.8792C20.7944 88.0292 1.2868 73.6069 14.6601 51.2664C28.0335 28.926 59.1168 17.9957 84.1088 26.838C109.101 35.6804 122.224 69.7228 108.862 92.0503L108.907 91.9986Z" fill="#FDC800"/>
<g clip-path="url(#clip0_298_257)">
<path d="M62 111.75H43C41.6873 111.75 40.625 112.812 40.625 114.125V118.875C40.625 122.804 43.821 126 47.75 126H57.25C61.179 126 64.375 122.804 64.375 118.875V114.125C64.375 112.812 63.3127 111.75 62 111.75Z" fill="#0085F2"/>
<path d="M52.5001 86.6178C56.9834 86.6178 60.6178 82.9834 60.6178 78.5001C60.6178 74.0168 56.9834 70.3823 52.5001 70.3823C48.0168 70.3823 44.3823 74.0168 44.3823 78.5001C44.3823 82.9834 48.0168 86.6178 52.5001 86.6178Z" fill="#0085F2"/>
<path d="M80.7387 74.5577C79.0525 61.8989 68.5787 51.6627 55.8725 50.1902C47.7263 49.2402 39.58 51.8289 33.5238 57.2202C27.4675 62.6352 24 70.3777 24 78.5002C24 89.1877 29.89 98.8777 39.3663 103.794C40.1263 104.198 40.625 105.005 40.625 105.884V107.428C41.3613 107.143 42.1688 107 43 107H62C62.8312 107 63.6387 107.143 64.375 107.428V105.884C64.375 105.005 64.85 104.198 65.6338 103.794C76.44 98.1889 82.3537 86.7177 80.7387 74.5577ZM66.75 80.8752H65.1386C64.8039 82.6586 64.1059 84.3139 63.1158 85.7577L64.2543 86.8963C65.182 87.8239 65.182 89.3268 64.2543 90.2548C63.7905 90.7186 63.1828 90.9506 62.5752 90.9506C61.9677 90.9506 61.3599 90.7186 60.8961 90.2548L59.7575 89.1162C58.3138 90.1063 56.6584 90.8043 54.875 91.139V92.7504C54.875 94.0631 53.8127 95.1254 52.5 95.1254C51.1873 95.1254 50.125 94.0631 50.125 92.7504V91.139C48.3416 90.8043 46.6862 90.1063 45.2425 89.1162L44.1039 90.2548C43.6401 90.7186 43.0323 90.9506 42.4248 90.9506C41.8173 90.9506 41.2095 90.7186 40.7457 90.2548C39.818 89.3271 39.818 87.8242 40.7457 86.8963L41.8842 85.7577C40.8941 84.3139 40.1961 82.6586 39.8614 80.8752H38.25C36.9373 80.8752 35.875 79.8128 35.875 78.5002C35.875 77.1875 36.9373 76.1252 38.25 76.1252H39.8614C40.1961 74.3418 40.8941 72.6864 41.8842 71.2426L40.7457 70.1041C39.818 69.1764 39.818 67.6735 40.7457 66.7456C41.6733 65.8177 43.1762 65.8179 44.1041 66.7456L45.2427 67.8842C46.6865 66.894 48.3419 66.196 50.1252 65.8614V64.2499C50.1252 62.9373 51.1876 61.8749 52.5002 61.8749C53.8129 61.8749 54.8752 62.9373 54.8752 64.2499V65.8614C56.6586 66.196 58.314 66.894 59.7578 67.8842L60.8963 66.7456C61.824 65.8179 63.3269 65.8179 64.2548 66.7456C65.1827 67.6733 65.1825 69.1762 64.2548 70.1041L63.1162 71.2426C64.1064 72.6864 64.8044 74.3418 65.139 76.1252H66.7505C68.0631 76.1252 69.1255 77.1875 69.1255 78.5002C69.1255 79.8128 68.0627 80.8752 66.75 80.8752Z" fill="#0085F2"/>
<path d="M19.25 80.875H16.875C15.5623 80.875 14.5 79.8127 14.5 78.5C14.5 77.1873 15.5623 76.125 16.875 76.125H19.25C20.5627 76.125 21.625 77.1873 21.625 78.5C21.625 79.8127 20.5627 80.875 19.25 80.875Z" fill="#0085F2"/>
<path d="M28.9891 57.3639C28.3813 57.3639 27.7738 57.1319 27.3099 56.668L25.6308 54.9889C24.7031 54.0612 24.7031 52.5583 25.6308 51.6304C26.5585 50.7025 28.0614 50.7027 28.9893 51.6304L30.6684 53.3095C31.5961 54.2372 31.5961 55.7401 30.6684 56.668C30.2046 57.1319 29.5966 57.3639 28.9891 57.3639Z" fill="#0085F2"/>
<path d="M27.3099 106.065C26.7022 106.065 26.0947 105.833 25.6308 105.369C24.7031 104.441 24.7031 102.939 25.6308 102.011L27.3099 100.331C28.2376 99.4038 29.7405 99.4038 30.6684 100.331C31.5963 101.259 31.5961 102.762 30.6684 103.69L28.9893 105.369C28.5255 105.833 27.9175 106.065 27.3099 106.065Z" fill="#0085F2"/>
<path d="M88.125 80.875H85.75C84.4373 80.875 83.375 79.8127 83.375 78.5C83.375 77.1873 84.4373 76.125 85.75 76.125H88.125C89.4377 76.125 90.5 77.1873 90.5 78.5C90.5 79.8127 89.4377 80.875 88.125 80.875Z" fill="#0085F2"/>
<path d="M76.0111 57.3638C75.4034 57.3638 74.7958 57.1318 74.332 56.6679C73.4043 55.7403 73.4043 54.2374 74.332 53.3095L76.0111 51.6303C76.9388 50.7027 78.4417 50.7027 79.3696 51.6303C80.2975 52.558 80.2973 54.0609 79.3696 54.9888L77.6905 56.6679C77.2266 57.1318 76.6186 57.3638 76.0111 57.3638Z" fill="#0085F2"/>
<path d="M77.6902 106.065C77.0825 106.065 76.475 105.833 76.0111 105.369L74.332 103.69C73.4043 102.762 73.4043 101.26 74.332 100.332C75.2597 99.4037 76.7626 99.4039 77.6905 100.332L79.3696 102.011C80.2973 102.938 80.2973 104.441 79.3696 105.369C78.9058 105.833 78.2978 106.065 77.6902 106.065Z" fill="#0085F2"/>
</g>
<defs>
<clipPath id="clip0_298_257">
<rect width="76" height="76" fill="white" transform="translate(14.5 50)"/>
</clipPath>
</defs>
</svg>
