<svg width="206" height="200" viewBox="0 0 206 200" fill="none" xmlns="http://www.w3.org/2000/svg">
<g opacity="0.6">
<path d="M180.435 167.471C148.398 187.715 106.662 192.384 69.5696 182.569C52.5448 178.068 35.7729 170.223 25.1288 156.861C15.5864 144.872 11.8286 128.91 15.0905 114.218C18.3523 99.5202 28.5862 86.3486 42.4254 79.0142C47.4947 76.3246 52.9931 74.398 57.9432 71.5271C62.8932 68.6515 67.4236 64.5742 69.0069 59.2808C71.8109 49.9243 64.7674 40.4773 64.4622 30.7584C64.2523 24.1631 67.3759 17.5344 72.7075 13.2806C78.039 9.02682 119.542 -0.730203 150.582 18.5406C168.132 29.4374 176.859 52.3946 169.148 70.8738C165.404 79.8392 158.313 87.2833 154.665 96.2821C150.902 105.581 151.155 116.273 155.347 125.405C159.543 134.533 167.636 142.001 177.388 145.73C181.794 147.414 187.078 148.839 188.886 152.998C191.304 158.544 185.7 164.147 180.435 167.471Z" fill="#EEF4FF"/>
</g>
<path d="M6.00348 145.267C6.85233 151.41 11.0203 157.352 17.0099 158.944C20.5103 159.874 24.2109 159.297 27.797 158.782C31.3832 158.262 35.2459 157.533 38.5555 159.011C42.2704 160.671 43.8298 165.416 44.4689 168.649C44.8361 170.495 44.9028 171.849 44.9028 171.849C46.9487 168.906 48.6034 165.74 49.5477 162.278C50.4871 158.816 50.4967 155.015 49.0136 151.753C47.5352 148.491 44.426 145.878 40.8589 145.506C38.6795 145.282 36.5097 145.868 34.3542 146.245C32.1939 146.622 29.8524 146.755 27.921 145.72C25.5986 144.476 24.4159 141.862 23.5003 139.397C22.5847 136.931 21.6691 134.28 19.5994 132.659C17.5154 131.032 14.5111 130.813 12.0742 131.838C11.5115 132.077 10.9726 132.377 10.4719 132.725C8.81709 133.879 7.53904 135.587 6.78556 137.47C5.79842 139.917 5.64105 142.649 6.00348 145.267Z" fill="#E1E5FF"/>
<path d="M6.00174 145.267C6.85059 151.41 11.0185 157.352 17.0082 158.944C20.5085 159.874 24.2091 159.297 27.7953 158.782C31.3815 158.262 35.2442 157.533 38.5538 159.011C42.2687 160.671 43.8281 165.416 44.4671 168.649C44.9535 164.972 42.6597 161.152 39.5075 159.035C36.0025 156.684 31.6676 155.983 27.4758 155.468C25.2106 155.191 22.912 154.943 20.7517 154.195C18.5962 153.441 16.5504 152.111 15.4059 150.136C13.9752 147.666 14.1421 144.628 14.166 141.777C14.1898 138.925 13.9132 135.777 11.9008 133.755C11.4811 133.336 10.9899 132.983 10.4654 132.716C8.81058 133.87 7.53253 135.577 6.77906 137.461C5.79668 139.917 5.63931 142.649 6.00174 145.267Z" fill="#CCD2FF"/>
<path d="M41.2412 188.793C40.8931 187.515 39.7438 186.432 38.5421 185.874C37.3403 185.316 35.8906 185.321 34.6936 185.879C32.7623 186.78 31.6225 188.936 29.6577 189.756C27.4069 190.691 24.4931 189.265 23.8541 186.909C23.4726 185.502 23.8207 184.014 23.9876 182.56C24.1545 181.11 24.0687 179.474 23.0386 178.435C21.8702 177.257 19.9055 177.319 18.3842 177.977C16.863 178.635 15.604 179.775 14.1686 180.604C11.7556 182.002 8.75596 182.483 6.10926 181.601C3.46256 180.719 1.2689 178.397 0.844471 175.64C0.381894 172.65 2.00807 169.617 4.36387 167.714C6.71967 165.812 9.70496 164.872 12.6664 164.262C14.9459 163.79 17.2969 163.484 19.6003 163.813C21.9036 164.142 24.1784 165.163 25.6519 166.966C26.4722 167.972 27.0301 169.193 27.9744 170.089C30.8166 172.793 35.8334 171.496 38.9236 173.914C41.0219 175.554 41.6275 178.454 41.7753 181.11C41.8946 183.375 41.2412 188.793 41.2412 188.793Z" fill="#E1E5FF"/>
<path d="M0.836016 175.64C1.26044 178.396 3.4541 180.728 6.10081 181.601C8.74751 182.478 11.7423 181.997 14.1601 180.604C15.5908 179.774 16.8545 178.639 18.3758 177.977C19.897 177.319 21.8666 177.257 23.0302 178.43C24.0602 179.464 24.1413 181.105 23.9792 182.555C23.8122 184.004 23.4594 185.492 23.8456 186.904C24.4847 189.255 27.3984 190.686 29.6541 189.746C31.6236 188.931 32.7586 186.77 34.6899 185.869C35.8917 185.306 37.3367 185.306 38.5432 185.864C39.7449 186.422 40.8942 187.505 41.2423 188.783C41.2423 188.783 41.2709 188.525 41.3234 188.096C41.4903 186.565 41.867 182.874 41.7717 181.105C41.6238 178.444 41.0182 175.549 38.9199 173.909C35.8297 171.491 30.8129 172.788 27.9707 170.084C27.0264 169.192 26.4685 167.967 25.6482 166.961C24.1794 165.158 21.8999 164.137 19.5966 163.808C17.2933 163.484 14.9422 163.789 12.6627 164.261C9.70127 164.872 6.71122 165.811 4.36018 167.714C2.7817 168.987 1.5418 170.766 1.02677 172.698C0.759715 173.651 0.683414 174.653 0.836016 175.64Z" fill="#E1E5FF"/>
<path d="M0.834745 175.641C1.25917 178.398 3.45283 180.73 6.09953 181.602C8.74624 182.48 11.7411 181.998 14.1589 180.606C15.5895 179.776 16.8532 178.641 18.3745 177.978C19.8958 177.32 21.8653 177.258 23.0289 178.431C24.059 179.466 24.14 181.106 23.9779 182.556C23.811 184.006 23.4581 185.494 23.8444 186.905C24.4834 189.256 27.3971 190.687 29.6528 189.748C31.6223 188.932 32.7573 186.772 34.6887 185.871C35.8904 185.308 37.3354 185.308 38.5419 185.866C39.7436 186.424 40.8929 187.506 41.2411 188.784C41.2411 188.784 41.2697 188.527 41.3221 188.098C40.8882 186.92 39.8533 185.956 38.7136 185.37C37.2448 184.612 35.5852 184.325 34.002 183.834C32.4235 183.348 30.8212 182.58 29.9294 181.188C29.338 180.262 29.1139 179.151 28.6418 178.164C27.5688 175.927 25.2369 174.483 22.8095 173.953C20.387 173.429 17.8595 173.71 15.4178 174.168C12.9762 174.626 10.5632 175.265 8.08814 175.446C6.1043 175.598 3.96787 175.403 2.37985 174.196C1.83143 173.782 1.38316 173.266 1.02073 172.689C0.758444 173.653 0.682143 174.654 0.834745 175.641Z" fill="#CCD2FF"/>
<path d="M98.4616 53.9498C98.3614 54.4744 98.1802 54.9608 97.9275 55.3947C96.9928 57.0114 95.1043 57.9413 93.1682 57.5789C90.7027 57.1163 89.0813 54.7414 89.5439 52.2807C89.9492 50.1061 91.852 48.5848 93.9932 48.5801C94.2746 48.5801 94.5559 48.6039 94.842 48.6564C97.298 49.1142 98.9194 51.4891 98.4616 53.9498Z" fill="#E1E5FF"/>
<path d="M55.0362 145.588L68.4414 178.302L69.5191 180.93C70.7352 183.891 73.7968 185.665 76.9728 185.241L94.5841 182.885C99.5866 182.212 102.286 176.657 99.7106 172.308L80.6257 140.08C79.4526 136.875 79.7435 133.318 81.4221 130.347L101.656 100.861C92.7481 98.2095 84.8795 97.251 78.1603 98.1523L71.3408 107.289L58.3219 124.739C53.9775 130.776 52.7567 138.511 55.0362 145.588Z" fill="#8D95FF"/>
<path d="M68.4427 178.302L69.5204 180.93C70.7365 183.891 73.7981 185.665 76.9741 185.241L94.5854 182.885C99.5879 182.212 102.287 176.657 99.7119 172.308L80.6271 140.08C79.4539 136.875 79.7448 133.318 81.4235 130.347L101.658 100.861C92.7494 98.2095 84.8809 97.251 78.1616 98.1523L71.3421 107.289C71.6044 107.404 71.881 107.509 72.1671 107.609C73.841 108.181 75.5959 108.644 77.0218 109.683C79.8927 111.786 80.7558 115.84 80.0071 119.321C79.2584 122.798 77.1983 125.826 75.1286 128.716C73.0542 131.606 70.8796 134.524 69.8495 137.924C68.4332 142.598 69.3392 147.696 71.1275 152.24C72.9159 156.785 75.5435 160.934 77.7419 165.297C78.6384 167.076 79.473 168.946 79.5922 170.929C79.7162 172.913 78.9913 175.064 77.327 176.156C74.9569 177.711 71.6378 176.681 69.0913 177.925C68.8528 178.035 68.643 178.164 68.4427 178.302Z" fill="#757BFF"/>
<path d="M125.151 131.635L133.501 126.112L138.227 137.076L131.193 142.169L125.151 131.635Z" fill="#FCBBA4"/>
<path d="M93.0675 158.772L127.889 152.596C129.044 152.391 130.04 151.886 130.832 151.18C132.863 149.373 133.55 146.273 132.057 143.674L124.718 130.874C123.068 128.008 119.42 127.007 116.54 128.628L104.126 135.629C112.095 122.195 115.491 117.464 115.767 105.58L93.1581 97.5879L88.766 107.807L76.0809 137.35C71.2071 148.7 80.8974 160.928 93.0675 158.772Z" fill="#8D95FF"/>
<path d="M88.7725 107.804C90.1507 110.05 92.3538 111.781 94.9385 112.42C97.1131 112.959 99.3926 112.754 101.629 112.916C103.866 113.078 106.245 113.722 107.628 115.482C109.202 117.48 109.054 120.332 108.406 122.792C107.328 126.884 105.077 130.652 101.982 133.541C100.332 135.077 98.4484 136.379 97.0082 138.119C95.5728 139.86 94.6238 142.225 95.2915 144.381C96.1355 147.099 99.1113 148.468 101.81 149.369C104.176 150.151 106.622 150.828 109.107 150.743C111.591 150.657 114.152 149.708 115.683 147.743C116.723 146.408 117.204 144.729 118.015 143.241C118.826 141.753 120.18 140.347 121.873 140.313C123.537 140.285 124.949 141.62 125.707 143.103C126.465 144.586 126.766 146.265 127.405 147.8C128.049 149.341 129.184 150.838 130.814 151.191L130.834 151.196C132.865 149.388 133.552 146.289 132.059 143.689L124.72 130.89C123.07 128.024 119.422 127.022 116.541 128.644L104.128 135.644C112.097 122.211 115.492 117.48 115.769 105.596L93.1598 97.6035L88.7725 107.804Z" fill="#757BFF"/>
<path d="M91.7735 183.276L93.7049 191.298L84.0623 191.789L81.8829 184.602L91.7735 183.276Z" fill="#FCBBA4"/>
<path d="M81.4029 80.9552C77.9932 80.8503 68.8132 79.4101 61.102 73.616C56.4762 70.1443 52.0364 65.137 49.1131 61.5127C47.0435 58.9423 45.732 57.0634 45.6605 56.906C31.106 55.8473 33.2806 51.5077 34.8019 52.4281C36.0418 53.1768 40.2002 53.7252 40.4816 53.7586C34.4967 52.223 34.5682 48.5987 36.7857 50.1915C38.6837 51.5601 42.1888 52.7046 42.4034 52.7762C36.8811 49.4905 37.172 46.9439 39.275 48.6654C41.3829 50.3822 44.7544 51.8463 44.7544 51.8463C41.9027 50.0675 41.3876 46.653 44.9881 49.7861C48.5886 52.9192 51.8171 52.1276 53.9106 53.3007C59.9765 56.7105 64.6595 66.7679 76.5768 67.3879C77.3303 67.4308 78.1029 67.4308 78.9136 67.3926C80.349 71.4605 80.225 76.1816 78.823 80.7072C79.8626 80.855 80.74 80.9361 81.4029 80.9552Z" fill="#FCBBA4"/>
<path d="M81.4038 80.9558C77.9941 80.8509 68.8141 79.4107 61.1029 73.6165C56.4772 70.1448 52.0374 65.1376 49.1141 61.5133C49.7436 61.4799 50.373 61.7851 50.931 62.0998C54.8462 64.3364 57.8983 67.7747 61.2221 70.822C64.546 73.8645 68.4565 76.6543 72.9439 77.0549C73.8595 77.1359 74.8085 77.1121 75.6574 76.7783C76.511 76.4445 77.2693 75.7577 77.4982 74.8707C77.9178 73.2541 76.573 71.7424 76.2153 70.1115C76.0151 69.1958 76.1533 68.2278 76.573 67.3884C77.3265 67.4314 78.099 67.4314 78.9097 67.3932C80.3451 71.461 80.2212 76.1822 78.8191 80.7078C79.8635 80.8556 80.741 80.9367 81.4038 80.9558Z" fill="#F2A07C"/>
<path d="M131.429 88.4006C130.389 87.485 129.297 86.7124 128.038 86.3452C127.995 89.0539 127.533 91.6768 126.636 94.1184C125.635 96.8271 124.104 99.3164 122.01 101.448C122.006 101.448 122.006 101.453 122.001 101.458C119.306 104.195 115.687 106.35 111.095 107.633C92.7298 112.774 91.6139 95.8209 72.9344 105.049C75.4428 101.949 77.3122 98.0002 78.6904 94.2043C81.0891 87.5708 81.957 81.3952 82.0095 80.9612C81.9761 80.9612 81.9379 80.9612 81.8998 80.966C81.2131 80.9707 80.1544 80.8945 78.8144 80.7085C80.2832 75.973 80.5216 71.5905 78.8668 67.3987C80.6074 67.3891 82.3719 67.0505 84.2461 66.607C85.1187 66.3972 90.1833 64.8569 90.7031 64.69C92.0622 64.2512 93.3974 63.8983 94.7041 63.6265C96.7547 63.183 98.729 62.9255 100.579 62.8015C105.367 62.4629 109.392 62.9923 112.115 63.5693C112.115 63.5693 114.042 64.0128 116.569 65.3767C118.167 66.2398 120.012 67.475 121.753 69.2013C121.753 69.2013 121.772 69.2204 121.81 69.2537C122.602 69.9738 131.028 77.8901 131.429 88.4006Z" fill="#FC6054"/>
<path d="M94.7066 63.6211C94.2059 64.3316 93.152 64.8801 92.5893 65.2282C91.0394 66.1677 89.3989 66.9593 87.6965 67.5792C86.7188 67.9369 85.7269 68.2373 84.7159 68.4758C83.786 68.6999 82.7893 68.9002 82.0883 69.5488C81.2299 70.3451 81.0296 71.6137 80.9199 72.782C80.8436 73.6261 80.7912 74.4702 80.7626 75.319C80.7149 76.764 82.5652 77.403 83.4188 76.2394L83.4426 76.206C82.9324 77.7941 82.4221 79.3773 81.9071 80.9701C81.2204 80.9749 80.1617 80.8986 78.8217 80.7126C80.2905 75.9771 80.5289 71.5946 78.8741 67.4028C80.6147 67.3932 82.3792 67.0547 84.2533 66.6112C85.126 66.4013 90.1906 64.861 90.7104 64.6941C92.0647 64.2506 93.4 63.8977 94.7066 63.6211Z" fill="#E64B38"/>
<path d="M124.012 95.7051C123.821 97.7557 123.073 99.6775 122.009 101.447C122.005 101.447 122.005 101.452 122 101.456C119.305 104.194 115.686 106.349 111.093 107.632C92.7287 112.773 91.6128 95.8195 72.9333 105.047C75.4417 101.947 77.3111 97.9989 78.6893 94.2029C79.7527 93.9788 80.8543 93.8691 81.9368 93.8452C84.6932 93.7832 87.4353 94.222 90.1822 94.4557C95.0177 94.8753 99.901 94.6702 104.684 93.8452C108.38 93.211 112.181 92.1142 114.899 89.5295C115.843 88.6329 116.597 87.5265 117.112 86.3248C117.369 85.7287 118.905 82.0996 118.905 82.0996C118.905 82.0996 121.666 86.6014 122.109 87.4455C123.44 89.9873 124.284 92.8533 124.012 95.7051Z" fill="#E64B38"/>
<path d="M131.426 88.3998C130.386 87.4842 129.294 86.7116 128.035 86.3444C127.992 89.0531 127.529 91.676 126.633 94.1176C125.197 93.7886 123.814 92.9874 122.765 91.943C121.735 90.9177 120.905 89.6206 120.724 88.1756C120.548 86.7355 121.12 85.1474 122.355 84.3844C124.153 83.2781 128.016 84.9853 128.435 82.9204C128.869 80.7696 126.051 79.2436 124.792 77.4505C122.584 74.3079 120.252 71.2511 117.787 68.2992C116.809 67.126 116.146 66.4345 116.566 65.3711C118.163 66.2343 120.009 67.4694 121.75 69.1957C121.75 69.1957 121.769 69.2148 121.807 69.2481C122.598 69.973 131.025 77.8893 131.426 88.3998Z" fill="#E64B38"/>
<path d="M112.117 63.5638C111.488 66.1246 109.17 68.0322 106.418 68.0322C104.845 68.0322 103.371 67.417 102.265 66.3058C101.311 65.3568 100.724 64.1265 100.586 62.7912C105.365 62.4574 109.394 62.9867 112.117 63.5638Z" fill="white"/>
<path d="M115.058 46.4341C115.058 52.1758 110.404 56.8302 104.662 56.8302C98.9203 56.8302 94.2659 52.1758 94.2659 46.4341C94.2659 40.6925 98.9203 36.0381 104.662 36.0381C110.404 36.0381 115.058 40.6925 115.058 46.4341Z" fill="#E1E5FF"/>
<path d="M113.613 41.1503C111.71 39.052 108.959 37.731 105.902 37.731C100.165 37.731 95.5058 42.3806 95.5058 48.1223C95.5058 50.0489 96.0304 51.8515 96.946 53.3966C95.2769 51.5511 94.2659 49.1094 94.2659 46.4294C94.2659 40.6925 98.9251 36.0381 104.667 36.0381C108.477 36.0381 111.806 38.0887 113.613 41.1503Z" fill="#CCD2FF"/>
<path d="M105.589 42.9814C105.589 42.9814 107.415 43.6682 108.097 46.1241C108.774 48.5801 106.166 46.477 106.166 46.477C106.166 46.477 106.662 43.8637 105.589 42.9814Z" fill="#CCD2FF"/>
<path d="M111.383 57.5794L110.186 58.0515V62.0764C110.186 63.1494 109.752 64.1174 109.046 64.8185C108.35 65.5242 107.377 65.9582 106.304 65.9582C104.234 65.9582 102.541 64.3368 102.427 62.291C102.427 62.2194 102.422 62.1479 102.422 62.0716V57.7701C102.422 56.8736 102.236 55.9914 101.864 55.1759C101.106 53.502 99.8993 50.5692 99.8993 50.5692C99.7801 50.264 99.6894 49.9492 99.6274 49.6345C100.739 49.9969 101.978 49.9874 103.156 49.5296C105.002 48.8095 106.208 47.1547 106.447 45.3139C107.863 45.9959 109.551 46.1103 111.13 45.4904C111.807 45.2281 112.403 44.8514 112.913 44.3936L113.481 45.8337L114.916 49.4914C116.171 52.6961 114.592 56.3204 111.383 57.5794Z" fill="#FCBBA4"/>
<path d="M107.828 57.8311C107.828 57.8311 109.717 59.7624 110.184 61.3457V58.2221L107.828 57.8311Z" fill="#F2A07C"/>
<path d="M112.913 44.3877C112.408 44.8455 111.807 45.2222 111.13 45.4845C109.551 46.1045 107.863 45.9948 106.447 45.3081C106.208 47.1441 105.002 48.7989 103.156 49.5237C101.983 49.9815 100.743 49.9958 99.6274 49.6286C99.6894 49.9434 99.7801 50.2581 99.8993 50.5633C99.8993 50.5633 101.101 53.4914 101.864 55.17C102.184 55.8758 102.36 56.6341 102.403 57.4066L102.422 59.6432C103.237 58.6036 102.732 55.604 102.656 54.6931C102.579 53.7966 102.575 52.8762 102.899 52.0417C103.199 51.2787 103.762 50.6444 104.31 50.034C105.045 49.2138 105.779 48.3983 106.514 47.5828C106.824 47.2347 107.153 46.8723 107.582 46.6958C108.459 46.3286 109.432 46.796 110.372 46.9152C111.392 47.0392 112.465 46.7197 113.252 46.052C113.333 45.9805 113.414 45.9089 113.486 45.8326L112.913 44.3877Z" fill="#F2A07C"/>
<path d="M110.377 48.5752C110.377 48.5752 110.84 49.7817 111.965 50.5447C112.461 50.8785 111.178 51.2076 110.515 51.1694" fill="#FCBBA4"/>
<path d="M107.647 57.7646C108.324 58.0126 109.177 58.1652 110.193 58.046L107.647 57.7646Z" fill="#F2A07C"/>
<path d="M108.694 48.1221C108.694 48.1221 107.396 48.1364 106.715 49.7053L108.694 48.1221Z" fill="#FCBBA4"/>
<path d="M113.724 46.5015C113.724 46.5015 112.503 46.0723 111.321 47.3122L113.724 46.5015Z" fill="#FCBBA4"/>
<path d="M88.3407 83.9031L89.7665 119.717C89.7665 119.717 74.9212 109.741 63.8146 112.945L58.4687 80.9369C68.2972 77.7036 78.2403 78.2091 88.3407 83.9031Z" fill="#E1E5FF"/>
<path d="M85.2164 85.8536C80.3188 83.3547 75.4403 82.1387 70.3567 82.1387C67.6671 82.1387 64.8964 82.4963 62.0923 83.2069L66.4368 109.211C67.1425 109.145 67.8626 109.111 68.597 109.111C75.1542 109.111 81.883 111.82 86.3466 114.08L85.2164 85.8536Z" fill="white"/>
<path d="M58.4725 80.9327C58.4725 80.9327 48.7345 72.5586 34.2421 76.4214L44.8146 109.145C52.3875 108.339 58.8015 109.479 63.8184 112.946L58.4725 80.9327Z" fill="#E1E5FF"/>
<path d="M55.5257 82.7304C53.6181 81.438 48.6585 78.6006 41.8487 78.6006C40.7041 78.6006 39.5453 78.6817 38.3817 78.839L47.0753 105.754C47.824 105.716 48.5584 105.697 49.2737 105.697C53.0554 105.697 56.5176 106.236 59.6269 107.299L55.5257 82.7304Z" fill="white"/>
<path d="M130.011 96.626C125.347 108.438 101.207 103.789 94.817 102.33C93.8251 102.105 93.2624 101.953 93.2624 101.953C93.2624 101.953 87.1535 104.294 87.5922 102.649C87.7258 102.153 88.4268 102.153 89.1755 101.657C87.6828 102.163 85.761 103.231 86.0471 102.144C86.1997 101.576 86.8388 101.113 87.7496 100.546C86.276 101.032 84.4448 102.139 84.7214 101.09C84.9026 100.412 85.7801 99.7782 86.9198 99.1296C85.5893 99.5254 84.2111 100.35 84.4496 99.4396C84.8931 97.7896 88.999 96.6975 88.999 96.6975C88.999 96.6975 88.4315 94.6231 89.042 94.0317C89.9433 93.1591 92.7378 95.5339 92.7378 95.5339C92.7378 95.5339 116.458 96.7834 120.249 90.9463C120.488 90.5839 120.645 90.1928 120.712 89.7684C120.788 89.3106 120.831 88.8528 120.845 88.3998C125.857 84.6801 128.819 86.1059 131.427 88.4045C131.532 91.0083 131.136 93.7695 130.011 96.626Z" fill="#FCBBA4"/>
<path d="M130.001 96.626C125.337 108.438 101.197 103.789 94.8073 102.33C95.6227 101.552 96.9198 101.485 98.0691 101.49C103.539 101.5 109.004 101.509 114.474 101.519C117.822 101.528 121.289 101.509 124.345 100.136C127.397 98.7624 129.939 95.6436 129.524 92.3197C129.415 91.4661 129.062 90.56 128.299 90.1547C127.259 89.611 126.024 90.2024 124.932 90.6268C123.439 91.2086 121.732 91.4613 120.239 90.9463C120.478 90.5839 120.635 90.1928 120.702 89.7684C120.778 89.3106 120.821 88.8528 120.836 88.3998C125.848 84.6801 128.809 86.1059 131.418 88.4045C131.522 91.0083 131.127 93.7695 130.001 96.626Z" fill="#F2A07C"/>
<path d="M95.5901 51.5089L104.05 49.63L103.568 47.6318L94.7603 49.5871L95.5901 51.5089Z" fill="#FC6054"/>
<path d="M115.631 43.8536L116.518 47.8832C116.714 48.7654 116.156 49.6334 115.278 49.8289L112.007 50.549C111.769 50.6015 111.516 50.5538 111.316 50.4107L110.772 50.0244C110.681 49.9624 110.567 49.9386 110.457 49.9624L109.494 50.177C109.384 50.2009 109.289 50.2724 109.236 50.3678L108.907 50.9448C108.783 51.1594 108.578 51.3072 108.34 51.3597L105.469 51.994C104.41 52.2276 103.447 51.9653 103.156 50.9687C103.142 50.9257 103.132 50.8876 103.123 50.8447L102.236 46.815C102.126 46.3095 102.445 45.8088 102.951 45.6943L114.511 43.143C114.668 43.1096 114.825 43.1144 114.968 43.1573C115.293 43.2431 115.555 43.5007 115.631 43.8536Z" fill="#757BFF"/>
<path d="M114.983 43.1491L115.827 46.9832C116.023 47.8654 115.465 48.7334 114.587 48.9289L111.316 49.649C111.077 49.7014 110.825 49.6537 110.624 49.5107L110.081 49.1244C109.99 49.0624 109.876 49.0386 109.766 49.0624L108.803 49.277C108.693 49.3009 108.598 49.3724 108.545 49.4678L108.216 50.0448C108.092 50.2594 107.887 50.4072 107.649 50.4597L104.778 51.0939C104.177 51.2275 103.605 51.1988 103.171 50.9652C103.156 50.9223 103.147 50.8841 103.137 50.8412L102.25 46.8115C102.141 46.306 102.46 45.8053 102.966 45.6908L114.525 43.1395C114.683 43.1014 114.835 43.1109 114.983 43.1491Z" fill="#8D95FF"/>
<path d="M114.379 46.6011C114.56 47.4261 114.04 48.2368 113.215 48.4228C112.734 48.5277 112.261 48.3942 111.908 48.1081C111.656 47.8983 111.47 47.6074 111.393 47.264C111.212 46.439 111.732 45.6235 112.557 45.4423C112.791 45.3899 113.024 45.3946 113.244 45.4471C113.792 45.5758 114.25 46.0098 114.379 46.6011Z" fill="#E1E5FF"/>
<path d="M113.759 46.2912C113.94 47.1162 113.42 47.9269 112.595 48.1129C112.362 48.1653 112.128 48.1605 111.908 48.1081C111.656 47.8983 111.47 47.6074 111.393 47.264C111.212 46.439 111.732 45.6235 112.557 45.4423C112.791 45.3899 113.024 45.3946 113.244 45.4471C113.497 45.6521 113.683 45.943 113.759 46.2912Z" fill="white"/>
<path d="M107.521 48.108C107.702 48.933 107.182 49.7437 106.357 49.9297C105.876 50.0346 105.403 49.9011 105.051 49.6149C104.798 49.4051 104.612 49.1142 104.535 48.7708C104.354 47.9458 104.874 47.1304 105.699 46.9491C105.933 46.8967 106.166 46.9015 106.386 46.9539C106.939 47.0827 107.392 47.5166 107.521 48.108Z" fill="#E1E5FF"/>
<path d="M106.915 47.798C107.097 48.623 106.577 49.4337 105.752 49.6197C105.518 49.6722 105.284 49.6674 105.065 49.6149C104.812 49.4051 104.626 49.1142 104.55 48.7708C104.369 47.9458 104.889 47.1304 105.714 46.9491C105.947 46.8967 106.181 46.9015 106.4 46.9539C106.648 47.159 106.839 47.4546 106.915 47.798Z" fill="white"/>
<path d="M101.697 53.8026C100.738 54.8088 99.1453 54.8518 98.1391 53.8932C97.1329 52.9347 97.0947 51.3467 98.0532 50.3357C99.0118 49.3295 100.605 49.2865 101.611 50.2451" fill="#F2A07C"/>
<path d="M123.017 9.45504L123.294 49.1699C123.318 53.3664 126.742 56.7714 130.938 56.7714H193.448C197.645 56.7714 201.031 53.3664 201.007 49.1699L200.73 9.45504C200.706 5.25847 197.282 1.85352 193.086 1.85352H130.576C126.379 1.84875 122.994 5.2537 123.017 9.45504Z" fill="white"/>
<path d="M200.73 9.45562L201.007 49.1704C201.031 53.3718 197.645 56.772 193.448 56.772H130.933C128.11 56.772 125.64 55.2364 124.314 52.9521C125.635 54.0442 127.328 54.6975 129.169 54.6975H191.684C195.885 54.6975 199.271 51.2926 199.247 47.0912L198.97 7.37641C198.961 5.99822 198.589 4.70586 197.94 3.59473C199.633 4.99199 200.716 7.09505 200.73 9.45562Z" fill="#E1E5FF"/>
<path d="M185.793 48.2508H132.596C132.596 48.2508 139.726 28.4411 145.792 25.3032C153.403 21.3689 158.086 28.7081 161.452 36.0664C164.819 43.4295 171.143 34.4164 175.997 34.6167C180.862 34.817 184.543 40.1247 185.793 48.2508Z" fill="#47B6C3"/>
<path d="M185.056 48.2517H133.982C136.342 42.4051 141.359 31.1555 145.804 28.8569C153.415 24.9226 158.098 32.2618 161.464 39.6201C164.831 46.9832 171.155 37.9701 176.009 38.1704C180.125 38.3373 183.391 42.1619 185.056 48.2517Z" fill="#66D3D8"/>
<path d="M138.677 12.084C139.336 12.084 139.793 12.3892 140.046 12.9948C140.122 13.2094 140.161 13.4288 140.161 13.6529V13.672C140.161 14.3158 139.464 15.3602 138.067 16.7908H138.129C138.472 16.7908 139.126 16.7479 140.08 16.6573C140.213 16.6573 140.308 16.7384 140.375 16.8957C140.389 16.9196 140.399 16.9577 140.399 17.0054C140.399 17.1723 140.304 17.282 140.108 17.3392C138.959 17.4632 137.996 17.5252 137.218 17.5252C137.018 17.4728 136.923 17.3488 136.923 17.158C136.923 17.0483 137.061 16.8767 137.333 16.6525C138.139 15.7798 138.625 15.2123 138.787 14.9548C139.25 14.3587 139.479 13.9248 139.479 13.6482V13.6339C139.479 13.2523 139.34 12.9948 139.059 12.8565C138.945 12.8088 138.816 12.7802 138.677 12.7802C138.148 12.7802 137.8 12.971 137.628 13.3477C137.566 13.5194 137.452 13.6052 137.28 13.6052C137.132 13.6052 137.023 13.5146 136.951 13.3286V13.2571C136.951 13.0044 137.137 12.7278 137.509 12.4178C137.843 12.1984 138.234 12.084 138.677 12.084Z" fill="black"/>
<path d="M144.242 14.3058C144.299 15.7698 144.409 16.7092 144.571 17.1289V17.167C144.571 17.3387 144.48 17.458 144.304 17.5152L144.227 17.5247C144.008 17.5247 143.865 17.3292 143.803 16.9381C143.794 16.9381 143.784 16.8857 143.77 16.7855C143.584 17.0192 143.407 17.1766 143.236 17.2529C142.973 17.3912 142.706 17.4627 142.43 17.4627H142.325C141.705 17.4627 141.29 17.1671 141.08 16.5757C141.018 16.3754 140.989 16.1704 140.989 15.9701C140.989 15.1165 141.242 14.425 141.743 13.8956C142.034 13.6524 142.358 13.5332 142.716 13.5332C142.992 13.5332 143.312 13.5857 143.674 13.6906C144.022 13.7907 144.213 13.9958 144.242 14.3058ZM141.676 15.9748C141.676 16.2562 141.752 16.4756 141.905 16.6329C142.015 16.7188 142.158 16.7617 142.325 16.7617H142.42C142.845 16.7617 143.25 16.5137 143.627 16.0225C143.593 15.2691 143.574 14.7349 143.574 14.425H143.55C143.245 14.2867 142.969 14.2151 142.721 14.2151C142.22 14.2151 141.881 14.6253 141.705 15.4503L141.676 15.9748Z" fill="black"/>
<path d="M146.689 13.0566C146.851 13.0566 146.97 13.1472 147.037 13.3189L147.047 14.2727H148.024C148.134 14.3728 148.191 14.4873 148.191 14.6065V14.616C148.191 14.8116 148.072 14.926 147.834 14.9642H147.056L147.032 15.8703C147.032 15.999 146.951 16.0992 146.794 16.1707C146.77 16.185 146.732 16.1898 146.684 16.1898C146.527 16.1898 146.412 16.1039 146.35 15.9322L146.341 15.8559L146.365 15.0023L145.511 15.0309C145.344 15.0309 145.23 14.9308 145.163 14.7305V14.7067C145.163 14.5445 145.235 14.4301 145.382 14.3585C145.382 14.3347 145.707 14.3108 146.35 14.2822V13.4143C146.35 13.2665 146.427 13.152 146.579 13.0709L146.689 13.0566Z" fill="black"/>
<path d="M149.222 11.8496H149.265C149.399 11.8496 149.494 11.9307 149.561 12.0976L149.58 12.2073C149.518 12.9417 149.485 13.6236 149.485 14.2626C149.885 13.8048 150.319 13.5712 150.787 13.5712H150.796C151.249 13.5712 151.64 13.7524 151.969 14.11C152.241 14.42 152.375 14.8635 152.375 15.4453C152.375 16.194 152.155 16.752 151.712 17.1144C151.445 17.3147 151.116 17.4148 150.729 17.4148C150.329 17.4148 149.947 17.2908 149.58 17.0476H149.537L149.551 17.1144C149.551 17.3099 149.456 17.4387 149.27 17.4959H149.194C149.008 17.4959 148.898 17.391 148.86 17.1764C148.812 16.1273 148.784 15.2975 148.784 14.6918V14.4105C148.803 12.8081 148.85 12.007 148.927 12.007C149.017 11.9021 149.113 11.8496 149.222 11.8496ZM149.575 16.1749C149.661 16.3275 149.79 16.4563 149.966 16.5564C150.143 16.6614 150.4 16.7138 150.748 16.7138C151.092 16.7138 151.33 16.5898 151.468 16.3418C151.607 16.0939 151.674 15.8125 151.674 15.5025V15.493L151.683 15.4596L151.674 15.4024V15.3309C151.674 14.8111 151.497 14.4772 151.139 14.3342C151.035 14.2865 150.92 14.2579 150.796 14.2579C150.362 14.2579 149.947 14.5058 149.547 15.0018L149.575 16.1749Z" fill="black"/>
<path d="M155.082 13.7529C155.292 13.7815 155.397 13.8912 155.397 14.0867V14.0963C155.397 14.2918 155.278 14.4063 155.04 14.4444L153.318 14.5064C153.127 14.5064 153.013 14.4063 152.97 14.206V14.1821C152.97 13.9961 153.07 13.8817 153.266 13.834L155.082 13.7529ZM155.082 15.0596C155.292 15.0644 155.397 15.174 155.397 15.3934V15.4029C155.397 15.5985 155.278 15.7129 155.04 15.7511L153.318 15.8131C153.103 15.8131 152.984 15.7129 152.97 15.5126V15.4936C152.97 15.3076 153.056 15.1931 153.227 15.1454L155.082 15.0596Z" fill="black"/>
<path d="M157.91 12.0977H157.982C158.115 12.0977 158.211 12.1787 158.277 12.3456L158.287 12.4267V12.4458C158.287 12.6127 157.824 13.6046 156.899 15.4072V15.4358L158.564 15.3834C158.564 15.0257 158.54 14.3962 158.487 13.4902C158.487 13.328 158.578 13.2136 158.754 13.1563L158.826 13.1468C159.002 13.1468 159.117 13.2374 159.174 13.4139C159.226 14.277 159.255 14.9256 159.255 15.3548H159.284L159.546 15.3309C159.703 15.3309 159.813 15.4263 159.88 15.6123V15.6886C159.88 15.9175 159.713 16.0367 159.374 16.0367L159.274 16.0462V16.9762L159.284 17.1717C159.246 17.4101 159.126 17.5294 158.931 17.5294C158.783 17.5294 158.673 17.4483 158.602 17.2814C158.587 17.2098 158.583 17.1002 158.583 16.9476V16.0701L156.375 16.1559C156.136 16.0987 156.012 15.989 155.998 15.8221C155.998 15.803 155.993 15.7887 155.993 15.7697C155.993 15.6218 156.041 15.4645 156.136 15.2975L157.662 12.2312C157.753 12.1453 157.834 12.0977 157.91 12.0977Z" fill="black"/>
<path d="M163.025 13.5717L163.04 13.5812C163.34 13.6527 163.502 13.7386 163.531 13.8435C163.555 13.915 163.564 13.9722 163.564 14.0199C163.564 14.039 163.564 14.0581 163.555 14.0819C163.517 14.2631 163.407 14.3633 163.216 14.3824H163.173L162.825 14.287C162.735 14.2679 162.639 14.2584 162.544 14.2584C162.253 14.2584 161.962 14.3585 161.685 14.5588C161.471 14.7496 161.328 14.9975 161.261 15.3027C161.223 15.4697 161.204 15.6318 161.204 15.7749C161.204 16.1039 161.299 16.3757 161.495 16.5856C161.59 16.6523 161.676 16.6952 161.752 16.7143L161.843 16.7382C161.924 16.7572 162.01 16.762 162.095 16.762C162.429 16.762 162.768 16.6952 163.111 16.557C163.164 16.5379 163.221 16.5331 163.273 16.5331L163.364 16.5426C163.474 16.6142 163.526 16.7048 163.526 16.8192C163.526 16.8717 163.517 16.9242 163.493 16.9814C163.416 17.1721 163.221 17.3009 162.901 17.3677C162.582 17.4344 162.315 17.4678 162.1 17.4678C161.948 17.4678 161.805 17.4487 161.666 17.4153L161.557 17.3867C161.008 17.2532 160.66 16.8574 160.503 16.2041C160.479 16.0991 160.465 15.9752 160.465 15.8416C160.465 15.6366 160.493 15.3934 160.55 15.1168C160.708 14.4396 161.127 13.9532 161.8 13.648C162.081 13.5717 162.348 13.5383 162.591 13.5383C162.749 13.5335 162.892 13.543 163.025 13.5717Z" fill="black"/>
<path d="M173.93 26.9806C173.987 28.4446 174.097 29.384 174.259 29.8037V29.8419C174.259 30.0135 174.168 30.1328 173.992 30.19L173.915 30.1995C173.696 30.1995 173.553 30.004 173.491 29.613C173.481 29.613 173.472 29.5605 173.458 29.4604C173.272 29.694 173.095 29.8514 172.923 29.9277C172.661 30.066 172.394 30.1375 172.117 30.1375H172.013C171.393 30.1375 170.978 29.8419 170.768 29.2505C170.706 29.0502 170.677 28.8452 170.677 28.6449C170.677 27.7913 170.93 27.0998 171.431 26.5704C171.722 26.3272 172.046 26.208 172.404 26.208C172.68 26.208 173 26.2605 173.362 26.3654C173.715 26.4608 173.906 26.6658 173.93 26.9806ZM171.364 28.6496C171.364 28.931 171.44 29.1504 171.593 29.3077C171.703 29.3936 171.846 29.4365 172.013 29.4365H172.108C172.532 29.4365 172.938 29.1885 173.314 28.6973C173.281 27.9439 173.262 27.4098 173.262 27.0998H173.238C172.933 26.9615 172.656 26.89 172.408 26.89C171.908 26.89 171.569 27.3001 171.393 28.1251L171.364 28.6496Z" fill="black"/>
<path d="M176.387 25.7324C176.549 25.7324 176.668 25.823 176.735 25.9947L176.744 26.9485H177.722C177.832 27.0486 177.889 27.1631 177.889 27.2823V27.2918C177.889 27.4874 177.77 27.6018 177.531 27.64H176.754L176.73 28.546C176.73 28.6748 176.649 28.7749 176.492 28.8465C176.468 28.8608 176.43 28.8655 176.382 28.8655C176.224 28.8655 176.11 28.7797 176.048 28.608L176.038 28.5317L176.062 27.6781L175.209 27.7067C175.042 27.7067 174.927 27.6066 174.861 27.4063V27.3824C174.861 27.2203 174.932 27.1058 175.08 27.0343C175.08 27.0105 175.404 26.9866 176.048 26.958V26.0901C176.048 25.9423 176.124 25.8278 176.277 25.7467L176.387 25.7324Z" fill="black"/>
<path d="M180.242 24.7588C180.9 24.7588 181.358 25.064 181.611 25.6696C181.687 25.8842 181.725 26.1036 181.725 26.3277V26.3468C181.725 26.9906 181.029 28.035 179.632 29.4656H179.694C180.037 29.4656 180.69 29.4227 181.644 29.3321C181.778 29.3321 181.873 29.4132 181.94 29.5705C181.954 29.5944 181.964 29.6325 181.964 29.6802C181.964 29.8471 181.868 29.9568 181.673 30.014C180.523 30.138 179.56 30.2 178.783 30.2C178.583 30.1476 178.487 30.0236 178.487 29.8328C178.487 29.7231 178.625 29.5515 178.897 29.3273C179.703 28.4546 180.19 27.8871 180.352 27.6296C180.814 27.0335 181.043 26.5996 181.043 26.323V26.2991C181.043 25.9176 180.905 25.6601 180.624 25.5218C180.509 25.4741 180.38 25.4455 180.242 25.4455C179.713 25.4455 179.365 25.6363 179.193 26.013C179.131 26.1847 179.017 26.2705 178.845 26.2705C178.697 26.2705 178.587 26.1799 178.516 25.9939V25.9224C178.516 25.6696 178.702 25.393 179.074 25.0831C179.408 24.8685 179.799 24.7588 180.242 24.7588Z" fill="black"/>
<path d="M182.988 24.5254H183.031C183.164 24.5254 183.26 24.6065 183.327 24.7734L183.346 24.8831C183.284 25.6175 183.25 26.2994 183.25 26.9384C183.651 26.4806 184.085 26.2469 184.552 26.2469H184.562C185.015 26.2469 185.406 26.4282 185.735 26.7858C186.007 27.0958 186.14 27.5393 186.14 28.1211C186.14 28.8698 185.921 29.4278 185.477 29.7902C185.21 29.9905 184.881 30.0906 184.495 30.0906C184.094 30.0906 183.713 29.9666 183.346 29.7234H183.303L183.317 29.7902C183.317 29.9857 183.222 30.1145 183.036 30.1717H182.959C182.773 30.1717 182.664 30.0668 182.626 29.8522C182.578 28.803 182.549 27.9733 182.549 27.3676V27.0815C182.568 25.4792 182.616 24.678 182.692 24.678C182.783 24.5731 182.878 24.5254 182.988 24.5254ZM183.341 28.8507C183.427 29.0033 183.555 29.1321 183.732 29.2322C183.908 29.3371 184.166 29.3896 184.514 29.3896C184.857 29.3896 185.096 29.2656 185.234 29.0176C185.372 28.7696 185.439 28.4883 185.439 28.1783V28.1688L185.449 28.1354L185.439 28.0782V28.0066C185.439 27.4868 185.263 27.153 184.905 27.01C184.8 26.9623 184.686 26.9337 184.562 26.9337C184.128 26.9337 183.713 27.1816 183.312 27.6776L183.341 28.8507Z" fill="black"/>
<path d="M188.849 26.4287C189.059 26.4573 189.164 26.567 189.164 26.7625V26.7721C189.164 26.9676 189.044 27.082 188.806 27.1202L187.084 27.1822C186.894 27.1822 186.779 27.082 186.736 26.8817V26.8579C186.736 26.6719 186.836 26.5575 187.032 26.5098L188.849 26.4287ZM188.849 27.7306C189.059 27.7354 189.164 27.8451 189.164 28.0644V28.074C189.164 28.2695 189.044 28.3839 188.806 28.4221L187.084 28.4841C186.87 28.4841 186.751 28.3839 186.736 28.1836V28.1598C186.736 27.9738 186.822 27.8594 186.994 27.8117L188.849 27.7306Z" fill="black"/>
<path d="M34.1988 3.20868C34.1988 4.81577 32.8969 6.12243 31.2898 6.12243C30.274 6.12243 29.387 5.60263 28.8624 4.81577C28.5572 4.3532 28.3808 3.80001 28.3808 3.20391C28.3808 1.60158 29.6827 0.294922 31.2898 0.294922C31.5855 0.294922 31.8716 0.337842 32.1386 0.423681C33.3308 0.790881 34.1988 1.90202 34.1988 3.20868Z" fill="#757BFF"/>
<path d="M32.6203 2.02601C32.6203 3.63787 31.3184 4.94453 29.7113 4.94453C29.4156 4.94453 29.1295 4.90161 28.8624 4.81577C28.5572 4.3532 28.3808 3.80001 28.3808 3.20391C28.3808 1.60158 29.6827 0.294922 31.2898 0.294922C31.5855 0.294922 31.8716 0.337842 32.1386 0.423681C32.4391 0.886257 32.6203 1.43467 32.6203 2.02601Z" fill="#8D95FF"/>
<path d="M51.5968 36.29C51.5968 38.2595 49.9944 39.8618 48.0249 39.8618C46.6086 39.8618 45.383 39.032 44.8012 37.8351C44.5771 37.3725 44.4531 36.8479 44.4531 36.2947C44.4531 34.3252 46.0554 32.7324 48.0249 32.7324C48.6687 32.7324 49.2696 32.9041 49.7942 33.2045C50.8719 33.8102 51.5968 34.9642 51.5968 36.29Z" fill="#EFA130"/>
<path d="M50.1423 34.7353C50.1423 36.7049 48.54 38.3024 46.5704 38.3024C45.9266 38.3024 45.3258 38.1307 44.8012 37.8351C44.5771 37.3725 44.4531 36.8479 44.4531 36.2947C44.4531 34.3252 46.0554 32.7324 48.0249 32.7324C48.6687 32.7324 49.2696 32.9041 49.7942 33.2045C50.0231 33.6623 50.1423 34.1821 50.1423 34.7353Z" fill="#FFC25E"/>
<path d="M13.3642 34.02C13.3642 35.9513 11.8047 37.5203 9.86383 37.5203C8.36642 37.5203 7.08837 36.5761 6.59718 35.2503C6.45412 34.8688 6.37305 34.4539 6.37305 34.0247C6.37305 32.0981 7.93245 30.5244 9.86383 30.5244C10.6125 30.5244 11.2992 30.7581 11.8667 31.1539C12.7728 31.7882 13.3642 32.8325 13.3642 34.02Z" fill="#E64B38"/>
<path d="M12.0909 32.3747C12.0909 34.3061 10.5315 35.875 8.59055 35.875C7.84661 35.875 7.1599 35.6414 6.59718 35.2503C6.45412 34.8688 6.37305 34.4539 6.37305 34.0247C6.37305 32.0981 7.93245 30.5244 9.86383 30.5244C10.6125 30.5244 11.2992 30.7581 11.8667 31.1539C12.0146 31.5306 12.0909 31.9408 12.0909 32.3747Z" fill="#FC6054"/>
<path d="M195.409 90.2447C195.223 89.7679 185.752 99.3675 185.752 99.3675L195.409 90.2447Z" fill="white"/>
<path d="M188.663 104.556C188.663 108.905 185.139 112.429 180.79 112.429C178.601 112.429 176.622 111.533 175.191 110.088C173.789 108.667 172.916 106.711 172.916 104.551C172.916 100.207 176.44 96.6777 180.79 96.6777C181.715 96.6777 182.607 96.8351 183.432 97.1355C186.484 98.2276 188.663 101.137 188.663 104.556Z" fill="#E64B38"/>
<path d="M185.707 102.672C185.707 107.021 182.183 110.546 177.834 110.546C176.909 110.546 176.022 110.388 175.192 110.093C173.79 108.671 172.917 106.716 172.917 104.556C172.917 100.212 176.442 96.6826 180.791 96.6826C181.716 96.6826 182.608 96.84 183.433 97.1404C184.844 98.5663 185.707 100.522 185.707 102.672Z" fill="#FC6054"/>
<path d="M204.322 86.382C204.322 89.4913 201.804 92.0092 198.69 92.0092C196.626 92.0092 194.823 90.8933 193.841 89.2385C193.345 88.3992 193.063 87.4264 193.063 86.382C193.063 83.2727 195.581 80.75 198.69 80.75C199.396 80.75 200.078 80.8835 200.698 81.122C202.815 81.9279 204.322 83.9785 204.322 86.382Z" fill="#EFA130"/>
<path d="M201.49 83.9785C201.49 87.0878 198.967 89.6105 195.858 89.6105C195.152 89.6105 194.475 89.477 193.855 89.2385C193.359 88.3992 193.078 87.4264 193.078 86.382C193.078 83.2727 195.596 80.75 198.705 80.75C199.411 80.75 200.093 80.8835 200.713 81.122C201.204 81.9565 201.49 82.9341 201.49 83.9785Z" fill="#FFC25E"/>
<path d="M169.958 90.9326C169.958 92.7829 168.456 94.285 166.606 94.285C164.756 94.285 163.258 92.7829 163.258 90.9326C163.258 89.0823 164.756 87.5801 166.606 87.5801C168.456 87.5801 169.958 89.0823 169.958 90.9326Z" fill="white"/>
<path d="M200.979 128.172C199.129 128.172 197.631 126.67 197.631 124.824C197.631 122.974 199.133 121.472 200.979 121.472C202.824 121.472 204.331 122.979 204.331 124.824C204.336 126.674 202.829 128.172 200.979 128.172Z" fill="white"/>
<path d="M185.433 121.472C185.433 123.322 183.926 124.819 182.081 124.819C180.235 124.819 178.733 123.317 178.733 121.472C178.733 119.621 180.235 118.119 182.081 118.119C183.926 118.119 185.433 119.621 185.433 121.472Z" fill="white"/>
<path d="M164.553 114.032C164.553 116.302 162.708 118.142 160.438 118.142C158.85 118.142 157.467 117.236 156.785 115.915C156.494 115.353 156.332 114.714 156.332 114.036C156.332 111.766 158.172 109.921 160.442 109.921C161.019 109.921 161.563 110.04 162.064 110.255C163.528 110.879 164.553 112.339 164.553 114.032Z" fill="#47B6C3"/>
<path d="M162.526 112.138C162.526 114.408 160.681 116.249 158.411 116.249C157.834 116.249 157.285 116.13 156.785 115.915C156.494 115.353 156.332 114.714 156.332 114.036C156.332 111.766 158.172 109.921 160.442 109.921C161.019 109.921 161.563 110.04 162.064 110.255C162.36 110.813 162.526 111.456 162.526 112.138Z" fill="#66D3D8"/>
<path d="M166.337 192.017C166.337 192.017 171.187 176.132 176.456 187.71C176.456 187.71 180.996 183.733 182.36 190.4C182.36 190.4 187.367 182.875 191.769 184.863C196.052 186.795 194.397 194.435 194.397 194.435C194.397 194.435 199.638 190.357 199.089 196.976C199.089 196.976 203.171 194.73 202.003 199.695H166.327V192.017H166.337Z" fill="#8D95FF"/>
<path d="M194.609 193.033C194.371 191.14 193.627 189.228 191.772 188.393C187.365 186.405 182.358 193.93 182.358 193.93C180.999 187.263 176.459 191.236 176.459 191.236C171.189 179.657 166.339 195.542 166.339 195.542V192.018C166.339 192.018 171.194 176.137 176.459 187.711C176.459 187.711 180.999 183.739 182.358 190.406C182.358 190.406 187.365 182.881 191.772 184.869C194.895 186.276 194.857 190.73 194.609 193.033Z" fill="#757BFF"/>
<path d="M121.906 199.695C121.906 199.695 116.918 181.917 127.81 184.959C127.81 184.959 130.456 166.647 138.602 174.806C138.602 174.806 142.393 159.179 152.102 162.474C161.773 165.76 158.254 185.074 158.254 185.074C158.254 185.074 169.785 174.291 168.311 191.354C168.311 191.354 174.206 186.065 172.975 195.799C172.975 195.799 179.237 192.026 178.564 199.695H121.906Z" fill="#E1E5FF"/>
<path d="M136.711 199.695C136.711 199.695 129.743 181.936 139.734 184.868C139.734 184.868 141.036 177.124 145.533 178.311C150.025 179.499 149.982 189.308 149.982 189.308C149.982 189.308 155.209 184.888 154.303 190.829C154.007 192.77 151.022 197.134 160.841 193.195C166.187 191.054 165.433 199.69 165.433 199.69H136.711V199.695Z" fill="#8D95FF"/>
<path d="M149.773 191.817C149.773 191.817 149.816 182.007 145.324 180.82C140.827 179.628 139.525 187.372 139.525 187.372C136.33 186.433 134.866 187.611 134.355 189.647C134.246 186.247 135.381 183.59 139.735 184.873C139.735 184.873 141.037 177.124 145.534 178.316C150.026 179.504 149.983 189.313 149.983 189.313C149.983 189.313 155.21 184.892 154.299 190.83C154.27 191.02 154.213 191.24 154.146 191.464C153.684 188.507 149.773 191.817 149.773 191.817Z" fill="#757BFF"/>
<path d="M165.44 199.7H165.196C164.963 197.34 164.033 194.34 160.637 195.709C152.254 199.066 153.203 196.381 153.842 194.311C154.362 195.07 156.121 195.098 160.847 193.205C166.188 191.054 165.44 199.7 165.44 199.7Z" fill="#757BFF"/>
<path d="M158.842 179.66C158.556 174.329 157.053 168.477 152.113 166.799C142.408 163.499 138.612 179.126 138.612 179.126C130.467 170.967 127.82 189.279 127.82 189.279C123.042 187.948 121.321 190.619 120.891 194.038C120.424 189.131 121.101 183.079 127.82 184.954C127.82 184.954 130.467 166.641 138.612 174.801C138.612 174.801 142.404 159.173 152.113 162.473C158.46 164.634 159.128 173.694 158.842 179.66Z" fill="white"/>
<path d="M168.365 190.882C167.33 180.934 158.274 189.404 158.274 189.404C158.274 189.404 158.636 187.42 158.808 184.616C161.04 182.751 169.424 176.656 168.365 190.882Z" fill="white"/>
<path d="M178.576 199.699H173.04C174.046 190.552 168.323 195.684 168.323 195.684C168.476 193.948 168.486 192.498 168.395 191.301C169.058 190.734 174.141 186.704 172.992 195.803C172.992 195.803 179.254 192.026 178.576 199.699Z" fill="white"/>
<path d="M168.355 190.882C168.369 191.015 168.383 191.158 168.393 191.302C168.345 191.34 168.321 191.363 168.321 191.363C168.326 191.197 168.345 191.034 168.355 190.882Z" fill="white"/>
<path d="M173.62 199.7H169.901C170.888 199.28 172.538 198.813 173.62 199.7Z" fill="white"/>
<path d="M49.7031 152.65C48.1151 148.258 44.5003 145.583 40.8951 145.206C34.2903 144.524 28.0669 150.686 23.7845 139.283C23.4507 138.368 23.0311 137.218 22.5876 136.25C19.4544 129.355 12.6398 129.932 9.12992 133.437C1.29473 140.929 6.80273 158.974 19.9742 159.704C29.984 160.276 40.8856 152.808 44.1618 168.607C44.672 171.158 44.4956 171.635 44.6529 171.988C44.8962 173.648 46.1456 183.252 44.8246 197.606C44.3191 195.603 43.3177 192.327 41.5437 188.736C41.5437 188.731 41.6152 188.135 41.6152 188.131C41.9395 184.721 43.1031 177.348 39.5789 174.096C36.2693 170.782 30.6517 172.975 27.6139 169.251C27.6139 169.246 27.6139 169.246 27.6091 169.246C27.3373 168.903 27.0464 168.459 26.8032 168.082C26.8032 168.082 26.8032 168.078 26.7984 168.078C26.0259 166.871 25.3392 165.965 23.9658 165.068C20.2127 162.627 15.5774 163.237 11.2282 164.267C6.13986 165.483 1.79069 168.03 0.60325 173.171C0.608019 173.175 0.608019 173.18 0.60325 173.18C0.126367 175.798 0.956145 178.073 2.74446 179.861C4.8952 182.012 8.15708 182.985 11.996 181.864C11.996 181.864 11.996 181.864 12.0008 181.864C15.9589 180.615 17.7377 177.467 21.0234 177.835C21.0329 177.835 21.0472 177.835 21.0568 177.839C23.384 178.083 23.9514 180.195 23.6844 182.518C23.4936 184.058 23.1694 185.555 23.5556 186.976C24.1899 189.308 26.8271 190.701 28.9826 190.257C31.5673 189.785 32.7786 186.929 35.0342 186.051C36.999 185.284 39.0591 186.042 40.2799 187.592C40.3276 187.716 43.3606 192.952 44.6196 199.39H40.1082C39.9413 199.39 39.8078 199.523 39.8078 199.69C39.8078 199.857 39.9413 199.991 40.1082 199.991H49.5934C49.7604 199.991 49.8939 199.857 49.8939 199.69C49.8939 199.523 49.7604 199.39 49.5934 199.39H45.2538C46.8561 183.972 45.4923 173.576 45.2443 171.878C49.1786 166.184 51.9063 159.25 49.7031 152.65ZM34.5621 185.608C31.8057 186.895 30.561 190.615 26.9749 189.571C26.2929 189.361 25.8256 189.065 25.3583 188.698C23.465 187.086 23.9753 185.045 24.2805 182.594C24.5046 180.615 24.1565 179.141 23.2457 178.226V178.221C21.9676 176.943 19.9075 176.995 18.2575 177.701C16.7171 178.369 15.4868 179.485 14.0132 180.343C10.5606 182.336 6.07787 182.336 3.17365 179.446C-0.999076 175.307 0.398193 167.105 12.7209 164.549C16.741 163.709 21.0615 163.495 24.2853 166.037C24.29 166.037 24.29 166.037 24.29 166.037C26.064 167.439 26.3454 168.955 27.7617 170.295C33.0885 175.374 43.2509 167.3 41.0668 187.649C40.9619 187.472 40.8665 187.358 40.7759 187.239C35.9546 178.369 28.2959 172.017 17.9904 170.142C17.8283 170.114 17.6709 170.219 17.6423 170.386C17.6137 170.548 17.7186 170.705 17.8855 170.734C29.1542 172.784 35.7352 179.976 39.3548 185.97C39.3548 185.97 39.3548 185.97 39.35 185.97C39.3071 185.965 37.1706 184.392 34.5621 185.608ZM40.752 160.118C35.2059 154.825 25.0292 160.772 17.0986 158.659C6.40692 155.822 2.17697 139.074 10.5749 133.022C15.3676 129.517 20.1078 131.052 23.2314 139.498C28.1289 152.689 36.0357 143.442 43.2461 146.422C43.2509 146.427 43.2509 146.427 43.2509 146.427C49.9034 149.198 53.2273 158.797 45.1441 170.982C43.9376 160.753 39.8364 152.932 29.6073 151.182C23.2886 150.104 19.0777 147.801 17.0891 144.334C14.8239 140.39 16.3261 136.269 16.3452 136.231C16.4024 136.079 16.3261 135.902 16.1687 135.845C16.0161 135.788 15.8397 135.864 15.7824 136.021C15.7157 136.198 14.161 140.433 16.5645 144.629C18.6437 148.258 22.9977 150.662 29.5024 151.773C35.6494 152.822 39.9652 156.308 42.4164 162.164C41.8632 161.406 41.6629 160.972 40.752 160.118Z" fill="#112544"/>
<path d="M92.284 159.193C93.0947 159.088 90.7341 159.484 127.945 152.893C132.256 152.13 134.502 147.328 132.323 143.527L131.593 142.249L135.165 139.665C135.614 140.452 136.386 140.909 137.493 140.847C140.711 140.661 144.846 143.752 147.755 146.374C149.71 148.134 152.581 148.287 154.656 146.928C155.733 146.241 156.11 144.815 155.504 143.685L141.923 118.343C141.126 116.855 139.09 116.584 137.931 117.838L130.821 125.563C130.377 126.04 130.268 126.755 130.544 127.337C130.587 127.428 130.635 127.523 130.692 127.619L125.26 131.214L124.984 130.733C123.262 127.728 119.409 126.67 116.4 128.372L104.964 134.82C112.227 122.664 115.709 117.423 116.057 106.078C117.196 105.515 118.274 104.876 119.276 104.17C124.006 103.293 128.527 101.204 130.292 96.7404C131.355 94.0508 131.837 91.2467 131.727 88.4141V88.395C131.331 77.8988 121.836 64.7606 110.406 62.9485C110.563 62.2045 110.472 61.9423 110.496 58.2607C110.949 57.9984 113.753 57.4882 115.103 54.3932C115.699 53.0245 115.813 51.5319 115.437 50.106C116.424 49.8533 117.053 48.8471 116.824 47.8265L115.937 43.7969C115.809 43.2198 115.298 42.8288 114.736 42.8288C113.253 38.7085 109.299 35.7471 104.673 35.7471C98.0114 35.7471 92.9755 41.8083 94.1439 48.2891C94.0914 48.2843 94.0389 48.2843 93.9865 48.2843C90.1285 48.2891 87.8061 52.6335 90.0093 55.8525C92.0503 58.8616 96.7238 58.6804 98.4167 55.1038C99.4945 55.8858 100.725 56.4724 102.055 56.811C102.113 57.1257 102.136 57.45 102.136 57.7791C102.141 62.3428 102.127 62.1282 102.151 62.4239C102.113 62.4239 100.639 62.4764 100.534 62.5098C93.2473 62.9676 88.4594 65.3043 84.1865 66.3201C66.2986 70.4832 61.5441 57.2593 54.0571 53.0484C51.8491 51.8133 48.735 52.6621 45.187 49.5719C44.0568 48.5895 42.2733 47.4975 42.1541 48.8518C42.1159 49.2953 42.3877 49.9582 42.9171 50.6258C39.3214 48.7278 38.792 47.4927 37.9193 47.8694C36.6556 48.4274 38.9494 50.7021 40.1416 51.6177C37.719 50.602 34.8005 48.2319 35.1153 50.4255C35.2297 51.1838 36.0356 52.1566 37.5569 52.9721C36.5078 52.7575 35.4634 52.4857 34.9627 52.1757C34.1281 51.6797 33.1696 52.3378 33.4652 53.3154C33.6846 54.0308 35.1963 56.4247 45.4922 57.1973C49.5219 63.33 58.0772 73.0203 66.1651 77.1024C62.1545 78.0752 59.3934 79.8158 58.5779 80.3833C49.9463 68.3373 37.9479 75.047 34.1806 76.0246C33.8992 76.0103 33.7466 76.3632 33.9707 76.554L44.5289 109.24C44.5671 109.373 44.7006 109.459 44.8437 109.449C52.5358 108.629 58.864 109.893 63.6472 113.198C63.7283 113.25 63.8141 113.269 63.9047 113.241C64.8871 112.959 65.9028 112.778 66.9377 112.692L58.0772 124.571C53.6994 130.656 52.4595 138.549 54.7628 145.707L69.2458 181.049C70.4952 184.096 73.657 185.994 77.019 185.541L81.6734 184.916L82.3172 187.038C81.9118 187.234 81.5875 187.582 81.3538 188.073C80.4955 189.895 77.7057 191.721 73.4948 193.209C71.3965 193.953 70.1948 196.075 70.3951 197.959C70.4666 199.018 71.3631 199.857 72.4266 199.866L95.689 200C95.6937 200 95.6937 200 95.6985 200C97.1005 200 98.102 198.627 97.6489 197.282L94.9116 189.241C94.7304 188.717 94.2488 188.345 93.7051 188.321C93.5811 188.312 93.4476 188.312 93.3093 188.326L92.1505 183.514L94.6303 183.185C99.8283 182.489 102.656 176.695 99.9761 172.164L92.284 159.193ZM92.6989 188.397C92.098 188.526 91.4352 188.827 90.8343 189.466C89.5848 190.787 88.2973 189.709 88.2591 189.675C88.1256 189.547 85.0259 186.561 82.8799 186.862L82.2695 184.849L91.5448 183.609L92.6989 188.397ZM131.016 128.115C131.498 128.768 132.256 129.407 133.425 129.722C135.671 130.323 135.237 132.411 135.223 132.483C135.17 132.674 134.054 136.718 134.913 139.107L131.293 141.725L125.556 131.729L131.016 128.115ZM103.872 135.473C103.71 135.74 104.02 136.04 104.278 135.888L116.696 128.887C119.423 127.352 122.905 128.31 124.469 131.024C124.517 131.105 132.304 144.691 131.808 143.823C133.773 147.247 131.765 151.611 127.845 152.302C91.769 158.688 92.5368 158.616 91.2873 158.683C86.3087 159.017 81.5971 156.937 78.4258 152.941C74.8921 148.482 74.1195 142.693 76.3657 137.466L85.0115 117.332C87.334 118.52 89.3989 119.802 89.6039 119.96C89.7851 120.093 90.0856 119.96 90.0665 119.702C89.3369 101.361 90.2716 124.986 89.5515 106.75L90.572 104.38C97.296 107.504 103.982 111.748 115.451 106.359C115.041 117.623 111.684 122.32 103.872 135.473ZM89.437 103.889C89.4704 103.903 89.5038 103.918 89.5372 103.927C89.6993 103.994 89.8614 104.061 90.0188 104.137L89.4895 105.358L89.437 103.889ZM117.826 104.399C104.492 113.026 93.9579 105.148 89.7136 103.355C90.8438 103.121 92.2268 102.668 93.2712 102.268C100.367 104.056 110.372 105.429 117.826 104.399ZM129.729 96.5163C128.022 100.837 123.625 102.773 119.066 103.588C119.056 103.588 119.051 103.588 119.037 103.593C111.583 104.929 100.043 103.493 93.3332 101.667C93.2664 101.657 93.2235 101.652 93.1472 101.681C92.3746 101.977 88.4403 103.36 87.8776 102.854C87.5772 102.606 89.2653 102.082 89.3559 101.9C89.6278 101.686 89.375 101.271 89.0746 101.381C87.4627 101.958 86.7522 102.372 86.3182 102.277C86.528 101.643 87.1909 101.247 87.9015 100.808C88.1971 100.627 87.9921 100.16 87.6439 100.269C86.7045 100.575 85.3978 101.237 84.9877 101.237C84.9877 100.608 86.5566 99.6828 87.0574 99.3967C87.3721 99.2298 87.1671 98.7481 86.8237 98.8482C86.0559 99.0819 85.0735 99.5207 84.7206 99.5588C85.312 97.7991 89.0603 97.1601 89.251 96.8501C89.2892 96.7833 89.2987 96.6975 89.2796 96.6212C88.3831 93.2592 89.995 93.6073 92.5368 95.7628C92.5892 95.8057 92.6512 95.8296 92.718 95.8343C93.8196 95.8963 119.772 97.1744 121.007 89.8209C121.073 89.4107 121.116 88.9815 121.135 88.5571C124.841 85.8627 127.807 85.5814 131.131 88.5428C131.231 91.1132 130.778 93.8505 129.729 96.5163ZM85.9748 113.56C80.1569 110.684 73.1228 108.353 66.6802 108.887L62.4311 83.4306C70.2472 81.5135 77.7057 82.391 84.9209 86.0439L85.3692 97.3031L85.3931 97.904L85.3978 97.9183C84.7922 98.3237 84.3058 98.8149 84.1579 99.3681C84.0196 99.9022 84.2914 100.279 85.0068 100.117C84.7016 100.422 84.5156 100.718 84.4297 101.018C84.3487 101.323 84.3964 101.547 84.5633 101.695C84.7779 101.881 85.1069 101.862 85.5504 101.724C85.6315 103.774 85.7412 106.564 86.0178 113.465L85.9748 113.56ZM115.351 43.9161L116.243 47.9505C116.4 48.6706 115.947 49.3621 115.255 49.529C115.246 49.5338 112.051 50.2396 112.06 50.2348L111.955 50.2586C111.44 50.3635 111.145 49.7341 110.654 49.6578C110.444 49.6244 110.348 49.6911 109.442 49.8771C109.013 49.982 108.97 50.2872 108.751 50.6211C108.684 50.7117 108.622 50.9883 108.288 51.0646L105.417 51.6988C104.492 51.8991 103.629 51.7036 103.429 50.7737C103.419 50.7307 102.527 46.6915 102.537 46.7392C102.465 46.3959 102.68 46.0573 103.023 45.981C103.076 45.9714 114.283 43.4964 114.326 43.4869C114.793 43.3963 115.232 43.3724 115.351 43.9161ZM97.3533 50.807L95.77 51.1599L95.1787 49.8008C95.2884 49.777 101.807 48.332 102.251 48.2319C102.26 48.27 102.585 49.7341 102.566 49.6482L101.617 49.858C100.367 48.8423 98.2927 49.0664 97.3533 50.807ZM97.42 53.449C96.9098 52.9196 96.452 52.3378 96.0705 51.7084L97.1244 51.4747C96.9813 52.1423 97.0815 52.8433 97.42 53.449ZM94.5778 46.4293C94.5778 40.864 99.1082 36.3336 104.673 36.3336C109.008 36.3336 112.709 39.0709 114.135 42.9146L106.643 44.5646C106.5 43.8159 106.147 43.1245 105.622 42.5522C105.513 42.433 105.322 42.4234 105.198 42.5379C105.079 42.6476 105.064 42.8383 105.184 42.9623C105.637 43.4535 105.932 44.0544 106.056 44.6982L102.899 45.3944C102.232 45.5423 101.807 46.2051 101.955 46.8728L102.127 47.6453C101.664 47.7502 95.2884 49.1666 94.9736 49.2333C94.8067 48.7231 94.5778 47.5595 94.5778 46.4293ZM90.4957 55.5091C88.7026 52.8863 90.3336 49.2906 93.481 48.909C92.8229 50.4017 92.9421 52.1614 93.915 53.5873C94.6732 54.7032 95.8272 55.4614 97.3819 55.6665C95.6508 57.9651 92.1553 57.9126 90.4957 55.5091ZM98.8984 54.7079C99.6328 54.9798 100.51 54.9369 101.245 54.522C101.588 55.2754 101.769 55.6522 101.903 56.1386C100.815 55.8334 99.8092 55.3422 98.8984 54.7079ZM102.733 57.7695C102.733 56.1624 102.203 55.1944 101.755 54.1643C101.812 54.1166 101.865 54.0642 101.917 54.0069C102.027 53.8877 102.027 53.7017 101.903 53.5825C101.788 53.4728 101.607 53.4728 101.497 53.5777C101.488 53.5825 101.488 53.592 101.483 53.592C101.354 53.7208 101.183 53.8734 101.03 53.9545C101.025 53.9592 101.016 53.964 101.011 53.9688C100.048 54.5458 98.8364 54.2787 98.2164 53.5348C96.471 51.5748 98.9985 48.8232 101.04 50.1823H101.044C101.173 50.2586 101.292 50.3492 101.402 50.4589C101.507 50.5638 101.702 50.5734 101.826 50.4446C101.836 50.4351 101.841 50.4351 101.841 50.4255L102.699 50.2348L102.847 50.8977C103.071 51.942 103.987 52.6144 105.546 52.2806L108.417 51.6511C109.28 51.4556 109.356 50.5018 109.571 50.4637C110.601 50.2491 110.539 50.2252 110.615 50.2634C111.14 50.6306 111.197 50.7069 111.388 50.7689C111.13 50.8309 110.806 50.8786 110.539 50.8643C110.382 50.8547 110.234 50.9787 110.224 51.1456C110.21 51.3078 110.339 51.4508 110.506 51.4651C110.959 51.4222 112.27 51.4031 112.38 50.7737C117.459 49.6578 112.141 50.8261 114.85 50.23C116.071 54.7366 111.674 58.9093 107.754 57.4834C107.601 57.4262 107.43 57.5073 107.373 57.6646C107.315 57.8172 107.396 57.9889 107.554 58.0461C108.322 58.3323 109.104 58.4229 109.9 58.3752C109.876 61.9899 110.01 62.5193 109.638 63.4254V63.4301C109.457 63.8641 109.19 64.2647 108.846 64.608C106.915 66.5537 103.577 65.6715 102.857 62.9962C102.857 62.9962 102.857 62.9962 102.857 62.9914C102.623 62.1616 102.78 61.6323 102.733 57.7695ZM102.241 63.0105C102.966 66.1961 106.967 67.3644 109.266 65.0277C109.7 64.5985 110.029 64.0835 110.234 63.5207C110.801 63.6066 111.464 63.7306 111.746 63.7926C110.51 67.8365 105.432 69.0526 102.47 66.0959C101.636 65.2661 101.106 64.2265 100.916 63.0772C101.531 63.0248 102.093 63.02 102.241 63.0105ZM100.324 63.1154C100.52 64.403 101.125 65.5952 102.051 66.5156C105.327 69.8013 110.983 68.4279 112.332 63.9261C121.002 66.0911 130.354 77.3551 131.093 87.7178C127.75 85.0472 124.745 85.3048 121.14 87.8132C120.992 84.0983 118.365 80.1306 115.713 77.7462C115.594 77.6365 115.403 77.646 115.289 77.77C115.179 77.894 115.189 78.08 115.313 78.1944C118.002 80.6122 120.663 84.7039 120.544 88.3902C120.544 88.3997 120.544 88.4045 120.549 88.4188C120.549 88.6191 120.506 89.239 120.42 89.7159C119.309 96.3351 94.6398 95.3193 92.8563 95.2382C92.2506 94.7327 90.1142 93.0684 89.0317 93.6693L88.6454 83.9027V83.8884C88.6454 83.8741 88.6406 83.855 88.6359 83.8407C88.6263 83.8169 88.6215 83.8026 88.6168 83.7787C88.612 83.7644 88.6025 83.7454 88.5977 83.7358C88.5834 83.7215 88.5691 83.6977 88.5596 83.6881C88.5548 83.6834 88.55 83.6786 88.5452 83.6738C86.5805 81.8664 84.6253 80.4739 82.7177 79.4248C83.3472 77.4124 84.7826 74.1123 87.5772 73.3207C87.7346 73.2778 87.8299 73.1109 87.7822 72.9535C87.7393 72.7961 87.5724 72.7007 87.415 72.7484C84.3773 73.6068 82.8465 76.9975 82.1741 79.1291C81.3777 78.7142 80.5908 78.3566 79.8183 78.0514C80.6147 74.222 80.443 70.8075 79.3032 67.6839C85.7459 67.4503 91.2253 63.7878 100.324 63.1154ZM45.9262 56.7728C45.8833 56.6775 45.7879 56.6107 45.6782 56.6059C35.1486 55.8382 34.1138 53.4108 34.0327 53.1342C33.8944 52.686 34.2855 52.4666 34.6431 52.6812C35.9641 53.4776 40.2751 54.0308 40.4564 54.0546C40.8236 54.0975 40.9332 53.5634 40.566 53.4681C37.2374 52.6192 35.8163 51.0884 35.7018 50.3254C35.5588 49.3621 37.2612 51.4651 42.321 53.0627C42.6452 53.1724 42.8789 52.7098 42.5642 52.5191C38.9017 50.3445 38.0719 48.6468 38.153 48.4083C38.6013 48.2366 40.1655 50.2014 44.6291 52.1137C44.9581 52.2615 45.2204 51.7847 44.9104 51.5844C43.5227 50.7212 42.8026 49.5242 42.7502 48.9854C42.6786 48.332 44.2953 49.5767 44.7865 50.0059C48.4441 53.1867 51.7537 52.4284 53.7614 53.5539C60.0515 57.0828 65.0444 68.2037 78.6642 67.6887C79.8421 70.7741 80.0377 74.0551 79.2508 77.832C75.3308 76.3918 71.2821 76.0628 67.0903 76.883C57.2331 72.1428 47.1232 58.9999 45.9262 56.7728ZM45.0201 108.82C44.8866 108.41 46.3888 113.064 34.6193 76.6303C44.219 74.2888 54.3337 77.2598 58.1869 81.0891H58.1916L63.404 112.306C58.0056 108.848 51.396 108.167 45.0201 108.82ZM64.0525 112.563L58.8068 81.1368C69.2887 77.6413 78.8931 79.0385 88.0493 84.0792C88.5357 96.3017 88.5119 95.801 88.5166 95.8439C88.5166 95.8534 88.5166 95.8534 88.5214 95.8582L88.5452 96.5068C88.0588 96.6546 87.2147 96.9359 86.3897 97.3413C86.2562 97.3318 86.1131 97.327 85.9796 97.3175L85.5218 85.8341C85.517 85.7244 85.4598 85.6243 85.3644 85.5766C78.0681 81.8664 70.4189 80.7887 62.0258 82.9061C61.8732 82.9442 61.7778 83.092 61.8016 83.2446L66.146 109.249C66.1699 109.406 66.313 109.507 66.4703 109.497C73.0656 108.848 80.2952 111.371 86.2133 114.328C86.4136 114.428 86.6568 114.28 86.6473 114.051C86.5948 112.697 86.2514 104.223 86.199 102.887C86.5042 102.945 86.9858 102.787 87.2767 102.687C87.2529 102.887 87.3053 103.04 87.3673 103.14C87.6249 103.541 88.3163 103.531 88.8266 103.479C88.8457 104.003 88.9554 106.798 88.9506 106.617C88.9506 106.655 89.4847 119.979 89.4513 119.13C82.5604 114.819 71.9306 110.479 64.0525 112.563ZM94.5349 182.584L76.9284 184.945C73.8954 185.35 70.953 183.652 69.7942 180.815L55.316 145.497C53.0794 138.539 54.286 130.847 58.5493 124.919L67.715 112.635C73.6808 112.377 80.1283 114.91 84.4679 117.07L75.8077 137.233C73.4757 142.669 74.2769 148.678 77.9537 153.313C81.33 157.572 86.385 159.718 91.6259 159.265L99.442 172.465C101.903 176.614 99.3228 181.945 94.5349 182.584Z" fill="#112544"/>
<path d="M110.325 54.7935C111.331 55.4373 112.761 54.8126 112.761 53.7253C112.761 52.9957 112.075 53.5155 111.231 53.5155C110.387 53.5155 109.7 52.9909 109.7 53.7253C109.705 54.1641 109.948 54.5551 110.325 54.7935Z" fill="#112544"/>
<path d="M55.6927 82.4866C51.1194 79.3821 44.877 77.6558 38.339 78.5428C38.1577 78.5666 38.0385 78.7526 38.0957 78.929L46.7893 105.844C46.8323 105.973 46.9562 106.059 47.0945 106.054C51.2768 105.83 55.5544 106.221 59.5364 107.585C59.7319 107.656 59.9656 107.49 59.9275 107.251L55.8263 82.6774C55.8072 82.601 55.7595 82.5295 55.6927 82.4866ZM47.2853 105.444L38.7729 79.0912C44.8198 78.3377 50.7713 79.921 55.2445 82.911L59.2455 106.865C55.3971 105.625 51.3293 105.258 47.2853 105.444Z" fill="#112544"/>
<path d="M113.868 45.3894C113.357 45.0699 112.747 45.0412 112.394 45.1748C111.96 45.2892 111.593 45.5658 111.345 45.9473C110.663 47.0155 111.25 48.4557 112.509 48.718H112.513C113.767 48.9994 114.955 47.8692 114.674 46.5387C114.564 46.0618 114.278 45.6517 113.868 45.3894ZM112.561 48.1124C111.316 47.769 111.393 46.0045 112.623 45.728C113.219 45.5944 113.911 45.9235 114.082 46.6626C114.283 47.564 113.453 48.3556 112.561 48.1124Z" fill="#112544"/>
<path d="M107.826 48.0456C107.63 47.1491 106.772 46.448 105.651 46.6531C104.464 46.9202 103.901 48.2316 104.392 49.214C104.731 49.9436 105.541 50.4157 106.438 50.225C107.397 50.0104 108.045 49.0566 107.826 48.0599V48.0456ZM106.438 49.6002C105.89 49.8196 105.122 49.5287 104.879 48.8325C104.645 48.0504 105.136 47.378 105.775 47.2397C106.414 47.0966 107.091 47.4972 107.239 48.1744C107.377 48.7418 107.048 49.3952 106.438 49.6002Z" fill="#112544"/>
<path d="M99.9238 51.1219C99.7759 51.2125 99.7378 51.3937 99.8188 51.532C100.014 51.861 99.9142 52.2902 99.5804 52.5001C99.4373 52.5859 99.3897 52.7671 99.4755 52.9054C99.795 53.4538 100.963 52.2998 100.334 51.222C100.248 51.0837 100.062 51.0408 99.9238 51.1219Z" fill="#112544"/>
<path d="M130.926 57.0733H147.373V103.617C147.373 103.784 147.507 103.918 147.674 103.918H172.643C172.624 104.127 172.615 104.342 172.615 104.557C172.615 105.553 172.796 106.507 173.12 107.389L164.174 111.686C163.392 110.446 162.009 109.616 160.435 109.616C158.003 109.616 156.024 111.595 156.024 114.027C156.024 116.46 158.003 118.439 160.435 118.439C162.867 118.439 164.846 116.46 164.846 114.027C164.846 113.379 164.708 112.764 164.455 112.215L173.349 107.942C174.637 110.766 177.489 112.73 180.784 112.73C181.065 112.73 181.337 112.716 181.609 112.687L181.99 117.814C180.011 117.857 178.418 119.478 178.418 121.467C178.418 123.479 180.054 125.115 182.067 125.115C184.079 125.115 185.72 123.479 185.72 121.467C185.72 119.631 184.356 118.11 182.591 117.852L182.2 112.602C183.86 112.315 185.343 111.519 186.497 110.389L198.309 122.316C197.699 122.969 197.317 123.851 197.317 124.815C197.317 126.827 198.953 128.463 200.965 128.463C202.978 128.463 204.618 126.827 204.618 124.815C204.618 122.802 202.978 121.162 200.965 121.162C200.136 121.162 199.363 121.443 198.748 121.91L186.902 109.95C188.171 108.51 188.948 106.621 188.948 104.552C188.948 102.349 188.071 100.35 186.649 98.8769C189.487 96.0156 193.393 92.1719 194.885 90.9177C195.915 91.7856 197.246 92.3054 198.691 92.3054C201.957 92.3054 204.618 89.6444 204.618 86.3778C204.618 83.1063 201.957 80.4453 198.691 80.4453C195.419 80.4453 192.763 83.1063 192.763 86.3778C192.763 87.9896 193.412 89.4584 194.461 90.5266C193.407 91.3898 191.156 93.469 186.22 98.462C184.775 97.1696 182.868 96.3828 180.779 96.3828C178.676 96.3828 176.754 97.1792 175.3 98.4954L169.587 93.0255C170.006 92.4294 170.254 91.7093 170.254 90.9272C170.254 88.9148 168.619 87.2791 166.606 87.2791C164.594 87.2791 162.958 88.9148 162.958 90.9272C162.958 92.9445 164.594 94.5802 166.606 94.5802C167.622 94.5802 168.542 94.1605 169.205 93.4881L174.875 98.9198C173.74 100.102 172.963 101.624 172.705 103.312H147.969V57.0685H193.44C197.794 57.0685 201.323 53.5396 201.299 49.1618L201.018 9.45176C200.994 5.09304 197.432 1.5498 193.073 1.5498H130.563C126.233 1.5498 122.704 5.04536 122.704 9.40884V9.45653L122.986 49.1666C123.005 53.5301 126.567 57.0733 130.926 57.0733ZM160.435 117.843C158.337 117.843 156.625 116.135 156.625 114.032C156.625 111.929 158.332 110.217 160.435 110.217C162.557 110.217 164.25 111.948 164.25 114.032C164.246 116.131 162.538 117.843 160.435 117.843ZM185.128 121.472C185.128 123.155 183.755 124.524 182.071 124.524C180.388 124.524 179.019 123.155 179.019 121.472C179.019 119.798 180.369 118.434 182.038 118.415H182.071C183.731 118.415 185.128 119.769 185.128 121.472ZM200.975 121.767C202.658 121.767 204.032 123.141 204.032 124.824C204.032 126.507 202.658 127.876 200.975 127.876C199.292 127.876 197.923 126.507 197.923 124.824C197.928 123.155 199.287 121.767 200.975 121.767ZM193.374 86.3825C193.374 83.4449 195.763 81.051 198.7 81.051C201.638 81.051 204.027 83.4449 204.027 86.3825C204.027 89.3201 201.638 91.7093 198.7 91.7093C195.791 91.7093 193.374 89.3488 193.374 86.3825ZM166.606 93.984C164.923 93.984 163.554 92.6154 163.554 90.9272C163.554 89.2438 164.918 87.8752 166.606 87.8752C168.289 87.8752 169.658 89.2438 169.658 90.9272C169.658 92.6154 168.285 93.984 166.606 93.984ZM180.784 96.9884C184.98 96.9884 188.361 100.403 188.361 104.561C188.361 108.725 184.971 112.139 180.784 112.139C176.625 112.139 173.211 108.753 173.211 104.561C173.211 100.398 176.597 96.9884 180.784 96.9884ZM130.563 2.15068H193.078C197.103 2.15068 200.398 5.43163 200.422 9.46129L200.703 49.1713C200.727 53.2153 197.47 56.4772 193.445 56.4772C178.042 56.4772 136.524 56.4772 130.93 56.4772C126.906 56.4772 123.606 53.1962 123.586 49.1666L123.305 9.45653C123.276 5.41256 126.538 2.15068 130.563 2.15068Z" fill="#112544"/>
<path d="M128.937 23.8109L131.026 21.2882V48.2512C131.026 48.4181 131.16 48.5516 131.326 48.5516H190.841L188.319 50.6404C188.19 50.7453 188.176 50.936 188.281 51.06C188.386 51.184 188.572 51.2078 188.7 51.0982L191.862 48.4801C191.924 48.4324 191.972 48.3418 191.972 48.2512C191.972 48.151 191.905 48.0556 191.862 48.0223L188.7 45.4042C188.572 45.2993 188.386 45.3136 188.281 45.4423C188.176 45.5711 188.195 45.7571 188.319 45.862L190.841 47.9507H186.049C184.451 38.0649 179.539 31.1215 170.188 36.5628C166.349 38.8137 163.64 40.1155 161.728 35.9428C158.146 28.1219 153.335 21.0784 145.657 25.0413C139.815 28.0647 133.196 45.7428 132.39 47.9507H131.622V21.2834L133.711 23.8061C133.816 23.9349 134.007 23.9492 134.131 23.8443C134.259 23.7394 134.274 23.5486 134.169 23.4246L131.551 20.2629C131.436 20.1246 131.202 20.1246 131.088 20.2629L128.47 23.4246C128.365 23.5534 128.384 23.7394 128.508 23.8443C128.642 23.954 128.832 23.9349 128.937 23.8109ZM145.933 25.5706C153.23 21.7937 157.774 28.7276 161.184 36.1956C163.268 40.7498 166.396 39.4765 170.488 37.0826C179.425 31.8655 183.912 38.6229 185.443 47.9555H133.029C134.078 45.1276 140.511 28.3747 145.933 25.5706Z" fill="#112544"/>
<path d="M6.86957 28.6753C6.84095 28.8375 6.94587 28.9948 7.10801 29.0234C7.27015 29.0521 7.42752 28.9471 7.45613 28.785C7.86148 26.5675 9.3732 24.2594 11.6956 22.0705C13.0452 24.3977 14.8097 26.7869 16.9318 29.1045C16.5789 31.8895 16.5026 34.5505 16.6743 36.9778C15.9256 36.8777 15.2055 36.7489 14.5188 36.582C14.3566 36.5439 14.1945 36.644 14.1563 36.8062C14.1182 36.9683 14.2183 37.1305 14.3805 37.1686C15.1244 37.3451 15.9113 37.4786 16.7267 37.5835C18.0382 52.095 27.8238 54.2172 35.7115 41.5273C38.94 42.4525 42.9696 42.896 45.7117 40.9264C45.8452 40.8311 45.8786 40.6451 45.7785 40.5068C45.6831 40.3733 45.4971 40.3399 45.3588 40.44C43.2033 41.9851 39.8651 42.1043 36.0119 41.0218C37.3615 38.7662 38.5537 36.1958 39.5313 33.4251C42.1017 32.2424 44.4146 30.8881 46.3889 29.4431C46.6416 30.0535 46.861 30.6591 47.047 31.26C47.0947 31.4174 47.2663 31.508 47.4237 31.4555C47.5811 31.4079 47.6717 31.2409 47.6192 31.0788C47.4142 30.4207 47.171 29.7483 46.8848 29.0711C57.753 20.7972 55.3209 11.7793 41.6296 11.0497C40.5995 6.48594 38.4535 3.29083 35.4015 2.52305C35.2441 2.48489 35.0772 2.58027 35.0391 2.73764C34.9961 2.89978 35.0963 3.06192 35.2584 3.10007C38.0816 3.8154 40.0702 6.76731 41.0525 11.0211C38.2532 10.9257 35.206 11.1975 32.0728 11.8127C29.9602 10.3201 27.8333 9.08019 25.7684 8.10734C26.479 7.22511 27.2134 6.43349 27.9669 5.75154C28.0909 5.64186 28.1004 5.45111 27.9859 5.32712C27.8763 5.20313 27.6855 5.19359 27.5615 5.30804C26.7556 6.03767 25.9687 6.89606 25.2057 7.84983C11.4715 1.68373 4.28486 8.70345 11.3952 21.5411C8.91539 23.854 7.29876 26.3147 6.86957 28.6753ZM12.1296 21.6699C14.2946 19.729 17.0987 17.8978 20.3367 16.3383C18.7916 20.0199 17.6424 24.102 17.0367 28.3367C15.0529 26.124 13.3981 23.8636 12.1296 21.6699ZM21.1522 15.9521C24.5095 14.4117 28.1862 13.21 31.9393 12.4518C35.5589 15.046 38.8875 18.1887 41.5533 21.5173C41.2004 25.2751 40.3611 29.1856 39.0449 32.9911C35.1869 34.7317 30.9617 36.0098 26.8128 36.687C23.4365 34.5028 20.2652 31.818 17.5565 28.9042C18.1574 24.4406 19.383 20.0056 21.1522 15.9521ZM17.4659 29.672C20.1078 32.4618 23.0121 34.8748 25.9401 36.8252C22.8451 37.264 19.898 37.3451 17.2656 37.0494C17.0987 34.7747 17.1607 32.2853 17.4659 29.672ZM17.3085 37.6598C20.3892 37.9888 23.6129 37.7981 26.6984 37.3117C29.574 39.1477 32.4448 40.5163 35.1154 41.3509C27.4566 53.5257 18.5484 51.1985 17.3085 37.6598ZM35.4206 40.8454C32.9408 40.0776 30.2655 38.8329 27.5663 37.1591C31.3289 36.4914 35.1058 35.3708 38.773 33.7589C37.8288 36.3436 36.6986 38.7375 35.4206 40.8454ZM39.8031 32.6382C40.9715 29.1427 41.7297 25.6137 42.0874 22.1897C43.8089 24.4263 45.1871 26.701 46.16 28.8994C44.324 30.249 42.1828 31.5128 39.8031 32.6382ZM46.6512 28.537C45.5925 26.1669 44.0665 23.7205 42.1685 21.3313C42.4737 17.7785 42.3211 14.4833 41.7631 11.6649C54.8249 12.4279 56.8135 20.7734 46.6512 28.537ZM41.1813 11.6315C41.7106 14.2591 41.8776 17.335 41.6296 20.6637C39.1593 17.6689 36.1406 14.7885 32.7405 12.2991C35.6924 11.7555 38.5489 11.5266 41.1813 11.6315ZM31.2717 11.9796C27.986 12.6854 24.6668 13.7489 21.5242 15.1366C22.6687 12.6568 23.9849 10.4345 25.406 8.57946C27.3231 9.48077 29.2974 10.6158 31.2717 11.9796ZM24.8481 8.32194C23.3125 10.3487 21.9009 12.7903 20.6992 15.5086C17.2036 17.1347 14.1754 19.0757 11.8387 21.1501C5.11464 8.98958 11.7815 2.47536 24.8481 8.32194Z" fill="#112544"/>
<path d="M31.2859 6.42361C33.0551 6.42361 34.4953 4.98343 34.4953 3.20942C34.4953 1.44019 33.0551 0 31.2859 0C29.5167 0 28.0765 1.44019 28.0765 3.20942C28.0765 4.98343 29.5167 6.42361 31.2859 6.42361ZM31.2859 0.596104C32.7213 0.596104 33.8992 1.76447 33.8992 3.20942C33.8992 4.64961 32.7261 5.82751 31.2859 5.82751C29.8457 5.82751 28.6726 4.65438 28.6726 3.20942C28.6726 1.76924 29.8409 0.596104 31.2859 0.596104Z" fill="#112544"/>
<path d="M44.1571 36.2905C44.1571 38.4222 45.8882 40.158 48.0246 40.158C50.1611 40.158 51.8922 38.4222 51.8922 36.2905C51.8922 34.1636 50.1563 32.4277 48.0246 32.4277C45.893 32.4277 44.1571 34.1636 44.1571 36.2905ZM51.2913 36.2905C51.2913 38.0979 49.8272 39.5619 48.0199 39.5619C46.2172 39.5619 44.7532 38.0979 44.7532 36.2905C44.7532 34.4926 46.2172 33.0286 48.0199 33.0286C49.8272 33.0286 51.2913 34.4926 51.2913 36.2905Z" fill="#112544"/>
<path d="M9.8547 37.8166C11.953 37.8166 13.6507 36.1141 13.6507 34.0206C13.6507 31.9271 11.9482 30.2246 9.8547 30.2246C7.76595 30.2246 6.06348 31.9318 6.06348 34.0206C6.06348 36.1141 7.76595 37.8166 9.8547 37.8166ZM9.8547 30.8207C11.6192 30.8207 13.0546 32.2561 13.0546 34.0206C13.0546 35.7851 11.6192 37.2205 9.8547 37.2205C8.09977 37.2205 6.66435 35.7851 6.66435 34.0206C6.66435 32.2561 8.09977 30.8207 9.8547 30.8207Z" fill="#112544"/>
<path d="M205.229 199.399H202.382C202.954 196.476 201.581 195.618 199.425 196.5C199.573 192.813 197.656 192.041 194.818 193.786C195.124 191.798 195.596 186.266 191.89 184.587C187.99 182.828 183.788 187.94 182.496 189.685C181.518 185.97 179.096 185.403 176.563 187.239C174.074 182.036 171.232 182.007 168.604 186.18C167.794 179.923 163.449 180.372 158.69 184.301C159.257 180.51 160.965 165.164 152.204 162.188C145.103 159.775 140.44 167.124 138.451 174.234C132.504 168.755 128.885 176.623 127.568 184.582C119.681 182.622 119.509 191.559 121.517 199.394H116.448C116.285 199.394 116.147 199.528 116.147 199.695C116.147 199.857 116.281 199.995 116.448 199.995C126.128 199.995 195.376 199.995 205.229 199.995C205.396 199.995 205.529 199.862 205.529 199.695C205.529 199.533 205.396 199.399 205.229 199.399ZM136.92 199.399C134.312 192.375 132.495 183.056 139.657 185.164C139.843 185.217 140.015 185.083 140.039 184.926C140.048 184.883 140.821 180.429 143.101 178.96C147.13 176.342 149.691 183.204 149.691 189.313C149.691 189.561 149.977 189.709 150.187 189.547C152.805 187.32 154.546 187.248 154.016 190.791C153.644 193.2 151.069 197.454 160.96 193.481C164.493 192.07 165.338 195.808 165.156 199.404H136.92V199.399ZM165.757 199.399C165.962 195.174 164.675 191.345 160.731 192.923C151.58 196.59 154.25 193.133 154.603 190.877C155.19 187.043 153.201 186.542 150.278 188.703C149.996 180.071 146.229 176.218 142.771 178.445C140.621 179.833 139.734 183.39 139.505 184.497C132.023 182.551 133.587 192.165 136.281 199.394H122.142C120.191 191.807 120.086 183.104 127.735 185.245C127.926 185.293 128.093 185.159 128.117 184.997C129.342 177.052 132.704 169.294 138.398 175.016C138.556 175.174 138.847 175.112 138.904 174.873C140.783 167.963 145.137 160.414 152.018 162.756C161.332 165.917 158.003 184.83 157.975 185.016C157.922 185.303 158.265 185.489 158.475 185.288C164.675 179.594 168.924 180.806 168.027 191.326C167.999 191.597 168.328 191.755 168.528 191.574C171.342 189.065 173.473 189.594 172.696 195.761C172.663 196.004 172.93 196.18 173.149 196.051C176.125 194.068 178.604 194.974 178.304 199.394C175.529 199.399 169.787 199.399 165.757 199.399ZM178.905 199.399C179.196 194.807 176.807 193.605 173.354 195.269C173.974 189.318 171.599 188.574 168.676 190.696C168.762 189.389 168.776 188.221 168.709 187.186C171.432 182.312 173.907 182.813 176.187 187.835C176.273 188.016 176.506 188.068 176.659 187.935C178.628 185.965 181.218 186.266 182.071 190.458C182.124 190.71 182.458 190.796 182.615 190.567C182.663 190.496 187.532 183.276 191.657 185.136C195.663 186.948 194.132 194.301 194.117 194.373C194.055 194.654 194.38 194.845 194.594 194.673C197.279 192.589 199.13 193.019 198.81 196.953C198.786 197.196 199.053 197.353 199.249 197.239C201.242 196.142 202.339 196.752 201.781 199.394H178.905V199.399Z" fill="#112544"/>
</svg>
