<svg width="210" height="197" viewBox="0 0 210 197" fill="none" xmlns="http://www.w3.org/2000/svg">
<path d="M209.5 192.673C209.5 194.849 162.714 196.613 105 196.613C47.2864 196.613 0.5 194.849 0.5 192.673C0.5 190.497 47.2864 188.733 105 188.733C162.714 188.733 209.5 190.497 209.5 192.673Z" fill="#FFF0E7"/>
<path d="M123.493 117.978L140.856 189.293H135.898L118.6 117.978H123.493Z" fill="#C99D8D"/>
<path d="M100.675 117.978H105.568L88.2713 189.293H83.313L100.675 117.978Z" fill="#C99D8D"/>
<path d="M70.4946 128.638H153.665V69.5956H70.4946L70.4946 128.638Z" fill="#C99D8D"/>
<path d="M73.1839 126.027L150.973 126.027V72.2054H73.1839V126.027Z" fill="#FDE4D9"/>
<path d="M158.026 54.5773L157.268 56.7908L156.529 54.5708C155.577 51.7124 153.585 49.3166 150.948 47.8598C153.597 46.4257 155.609 44.0472 156.586 41.197L157.345 38.9834L158.084 41.2034C159.036 44.0618 161.028 46.4577 163.665 47.9144C161.016 49.349 159.003 51.7276 158.026 54.5773Z" fill="#FFC253"/>
<path d="M169.267 35.0101L168.676 36.7373L168.099 35.0052C167.356 32.7754 165.802 30.9059 163.744 29.7694C165.811 28.6507 167.382 26.7947 168.144 24.5714L168.736 22.8447L169.312 24.5768C170.055 26.8072 171.609 28.6761 173.666 29.8127C171.599 30.9313 170.029 32.7868 169.267 35.0101Z" fill="#FFC253"/>
<path d="M42.3431 36.3141C39.4658 36.3141 37.1338 33.9821 37.1338 31.1048V25.8955H47.5524V31.1048C47.553 33.9821 45.2204 36.3141 42.3431 36.3141Z" fill="#FACC07"/>
<path d="M42.3464 35.0123C40.1924 35.0123 38.4397 33.2597 38.4397 31.1056V28.501H46.2537V31.1056C46.2537 33.2597 44.501 35.0123 42.3464 35.0123Z" fill="#CD2B7B"/>
<path d="M42.3431 36.3145C39.4658 36.3145 37.1338 38.647 37.1338 41.5238V46.7331H47.5524V41.5238C47.553 38.647 45.2204 36.3145 42.3431 36.3145Z" fill="#FACC07"/>
<path d="M46.2537 41.5234H38.4397V44.1281H46.2537V41.5234Z" fill="#CD2B7B"/>
<path d="M42.9964 34.3613H41.6938V41.524H42.9964V34.3613Z" fill="#CD2B7B"/>
<path d="M47.5525 25.8955H37.1338V27.1981H47.5525V25.8955Z" fill="#131D42"/>
<path d="M47.5525 45.4307H37.1338V46.7327H47.5525V45.4307Z" fill="#131D42"/>
<path d="M50.1638 28.5H48.8612V36.314H50.1638V28.5Z" fill="#6FB1FE"/>
<path d="M49.5165 37.2353L47.1022 34.8216L48.0235 33.9004L49.5165 35.3939L51.0095 33.9004L51.9302 34.8216L49.5165 37.2353Z" fill="#6FB1FE"/>
<path d="M35.8324 36.3135H34.5298V44.1274H35.8324V36.3135Z" fill="#6FB1FE"/>
<path d="M36.6697 38.727L35.1767 37.234L33.6837 38.727L32.763 37.8063L35.1767 35.3926L37.5909 37.8063L36.6697 38.727Z" fill="#6FB1FE"/>
<path d="M104.919 6.35476C86.9114 7.98246 72.7012 23.0375 72.0905 41.1089C71.6366 54.5309 78.4574 66.3176 88.8555 72.9333C92.8152 75.4525 95.5302 79.5269 96.6175 84.0925L99.0848 94.4538L109.341 94.2391L119.597 94.0238L121.647 83.471C122.553 78.8086 125.239 74.693 129.117 71.9515C138.599 65.2487 144.692 54.1127 144.43 41.6293C143.994 20.7969 126.034 4.4463 104.919 6.35476Z" fill="#FACC07"/>
<path d="M106.091 98.4806C106.051 98.4811 106.01 98.48 105.969 98.4762C105.397 98.4221 104.977 97.9147 105.032 97.3424C106.378 83.1296 105.43 70.5921 103.511 63.1925C103.261 63.1806 103.009 63.1665 102.754 63.1514C98.3521 63.021 96.7212 61.1753 96.1434 60.0874C95.4851 58.846 95.5349 57.4081 96.2765 56.2381C97.0641 54.9961 98.4873 54.3031 100.076 54.3745C100.925 54.4156 101.729 54.8673 102.467 55.7177C103.414 56.8098 104.297 58.6702 105.059 61.1666C107.855 61.2332 110.148 61.0882 112.018 60.8107C113.051 58.3029 114.411 56.2062 115.918 55.0204C117.363 53.8812 118.591 53.8893 119.367 54.0905C120.979 54.5151 121.898 55.8275 121.653 57.3557C121.319 59.4443 118.918 61.6421 113.552 62.6699C112.639 65.2178 112.045 68.2141 112.106 71.1244C111.842 80.3621 112.646 97.1055 112.654 97.2737C112.681 97.8477 112.239 98.3351 111.665 98.3637C111.102 98.401 110.603 97.9488 110.575 97.3743C110.567 97.2061 109.759 80.3816 110.026 71.1163C109.969 68.4629 110.423 65.6148 111.227 63.0177C109.585 63.2017 107.726 63.2915 105.634 63.2601C107.554 71.0486 108.442 83.4136 107.103 97.5388C107.053 98.0705 106.611 98.4697 106.091 98.4806ZM99.7791 56.4512C99.0202 56.4669 98.3905 56.7893 98.0335 57.3524C97.6927 57.8901 97.6738 58.5306 97.9816 59.1116C98.6036 60.2838 100.377 60.9984 102.847 61.0714C102.861 61.072 102.874 61.073 102.888 61.0747C102.283 59.2609 101.608 57.9031 100.895 57.0809C100.554 56.6887 100.228 56.4658 99.9777 56.4539C99.91 56.4507 99.844 56.4501 99.7791 56.4512ZM118.526 56.0671C118.134 56.0752 117.691 56.2716 117.206 56.6551C116.301 57.367 115.371 58.6561 114.557 60.2952C118.215 59.3188 119.477 57.7884 119.598 57.0268C119.695 56.4231 119.163 56.1894 118.838 56.1039C118.738 56.0769 118.634 56.065 118.526 56.0671Z" fill="#EA830C"/>
<path d="M114.882 111.251L104.517 111.468L102.138 106.468L117.049 106.155L114.882 111.251Z" fill="#FF3E98"/>
<path d="M121.039 93.2652L97.6102 93.7564C96.2546 93.7851 95.1792 94.9064 95.2078 96.2621L95.2668 99.0744C95.2955 100.43 96.4169 101.505 97.7725 101.477L97.9299 101.474C97.2597 102.185 96.8556 103.147 96.8772 104.201C96.9221 106.333 98.6867 108.025 100.819 107.981L118.43 107.611C120.562 107.566 122.254 105.802 122.21 103.67C122.188 102.616 121.743 101.672 121.044 100.989L121.201 100.986C122.557 100.957 123.633 99.8361 123.604 98.4805L123.545 95.6681C123.516 94.3125 122.394 93.2365 121.039 93.2652Z" fill="#CD2B7B"/>
<path d="M121.038 93.2652L109.572 93.5059L109.967 107.789L118.429 107.611C120.561 107.566 122.253 105.802 122.208 103.67C122.186 102.616 121.742 101.672 121.043 100.989L121.2 100.986C122.556 100.957 123.632 99.8361 123.603 98.4805L123.544 95.6686C123.516 94.3125 122.394 93.2365 121.038 93.2652Z" fill="#AE115D"/>
<path d="M86.3108 84.3933C86.0598 83.3893 85.6644 82.4437 85.1446 81.5798C87.0568 79.4858 88.1782 78.1042 88.0348 77.9609L85.2057 75.1317C85.0618 74.9873 83.6808 76.1103 81.5862 78.0209C80.7223 77.5027 79.7767 77.1062 78.7733 76.8557C78.6435 74.0244 78.4606 72.2539 78.2567 72.2539H74.2564C74.053 72.2539 73.8691 74.0244 73.7403 76.8557C72.7369 77.1062 71.7918 77.5033 70.9274 78.0209C68.8334 76.1103 67.4513 74.9873 67.3069 75.1317L64.4788 77.9609C64.3349 78.1042 65.4568 79.4858 67.3691 81.5798C66.8492 82.4437 66.4532 83.3893 66.2028 84.3933C63.3709 84.522 61.601 84.7065 61.601 84.9099V88.9102C61.601 89.113 63.3709 89.2964 66.2028 89.4263C66.4532 90.4297 66.8498 91.3758 67.3691 92.2392C65.4568 94.3337 64.3349 95.7158 64.4788 95.8597L67.3069 98.6883C67.4513 98.8322 68.8329 97.7092 70.9274 95.7991C71.7913 96.3179 72.7369 96.7139 73.7403 96.9638C73.8696 99.7962 74.053 101.567 74.2564 101.567H78.2567C78.4606 101.567 78.6435 99.7962 78.7733 96.9638C79.7767 96.7139 80.7223 96.3179 81.5862 95.7991C83.6808 97.7098 85.0618 98.8322 85.2057 98.6883L88.0348 95.8597C88.1782 95.7158 87.0568 94.3343 85.1446 92.2392C85.6644 91.3764 86.0598 90.4297 86.3108 89.4263C89.1416 89.2964 90.9127 89.113 90.9127 88.9102V84.9099C90.9127 84.706 89.1416 84.522 86.3108 84.3933Z" fill="#6FB1FE"/>
<path d="M82.9231 86.9096C82.9231 90.5907 79.9387 93.5746 76.2576 93.5746C72.5764 93.5746 69.5926 90.5902 69.5926 86.9096C69.5926 83.229 72.577 80.2451 76.2576 80.2451C79.9393 80.2451 82.9231 83.2295 82.9231 86.9096Z" fill="#4A80E8"/>
<path d="M80.9019 86.9094C80.9019 89.4762 78.8214 91.5561 76.2546 91.5561C73.6884 91.5561 71.6085 89.4762 71.6085 86.9094C71.6085 84.3432 73.6884 82.2627 76.2546 82.2627C78.8214 82.2627 80.9019 84.3437 80.9019 86.9094Z" fill="#3547C7"/>
<path d="M167.366 84.1934C166.986 82.6755 166.389 81.2458 165.603 79.9405C168.493 76.7749 170.189 74.6863 169.972 74.4694L165.695 70.1926C165.478 69.9741 163.389 71.6721 160.223 74.5602C158.918 73.7769 157.488 73.1776 155.972 72.7984C155.775 68.5184 155.499 65.8418 155.191 65.8418H149.144C148.837 65.8418 148.559 68.5179 148.364 72.7984C146.847 73.177 145.418 73.7769 144.112 74.5602C140.946 71.6721 138.858 69.9746 138.639 70.1926L134.364 74.4694C134.146 74.6857 135.843 76.7749 138.733 79.9405C137.947 81.2458 137.349 82.6755 136.97 84.1934C132.689 84.3876 130.013 84.6662 130.013 84.974V91.0207C130.013 91.3274 132.689 91.6044 136.97 91.8002C137.348 93.317 137.947 94.7473 138.733 96.052C135.842 99.2187 134.146 101.307 134.364 101.525L138.639 105.801C138.857 106.018 140.946 104.321 144.112 101.433C145.418 102.217 146.847 102.816 148.364 103.194C148.559 107.476 148.837 110.152 149.144 110.152H155.191C155.499 110.152 155.775 107.476 155.972 103.194C157.488 102.816 158.918 102.217 160.223 101.433C163.39 104.321 165.478 106.018 165.695 105.801L169.972 101.525C170.188 101.307 168.493 99.2187 165.603 96.052C166.388 94.7473 166.986 93.317 167.366 91.8002C171.645 91.6038 174.323 91.3269 174.323 91.0207V84.974C174.323 84.6662 171.645 84.3876 167.366 84.1934Z" fill="#6FB1FE"/>
<path d="M162.243 87.9965C162.243 93.5606 157.732 98.0721 152.167 98.0721C146.603 98.0721 142.091 93.5612 142.091 87.9965C142.091 82.4328 146.602 77.9219 152.167 77.9219C157.732 77.9219 162.243 82.4328 162.243 87.9965Z" fill="#4A80E8"/>
<path d="M159.192 87.9968C159.192 91.8771 156.047 95.0216 152.166 95.0216C148.287 95.0216 145.143 91.8771 145.143 87.9968C145.143 84.1177 148.287 80.9727 152.166 80.9727C156.047 80.9727 159.192 84.1177 159.192 87.9968Z" fill="#3547C7"/>
<path d="M43.6291 115.259C43.6291 115.259 48.2672 119.394 48.978 121.866C49.6888 124.339 50.4699 132.045 50.4699 132.045L62.0186 136.578V139.66H44.4205V125.789L43.6291 115.259Z" fill="#6FB1FE"/>
<path d="M62.2551 180.158C62.5451 182.149 63.5934 185.808 63.8147 186.573L63.9634 186.946L64.4492 188.172L66.5924 187.338L66.4799 185.844L66.4291 185.184L67.0382 185.597L68.5031 186.591L79.5097 182.305L78.879 180.702C78.8389 180.629 78.7881 180.553 78.734 180.48C78.5852 180.299 78.3786 180.143 78.0924 180.118C76.9353 180.006 72.7906 179.864 71.5069 179.393C70.5132 179.026 69.3345 177.873 68.8558 177.376L62.2551 180.158Z" fill="#EA830C"/>
<path d="M69.2124 180.167C69.2092 180.19 69.2065 180.212 69.2038 180.235C69.1854 180.403 69.2232 180.638 69.4315 180.654C69.5375 180.662 69.636 180.609 69.7247 180.552C70.0292 180.355 70.2748 180.085 70.4977 179.796C70.7373 179.485 70.991 179.15 71.0673 178.745C71.1463 178.326 70.7314 178.124 70.4041 178.342C69.8377 178.719 69.3163 179.45 69.2124 180.167Z" fill="#E05D00"/>
<path d="M70.6831 180.583C70.6799 180.606 70.6772 180.628 70.6745 180.651C70.6561 180.82 70.6939 181.054 70.9022 181.071C71.0082 181.079 71.1072 181.026 71.1954 180.969C71.4999 180.771 71.7455 180.502 71.9684 180.213C72.208 179.902 72.4617 179.568 72.538 179.162C72.617 178.742 72.2021 178.541 71.8748 178.759C71.3084 179.136 70.787 179.867 70.6831 180.583Z" fill="#E05D00"/>
<path d="M72.3017 180.606C72.2985 180.629 72.2958 180.651 72.2931 180.674C72.2747 180.843 72.3126 181.077 72.5203 181.094C72.6263 181.103 72.7253 181.049 72.8135 180.992C73.118 180.794 73.3636 180.525 73.5865 180.235C73.8261 179.925 74.0798 179.591 74.1561 179.184C74.2351 178.765 73.8202 178.563 73.4929 178.781C72.9271 179.159 72.4056 179.89 72.3017 180.606Z" fill="#E05D00"/>
<path d="M78.7377 180.482L67.0424 185.599L68.5073 186.593L79.5139 182.306L78.8832 180.704C78.8426 180.631 78.7923 180.555 78.7377 180.482Z" fill="#E05D00"/>
<path d="M63.9658 186.949L64.4515 188.175L66.5948 187.341L66.4822 185.847L63.9658 186.949Z" fill="#AE115D"/>
<path d="M42.9293 145.065C42.9293 145.065 56.698 148.083 58.3484 148.967C59.9988 149.851 70.1394 176.862 70.1394 176.862L60.4143 181.577L49.0923 154.155L33.0916 155.088L30.7953 146.119L42.9293 145.065Z" fill="#AE115D"/>
<path d="M78.6424 143.366H75.1457V188.238H78.6424V143.366Z" fill="#131D42"/>
<path d="M65.8144 190.15H87.9759C87.9759 188.283 86.4623 186.769 84.595 186.769H69.1959C67.328 186.769 65.8144 188.283 65.8144 190.15Z" fill="#131D42"/>
<path d="M49.0985 145.596H101.07V142.545H49.0985V145.596Z" fill="#FACC07"/>
<path d="M25.0092 159.942L19.5635 133.227H22.1471L28.17 160.397L25.0092 159.942Z" fill="#131D42"/>
<path d="M17.6525 128.787C18.7268 127.657 26.366 127.672 33.6445 127.962V134.245H16.6961C16.6961 134.245 15.5314 131.017 17.6525 128.787Z" fill="#131A70"/>
<path d="M49.0919 162.023L54.0156 190.149H52.297L45.4086 163.336L49.0919 162.023Z" fill="#131D42"/>
<path d="M24.4847 162.023L19.5616 190.149H21.2801L28.168 163.336L24.4847 162.023Z" fill="#131D42"/>
<path d="M22.1478 182.775H51.2469V180.988H22.1478V182.775Z" fill="#131D42"/>
<path d="M53.2599 159.124C53.2599 159.124 25.5484 156.894 23.4273 159.124C21.3063 161.354 22.4709 164.582 22.4709 164.582H54.0221L53.2599 159.124Z" fill="#131A70"/>
<path d="M57.6856 184.075C57.9756 186.066 59.0239 189.725 59.2452 190.49L59.3939 190.863L59.8797 192.089L62.0229 191.254L61.9104 189.76L61.8596 189.1L62.4687 189.514L63.9335 190.507L74.9402 186.221L74.3094 184.618C74.2694 184.546 74.2185 184.469 74.1645 184.397C74.0157 184.216 73.8091 184.06 73.5229 184.034C72.3658 183.922 68.2211 183.781 66.9369 183.309C65.9432 182.943 64.7644 181.79 64.2862 181.293L57.6856 184.075Z" fill="#FACC07"/>
<path d="M64.6571 184.082C64.6539 184.104 64.6506 184.127 64.6485 184.149C64.6301 184.318 64.6679 184.552 64.8757 184.568C64.9817 184.577 65.0807 184.524 65.1688 184.466C65.4734 184.269 65.719 183.999 65.9419 183.71C66.1815 183.399 66.4352 183.065 66.5115 182.659C66.5905 182.239 66.1755 182.038 65.8483 182.256C65.283 182.634 64.7615 183.365 64.6571 184.082Z" fill="#E05D00"/>
<path d="M66.1278 184.499C66.1246 184.522 66.1219 184.544 66.1192 184.567C66.1008 184.735 66.1386 184.97 66.3464 184.986C66.4524 184.995 66.5514 184.941 66.6396 184.884C66.9441 184.686 67.1897 184.417 67.4126 184.127C67.6522 183.816 67.9059 183.482 67.9822 183.077C68.0612 182.657 67.6463 182.456 67.319 182.674C66.7531 183.051 66.2317 183.782 66.1278 184.499Z" fill="#E05D00"/>
<path d="M67.7464 184.521C67.7432 184.544 67.7405 184.566 67.7378 184.589C67.7194 184.758 67.7573 184.992 67.965 185.009C68.071 185.017 68.17 184.964 68.2582 184.907C68.5627 184.709 68.8083 184.44 69.0312 184.15C69.2708 183.839 69.5245 183.505 69.6008 183.099C69.6798 182.68 69.2649 182.478 68.9376 182.696C68.3718 183.074 67.8503 183.805 67.7464 184.521Z" fill="#E05D00"/>
<path d="M74.1763 184.396L62.481 189.513L63.9459 190.507L74.9525 186.221L74.3218 184.618C74.2818 184.545 74.2309 184.47 74.1763 184.396Z" fill="#E05D00"/>
<path d="M59.4044 190.863L59.8902 192.089L62.0334 191.255L61.9209 189.761L59.4044 190.863Z" fill="#E05D00"/>
<path d="M66.3268 180.73L60.424 183.692L56.3745 185.385L46.1046 161.145C46.1046 161.145 32.2267 162.258 29.523 160.966C26.8194 159.675 23.4309 149.467 23.4309 149.467L33.6034 146.978L37.8606 150.927C37.8606 150.927 48.4242 150.885 50.2661 151.714C53.1364 153.005 66.3268 180.73 66.3268 180.73Z" fill="#CD2B7B"/>
<path d="M60.424 183.692L56.3745 185.385L46.1046 161.145C46.1046 161.145 32.2267 162.257 29.523 160.966C26.8194 159.674 23.4309 149.467 23.4309 149.467H26.7631C25.9365 152.432 27.2051 155.775 29.51 157.842C31.9037 159.989 35.2159 160.89 38.4302 160.898C41.6445 160.907 44.802 160.097 47.8816 159.179C51.7759 165.53 56.5292 177.343 60.424 183.692Z" fill="#AE115D"/>
<path d="M23.8567 151.387C25.3448 149.796 43.6537 145.224 43.6537 145.224L47.1184 146.007V144.577C47.1184 143.955 46.9064 143.339 46.4774 142.889C45.7731 142.149 44.9779 142.255 44.9779 142.255L44.9406 140.118C45.1045 138.619 46.2551 126.756 46.1015 121.363V121.322C46.0468 119.488 45.4393 117.713 44.3704 116.225C43.9712 115.672 43.698 115.34 43.6331 115.259C43.6261 115.255 43.6261 115.252 43.6228 115.245C43.6228 115.242 43.6191 115.242 43.6191 115.242C43.3837 115.01 43.1414 114.791 42.892 114.583C39.8984 112.06 36.1432 111.207 36.1432 111.207C35.8294 111.139 35.1089 111.279 34.3581 111.477C33.4228 111.724 30.7126 113.991 30.7094 113.992C27.8905 118.029 26.2298 120.68 24.4685 128.246C24.2364 129.239 24.0179 130.386 23.8096 131.629C23.0534 136.154 22.6184 140.724 22.4778 145.306C22.4123 147.417 22.884 149.511 23.8567 151.387Z" fill="#6FB1FE"/>
<path d="M43.16 162.436L46.3186 161.613L42.5596 147.189L24.8539 147.152L22.3244 161.612L25.4792 161.834L27.5727 150.422L40.0361 150.448L43.16 162.436Z" fill="#131A70"/>
<path d="M40.5446 112.974C40.5446 112.974 42.5066 113.832 43.2153 114.864C43.3673 115.086 43.2153 119.578 43.2153 119.578L40.6836 117.916L38.3489 120.258C38.3489 120.258 33.4674 115.06 33.1575 114.31C32.7723 113.38 33.3544 111.766 33.3544 111.766C33.3544 111.766 34.9301 111.216 35.4889 111.23L40.1724 116.546L40.5446 112.974Z" fill="#FFF5F2"/>
<path d="M43.2128 119.578C43.2128 119.578 42.7059 121.739 41.9215 121.86C41.1372 121.981 38.3464 120.258 38.3464 120.258L40.6812 117.916L43.2128 119.578Z" fill="#CD2B7B"/>
<path d="M33.0037 117.149C34.0645 118.839 35.3363 120.328 36.9229 121.546C38.417 122.693 42.466 125.502 43.7312 122.755C43.8448 122.509 44.263 122.684 44.1716 122.941C43.3104 125.361 40.6073 124.445 38.8503 123.614C36.1023 122.316 33.8444 120.165 32.3189 117.549C32.0603 117.106 32.7327 116.717 33.0037 117.149Z" fill="#4A80E8"/>
<path d="M80.8993 142.544H59.1701L62.7987 127.661H84.5286L80.8993 142.544Z" fill="#131D42"/>
<path d="M74.7216 135.268C73.9605 135.268 73.3438 134.652 73.3438 133.891C73.3438 133.569 73.459 133.276 73.644 133.041C73.4596 132.99 73.2692 132.953 73.0685 132.953C71.8811 132.953 70.9188 133.915 70.9188 135.103C70.9188 136.29 71.8811 137.253 73.0685 137.253C74.231 137.253 75.1722 136.328 75.2112 135.175C75.0581 135.233 74.8942 135.268 74.7216 135.268Z" fill="#FFF5F2"/>
<path d="M80.8925 140.448H55.3939V142.545H80.8925V140.448Z" fill="#131D42"/>
<path d="M31.4663 119.261C31.4663 119.261 35.9085 122.392 36.3618 124.498C36.8152 126.604 38.346 135.103 38.346 135.103C38.346 135.103 47.9289 134.808 49.7156 135.103C51.5024 135.398 54.6756 136.577 54.6756 136.577V141.201C54.6756 141.201 51.9438 143.251 49.41 143.366C46.8762 143.482 35.6418 142.289 33.6447 140.929C31.6475 139.569 27.4768 130.14 27.4768 128.236C27.4768 126.332 28.3759 119.24 31.4663 119.261Z" fill="#6FB1FE"/>
<path d="M27.9139 127.788C28.3261 132.3 29.5887 136.738 31.7157 140.747C32.2967 141.842 32.9615 142.88 34.1564 143.343C35.2048 143.749 36.4273 143.671 37.5379 143.668C39.8212 143.662 42.084 143.434 44.3462 143.14C44.5237 143.118 44.561 143.413 44.3884 143.452C41.707 144.05 38.9173 144.347 36.1682 144.274C34.3755 144.226 32.9236 143.827 31.8266 142.312C28.9 138.271 27.6667 132.653 27.1831 127.788C27.1366 127.322 27.8717 127.322 27.9139 127.788Z" fill="#4A80E8"/>
<path d="M54.6763 140.839L55.393 140.448H59.673L60.168 138.419C60.168 138.419 57.0635 137.264 56.6707 137.254C56.278 137.243 54.6763 137.001 54.6763 137.001V140.839Z" fill="#D8684E"/>
<path d="M55.0393 135.52L54.6763 141.866L53.0448 142.545L52.8252 135.104L55.0393 135.52Z" fill="#FFF5F2"/>
<path d="M32.9908 124.3C32.8583 124.079 33.1596 123.856 33.3424 124.029C35.7339 126.294 37.4211 130.288 37.9015 133.617C40.5527 132.891 43.5484 132.72 46.3435 133.195C46.7568 129.217 46.7801 125.311 46.4787 121.319C46.4717 121.227 46.6237 121.206 46.64 121.297C47.361 125.24 47.3843 129.32 46.7974 133.284C48.8102 133.68 50.7041 134.414 52.2653 135.531C52.421 135.643 52.334 135.947 52.1235 135.868C49.3279 134.823 46.8006 133.812 43.7681 133.668C41.8223 133.576 39.9739 133.826 38.1482 134.279C38.106 134.598 37.8528 134.89 37.7322 135.18C37.5364 135.649 37.5093 136.107 37.4579 136.605C37.4395 136.784 37.2345 136.971 37.0522 136.837C36.9635 136.772 36.91 136.727 36.8488 136.637C36.8191 136.594 36.8256 136.509 36.8694 136.476C36.884 136.465 36.8964 136.459 36.9099 136.449C36.877 135.983 36.983 135.496 37.1718 135.077C37.2594 134.881 37.379 134.633 37.5396 134.437C36.7763 134.645 36.0152 134.884 35.2514 135.151C34.9777 135.246 34.79 134.809 35.0529 134.679C35.8329 134.295 36.6811 133.978 37.5667 133.717C37.0728 132.029 36.587 130.375 35.8124 128.776C35.0302 127.161 33.905 125.824 32.9908 124.3Z" fill="#4A80E8"/>
<path d="M41.1373 109.264L40.8928 112.608L40.8636 112.975L40.4671 116.548C40.4671 116.548 35.4898 111.451 35.4898 111.232C35.5012 111.167 35.5483 110.623 35.6007 109.933C35.6997 108.579 35.8398 106.667 35.8398 106.667L41.1373 109.264Z" fill="#D8684E"/>
<path d="M41.1369 109.264L40.8923 112.607C40.5369 112.755 40.1172 112.679 39.7385 112.574C38.5555 112.235 37.4536 111.637 36.5442 110.848C36.2472 110.59 35.9032 110.277 35.5997 109.932C35.6987 108.578 35.8388 106.666 35.8388 106.666L41.1369 109.264Z" fill="#AC4732"/>
<path d="M34.84 108.332C34.84 108.332 34.992 108.771 35.6709 109.372H35.6725C35.811 109.495 35.9727 109.625 36.1594 109.76C36.8723 110.271 43.5487 113.132 44.5776 112.995C45.6065 112.858 46.5758 109.324 46.6288 108.952C46.9594 106.671 47.8687 99.6232 47.8687 99.6232C45.3317 91.9429 36.2795 95.9205 35.2511 96.6745C34.2228 97.4286 34.84 108.332 34.84 108.332Z" fill="#D8684E"/>
<path d="M44.1131 105.994C44.1131 105.994 42.5416 106.216 42.1738 105.994L42.3961 106.986C42.3961 106.986 44.5188 106.513 44.7687 106.34L44.1131 105.994Z" fill="#ED7864"/>
<path d="M43.6713 101.911C43.3868 103.274 43.5475 104.761 44.1127 105.994C43.5961 106.502 43.0314 106.877 42.3682 106.991C43.1672 107.21 44.1079 106.993 44.7332 106.363C44.0781 105.051 43.6421 103.436 43.6713 101.911Z" fill="#AC4732"/>
<path d="M39.8967 108.152C39.8967 108.152 41.809 107.683 44.769 108.623C44.769 108.623 43.8018 110.734 42.047 110.45C40.2927 110.166 39.8967 108.152 39.8967 108.152Z" fill="white"/>
<path d="M35.6706 109.372C35.8091 109.495 35.9708 109.626 36.1574 109.76C36.8704 110.272 43.5468 113.133 44.5757 112.996C45.6045 112.858 46.5739 109.324 46.6269 108.952C45.9864 110.505 45.2627 112.651 44.534 112.583C43.4375 112.48 36.4815 109.799 35.6706 109.372Z" fill="#ED7864"/>
<path d="M47.08 102.318C47.08 102.318 46.399 100.379 45.5497 100.796C44.7004 101.212 44.9747 101.37 44.9747 101.37L47.08 102.318Z" fill="#131A70"/>
<path d="M37.5705 101.329C37.5705 101.329 40.2487 99.1383 41.0071 100.21C41.4496 100.836 41.0158 101.136 41.0158 101.136L37.5705 101.329Z" fill="#131A70"/>
<path d="M38.6699 103.393C38.6699 104.103 39.028 104.678 39.4699 104.678C39.9119 104.678 40.27 104.103 40.27 103.393C40.27 102.683 39.9119 102.108 39.4699 102.108C39.028 102.108 38.6699 102.684 38.6699 103.393Z" fill="#161818"/>
<path d="M37.905 102.677C37.905 102.677 38.1863 103.118 38.6737 103.315C39.161 103.513 39.6706 103.391 39.6706 103.391C39.6706 103.391 39.3893 102.95 38.9014 102.752C38.414 102.555 37.905 102.677 37.905 102.677Z" fill="#FFF0E7"/>
<path d="M46.2362 103.875C46.2362 104.41 45.9663 104.843 45.633 104.843C45.2998 104.843 45.0299 104.41 45.0299 103.875C45.0299 103.34 45.2998 102.906 45.633 102.906C45.9663 102.906 46.2362 103.34 46.2362 103.875Z" fill="#161818"/>
<path d="M46.7556 103.404C46.7556 103.404 46.5441 103.69 46.1968 103.831C45.8501 103.971 45.499 103.913 45.499 103.913C45.499 103.913 45.7105 103.627 46.0578 103.487C46.4051 103.346 46.7556 103.404 46.7556 103.404Z" fill="#FFF0E7"/>
<path d="M45.6412 106.841C45.7467 107.122 46.3537 107.154 46.9979 106.913C47.6417 106.672 48.0787 106.249 47.9733 105.968C47.8678 105.686 47.2608 105.654 46.6166 105.895C45.9723 106.136 45.5358 106.559 45.6412 106.841Z" fill="#ED7864"/>
<path d="M37.5396 105.528C37.4298 105.952 38.1281 106.5 39.0991 106.752C40.0701 107.003 40.9465 106.863 41.0563 106.439C41.1661 106.015 40.4677 105.468 39.4967 105.216C38.5263 104.965 37.6499 105.104 37.5396 105.528Z" fill="#ED7864"/>
<path d="M35.827 108.604C34.452 108.496 33.4512 107.68 32.9151 106.997C32.7945 106.843 32.6977 106.696 32.6252 106.565C32.2325 105.853 32.1199 103.383 33.131 102.809C33.8396 102.408 34.3551 102.99 34.6002 103.376V103.378C34.7046 103.542 34.7603 103.67 34.7603 103.67L35.827 108.604Z" fill="#ED7864"/>
<path d="M35.8275 108.604C34.4524 108.496 33.4516 107.68 32.9156 106.997C32.869 106.927 32.829 106.861 32.7944 106.798C32.4017 106.086 32.2886 103.616 33.3002 103.043C33.8741 102.717 34.3215 103.038 34.6012 103.376V103.378C34.7056 103.542 34.7613 103.67 34.7613 103.67L35.8275 108.604Z" fill="#D8684E"/>
<path d="M43.1515 99.5658C41.9891 99.2375 40.8228 98.9015 39.7512 98.34C39.0712 97.9841 38.4307 97.5254 37.9125 96.9601C35.8607 99.0043 34.7534 102.096 35.2992 104.915C35.1807 104.318 34.7415 103.797 34.1762 103.571C33.6065 103.35 32.9937 103.345 32.4998 103.701C32.1714 102.654 31.8436 101.598 31.638 100.522C31.5353 99.9883 31.4639 99.4549 31.4363 98.9129C31.3573 97.276 31.7289 95.552 32.8005 94.3105C33.7769 93.1756 35.4101 92.5552 36.8333 92.9506C36.9323 92.6147 37.094 92.322 37.351 92.1165C37.8768 91.6853 38.8732 91.6502 39.5137 91.5863C40.4035 91.4955 41.3048 91.5149 42.1946 91.6458C43.7682 91.879 45.318 92.48 46.4962 93.5478C47.544 94.4928 48.2554 95.7619 48.7341 97.0867C48.7617 97.1581 48.7855 97.2333 48.8093 97.3041C49.2361 98.5613 49.4817 99.8779 49.7224 101.191C47.2552 100.903 44.8907 99.7833 43.1039 98.0555C42.8908 98.5299 42.9103 99.1028 43.1515 99.5658Z" fill="#131D42"/>
<path d="M40.7827 94.825C40.747 95.6472 40.8303 96.4819 41.0278 97.2803C39.8891 96.9839 38.8689 96.2482 38.2246 95.2637C37.1806 95.9436 36.1252 96.6279 35.2391 97.5054C34.3493 98.379 33.6298 99.4744 33.4086 100.7C32.8114 100.744 32.2104 100.685 31.6375 100.522C31.5347 99.9883 31.4633 99.4549 31.4357 98.9129C31.3962 98.0587 31.4752 97.1813 31.7165 96.3586C31.9339 95.6072 32.2856 94.9034 32.8 94.3105C33.7764 93.1756 35.4095 92.5552 36.8328 92.9506C36.9317 92.6147 37.0935 92.322 37.3504 92.1165C37.8762 91.6853 38.8727 91.6502 39.5131 91.5863C40.403 91.4955 41.3042 91.5149 42.1941 91.6458C43.7677 91.879 45.3175 92.48 46.4957 93.5478C46.5947 93.6349 46.6893 93.7258 46.7802 93.8285C47.6739 94.7303 48.2987 95.8847 48.7336 97.0867C48.7612 97.1581 48.785 97.2333 48.8088 97.3041C47.8443 97.2251 46.8873 97.1061 45.9385 96.9168C44.1042 96.5528 42.305 95.9085 40.7827 94.825Z" fill="#131A70"/>
<path d="M39.1427 93.3622C38.9647 93.8842 38.9685 94.4614 39.1508 94.9796C38.281 94.7978 37.4468 94.4695 36.6835 94.0151C35.118 94.7702 33.829 96.0831 33.1014 97.6605C32.5994 97.277 32.1326 96.8421 31.7177 96.3595C31.9351 95.6082 32.2867 94.9044 32.8012 94.3115C33.7776 93.1766 35.4107 92.5561 36.8339 92.9516C36.9329 92.6156 37.0947 92.323 37.3516 92.1174C37.8774 91.6863 38.8738 91.6511 39.5143 91.5873C40.4042 91.4964 41.3054 91.5159 42.1952 91.6468C43.7689 91.88 45.3187 92.481 46.4968 93.5488C46.5958 93.6359 46.6905 93.7268 46.7814 93.8295C44.2351 94.1373 41.6294 93.9869 39.1427 93.3622Z" fill="#172D8A"/>
<path d="M32.814 104.771C32.7631 104.969 32.7956 105.174 32.8605 105.37C33.1369 106.198 33.9646 106.831 34.7571 107.418C34.518 107.016 34.4303 106.562 34.479 106.12C34.4958 105.967 34.5293 105.814 34.5304 105.659C34.5363 105.038 33.1131 103.603 32.814 104.771Z" fill="#ED7864"/>
<path d="M35.1558 107.654C35.1558 107.654 35.1401 107.645 35.1109 107.628C35.0822 107.611 35.0357 107.588 34.9832 107.552C34.8772 107.481 34.7306 107.368 34.5921 107.199C34.4547 107.031 34.3298 106.807 34.2708 106.541C34.2173 106.276 34.2286 105.968 34.3709 105.67C34.386 105.632 34.4071 105.597 34.4282 105.561L34.4439 105.535C34.4477 105.528 34.4455 105.532 34.4455 105.532L34.4461 105.532C34.4461 105.532 34.4472 105.533 34.4439 105.527L34.4309 105.503L34.4044 105.456C34.386 105.426 34.3682 105.394 34.3492 105.364C34.2746 105.242 34.1935 105.129 34.1107 105.023C34.0274 104.917 33.9414 104.819 33.8559 104.73C33.7699 104.641 33.6871 104.558 33.6054 104.497C33.5238 104.435 33.4334 104.395 33.349 104.384C33.2641 104.374 33.1846 104.393 33.1305 104.42C33.0759 104.447 33.0456 104.482 33.0337 104.508C33.0201 104.534 33.0212 104.55 33.0196 104.55C33.0196 104.55 33.0153 104.535 33.0218 104.505C33.0272 104.477 33.0494 104.433 33.1034 104.393C33.1575 104.354 33.2419 104.317 33.3539 104.314C33.4659 104.313 33.586 104.351 33.6936 104.412C33.8024 104.473 33.8997 104.549 34.002 104.633C34.1037 104.717 34.207 104.813 34.3065 104.919C34.4055 105.025 34.5013 105.142 34.5883 105.268C34.6105 105.3 34.6311 105.332 34.6522 105.365L34.6825 105.415L34.7225 105.485L34.7506 105.534C34.7436 105.551 34.7322 105.567 34.7236 105.584L34.683 105.654C34.6646 105.685 34.6462 105.716 34.6338 105.749C34.5099 106.007 34.4829 106.276 34.5056 106.518C34.5343 106.761 34.6159 106.976 34.7149 107.147C34.8145 107.318 34.9286 107.445 35.0141 107.529C35.0563 107.571 35.0947 107.6 35.1185 107.622C35.1428 107.642 35.1558 107.654 35.1558 107.654Z" fill="#CF4A57"/>
<path d="M88.1536 142.545H92.5033C92.8593 142.545 93.1476 142.257 93.1476 141.901V135.13H87.5088V141.901C87.5093 142.257 87.7977 142.545 88.1536 142.545Z" fill="#FF3E98"/>
<path d="M85.4648 140.205V137.468C85.4648 136.656 86.1258 135.995 86.9378 135.995H89.14V141.678H86.9378C86.1253 141.678 85.4648 141.018 85.4648 140.205ZM88.2983 136.837H86.9378C86.59 136.837 86.3065 137.12 86.3065 137.468V140.205C86.3065 140.553 86.5894 140.837 86.9378 140.837H88.2983V136.837Z" fill="#FF3E98"/>
<path d="M189.775 144.323L186.672 141.971L182.411 145.924C182.411 145.924 171.838 145.882 169.995 146.712C167.123 148.004 155.027 179.88 155.027 179.88H160.079L174.16 156.152C174.16 156.152 188.05 157.265 190.756 155.972C193.461 154.679 189.775 144.323 189.775 144.323Z" fill="#FF7D6F"/>
<path d="M162.195 187.048L160.059 187.519L159.497 184.199C159.497 184.199 158.198 187.951 157.549 188.222C156.9 188.494 150.548 189.091 148.133 188.7C145.667 188.299 145.721 187.582 145.721 187.582C145.932 187.06 147.701 185.671 149.434 184.978C149.785 184.837 150.237 184.529 150.736 184.124C152.692 182.542 155.361 179.504 155.361 179.504L159.999 179.185C162.085 181.439 162.195 187.048 162.195 187.048Z" fill="#FF7D6F"/>
<path d="M162.195 187.048L160.059 187.517L159.497 184.198C159.497 184.198 158.198 187.95 157.549 188.221C156.9 188.493 150.548 189.09 148.133 188.699C145.667 188.298 145.721 187.581 145.721 187.581C145.932 187.059 147.701 185.67 149.434 184.977C149.434 184.977 150.429 187.307 152.138 187.139C153.851 186.972 157.951 183.554 158.455 182.002C158.962 180.45 160.523 179.879 160.523 179.879C162.609 182.133 162.195 187.048 162.195 187.048Z" fill="#3547C7"/>
<path d="M174.457 115.505C175.085 116.733 176.453 117.391 177.769 117.804C182.473 119.28 187.784 118.693 192.052 116.225C192.976 115.691 193.868 115.056 194.482 114.183C194.868 113.627 195.128 112.966 195.177 112.299C195.196 112.072 195.191 111.843 195.152 111.616C195.129 111.458 195.09 111.302 195.039 111.149C194.699 110.179 193.839 109.485 193.344 108.584C192.67 107.361 192.73 105.89 192.485 104.516C192.228 103.073 191.574 101.717 190.658 100.579C189.122 98.6654 186.551 97.1129 184.051 96.9863C181.419 96.8538 178.226 98.6714 176.894 100.883C176.091 102.214 175.791 103.777 175.504 105.303C175.389 105.921 175.272 106.535 175.156 107.153L174.327 111.564C174.215 112.147 174.11 112.753 174.078 113.352C174.042 114.101 174.121 114.839 174.457 115.505Z" fill="#131D42"/>
<path d="M192.532 127.555C193.82 123.752 194.449 120.163 194.449 120.163C194.449 120.163 189.707 116.876 188.337 116.055C186.967 115.233 183.972 117.251 182.89 116.955C181.809 116.659 180.319 117.097 180.319 117.097C180.319 117.097 178.497 134.963 178.535 135.409C178.551 135.599 178.901 135.952 179.726 136.231L179.124 136.639L177.02 146.006C177.02 146.006 194.838 152.616 194.838 151.758C194.838 150.899 192.532 127.555 192.532 127.555L192.532 127.555Z" fill="#CD2B7B"/>
<path d="M180.318 117.097C180.318 117.097 175.865 119.37 175.154 121.845C174.442 124.319 173.66 132.032 173.66 132.032L162.102 136.569V139.654H179.714V125.771L180.318 117.097Z" fill="#CD2B7B"/>
<path d="M148.961 143.364H145.461V188.274H148.961V143.364Z" fill="#131D42"/>
<path d="M158.301 190.187H136.121C136.121 188.318 137.636 186.803 139.505 186.803H154.917C156.786 186.803 158.301 188.318 158.301 190.187Z" fill="#131D42"/>
<path d="M175.037 142.541H95.2157V145.594H175.037V142.541Z" fill="#FACC07"/>
<path d="M199.143 159.952L204.593 133.215H202.008L195.979 160.408L199.143 159.952Z" fill="#131A70"/>
<path d="M206.508 128.771C205.433 127.641 197.787 127.655 190.502 127.945V134.233H207.465C207.465 134.233 208.631 131.003 206.508 128.771Z" fill="#131D42"/>
<path d="M175.04 162.035L170.112 190.184H171.832L178.726 163.349L175.04 162.035Z" fill="#131D42"/>
<path d="M199.667 162.035L204.594 190.184H202.875L195.98 163.349L199.667 162.035Z" fill="#131D42"/>
<path d="M202.004 181.017H172.88V182.805H202.004V181.017Z" fill="#131D42"/>
<path d="M170.869 159.135C170.869 159.135 198.604 156.902 200.727 159.135C202.85 161.367 201.684 164.597 201.684 164.597H170.106L170.869 159.135Z" fill="#131A70"/>
<path d="M193.651 149.33L190.548 146.978L186.287 150.93C186.287 150.93 175.714 150.889 173.871 151.718C170.998 153.011 158.903 184.886 158.903 184.886H163.955L178.036 161.157C178.036 161.157 191.926 162.271 194.632 160.978C197.337 159.685 193.651 149.33 193.651 149.33Z" fill="#FFA07F"/>
<path d="M166.071 192.056L163.935 192.526L163.373 189.206C163.373 189.206 162.074 192.958 161.425 193.229C160.777 193.501 154.424 194.098 152.009 193.707C149.543 193.306 149.597 192.589 149.597 192.589C149.808 192.067 151.577 190.678 153.31 189.985C153.661 189.845 154.113 189.536 154.612 189.132C156.568 187.55 159.238 184.512 159.238 184.512L163.875 184.192C165.962 186.447 166.071 192.056 166.071 192.056Z" fill="#FFA07F"/>
<path d="M166.071 192.056L163.935 192.525L163.373 189.206C163.373 189.206 162.074 192.958 161.425 193.229C160.777 193.501 154.424 194.097 152.009 193.707C149.543 193.306 149.597 192.589 149.597 192.589C149.808 192.067 151.577 190.678 153.31 189.985C153.31 189.985 154.305 192.315 156.014 192.147C157.727 191.98 161.828 188.562 162.331 187.01C162.838 185.457 164.399 184.887 164.399 184.887C166.485 187.141 166.071 192.056 166.071 192.056Z" fill="#3547C7"/>
<path d="M177.017 146.005C177.017 146.005 167.723 145.529 165.771 148.968C163.819 152.406 159.482 161.369 159.482 161.369L170.194 166.786C170.194 166.786 173.297 163.845 172.88 164.597C172.463 165.349 174.52 169.34 174.52 169.34L178.034 161.157C178.034 161.157 191.218 163.567 194.63 160.977C198.042 158.387 193.649 148.598 193.649 148.598L177.017 146.005Z" fill="#FACC07"/>
<path d="M180.983 162.449L177.823 161.625L181.584 147.189L199.305 147.152L201.837 161.625L198.679 161.847L196.584 150.425L184.11 150.451L180.983 162.449Z" fill="#131D42"/>
<path d="M143.213 142.54H164.96L161.328 127.646H139.581L143.213 142.54Z" fill="#131D42"/>
<path d="M149.397 135.258C150.159 135.258 150.776 134.641 150.776 133.879C150.776 133.557 150.661 133.264 150.476 133.03C150.66 132.978 150.851 132.941 151.052 132.941C152.241 132.941 153.203 133.905 153.203 135.093C153.203 136.281 152.24 137.244 151.052 137.244C149.888 137.244 148.947 136.319 148.908 135.165C149.06 135.223 149.224 135.258 149.397 135.258Z" fill="#FFF5F2"/>
<path d="M143.212 142.54H168.733V140.442H143.212V142.54Z" fill="#131D42"/>
<path d="M192.68 119.237C192.68 119.237 188.234 122.372 187.78 124.48C187.327 126.587 185.795 135.094 185.795 135.094C185.795 135.094 176.204 134.798 174.415 135.094C172.627 135.389 169.451 136.569 169.451 136.569V141.197C169.451 141.197 172.185 143.248 174.721 143.364C177.257 143.479 188.5 142.285 190.499 140.924C192.499 139.563 196.672 130.127 196.672 128.221C196.672 126.315 195.773 119.217 192.68 119.237Z" fill="#CD2B7B"/>
<path d="M169.449 140.833L168.732 140.443H164.448L163.953 138.412C163.953 138.412 167.06 137.256 167.453 137.245C167.847 137.234 169.449 136.992 169.449 136.992V140.833H169.449Z" fill="#FFA07F"/>
<path d="M169.088 135.51L169.451 141.862L171.084 142.541L171.303 135.094L169.088 135.51Z" fill="#FFF5F2"/>
<path d="M176.127 128.468C175.718 131.217 176.84 134.145 178.983 135.915C177.161 134.089 176.458 131.226 177.226 128.763C177.51 127.852 177.974 127.007 178.289 126.106C178.479 125.562 178.819 124.58 178.564 124.014C178.184 123.176 177.758 124.131 177.555 124.518C176.904 125.762 176.335 127.071 176.127 128.468Z" fill="#AE115D"/>
<path d="M188.332 116.054C188.332 116.054 184.855 117.454 184.274 117.323C183.693 117.195 182.886 116.954 182.886 116.954C182.982 116.798 183.582 115.379 183.485 114.954C183.257 113.973 182.708 112.637 182.708 112.637L185.887 111.043C185.887 111.043 186.152 111.978 186.48 112.961C186.811 113.957 188.1 115.926 188.332 116.054Z" fill="#FFA07F"/>
<path d="M186.48 112.96C185.656 113.766 184.639 114.726 184.288 114.901C184.001 115.043 183.713 115.019 183.486 114.953C183.257 113.972 182.708 112.638 182.708 112.638L185.886 111.043C185.886 111.043 186.154 111.979 186.48 112.96Z" fill="#FF7D6F"/>
<path d="M186.47 101.454C184.362 99.607 181.214 99.3895 178.994 101.102C178.484 101.495 178.09 101.917 177.945 102.343C177.364 104.047 177.02 110.074 178.616 112.735C180.212 115.396 182.077 114.751 182.734 114.461C183.39 114.17 186.419 112.403 187.02 111.257C187.622 110.111 188.488 104.498 187.945 103.138C187.763 102.684 187.174 102.07 186.47 101.454Z" fill="#FFBF90"/>
<path d="M186.635 101.001C184.526 99.1538 181.378 98.9364 179.159 100.648C178.649 101.042 178.255 101.464 178.11 101.89C177.529 103.593 177.184 109.621 178.781 112.282C180.377 114.942 182.242 114.298 182.898 114.008C183.554 113.717 186.583 111.949 187.185 110.804C187.786 109.658 188.652 104.045 188.109 102.685C187.927 102.231 187.339 101.617 186.635 101.001Z" fill="#FFA07F"/>
<path d="M181.475 109.192C181.618 109.149 181.763 109.081 181.912 109.105C181.743 109.436 181.44 109.696 181.087 109.811C181.06 109.82 181.031 109.829 181.003 109.826C180.968 109.823 180.937 109.804 180.908 109.784C180.723 109.661 180.564 109.501 180.44 109.316C180.415 109.279 180.392 109.239 180.384 109.195C180.359 109.049 180.456 109.086 180.54 109.125C180.637 109.17 180.741 109.203 180.846 109.223C181.054 109.262 181.271 109.253 181.475 109.192Z" fill="#FF7D6F"/>
<path d="M181.06 109.726C180.977 109.642 180.882 109.569 180.796 109.487C180.69 109.385 180.592 109.276 180.508 109.155C180.997 108.859 181.021 108.368 181.031 107.811C181.036 107.559 180.98 107.307 180.871 107.08C180.814 106.961 180.742 106.849 180.657 106.748C180.615 106.696 180.569 106.647 180.52 106.601C180.472 106.556 180.421 106.53 180.362 106.501C180.389 106.536 180.406 106.576 180.431 106.611C180.494 106.704 180.561 106.791 180.614 106.89C180.667 106.99 180.712 107.094 180.747 107.202C180.818 107.416 180.854 107.642 180.848 107.868C180.843 108.09 180.798 108.312 180.705 108.513C180.598 108.744 180.421 108.968 180.198 109.093C180.197 109.094 180.497 109.486 180.527 109.518C180.604 109.602 180.689 109.678 180.781 109.745C180.872 109.809 180.976 109.887 181.091 109.889C181.127 109.889 181.164 109.884 181.195 109.865C181.176 109.851 181.158 109.834 181.142 109.817C181.135 109.809 181.129 109.801 181.122 109.793C181.102 109.77 181.082 109.748 181.06 109.726Z" fill="#FC5B68"/>
<path d="M184.059 110.204C183.008 110.983 181.611 111.274 180.336 110.979C180.984 111.315 181.677 111.49 182.393 111.35C183.109 111.209 183.587 110.76 184.059 110.204Z" fill="#FC5B68"/>
<path d="M183.107 111.606C182.672 111.959 182.06 112.08 181.524 111.921C181.749 112.14 182.039 112.258 182.35 112.216C182.662 112.173 182.949 111.877 183.107 111.606Z" fill="#FC5B68"/>
<path d="M186.943 108.293C187.104 108.189 187.819 106.943 188.515 107.553C189.211 108.163 189.522 109.28 189.033 109.992C188.586 110.643 187.94 111.366 187.023 111.256L186.943 108.293Z" fill="#FFA07F"/>
<path d="M188.607 108.425C188.662 108.572 188.658 108.733 188.629 108.889C188.506 109.55 187.966 110.107 187.448 110.628C187.583 110.298 187.605 109.942 187.529 109.606C187.502 109.49 187.464 109.375 187.449 109.256C187.387 108.779 188.282 107.553 188.607 108.425Z" fill="#FF7D6F"/>
<path d="M187.185 110.844C187.185 110.844 187.196 110.836 187.216 110.821C187.235 110.805 187.266 110.783 187.301 110.751C187.372 110.687 187.467 110.587 187.551 110.446C187.635 110.305 187.704 110.121 187.723 109.912C187.737 109.704 187.7 109.468 187.57 109.251C187.555 109.224 187.537 109.198 187.519 109.173L187.505 109.154C187.501 109.149 187.503 109.152 187.503 109.152H187.502C187.502 109.152 187.502 109.153 187.504 109.148L187.511 109.129L187.526 109.091C187.536 109.065 187.546 109.04 187.557 109.015C187.6 108.915 187.648 108.821 187.698 108.732C187.749 108.643 187.802 108.561 187.855 108.485C187.909 108.41 187.961 108.339 188.015 108.284C188.068 108.229 188.129 108.19 188.189 108.175C188.249 108.16 188.309 108.168 188.351 108.183C188.393 108.2 188.418 108.224 188.429 108.242C188.441 108.261 188.442 108.273 188.442 108.273C188.442 108.273 188.445 108.261 188.437 108.239C188.431 108.218 188.411 108.186 188.368 108.16C188.325 108.134 188.261 108.113 188.18 108.121C188.099 108.129 188.015 108.169 187.943 108.225C187.87 108.281 187.808 108.348 187.741 108.422C187.675 108.496 187.61 108.578 187.547 108.668C187.486 108.758 187.427 108.856 187.376 108.961C187.363 108.987 187.352 109.013 187.34 109.04L187.322 109.081L187.3 109.138L187.284 109.178C187.29 109.19 187.3 109.202 187.308 109.213L187.344 109.264C187.36 109.286 187.376 109.308 187.388 109.332C187.501 109.519 187.546 109.724 187.552 109.912C187.554 110.101 187.515 110.274 187.459 110.413C187.403 110.553 187.333 110.661 187.278 110.733C187.252 110.769 187.227 110.795 187.212 110.814C187.194 110.834 187.185 110.844 187.185 110.844Z" fill="#CF4A57"/>
<path d="M177.823 105.328C177.823 105.328 178.583 104.565 179.118 104.546C179.653 104.528 179.876 104.992 179.681 105.115C179.485 105.238 177.823 105.328 177.823 105.328Z" fill="#131A70"/>
<path d="M185.403 105.172C185.403 105.172 184.043 104.26 183.202 104.211C182.362 104.163 182.117 104.683 182.451 104.834C182.784 104.985 185.403 105.172 185.403 105.172Z" fill="#131A70"/>
<path d="M183.741 109.199C183.807 109.447 184.39 109.505 185.043 109.33C185.695 109.155 186.171 108.813 186.104 108.565C186.038 108.318 185.456 108.26 184.803 108.435C184.15 108.61 183.675 108.953 183.741 109.199Z" fill="#FF7D6F"/>
<path d="M177.102 108.76C177.043 108.944 177.445 109.238 178.001 109.417C178.557 109.595 179.055 109.59 179.114 109.405C179.173 109.22 178.771 108.927 178.215 108.749C177.659 108.57 177.16 108.576 177.102 108.76Z" fill="#FF7D6F"/>
<path d="M184.972 105.97C184.878 106.181 184.589 106.335 184.388 106.421C184.293 106.301 184.174 106.226 184.041 106.22C183.702 106.203 183.406 106.63 183.379 107.175C183.351 107.72 183.604 108.174 183.943 108.191C184.282 108.208 184.579 107.78 184.606 107.236C184.615 107.067 184.596 106.907 184.556 106.766C184.826 106.551 184.972 105.97 184.972 105.97Z" fill="#282828"/>
<path d="M178.242 106.228C178.307 106.402 178.531 106.541 178.688 106.621C178.77 106.529 178.87 106.475 178.977 106.477C179.25 106.482 179.466 106.841 179.459 107.28C179.452 107.718 179.225 108.071 178.952 108.066C178.678 108.062 178.462 107.703 178.47 107.264C178.472 107.128 178.495 107.001 178.534 106.89C178.328 106.702 178.242 106.228 178.242 106.228Z" fill="#282828"/>
<path d="M178.951 107.328C178.951 107.328 178.673 107.417 178.416 107.313C178.16 107.209 178.023 106.951 178.023 106.951C178.023 106.951 178.301 106.861 178.558 106.965C178.814 107.07 178.951 107.328 178.951 107.328Z" fill="white"/>
<path d="M184.002 107.275C184.002 107.275 184.34 107.408 184.666 107.3C184.993 107.192 185.184 106.883 185.184 106.883C185.184 106.883 184.846 106.75 184.52 106.858C184.194 106.966 184.002 107.275 184.002 107.275Z" fill="white"/>
<path d="M179.301 102.998C178.463 103.514 177.781 104.282 177.368 105.176C176.34 103.288 177.024 100.77 178.619 99.3297C180.215 97.8897 182.514 97.4212 184.649 97.6614C186.147 97.8302 187.652 98.3446 188.747 99.3805C189.955 100.524 190.555 102.217 190.58 103.88C190.604 105.542 189.987 107.394 189.245 108.882C189.245 108.882 189.027 108.019 188.491 107.743C187.955 107.467 187.52 107.938 187.52 107.938C187.302 107.455 186.984 104.466 186.984 104.466C186.984 104.466 183.121 104.143 182.336 102.493L182.931 103.81C182.931 103.81 179.78 104.36 179.301 102.998Z" fill="#131D42"/>
<path d="M175.156 107.154C175.196 107.055 175.239 106.959 175.279 106.863C176.224 104.649 177.404 102.411 179.391 101.051C180.01 101.702 180.77 102.218 181.603 102.552C181.532 101.877 181.462 101.202 181.391 100.528C182.988 101.994 185.038 102.952 187.187 103.235C187.944 103.335 188.756 103.367 189.388 103.799C190.264 104.396 190.52 105.54 190.878 106.538C191.644 108.662 193.198 110.488 195.152 111.616C195.129 111.458 195.09 111.302 195.038 111.149C194.699 110.179 193.839 109.485 193.343 108.584C192.874 107.736 192.763 106.768 192.651 105.796C192.606 105.368 192.56 104.936 192.485 104.516C192.228 103.073 191.573 101.717 190.658 100.579C189.121 98.6654 186.551 97.1129 184.051 96.9863C181.418 96.8538 178.226 98.6714 176.894 100.883C176.725 101.161 176.578 101.449 176.451 101.747C175.964 102.867 175.731 104.096 175.504 105.303C175.389 105.922 175.273 106.536 175.156 107.154Z" fill="#131A70"/>
<path d="M176.454 101.749C177.491 100.781 178.595 99.8889 179.756 99.0743C180.152 99.6038 180.548 100.13 180.944 100.66C180.972 100.17 180.999 99.6774 181.026 99.1846C182.248 100.151 183.72 100.803 185.257 101.053C184.934 100.534 184.612 100.021 184.286 99.5021C184.765 100.226 185.623 100.633 186.46 100.891C187.359 101.172 188.315 101.337 189.125 101.817C189.958 102.313 190.568 103.097 191.16 103.862C191.659 104.508 192.155 105.154 192.653 105.797C192.607 105.369 192.561 104.937 192.487 104.517C192.23 103.074 191.575 101.718 190.66 100.58C189.123 98.6664 186.553 97.1139 184.053 96.9873C181.42 96.8548 178.228 98.6723 176.896 100.884C176.728 101.163 176.581 101.451 176.454 101.749Z" fill="#172D8A"/>
<path d="M135.954 142.54H131.602C131.245 142.54 130.956 142.251 130.956 141.894V135.118H136.599V141.894C136.599 142.251 136.311 142.54 135.954 142.54Z" fill="#6FB1FE"/>
<path d="M137.177 141.673H134.973V135.985H137.177C137.99 135.985 138.651 136.646 138.651 137.459V140.199C138.651 141.012 137.99 141.673 137.177 141.673ZM135.815 140.831H137.177C137.525 140.831 137.809 140.547 137.809 140.199V137.459C137.809 137.111 137.525 136.827 137.177 136.827H135.815V140.831Z" fill="#6FB1FE"/>
<path d="M180.314 117.097C180.314 117.097 182.271 121.605 184.178 120.875C186.085 120.144 190.094 117.196 190.094 117.196L188.333 116.055L182.886 116.955C182.886 116.955 181.482 116.789 180.314 117.097Z" fill="#FFA07F"/>
<path d="M183.729 120.953C183.729 120.953 185.991 123.795 188.047 122.288C190.102 120.782 190.094 117.194 190.094 117.194L183.729 120.953Z" fill="white"/>
<path d="M180.314 117.097C180.314 117.097 179.328 122.015 180.881 122.152C182.433 122.289 183.729 120.954 183.729 120.954C183.729 120.954 181.537 120.77 180.314 117.097Z" fill="white"/>
<path d="M171.3 135.094C171.3 135.094 175.584 134.697 178.528 135.409C181.473 136.121 186.553 135.55 186.478 135.196C186.403 134.843 187.513 126.991 188.647 125.439C189.781 123.887 192.648 121.514 192.648 121.514C192.648 121.514 189.847 125.257 189.266 127.174C188.686 129.091 187.2 137.08 186.938 136.829C186.677 136.578 175.373 136.491 174.067 135.987C172.762 135.482 171.3 135.094 171.3 135.094Z" fill="#AE115D"/>
<path d="M177.609 143.251C177.609 143.251 187.484 142.294 189.134 141.492C190.783 140.69 190.783 140.69 190.783 140.69C191.056 141.438 186.212 143.3 182.572 143.252C179.078 143.205 177.609 143.251 177.609 143.251Z" fill="#AE115D"/>
<path d="M68.56 43.9382L48.5537 63.9502L52.3185 67.7139L72.3248 47.7019L68.56 43.9382Z" fill="#FDE4D9"/>
<path d="M68.5639 43.9417L64.3004 48.2041L68.064 51.9688L72.3276 47.7065L68.5639 43.9417Z" fill="#CCA190"/>
<path d="M67.1305 54.5615L61.304 48.7355C60.6111 48.0426 59.4881 48.0426 58.7951 48.7355L38.9857 68.5444C38.2927 69.2374 38.2927 70.3609 38.9857 71.0534L44.8133 76.8804C45.5062 77.5734 46.6292 77.5734 47.3222 76.8804L67.1311 57.071C67.8235 56.3775 67.8235 55.2545 67.1305 54.5615Z" fill="#131A70"/>
<path d="M67.1289 54.5615L64.2143 51.6475L41.8976 73.9664L44.8117 76.8804C45.5046 77.5734 46.6282 77.5734 47.3206 76.8804L67.1289 57.071C67.8219 56.3775 67.8219 55.2545 67.1289 54.5615Z" fill="#131D42"/>
<path d="M68.5648 47.7045C57.6658 36.8066 57.6669 19.0722 68.5664 8.17323C79.4627 -2.72414 97.1982 -2.72468 108.096 8.17323C118.996 19.0722 118.996 36.8055 108.096 47.7029C97.1976 58.6035 79.4633 58.6035 68.5648 47.7045ZM103.876 12.3942C95.3043 3.82402 81.3582 3.8224 72.7869 12.3942C64.2151 20.9655 64.2151 34.9138 72.7858 43.484C81.3571 52.0548 95.3043 52.0548 103.876 43.484C112.447 34.9117 112.446 20.965 103.876 12.3942Z" fill="#FDE4D9"/>
<path d="M103.921 26.7151C103.921 30.2231 101.077 33.0674 97.5685 33.0674C94.0604 33.0674 91.2167 30.2237 91.2167 26.7151C91.2167 23.207 94.0604 20.3633 97.5685 20.3633C101.077 20.3633 103.921 23.207 103.921 26.7151Z" fill="#FDE4D9"/>
<path d="M187.138 52.214H177.813V61.8277C172.654 61.8277 168.477 57.6467 168.477 52.4915C168.477 47.3357 172.654 43.1553 177.813 43.1553C182.875 43.1553 186.995 47.1848 187.138 52.214Z" fill="#E1BFB2"/>
<path d="M180.031 63.6359V54.5518H189.822C189.822 54.5518 190.151 65.0099 180.031 63.6359Z" fill="#E1BFB2"/>
</svg>
