<svg width="234" height="199" viewBox="0 0 234 199" fill="none" xmlns="http://www.w3.org/2000/svg">
<path d="M122.791 26.4376C122.973 28.8002 122.882 31.1325 122.791 32.8893L122.761 33.3134H123.185C123.276 33.3134 123.367 33.3134 123.427 33.3134C123.67 33.3134 123.942 33.3134 124.185 33.2831C124.669 33.2528 125.093 33.2225 125.487 33.1619H125.517C125.608 33.1619 125.699 33.1316 125.79 33.1316C125.972 33.1013 126.214 33.0711 126.426 33.0105C127.304 32.8287 128.122 32.6167 128.88 32.3744C129.334 32.2229 129.697 32.1018 130.031 31.9503L130.091 31.92C130.152 31.8898 130.212 31.8595 130.273 31.8292C130.455 31.7383 130.606 31.6777 130.788 31.5869C131.515 31.2234 132.151 30.8599 132.666 30.4964C132.696 30.4661 132.757 30.4359 132.817 30.3753C132.878 30.345 132.938 30.2844 132.938 30.2844H132.969C133.029 30.2238 133.12 30.1632 133.181 30.1027C133.362 29.9512 133.605 29.7089 133.847 29.4666C133.908 29.406 133.938 29.3757 133.998 29.3151L134.029 29.2848C134.089 29.194 134.15 29.1334 134.18 29.0728C134.241 28.9819 134.301 28.8608 134.392 28.7396L134.423 28.679C134.453 28.5882 134.483 28.5276 134.483 28.4367V28.4064V28.3459C134.483 28.043 134.483 27.7401 134.453 27.4675V27.3766C134.423 27.2857 134.423 27.1646 134.392 27.0434C134.362 26.8617 134.301 26.6496 134.241 26.4073C134.211 26.3467 134.18 26.2559 134.12 26.1044V26.0741L134.029 25.8924C133.968 25.7712 133.938 25.6804 133.877 25.5895C133.756 25.3775 133.635 25.1957 133.544 25.0443L133.514 25.014C133.484 24.9534 133.423 24.8928 133.362 24.8625C133.211 24.6808 133.09 24.5596 132.969 24.4688C132.938 24.4385 132.847 24.3779 132.757 24.287C132.696 24.2567 132.666 24.2264 132.666 24.1962L132.605 24.1659C132.333 23.9841 132.06 23.8024 131.787 23.6812C131.606 23.5904 131.454 23.4995 131.303 23.4389H131.272C131.212 23.4086 131.151 23.3783 131.06 23.348C130.303 23.0754 129.516 22.8937 128.698 22.7423H128.667H128.637C128.546 22.7423 128.455 22.712 128.365 22.712C128.122 22.6817 127.941 22.6817 127.759 22.6514C127.365 22.6211 127.032 22.6211 126.699 22.6211H126.608C125.881 22.6211 125.154 22.6817 124.427 22.7423H124.366C124.245 22.7725 124.094 22.7725 124.033 22.8028C123.882 22.8331 123.7 22.8634 123.518 22.8937C123.246 22.9543 122.973 23.0149 122.7 23.0754L122.307 23.1663L122.398 23.5601C122.579 24.4688 122.7 25.3775 122.791 26.4376ZM123.67 23.7418C123.851 23.7115 124.033 23.6812 124.154 23.6509C124.215 23.6509 124.366 23.6207 124.487 23.5904H124.548C125.214 23.4995 125.911 23.4692 126.608 23.4692H126.699C127.032 23.4692 127.365 23.4692 127.728 23.4995C127.88 23.4995 128.062 23.5298 128.304 23.5298C128.395 23.5298 128.486 23.5601 128.577 23.5601C129.334 23.6812 130.091 23.863 130.788 24.1053C130.848 24.1356 130.909 24.1356 130.97 24.1659C131.091 24.2265 131.242 24.287 131.394 24.3779C131.636 24.4991 131.878 24.6505 132.09 24.802C132.121 24.8322 132.151 24.8625 132.211 24.8928C132.272 24.9534 132.363 25.014 132.393 25.0443C132.484 25.1351 132.605 25.2563 132.757 25.4078C132.787 25.438 132.847 25.4986 132.878 25.5289C132.969 25.6501 133.059 25.8015 133.181 25.9833C133.211 26.0438 133.272 26.1347 133.302 26.1953C133.332 26.2559 133.332 26.2862 133.362 26.3467C133.393 26.4376 133.453 26.5588 133.453 26.5891C133.514 26.7708 133.574 26.9828 133.605 27.1343C133.635 27.2251 133.635 27.316 133.665 27.4069V27.4675C133.696 27.7098 133.696 27.9521 133.696 28.2247C133.696 28.255 133.665 28.2853 133.665 28.3156C133.635 28.4064 133.574 28.4973 133.514 28.5579C133.484 28.5882 133.453 28.6488 133.423 28.7093C133.393 28.7396 133.332 28.8002 133.302 28.8305C133.12 29.0425 132.878 29.2545 132.726 29.406C132.666 29.4666 132.605 29.4969 132.575 29.5574C132.545 29.5877 132.484 29.618 132.423 29.6786C132.363 29.7089 132.302 29.7695 132.302 29.7695C131.818 30.133 131.212 30.4661 130.515 30.7993C130.333 30.8902 130.182 30.9508 130.031 31.0416C129.97 31.0719 129.909 31.1022 129.849 31.1325L129.788 31.1628C129.455 31.284 129.122 31.4354 128.698 31.5566C127.971 31.7989 127.214 32.0109 126.365 32.1624C126.153 32.1927 125.941 32.2532 125.76 32.2835C125.669 32.2835 125.578 32.3138 125.487 32.3138H125.457C125.093 32.3441 124.7 32.4047 124.215 32.4047C124.033 32.4047 123.851 32.4047 123.7 32.435C123.791 30.7085 123.851 28.4973 123.67 26.2862C123.579 25.3472 123.488 24.5293 123.336 23.7721C123.397 23.8024 123.518 23.7721 123.67 23.7418Z" fill="black"/>
<path d="M118.977 24.6504C119.037 24.9533 119.098 25.2562 119.128 25.5288L119.158 25.65C119.189 25.862 119.219 26.0438 119.219 26.2558C119.34 27.4068 119.37 28.6487 119.31 30.3146C119.28 31.7988 119.158 33.3133 119.068 34.7672C118.977 35.8879 118.916 37.0692 118.856 38.2202C118.765 40.4011 118.704 42.6425 118.643 44.7931C118.613 45.823 118.583 46.8831 118.553 47.913C118.522 49.2457 118.462 50.639 118.401 52.3353C118.371 52.8805 118.583 53.4257 119.007 53.8498C119.431 54.2738 120.007 54.5464 120.582 54.5464C121.763 54.5464 122.733 53.5771 122.763 52.3656C122.823 50.3059 122.884 48.2159 122.945 46.1864C122.975 44.3994 123.035 42.5517 123.096 40.7343C123.126 39.4318 123.217 38.1294 123.308 36.8875C123.369 36.8875 123.429 36.8875 123.49 36.8875C125.489 36.8875 127.579 36.5543 129.669 35.8879C129.79 35.8576 129.942 35.7971 130.093 35.7365C130.244 35.7668 130.426 35.8273 130.578 35.8576C130.608 35.8576 130.759 35.9182 130.82 35.9485C130.881 35.9788 130.911 35.9788 130.971 36.0091C131.183 36.1 131.365 36.2211 131.547 36.3423C131.577 36.3726 131.607 36.4029 131.668 36.4331C131.729 36.4937 131.82 36.5543 131.85 36.5846C131.971 36.7058 132.122 36.8572 132.213 36.9481C132.213 36.9481 132.213 36.9481 132.244 36.9784L132.274 37.0086C132.274 37.0389 132.304 37.0389 132.304 37.0692C132.395 37.2207 132.516 37.3721 132.637 37.5842C132.728 37.7356 132.819 37.9173 132.88 38.0385C132.91 38.0991 132.94 38.1597 132.94 38.2202C133.061 38.5837 133.183 38.9472 133.304 39.4318C133.364 39.7044 133.425 40.0376 133.485 40.4011C133.485 40.4314 133.485 40.492 133.516 40.6131C133.516 40.7343 133.546 40.8554 133.546 40.916C133.576 41.1886 133.607 41.4612 133.607 41.6733C133.758 43.7633 133.576 45.8836 133.425 47.9433C133.334 49.3063 133.213 50.6996 133.183 52.0929C133.183 52.1838 133.183 52.2444 133.183 52.3353C133.183 52.9108 133.395 53.456 133.819 53.88C134.243 54.3041 134.788 54.5161 135.363 54.5161C136.575 54.5161 137.544 53.5469 137.544 52.3353C137.544 50.8511 137.665 49.3366 137.787 47.8827C137.938 45.9744 138.09 43.9753 137.999 42.0065C137.817 38.0385 136.757 35.161 134.848 33.3739C135.333 33.0104 135.757 32.6469 136.151 32.2532C136.969 31.4353 137.575 30.4964 137.877 29.5271C138.211 28.4367 138.029 27.1948 137.817 26.1346C137.423 24.2567 136.302 22.5604 134.546 21.258C132.668 19.8344 130.002 19.1377 126.64 19.1377H126.61C124.005 19.1377 121.733 19.5618 119.885 20.4099C119.794 20.4402 119.704 20.5007 119.613 20.531C119.613 20.531 119.582 20.531 119.582 20.5613C119.158 20.7733 118.825 21.1368 118.643 21.6215C118.431 22.1061 118.401 22.621 118.553 23.0754C118.704 23.5297 118.856 24.0749 118.977 24.6504ZM119.34 21.8941C119.431 21.682 119.582 21.3791 119.885 21.2277L119.946 21.1974C120.007 21.1671 120.067 21.1368 120.128 21.1065H120.158C121.915 20.319 124.065 19.9252 126.579 19.9252H126.61C130.578 19.9252 132.819 20.9854 134.031 21.8941C135.636 23.0754 136.636 24.6201 136.999 26.2861C137.211 27.2554 137.363 28.3761 137.09 29.2848C136.848 30.1329 136.302 30.9507 135.575 31.6777C135.091 32.132 134.546 32.5863 133.94 33.0104L133.485 33.3133L133.91 33.6465C136.363 35.6153 137.029 39.2804 137.181 42.0368C137.272 43.9753 137.12 45.9138 136.969 47.8221C136.848 49.3063 136.726 50.8208 136.726 52.3353C136.726 53.0925 136.09 53.6983 135.363 53.6983C135 53.6983 134.667 53.5469 134.394 53.2742C134.122 53.0016 134 52.6685 134 52.305C134 52.2444 134 52.1535 134 52.0929C134.031 50.7299 134.122 49.3366 134.243 48.0038C134.394 45.9138 134.576 43.7633 134.424 41.6127C134.424 41.4007 134.394 41.1281 134.364 40.8252C134.364 40.7646 134.334 40.6434 134.334 40.5223C134.334 40.4314 134.303 40.3708 134.303 40.3405V40.3102C134.243 39.9165 134.182 39.5833 134.091 39.2804C133.97 38.7655 133.849 38.3717 133.697 37.9779C133.667 37.9173 133.637 37.8265 133.607 37.7659V37.7356C133.546 37.5842 133.455 37.4024 133.334 37.1904C133.213 36.9481 133.092 36.7663 132.971 36.5846C132.94 36.5543 132.94 36.524 132.91 36.524L132.849 36.4634C132.819 36.4331 132.819 36.4331 132.819 36.4029C132.728 36.2817 132.577 36.1302 132.425 35.9788C132.365 35.9485 132.304 35.8576 132.183 35.7668C132.122 35.7365 132.092 35.7062 132.092 35.6759L132.032 35.6456C131.789 35.4942 131.547 35.3427 131.305 35.2216L131.274 35.1913C131.244 35.1913 131.183 35.161 131.123 35.1307C130.971 35.0701 130.881 35.0398 130.82 35.0095C130.608 34.9489 130.396 34.8884 130.184 34.8581L130.063 34.8278L129.942 34.8581C129.76 34.9187 129.608 34.9792 129.427 35.0398C127.397 35.6759 125.428 36.0091 123.49 36.0091C123.308 36.0091 123.126 36.0091 122.945 36.0091H122.551L122.521 36.4029C122.43 37.7659 122.339 39.2198 122.278 40.6737C122.218 42.4911 122.187 44.3388 122.127 46.1259C122.066 48.1553 122.036 50.2453 121.945 52.2747C121.915 53.0622 121.309 53.668 120.582 53.668C120.219 53.668 119.855 53.5166 119.582 53.2137C119.34 52.9411 119.189 52.6382 119.219 52.305C119.28 50.6087 119.31 49.2154 119.37 47.8827C119.401 46.8528 119.431 45.7927 119.461 44.7628C119.522 42.6123 119.552 40.4011 119.673 38.2202C119.734 37.0692 119.794 35.9182 119.885 34.7975C119.976 33.3436 120.097 31.8291 120.128 30.3146C120.158 28.6184 120.128 27.3462 120.037 26.1649C120.007 25.9529 120.007 25.7409 119.976 25.5288L119.946 25.3774C119.916 25.1048 119.855 24.7716 119.764 24.4687C119.643 23.8326 119.461 23.2874 119.28 22.7422C119.158 22.409 119.249 22.1061 119.34 21.8941Z" fill="black"/>
<path d="M78.7219 86.2294C79.0551 86.078 78.7522 85.5933 78.4493 85.7448C71.1495 89.1069 74.3602 102.707 82.599 101.889C82.9625 101.859 82.9625 101.283 82.599 101.314C78.6916 101.707 76.0867 98.8602 75.2386 95.286C74.4814 91.9845 75.3901 87.7742 78.7219 86.2294Z" fill="black"/>
<path d="M187.068 134.754C187.037 139.327 185.281 142.871 181.313 145.295C177.163 147.839 171.923 147.899 167.985 144.992C169.954 144.083 171.832 142.932 173.831 142.053C176.133 141.024 178.677 140.236 180.374 138.267C181.343 137.116 181.858 135.39 181.222 133.966C180.343 131.997 178.314 131.058 176.315 130.665C173.952 130.21 171.438 130.543 169.076 130.695C167.319 130.816 165.804 131.301 164.32 131.997C164.441 129.695 165.138 127.636 166.592 125.818C168.318 123.698 170.62 122.062 173.316 121.487C178.768 120.305 184.13 124.364 186.098 129.241C186.22 129.574 186.795 129.423 186.644 129.089C184.614 124.152 179.465 120.063 173.892 120.82C170.742 121.244 168.197 123.062 166.168 125.424C164.502 127.363 163.775 129.756 163.714 132.3C163.108 132.603 162.533 132.936 161.897 133.3C159.353 134.754 156.717 136.117 154.264 137.722C152.022 139.176 150.054 140.872 147.328 141.296C147.297 141.296 147.267 141.296 147.237 141.327C144.753 141.296 141.482 141.417 139.664 139.782C139.513 139.63 139.301 139.63 139.18 139.721C138.18 138.51 137.302 137.177 136.544 135.753C135.545 133.906 135.303 131.967 135.151 129.877C135.03 128.029 134.364 126.303 134.273 124.425C134.364 124.304 134.394 124.152 134.303 123.971C133.667 122.729 134.121 121.002 134.182 119.669C134.333 117.367 134.485 115.126 134.788 112.824C135.363 108.674 135.333 104.524 135.757 100.375C136.09 97.1944 136.635 94.014 136.908 90.8335C139.331 90.3792 141.33 88.9859 142.39 86.6838C143.208 84.8664 143.026 82.7764 142.754 80.8682C142.481 78.9599 141.785 77.1426 140.512 75.6887C138.968 73.9318 136.605 73.3866 134.364 73.326C134 73.326 134 73.8713 134.364 73.9015C136.544 73.9318 138.574 74.4771 140.119 76.0824C141.33 77.3546 141.875 79.1114 142.178 80.7773C142.481 82.4433 142.602 84.2304 142.118 85.866C141.391 88.2589 139.331 89.7431 136.968 90.258C136.999 89.8945 137.029 89.5311 137.029 89.1676C137.12 87.0776 137.029 84.7453 135.969 82.8673C134.878 80.9288 132.607 80.7167 130.668 81.3831C128.184 82.2615 127.76 85.2299 127.336 87.4411C127.155 88.3801 126.973 89.3493 126.821 90.2883C124.853 89.8037 123.217 88.7738 122.278 86.8959C121.551 85.3814 121.521 83.5943 121.551 81.9586C121.672 76.7185 125.973 74.5679 130.608 73.9015C130.971 73.841 130.82 73.2958 130.456 73.3563C128.154 73.6895 125.67 74.2953 123.823 75.8098C121.914 77.3849 121.066 79.5354 121.006 81.9586C120.945 83.7457 121.066 85.5328 121.793 87.1988C122.702 89.2585 124.641 90.3792 126.731 90.8638C126.216 94.0442 125.792 97.2549 125.125 100.405C124.247 104.585 123.156 108.735 122.429 112.975C121.975 115.611 121.854 118.337 121.127 120.942C120.642 122.668 119.612 122.789 118.007 122.456C117.916 122.426 117.856 122.456 117.795 122.456C116.432 120.76 115.947 117.943 115.644 116.095C115.22 113.581 115.16 111.067 114.857 108.523C114.493 105.676 113.736 102.919 113.403 100.072C113.403 100.011 113.403 99.9507 113.373 99.8902C111.646 94.7409 109.344 89.7128 107.739 84.503C111.313 82.0798 112.949 77.7181 111.858 73.5381C110.616 68.6917 105.921 66.3291 101.227 66.2988C100.863 66.2988 100.863 66.8743 101.227 66.8743C105.77 66.9046 110.011 69.1158 111.313 73.6895C112.403 77.5363 110.768 81.6557 107.557 83.9275C107.315 83.1399 107.103 82.3524 106.921 81.5346C106.376 79.3234 105.861 76.7185 103.983 75.204C102.347 73.8713 100.893 74.0227 99.1062 74.8405C99.076 74.8708 99.0457 74.8708 99.0154 74.9011C97.1071 76.0218 96.8345 78.8085 96.8648 80.8076C96.9254 82.4736 97.2889 84.1092 97.7129 85.7146C87.1721 83.9275 89.5347 67.5407 99.6515 66.8743C100.015 66.844 100.015 66.2988 99.6515 66.2988C94.4416 66.6623 90.8674 70.8726 90.2314 75.9007C89.5953 81.0499 92.7151 85.5025 97.8644 86.3203C98.2581 87.8045 98.7125 89.2887 98.9851 90.7729C99.5909 94.3471 100.742 97.8002 101.499 101.344C102.408 105.676 103.286 110.037 103.741 114.429C103.619 115.671 103.862 116.852 104.104 118.034C104.225 118.67 105.376 122.395 104.256 122.517C104.225 122.517 104.165 122.547 104.134 122.547C104.013 122.335 103.892 122.183 103.831 122.093C103.347 121.396 102.953 120.639 102.438 119.942C101.681 117.791 100.5 115.823 99.5303 113.763C98.561 111.733 97.6826 109.674 96.2893 107.917C95.4109 105.161 93.6541 102.798 92.7151 100.042C92.5637 99.557 92.3819 99.0723 92.2305 98.5877C94.5022 95.801 94.169 91.1364 92.5031 88.1075C90.3828 84.2607 85.3244 83.4125 81.5079 84.8967C81.1747 85.0179 81.3262 85.5631 81.6594 85.4419C85.2638 84.0486 89.5347 84.7756 91.8367 88.1075C93.6238 90.6821 93.8964 95.3164 92.0184 97.9213C91.4127 96.0131 90.7463 94.1048 89.6558 92.4086C89.6256 92.3783 89.6256 92.3177 89.565 92.2874C89.5347 92.2269 89.5044 92.1966 89.4741 92.136C89.4135 92.0451 89.3227 91.9845 89.2318 91.9542C88.6563 91.3787 88.1716 90.7124 87.475 90.2277C86.6572 89.6522 85.2335 89.6825 84.2946 89.8643C82.568 90.1974 80.9627 91.6513 81.0838 93.499C81.0838 93.5293 81.0838 93.5899 81.1141 93.6505C81.6896 95.6799 81.8411 97.8305 82.3863 99.8599C82.9618 101.98 83.7493 104.04 84.4763 106.1C85.8999 110.158 87.263 114.278 88.6866 118.367C88.6866 118.427 88.7169 118.488 88.7472 118.549C90.4131 120.972 91.6853 123.728 92.8666 126.424C93.7147 128.332 94.5628 130.21 94.2599 132.33C94.0176 134.087 93.018 135.632 91.4429 136.48C91.4127 136.48 91.4127 136.51 91.3824 136.51C90.2919 136.389 89.05 136.056 88.5048 135.996C85.2941 135.602 82.2349 134.966 79.1453 134.118C76.2072 133.3 73.36 132.3 70.543 131.149C70.3916 131.089 70.2401 131.028 70.0887 130.967C70.9368 127.333 67.7866 123.607 64.6062 122.426C60.6383 120.942 56.5189 122.638 54.2168 126.03C54.0048 126.333 54.4894 126.606 54.7015 126.303C56.8218 123.213 60.2748 121.79 63.9096 122.759C65.3332 123.153 66.6659 123.94 67.6352 125.031C68.8771 126.424 69.9372 128.817 69.5435 130.695C67.302 129.786 65 128.968 62.5768 128.726C62.5465 128.726 62.5162 128.726 62.4556 128.726C62.3951 128.726 62.3345 128.726 62.2739 128.756C60.0325 128.968 59.6387 131.694 60.0628 133.542C60.3354 134.693 61.3955 135.45 62.3042 136.086C63.6067 136.995 65 137.783 66.3933 138.57C64.061 140.569 60.608 140.236 57.9122 139.055C54.4894 137.571 52.975 133.633 53.7625 130.15C53.8534 129.786 53.3081 129.635 53.2173 129.998C52.3692 133.784 54.0048 137.874 57.6093 139.539C60.5474 140.902 64.3942 141.145 66.9082 138.843C67.2717 139.055 67.6352 139.237 67.9987 139.449C69.7555 140.448 71.6637 141.084 73.3902 142.114C75.1773 143.205 76.9947 144.204 78.8727 145.143C80.5689 145.961 82.2954 146.748 84.0522 147.445C86.0817 148.233 88.1111 148.929 89.7164 150.413C89.777 150.444 89.8073 150.474 89.8679 150.504C90.0799 151.019 90.3222 151.504 90.4434 151.989C90.8674 153.533 91.2006 155.078 91.655 156.623C92.1396 158.259 92.7757 159.803 93.1392 161.469C93.4724 162.984 93.8055 164.407 94.8354 165.589C94.7748 165.649 94.7445 165.74 94.7142 165.801C94.0479 167.043 94.1084 168.648 93.2906 169.829C91.7156 172.131 89.777 174.13 87.7476 176.039C85.8696 177.826 84.234 179.885 82.3863 181.733C81.2353 182.914 79.9934 184.005 78.8121 185.186C76.1466 187.821 73.5417 190.517 70.9065 193.183C69.8161 194.273 68.6953 195.363 67.5443 196.424C66.9688 196.969 66.2116 197.847 65.4543 198.09C64.9091 198.271 65.1514 199.089 65.6967 198.938C66.3327 198.726 66.9082 198.18 67.3929 197.726C68.5136 196.757 69.604 195.697 70.6642 194.637C73.4205 191.91 76.086 189.154 78.8121 186.398C79.8723 185.338 80.9627 184.247 82.0531 183.248C84.0522 181.4 85.7485 179.28 87.6264 177.341C89.5044 175.403 91.5035 173.615 93.1392 171.435C93.8055 170.556 94.4719 169.738 94.7748 168.648C95.0171 167.83 95.0777 166.8 95.5321 166.043C96.5316 164.983 97.2586 163.711 98.1067 162.529C99.288 160.833 100.924 160.167 102.983 160.197C103.559 160.197 103.529 159.349 102.983 159.319C101.105 159.288 99.4394 159.773 98.1067 161.136C97.0163 162.257 96.3499 163.68 95.3806 164.892C94.4113 163.741 94.169 162.257 93.8358 160.803C93.5026 159.288 92.8968 157.834 92.4425 156.35C92.0184 154.957 91.6853 153.503 91.3218 152.11C91.1703 151.534 90.9886 150.959 90.8069 150.383C90.5948 149.747 90.1102 149.172 90.1102 148.505C90.1102 147.96 89.2318 147.93 89.2318 148.505C89.2318 148.657 89.2621 148.838 89.2924 148.99C87.2024 147.506 84.6883 146.839 82.356 145.809C79.115 144.356 76.086 142.599 72.9965 140.902C71.5123 140.085 69.8766 139.57 68.4227 138.691C66.9082 137.783 65.3332 136.995 63.849 136.056C62.5465 135.238 61.0017 134.39 60.7594 132.694C60.608 131.482 60.9412 129.635 62.4254 129.574C62.6071 129.574 62.7585 129.604 62.91 129.635C62.8797 129.635 62.8494 129.665 62.8494 129.665C62.7283 129.604 62.6071 129.604 62.4556 129.695C61.4258 130.422 61.5772 131.725 61.3955 132.845C61.3955 132.906 61.3955 132.967 61.3955 133.027C61.2743 133.209 61.2744 133.481 61.5167 133.633C62.91 134.33 64.2427 134.996 65.8178 135.117C65.9087 135.117 65.9693 135.117 66.0298 135.087C66.1207 135.117 66.2116 135.117 66.3327 135.057C67.5746 134.511 68.6953 133.148 67.9684 131.785C67.6049 131.149 66.7568 130.937 66.1207 130.725C65.2726 130.453 64.5153 130.028 63.6672 129.756C66.3933 130.24 68.9982 131.422 71.5426 132.452C74.6927 133.724 77.964 134.663 81.2353 135.541C83.9917 136.268 86.8086 136.541 89.6256 136.995C90.8674 137.207 93.1997 137.783 94.0176 136.51C94.2599 136.147 93.8358 135.784 93.5026 135.905C95.2594 133.906 95.4715 130.937 94.5628 128.363C93.3209 124.879 91.5944 121.184 89.4741 118.125C88.0505 114.035 86.6572 109.946 85.2638 105.857C84.5672 103.767 83.7796 101.738 83.1738 99.6176C82.5983 97.5881 82.4772 95.4981 81.9017 93.4687C81.9017 93.2264 81.9017 92.9841 81.9623 92.7721C82.0531 94.2866 82.4166 95.7405 82.9618 97.1338C83.0224 97.2852 83.1133 97.3761 83.2647 97.4064C84.7186 99.1026 87.9293 98.5877 88.5654 96.3766C88.8683 95.2861 88.7472 93.7716 88.5351 92.5297C88.626 92.6206 88.7472 92.7418 88.838 92.8326C90.2919 95.1044 90.9583 97.7093 91.8064 100.284C92.7151 103.071 94.5325 105.463 95.4109 108.25C95.4412 108.311 95.4715 108.371 95.5018 108.432C95.5018 108.432 95.5018 108.432 95.5018 108.462C96.8951 110.189 97.7735 112.248 98.7125 114.248C99.6212 116.247 100.802 118.125 101.529 120.215C101.529 120.275 101.56 120.336 101.62 120.427C102.287 121.305 102.802 122.274 103.438 123.183C103.892 123.789 104.619 124.909 105.528 124.667C106.073 124.516 105.831 123.698 105.285 123.819C105.104 123.849 104.861 123.637 104.619 123.334C105.588 123.001 105.588 121.971 105.467 120.911C105.194 118.821 104.407 116.731 104.558 114.611C104.558 114.581 104.558 114.52 104.558 114.49C104.558 114.429 104.558 114.369 104.528 114.308C104.074 110.037 103.226 105.797 102.378 101.586C101.62 97.891 100.409 94.3168 99.7726 90.5912C99.3183 88.0166 98.4702 85.5631 97.9552 83.0188C97.7432 81.9283 97.5615 80.2927 97.7432 78.8085C97.9552 80.2927 98.4096 81.7466 99.0154 83.0793C99.1063 83.2611 99.2577 83.3217 99.4091 83.2914C100.318 84.0183 101.832 83.8972 102.862 83.6851C104.134 83.4125 105.043 82.7159 105.437 81.4437C105.497 81.262 105.437 81.1105 105.316 81.0196C105.164 80.0201 105.013 78.7782 104.71 77.6272C105.831 79.5657 106.012 82.0798 106.679 84.2001C108.435 89.5916 110.647 94.8015 112.464 100.163C112.828 103.161 113.615 106.069 113.979 109.068C114.312 111.643 114.372 114.217 114.827 116.762C115.311 119.609 116.341 124.092 119.734 124.667C120.279 124.758 120.521 123.91 119.976 123.819C119.612 123.758 119.279 123.637 118.976 123.486C119.824 123.546 120.642 123.395 121.218 122.668C122.46 121.093 122.46 118.427 122.732 116.55C123.308 112.37 124.156 108.28 125.125 104.191C126.094 99.9507 126.761 95.6799 127.457 91.3787C127.76 89.4705 128.094 87.5319 128.548 85.654C128.73 84.927 128.942 84.2304 129.305 83.6549C129.123 84.8362 129.184 86.078 129.305 87.229C129.517 88.9556 130.274 90.0157 132.001 90.4398C135.03 91.1667 135.575 87.9257 135.817 85.3511C135.908 85.7146 135.969 86.078 135.999 86.4415C136.332 89.3796 135.817 92.3783 135.454 95.2861C134.909 99.5873 134.606 103.858 134.333 108.19C134.151 111.4 133.546 114.55 133.334 117.731C133.243 119.033 133.152 120.366 133.091 121.668C133.031 122.456 133.031 123.304 133.303 124.061C133.303 126.363 134.152 128.575 134.273 130.846C134.394 132.724 134.878 134.511 135.727 136.208C137.423 139.6 140.028 142.478 143.117 144.658C143.572 144.992 143.996 144.234 143.541 143.901C142.451 143.144 141.482 142.296 140.573 141.387C142.845 142.326 145.783 142.114 148.024 142.235C148.236 142.235 148.388 142.114 148.418 141.932C149.872 141.539 151.174 140.812 152.447 139.964C154.385 138.661 156.324 137.359 158.383 136.208C160.473 135.026 162.533 133.815 164.623 132.724C167.016 131.482 169.681 131.604 172.286 131.422C174.407 131.27 176.648 131.422 178.496 132.482C178.92 132.724 179.253 132.997 179.556 133.33C178.163 133.239 176.648 133.754 175.376 134.087C173.71 134.542 172.044 134.814 170.772 136.056C170.651 136.117 170.56 136.238 170.59 136.42C170.651 137.086 170.863 137.631 171.135 138.237C171.711 139.509 171.983 140.6 171.771 141.993C171.771 142.023 171.771 142.023 171.771 142.053C170.045 142.932 168.409 143.931 166.592 144.658C166.471 144.719 166.38 144.81 166.35 144.901C164.986 145.476 163.623 146.112 162.351 146.809C162.624 144.961 162.836 143.114 162.563 141.236C162.472 140.69 161.655 140.933 161.715 141.478C161.988 143.295 161.745 145.082 161.473 146.9C161.443 147.051 161.503 147.172 161.564 147.263C160.261 148.051 159.05 148.929 157.929 149.989C156.445 151.413 155.415 153.23 153.931 154.684C152.659 155.926 150.871 156.774 149.811 158.228C147.116 161.893 145.238 166.073 142.299 169.587C141.088 171.041 139.422 172.434 137.726 173.313C136.817 173.797 135.969 174.282 135.212 174.888C135.757 173.191 136.151 171.465 136.666 169.769C136.817 169.223 135.999 169.011 135.817 169.526C135.393 170.95 135.03 172.374 134.636 173.767C134.424 174.554 134.151 175.342 133.879 176.099C133.637 176.735 133.546 177.462 133.243 178.098C129.699 185.731 123.247 191.335 118.764 198.362C118.461 198.847 119.219 199.271 119.522 198.786C124.004 191.789 130.456 186.155 134 178.522C134.303 177.917 134.545 177.25 134.727 176.554C135.757 175.372 136.999 174.676 138.392 173.949C139.816 173.191 141.179 171.98 142.299 170.859C145.207 167.982 147.116 164.044 149.266 160.591C149.811 159.743 150.326 158.864 151.023 158.168C151.689 157.501 152.507 157.017 153.234 156.441C154.9 155.108 156.081 153.503 157.414 151.807C159.867 148.687 163.623 146.93 167.198 145.446C167.258 145.416 167.319 145.385 167.349 145.355C171.438 148.505 176.678 148.445 181.131 146.021C185.493 143.659 187.461 139.6 187.492 134.784C187.643 134.39 187.098 134.39 187.068 134.754ZM67.4232 132.936C67.2717 133.542 66.6053 133.996 66.0601 134.239C66.0298 134.239 65.9693 134.208 65.939 134.208C64.6365 134.118 63.4855 133.572 62.3648 132.997C62.4556 132.24 62.3345 130.937 63.0009 130.453L63.0312 130.422H63.0614C64.1822 130.665 65.1514 131.27 66.2419 131.604C66.8477 131.816 67.6049 132.088 67.4232 132.936ZM87.687 96.5886C87.1418 97.7699 84.6883 97.679 83.9917 96.74C83.9614 96.6795 83.9008 96.6492 83.8402 96.6189C83.3253 95.2255 82.9618 93.8322 82.9315 92.348C82.9315 92.0451 82.6892 91.924 82.4469 91.924C83.083 91.0758 84.2643 90.6518 85.3547 90.5912C85.4759 90.5912 85.597 90.5912 85.6879 90.5912C85.7182 90.5912 85.7485 90.6215 85.809 90.6215C85.9908 90.6518 86.1725 90.6518 86.3543 90.6821C86.8389 90.8032 87.2024 91.0456 87.5659 91.3484C87.5961 91.3787 87.5961 91.409 87.6264 91.4393C87.9293 92.1663 87.8688 93.287 87.9293 94.0745C87.9293 94.8924 88.0202 95.801 87.687 96.5886ZM102.771 82.7159C101.984 82.9279 100.5 83.0188 99.8938 82.2918C99.8635 82.2312 99.8029 82.2009 99.7726 82.2009C99.076 80.5653 98.6216 78.7176 98.6216 76.9608C98.6216 76.8397 98.5913 76.7488 98.5005 76.6882C98.7731 76.2036 99.1365 75.8098 99.6212 75.5675C100.681 75.0828 101.317 74.8102 102.408 75.2949C102.438 75.2949 102.468 75.3252 102.499 75.3252C103.498 75.8704 103.771 77.1123 104.013 78.1724C104.256 79.2325 104.468 80.2927 104.649 81.3528C104.286 82.1707 103.65 82.5038 102.771 82.7159ZM135.212 83.564C135.09 84.715 135.03 85.866 134.818 87.017C134.515 88.6527 133.939 89.8945 132.031 89.4402C129.517 88.8344 129.941 84.4121 130.577 82.413C130.789 82.2918 131.032 82.1707 131.274 82.0798C133.213 81.3831 134.485 82.1404 135.272 83.4428C135.242 83.4731 135.212 83.5034 135.212 83.564ZM172.771 139.479C172.589 138.419 171.832 137.571 171.65 136.51C172.71 135.541 174.104 135.269 175.436 134.935C176.921 134.572 178.768 133.815 180.313 134.208H180.343C180.828 135.39 180.555 136.722 179.556 137.904C178.041 139.661 175.467 140.418 173.407 141.296C173.225 141.387 173.044 141.478 172.832 141.539C172.892 140.872 172.892 140.176 172.771 139.479Z" fill="black"/>
<path d="M30.2864 88.5019C30.4379 87.9567 30.347 87.3206 30.0138 86.7754C29.7109 86.321 29.2869 86.0181 28.8022 85.9272C27.2272 85.6243 25.5007 85.5032 23.1986 85.5032C22.3202 85.5032 21.4115 85.5335 20.5331 85.5335C19.897 85.5335 19.261 85.5638 18.6249 85.5638C18.1402 85.5638 17.6556 85.5638 17.171 85.5638C15.5656 85.5638 14.2632 85.5335 13.0516 85.4426C12.6578 85.4123 12.2035 85.382 11.7794 85.3517C11.5674 85.3215 11.3553 85.3214 11.1736 85.2912L11.0222 85.2609C10.9616 85.2609 10.8707 85.2306 10.8101 85.2306C9.9923 85.1094 9.20477 84.9277 8.47781 84.7157C8.17491 84.6248 7.84173 84.5036 7.47825 84.3825L7.35709 84.3219C7.20564 84.2613 7.05419 84.1704 6.87245 84.0796C6.69072 83.9887 6.47869 83.8373 6.26666 83.6858C6.20608 83.6252 6.11521 83.5646 6.05463 83.5344C5.93347 83.4435 5.8426 83.3223 5.69115 83.1709C5.66086 83.1406 5.66086 83.1406 5.63057 83.1103C5.56999 83.0194 5.50941 82.9588 5.47912 82.868C5.41854 82.7468 5.32768 82.6257 5.29739 82.5045C5.2671 82.4742 5.26709 82.4136 5.2368 82.3833C5.02478 81.8381 4.84304 81.202 4.72188 80.4145C4.69159 80.2631 4.6613 80.0813 4.63101 79.9299C4.63101 79.839 4.60072 79.7481 4.60072 79.6573C4.57043 79.2635 4.54014 78.8697 4.50985 78.3548C4.44927 77.5673 4.44927 76.7192 4.44927 75.6893C4.47956 74.4171 4.54014 73.0238 4.6613 71.267C5.72144 71.2973 6.87245 71.2973 8.29607 71.2973C9.02303 71.2973 9.74998 71.2973 10.4769 71.2973C11.2039 71.2973 11.9308 71.2973 12.6578 71.2973C15.9291 71.2973 19.4124 71.3276 22.8352 71.6002C22.8957 71.6002 22.926 71.6002 22.9563 71.6002C23.8953 71.6002 24.9251 70.6915 24.9251 69.5102C24.9251 68.3895 24.0467 67.5111 22.8654 67.4202C19.4124 67.1476 15.9291 67.1173 12.6578 67.1173C11.9308 67.1173 11.2039 67.1173 10.4769 67.1173C9.74998 67.1173 9.02303 67.1173 8.29607 67.1173C7.0239 67.1173 5.96376 67.1173 5.02478 67.087C5.14594 65.9057 5.23681 64.6941 5.2671 63.4522C5.29739 62.2407 5.29739 60.9988 5.29739 59.7872C5.29739 59.242 5.29739 58.6968 5.29739 58.1818V53.4566C5.41855 53.4263 5.56999 53.3961 5.69115 53.3658C5.8426 53.3355 5.99405 53.3052 6.1455 53.3052L6.32724 53.2749C7.96288 53.0629 9.62882 53.0326 11.0222 53.0023C11.5977 53.0023 12.2034 52.972 12.8092 52.972C15.3839 52.972 18.1402 53.0629 21.2904 53.2749C22.6231 53.3658 24.077 53.4566 25.4704 53.6384C26.6517 53.7898 27.5906 52.5782 27.5906 51.5484C27.5906 50.4277 26.8031 49.6098 25.5612 49.4584C22.8049 49.1252 20.0182 49.004 17.4133 48.8829C15.4445 48.792 13.9603 48.7617 12.5366 48.7617C10.5375 48.7617 8.75042 48.8223 7.08448 48.9737C5.69115 49.0949 4.41898 49.2464 3.20739 49.6098C2.63189 49.6098 2.05638 49.8521 1.66262 50.3065C0.905374 50.882 0.663055 52.033 1.1174 52.9114V60.393C1.1174 62.2104 1.1174 63.846 0.965952 65.4817C0.905373 66.2995 0.814505 67.1173 0.753925 67.9351C0.541897 68.2683 0.420736 68.6621 0.420736 69.0558C0.420736 69.3587 0.481317 69.6314 0.602476 69.8737C0.451027 71.8122 0.299577 73.9022 0.269287 76.0528C0.269287 78.1125 0.390444 79.8996 0.693342 81.5352C1.02653 83.292 1.66261 84.7459 2.6016 85.897C3.51029 86.9874 4.87333 87.8355 6.81188 88.5019C8.53839 89.1077 10.3861 89.3197 12.1126 89.4711C13.5362 89.5923 15.081 89.6529 17.0195 89.6529C17.9888 89.6529 18.9581 89.6529 19.897 89.6226H20.8057C21.4721 89.6226 22.1991 89.5923 22.926 89.5923C23.6227 89.5923 24.2588 89.5923 24.8343 89.6226C25.4401 89.6529 26.0156 89.6832 26.5305 89.7135C26.7425 89.7438 26.9849 89.7438 27.2575 89.774H27.318C27.4392 89.8043 27.5604 89.8043 27.6815 89.8346C27.833 89.8649 27.9844 89.8649 28.1662 89.8649C29.2263 90.0164 30.0441 89.4106 30.2864 88.5019ZM27.4998 89.1985H27.4089C27.106 89.1682 26.8637 89.138 26.6517 89.1077C26.1064 89.0774 25.5309 89.0168 24.8949 89.0168C24.3194 88.9865 23.6833 88.9865 22.9866 88.9865C22.2596 88.9865 21.5327 88.9865 20.8663 89.0168H19.9576C19.0186 89.0168 18.0494 89.0471 17.0801 89.0471C15.1718 89.0471 13.6271 88.9865 12.2337 88.8654C10.5375 88.7139 8.78071 88.5019 7.11477 87.9264C5.32768 87.3206 4.05551 86.533 3.23768 85.5335C2.35928 84.5036 1.78377 83.1406 1.48088 81.5049C1.17798 79.9299 1.05682 78.1731 1.05682 76.1437C1.05682 73.9931 1.20827 71.9031 1.39001 69.9343V69.8434L1.35972 69.7525C1.26885 69.5708 1.20827 69.3588 1.20827 69.1467C1.20827 68.8741 1.29914 68.5712 1.48088 68.3289L1.54146 68.238L1.57175 68.0563C1.63233 67.2385 1.7232 66.4206 1.78377 65.5725C1.90493 63.9066 1.93522 62.2407 1.93522 60.4233V52.76L1.87464 52.6691C1.54146 52.0936 1.6929 51.2758 2.20783 50.882L2.26841 50.8214C2.54102 50.5185 2.9045 50.3368 3.29826 50.3368H3.38913L3.44971 50.3065C4.60072 49.943 5.8426 49.7916 7.23593 49.6704C8.87158 49.519 10.6284 49.4584 12.6275 49.4584C14.0208 49.4584 15.5353 49.4887 17.4739 49.5795C20.0788 49.6704 22.8654 49.8219 25.5915 50.155C26.2882 50.2459 27.0151 50.6397 27.0151 51.5484C27.0151 52.2147 26.3791 53.0326 25.6521 52.9417C24.2285 52.76 22.7746 52.6691 21.4418 52.5782C18.2614 52.3662 15.4747 52.2753 12.9001 52.2753C12.2943 52.2753 11.6885 52.2753 11.0827 52.3056C9.65911 52.3359 7.99317 52.3965 6.29695 52.6085L6.11521 52.6388C5.96376 52.6691 5.81231 52.6994 5.66086 52.6994C5.41855 52.7297 5.17623 52.7903 4.9642 52.8508L4.69159 52.9114V58.2121C4.69159 58.7573 4.69159 59.3026 4.69159 59.8478C4.69159 61.0291 4.72188 62.2709 4.6613 63.4825C4.60072 64.8456 4.47956 66.1783 4.3887 67.4505L4.72188 67.8443C5.78202 67.8745 6.93303 67.8746 8.38694 67.8746C9.1139 67.8746 9.84085 67.8746 10.5678 67.8746C11.2948 67.8746 12.0217 67.8746 12.7487 67.8746C16.02 67.8746 19.5033 67.9048 22.8957 68.1774C23.5924 68.238 24.3193 68.6924 24.3193 69.5708C24.3193 70.2372 23.7136 71.0247 22.9563 70.9641C19.5033 70.6915 16.02 70.6612 12.7487 70.6612C12.0217 70.6612 11.2948 70.6612 10.5678 70.6612C9.84085 70.6612 9.1139 70.6612 8.38694 70.6612C6.81187 70.6612 5.56999 70.6612 4.41898 70.6309H4.0858L4.05551 70.9641C3.90406 72.9027 3.84348 74.3868 3.81319 75.7499C3.81319 76.7797 3.81319 77.6581 3.87377 78.4457C3.90406 78.9606 3.93435 79.3847 3.99493 79.7784C3.99493 79.8693 4.02521 79.9602 4.02521 80.051C4.0555 80.2328 4.0858 80.3842 4.11609 80.566C4.26753 81.4141 4.44928 82.0804 4.69159 82.6862L4.72188 82.7165C4.75217 82.7771 4.75217 82.8074 4.78246 82.868C4.84304 82.9891 4.90362 83.1406 4.99449 83.2618C5.05507 83.3829 5.11565 83.4738 5.17623 83.5646L5.20652 83.6252C5.23681 83.6555 5.23681 83.6858 5.2671 83.7161C5.41855 83.8675 5.53971 84.019 5.66086 84.1099C5.72144 84.1402 5.81231 84.231 5.90318 84.2916H5.93347C6.17579 84.4733 6.38782 84.5945 6.63014 84.7157C6.78158 84.8065 6.93303 84.8671 7.08448 84.958C7.11477 84.958 7.11477 84.9883 7.14506 84.9883L7.17535 85.0186L7.3268 85.0791C7.69028 85.2306 8.02347 85.3517 8.38694 85.4426C9.14419 85.6546 9.96201 85.8364 10.8101 85.9575C10.8404 85.9575 10.9313 85.9878 11.0222 85.9878L11.1736 86.0181C11.3856 86.0484 11.5977 86.0787 11.8097 86.0787C12.264 86.109 12.6881 86.1696 13.1121 86.1696C14.3237 86.2604 15.6565 86.2907 17.2618 86.2907C17.7465 86.2907 18.2311 86.2907 18.7157 86.2907C19.3518 86.2907 19.9879 86.2604 20.624 86.2604C21.5024 86.2301 22.3808 86.2301 23.2592 86.2301C25.5007 86.2301 27.1969 86.3513 28.7417 86.6542C29.0446 86.7148 29.3172 86.8965 29.4989 87.1994C29.7109 87.5629 29.8018 87.9869 29.6806 88.3504C29.4686 89.0774 28.8325 89.35 28.2873 89.35C28.1662 89.35 28.045 89.35 27.9541 89.3197C27.7724 89.2591 27.6209 89.2288 27.4998 89.1985Z" fill="black"/>
<path d="M31.8611 27.9221C31.9519 28.0433 32.0428 28.1341 32.1337 28.2553L32.2245 28.3462C32.4063 28.5885 32.588 28.8308 32.8303 29.164C33.4361 30.0121 34.0722 30.9511 34.8598 32.193C35.4656 33.1319 36.0713 34.1315 36.6469 35.0705C36.9195 35.5248 37.1921 35.9489 37.4647 36.4032C35.0112 39.9169 33.1938 42.8852 31.6793 45.7628C31.3461 46.3989 31.013 47.0652 30.7101 47.7619C30.1951 48.8523 30.5283 50.0336 31.4673 50.5788C31.7702 50.7606 32.1337 50.8515 32.5274 50.8515C33.3453 50.8515 34.0419 50.4577 34.3448 49.7913C35.9805 46.2474 38.0705 42.9761 39.9787 40.1895C40.8268 41.3708 41.7355 42.5218 42.6139 43.6425L43.4318 44.7026C43.6438 45.0055 43.8861 45.2781 44.0981 45.581C44.5222 46.1565 44.8857 46.5806 45.1886 46.9744C46.0367 48.0042 46.7636 48.7918 47.4906 49.4581C48.1872 50.0639 48.8233 50.5183 49.4291 50.8817C49.7623 51.0635 50.1258 51.1544 50.4893 51.1544C51.2465 51.1544 51.9129 50.7606 52.2764 50.1245C52.549 49.6399 52.6398 49.0644 52.4884 48.4888C52.3369 47.9436 52.0038 47.5196 51.5191 47.247C51.3374 47.1561 51.1556 47.0349 50.9739 46.9138C50.9133 46.8835 50.8527 46.8229 50.8225 46.7926L50.7922 46.7623C50.7619 46.732 50.7013 46.7018 50.7013 46.6715C50.247 46.308 49.8229 45.8839 49.52 45.5507C48.7325 44.7329 48.0358 43.8242 47.3694 42.9761L47.0665 42.5823C46.8545 42.3097 46.6122 42.0068 46.4002 41.7342C46.1275 41.4011 45.7944 40.9467 45.4309 40.5226L45.3097 40.3712C45.1583 40.1895 45.0371 40.038 44.8857 39.8563C44.7948 39.7351 44.7039 39.6442 44.6131 39.5231L44.5222 39.4019C44.189 38.9476 43.8255 38.4629 43.4015 37.8571C43.0986 37.4331 42.7957 36.9787 42.4928 36.4941C43.7347 34.7676 45.0068 33.0411 46.2184 31.3751C47.2786 29.9515 48.369 28.4673 49.3988 26.9831C49.8532 26.3773 50.2772 25.7715 50.671 25.196C50.9436 24.772 51.0648 24.257 50.9436 23.7421C50.8225 23.1363 50.4287 22.6214 49.9441 22.3185C49.6109 22.1368 49.2777 22.0459 48.9142 22.0459C48.2175 22.0459 47.5512 22.4094 47.0968 23.0455C45.552 25.2566 43.9164 27.4678 42.3413 29.588C41.5841 30.5876 40.8268 31.6477 40.0696 32.6776C38.5551 30.1938 36.98 27.6495 35.1324 25.3172C34.7083 24.772 34.2237 24.1965 33.739 23.6513C33.3756 23.2575 32.8606 23.0455 32.2851 23.0455C31.7096 23.0455 31.1644 23.2575 30.7706 23.6513C29.9831 24.4388 29.9528 25.711 30.7706 26.5894C31.1341 27.0437 31.4976 27.4678 31.8611 27.9221ZM31.2553 24.1965C31.4976 23.9542 31.8914 23.8027 32.2851 23.8027C32.6486 23.8027 32.9818 23.9542 33.2241 24.1965C33.7087 24.7417 34.1631 25.2869 34.5871 25.8321C36.4045 28.1341 37.9493 30.6785 39.4638 33.1319L40.009 34.0104L40.3119 33.5863C41.16 32.405 42.0384 31.2237 42.8865 30.103C44.4616 27.9524 46.1275 25.7412 47.6723 23.5301C47.9752 23.0757 48.4599 22.8334 48.9142 22.8334C49.1565 22.8334 49.3685 22.894 49.5806 23.0152C49.9138 23.1969 50.1561 23.5604 50.247 23.9844C50.3075 24.3176 50.2772 24.6508 50.0955 24.8931C49.7017 25.4686 49.2777 26.0744 48.8233 26.6802C47.7632 28.1341 46.6728 29.6183 45.6429 31.042C44.3707 32.7685 43.038 34.5859 41.7658 36.3729L41.6144 36.5547L41.7355 36.7667C42.099 37.3422 42.4625 37.8571 42.7957 38.3418C43.2197 38.9476 43.5832 39.4322 43.9164 39.8866L44.0073 40.0077C44.0981 40.1289 44.189 40.25 44.2799 40.3409C44.4313 40.5226 44.5525 40.6741 44.7039 40.8558L44.8251 41.0073C45.1886 41.4313 45.5218 41.8554 45.7641 42.1886C45.9761 42.4612 46.2184 42.7641 46.4304 43.0367L46.7333 43.4305C47.3997 44.3089 48.1267 45.2176 48.9445 46.0657C49.2777 46.3989 49.7017 46.8532 50.1864 47.247C50.2167 47.2773 50.247 47.3076 50.3075 47.3378L50.3378 47.3681C50.3984 47.4287 50.459 47.459 50.5196 47.4893C50.7316 47.6407 50.9133 47.7316 51.1254 47.8528C51.4283 48.0042 51.6403 48.3071 51.7311 48.6706C51.822 49.0341 51.7917 49.4581 51.61 49.761C51.3677 50.1851 50.9133 50.4274 50.3984 50.4274C50.1561 50.4274 49.9138 50.3668 49.6714 50.2457C49.0959 49.9125 48.4901 49.4884 47.8541 48.9129C47.1574 48.2768 46.4304 47.5196 45.6126 46.52C45.2794 46.1262 44.9462 45.7022 44.5222 45.157C44.3102 44.8541 44.0678 44.5815 43.8558 44.2786L43.038 43.2184C42.0687 41.9766 41.0692 40.7044 40.1605 39.4019L39.8576 38.9779L39.585 39.4019C37.6161 42.2795 35.3444 45.7628 33.6179 49.5187C33.4058 50.0033 32.8606 50.1548 32.4366 50.1548C32.164 50.1548 31.9216 50.0942 31.7399 49.9731C30.9524 49.5187 30.9827 48.6403 31.2553 48.0345C31.5582 47.3681 31.8914 46.732 32.2245 46.096C33.739 43.1881 35.617 40.1592 38.1008 36.6153L38.2219 36.4335L38.1008 36.2518C37.7979 35.7369 37.4647 35.2219 37.1618 34.7373C36.5863 33.7983 35.9805 32.7988 35.3747 31.8598C34.5871 30.6179 33.9511 29.6789 33.315 28.8005C33.0727 28.4673 32.8909 28.225 32.7092 27.9827L32.6183 27.8615C32.5274 27.7404 32.4366 27.6192 32.3457 27.5283C31.9822 27.074 31.5885 26.6197 31.225 26.1956C30.7404 25.5898 30.7101 24.7114 31.2553 24.1965Z" fill="black"/>
<path d="M82.4457 15.5032L82.476 16.3514C82.5366 20.2587 82.6275 24.3176 82.6578 28.3158C82.5366 28.4976 82.4457 28.6793 82.3852 28.8913C82.2337 29.4668 82.3246 30.0726 82.6578 30.5875C82.7183 31.678 83.6573 32.5867 84.7477 32.5867C85.3233 32.5867 85.8685 32.3443 86.2622 31.9203C87.0195 32.0112 87.8373 32.0415 88.7157 32.0415C89.6244 32.0415 90.6543 32.0112 91.8961 31.9203C94.5919 31.7386 97.4089 31.3751 99.9835 30.2544C100.438 30.0726 100.771 29.6789 100.922 29.1639C101.104 28.5581 101.044 27.8918 100.771 27.3768C100.408 26.7407 99.7715 26.3773 99.0142 26.3773C98.7416 26.3773 98.469 26.4076 98.1964 26.4984C98.1661 26.4984 98.1055 26.5287 98.0147 26.559C97.9238 26.5893 97.8329 26.6196 97.7118 26.6802C97.4392 26.771 97.1665 26.8619 96.9848 26.9225C96.5305 27.0436 95.9852 27.1648 95.3492 27.3162C95.1068 27.3768 94.8342 27.4071 94.5011 27.4677C94.3496 27.498 94.1982 27.5283 94.0467 27.5283L93.8347 27.5586C93.1683 27.6494 92.4716 27.71 91.7144 27.7706C90.3514 27.8615 89.0489 27.8918 87.7767 27.8615C87.4738 27.8615 87.1406 27.8312 86.7772 27.8009C86.7469 23.9844 86.6863 20.1376 86.5954 16.3816V16.2908C90.109 16.2908 93.8044 16.3211 97.53 16.624C98.7113 16.7148 99.6503 15.5638 99.6503 14.534C99.6503 13.4133 98.7719 12.5348 97.5906 12.444C93.8347 12.1411 90.0787 12.1108 86.5348 12.1108C86.4743 9.35442 86.4743 7.02211 86.444 4.78067C87.0801 4.75038 87.7161 4.72009 88.3219 4.72009C89.5335 4.65951 90.8057 4.62922 92.0173 4.62922H92.199C92.7745 4.62922 93.3803 4.65951 93.9558 4.6898C94.1982 4.6898 94.5011 4.72009 94.8342 4.75038C94.9857 4.75038 95.1371 4.78067 95.2583 4.78067L95.5006 4.81096C96.7425 4.9927 97.9541 5.32589 99.0142 5.78023C99.196 5.8711 99.408 5.90139 99.62 5.90139C100.468 5.90139 101.377 5.20473 101.619 4.32632C101.922 3.26618 101.347 2.26662 100.196 1.78198C97.3483 0.570393 94.3799 0.418945 92.1082 0.418945C90.836 0.418945 89.5335 0.479524 88.2917 0.540104C87.1104 0.600683 85.8685 0.630973 84.6872 0.661263C84.0511 0.661263 83.4453 0.96416 83.0515 1.4488C82.5366 1.84256 82.264 2.44836 82.264 3.08444C82.264 6.59806 82.3246 10.0208 82.3549 12.9286C82.052 13.2921 81.9005 13.7464 81.9005 14.2008C81.9611 14.6551 82.1428 15.1398 82.4457 15.5032ZM98.1358 26.5287L98.257 26.8316L97.9541 26.8922C97.9238 26.7407 98.045 26.5893 98.1358 26.5287ZM83.0212 13.2618L83.1121 13.1709V13.0195C83.0515 10.0814 83.0212 6.59806 83.0212 3.05415C83.0212 2.6301 83.2333 2.20604 83.5967 1.93343L83.627 1.90314L83.6573 1.87285C83.9299 1.50938 84.3237 1.29735 84.778 1.29735C85.9896 1.29735 87.2315 1.23677 88.4128 1.17619C89.6547 1.11561 90.9572 1.05503 92.199 1.05503C94.4102 1.05503 97.2877 1.20648 100.044 2.35749C100.347 2.47865 101.347 2.99358 101.044 4.08401C100.892 4.65951 100.256 5.14415 99.7109 5.14415C99.5897 5.14415 99.4686 5.11386 99.3777 5.08357C98.257 4.59893 97.0151 4.26575 95.6824 4.08401L95.4097 4.05371C95.2583 4.02343 95.1068 4.02343 94.9554 3.99314C94.6222 3.96285 94.3193 3.93256 94.0467 3.93256C93.4409 3.90227 92.8351 3.87198 92.2293 3.87198H92.0476C90.8057 3.87198 89.5335 3.93256 88.3219 3.96285C87.595 3.99314 86.8377 4.02343 86.1108 4.05371H85.7776V4.3869C85.7776 6.81008 85.8079 9.35442 85.8685 12.4137V12.7469H86.2017C89.8364 12.7469 93.7135 12.7772 97.5603 13.0801C98.257 13.1406 98.9839 13.595 98.9839 14.4734C98.9839 15.1398 98.3781 15.9273 97.6209 15.8667C93.7438 15.5638 89.897 15.5335 86.2622 15.5335H85.8988V16.3211C85.9593 20.1679 86.0502 24.1358 86.0805 28.0432V28.3461L86.3834 28.3764C86.868 28.437 87.3224 28.4673 87.7161 28.4673C89.0186 28.5278 90.3514 28.4976 91.7447 28.3764C92.5322 28.3158 93.2289 28.2552 93.8953 28.1644L94.1376 28.1341C94.289 28.1038 94.4405 28.1038 94.5919 28.0735C94.9251 28.0129 95.228 27.9826 95.4703 27.922C96.1367 27.8009 96.6819 27.6797 97.1665 27.5283C97.3786 27.4677 97.6512 27.3768 97.9541 27.286C98.045 27.2557 98.1661 27.2254 98.257 27.1648C98.3176 27.1345 98.3478 27.1345 98.3478 27.1345C98.5599 27.0436 98.7719 27.0134 98.9839 27.0134C99.3474 27.0134 99.8018 27.1345 100.135 27.6797C100.317 28.0129 100.377 28.4976 100.226 28.8913C100.135 29.2245 99.9229 29.4365 99.6503 29.5577C97.1666 30.6481 94.4102 30.9813 91.775 31.163C90.5331 31.2539 89.5335 31.2842 88.6551 31.2842C87.7161 31.2842 86.868 31.2539 86.0805 31.1328L85.8988 31.1025L85.7776 31.2539C85.505 31.6174 85.1112 31.7991 84.6872 31.7991C83.9299 31.7991 83.2938 31.163 83.2938 30.4058V30.2846L83.2333 30.1938C82.9909 29.8303 82.9001 29.4062 82.9909 29.0125C83.0212 28.861 83.1121 28.7096 83.203 28.5581L83.2636 28.4673V28.3461C83.2333 24.3176 83.1727 20.2284 83.0818 16.2605L83.0515 15.1398L82.9607 15.0489C82.7183 14.7763 82.5669 14.4431 82.5669 14.0796C82.6578 13.8373 82.7789 13.5041 83.0212 13.2618Z" fill="black"/>
<path d="M231.802 98.1336C231.53 98.1336 231.257 98.1336 231.015 98.1336H228.986C225.623 98.1336 222.352 98.1639 219.081 98.6788C218.808 96.1648 218.596 93.6205 218.475 91.0458C218.96 91.0458 219.444 91.0155 219.899 91.0155C220.383 91.0155 220.838 90.9852 221.322 90.9852C223.23 90.9247 225.23 90.8035 227.077 90.1674C228.198 89.7737 228.804 88.7135 228.501 87.6231C228.259 86.7447 227.41 86.0783 226.502 86.0783C226.29 86.0783 226.108 86.1086 225.926 86.1692C225.593 86.2903 225.26 86.3812 224.896 86.4721C224.715 86.5024 224.503 86.5629 224.291 86.5932C224.2 86.5932 224.109 86.6235 224.048 86.6235H223.988C223.17 86.7144 222.322 86.775 221.352 86.8053C220.838 86.8355 220.353 86.8355 219.838 86.8355C219.353 86.8355 218.838 86.8658 218.324 86.8658C218.233 83.7157 218.233 80.505 218.324 77.264C219.475 77.3246 220.626 77.4154 221.746 77.5063L222.867 77.5972C224.291 77.7183 225.744 77.8092 227.168 77.8092C227.895 77.8092 228.561 77.7789 229.198 77.7183C230.409 77.5972 231.257 76.7491 231.257 75.6283C231.257 74.5985 230.318 73.4475 229.137 73.5383C228.531 73.5989 227.865 73.6292 227.168 73.6292C225.744 73.6292 224.321 73.5081 222.928 73.4172L221.686 73.3263C219.929 73.1749 218.111 73.0537 216.294 73.0537C215.809 73.0537 215.355 73.0537 214.901 73.084C213.719 73.1446 212.841 74.023 212.841 75.174C212.841 76.0221 213.386 76.8096 214.144 77.1125C214.022 80.717 214.022 84.3518 214.144 87.8654C213.871 88.2289 213.719 88.6529 213.719 89.1073C213.719 89.5919 213.931 90.1068 214.265 90.5006C214.446 94.1051 214.78 97.6793 215.204 101.132C215.264 101.617 215.355 102.102 215.809 102.556C216.203 102.95 216.718 103.162 217.294 103.162C217.475 103.162 217.657 103.131 217.839 103.101C218.384 102.98 218.929 102.859 219.505 102.768C219.747 102.738 220.02 102.677 220.262 102.647L220.414 102.617C220.565 102.586 220.716 102.586 220.868 102.556C221.928 102.435 223.109 102.344 224.503 102.283C225.957 102.223 227.41 102.223 228.683 102.223C229.107 102.223 229.5 102.223 229.924 102.223C230.561 102.223 231.197 102.223 231.833 102.223C232.984 102.223 233.923 101.284 233.923 100.133C233.892 99.0726 232.923 98.1336 231.802 98.1336ZM231.802 101.617C231.166 101.617 230.53 101.617 229.894 101.617C229.47 101.617 229.076 101.617 228.652 101.617C227.41 101.617 225.926 101.617 224.472 101.678C223.049 101.738 221.867 101.829 220.777 101.95C220.626 101.98 220.444 101.98 220.292 102.011L220.111 102.041C219.838 102.071 219.596 102.132 219.323 102.162C218.748 102.253 218.172 102.374 217.627 102.495C217.112 102.617 216.597 102.495 216.264 102.132C215.991 101.859 215.9 101.587 215.84 101.102C215.416 97.6187 215.083 94.0142 214.901 90.3795V90.2583L214.81 90.1674C214.537 89.8948 214.386 89.5011 214.386 89.1679C214.386 88.8044 214.507 88.5015 214.719 88.2895L214.81 88.1986V88.0471C214.689 84.4124 214.689 80.6564 214.81 76.9308V76.6582L214.537 76.5976C213.962 76.4462 213.477 75.8707 213.477 75.2346C213.477 74.4773 214.083 73.8715 214.87 73.8412C215.295 73.811 215.749 73.811 216.234 73.811C218.021 73.811 219.808 73.9624 221.565 74.0836L222.806 74.1744C224.2 74.2956 225.654 74.3865 227.108 74.3865C227.835 74.3865 228.501 74.3562 229.137 74.2956C229.894 74.235 230.5 75.0225 230.5 75.6889C230.5 76.5673 229.773 77.0217 229.076 77.0822C228.471 77.1428 227.804 77.1731 227.108 77.1731C225.684 77.1731 224.26 77.052 222.867 76.9611L221.746 76.8702C220.504 76.7794 219.202 76.6885 217.93 76.6279H217.566V76.9914C217.445 80.4747 217.445 83.958 217.566 87.3202V87.6837H217.93C218.536 87.6534 219.172 87.6534 219.777 87.6231C220.292 87.6231 220.777 87.5928 221.292 87.5928C222.291 87.5625 223.14 87.5019 224.018 87.4111H224.109C224.2 87.4111 224.291 87.3808 224.381 87.3808C224.624 87.3505 224.836 87.2899 225.048 87.2596C225.442 87.1687 225.805 87.0779 226.169 86.9567C226.29 86.9264 226.411 86.8961 226.532 86.8961C227.108 86.8961 227.713 87.3505 227.865 87.926C228.077 88.7438 227.532 89.4102 226.865 89.6525C225.108 90.2583 223.17 90.3794 221.322 90.4097C220.838 90.4097 220.383 90.44 219.899 90.44C219.323 90.44 218.717 90.4703 218.111 90.4703H217.748L217.778 90.8338C217.93 93.6507 218.172 96.4677 218.475 99.1938L218.505 99.5572L218.869 99.4967C222.201 98.9514 225.593 98.8909 229.046 98.8909H231.076C231.348 98.8909 231.621 98.8909 231.893 98.8909C232.651 98.8909 233.287 99.527 233.287 100.284C233.196 100.981 232.56 101.617 231.802 101.617Z" fill="black"/>
<path d="M150.872 14.1097C153.113 14.1097 155.506 14.1703 158.172 14.3217C158.172 19.7133 158.444 25.1957 158.717 29.8301C158.838 31.708 158.898 33.4648 158.898 35.1913C158.929 37.039 158.959 38.8261 159.383 40.5223C159.595 41.3402 160.08 42.7941 161.322 43.3999C161.655 43.5816 162.018 43.6422 162.382 43.6422C163.139 43.6422 163.805 43.2484 164.169 42.6426C164.441 42.158 164.532 41.5825 164.381 41.007C164.26 40.5223 163.957 40.1286 163.593 39.856C163.563 39.7651 163.533 39.6742 163.503 39.5531C163.412 39.2199 163.351 38.8564 163.29 38.5838L163.26 38.3718C163.23 38.1295 163.2 37.8871 163.2 37.6751C163.109 36.5847 163.109 35.4337 163.109 34.3432C163.109 33.8889 163.109 33.4043 163.109 32.9499C163.078 31.3748 162.988 29.7695 162.866 28.2247C162.806 27.316 162.745 26.4073 162.685 25.4986C162.533 22.3485 162.442 19.5618 162.382 16.9569C162.382 16.23 162.351 15.4727 162.351 14.564C162.624 14.5943 162.897 14.5943 163.169 14.6246C164.502 14.7155 165.835 14.8669 167.137 14.9881C167.501 15.0184 167.864 15.0487 168.228 15.1092C168.924 15.1698 169.5 15.2001 170.015 15.2001C171.378 15.2001 172.499 14.9578 173.468 14.5034C173.922 14.2914 174.255 13.8674 174.407 13.3524C174.589 12.7769 174.528 12.1408 174.225 11.6562C173.862 11.0201 173.195 10.6566 172.468 10.6566C172.135 10.6566 171.772 10.7475 171.469 10.8687C171.438 10.8687 171.438 10.8687 171.408 10.899C171.287 10.9293 171.166 10.9595 171.014 10.9898C170.984 10.9898 170.954 10.9898 170.893 11.0201C170.711 11.0504 170.53 11.0504 170.348 11.0504C169.56 11.0807 168.773 10.9898 168.046 10.9293C166.41 10.7475 164.744 10.5961 163.048 10.4446C158.262 10.0811 154.416 9.92969 150.902 9.92969C149.781 9.92969 148.812 10.899 148.812 12.0197C148.782 13.1707 149.721 14.1097 150.872 14.1097ZM150.872 10.6264C154.385 10.6264 158.232 10.8081 162.988 11.1413C164.684 11.2624 166.35 11.4442 167.955 11.5956C168.712 11.6865 169.53 11.7471 170.378 11.7168C170.56 11.7168 170.772 11.7168 170.984 11.6865H171.045C171.075 11.6865 171.136 11.6562 171.196 11.6562C171.348 11.6259 171.499 11.5956 171.65 11.535L171.741 11.5048L171.772 11.4745C172.014 11.3533 172.256 11.2927 172.499 11.2927C173.013 11.2927 173.407 11.535 173.68 11.9591C173.862 12.2923 173.922 12.7163 173.801 13.1101C173.71 13.4433 173.498 13.7159 173.226 13.8371C172.347 14.2611 171.317 14.4732 170.075 14.4732C169.56 14.4732 169.015 14.4429 168.349 14.3823C167.985 14.352 167.622 14.3217 167.258 14.2611C165.956 14.14 164.593 13.9885 163.26 13.8976C162.866 13.8674 162.473 13.8371 162.079 13.8068L161.715 14.14C161.715 15.2001 161.715 16.0785 161.746 16.9266C161.776 19.5315 161.897 22.3485 162.049 25.4986C162.109 26.4073 162.17 27.3463 162.23 28.255C162.321 29.7998 162.442 31.3748 162.473 32.9499C162.473 33.4043 162.473 33.8586 162.473 34.3432C162.473 35.464 162.473 36.5847 162.564 37.7357C162.564 37.9174 162.594 38.1597 162.624 38.3718C162.624 38.4021 162.624 38.4021 162.624 38.4323C162.624 38.4323 162.624 38.4324 162.624 38.4626C162.624 38.4929 162.624 38.5232 162.624 38.5838V38.6747C162.685 38.9776 162.745 39.3713 162.836 39.7348C162.866 39.856 162.897 39.9771 162.957 40.068V40.0983C162.988 40.1286 162.988 40.1892 163.018 40.2194L163.078 40.3103L163.169 40.3709C163.442 40.5223 163.654 40.795 163.745 41.1281C163.836 41.4916 163.805 41.9157 163.624 42.2186C163.381 42.6426 162.957 42.8849 162.442 42.8849C162.2 42.8849 161.927 42.8244 161.715 42.7032C160.746 42.2186 160.322 40.9767 160.14 40.28C159.747 38.6444 159.686 36.9179 159.686 35.1308C159.656 33.4043 159.595 31.6474 159.504 29.7392C159.232 25.014 158.959 19.4407 158.959 13.9279V13.5947L158.626 13.5645C155.839 13.413 153.325 13.3221 150.963 13.3221C150.205 13.3221 149.569 12.6861 149.569 11.9288C149.478 11.2624 150.114 10.6264 150.872 10.6264Z" fill="black"/>
<path d="M178.103 78.0211C179.012 81.1107 181.708 83.5339 185.464 84.7152C186.918 85.1695 188.462 85.4118 190.007 85.4118C192.006 85.4118 194.005 85.0181 195.792 84.2608C197.337 83.5945 198.67 82.5343 199.73 81.1107C200.427 80.202 200.851 79.1116 201.154 78.2938C201.487 77.3851 201.669 76.3855 201.638 75.4768C201.547 72.2964 199.003 69.7823 194.853 68.7525C193.4 68.389 191.764 68.177 190.037 68.1467C189.583 68.1467 189.129 68.1467 188.705 68.1467C188.402 68.1467 188.129 68.1467 187.826 68.1467H187.766C187.402 68.1467 187.039 68.1467 186.705 68.1164C186.524 68.1164 186.342 68.0861 186.16 68.0861C186.1 68.0861 186.039 68.0861 185.979 68.0558H185.918C185.585 67.9952 185.252 67.9347 184.949 67.8135C184.918 67.8135 184.888 67.7832 184.888 67.7832H184.858C184.737 67.7226 184.615 67.6621 184.494 67.5712C184.464 67.5409 184.403 67.5106 184.373 67.45C184.343 67.4197 184.343 67.4197 184.313 67.3894C184.282 67.3289 184.222 67.2683 184.191 67.1774C184.191 67.1471 184.161 67.1168 184.161 67.0865C184.131 66.9654 184.101 66.8442 184.07 66.7231C184.07 66.6928 184.07 66.6625 184.04 66.6322C184.04 66.6019 184.04 66.5413 184.04 66.4808C184.04 66.3293 184.04 66.1476 184.04 65.9355C184.07 65.8447 184.07 65.7538 184.101 65.6629C184.131 65.6024 184.131 65.5115 184.161 65.4509L184.191 65.4206C184.282 65.2389 184.403 65.0874 184.464 64.936C184.494 64.8754 184.555 64.8451 184.615 64.7845C184.767 64.6331 184.888 64.5119 185.04 64.3908L185.07 64.3605C185.1 64.3302 185.13 64.3302 185.161 64.2999C185.221 64.2696 185.282 64.209 185.312 64.1787C185.554 63.997 185.827 63.8455 186.191 63.6638C186.281 63.6335 186.342 63.5729 186.433 63.5426C186.463 63.5426 186.524 63.5124 186.615 63.4821C186.705 63.4518 186.796 63.4215 186.827 63.3912C187.099 63.3003 187.432 63.1792 187.796 63.0883C187.947 63.058 188.129 62.9974 188.281 62.9671C188.341 62.9671 188.462 62.9369 188.583 62.9066C188.644 62.9066 188.705 62.8763 188.735 62.8763C189.31 62.8157 189.916 62.8157 190.673 62.846C190.855 62.846 191.067 62.8763 191.219 62.8763C191.279 62.8763 191.37 62.9066 191.491 62.9066H191.612C191.885 62.9671 192.188 63.0277 192.491 63.0883C192.763 63.1489 193.036 63.2398 193.339 63.3609C193.4 63.3912 193.43 63.4215 193.49 63.4215C193.642 63.4821 193.763 63.5729 193.884 63.6335C194.005 63.7244 194.157 63.785 194.248 63.8758C194.278 63.9061 194.338 63.9364 194.369 63.9667C194.581 64.1484 194.793 64.3605 195.005 64.6028C195.035 64.6331 195.096 64.6937 195.126 64.7239C195.187 64.8148 195.277 64.936 195.338 65.0268C195.49 65.2389 195.611 65.4812 195.732 65.7538C195.762 65.7841 195.762 65.8447 195.792 65.9052C195.823 65.9961 195.853 66.087 195.883 66.1173C195.944 66.299 196.004 66.4505 196.035 66.6322C196.126 66.9957 196.216 67.3894 196.307 67.8741C196.459 68.8736 197.489 69.4492 198.367 69.4492C198.549 69.4492 198.731 69.4189 198.882 69.3886C199.942 69.0857 200.548 68.0861 200.336 66.8745C199.972 64.6937 199.064 62.8157 197.701 61.4224C196.428 60.1502 194.641 59.2415 192.612 58.9083C191.764 58.7569 190.885 58.6963 190.007 58.6963C186.191 58.6963 182.919 60.1199 181.102 62.6037C179.739 64.4211 179.557 66.9957 180.617 69.1765C180.981 69.9035 182.132 71.6603 185.252 72.1146C186.221 72.2661 187.16 72.2661 188.281 72.2661C188.462 72.2661 188.644 72.2661 188.856 72.2661C189.31 72.2661 189.765 72.2661 190.219 72.2661C190.885 72.2661 191.612 72.3267 192.339 72.4175L192.521 72.4478C192.703 72.4781 192.885 72.5084 193.036 72.5387C193.4 72.5993 193.763 72.6902 194.157 72.781C194.46 72.8719 194.793 72.9628 195.156 73.0839C195.247 73.1142 195.308 73.1445 195.399 73.1748C195.429 73.2051 195.489 73.2051 195.52 73.2354C195.611 73.2657 195.732 73.3262 195.792 73.3565C196.065 73.4777 196.338 73.6594 196.61 73.8109C196.641 73.8412 196.701 73.8715 196.731 73.9017C196.822 73.9926 196.913 74.0835 197.034 74.1744C197.095 74.2349 197.155 74.3258 197.246 74.4167C197.277 74.447 197.307 74.4772 197.307 74.5378C197.367 74.6287 197.428 74.7196 197.489 74.8407C197.519 74.9013 197.519 74.9316 197.519 74.9922C197.549 75.083 197.579 75.2042 197.61 75.3254C197.61 75.3859 197.61 75.4162 197.61 75.4768C197.61 75.6283 197.61 75.81 197.61 75.9614V75.9917C197.61 76.0523 197.58 76.1432 197.58 76.2038C197.519 76.537 197.398 76.9004 197.216 77.3548C197.186 77.4456 197.125 77.5668 197.065 77.6577C196.913 77.9606 196.762 78.2332 196.641 78.4452C196.58 78.5664 196.489 78.6875 196.398 78.839L196.338 78.9298C196.126 79.1722 195.914 79.4145 195.611 79.6568C195.58 79.6871 195.52 79.7174 195.49 79.778C195.399 79.8385 195.277 79.9294 195.126 80.0203C194.853 80.202 194.551 80.3535 194.187 80.5352C194.157 80.5655 194.096 80.5655 194.066 80.5958C193.884 80.6564 193.733 80.7169 193.612 80.7775C193.278 80.8987 192.945 80.9895 192.521 81.0804C192.279 81.141 192.036 81.1713 191.734 81.2319L191.582 81.2622C191.431 81.2924 191.279 81.2924 191.128 81.2924C190.522 81.3227 189.886 81.3227 189.22 81.2924C189.068 81.2924 188.917 81.2622 188.765 81.2622H188.644C188.371 81.2319 188.099 81.1713 187.796 81.1107C187.19 80.9895 186.584 80.8078 186.009 80.5655C185.948 80.5352 185.857 80.5049 185.766 80.4746C185.676 80.4443 185.615 80.414 185.524 80.3535C185.282 80.2323 185.04 80.1111 184.767 79.9597C184.555 79.8385 184.313 79.6871 184.07 79.5053L184.04 79.4751C183.919 79.3842 183.828 79.2933 183.676 79.1419C183.495 78.9904 183.313 78.7784 183.131 78.5664C183.101 78.5361 183.04 78.4452 182.98 78.3846C182.919 78.324 182.889 78.2332 182.828 78.1423C182.707 77.9303 182.586 77.7183 182.435 77.4759L182.404 77.4456C182.344 77.3245 182.313 77.2033 182.253 77.0216C181.98 76.1129 181.162 75.5071 180.223 75.5071C180.042 75.5071 179.86 75.5374 179.678 75.5677C179.133 75.7191 178.679 76.0826 178.406 76.5975C178.012 76.961 177.952 77.5062 178.103 78.0211ZM178.891 76.8096C179.072 76.4764 179.375 76.2341 179.739 76.1129C179.86 76.0826 179.981 76.0523 180.102 76.0523C180.708 76.0523 181.284 76.4764 181.465 77.0822C181.496 77.2033 181.526 77.3245 181.586 77.4154C181.586 77.5062 181.647 77.688 181.768 77.8091C181.889 78.0212 181.98 78.2029 182.101 78.3846C182.132 78.4452 182.162 78.4755 182.192 78.5361C182.192 78.5664 182.223 78.5664 182.223 78.5967L182.253 78.6269C182.283 78.6875 182.344 78.7481 182.404 78.8087C182.435 78.839 182.435 78.839 182.465 78.8693C182.677 79.1116 182.889 79.3236 183.071 79.5053C183.192 79.5962 183.283 79.6871 183.374 79.778C183.434 79.8688 183.555 79.9597 183.646 79.99C183.858 80.1414 184.07 80.2929 184.282 80.414C184.555 80.5958 184.828 80.7169 185.1 80.8381C185.161 80.8684 185.221 80.8987 185.282 80.929L185.342 80.9593C185.403 80.9895 185.433 81.0198 185.494 81.0198C185.524 81.0501 185.585 81.0501 185.585 81.0501C186.221 81.2924 186.857 81.4742 187.493 81.6256C187.735 81.6862 187.978 81.7165 188.19 81.7468C188.341 81.8074 188.493 81.8074 188.583 81.8074H188.614C188.765 81.8074 188.886 81.8377 189.038 81.8377C189.734 81.8982 190.401 81.8982 191.037 81.8377C191.158 81.8377 191.279 81.8074 191.4 81.8074H191.461C191.461 81.8074 191.491 81.8074 191.522 81.8074C191.552 81.8074 191.643 81.7771 191.794 81.7771C192.067 81.7468 192.309 81.6862 192.521 81.6256C192.945 81.5348 193.339 81.4136 193.672 81.2924C193.793 81.2622 193.945 81.2016 194.096 81.141L194.187 81.1107C194.248 81.0804 194.308 81.0501 194.369 81.0198C194.399 81.0198 194.399 80.9895 194.429 80.9895C194.793 80.8078 195.096 80.6564 195.368 80.4746C195.459 80.414 195.52 80.3838 195.58 80.3232C195.702 80.2626 195.823 80.1717 195.883 80.0809C195.883 80.0809 195.883 80.0809 195.914 80.0506C196.186 79.8082 196.428 79.5659 196.641 79.3236L196.762 79.1419L196.792 79.1116L196.822 79.0813C196.822 79.051 196.853 79.051 196.853 79.0207C196.943 78.8996 197.004 78.7784 197.065 78.6875C197.186 78.4755 197.367 78.1726 197.519 77.8394C197.549 77.7788 197.579 77.7182 197.61 77.688C197.701 77.5668 197.731 77.4154 197.761 77.3245C197.913 76.9307 198.004 76.5672 198.064 76.2341V76.2038V76.1735C198.094 76.022 198.094 75.9312 198.094 75.8403C198.094 75.81 198.094 75.7494 198.094 75.7191H198.125V75.3859C198.125 75.1739 198.094 75.0225 198.034 74.9316C198.034 74.8104 198.004 74.7196 197.943 74.5984L197.882 74.447C197.852 74.3561 197.792 74.2955 197.761 74.2349C197.731 74.1138 197.61 73.932 197.458 73.8109C197.428 73.7503 197.367 73.72 197.337 73.6594C197.277 73.5988 197.216 73.5383 197.155 73.4777C197.125 73.4171 197.034 73.3565 196.974 73.2959C196.883 73.2051 196.822 73.1748 196.762 73.1445C196.489 72.9628 196.216 72.8113 195.944 72.6599C195.914 72.6296 195.792 72.5993 195.732 72.569C195.611 72.5084 195.52 72.4781 195.49 72.4781L195.035 72.2964C194.763 72.2055 194.49 72.1147 194.217 72.0541C193.824 71.9632 193.43 71.8723 193.036 71.7815C192.854 71.7512 192.673 71.7209 192.491 71.6906H192.461C192.309 71.63 192.158 71.63 192.067 71.63H192.036C191.37 71.5694 190.734 71.5089 190.098 71.5089C189.644 71.5089 189.189 71.5089 188.705 71.5089C188.523 71.5089 188.341 71.5089 188.129 71.5089C187.039 71.5089 186.13 71.4786 185.191 71.3574C183.283 71.0848 181.738 70.1155 181.102 68.8131C180.163 66.8745 180.314 64.5725 181.526 62.9671C183.252 60.6651 186.281 59.3324 189.886 59.3324C190.704 59.3324 191.552 59.3929 192.37 59.5444C194.248 59.8776 195.914 60.6954 197.065 61.8767C198.337 63.1489 199.155 64.9057 199.488 66.9351C199.609 67.6015 199.397 68.4496 198.518 68.6919C198.428 68.7222 198.306 68.7222 198.185 68.7222C197.58 68.7222 196.913 68.3587 196.822 67.7529C196.731 67.238 196.641 66.8442 196.55 66.4505C196.489 66.2687 196.459 66.087 196.368 65.9052C196.368 65.875 196.307 65.7841 196.277 65.6932C196.247 65.6326 196.216 65.5721 196.216 65.5418C196.216 65.5115 196.186 65.5115 196.186 65.4812C196.186 65.4812 196.186 65.4812 196.186 65.4509L195.944 64.9057V64.936C195.883 64.8451 195.823 64.7542 195.762 64.6634C195.702 64.6028 195.671 64.5119 195.611 64.4211C195.55 64.2999 195.459 64.1787 195.368 64.1182C195.156 63.9061 194.975 63.6941 194.763 63.5426C194.672 63.4215 194.551 63.3609 194.429 63.3003C194.308 63.2397 194.187 63.1489 194.036 63.058C193.914 62.9974 193.763 62.9066 193.612 62.846C193.581 62.846 193.581 62.8157 193.551 62.8157L193.46 62.7854C193.4 62.7551 193.369 62.7551 193.309 62.7248C193.006 62.6037 192.733 62.5431 192.461 62.4522C192.127 62.3613 191.824 62.3008 191.522 62.2402C191.491 62.2402 191.461 62.2402 191.4 62.2099C191.37 62.2099 191.34 62.2099 191.279 62.1796C191.188 62.1796 191.128 62.1493 191.067 62.1493C190.916 62.1493 190.704 62.119 190.492 62.119C189.704 62.0887 189.098 62.0887 188.493 62.1493C188.462 62.1493 188.462 62.1493 188.19 62.1796C188.099 62.1796 188.008 62.2099 187.947 62.2099C187.796 62.2402 187.614 62.2705 187.432 62.3311C187.039 62.4219 186.705 62.5431 186.403 62.634C186.372 62.634 186.281 62.6945 186.191 62.7248C186.069 62.7854 186.009 62.8157 186.009 62.8157C185.918 62.8763 185.797 62.9066 185.706 62.9671C185.342 63.1489 185.04 63.3306 184.767 63.5124C184.737 63.5124 184.706 63.5427 184.676 63.5729L184.615 63.6032C184.585 63.6032 184.585 63.6335 184.555 63.6335C184.525 63.6638 184.494 63.6941 184.464 63.6941L184.403 63.7547C184.282 63.8758 184.101 64.0273 183.949 64.209C183.919 64.2393 183.919 64.2696 183.889 64.2696C183.767 64.3605 183.676 64.5119 183.616 64.6331C183.586 64.6937 183.525 64.7845 183.495 64.8451C183.343 64.9966 183.313 65.2692 183.313 65.2692C183.313 65.2994 183.283 65.3297 183.283 65.36C183.283 65.36 183.283 65.36 183.283 65.3903C183.192 65.5418 183.192 65.7538 183.192 65.8447V66.2081C183.192 66.2687 183.192 66.3293 183.192 66.3596C183.192 66.3899 183.192 66.4505 183.192 66.4808C183.192 66.5413 183.222 66.6322 183.222 66.7231C183.252 66.8442 183.283 66.9654 183.313 67.0865H183.283L183.313 67.1471C183.343 67.2077 183.374 67.2683 183.404 67.3289V67.3592C183.434 67.3895 183.434 67.4197 183.464 67.45C183.495 67.4803 183.525 67.5409 183.525 67.5712L183.616 67.6621C183.646 67.6923 183.676 67.7226 183.707 67.7832C183.798 67.9347 183.979 68.0558 184.131 68.0861C184.191 68.1164 184.252 68.177 184.343 68.2073L184.525 68.2679C184.646 68.3284 184.676 68.3284 184.737 68.3284C184.979 68.4193 185.252 68.4799 185.524 68.5102C185.615 68.5405 185.736 68.5708 185.888 68.5708H185.948H185.979C186.191 68.601 186.372 68.601 186.554 68.601C186.918 68.6313 187.281 68.6313 187.644 68.6313H187.705C188.008 68.6313 188.281 68.6313 188.583 68.6313C189.038 68.6313 189.462 68.6313 189.916 68.6313C191.612 68.6616 193.187 68.8434 194.581 69.2068C200.124 70.6002 200.821 73.932 200.851 75.2951C200.881 76.1432 200.73 77.0216 200.427 77.8697C200.124 78.6572 199.73 79.6871 199.094 80.5352C198.094 81.868 196.883 82.8372 195.429 83.4733C193.763 84.2003 191.855 84.594 189.946 84.594C188.462 84.594 187.008 84.382 185.615 83.9277C182.071 82.8372 179.557 80.5655 178.709 77.7183C178.679 77.5062 178.709 77.1427 178.891 76.8096Z" fill="black"/>
<path d="M171.406 40.5833C171.164 40.6439 170.921 40.7044 170.709 40.765C170.406 40.8256 170.103 40.8862 169.801 40.9467H169.77C169.619 40.977 169.437 40.977 169.316 40.977C168.165 41.0073 167.256 41.9463 167.256 43.067C167.256 44.218 168.226 45.1873 169.346 45.157C169.77 45.157 170.225 45.0964 170.74 45.0056C170.77 47.1864 170.861 49.4279 170.921 51.5785C171.042 55.2132 171.194 58.9389 171.103 62.6342C170.861 62.5433 170.618 62.4828 170.346 62.4828C169.982 62.4828 169.649 62.5736 169.316 62.7554C168.831 63.028 168.468 63.5429 168.316 64.1487C168.195 64.6939 168.286 65.2088 168.559 65.6329C169.316 66.7839 170.588 67.3594 172.284 67.3594C172.405 67.3594 172.527 67.3594 172.648 67.3594C172.981 67.3594 173.314 67.3291 173.647 67.2988C173.89 67.2685 174.132 67.2685 174.374 67.2383C174.647 67.208 174.889 67.208 175.132 67.2383C175.222 67.2685 175.283 67.2685 175.374 67.2988C175.556 67.3897 175.768 67.42 175.98 67.42C176.858 67.42 177.736 66.7233 177.979 65.8752C178.282 64.8151 177.706 63.7852 176.555 63.3309C176.192 63.1794 175.768 63.0886 175.253 63.0886C175.344 59.2418 175.192 55.3647 175.071 51.6087C174.98 49.1856 174.889 46.7018 174.859 44.2483C175.01 44.2483 175.132 44.2483 175.283 44.2483C175.344 44.2483 175.404 44.2483 175.434 44.2786C175.586 44.3089 175.737 44.3695 175.859 44.3998C176.04 44.4604 176.252 44.4906 176.434 44.4906C177.343 44.4906 178.191 43.8243 178.433 42.9459C178.736 41.8554 178.13 40.7953 177.01 40.4015C176.404 40.1895 175.768 40.0986 175.01 40.0986C174.102 40.0986 173.223 40.2501 172.557 40.4015C172.193 40.3712 171.8 40.4924 171.406 40.5833ZM175.071 40.7044C175.737 40.7044 176.313 40.7953 176.828 40.977C177.464 41.2194 178.07 41.8554 177.827 42.7036C177.676 43.2791 177.07 43.7334 176.495 43.7334C176.373 43.7334 176.252 43.7031 176.131 43.6728C175.98 43.6122 175.798 43.5517 175.616 43.5214C175.556 43.5214 175.465 43.4911 175.404 43.4911H175.374C175.101 43.4608 174.829 43.4608 174.586 43.4911C174.586 43.4911 174.556 43.4911 174.526 43.4911L174.223 43.5214V43.8243C174.253 46.3989 174.344 49.0038 174.435 51.5179C174.586 55.395 174.708 59.3932 174.617 63.3006V63.6641H175.01C175.556 63.6641 175.98 63.7246 176.343 63.8761C176.949 64.1184 177.585 64.7242 177.343 65.6026C177.191 66.1781 176.585 66.6627 176.01 66.6627C175.889 66.6627 175.768 66.6325 175.677 66.6022C175.556 66.5416 175.434 66.5113 175.283 66.481H175.192C175.101 66.481 174.98 66.481 174.889 66.481C174.708 66.481 174.556 66.481 174.374 66.5113C174.132 66.5416 173.89 66.5416 173.617 66.5719C173.314 66.6022 172.981 66.6325 172.678 66.6325C172.557 66.6325 172.436 66.6325 172.345 66.6325C170.861 66.6325 169.861 66.1781 169.195 65.2088C169.013 64.9362 168.952 64.603 169.043 64.2699C169.134 63.8761 169.377 63.5126 169.71 63.3309C170.194 63.0583 170.8 63.0886 171.254 63.452L171.8 63.8761L171.83 63.1794L171.648 51.4876C171.557 49.2159 171.497 46.8533 171.436 44.5209V44.0969L171.042 44.1877C170.406 44.3089 169.861 44.3695 169.346 44.3998H169.316C168.589 44.3998 167.983 43.7637 167.983 43.0065C167.983 42.2492 168.589 41.6434 169.377 41.6131C169.528 41.6131 169.71 41.6131 169.891 41.5828H169.952C170.255 41.5223 170.588 41.4617 170.891 41.4011C171.133 41.3405 171.376 41.2799 171.618 41.2194C172.012 41.1285 172.375 41.0376 172.769 40.9467C173.375 40.8559 174.223 40.7044 175.071 40.7044Z" fill="black"/>
<path d="M53.3659 45.5813C53.487 47.6107 53.6082 50.0339 53.5779 52.4268C53.5476 54.3653 53.4568 56.3341 53.3962 58.2424C53.3659 59.1511 53.3053 60.0598 53.275 60.9382C53.1842 63.2099 53.1841 65.0576 53.2144 66.7538C53.2447 67.9048 54.1534 68.8438 55.3044 68.8438C55.8497 68.8438 56.3949 68.6015 56.8189 68.2077C57.2127 67.814 57.4247 67.299 57.3944 66.7538C57.3338 63.9369 57.455 61.0896 57.5762 58.303C57.6367 57.152 57.667 55.9707 57.7276 54.7894C58.6666 54.9711 59.6359 55.0317 60.6354 55.0317C62.2105 55.0317 63.8764 54.8196 65.5727 54.4259C69.2377 53.5475 72.4787 51.7301 74.6293 49.3069C75.8712 47.9136 76.7496 46.3688 77.2342 44.7029C77.7189 42.9764 77.7491 41.0681 77.2645 39.0387C76.4164 35.4645 73.9326 32.4961 70.419 30.8604C67.5718 29.5277 64.1793 28.8613 60.3325 28.8613C58.7272 28.8613 57.0309 28.9825 55.2439 29.1945C54.6683 29.1945 54.1837 29.4065 53.7899 29.8306C53.3962 30.1941 53.1842 30.709 53.1842 31.2542C52.6995 35.4342 52.9721 39.7051 53.2447 43.8245C53.3053 44.4606 53.3356 45.0361 53.3659 45.5813ZM53.9111 31.3754V31.3451C53.9111 30.9513 54.0323 30.6484 54.3049 30.3758L54.3352 30.3455C54.5775 30.0729 54.9107 29.9215 55.3044 29.9215H55.3347C57.0915 29.7094 58.7878 29.5883 60.3628 29.5883C64.1187 29.5883 67.39 30.2244 70.1464 31.5268C73.448 33.0716 75.8106 35.8886 76.5981 39.2204C77.0525 41.1287 77.0525 42.9461 76.5678 44.5514C76.1135 46.1265 75.2957 47.5804 74.1144 48.8829C72.0244 51.1849 68.9348 52.9114 65.3909 53.7898C63.7553 54.1836 62.1499 54.3956 60.6051 54.3956C59.4844 54.3956 58.4243 54.2744 57.4247 54.0624L57.0309 53.9715V54.3956C57.0007 55.698 56.9401 57.0308 56.8795 58.3333C56.7583 61.1199 56.6372 63.9974 56.6978 66.8144C56.6978 67.1476 56.5766 67.5111 56.304 67.7534C56.0314 68.026 55.6679 68.1774 55.3044 68.1774C54.5472 68.1774 53.9414 67.5716 53.9111 66.7841C53.8808 65.0879 53.8808 63.2705 53.9717 60.9988C54.002 60.0901 54.0323 59.2117 54.0928 58.303C54.1837 56.3947 54.2746 54.3956 54.2746 52.457C54.3049 50.0339 54.1837 47.6107 54.0626 45.551C54.0323 44.9755 54.002 44.4 53.9717 43.8548C53.6991 39.7354 53.4265 35.4948 53.9111 31.3754Z" fill="black"/>
<path d="M57.0625 50.0329C57.0625 50.3055 57.0625 50.5479 57.0625 50.8205V51.0931L57.3049 51.1537C57.8198 51.3051 58.365 51.4263 58.8799 51.4868H58.9405C59.0617 51.4868 59.1828 51.5171 59.304 51.5171C59.5463 51.5474 59.7583 51.5474 59.9704 51.5474C60.2127 51.5474 60.455 51.5474 60.6973 51.5474C60.9396 51.5474 61.2122 51.5474 61.4243 51.5171C61.9089 51.4868 62.3935 51.4566 62.8782 51.396H62.9388C63.0599 51.3657 63.2114 51.3657 63.3325 51.3354C63.6051 51.2748 63.8172 51.2445 64.0292 51.2142C65.059 51.0022 66.0283 50.6993 66.937 50.3661C66.9976 50.3358 67.1187 50.2753 67.2399 50.245C67.3308 50.2147 67.3913 50.1844 67.4519 50.1541L67.5125 50.1238C67.6034 50.0935 67.7245 50.0329 67.8154 49.9724C68.2092 49.7906 68.5726 49.6089 68.8755 49.4271C69.2996 49.1848 69.6328 48.9728 69.966 48.7608C70.1174 48.6699 70.2689 48.5487 70.39 48.4579C70.4203 48.4579 70.4203 48.4276 70.4506 48.4276C70.4809 48.3973 70.5112 48.367 70.5718 48.3367C70.5718 48.3367 70.6021 48.3064 70.6323 48.3064C71.2987 47.7612 71.8742 47.216 72.3286 46.6708C72.3892 46.5799 72.4497 46.5193 72.5406 46.4285C72.6315 46.3073 72.7526 46.1558 72.8435 46.0044C73.0555 45.6712 73.2373 45.338 73.3887 45.0351C73.419 44.9745 73.4796 44.8534 73.5099 44.7322C73.5402 44.6716 73.5705 44.5808 73.5705 44.5808L73.3584 44.4596L73.5705 44.5202C73.6007 44.4293 73.631 44.3385 73.6613 44.2476C73.7825 43.8538 73.8734 43.5206 73.9642 43.1572C73.9945 43.0663 73.9945 42.9451 74.0248 42.824V42.7937C74.0248 42.6422 74.0551 42.4605 74.0551 42.2788C74.0854 41.8547 74.0551 41.4609 74.0248 41.0975C74.0248 41.0369 74.0248 40.9763 73.9945 40.8854L73.9642 40.734C73.9339 40.5522 73.8734 40.3099 73.8431 40.0676C73.7219 39.583 73.6008 39.1892 73.4796 38.7954C73.4493 38.6743 73.3887 38.5531 73.3281 38.432C73.2676 38.2805 73.1767 38.0685 73.0555 37.8867C72.8435 37.493 72.6315 37.1598 72.4195 36.8569C72.3589 36.7963 72.3286 36.7357 72.268 36.6751L72.2074 36.5843C72.056 36.4025 71.9348 36.2814 71.8137 36.1602C71.541 35.8573 71.2684 35.5847 70.9655 35.3727L70.9352 35.3424L70.905 35.3121C70.905 35.3121 70.8747 35.3121 70.8747 35.2818C70.8444 35.2515 70.8141 35.2212 70.7838 35.2212C70.7535 35.2212 70.7535 35.191 70.7232 35.191C70.5415 35.0395 70.39 34.9486 70.2386 34.8578C69.9054 34.6154 69.5722 34.4337 69.239 34.252C68.9967 34.1308 68.815 34.0399 68.6332 33.9491C68.5727 33.9188 68.4818 33.8885 68.3606 33.8279L68.2092 33.7673C67.8457 33.6159 67.5731 33.525 67.2702 33.4341C66.4827 33.1615 65.6345 32.9495 64.8167 32.7981C64.5744 32.7678 64.3321 32.7072 64.1201 32.6769C64.0595 32.6769 63.9383 32.6466 63.8172 32.6466L63.6657 32.6163C63.2719 32.5557 62.9388 32.5255 62.6359 32.4952C61.7877 32.4346 60.9396 32.4043 60.1218 32.4043H60.0612C58.9708 32.4043 57.8804 32.4649 56.7294 32.5557L56.4265 32.586L56.3962 32.8889C56.3356 33.8582 56.3053 34.8881 56.3053 36.0088C56.3053 38.644 56.4567 41.3095 56.6082 43.8841C56.8808 45.8832 57.002 47.9732 57.0625 50.0329ZM57.2443 33.2221C58.2438 33.1313 59.2434 33.101 60.2127 33.101H60.2733C61.0911 33.101 61.9089 33.1312 62.7267 33.1918C63.0296 33.2221 63.3628 33.2524 63.7263 33.2827L63.8474 33.313C63.9686 33.3433 64.0898 33.3433 64.1503 33.3433C64.3927 33.3736 64.6047 33.4341 64.847 33.4644C65.6648 33.6159 66.4524 33.8279 67.2096 34.0702C67.4822 34.1611 67.7548 34.252 68.088 34.4034L68.2092 34.464C68.3 34.4943 68.4212 34.5549 68.4515 34.5852C68.6332 34.676 68.815 34.7669 69.027 34.8881C69.3299 35.0395 69.6328 35.2212 69.966 35.4636C70.0871 35.5544 70.2386 35.6453 70.39 35.7665C70.4809 35.827 70.5415 35.8876 70.6323 35.9482C70.8747 36.1602 71.1473 36.4025 71.4199 36.7054C71.541 36.8266 71.6319 36.9478 71.7834 37.0992L71.8137 37.1295C71.8439 37.1901 71.9045 37.2507 71.9348 37.3112C72.1468 37.5838 72.3286 37.917 72.5103 38.2502C72.6012 38.432 72.6921 38.6137 72.7526 38.7651C72.7829 38.8863 72.8435 38.9772 72.8738 39.0983C72.995 39.4618 73.1161 39.8253 73.207 40.2796C73.2676 40.522 73.2979 40.734 73.3281 40.9157L73.3584 41.0369C73.3584 41.0975 73.3584 41.158 73.3887 41.2186C73.419 41.5518 73.419 41.9153 73.419 42.309C73.419 42.4908 73.3887 42.6422 73.3887 42.7937C73.3584 42.8846 73.3584 42.9754 73.3281 43.0663C73.2676 43.3692 73.1767 43.7024 73.0555 44.0659C73.0252 44.1567 72.995 44.2476 72.9647 44.3082C72.9344 44.3688 72.9041 44.399 72.8738 44.4596C72.8435 44.5505 72.7829 44.6716 72.7526 44.7322C72.6012 45.0048 72.4497 45.3077 72.2377 45.6106C72.1468 45.7621 72.0257 45.8832 71.9651 46.0044C71.9045 46.0953 71.8439 46.1558 71.7834 46.2164C71.329 46.7616 70.8141 47.2463 70.178 47.7612C70.1174 47.7915 70.0569 47.8521 69.9963 47.8824C69.8448 48.0035 69.6934 48.0944 69.5419 48.2155C69.239 48.4276 68.8755 48.6396 68.5121 48.8516C68.2092 49.0334 67.876 49.1848 67.4822 49.3666C67.3913 49.3969 67.3005 49.4574 67.1793 49.4877L67.1187 49.518C67.0885 49.518 66.9976 49.5786 66.9067 49.6089C66.7856 49.6695 66.6644 49.6997 66.6038 49.73C65.7254 50.0632 64.7864 50.3358 63.8172 50.5479C63.6354 50.5781 63.4234 50.6387 63.1508 50.669C63.0296 50.6993 62.9085 50.6993 62.757 50.7296H62.7267C62.2724 50.7902 61.818 50.8205 61.3334 50.8508C60.8791 50.881 60.4247 50.881 59.9401 50.8508C59.7583 50.8508 59.5463 50.8205 59.304 50.8205C59.1828 50.8205 59.0617 50.7902 58.9405 50.7902H58.8799C58.4862 50.7296 58.0621 50.6387 57.638 50.5479C57.638 50.3661 57.638 50.1844 57.638 50.0026C57.6078 47.9429 57.4563 45.8529 57.3351 43.8235C57.1837 41.2489 57.0323 38.6137 57.0323 35.9785C57.1534 35.0092 57.1837 34.1005 57.2443 33.2221Z" fill="black"/>
<path d="M53.5817 127.545C49.856 126.969 46.0092 127 42.2533 126.606C40.4056 126.394 38.982 126.061 37.4373 125.001C35.6502 123.759 34.378 121.881 33.4087 119.942C31.2581 115.55 30.7129 110.431 30.4403 105.615C30.2283 102.011 30.3191 98.4365 30.3494 94.8321C31.0764 94.7109 31.5307 94.1657 31.5307 93.4387C31.561 92.9844 31.4096 92.5603 31.1976 92.2271C31.1976 91.9848 31.137 91.7728 31.0158 91.6516C30.8644 91.4699 30.6826 91.4093 30.5009 91.4396C30.4706 91.4093 30.4706 91.4093 30.4403 91.379C30.198 91.1973 29.9557 91.167 29.7134 91.2276C29.3499 91.1973 28.9864 91.2276 28.6532 91.4093C27.6839 91.9242 27.6537 93.0753 28.2897 93.8628C28.3503 93.9537 28.4109 94.0142 28.5018 94.0748C28.7138 94.4989 29.0773 94.7412 29.5316 94.8321C29.4408 103.374 28.9864 112.552 32.712 120.366C34.3174 123.759 37.1646 126.757 40.9811 127.303C45.1006 127.908 49.3108 127.757 53.3999 128.393C53.9149 128.484 54.1572 127.636 53.5817 127.545ZM29.1681 93.469C29.1984 93.469 29.1984 93.469 29.1681 93.469V93.469Z" fill="black"/>
<path d="M67.9374 72.4178C64.9084 72.2058 61.8491 72.1452 58.8202 72.0847C58.8202 72.0544 58.8202 72.0544 58.7899 72.0241C58.3961 70.9336 57.0331 69.1768 55.7609 70.237C55.0642 70.8428 55.0037 72.0847 55.0037 72.9025C55.0037 73.478 55.1248 74.2655 55.8215 74.3564C55.9123 74.3564 56.0032 74.3564 56.0941 74.3261C56.2758 74.4776 56.4576 74.5987 56.6393 74.6896C57.3966 75.0228 58.275 74.6896 58.7293 74.0535C58.9716 73.7203 59.0322 73.3265 59.0019 72.9328C64.5752 73.0539 70.1182 73.266 75.631 74.0535C76.5397 74.1746 77.5695 74.3564 78.3268 74.9319C79.1749 75.5983 79.296 76.8401 79.4778 77.8397C79.9624 80.5355 79.9624 83.2616 79.8715 85.9877C79.8413 86.5632 80.7197 86.5329 80.75 85.9877C80.8408 83.0193 80.7802 80.0812 80.2653 77.1733C79.9321 75.2348 79.1143 74.0232 77.1758 73.478C74.2074 72.6904 70.9361 72.6299 67.9374 72.4178ZM56.8816 70.9639C56.8816 70.9336 56.8513 70.9034 56.8513 70.8731C56.8816 70.9034 56.9422 70.9034 56.9725 70.9336C56.9422 70.9336 56.9119 70.9639 56.8816 70.9639ZM57.0028 73.9323C56.9725 73.9323 56.9422 73.902 56.9119 73.8718C57.0331 73.7506 57.1542 73.5991 57.2451 73.4477C57.3057 73.4174 57.3663 73.3568 57.3966 73.2962C57.6389 73.2054 57.8812 73.0842 58.0326 72.9025C58.0629 72.9025 58.0932 72.9025 58.1235 72.9025C58.1235 73.5689 57.7297 74.2655 57.0028 73.9323Z" fill="black"/>
<path d="M101.618 51.1539C101.437 50.639 101.043 50.2452 100.437 50.2149C100.286 50.2149 100.134 50.2452 99.9826 50.3058C100.013 50.0029 99.6797 49.6697 99.3163 49.8514C97.5292 50.6693 97.8321 53.4256 99.4374 54.0314C99.498 58.1205 99.9524 62.2096 99.9826 66.3291C99.9826 66.8743 100.861 66.9046 100.861 66.3291C100.831 62.2702 100.407 58.2114 100.316 54.1526C100.407 54.1526 100.467 54.1223 100.558 54.1223C101.982 53.8194 102.315 52.1232 101.618 51.1539ZM100.043 51.4568L100.013 51.4871C100.013 51.4568 100.013 51.4568 100.043 51.4568C100.013 51.4265 100.013 51.4265 100.043 51.4568ZM100.316 53.2439C100.346 53.2136 100.376 53.1833 100.407 53.153C100.467 53.1833 100.528 53.1833 100.588 53.1833C100.498 53.2136 100.407 53.2439 100.316 53.2439Z" fill="black"/>
<path d="M134.483 60.8467C132.363 61.2102 132.03 63.3911 131.787 65.2387C131.424 67.7225 131.394 70.2971 131.575 72.8112C131.606 73.3564 132.484 73.3564 132.454 72.8112C132.302 70.5394 132.333 68.2374 132.575 65.996C132.696 64.845 132.878 63.6334 133.393 62.5732C133.877 61.5737 135.059 61.6645 135.998 61.6342C138.451 61.5737 140.905 61.9674 143.358 62.0886C147.175 62.2703 151.021 62.3309 154.838 62.3309C154.565 63.3305 155.565 64.2695 156.504 64.5118C157.746 64.845 159.169 63.8454 159.381 62.6338C159.533 61.7554 159.048 61.0285 158.321 60.665C158.321 60.665 158.321 60.665 158.291 60.6347C158.624 60.3621 158.412 59.6654 157.927 59.8774C157.019 60.2409 156.049 60.7256 155.383 61.4525C151.082 61.4525 146.751 61.4525 142.449 61.1496C139.844 60.9679 137.088 60.4227 134.483 60.8467ZM155.716 62.967L155.747 62.9973C155.747 62.9973 155.747 62.9973 155.716 62.967ZM155.777 63.0276C155.807 63.0882 155.868 63.1184 155.928 63.179C155.959 63.2093 155.989 63.2396 156.019 63.2699C155.928 63.2093 155.837 63.1184 155.777 63.0276Z" fill="black"/>
<path d="M208.753 105.555C208.783 105.1 208.48 104.737 208.117 104.464C207.965 103.98 207.602 103.525 206.996 103.222C206.875 103.162 206.693 103.132 206.572 103.222C206.329 103.374 206.148 103.556 205.996 103.737C205.693 103.798 205.421 103.949 205.178 104.192C204.664 104.464 204.24 104.979 204.209 105.524C204.209 105.736 204.24 105.918 204.3 106.1C204.3 106.251 204.33 106.403 204.391 106.554C204.391 106.585 204.361 106.615 204.361 106.675C204.179 107.281 204.815 107.766 205.269 108.038C205.481 108.16 205.784 108.311 206.117 108.402C206.117 111.249 206.117 114.066 206.178 116.913C206.269 120.185 206.511 123.789 205.36 126.939C204.149 130.241 199.393 130.15 196.485 130.332C194.88 130.423 193.244 130.665 191.639 130.635C189.943 130.604 188.337 130.635 186.671 130.907C186.126 130.998 186.369 131.846 186.914 131.755C188.852 131.452 190.7 131.574 192.639 131.513C194.365 131.483 196.092 131.24 197.818 131.119C200.696 130.907 204.482 130.665 205.966 127.757C207.45 124.88 207.178 121.033 207.117 117.883C207.056 114.793 207.026 111.673 207.026 108.584C207.814 108.675 208.601 108.432 208.813 107.584C208.934 107.16 208.844 106.645 208.632 106.13C208.662 105.948 208.722 105.767 208.753 105.555ZM207.481 107.705C207.632 107.493 207.753 107.221 207.814 106.948C207.844 106.918 207.874 106.918 207.905 106.887C207.965 107.281 207.905 107.614 207.481 107.705Z" fill="black"/>
<path d="M110.948 99.7085C110.857 99.7388 110.736 99.7691 110.645 99.7994C110.948 99.5873 110.857 98.9815 110.403 99.0118C108.707 99.1027 106.95 99.1027 105.314 99.6176C104.769 99.7691 105.012 100.617 105.557 100.466C107.132 99.9811 108.798 99.9811 110.403 99.8902C108.798 100.466 107.162 101.041 105.436 101.011C104.86 101.011 104.89 101.859 105.436 101.889C107.435 101.92 109.313 101.223 111.191 100.557C111.706 100.375 111.494 99.5268 110.948 99.7085Z" fill="black"/>
<path d="M132.909 104.616C131.364 104.464 129.547 104.525 128.305 103.434C127.881 103.071 127.275 103.677 127.699 104.04C129.153 105.312 131.091 105.282 132.909 105.494C133.454 105.524 133.454 104.676 132.909 104.616Z" fill="black"/>
<path d="M133.271 103.495C131.453 102.132 129.273 101.859 127.031 101.829C126.456 101.829 126.486 102.708 127.031 102.708C129.121 102.738 131.12 102.98 132.816 104.252C133.271 104.585 133.725 103.828 133.271 103.495Z" fill="black"/>
<path d="M89.6846 114.217C90.5024 113.793 91.502 113.581 92.3501 113.218C93.1679 112.885 93.9858 112.521 94.8036 112.158C95.3185 111.946 94.8642 111.188 94.3795 111.4C93.4103 111.824 92.441 112.248 91.4414 112.642C90.7145 112.915 89.9269 113.097 89.2303 113.46C88.7456 113.702 89.2 114.46 89.6846 114.217Z" fill="black"/>
<path d="M90.0162 112.793C90.9249 112.46 91.8335 112.097 92.8028 111.854C93.348 111.703 93.1057 110.885 92.5605 111.006C91.6215 111.249 90.7128 111.612 89.7738 111.945C89.2589 112.127 89.5012 112.975 90.0162 112.793Z" fill="black"/>
<path d="M90.5923 116.459C91.3496 116.217 92.016 115.762 92.7429 115.429C93.7728 114.945 94.8632 114.581 95.9536 114.248C96.4988 114.097 96.2565 113.248 95.7113 113.4C94.7117 113.703 93.7122 114.036 92.7429 114.46C91.9251 114.793 91.1678 115.338 90.35 115.611C89.8351 115.762 90.0774 116.611 90.5923 116.459Z" fill="black"/>
<path d="M78.3863 135.723C78.8709 135.42 78.4165 134.663 77.9622 134.966C76.4174 135.935 76.5083 138.358 76.2357 139.933C76.1448 140.478 76.9929 140.721 77.0838 140.176C77.2655 138.903 77.1747 136.48 78.3863 135.723Z" fill="black"/>
<path d="M78.1462 140.085C78.4188 139.297 78.5399 137.995 79.2972 137.48C79.7515 137.177 79.3275 136.42 78.8731 136.723C77.8433 137.419 77.7221 138.782 77.3283 139.842C77.1163 140.388 77.9644 140.6 78.1462 140.085Z" fill="black"/>
<path d="M159.929 142.569C159.929 141.993 159.051 142.023 159.051 142.569C159.051 144.023 159.657 145.416 159.626 146.87C159.626 147.324 160.171 147.415 160.384 147.142C160.596 147.385 161.141 147.294 161.171 146.87C161.232 144.992 161.656 142.114 160.111 140.66C159.687 140.267 159.081 140.903 159.505 141.266C160.535 142.205 160.474 144.053 160.384 145.598C160.232 144.598 159.929 143.629 159.929 142.569Z" fill="black"/>
</svg>
