<svg width="244" height="200" viewBox="0 0 244 200" fill="none" xmlns="http://www.w3.org/2000/svg">
<path d="M123.242 199.938C122.733 199.938 122.254 199.743 121.88 199.369C121.521 198.995 121.327 198.517 121.327 198.008L121.521 184.154C121.536 183.122 122.389 182.284 123.406 182.269C125.964 182.254 132.487 182.15 137.963 181.761C142.571 181.432 147.238 180.953 149.602 180.713C150.141 180.654 150.679 180.833 151.083 181.192C151.487 181.551 151.712 182.075 151.712 182.613V196.287C151.712 197.245 150.993 198.068 150.036 198.187C147.852 198.457 143.364 198.995 137.933 199.429C132.353 199.863 125.8 199.923 123.242 199.938ZM122.434 184.154L122.239 198.008C122.239 198.277 122.344 198.532 122.538 198.726C122.733 198.92 122.987 199.025 123.257 199.025C125.8 199.025 132.323 198.95 137.873 198.502C143.289 198.053 147.762 197.529 149.946 197.26C150.455 197.2 150.829 196.766 150.829 196.258V182.584C150.829 182.299 150.709 182.03 150.5 181.836C150.29 181.641 150.006 181.551 149.722 181.581C147.358 181.836 142.69 182.299 138.053 182.643C132.562 183.047 126.009 183.137 123.436 183.152C122.868 183.167 122.434 183.601 122.434 184.154Z" fill="#FFD7E3"/>
<path d="M133.265 188.448C133.071 188.463 132.906 188.628 132.906 188.822V192.473V195.659C134.073 195.614 135.225 195.555 136.377 195.48V192.293V188.673C136.377 188.463 136.197 188.284 135.988 188.299C135.09 188.359 134.178 188.403 133.265 188.448Z" fill="#FFD7E3"/>
<path d="M136.392 195.554C136.272 195.554 136.167 195.51 136.078 195.435C135.988 195.345 135.943 195.225 135.943 195.106V186.503C135.943 186.069 136.287 185.71 136.721 185.68C137.634 185.621 138.546 185.561 139.444 185.501C139.668 185.486 139.893 185.561 140.057 185.725C140.222 185.89 140.326 186.099 140.326 186.324V194.866C140.326 195.106 140.147 195.3 139.908 195.315C138.786 195.405 137.604 195.48 136.422 195.554C136.407 195.554 136.392 195.554 136.392 195.554ZM136.841 186.578V194.627C137.708 194.567 138.576 194.522 139.414 194.447V186.399C138.576 186.458 137.708 186.518 136.841 186.578Z" fill="#FFD7E3"/>
<path d="M143.349 190.438V194.957C142.197 195.061 141.045 195.166 139.878 195.241V190.663C139.878 190.468 140.027 190.304 140.222 190.289C141.134 190.214 142.047 190.139 142.945 190.064C143.154 190.049 143.349 190.214 143.349 190.438Z" fill="#FFD7E3"/>
<path d="M194.469 21.7279C194.469 20.7106 195.486 20.0074 196.444 20.3665C198.568 21.1744 202.323 22.7003 207.395 25.1688C213.424 28.1011 217.553 30.7641 219.064 31.7814C219.468 32.0507 219.707 32.4995 219.707 32.9932V50.6168C219.707 51.7687 218.451 52.4569 217.478 51.8585C214.606 50.0782 209.579 47.0262 206.273 45.4853C201.65 43.316 197.266 41.5806 195.396 40.8625C194.828 40.653 194.454 40.0995 194.454 39.501V21.7279H194.469Z" fill="white"/>
<path d="M218.256 52.5464C217.912 52.5464 217.568 52.4417 217.254 52.2622C214.516 50.5567 209.415 47.4598 206.108 45.9039C201.456 43.7197 196.967 41.9543 195.262 41.2961C194.529 41.0118 194.035 40.2937 194.035 39.5158V21.7276C194.035 21.0993 194.349 20.5158 194.858 20.1568C195.367 19.7977 196.04 19.7229 196.623 19.9473C198.882 20.8001 202.623 22.341 207.604 24.7646C213.663 27.7119 217.822 30.3898 219.333 31.4071C219.857 31.7662 220.171 32.3496 220.171 32.993V50.6165C220.171 51.3196 219.797 51.948 219.184 52.2921C218.885 52.4566 218.57 52.5464 218.256 52.5464ZM195.92 20.7103C195.726 20.7103 195.516 20.7702 195.352 20.8899C195.067 21.0843 194.918 21.3836 194.918 21.7276V39.5158C194.918 39.9347 195.172 40.3087 195.561 40.4583C197.282 41.1165 201.785 42.8819 206.467 45.0811C209.819 46.6519 214.95 49.7637 217.718 51.4842C218.032 51.6787 218.421 51.6937 218.735 51.5141C219.064 51.3346 219.259 51.0055 219.259 50.6315V32.993C219.259 32.6638 219.094 32.3497 218.81 32.1552C217.314 31.1528 213.2 28.5048 207.2 25.5725C202.234 23.1489 198.523 21.6379 196.294 20.7851C196.175 20.7403 196.04 20.7103 195.92 20.7103Z" fill="#FFD7E3"/>
<path d="M209.011 35.5063C208.936 35.5063 208.876 35.4913 208.801 35.4614C205.151 33.6063 201.216 31.8409 197.102 30.2252C196.878 30.1354 196.758 29.8811 196.848 29.6417C196.937 29.4173 197.192 29.2976 197.431 29.3874C201.575 31.0031 205.525 32.7834 209.205 34.6535C209.429 34.7732 209.519 35.0425 209.4 35.2519C209.325 35.4165 209.175 35.5063 209.011 35.5063Z" fill="#FFD7E3"/>
<path d="M209.011 40.085C208.936 40.085 208.861 40.07 208.786 40.0251C205.181 37.9606 201.246 36.0007 197.087 34.2055C196.863 34.1008 196.758 33.8464 196.848 33.622C196.952 33.3976 197.207 33.2929 197.431 33.3826C201.605 35.1929 205.57 37.1677 209.205 39.2472C209.414 39.3669 209.489 39.6511 209.37 39.8606C209.31 40.0102 209.16 40.085 209.011 40.085Z" fill="#FFD7E3"/>
<path d="M217.134 34.085V37.3314C217.134 37.5558 216.88 37.7054 216.685 37.5708C215.488 36.7928 214.202 36.0598 212.855 35.3416C212.766 35.2968 212.706 35.192 212.706 35.0873V31.811C212.706 31.5865 212.945 31.4519 213.14 31.5566C214.501 32.2897 215.803 33.0527 217.014 33.8456C217.089 33.9054 217.134 33.9952 217.134 34.085Z" fill="#FFD7E3"/>
<path d="M25.2648 166.083C25.1751 166.083 25.1003 166.053 25.0254 166.008C20.8365 163.27 17.1113 160.338 13.9397 157.301C13.7601 157.136 13.7602 156.852 13.9247 156.673C14.0893 156.493 14.3735 156.493 14.5531 156.658C17.6798 159.665 21.3601 162.552 25.5042 165.26C25.7136 165.395 25.7735 165.679 25.6388 165.888C25.5491 166.023 25.4144 166.083 25.2648 166.083Z" fill="#FFD7E3"/>
<path d="M25.2648 170.631C25.1751 170.631 25.1003 170.601 25.0254 170.556C20.8365 167.818 17.1113 164.886 13.9397 161.849C13.7601 161.684 13.7602 161.4 13.9247 161.221C14.0893 161.041 14.3735 161.041 14.5531 161.206C17.6798 164.213 21.3601 167.1 25.5042 169.808C25.7136 169.943 25.7735 170.227 25.6388 170.436C25.5491 170.571 25.4144 170.631 25.2648 170.631Z" fill="#FFD7E3"/>
<path d="M27.6285 177.452C27.2695 177.452 26.9254 177.347 26.6112 177.153C23.8136 175.373 18.3829 171.677 13.5506 166.83C7.92546 161.205 6.16011 158.183 5.66641 157.151C5.54673 156.881 5.47192 156.612 5.47192 156.328V142.744C5.47192 142.22 5.80106 141.771 6.29476 141.607C6.80342 141.442 7.32703 141.607 7.62624 142.04C9.27191 144.3 12.7278 148.668 17.3656 152.483C20.612 155.161 26.8506 159.29 28.6758 160.502C29.2143 160.861 29.5285 161.444 29.5285 162.103V175.552C29.5285 176.255 29.1545 176.884 28.5411 177.228C28.2569 177.362 27.9427 177.452 27.6285 177.452ZM6.66877 142.429C6.62389 142.429 6.59397 142.444 6.56405 142.444C6.50421 142.459 6.3546 142.534 6.3546 142.729V156.313C6.3546 156.462 6.38452 156.612 6.45932 156.747C6.93806 157.734 8.64356 160.651 14.179 166.187C18.9514 170.974 24.3222 174.64 27.0899 176.39C27.4041 176.584 27.7931 176.599 28.1222 176.42C28.4513 176.24 28.6458 175.911 28.6458 175.537V162.088C28.6458 161.744 28.4813 161.429 28.197 161.25C26.3569 160.038 20.0884 155.879 16.7971 153.171C12.0845 149.296 8.58372 144.853 6.90814 142.564C6.83334 142.459 6.74358 142.429 6.66877 142.429Z" fill="#FFD7E3"/>
<path d="M11.4113 154.084V158.228C11.4113 158.438 11.157 158.527 11.0223 158.378C10.0648 157.316 9.18216 156.223 8.37429 155.116C8.34437 155.071 8.31445 155.012 8.31445 154.937V150.882C8.31445 150.658 8.58374 150.568 8.71838 150.748C9.51129 151.81 10.379 152.857 11.3215 153.875C11.3963 153.934 11.4113 154.009 11.4113 154.084Z" fill="#FFD7E3"/>
<path d="M180.032 87.7793C179.852 87.7793 179.673 87.7494 179.493 87.6895C177.608 87.0911 174.257 86.358 170.697 85.5951C169.919 85.4305 169.111 85.251 168.318 85.0864C164.249 84.2037 160.763 83.71 158.444 83.3809C157.681 83.2762 157.008 83.1714 156.514 83.0966C155.676 82.962 155.063 82.2439 155.063 81.3911V69.1833C155.063 68.6747 155.287 68.1959 155.661 67.8668C156.05 67.5377 156.559 67.388 157.052 67.4778L157.097 67.4928C159.401 67.8518 163.246 68.4502 169.111 69.6172C173.943 70.5746 178.416 71.6368 180.541 72.325C181.259 72.5644 181.737 73.2227 181.737 73.9707V86.0588C181.737 86.6124 181.483 87.136 181.019 87.4651C180.735 87.6746 180.391 87.7793 180.032 87.7793ZM156.798 68.3605C156.604 68.3605 156.409 68.4353 156.26 68.555C156.08 68.7195 155.96 68.9439 155.96 69.1833V81.3911C155.96 81.7951 156.26 82.1541 156.664 82.214C157.142 82.2888 157.815 82.3935 158.578 82.4982C160.897 82.8273 164.413 83.321 168.512 84.2187C169.305 84.3982 170.113 84.5628 170.891 84.7273C174.467 85.4903 177.848 86.2234 179.778 86.8368C180.032 86.9116 180.301 86.8817 180.526 86.7171C180.75 86.5525 180.87 86.3132 180.87 86.0439V73.9557C180.87 73.5967 180.645 73.2675 180.286 73.1628C178.207 72.4896 173.748 71.4274 168.961 70.4849C163.112 69.318 159.267 68.7345 156.978 68.3754L156.933 68.3605C156.888 68.3605 156.843 68.3605 156.798 68.3605Z" fill="#FFD7E3"/>
<path d="M169.068 79.7491C169.872 78.3337 169.376 76.5346 167.961 75.7309C166.545 74.9271 164.746 75.423 163.942 76.8384C163.139 78.2539 163.634 80.0529 165.05 80.8567C166.465 81.6605 168.264 81.1646 169.068 79.7491Z" fill="#FFD7E3"/>
<path d="M170.307 80.2535C170.188 80.2535 170.068 80.2535 169.948 80.2385C169.051 80.1488 168.228 79.6999 167.659 78.9968C167.091 78.2936 166.822 77.396 166.926 76.4984C167.121 74.6283 168.796 73.2669 170.667 73.4763C172.537 73.6708 173.898 75.3464 173.689 77.2165C173.509 78.9519 172.028 80.2535 170.307 80.2535ZM170.307 74.3441C169.036 74.3441 167.959 75.3015 167.824 76.5881C167.674 77.9645 168.677 79.1913 170.053 79.3409C171.43 79.4905 172.656 78.4881 172.806 77.1118C172.955 75.7354 171.953 74.5086 170.577 74.359C170.487 74.3441 170.397 74.3441 170.307 74.3441Z" fill="#FFD7E3"/>
<path d="M200.513 15.939C200.513 15.3406 200.154 14.817 199.601 14.5926C190.684 10.9422 177.534 5.15246 152.55 2.42964C125.621 -0.517593 107.204 0.903662 102.297 1.39736C101.549 1.47216 100.981 2.10051 100.981 2.84853L100.891 51.7995C100.891 52.6672 101.639 53.3404 102.506 53.2507C108.057 52.6822 127.371 51.1412 151.921 54.3727C174.706 57.3798 192.674 63.4388 198.493 65.7876C199.451 66.1766 200.498 65.4734 200.498 64.4412V15.939H200.513Z" fill="white"/>
<path d="M165.55 18.7065L161.197 18.3774C160.957 18.3624 160.778 18.153 160.793 17.9136L161.122 13.5601C161.137 13.3207 161.346 13.1412 161.586 13.1561L165.939 13.4853C166.179 13.5002 166.358 13.7097 166.343 13.9491L166.014 18.3026C166.014 18.5419 165.805 18.7215 165.55 18.7065Z" fill="#8484FC"/>
<path d="M164.623 28.894L160.269 28.5649C160.03 28.5499 159.85 28.3405 159.865 28.1011L160.194 23.7476C160.209 23.5082 160.419 23.3287 160.658 23.3436L165.012 23.6728C165.251 23.6877 165.431 23.8972 165.416 24.1366L165.086 28.4901C165.072 28.7295 164.862 28.9239 164.623 28.894Z" fill="#8484FC"/>
<path d="M163.815 39.2319L159.461 38.9028C159.222 38.8878 159.042 38.6784 159.057 38.439L159.387 34.0855C159.401 33.8461 159.611 33.6666 159.85 33.6815L164.204 34.0107C164.443 34.0256 164.623 34.2351 164.608 34.4744L164.279 38.828C164.264 39.0673 164.054 39.2469 163.815 39.2319Z" fill="#8484FC"/>
<path d="M163.276 49.4204L158.923 49.0912C158.683 49.0763 158.504 48.8668 158.519 48.6275L158.848 44.2739C158.863 44.0346 159.072 43.8551 159.312 43.87L163.665 44.1991C163.905 44.2141 164.084 44.4236 164.069 44.6629L163.74 49.0164C163.725 49.2708 163.516 49.4503 163.276 49.4204Z" fill="#8484FC"/>
<path d="M193.676 24.1376C193.601 24.1376 193.542 24.1226 193.467 24.1077C185.927 21.325 177.743 18.9912 169.141 17.166C168.812 17.0912 168.617 16.777 168.677 16.4628C168.752 16.1337 169.066 15.9392 169.38 15.999C178.042 17.8392 186.286 20.203 193.871 22.9856C194.185 23.1053 194.335 23.4494 194.23 23.7486C194.14 23.988 193.916 24.1376 193.676 24.1376Z" fill="#FF4F89"/>
<path d="M193.676 34.4599C193.601 34.4599 193.541 34.4449 193.467 34.4299C185.927 31.6473 177.743 29.3134 169.141 27.4882C168.812 27.4134 168.617 27.0993 168.677 26.7851C168.752 26.456 169.066 26.2615 169.38 26.3213C178.042 28.1615 186.286 30.5252 193.871 33.3079C194.185 33.4276 194.334 33.7717 194.23 34.0709C194.14 34.3103 193.915 34.4599 193.676 34.4599Z" fill="#FF4F89"/>
<path d="M193.093 44.7675C193.018 44.7675 192.958 44.7525 192.883 44.7376C185.343 41.9698 177.16 39.621 168.557 37.7959C168.228 37.721 168.034 37.4069 168.094 37.0927C168.168 36.7636 168.482 36.5691 168.797 36.6289C177.459 38.4691 185.702 40.8328 193.287 43.6155C193.601 43.7352 193.751 44.0793 193.646 44.3785C193.556 44.6179 193.332 44.7675 193.093 44.7675Z" fill="#FF4F89"/>
<path d="M193.093 55.0897C193.018 55.0897 192.958 55.0748 192.883 55.0598C185.343 52.2772 177.16 49.9433 168.557 48.1181C168.228 48.0433 168.034 47.7291 168.094 47.415C168.168 47.0858 168.482 46.8914 168.797 46.9512C177.459 48.7913 185.702 51.1551 193.287 53.9378C193.601 54.0575 193.751 54.4016 193.646 54.7008C193.556 54.9401 193.332 55.0897 193.093 55.0897Z" fill="#FF4F89"/>
<path d="M140.297 17.2556C140.117 17.2556 139.938 17.1808 139.818 17.0162L134.462 10.0146L126.503 16.2831C126.384 16.3878 126.219 16.4327 126.069 16.4028C125.905 16.3878 125.77 16.2981 125.665 16.1784L122.389 12.0343L115.896 16.7319C115.627 16.9264 115.253 16.8666 115.058 16.5973C114.864 16.328 114.924 15.954 115.193 15.7595L122.15 10.7328C122.404 10.5383 122.778 10.5981 122.973 10.8524L126.234 14.9816L134.193 8.69812C134.313 8.59339 134.477 8.54851 134.642 8.57844C134.806 8.5934 134.941 8.68316 135.046 8.80284L140.432 15.8493L148.675 10.4934C148.959 10.3139 149.318 10.3887 149.498 10.6729C149.677 10.9572 149.602 11.3162 149.318 11.4957L140.611 17.1658C140.521 17.2256 140.417 17.2556 140.297 17.2556Z" fill="#FF4F89"/>
<path d="M116.749 16.5529C116.689 17.3159 116.031 17.8844 115.268 17.8395C114.505 17.7797 113.936 17.1214 113.981 16.3584C114.041 15.5954 114.699 15.0269 115.462 15.0718C116.24 15.1167 116.809 15.775 116.749 16.5529Z" fill="#FFCA60"/>
<path d="M123.795 11.4211C123.735 12.1841 123.077 12.7526 122.314 12.7077C121.551 12.6478 120.983 11.9896 121.028 11.2266C121.087 10.4636 121.746 9.8951 122.509 9.93998C123.287 9.99983 123.855 10.6581 123.795 11.4211Z" fill="#FFCA60"/>
<path d="M127.61 15.8644C127.55 16.6274 126.892 17.1959 126.129 17.151C125.366 17.1062 124.798 16.4329 124.843 15.67C124.902 14.907 125.561 14.3385 126.324 14.3833C127.087 14.4282 127.655 15.1014 127.61 15.8644Z" fill="#FFCA60"/>
<path d="M135.958 9.26678C135.898 10.0298 135.24 10.5983 134.477 10.5534C133.714 10.4935 133.146 9.83528 133.191 9.07229C133.25 8.30931 133.909 7.74081 134.672 7.78569C135.435 7.84553 136.003 8.50379 135.958 9.26678Z" fill="#FFCA60"/>
<path d="M141.688 16.7619C141.628 17.5249 140.97 18.0934 140.207 18.0485C139.444 17.9887 138.876 17.3304 138.92 16.5674C138.98 15.8044 139.639 15.2359 140.402 15.2808C141.165 15.3257 141.748 15.9989 141.688 16.7619Z" fill="#FFCA60"/>
<path d="M150.246 11.1515C150.186 11.9145 149.528 12.483 148.765 12.4382C148.002 12.3783 147.433 11.7201 147.478 10.9571C147.538 10.1941 148.196 9.62557 148.959 9.67045C149.722 9.71533 150.305 10.3886 150.246 11.1515Z" fill="#FFCA60"/>
<path d="M144.516 36.5681C141.389 37.8846 137.783 36.4185 136.467 33.2917C135.15 30.165 136.616 26.5595 139.743 25.243C142.87 23.9264 146.475 25.3926 147.792 28.5193C149.108 31.6461 147.642 35.2516 144.516 36.5681ZM140.401 26.7839C138.127 27.7414 137.065 30.3595 138.023 32.6335C138.98 34.9075 141.598 35.9697 143.872 35.0122C146.146 34.0547 147.209 31.4366 146.251 29.1626C145.294 26.8886 142.675 25.8264 140.401 26.7839Z" fill="#FFCA60"/>
<path d="M141.583 24.7795L141.763 26.4551C143.633 26.2906 145.488 27.3528 146.266 29.178C146.565 29.8661 146.655 30.5992 146.595 31.3024H148.271C148.331 30.3748 148.181 29.4323 147.807 28.5197C146.73 25.9914 144.172 24.5402 141.583 24.7795Z" fill="#8484FC"/>
<path d="M136.661 28.1155L138.128 28.9234C138.591 27.9958 139.369 27.2179 140.402 26.784C140.85 26.5895 141.299 26.4848 141.763 26.4549L141.598 24.7793C140.985 24.8391 140.357 24.9887 139.758 25.2431C138.352 25.8265 137.305 26.8588 136.661 28.1155Z" fill="#FF4F89"/>
<path d="M199.047 66.4903C198.793 66.4903 198.523 66.4454 198.269 66.3407C191.058 63.4384 173.165 57.7683 151.831 54.9557C127.296 51.7242 107.922 53.2801 102.566 53.8337C101.983 53.8935 101.399 53.699 100.98 53.3101C100.547 52.9211 100.307 52.3675 100.307 51.7841L100.397 2.83311C100.397 1.77091 101.19 0.888241 102.252 0.783517C107.264 0.274857 125.71 -1.13144 152.624 1.81579C176.531 4.43389 189.786 9.8945 198.568 13.5C199.002 13.6795 199.421 13.8441 199.825 14.0236C200.603 14.3378 201.097 15.0858 201.097 15.9236V64.4108C201.097 65.099 200.752 65.7273 200.184 66.1163C199.855 66.3706 199.451 66.4903 199.047 66.4903ZM121.476 51.7841C129.869 51.7841 140.357 52.2479 151.996 53.7738C173.449 56.6014 191.462 62.3013 198.718 65.2336C198.987 65.3383 199.286 65.3084 199.526 65.1439C199.765 64.9793 199.9 64.725 199.9 64.4258V15.9386C199.9 15.5945 199.69 15.2803 199.361 15.1457C198.942 14.9811 198.523 14.8016 198.089 14.622C189.382 11.0315 176.217 5.61578 152.475 3.01264C125.665 0.0803691 107.324 1.48666 102.342 1.98036C101.908 2.02524 101.564 2.39926 101.564 2.83311L101.474 51.7841C101.474 52.0384 101.579 52.2628 101.758 52.4274C101.938 52.5919 102.177 52.6668 102.432 52.6518C105.304 52.3526 112.081 51.7841 121.476 51.7841Z" fill="#FFD459"/>
<path d="M119.936 24.7801L120.235 26.4407C122.554 26.1715 124.723 27.7573 125.142 30.0911C125.172 30.2258 125.187 30.3754 125.202 30.51L126.892 31.0785C126.907 30.6596 126.877 30.2258 126.802 29.7919C126.204 26.5455 123.167 24.3463 119.936 24.7801Z" fill="#FFCA60"/>
<path d="M125.202 30.4945C125.396 32.7686 123.825 34.8481 121.536 35.267C119.113 35.7008 116.779 34.0851 116.345 31.6615C115.911 29.2379 117.527 26.904 119.95 26.4702C120.055 26.4552 120.145 26.4402 120.235 26.4253L119.936 24.7646C119.846 24.7796 119.741 24.7946 119.651 24.8095C116.315 25.408 114.101 28.6095 114.699 31.9457C115.298 35.2819 118.499 37.5111 121.835 36.8977C124.738 36.374 126.802 33.8756 126.892 31.0481L125.202 30.4945Z" fill="#8484FC"/>
<path d="M242.926 85.4299C242.642 79.8945 236.254 66.8189 229.387 60.7599C221.323 53.6387 214.351 49.6592 214.351 49.6592L213.589 100.914C213.589 100.914 222.131 104.205 231.766 114.423C241.161 124.372 243.016 134.815 243.016 134.815L242.926 85.4299Z" fill="#8484FC"/>
<path d="M234.459 91.0103C234.384 91.0103 234.324 90.9953 234.249 90.9804C233.935 90.8607 233.77 90.5316 233.89 90.2174C234.563 88.3473 235.97 84.4576 235.192 83.4552C234.593 82.6773 232.873 82.004 231.212 81.3607C229.566 80.7174 228.011 80.104 227.143 79.2812C226.021 78.2041 226.679 76.4686 227.278 74.9576C227.696 73.8804 228.16 72.6686 227.726 72.2647C226.41 71.0828 220.515 71.1277 219.094 72.3096C218.84 72.519 218.466 72.4891 218.256 72.2348C218.047 71.9805 218.077 71.6064 218.331 71.397C220.261 69.7813 226.739 69.7663 228.534 71.3671C229.596 72.3096 228.998 73.8655 228.415 75.3765C227.936 76.6033 227.442 77.8749 227.996 78.4135C228.684 79.0718 230.195 79.6702 231.661 80.2387C233.546 80.9867 235.341 81.6749 236.149 82.7221C237.256 84.1284 236.254 87.2702 235.027 90.6363C234.937 90.8607 234.713 91.0103 234.459 91.0103Z" fill="white"/>
<path d="M218.466 56.4958C218.466 57.0643 218.002 57.5132 217.448 57.5132C216.88 57.5132 216.431 57.0494 216.431 56.4958C216.431 55.9423 216.895 55.4785 217.448 55.4785C218.002 55.4785 218.466 55.9423 218.466 56.4958Z" fill="white"/>
<path d="M185.523 108.769C185.283 108.769 185.074 108.575 185.074 108.335C185.074 106.824 183.847 105.598 182.351 105.598C182.097 105.598 181.902 105.403 181.902 105.149C181.902 104.894 182.097 104.7 182.351 104.7C183.847 104.7 185.074 103.473 185.074 101.977C185.074 101.723 185.268 101.528 185.523 101.528C185.777 101.528 185.971 101.723 185.971 101.977V101.992C185.986 103.488 187.198 104.7 188.694 104.7C188.949 104.7 189.143 104.894 189.143 105.149C189.143 105.403 188.949 105.598 188.694 105.598C187.198 105.598 185.971 106.824 185.971 108.32C185.971 108.56 185.777 108.769 185.523 108.769ZM184.101 105.149C184.7 105.478 185.193 105.972 185.538 106.585C185.867 105.987 186.36 105.493 186.959 105.149C186.36 104.82 185.867 104.326 185.538 103.713C185.193 104.311 184.7 104.805 184.101 105.149Z" fill="#FFE09C"/>
<path d="M168.677 188.404C168.423 188.404 168.228 188.21 168.228 187.955C168.228 186.459 167.001 185.232 165.505 185.232C165.251 185.232 165.057 185.038 165.057 184.784C165.057 184.529 165.251 184.335 165.505 184.335C167.001 184.335 168.228 183.108 168.228 181.612C168.228 181.358 168.423 181.163 168.677 181.163C168.931 181.163 169.126 181.358 169.126 181.612C169.126 183.108 170.353 184.335 171.849 184.335C172.103 184.335 172.297 184.529 172.297 184.784C172.297 185.038 172.103 185.232 171.849 185.232C170.353 185.232 169.126 186.459 169.126 187.955C169.126 188.195 168.931 188.404 168.677 188.404ZM167.256 184.769C167.854 185.098 168.348 185.591 168.677 186.19C169.006 185.591 169.5 185.098 170.098 184.769C169.5 184.439 169.006 183.946 168.677 183.347C168.348 183.946 167.854 184.439 167.256 184.769Z" fill="#FFE09C"/>
<path d="M90.5678 31.528C90.3135 31.528 90.119 31.3335 90.119 31.0792C90.119 29.5831 88.8923 28.3564 87.3962 28.3564C87.1419 28.3564 86.9474 28.1619 86.9474 27.9076C86.9474 27.6532 87.1419 27.4587 87.3962 27.4587C88.8923 27.4587 90.119 26.232 90.119 24.7359C90.119 24.4816 90.3135 24.2871 90.5678 24.2871C90.8222 24.2871 91.0167 24.4816 91.0167 24.7359C91.0167 26.232 92.2434 27.4587 93.7395 27.4587C93.9938 27.4587 94.1883 27.6532 94.1883 27.9076C94.1883 28.1619 93.9938 28.3564 93.7395 28.3564C92.2434 28.3564 91.0167 29.5831 91.0167 31.0792C91.0167 31.3186 90.8072 31.528 90.5678 31.528ZM89.1316 27.8926C89.73 28.2217 90.2237 28.7154 90.5529 29.3139C90.882 28.7154 91.3757 28.2217 91.9741 27.8926C91.3757 27.5635 90.882 27.0698 90.5529 26.4714C90.2387 27.0698 89.73 27.5635 89.1316 27.8926Z" fill="#FFE09C"/>
<path d="M79.6616 77.5173C79.4073 77.5173 79.2128 77.3228 79.2128 77.0685C79.2128 75.5724 77.986 74.3456 76.49 74.3456C76.2356 74.3456 76.0411 74.1512 76.0411 73.8968C76.0411 73.6425 76.2356 73.448 76.49 73.448C77.986 73.448 79.2128 72.2212 79.2128 70.7252C79.2128 70.4709 79.4073 70.2764 79.6616 70.2764C79.9159 70.2764 80.1104 70.4709 80.1104 70.7252C80.1104 72.2212 81.3372 73.448 82.8332 73.448C83.0876 73.448 83.2821 73.6425 83.2821 73.8968C83.2821 74.1512 83.0876 74.3456 82.8332 74.3456C81.3372 74.3456 80.1104 75.5724 80.1104 77.0685C80.1104 77.3228 79.901 77.5173 79.6616 77.5173ZM78.2254 73.8968C78.8238 74.226 79.3175 74.7197 79.6466 75.3181C79.9758 74.7197 80.4695 74.226 81.0679 73.8968C80.4695 73.5677 79.9758 73.074 79.6466 72.4756C79.3175 73.074 78.8238 73.5677 78.2254 73.8968Z" fill="#FFE09C"/>
<path d="M33.7477 146.694C33.4933 146.694 33.2988 146.5 33.2988 146.245C33.2988 144.749 32.0721 143.522 30.576 143.522C30.3217 143.522 30.1272 143.328 30.1272 143.074C30.1272 142.819 30.3217 142.625 30.576 142.625C32.0721 142.625 33.2988 141.398 33.2988 139.902C33.2988 139.648 33.4933 139.453 33.7477 139.453C34.002 139.453 34.1965 139.648 34.1965 139.902C34.1965 141.398 35.4232 142.625 36.9193 142.625C37.1736 142.625 37.3681 142.819 37.3681 143.074C37.3681 143.328 37.1736 143.522 36.9193 143.522C35.4232 143.522 34.1965 144.749 34.1965 146.245C34.1965 146.5 34.002 146.694 33.7477 146.694ZM32.3264 143.074C32.9248 143.403 33.4185 143.896 33.7477 144.495C34.0768 143.896 34.5705 143.403 35.1689 143.074C34.5705 142.744 34.0768 142.251 33.7477 141.652C33.4185 142.251 32.9248 142.744 32.3264 143.074Z" fill="#FFE09C"/>
<path d="M228.295 50.2731C228.04 50.2731 227.846 50.0787 227.846 49.8243C227.846 48.3283 226.619 47.1015 225.123 47.1015C224.869 47.1015 224.674 46.907 224.674 46.6527C224.674 46.3984 224.869 46.2039 225.123 46.2039H225.138C226.634 46.1889 227.846 44.9771 227.846 43.481C227.846 43.2267 228.04 43.0322 228.295 43.0322C228.549 43.0322 228.744 43.2267 228.744 43.481C228.744 44.9771 229.97 46.2039 231.466 46.2039C231.721 46.2039 231.915 46.3984 231.915 46.6527C231.915 46.907 231.721 47.1015 231.466 47.1015H231.451C229.955 47.1165 228.744 48.3283 228.744 49.8243C228.744 50.0787 228.534 50.2731 228.295 50.2731ZM226.859 46.6527C227.457 46.9818 227.951 47.4755 228.295 48.0889C228.624 47.4905 229.118 46.9968 229.716 46.6676C229.118 46.3385 228.624 45.8448 228.295 45.2314C227.966 45.8299 227.457 46.3236 226.859 46.6527Z" fill="#FFE09C"/>
<path d="M1.61239 68.3896C1.61239 68.3896 0.74468 90.8754 0.954128 107.541C1.02893 114.034 1.70215 120.422 2.94388 123.519C7.08796 133.797 16.947 141.726 20.7021 144.868C22.2729 146.185 22.9312 146.364 23.5147 146.663C23.769 146.798 25.2501 145.811 25.2501 145.526V97.4131C25.2501 96.725 24.9359 96.0667 24.3824 95.6328C20.1186 92.2517 5.98088 82.2282 1.61239 68.3896Z" fill="#FFD459"/>
<path d="M22.5721 98.3858C22.5721 98.9543 22.1083 99.4032 21.5548 99.4032C20.9863 99.4032 20.5375 98.9394 20.5375 98.3858C20.5375 97.8173 21.0013 97.3685 21.5548 97.3685C22.1233 97.3536 22.5721 97.8173 22.5721 98.3858Z" fill="white"/>
<path d="M22.5721 141.143C22.5721 141.711 22.1083 142.16 21.5548 142.16C20.9863 142.16 20.5375 141.696 20.5375 141.143C20.5375 140.589 21.0013 140.125 21.5548 140.125C22.1233 140.11 22.5721 140.574 22.5721 141.143Z" fill="white"/>
<path d="M13.9847 118.881C13.9548 118.881 13.9398 118.881 13.9099 118.881C13.4162 118.866 12.9824 118.657 12.6682 118.298C11.9202 117.445 12.1595 115.485 12.6083 112.358C12.9076 110.264 13.3564 107.092 12.728 106.524C12.2643 106.105 11.4115 106.943 10.3344 108.065C9.28711 109.172 8.19498 110.309 7.14774 109.651C5.18791 108.394 5.532 103.068 5.99578 101.153C6.07059 100.839 6.39972 100.629 6.71389 100.719C7.02806 100.794 7.23751 101.123 7.14774 101.437C6.60916 103.651 6.66901 107.93 7.77609 108.633C8.06034 108.693 8.97294 107.736 9.45167 107.227C10.0351 106.614 10.6336 105.985 11.2469 105.596C12.3241 104.908 13.0721 105.222 13.506 105.611C14.5383 106.539 14.2989 108.828 13.7753 112.508C13.521 114.303 13.132 117.011 13.5509 117.505C13.6107 117.58 13.7154 117.669 13.9398 117.669C14.8973 117.699 16.6477 116.338 17.5304 115.47C17.7697 115.231 18.1438 115.246 18.3831 115.47C18.6225 115.71 18.6075 116.084 18.3831 116.323C18.1288 116.592 15.765 118.881 13.9847 118.881Z" fill="white"/>
<path d="M23.8139 147.381C23.4099 147.381 23.006 147.262 22.6469 147.022C19.7147 145.018 14.0895 140.784 9.25724 134.994C3.36278 127.948 0.38562 120.737 0.38562 113.556V61.5975C0.38562 54.8951 1.55254 49.5393 4.05096 44.707C6.45961 40.0543 10.1997 35.6409 16.1541 30.4047C25.1304 22.5205 36.5154 16.252 50.9822 11.2103C59.8987 8.11346 69.3239 5.83946 72.9743 5.00166C73.5877 4.86702 74.216 5.00166 74.7097 5.4056C75.2034 5.79457 75.4877 6.37804 75.4877 7.02134V56.0621C75.4877 57.0345 74.7995 57.8723 73.857 58.0817C70.805 58.725 60.1531 61.0589 51.1319 64.3951C34.9894 70.3644 24.2178 76.7076 14.1493 86.1627C17.306 89.2895 21.0462 92.3564 24.9958 95.0343C25.5643 95.4083 25.8934 96.0517 25.8934 96.7249V145.317C25.8934 146.08 25.4745 146.783 24.8013 147.142C24.4721 147.307 24.143 147.381 23.8139 147.381ZM1.58247 69.1675V113.556C1.58247 129.399 16.7974 141.547 23.3351 146.035C23.6044 146.214 23.9336 146.244 24.2178 146.095C24.5021 145.945 24.6816 145.661 24.6816 145.332V96.7249C24.6816 96.4406 24.5469 96.1713 24.3076 96.0217C20.1186 93.1792 16.1541 89.9178 12.8478 86.5667C8.61393 82.3029 3.78167 76.2289 1.58247 69.1675ZM1.58247 61.5975C1.58247 71.2022 7.85094 79.7297 13.2816 85.31C23.4847 75.7202 34.376 69.3022 50.698 63.2731C59.794 59.9069 70.5208 57.5432 73.5877 56.8999C73.9766 56.8101 74.2758 56.466 74.2758 56.0621V7.02134C74.2758 6.75205 74.1562 6.51268 73.9467 6.34811C73.7373 6.18355 73.4829 6.12371 73.2137 6.18355C69.5932 7.00638 60.198 9.26543 51.3563 12.3473C37.054 17.3292 25.7887 23.5378 16.932 31.3173C5.45725 41.3858 1.58247 49.0306 1.58247 61.5975Z" fill="#8484FC"/>
<path d="M12.0997 78.8022C11.9501 78.8022 11.8005 78.7423 11.6808 78.6376C11.4415 78.4132 11.4415 78.0242 11.6659 77.7848C16.4832 72.7581 22.6918 68.0904 30.1422 63.9014C30.4264 63.7369 30.8004 63.8416 30.95 64.1259C31.1146 64.4101 31.0099 64.7841 30.7256 64.9337C23.395 69.0628 17.2611 73.6707 12.5336 78.6077C12.4139 78.7423 12.2493 78.8022 12.0997 78.8022Z" fill="#1F296F"/>
<path d="M55.2011 28.535L49.2617 27.5027C49.4412 26.4555 49.8901 25.483 50.5783 24.6752C51.2515 23.8673 52.1342 23.2389 53.1365 22.8799L55.2011 28.535Z" fill="#8484FC"/>
<path d="M58.1332 37.6617C57.7592 37.6617 57.3702 37.6318 56.9962 37.557C53.5254 36.9436 51.0868 33.6224 51.5805 30.1216C51.5955 29.957 51.6852 29.8224 51.8049 29.7326C51.9246 29.6429 52.0892 29.598 52.2537 29.6129L57.1907 30.3011L55.3057 25.6783C55.2458 25.5287 55.2458 25.3641 55.3057 25.2145C55.3655 25.0649 55.4852 24.9453 55.6348 24.8854C56.7868 24.4216 58.0435 24.287 59.2702 24.4964C62.8757 25.1248 65.2844 28.5657 64.656 32.1562C64.1025 35.3877 61.2899 37.6617 58.1332 37.6617ZM52.7025 30.8846C52.6427 33.5177 54.5427 35.9113 57.1907 36.3751C60.1379 36.8838 62.9505 34.909 63.4741 31.9618C63.7285 30.5405 63.3993 29.1043 62.5615 27.9074C61.7238 26.7106 60.482 25.9177 59.0608 25.6783C58.2529 25.5437 57.4301 25.5736 56.6521 25.798L58.6868 30.7948C58.7616 30.9893 58.7316 31.2137 58.612 31.3933C58.4773 31.5578 58.2679 31.6476 58.0584 31.6177L52.7025 30.8846Z" fill="#FF4F89"/>
<path d="M70.4161 13.3495C71.2671 13.3495 71.957 12.6596 71.957 11.8085C71.957 10.9575 71.2671 10.2676 70.4161 10.2676C69.565 10.2676 68.8751 10.9575 68.8751 11.8085C68.8751 12.6596 69.565 13.3495 70.4161 13.3495Z" fill="#FFCA60"/>
<path d="M71.9515 52.1311C72.0874 51.291 71.5165 50.4997 70.6764 50.3638C69.8362 50.2279 69.045 50.7988 68.9091 51.6389C68.7731 52.4791 69.344 53.2703 70.1842 53.4062C71.0243 53.5422 71.8156 52.9713 71.9515 52.1311Z" fill="#FFCA60"/>
<path d="M12.5336 51.7674C12.384 51.7674 12.2344 51.7076 12.1297 51.6029C11.8903 51.3784 11.8754 51.0044 12.0998 50.7501C16.2139 46.3966 21.4053 42.2824 27.5241 38.5273C27.8084 38.3478 28.1674 38.4376 28.347 38.7218C28.5265 39.0061 28.4367 39.3651 28.1525 39.5446C22.1234 43.2399 17.0218 47.2942 12.9675 51.5729C12.8478 51.7076 12.6982 51.7674 12.5336 51.7674Z" fill="#FF4F89"/>
<path d="M15.1217 71.5166C15.0768 71.5166 15.0319 71.5166 14.9721 71.5016C14.6579 71.4268 14.4485 71.0977 14.5382 70.7835L16.8871 61.2835C16.9469 61.0442 17.1563 60.8646 17.3957 60.8347C17.65 60.8048 17.8894 60.9394 17.9941 61.1639L19.8792 64.8442L22.1382 52.5166C22.1831 52.2474 22.4225 52.0379 22.7067 52.023C22.991 52.008 23.2303 52.2025 23.3051 52.4718L25.3846 60.4457L28.7358 46.7419C28.8106 46.4277 29.1398 46.2183 29.4539 46.308C29.7681 46.3828 29.9775 46.712 29.8878 47.0261L25.9681 63.0339C25.9083 63.3032 25.6689 63.4827 25.3846 63.4977C25.1154 63.4977 24.876 63.3182 24.8012 63.0489L22.7965 55.404L20.717 66.804C20.6721 67.0583 20.4626 67.2528 20.2083 67.2827C19.954 67.3276 19.6996 67.193 19.5949 66.9686L17.6351 63.1386L15.6752 71.0827C15.6304 71.337 15.391 71.5166 15.1217 71.5166Z" fill="#FFCA60"/>
<path d="M12.0998 78.8024C11.7706 78.8024 11.5013 78.5331 11.5013 78.204V58.3064C11.5013 57.9773 11.7706 57.708 12.0998 57.708C12.4289 57.708 12.6982 57.9773 12.6982 58.3064V78.204C12.6982 78.5331 12.4289 78.8024 12.0998 78.8024Z" fill="#1F296F"/>
<path d="M36.0518 66.5506L36.3061 72.5497L56.9068 64.0521L55.68 59.0254L36.0518 66.5506Z" fill="white"/>
<path d="M235.237 98.3565C234.459 97.4738 233.112 97.3841 232.215 98.162C233.097 97.3841 233.187 96.0376 232.409 95.14C231.631 94.2573 230.285 94.1676 229.387 94.9455C230.27 94.1676 230.36 92.8211 229.582 91.9235C228.804 91.0408 227.457 90.951 226.56 91.729C227.442 90.951 227.532 89.6046 226.754 88.707C225.976 87.8243 224.63 87.7345 223.732 88.5125C223.732 88.5125 221.398 90.1731 219.064 92.4321L219.005 92.4471C218.795 91.4597 217.523 88.6471 216.192 89.1258C214.651 89.6943 214.786 92.5967 215.07 94.8557L214.651 95.9329L209.729 100.107L212.347 127.53C212.347 127.53 218.227 120.842 220.755 117.641C222.864 114.948 227.607 109.053 229.208 106.42C231.302 104.356 233.427 102.516 234.893 101.289C235.82 100.526 236.015 99.2392 235.237 98.3565Z" fill="white"/>
<path d="M107.518 49.8838V54.6562L130.767 54.8507L129.465 50.2279L107.518 49.8838Z" fill="white"/>
<path d="M137.41 38.1246C138.577 36.5537 140.895 33.4419 147.328 31.5868C154.375 29.5671 159.671 31.9608 165.73 30.9734C171.4 30.0608 176.935 25.5876 181.902 25.2435C186.929 24.8994 194.215 29.5522 192.255 34.8033C190.639 39.1419 186.106 39.5907 177.25 40.9222C172.163 41.6852 161.481 48.208 155.662 48.7615C149.288 49.36 141.24 47.3702 138.158 45.5749C134.058 43.2112 137.41 38.1246 137.41 38.1246Z" fill="#1F296F"/>
<path d="M139.658 47.357C141.767 45.2478 141.767 41.8283 139.658 39.7192C137.549 37.6101 134.129 37.6101 132.02 39.7192C129.911 41.8283 129.911 45.2479 132.02 47.357C134.129 49.4661 137.549 49.4661 139.658 47.357Z" fill="#FF4F89"/>
<path d="M123.182 73.7904H115.268C111.812 73.7904 109.807 72.2645 108.73 70.9778C107.533 69.5566 106.8 67.6416 106.74 65.7416C106.696 64.2606 106.711 62.7944 106.74 61.5976C106.755 60.5054 106.785 59.2637 106.696 59.0094C106.651 58.9196 106.426 58.5157 106.232 58.1716C104.825 55.733 104.242 54.5362 104.541 53.833C104.646 53.5937 104.84 53.4141 105.095 53.3543C105.693 53.2047 106.351 53.6086 106.905 54.1023V50.5118C106.905 44.5425 108.955 41.5654 113.772 40.563C114.101 40.4882 114.415 40.6977 114.475 41.0268C114.55 41.3559 114.34 41.6701 114.011 41.7299C109.807 42.5977 108.102 45.1559 108.102 50.5118V55.6433C108.102 55.8976 107.937 56.122 107.698 56.2118C107.459 56.2866 107.189 56.2118 107.025 56.0023C106.636 55.4937 106.142 54.985 105.783 54.7157C106.097 55.5385 106.92 56.9448 107.264 57.5582C107.593 58.1118 107.743 58.381 107.818 58.5606C107.982 58.9795 107.967 59.8023 107.937 61.6125C107.907 62.7794 107.892 64.2456 107.937 65.6818C108.027 68.0605 109.658 72.5786 115.283 72.5786H123.197C123.526 72.5786 123.795 72.8479 123.795 73.177C123.795 73.5062 123.526 73.7904 123.182 73.7904Z" fill="#1F296F"/>
<path d="M111.303 52.4723C111.303 53.2652 111.049 53.8935 110.735 53.8935C110.421 53.8935 110.166 53.2502 110.166 52.4723C110.166 51.6794 110.421 51.051 110.735 51.051C111.049 51.0361 111.303 51.6794 111.303 52.4723Z" fill="#1F296F"/>
<path d="M112.306 49.9138C112.201 49.9138 112.096 49.8989 111.992 49.839L109.972 48.9115C109.598 48.7469 109.433 48.2981 109.598 47.9241C109.762 47.5501 110.211 47.3855 110.585 47.5501L112.605 48.4776C112.979 48.6422 113.144 49.091 112.979 49.465C112.859 49.7493 112.59 49.9138 112.306 49.9138Z" fill="#1F296F"/>
<path d="M111.438 60.4759C111.318 60.4161 111.333 60.2515 111.453 60.2066C111.812 60.0869 112.38 59.8176 112.859 59.2641C113.278 58.7854 113.488 57.9326 113.562 57.4838C113.592 57.3641 113.742 57.3192 113.817 57.4239C114.206 57.9027 114.924 59.0546 114.236 60.2515C113.607 61.3436 112.111 60.805 111.438 60.4759Z" fill="#1F296F"/>
<path d="M114.445 54.9406H112.829C112.575 54.9406 112.38 54.7461 112.38 54.4918C112.38 54.2375 112.575 54.043 112.829 54.043H114.445C114.699 54.043 114.894 54.2375 114.894 54.4918C114.894 54.7312 114.684 54.9406 114.445 54.9406Z" fill="#FF4F89"/>
<path d="M110.166 24.96C105.229 24.96 103.284 28.6702 103.823 32.904C104.317 36.8835 107.563 39.4567 111.303 40.8032C116.39 42.6134 119.621 42.8678 122.539 45.3362C125.486 47.8347 127.461 53.8937 128.194 56.5716C130.019 63.3637 134.717 65.7125 134.717 65.7125C134.717 65.7125 141.209 48.9866 136.407 42.4189C132.592 37.2276 128.628 37.0631 121.895 34.1906C116.405 31.8717 115.866 24.96 110.166 24.96Z" fill="#1F296F"/>
<path d="M128.957 61.5084C128.703 61.5084 128.508 61.3139 128.508 61.0596C128.508 60.3564 127.341 58.4714 126.593 57.4391C126.443 57.2446 126.488 56.9604 126.698 56.8107C126.892 56.6611 127.177 56.706 127.326 56.9155C127.67 57.3942 129.406 59.8777 129.406 61.0596C129.406 61.3139 129.211 61.5084 128.957 61.5084Z" fill="#8484FC"/>
<path d="M125.052 53.729C125.456 53.2054 126.04 52.8313 126.728 52.7266C128.179 52.4872 129.555 53.4597 129.795 54.9258C130.034 56.377 129.062 57.7534 127.595 57.9927C127.162 58.0675 126.728 58.0227 126.324 57.903L125.052 53.729Z" fill="white"/>
<path d="M127.162 58.6213C126.818 58.6213 126.473 58.5615 126.144 58.4567C125.83 58.352 125.666 58.0229 125.755 57.7087C125.86 57.3945 126.189 57.23 126.503 57.3197C126.818 57.4245 127.147 57.4544 127.491 57.3945C128.029 57.3048 128.508 57.0056 128.837 56.5567C129.151 56.1079 129.286 55.5544 129.196 55.0158C129.002 53.8938 127.94 53.1308 126.818 53.3103C126.294 53.4001 125.83 53.6694 125.516 54.0883C125.321 54.3575 124.932 54.4024 124.678 54.193C124.409 53.9985 124.364 53.6095 124.573 53.3552C125.082 52.6969 125.8 52.2631 126.623 52.1284C128.403 51.8292 130.079 53.041 130.378 54.8064C130.528 55.6741 130.318 56.5268 129.81 57.2449C129.301 57.9481 128.553 58.4268 127.685 58.5615C127.521 58.6063 127.341 58.6213 127.162 58.6213Z" fill="#1F296F"/>
<path d="M127.281 56.7216C127.176 56.7216 127.057 56.6768 126.967 56.6019C126.399 56.0634 126.369 55.1807 126.877 54.1783C126.982 53.9539 127.251 53.8642 127.476 53.9838C127.7 54.0886 127.79 54.3579 127.67 54.5823C127.58 54.7468 127.191 55.5846 127.58 55.9586C127.76 56.1232 127.76 56.4075 127.595 56.587C127.506 56.6768 127.386 56.7216 127.281 56.7216Z" fill="#1F296F"/>
<path d="M126.967 63.5125C125.62 63.5125 124.528 62.4204 124.528 61.0739C124.528 59.8921 126.264 57.4086 126.608 56.9299C126.757 56.7354 127.027 56.6755 127.236 56.8251C127.431 56.9747 127.491 57.244 127.341 57.4535C126.608 58.4858 125.426 60.3858 125.426 61.0739C125.426 61.9267 126.114 62.6149 126.967 62.6149C127.82 62.6149 128.508 61.9267 128.508 61.0739C128.508 60.8196 128.702 60.6251 128.957 60.6251C129.211 60.6251 129.405 60.8196 129.405 61.0739C129.405 62.4054 128.313 63.5125 126.967 63.5125Z" fill="#8484FC"/>
<path d="M64.7462 97.9523C64.6415 97.9523 64.5367 97.9224 64.447 97.8775C64.2974 97.7877 64.1926 97.6531 64.1627 97.4885C64.1029 97.2342 58.3431 72.1453 54.4683 56.6013C54.3935 56.2871 54.588 55.958 54.9021 55.8832C55.2163 55.8084 55.5454 56.0029 55.6202 56.3171C59.1509 70.4997 64.2525 92.5815 65.18 96.5909C66.8855 96.0523 71.8973 94.5263 77.6272 93.135C77.9414 93.0602 78.2705 93.2547 78.3453 93.5689C78.4201 93.883 78.2256 94.2122 77.9115 94.287C70.9249 95.9775 65.0005 97.8925 64.9407 97.9074C64.8659 97.9523 64.806 97.9523 64.7462 97.9523Z" fill="#1F296F"/>
<path d="M114.146 85.4907C114.011 85.4907 113.877 85.4458 113.757 85.3411C113.503 85.1316 113.473 84.7427 113.682 84.5033C116.584 81.0923 118.185 75.8411 118.185 73.5223C118.185 73.1931 118.454 72.9238 118.784 72.9238C119.113 72.9238 119.382 73.1931 119.382 73.5223C119.382 76.0955 117.721 81.601 114.595 85.2812C114.49 85.4159 114.325 85.4907 114.146 85.4907Z" fill="#1F296F"/>
<path d="M138.367 86.014C138.173 86.014 137.978 85.9093 137.858 85.7298C134.073 79.6259 133.669 69.348 133.669 65.2039C133.669 64.8748 133.939 64.6055 134.268 64.6055C134.597 64.6055 134.866 64.8748 134.866 65.2039C134.866 69.2432 135.255 79.2668 138.876 85.1014C139.055 85.3857 138.965 85.7447 138.681 85.9243C138.591 85.9841 138.472 86.014 138.367 86.014Z" fill="#1F296F"/>
<path d="M179.06 126.706C179.015 126.706 178.97 126.706 178.91 126.691C178.731 126.647 178.566 126.512 178.491 126.332C178.476 126.288 176.89 122.413 174.198 117.476C174.033 117.191 174.153 116.817 174.437 116.668C174.721 116.503 175.095 116.623 175.245 116.907C177.279 120.617 178.686 123.744 179.284 125.121L214.801 95.0499C215.055 94.8404 215.429 94.8703 215.638 95.1247C215.848 95.379 215.818 95.753 215.564 95.9625L179.419 126.557C179.344 126.662 179.209 126.706 179.06 126.706Z" fill="#1F296F"/>
<path d="M118.589 73.3721L118.29 77.7854L123.481 73.7012L118.589 73.3721Z" fill="#1F296F"/>
<path d="M217.882 94.2863C217.733 94.2863 217.598 94.2264 217.478 94.1217C217.239 93.8973 217.224 93.5233 217.449 93.269C220.022 90.4863 223.089 88.2721 223.403 88.0328C223.941 87.569 224.645 87.3296 225.363 87.3745C226.096 87.4194 226.754 87.7485 227.233 88.302C227.711 88.8556 227.951 89.5587 227.906 90.2768C227.861 91.0099 227.532 91.6682 226.978 92.1469C226.724 92.3713 226.35 92.3414 226.141 92.0871C225.916 91.8327 225.946 91.4587 226.2 91.2493C226.515 90.98 226.694 90.606 226.724 90.1871C226.754 89.7831 226.619 89.3792 226.35 89.065C226.081 88.7509 225.707 88.5713 225.288 88.5414C224.884 88.5115 224.48 88.6461 224.166 88.9154C224.151 88.9304 224.136 88.9453 224.121 88.9603C224.091 88.9902 220.904 91.2493 218.316 94.0469C218.212 94.2115 218.047 94.2863 217.882 94.2863Z" fill="#1F296F"/>
<path d="M220.486 97.683C220.351 97.683 220.201 97.6381 220.097 97.5333C219.842 97.3239 219.812 96.9349 220.037 96.6956C222.401 93.9428 225.871 91.5042 226.23 91.2499C227.367 90.2775 229.073 90.3972 230.06 91.5342C230.539 92.0877 230.778 92.7908 230.734 93.509C230.689 94.242 230.36 94.9003 229.806 95.379C229.552 95.6034 229.178 95.5735 228.968 95.3192C228.744 95.0649 228.774 94.6908 229.028 94.4814C229.342 94.2121 229.522 93.8381 229.552 93.4192C229.582 93.0153 229.447 92.6113 229.178 92.2971C228.624 91.6538 227.652 91.594 227.008 92.1475C226.993 92.1625 226.979 92.1775 226.949 92.1924C226.919 92.2223 223.298 94.7208 220.949 97.4436C220.815 97.6231 220.65 97.683 220.486 97.683Z" fill="#1F296F"/>
<path d="M223.298 100.9C223.164 100.9 223.029 100.855 222.909 100.765C222.655 100.555 222.625 100.181 222.835 99.9271C225.109 97.2342 228.654 94.7358 229.043 94.4815C229.582 94.0177 230.285 93.7783 231.003 93.8382C231.736 93.883 232.394 94.2122 232.873 94.7657C233.352 95.3193 233.591 96.0224 233.546 96.7405C233.501 97.4586 233.172 98.1318 232.619 98.6106C232.364 98.835 231.99 98.8051 231.781 98.5507C231.557 98.2964 231.586 97.9224 231.841 97.7129C232.155 97.4437 232.334 97.0696 232.364 96.6507C232.394 96.2468 232.26 95.8429 231.99 95.5287C231.721 95.2145 231.347 95.035 230.928 95.0051C230.524 94.9752 230.12 95.1098 229.806 95.3791C229.791 95.3941 229.776 95.409 229.746 95.424C229.716 95.4539 225.991 98.0122 223.747 100.675C223.627 100.825 223.463 100.9 223.298 100.9Z" fill="#1F296F"/>
<path d="M215.204 96.1127C214.905 96.1127 214.651 95.9032 214.606 95.604C214.187 92.7316 213.978 89.3206 216.027 88.5726C216.461 88.408 216.925 88.4529 217.374 88.7072C218.66 89.4253 219.498 91.6395 219.633 92.3277C219.708 92.6568 219.498 92.971 219.169 93.0308C218.84 93.1056 218.526 92.8962 218.466 92.567C218.316 91.834 217.538 90.1584 216.79 89.7395C216.611 89.6348 216.506 89.6647 216.446 89.6796C215.519 90.0237 215.309 91.9537 215.803 95.4095C215.848 95.7387 215.623 96.0379 215.294 96.0828C215.264 96.1127 215.234 96.1127 215.204 96.1127Z" fill="#1F296F"/>
<path d="M180.062 151.57C178.506 151.57 176.936 151.331 175.35 150.852C170.981 149.536 166.523 146.514 160.883 141.053C160.643 140.829 160.643 140.44 160.868 140.2C161.092 139.961 161.481 139.961 161.721 140.185C171.161 149.326 179.569 153.979 189.921 146.963C205.944 136.116 215.04 123.983 222.356 114.244C224.48 111.416 226.485 108.753 228.475 106.33C230.449 103.936 234.279 101.168 234.668 100.884C234.968 100.615 235.147 100.241 235.162 99.8517C235.192 99.4478 235.057 99.0439 234.788 98.7297C234.234 98.0864 233.262 98.0265 232.619 98.5801C232.604 98.595 232.604 98.595 232.589 98.61C232.544 98.6399 228.699 101.587 226.545 103.906C226.32 104.145 225.946 104.16 225.692 103.936C225.453 103.712 225.438 103.338 225.662 103.083C227.831 100.734 231.527 97.9069 231.841 97.6675C232.978 96.6951 234.698 96.7998 235.686 97.9368C236.164 98.4903 236.404 99.1935 236.359 99.9116C236.314 100.645 235.985 101.303 235.431 101.782C235.416 101.797 235.401 101.812 235.386 101.812C235.342 101.841 231.332 104.714 229.387 107.063C227.412 109.456 225.408 112.119 223.298 114.932C215.938 124.746 206.767 136.969 190.58 147.92C187.034 150.374 183.548 151.57 180.062 151.57Z" fill="#1F296F"/>
<path d="M55.0369 57.0649C54.7676 57.0649 54.5133 56.8704 54.4534 56.5862C54.3786 56.257 54.5881 55.9429 54.9172 55.883C56.0542 55.6437 58.1936 53.9232 59.0463 52.2476C59.2857 51.7988 59.5101 51.1555 59.3007 50.6917C58.8219 49.5846 56.1739 50.1232 54.9771 50.5571C54.6629 50.6618 54.3188 50.5122 54.2141 50.198C54.1094 49.8838 54.259 49.5398 54.5731 49.435C55.0519 49.2555 59.3455 47.7894 60.4077 50.213C60.7219 50.9311 60.6172 51.8287 60.1235 52.8012C59.1511 54.6862 56.8023 56.7059 55.1865 57.05C55.1267 57.05 55.0818 57.0649 55.0369 57.0649Z" fill="#1F296F"/>
<path d="M33.7479 39.0674L63.1006 50.3626L61.4848 54.4917L32.1621 43.2264L33.7479 39.0674Z" fill="#8484FC"/>
<path d="M32.2817 43.9C32.1321 43.9 31.9825 43.8402 31.8778 43.7355L27.5542 39.6662C27.5392 39.6512 27.5392 39.6512 27.5243 39.6363C27.3298 39.4268 27.2699 39.1276 27.3896 38.8583C27.4943 38.589 27.7487 38.4095 28.0329 38.3945C28.0479 38.3945 28.0628 38.3945 28.0928 38.3945L33.7778 38.604C33.9723 38.604 34.1368 38.7087 34.2565 38.8733C34.3612 39.0378 34.3912 39.2323 34.3313 39.4119L32.8652 43.511C32.7904 43.7055 32.6408 43.8402 32.4463 43.8851C32.3864 43.9 32.3416 43.9 32.2817 43.9ZM29.2746 39.6363L32.0424 42.2394L32.925 39.7709L29.2746 39.6363Z" fill="#FF4F89"/>
<path d="M64.2674 55.7792C64.1028 55.7792 63.9382 55.7492 63.7737 55.6894L61.4099 54.7469C61.1107 54.6272 60.9461 54.2831 61.0658 53.9689L62.4422 50.4083C62.502 50.2587 62.6067 50.139 62.7564 50.0792C62.906 50.0193 63.0705 50.0193 63.2201 50.0642L65.5689 50.9918C66.2721 51.2611 66.6311 52.054 66.3619 52.7571L65.5689 54.8516C65.4493 55.1957 65.18 55.4799 64.8359 55.6295C64.6563 55.7343 64.4619 55.7792 64.2674 55.7792ZM62.3973 53.8492L64.2075 54.5673C64.2674 54.5973 64.3272 54.5673 64.3422 54.5673C64.3721 54.5524 64.417 54.5225 64.4469 54.4626L65.2398 52.3681C65.2697 52.2784 65.2248 52.1737 65.1201 52.1288L63.3249 51.4256L62.3973 53.8492Z" fill="#FF4F89"/>
<path d="M40.4354 41.5813L38.3259 46.1143L42.6944 47.5206L44.6393 42.7931C44.6393 42.7931 44.4149 41.4018 43.2629 40.9679C42.1558 40.549 40.7047 41.0726 40.4354 41.5813Z" fill="white"/>
<path d="M44.3849 42.9126L42.2755 47.4456L46.644 48.8519L48.5889 44.1244C48.5889 44.1244 48.3645 42.7331 47.2125 42.2992C46.1054 41.8803 44.6542 42.389 44.3849 42.9126Z" fill="white"/>
<path d="M48.3345 44.334L46.2251 48.867L50.6235 50.4977L52.5534 45.5607C52.5534 45.5607 52.329 44.1694 51.177 43.7355C50.055 43.3017 48.6038 43.8253 48.3345 44.334Z" fill="white"/>
<path d="M52.4188 45.7844L50.3093 50.3175L54.3337 52.5615L56.6227 46.9962C56.6227 46.9962 56.3983 45.6049 55.2463 45.171C54.1392 44.7521 52.6881 45.2757 52.4188 45.7844Z" fill="white"/>
<path d="M45.9707 51.5454C45.9407 51.5454 45.9108 51.5454 45.8659 51.5304C45.5368 51.4706 45.3274 51.1713 45.3722 50.8422C45.8211 48.1643 46.599 46.7281 47.2274 45.5761C47.3919 45.2769 47.5415 45.0076 47.6762 44.7233C47.8557 44.3344 47.7809 43.9753 47.6911 43.7359C47.5266 43.3171 47.1526 42.973 46.7337 42.8234C45.7762 42.4793 44.9833 43.4517 44.699 43.8856C43.8163 45.1871 42.9935 46.6084 42.5597 49.6005C42.5148 49.9296 42.2006 50.154 41.8864 50.1091C41.5573 50.0643 41.3329 49.7501 41.3778 49.4359C41.8565 46.2044 42.799 44.5887 43.7116 43.2273C44.6392 41.836 45.9258 41.2675 47.1376 41.7013C47.8856 41.9706 48.514 42.569 48.7982 43.2871C49.0675 43.9454 49.0525 44.6485 48.7533 45.247C48.6037 45.5462 48.4541 45.8454 48.2896 46.1446C47.6762 47.2816 46.988 48.5682 46.5691 51.0517C46.5092 51.3359 46.2549 51.5454 45.9707 51.5454Z" fill="#1F296F"/>
<path d="M49.9951 52.9958C49.9503 52.9958 49.9203 52.9958 49.8755 52.9809C49.5463 52.921 49.3369 52.6068 49.4117 52.2777C49.9503 49.5998 50.6534 48.2384 51.2668 47.0415C51.4164 46.7423 51.566 46.473 51.7007 46.1888C51.8503 45.8746 51.8503 45.5155 51.7007 45.1714C51.5361 44.7525 51.177 44.4234 50.7432 44.2738C50.3542 44.1392 49.9353 44.1541 49.5613 44.3337C49.1873 44.5132 48.903 44.8124 48.7684 45.2014C48.6637 45.5155 48.3196 45.6801 48.0054 45.5604C47.6912 45.4557 47.5266 45.1116 47.6463 44.7974C47.9007 44.1092 48.3944 43.5557 49.0526 43.2415C49.7109 42.9274 50.4589 42.8974 51.1471 43.1368C51.8951 43.4061 52.4936 43.9746 52.7928 44.7077C53.0621 45.3659 53.0621 46.0691 52.7628 46.6825C52.6282 46.9817 52.4786 47.2809 52.314 47.5801C51.7306 48.7171 51.0723 50.0037 50.5636 52.5171C50.5188 52.8013 50.2794 52.9958 49.9951 52.9958Z" fill="#1F296F"/>
<path d="M54.0195 54.4326C53.9896 54.4326 53.9597 54.4326 53.9298 54.4326C53.6006 54.3877 53.3762 54.0736 53.4361 53.7444C53.9148 50.7374 54.6479 49.4807 55.2912 48.3736C55.4408 48.1043 55.5904 47.8649 55.725 47.5957C55.9046 47.2366 55.8447 46.8925 55.755 46.6531C55.5904 46.2193 55.2014 45.8602 54.7676 45.6957C53.8998 45.3815 53.1369 46.0547 52.7479 46.7279C52.5833 47.0122 52.2093 47.1169 51.9251 46.9524C51.6408 46.7878 51.5361 46.4138 51.7006 46.1295C52.5085 44.7232 53.8699 44.1098 55.1565 44.5736C55.9195 44.8429 56.5628 45.4713 56.8471 46.2193C57.1014 46.8776 57.0715 47.5508 56.7723 48.1492C56.6227 48.4334 56.4581 48.7177 56.3085 48.972C55.6802 50.0342 55.0368 51.1413 54.603 53.924C54.5581 54.2232 54.3038 54.4326 54.0195 54.4326Z" fill="#1F296F"/>
<path d="M75.847 121.171C74.8895 121.171 73.6926 121.156 72.5856 121.156C71.7029 121.156 70.895 121.141 70.3714 121.141C52.7778 121.141 46.2849 111.896 42.9188 104.939C40.7644 100.481 38.9841 94.7659 37.7574 88.4226C36.396 81.3762 35.7078 73.6266 35.7078 65.3833C35.7078 51.5598 38.2062 44.9921 38.3109 44.7078C38.9392 43.0771 39.5227 42.0149 40.2707 41.1472C41.2133 40.0401 42.5447 39.7409 43.8313 40.3543C44.8636 40.848 45.3573 42.0598 45.2227 42.8976C45.1778 43.2267 44.8636 43.4512 44.5345 43.3913C44.2054 43.3464 43.981 43.0323 44.0408 42.7031C44.1006 42.3441 43.8463 41.6708 43.3227 41.4165C42.7692 41.1472 41.9463 41.0126 41.1833 41.9102C40.54 42.6582 40.0164 43.6307 39.4329 45.1267C39.3282 45.396 36.9046 51.7692 36.9046 65.3684C36.9046 80.8526 39.4928 95.095 43.9959 104.415C47.2274 111.073 53.466 119.945 70.3714 119.945C70.895 119.945 71.7029 119.945 72.5856 119.959C74.2911 119.974 76.2359 119.989 77.1186 119.959C77.4477 119.945 77.717 120.214 77.732 120.543C77.732 120.872 77.4777 121.141 77.1485 121.156C76.8344 121.171 76.3706 121.171 75.847 121.171Z" fill="#1F296F"/>
<path d="M65.0753 97.8626L60.3926 99.3287C60.258 99.3736 60.1533 99.2091 60.2281 99.1043L64.0131 94.1973L65.0753 97.8626Z" fill="#1F296F"/>
<path d="M178.536 126.362L179.927 129.893C179.972 130.012 180.152 130.012 180.197 129.893L182.65 123.101L178.536 126.362Z" fill="#1F296F"/>
<path d="M159.282 143.059C170.742 134.86 175.365 117.132 175.365 117.132C172.313 111.552 167.57 104.43 162.184 99.8376C152.31 91.3998 146.73 93.0305 140.94 87.6746C140.192 86.9865 139.534 86.1487 138.95 85.2211C138.95 85.2211 133.909 86.9565 126.922 86.9565C118.44 86.9565 113.667 84.5928 113.667 84.5928C113.144 85.2062 112.62 85.8195 111.992 86.2534C107.862 89.1557 101.998 88.9313 88.294 90.936C84.7334 91.4597 80.9933 92.3423 77.5673 93.1652C77.5673 93.1652 76.4303 98.6407 76.0563 105.149C75.6224 113.018 76.0713 122.862 77.5823 124.104C80.709 126.677 102.955 123.101 102.955 123.101L159.282 143.059Z" fill="#FFD459"/>
<path d="M96.7617 121.455L88.4586 163.913C88.4586 163.913 108.431 168.506 128.269 168.506C148.106 168.506 166.313 163.075 166.313 163.075L154.599 129.384L96.7617 121.455Z" fill="#FFD459"/>
<path d="M102.402 123.461L95.4901 127.979L96.2681 124.029L102.312 123.191C102.462 123.176 102.537 123.371 102.402 123.461Z" fill="#1F296F"/>
<path d="M159.252 143.671C158.998 143.671 158.773 143.522 158.684 143.267C156.619 137.253 154.764 131.688 153.447 127.589C153.343 127.274 153.522 126.93 153.836 126.84C154.151 126.736 154.495 126.915 154.584 127.229C155.901 131.329 157.756 136.879 159.806 142.893C159.91 143.207 159.746 143.551 159.432 143.656C159.387 143.656 159.312 143.671 159.252 143.671Z" fill="#1F296F"/>
<path d="M140.925 87.659C140.177 86.9708 139.519 86.133 138.936 85.2055C138.936 85.2055 133.894 86.9409 126.907 86.9409C118.425 86.9409 113.652 84.5771 113.652 84.5771C113.129 85.1905 112.605 85.8039 111.977 86.2378C110.989 86.926 109.897 87.4496 108.625 87.8535C113.622 90.3669 120.429 91.6086 127.431 91.6086C132.742 91.6086 138.816 90.5165 143.005 89.3196C142.317 88.8559 141.628 88.3173 140.925 87.659Z" fill="#FF4F89"/>
<path d="M93.7696 104.58C91.4058 104.58 89.4908 102.665 89.4908 100.301C89.4908 97.9374 91.4058 96.0225 93.7696 96.0225C96.1333 96.0225 98.0483 97.9374 98.0483 100.301C98.0483 102.665 96.1333 104.58 93.7696 104.58ZM93.7696 96.9201C91.8995 96.9201 90.3885 98.4311 90.3885 100.301C90.3885 102.171 91.8995 103.682 93.7696 103.682C95.6396 103.682 97.1506 102.171 97.1506 100.301C97.1506 98.4461 95.6396 96.9201 93.7696 96.9201Z" fill="#FF4F89"/>
<path d="M87.2618 124.897C87.3515 124.567 87.3964 124.223 87.3964 123.864C87.3964 121.516 85.4815 119.601 83.1327 119.601C80.7838 119.601 78.8689 121.516 78.8689 123.864C78.8689 124.134 78.8988 124.418 78.9437 124.672C79.228 124.747 79.5421 124.792 79.8862 124.837C79.7964 124.523 79.7366 124.193 79.7366 123.849C79.7366 121.979 81.2626 120.453 83.1327 120.453C85.0027 120.453 86.5287 121.979 86.5287 123.849C86.5287 124.223 86.4689 124.597 86.3492 124.942C86.6334 124.942 86.9476 124.927 87.2618 124.897Z" fill="#FF4F89"/>
<path d="M141.988 121.933C139.624 121.933 137.709 120.018 137.709 117.655C137.709 115.291 139.624 113.376 141.988 113.376C144.351 113.376 146.266 115.291 146.266 117.655C146.266 120.018 144.351 121.933 141.988 121.933ZM141.988 114.274C140.118 114.274 138.606 115.785 138.606 117.655C138.606 119.525 140.118 121.036 141.988 121.036C143.858 121.036 145.369 119.525 145.369 117.655C145.369 115.785 143.858 114.274 141.988 114.274Z" fill="#FF4F89"/>
<path d="M158.803 97.2043C158.743 99.0145 157.247 100.481 155.407 100.481C153.537 100.481 152.011 98.9546 152.011 97.0846C152.011 95.8428 152.669 94.7657 153.672 94.1673C153.357 94.0177 153.058 93.868 152.759 93.7334C151.772 94.5113 151.143 95.7232 151.143 97.0696C151.143 99.4184 153.058 101.333 155.407 101.333C157.517 101.333 159.282 99.7924 159.611 97.7728C159.357 97.5932 159.072 97.3987 158.803 97.2043Z" fill="#FF4F89"/>
<path d="M109.568 134.845C107.204 134.845 105.289 132.93 105.289 130.566C105.289 128.202 107.204 126.287 109.568 126.287C111.932 126.287 113.847 128.202 113.847 130.566C113.847 132.93 111.917 134.845 109.568 134.845ZM109.568 127.185C107.698 127.185 106.187 128.696 106.187 130.566C106.187 132.436 107.698 133.947 109.568 133.947C111.438 133.947 112.949 132.436 112.949 130.566C112.949 128.696 111.423 127.185 109.568 127.185Z" fill="#FF4F89"/>
<path d="M118.799 109.427C116.435 109.427 114.52 107.512 114.52 105.148C114.52 102.784 116.435 100.869 118.799 100.869C121.162 100.869 123.077 102.784 123.077 105.148C123.077 107.497 121.147 109.427 118.799 109.427ZM118.799 101.767C116.929 101.767 115.418 103.278 115.418 105.148C115.418 107.018 116.929 108.529 118.799 108.529C120.669 108.529 122.18 107.018 122.18 105.148C122.18 103.278 120.654 101.767 118.799 101.767Z" fill="#FF4F89"/>
<path d="M99.9035 164.213C97.5397 164.213 95.6248 162.298 95.6248 159.934C95.6248 157.57 97.5397 155.655 99.9035 155.655C102.267 155.655 104.182 157.57 104.182 159.934C104.182 162.298 102.267 164.213 99.9035 164.213ZM99.9035 156.553C98.0334 156.553 96.5224 158.064 96.5224 159.934C96.5224 161.804 98.0334 163.315 99.9035 163.315C101.774 163.315 103.285 161.804 103.285 159.934C103.285 158.064 101.774 156.553 99.9035 156.553Z" fill="#FF4F89"/>
<path d="M134.762 144.614C132.398 144.614 130.483 142.699 130.483 140.335C130.483 137.972 132.398 136.057 134.762 136.057C137.125 136.057 139.04 137.972 139.04 140.335C139.04 142.699 137.125 144.614 134.762 144.614ZM134.762 136.954C132.891 136.954 131.38 138.465 131.38 140.335C131.38 142.205 132.891 143.716 134.762 143.716C136.632 143.716 138.143 142.205 138.143 140.335C138.143 138.465 136.632 136.954 134.762 136.954Z" fill="#FF4F89"/>
<path d="M137.23 168.163C137.275 167.923 137.29 167.699 137.29 167.444C137.29 165.096 135.375 163.181 133.026 163.181C130.677 163.181 128.762 165.096 128.762 167.444C128.762 167.803 128.807 168.163 128.897 168.492C129.196 168.492 129.51 168.492 129.81 168.477C129.705 168.148 129.645 167.803 129.645 167.429C129.645 165.559 131.171 164.033 133.041 164.033C134.911 164.033 136.437 165.559 136.437 167.429C136.437 167.699 136.407 167.953 136.347 168.207C136.632 168.207 136.931 168.192 137.23 168.163Z" fill="#FF4F89"/>
<path d="M165.132 126.363C162.768 126.363 160.853 124.448 160.853 122.084C160.853 119.721 162.768 117.806 165.132 117.806C167.495 117.806 169.41 119.721 169.41 122.084C169.41 124.433 167.48 126.363 165.132 126.363ZM165.132 118.703C163.261 118.703 161.75 120.214 161.75 122.084C161.75 123.954 163.261 125.465 165.132 125.465C167.002 125.465 168.513 123.954 168.513 122.084C168.513 120.214 166.987 118.703 165.132 118.703Z" fill="#FF4F89"/>
<path d="M154.165 159.5C151.802 159.5 149.887 157.585 149.887 155.221C149.887 152.857 151.802 150.942 154.165 150.942C156.529 150.942 158.444 152.857 158.444 155.221C158.444 157.585 156.529 159.5 154.165 159.5ZM154.165 151.84C152.295 151.84 150.784 153.351 150.784 155.221C150.784 157.091 152.295 158.602 154.165 158.602C156.036 158.602 157.547 157.091 157.547 155.221C157.547 153.351 156.036 151.84 154.165 151.84Z" fill="#FF4F89"/>
<path d="M243.016 142.61C243.136 147.128 234.429 162.567 230.3 166.323C226.44 169.823 220.067 175.284 210.552 180.356C199.167 186.43 187.812 189.796 182.276 191.082C180.945 191.396 179.673 190.379 179.673 189.018V142.58C179.673 141.189 180.601 139.962 181.947 139.588C185.747 138.541 194.349 136.775 204.822 131.734C214.412 127.126 225.318 119.975 231.452 113.497C239.874 104.61 242.507 96.5166 242.507 96.5166C242.507 96.5166 242.717 131.09 243.016 142.61Z" fill="white"/>
<path d="M202.331 168.085C205.65 164.766 205.65 159.386 202.331 156.068C199.013 152.749 193.632 152.749 190.314 156.068C186.995 159.386 186.995 164.766 190.314 168.085C193.632 171.403 199.013 171.403 202.331 168.085Z" fill="white"/>
<path d="M196.309 171.17C194.379 171.17 192.509 170.557 190.938 169.39C188.978 167.954 187.707 165.829 187.348 163.436C186.989 161.042 187.587 158.633 189.023 156.688C190.46 154.744 192.584 153.457 194.978 153.098C197.371 152.739 199.78 153.337 201.725 154.773C203.685 156.21 204.956 158.334 205.315 160.728C205.674 163.121 205.076 165.53 203.64 167.475C202.204 169.435 200.079 170.706 197.686 171.066C197.222 171.125 196.758 171.17 196.309 171.17ZM196.339 154.175C195.95 154.175 195.546 154.205 195.142 154.265C193.063 154.579 191.223 155.686 189.966 157.377C188.709 159.067 188.201 161.162 188.515 163.241C188.829 165.321 189.936 167.161 191.626 168.418C193.317 169.674 195.412 170.183 197.491 169.869C199.571 169.554 201.411 168.447 202.667 166.757C203.924 165.066 204.433 162.972 204.119 160.892C203.804 158.813 202.697 156.973 201.007 155.716C199.645 154.714 198.015 154.175 196.339 154.175Z" fill="#8484FC"/>
<path d="M196.578 165.574C196.399 165.574 196.219 165.499 196.115 165.35L191.238 159.261C191.028 159.006 191.073 158.632 191.327 158.423C191.582 158.213 191.956 158.258 192.165 158.513L196.309 163.689L201.067 146.32C201.156 146.006 201.486 145.811 201.8 145.901C202.114 145.991 202.308 146.32 202.219 146.634L197.147 165.14C197.087 165.365 196.908 165.529 196.698 165.574C196.653 165.574 196.608 165.574 196.578 165.574Z" fill="#1F296F"/>
<path d="M183.892 145.707C184.743 145.707 185.433 145.017 185.433 144.166C185.433 143.315 184.743 142.625 183.892 142.625C183.041 142.625 182.351 143.315 182.351 144.166C182.351 145.017 183.041 145.707 183.892 145.707Z" fill="#8484FC"/>
<path d="M183.892 187.73C184.743 187.73 185.433 187.04 185.433 186.189C185.433 185.338 184.743 184.648 183.892 184.648C183.041 184.648 182.351 185.338 182.351 186.189C182.351 187.04 183.041 187.73 183.892 187.73Z" fill="#8484FC"/>
<path d="M181.109 192.009C180.66 192.009 180.227 191.86 179.868 191.59C179.344 191.201 179.06 190.603 179.06 189.96V141.742C179.06 140.814 179.688 139.991 180.586 139.752C185.134 138.525 200.827 134.007 212.138 127.35C232.798 115.187 242.418 102.545 242.418 87.5697C242.418 78.5335 237.989 69.7516 229.252 61.4485C221.608 54.1926 214.023 50.2281 213.948 50.1982C213.649 50.0486 213.544 49.6895 213.693 49.3903C213.843 49.0911 214.202 48.9864 214.501 49.136C214.576 49.1809 222.311 53.2052 230.075 60.5808C239.067 69.1083 243.615 78.1894 243.615 87.5697V138.795C243.615 151.586 237.69 159.515 231.9 165.589C225.168 172.65 216.835 178.216 204.029 184.215C195.442 188.239 187.483 190.379 183.204 191.531C182.635 191.68 182.112 191.83 181.678 191.95C181.468 191.994 181.289 192.009 181.109 192.009ZM242.418 96.546C241.385 100.256 239.695 103.832 237.316 107.318C232.245 114.738 224.196 121.635 212.751 128.382C201.306 135.114 185.478 139.677 180.9 140.919C180.526 141.024 180.257 141.368 180.257 141.757V189.96C180.257 190.229 180.376 190.483 180.601 190.648C180.81 190.812 181.094 190.872 181.349 190.798C181.797 190.678 182.306 190.528 182.89 190.379C187.138 189.242 195.038 187.117 203.52 183.138C216.177 177.213 224.42 171.708 231.033 164.766C236.942 158.572 242.418 151.137 242.418 138.81V96.546Z" fill="#FF4E77"/>
<path d="M212.437 143.657C212.227 143.657 212.018 143.552 211.913 143.343C211.748 143.058 211.853 142.684 212.152 142.535C222.041 137.059 229.686 130.836 234.878 124.014C235.072 123.744 235.446 123.699 235.715 123.894C235.985 124.088 236.029 124.462 235.835 124.732C230.554 131.673 222.774 138.017 212.736 143.567C212.631 143.627 212.526 143.657 212.437 143.657Z" fill="#1F296F"/>
<path d="M212.437 153.905C212.227 153.905 212.018 153.8 211.913 153.591C211.748 153.306 211.853 152.932 212.152 152.783C222.041 147.307 229.686 141.084 234.878 134.262C235.072 133.992 235.446 133.948 235.715 134.142C235.985 134.336 236.029 134.711 235.835 134.98C230.539 141.921 222.774 148.265 212.736 153.815C212.631 153.89 212.526 153.905 212.437 153.905Z" fill="#1F296F"/>
<path d="M212.437 164.169C212.227 164.169 212.018 164.064 211.913 163.854C211.749 163.57 211.853 163.196 212.153 163.047C222.041 157.571 229.686 151.347 234.878 144.525C235.072 144.256 235.446 144.211 235.715 144.406C235.985 144.6 236.03 144.974 235.835 145.243C230.539 152.185 222.775 158.528 212.736 164.079C212.631 164.139 212.527 164.169 212.437 164.169Z" fill="#1F296F"/>
<path d="M42.2601 173.803C42.2601 178.995 42.8286 184.425 47.3018 187.013C50.0546 188.614 54.8868 190.439 62.801 192.773C70.7899 195.137 84.9277 197.59 93.4701 198.443C110.675 200.179 121.611 200.149 126.249 199.835C127.027 199.79 127.61 199.131 127.61 198.353L126.952 148.37C126.952 147.622 126.398 146.934 125.65 146.919C122.194 146.829 112.021 147.173 90.4481 144.974C81.5466 144.062 76.086 142.76 64.6711 139.873C55.6199 137.584 49.142 135.19 44.2948 133.125C43.3373 132.722 42.2601 133.425 42.2601 134.472V173.803Z" fill="#8484FC"/>
<path d="M69.5035 178.067C67.5886 178.8 65.4343 177.857 64.6862 175.927L62.8162 171.08C62.8162 171.08 64.5217 171.424 66.4965 170.661C68.8602 169.749 69.7728 168.402 69.7728 168.402L71.6429 173.25C72.376 175.179 71.4185 177.334 69.5035 178.067Z" fill="#FF4F89"/>
<path d="M69.5035 178.067C67.5886 178.8 65.4343 177.857 64.6862 175.927L62.8162 171.08C62.8162 171.08 64.5217 171.424 66.4965 170.661C68.8602 169.749 69.7728 168.402 69.7728 168.402L71.6429 173.25C72.376 175.179 71.4185 177.334 69.5035 178.067Z" fill="#FF4F89"/>
<path d="M69.5035 178.067C67.5886 178.8 65.4343 177.857 64.6862 175.927L62.8162 171.08C62.8162 171.08 64.5217 171.424 66.4965 170.661C68.8602 169.749 69.7728 168.402 69.7728 168.402L71.6429 173.25C72.376 175.179 71.4185 177.334 69.5035 178.067Z" fill="#FF4E77"/>
<path d="M63.4743 171.843C62.1727 171.843 60.8861 171.574 59.6593 171.035C57.3554 170.018 55.605 168.163 54.6924 165.814C53.7948 163.465 53.8546 160.907 54.872 158.618C55.8893 156.314 57.7444 154.564 60.0932 153.651C64.9404 151.781 70.401 154.205 72.2561 159.052C73.1538 161.401 73.0939 163.959 72.0766 166.248C71.0593 168.552 69.2042 170.302 66.8554 171.215C65.7632 171.619 64.6113 171.843 63.4743 171.843ZM63.4593 154.205C62.4719 154.205 61.4845 154.384 60.5121 154.758C58.4625 155.551 56.8468 157.092 55.9641 159.097C55.0814 161.102 55.0216 163.331 55.8145 165.38C56.6074 167.43 58.1483 169.046 60.153 169.928C62.1578 170.826 64.3869 170.871 66.4365 170.078C68.4861 169.285 70.1018 167.744 70.9845 165.739C71.8672 163.735 71.927 161.506 71.1341 159.456C69.8924 156.209 66.7656 154.205 63.4593 154.205Z" fill="white"/>
<path d="M66.646 171.244C66.4066 171.244 66.1822 171.095 66.0924 170.855L63.6389 164.482C63.5192 164.168 63.6688 163.824 63.983 163.704C64.2972 163.585 64.6413 163.734 64.7609 164.048L67.2145 170.422C67.3342 170.736 67.1846 171.08 66.8704 171.199C66.7956 171.229 66.7208 171.244 66.646 171.244Z" fill="white"/>
<path d="M62.9208 165.096C60.9909 165.096 59.0909 163.764 58.2831 161.67C58.1634 161.356 58.313 161.011 58.6272 160.892C58.9413 160.772 59.2854 160.922 59.4051 161.236C60.1831 163.27 62.2327 164.378 63.9681 163.704C65.7035 163.031 66.4815 160.832 65.7035 158.812C65.5838 158.498 65.7334 158.154 66.0476 158.034C66.3618 157.915 66.7059 158.064 66.8255 158.378C67.8429 161.026 66.7657 163.914 64.4019 164.826C63.9232 165.006 63.4145 165.096 62.9208 165.096Z" fill="white"/>
<path d="M50.9525 173.562C50.8029 173.562 50.6383 173.503 50.5187 173.383C50.2942 173.143 50.2942 172.769 50.5336 172.53L53.4958 169.658C53.7352 169.433 54.1092 169.433 54.3486 169.673C54.573 169.912 54.573 170.286 54.3336 170.525L51.3714 173.398C51.2517 173.518 51.1021 173.562 50.9525 173.562Z" fill="#FFD459"/>
<path d="M51.2965 159.83C51.2666 159.83 51.2367 159.83 51.2067 159.83L47.1225 159.187C46.7934 159.142 46.569 158.828 46.6288 158.498C46.6737 158.169 46.9879 157.945 47.317 158.005L51.4012 158.648C51.7304 158.693 51.9548 159.007 51.8949 159.336C51.85 159.621 51.5808 159.83 51.2965 159.83Z" fill="#FFD459"/>
<path d="M71.553 153.426C71.4184 153.426 71.2837 153.381 71.179 153.291C70.9247 153.082 70.8798 152.708 71.0892 152.454L73.6774 149.237C73.8869 148.983 74.2609 148.938 74.5152 149.147C74.7695 149.357 74.8144 149.731 74.605 149.985L72.0168 153.202C71.9121 153.336 71.7325 153.426 71.553 153.426Z" fill="#FFD459"/>
<path d="M80.2302 163.166H80.2153L76.0862 163.016C75.757 163.001 75.5027 162.732 75.5027 162.403C75.5176 162.074 75.7869 161.819 76.1161 161.819L80.2452 161.969C80.5743 161.984 80.8286 162.253 80.8286 162.582C80.8286 162.911 80.5594 163.166 80.2302 163.166Z" fill="#FFD459"/>
<path d="M58.8664 151.256C58.627 151.256 58.3876 151.107 58.2979 150.867L56.8916 146.993C56.7719 146.678 56.9365 146.334 57.2506 146.23C57.5648 146.11 57.9089 146.274 58.0136 146.589L59.4199 150.463C59.5396 150.778 59.375 151.122 59.0609 151.226C59.001 151.256 58.9262 151.256 58.8664 151.256Z" fill="#FFD459"/>
<path d="M109.867 184.665C109.328 187.702 106.441 189.721 103.404 189.183C100.367 188.644 98.3474 185.757 98.886 182.72C99.3647 180.057 101.654 178.172 104.272 178.127C104.332 181.299 106.621 184.096 109.867 184.665Z" fill="#FFD459"/>
<path d="M109.867 184.665C106.621 184.097 104.332 181.299 104.287 178.112C104.646 178.112 105.005 178.127 105.364 178.202C108.386 178.756 110.406 181.643 109.867 184.665Z" fill="#1F296F"/>
<path d="M117.721 179.189C117.063 182.87 113.562 185.323 109.867 184.665C110.406 181.628 108.386 178.741 105.349 178.202C104.99 178.142 104.631 178.112 104.272 178.112C104.257 177.678 104.302 177.245 104.377 176.811C105.035 173.13 108.551 170.677 112.231 171.32C115.911 171.993 118.365 175.509 117.721 179.189Z" fill="#FF4E77"/>
<path d="M95.4899 168.148C93.4702 168.148 91.8395 166.503 91.8395 164.498C91.8395 162.493 93.4851 160.848 95.4899 160.848C97.4946 160.848 99.1402 162.493 99.1402 164.498C99.1402 166.503 97.5095 168.148 95.4899 168.148ZM95.4899 162.045C94.1284 162.045 93.0363 163.152 93.0363 164.498C93.0363 165.844 94.1434 166.952 95.4899 166.952C96.8363 166.952 97.9434 165.844 97.9434 164.498C97.9434 163.152 96.8513 162.045 95.4899 162.045Z" fill="#FFD459"/>
<path d="M82.8332 185.099C81.2923 185.099 80.0505 183.857 80.0505 182.316C80.0505 180.775 81.2923 179.533 82.8332 179.533C84.3741 179.533 85.6159 180.775 85.6159 182.316C85.6159 183.857 84.3592 185.099 82.8332 185.099ZM82.8332 180.73C81.9655 180.73 81.2474 181.448 81.2474 182.316C81.2474 183.184 81.9655 183.902 82.8332 183.902C83.7009 183.902 84.419 183.184 84.419 182.316C84.419 181.448 83.7009 180.73 82.8332 180.73Z" fill="#1F296F"/>
<path d="M121.761 154.594C122.612 154.594 123.301 153.904 123.301 153.053C123.301 152.202 122.612 151.512 121.761 151.512C120.909 151.512 120.22 152.202 120.22 153.053C120.22 153.904 120.909 154.594 121.761 154.594Z" fill="#FFD459"/>
<path d="M121.761 196.648C122.612 196.648 123.301 195.958 123.301 195.107C123.301 194.256 122.612 193.566 121.761 193.566C120.909 193.566 120.22 194.256 120.22 195.107C120.22 195.958 120.909 196.648 121.761 196.648Z" fill="#FFD459"/>
</svg>
