<svg width="197" height="200" viewBox="0 0 197 200" fill="none" xmlns="http://www.w3.org/2000/svg">
<path opacity="0.41" d="M72.8499 139.813C70.9288 139.805 69.0054 139.728 67.0801 139.57C45.9792 137.84 21.5345 127.764 11.0279 109.419C1.84255 93.3813 -1.76387 72.6176 2.41834 54.731C6.34973 37.9176 18.5383 24.2978 35.6058 19.126C54.8004 13.3099 76.0147 20.3768 94.9022 12.4337C122.393 0.872875 156.945 10.054 176.211 32.05C193.293 51.5516 197.427 82.9975 192.065 107.362C189.355 119.677 182.227 131.536 170.879 137.736C161.851 142.668 150.937 143.641 140.613 142.355C132.312 141.322 124.669 138.614 116.683 136.386C110.282 134.6 105.03 135.53 98.4788 136.826C90.0473 138.495 81.4741 139.848 72.8499 139.813Z" fill="#AFAFAF"/>
<path d="M77.5601 128.045C76.0056 128.039 74.4492 127.976 72.8914 127.849C55.8168 126.449 36.037 118.296 27.5356 103.452C20.1032 90.4744 17.1845 73.6728 20.5689 59.1994C23.7502 45.5943 33.6129 34.5733 47.4236 30.3888C62.9555 25.6827 80.1217 31.401 95.4047 24.9737C117.649 15.6192 145.608 23.0484 161.198 40.8467C175.02 56.627 178.366 82.0722 174.027 101.788C171.834 111.752 166.065 121.348 156.883 126.365C149.577 130.357 140.747 131.143 132.392 130.103C125.675 129.267 119.491 127.077 113.029 125.273C107.85 123.828 103.6 124.58 98.2983 125.629C91.4761 126.979 84.5387 128.074 77.5601 128.045Z" stroke="white" stroke-width="1.9456" stroke-miterlimit="10" stroke-dasharray="3.85 3.85"/>
<path opacity="0.87" d="M177.306 193.853C181.896 193.853 185.616 193.57 185.616 193.221C185.616 192.873 181.896 192.59 177.306 192.59C172.717 192.59 168.997 192.873 168.997 193.221C168.997 193.57 172.717 193.853 177.306 193.853Z" fill="#515159"/>
<path d="M178.361 169.329C178.361 169.329 171.246 164.496 175.816 157.47C180.386 150.444 179.244 148.003 177.644 146.024C181.529 150.444 180.677 155.48 178.361 158.674C176.045 161.869 175.678 166.216 178.361 169.329Z" fill="#AFAFAF"/>
<path d="M184.166 175.328H170.447L171.786 192.696H182.827L184.166 175.328Z" fill="#FEFEFE"/>
<path d="M185.616 174.438H168.997V176.475H185.616V174.438Z" fill="#8B8B8C"/>
<path d="M182.353 172.607H172.261C171.259 172.607 170.447 173.419 170.447 174.421V174.44H184.167V174.421C184.166 173.419 183.354 172.607 182.353 172.607Z" fill="#5A5A63"/>
<path d="M183.403 185.222L183.727 181.015H170.885L171.21 185.222H183.403Z" fill="#EDB62B"/>
<path d="M184.166 174.438V174.419C184.166 173.417 183.354 172.605 182.352 172.605H177.354C178.356 172.605 179.168 173.417 179.168 174.419V174.438H180.618V176.474H179.079L177.829 192.694H182.827L184.078 176.474H185.616V174.438H184.166Z" fill="#AFAFAF"/>
<path d="M110.512 66.4354C110.512 66.4354 113.388 57.4186 109.187 54.8004C106.517 53.4282 105.058 55.1376 105.058 55.1376C105.058 55.1376 103.802 48.7623 95.1501 50.8685C89.5457 52.2327 87.7781 49.3438 87.7781 49.3438C87.7781 49.3438 87.7257 57.3355 91.5853 59.7119C94.3797 62.1081 93.3079 68.5855 93.3079 68.5855L110.512 66.4354Z" fill="#2F2F35"/>
<path opacity="0.87" d="M136.001 184.266C136.001 184.266 151.578 184.734 155.925 188.746C160.497 192.967 165.293 199.557 145.612 199.43C125.931 199.303 108.484 193.886 91.9768 195.605C75.47 197.324 61.9243 200.288 57.9783 199.631C54.0322 198.973 82.1585 185.499 82.1585 185.499L134.378 187.416L136.001 184.266Z" fill="#515159"/>
<path d="M121.431 149.228L101.795 147.256L82.1582 149.228C82.1582 149.228 80.992 158.507 77.1999 163.457C101.795 172.29 101.795 172.29 101.795 172.29C101.795 172.29 101.795 172.29 126.39 163.457C122.598 158.507 121.431 149.228 121.431 149.228Z" fill="#A87D1D"/>
<path d="M101.019 172.011C101.794 172.289 101.795 172.29 101.795 172.29C101.795 172.29 101.796 172.289 102.57 172.011C107.095 161.601 106.012 149.922 105.744 147.653L101.795 147.256L96.7417 147.764C96.6406 150.258 96.472 161.667 101.019 172.011Z" fill="#A87D1D"/>
<path d="M82.0469 149.986C82.0478 149.986 102.71 159.099 122.665 155.138C121.768 151.899 121.432 149.228 121.432 149.228L101.795 147.256L86.0213 148.841L82.0469 149.986Z" fill="#895436"/>
<path d="M91.5848 59.7119C94.3792 62.1081 93.3075 68.5855 93.3075 68.5855L96.963 68.1287C100.717 64.7878 104.955 60.5579 104.34 58.9646C103.261 56.1721 100.147 53.3847 94.4033 53.0659C88.66 52.747 87.7776 49.3438 87.7776 49.3438C87.7776 49.3438 87.7252 57.3355 91.5848 59.7119Z" fill="#515159"/>
<path d="M101.082 82.3379L84.8483 88.256L82.1582 149.229C82.1582 149.229 87.8968 151.919 101.795 151.919C101.795 88.5451 101.795 83.285 101.795 83.285L101.082 82.3379Z" fill="white"/>
<path d="M102.508 82.3379L118.742 88.256L121.432 149.229C121.432 149.229 115.693 151.919 101.795 151.919C101.795 88.5451 101.795 83.285 101.795 83.285L102.508 82.3379Z" fill="white"/>
<path d="M84.8486 88.2559L84.7734 88.2828C80.0315 89.9762 76.2423 93.6208 74.3656 98.2934L56.9401 140.469L71.7578 142.235L84.3016 111.492L84.8486 88.2559Z" fill="#FF7E6E"/>
<path d="M118.742 88.2559L118.817 88.2828C123.559 89.9762 127.348 93.6208 129.225 98.2934L146.651 140.469L131.833 142.235L119.289 111.492L118.742 88.2559Z" fill="#FF7E6E"/>
<path d="M135.991 114.67L129.225 98.2934C127.348 93.6208 123.559 89.9766 118.817 88.2828L118.742 88.2559L119.289 111.491L122.843 120.201C127.586 116.228 132.346 114.938 135.991 114.67Z" fill="#E8E8E8"/>
<path d="M67.5986 114.67L74.365 98.2934C76.2417 93.6208 80.0309 89.9766 84.7728 88.2828L84.8484 88.2559L84.301 111.491L80.7474 120.201C76.0036 116.228 71.2442 114.938 67.5986 114.67Z" fill="#E8E8E8"/>
<path d="M119.803 112.295C119.803 112.295 119.363 111.679 118.742 110.525L119.29 111.492C119.29 111.492 113.113 145.773 96.6021 151.783C98.1897 151.868 99.9152 151.919 101.796 151.919C115.694 151.919 121.432 149.229 121.432 149.229L119.803 112.295Z" fill="#D3D3D3"/>
<path opacity="0.52" d="M77.2001 107.803C81.3875 96.0573 81.6204 96.147 90.7666 93.995C99.9123 91.8429 98.114 83.4209 98.114 83.4209L89.5871 86.529L88.2683 87.0098L84.8485 88.2564L84.7729 88.2833C80.0309 89.9767 76.2417 93.6214 74.3651 98.2934L57.6617 138.722C64.7159 133.529 73.6334 117.807 77.2001 107.803Z" fill="#FFF6E7"/>
<path opacity="0.28" d="M126.39 107.803C122.203 96.0573 121.97 96.147 112.824 93.995C103.678 91.8429 105.476 83.4209 105.476 83.4209L114.003 86.529L115.322 87.0098L118.741 88.2564L118.817 88.2833C123.559 89.9767 127.348 93.6214 129.225 98.2934L145.928 138.722C138.874 133.529 129.957 117.807 126.39 107.803Z" fill="#4C2A29"/>
<path d="M101.839 89.8601H101.751C99.3517 89.8601 97.4061 87.9149 97.4061 85.5149V75.1406H106.184V85.5149C106.184 87.9149 104.239 89.8601 101.839 89.8601Z" fill="#FF7E6E"/>
<path d="M106.114 83.1423C106.139 83.1423 106.16 83.1395 106.184 83.139V75.1406H102.087L97.4061 76.8321C97.4061 76.8321 99.1481 83.1423 106.114 83.1423Z" fill="#4C2A29"/>
<path d="M112.005 68.9093C112.005 70.4662 110.744 71.7279 109.187 71.7279C107.63 71.7279 106.368 70.4662 106.368 68.9093C106.368 67.3525 107.63 66.0908 109.187 66.0908C110.743 66.0908 112.005 67.3525 112.005 68.9093Z" fill="#C64F4F"/>
<path d="M109.735 71.6726C110.143 70.0387 110.382 67.9486 110.512 66.4361C110.115 66.2231 109.668 66.0908 109.187 66.0908C107.63 66.0908 106.368 67.3529 106.368 68.9093C106.368 70.4662 107.63 71.7279 109.187 71.7279C109.375 71.7279 109.558 71.7076 109.735 71.6726Z" fill="#803D3D"/>
<path d="M91.5847 68.9093C91.5847 70.4662 92.8469 71.7279 94.4033 71.7279C95.9601 71.7279 97.2218 70.4662 97.2218 68.9093C97.2218 67.3525 95.9601 66.0908 94.4033 66.0908C92.8469 66.0908 91.5847 67.3525 91.5847 68.9093Z" fill="#C64F4F"/>
<path d="M93.8547 71.6726C93.4471 70.0387 93.2085 67.9486 93.0782 66.4361C93.4749 66.2231 93.9218 66.0908 94.4036 66.0908C95.9605 66.0908 97.2221 67.3529 97.2221 68.9093C97.2221 70.4662 95.96 71.7279 94.4036 71.7279C94.2156 71.7279 94.0323 71.7076 93.8547 71.6726Z" fill="#803D3D"/>
<path d="M106.756 59.0508H101.795H96.8345L94.3792 64.4153L94.792 69.7245C95.0126 72.5577 96.843 77.4499 99.4182 78.652C100.183 79.0091 100.994 79.2472 101.795 79.2472C102.596 79.2472 103.407 79.0091 104.172 78.652C106.747 77.4499 108.578 72.5582 108.798 69.7245L109.211 64.4153L106.756 59.0508Z" fill="#FF7E6E"/>
<path d="M104.34 65.7852C104.34 65.7852 106.004 66.2518 107.888 65.7852" stroke="#2F2F35" stroke-width="1.3362" stroke-miterlimit="10" stroke-linecap="round"/>
<path d="M103.802 62.7337C103.802 62.7337 106.233 62.3294 107.695 63.1716" stroke="#2F2F35" stroke-width="2.6723" stroke-miterlimit="10" stroke-linecap="round"/>
<path d="M99.2505 65.7852C99.2505 65.7852 97.586 66.2518 95.7022 65.7852" stroke="#2F2F35" stroke-width="1.3362" stroke-miterlimit="10" stroke-linecap="round"/>
<path d="M99.788 62.7337C99.788 62.7337 97.3568 62.3294 95.8953 63.1716" stroke="#2F2F35" stroke-width="2.6723" stroke-miterlimit="10" stroke-linecap="round"/>
<path opacity="0.52" d="M97.842 70.4113C97.518 65.0468 96.8345 59.0508 96.8345 59.0508L94.3792 64.4153L94.5105 66.1006C94.4741 66.0992 94.4401 66.0898 94.4038 66.0898C92.8474 66.0898 91.5852 67.3519 91.5852 68.9083C91.5852 70.4652 92.8474 71.7268 94.4038 71.7268C94.6503 71.7268 94.8856 71.6853 95.1132 71.6258C95.7769 74.3678 97.3583 77.6903 99.4187 78.652C100.184 79.0091 100.995 79.2472 101.796 79.2472C101.796 79.2472 98.1661 75.7763 97.842 70.4113Z" fill="#FFF6E7"/>
<path d="M118.742 173.08L62.6411 156.059C55.1921 153.799 47.3582 158.184 45.3894 165.715L45.3152 165.999C43.287 173.758 48.3185 181.597 56.2186 182.978C76.961 186.604 114.557 192.77 134.344 193.524L142.685 199.084C143.944 199.924 145.616 199.786 146.72 198.75L146.763 198.71C148.076 197.48 148.143 195.419 146.913 194.106L145.612 192.717C145.612 192.717 144.453 187.068 138.726 184.647C132.999 182.226 132.461 176.308 131.116 173.08C129.77 169.852 121.163 168.238 118.742 173.08Z" fill="#8C4242"/>
<path d="M45.3894 165.715C47.3582 158.184 55.1926 153.799 62.6411 156.059L81.6661 161.831C78.8003 165.406 75.0205 172.664 74.9062 186.132C67.9603 185.003 61.5339 183.907 56.2181 182.978C48.318 181.597 43.2865 173.758 45.3147 165.999L45.3894 165.715Z" fill="#EDB62B"/>
<path opacity="0.67" d="M63.0866 177.548C63.0866 179.835 62.5377 181.994 61.5703 183.904C59.6918 183.582 57.8945 183.271 56.2186 182.978C48.3185 181.598 43.287 173.759 45.3152 166L45.3894 165.715C45.5661 165.039 45.7918 164.389 46.0587 163.766C47.0063 163.565 47.9883 163.457 48.9958 163.457C56.7778 163.458 63.0866 169.766 63.0866 177.548Z" fill="#A87D1D"/>
<path d="M121.432 180.88C121.432 180.88 120.625 185.581 112.824 183.903" stroke="#7B3C38" stroke-width="1.139" stroke-miterlimit="10"/>
<path opacity="0.28" d="M126.39 178.728C126.39 178.728 114.437 178.19 89.1519 173.68C68.6664 170.026 62.6572 159.54 61.1135 155.69C61.6232 155.784 62.1329 155.904 62.6406 156.058L118.741 173.079C121.162 168.237 129.77 169.851 131.115 173.079C132.46 176.307 132.998 182.225 138.724 184.646C144.451 187.067 145.611 192.716 145.611 192.716C145.611 192.716 139.722 188.95 136 188.143C132.277 187.337 126.39 178.728 126.39 178.728Z" fill="#4C2A29"/>
<path d="M128.979 193.221C128.979 193.221 139.28 203.077 148.062 199.021C149.524 198.347 149.982 196.48 149.028 195.185C141.63 185.137 132.302 174.191 128.747 170.078C127.857 169.048 126.448 168.632 125.141 169.012L115.023 171.951L128.979 193.221Z" fill="#2F2F35"/>
<path d="M115.023 171.952L105.333 169.012L112.673 191.6L128.978 193.222L115.023 171.952Z" fill="#A5A5A5"/>
<path d="M84.8484 173.079L140.949 156.058C148.398 153.798 156.232 158.183 158.201 165.714L158.275 165.998C160.303 173.757 155.272 181.596 147.372 182.977C126.629 186.603 89.0334 192.769 69.2466 193.523L60.9058 199.083C59.6465 199.923 57.9743 199.785 56.87 198.749L56.827 198.709C55.5148 197.479 55.4477 195.418 56.6773 194.105L57.9781 192.716C57.9781 192.716 59.1377 187.067 64.8645 184.646C70.5913 182.225 71.1294 176.307 72.4741 173.079C73.8194 169.851 82.4271 168.237 84.8484 173.079Z" fill="#FF7E6E"/>
<path d="M158.2 165.714C156.232 158.183 148.397 153.798 140.949 156.058L121.924 161.83C124.79 165.405 128.569 172.663 128.683 186.131C135.629 185.002 142.055 183.906 147.371 182.977C155.271 181.596 160.303 173.757 158.275 165.998L158.2 165.714Z" fill="#EDB62B"/>
<path opacity="0.67" d="M140.503 177.548C140.503 179.835 141.052 181.994 142.02 183.904C143.898 183.582 145.696 183.271 147.371 182.978C155.272 181.598 160.303 173.759 158.275 166L158.201 165.715C158.024 165.039 157.798 164.389 157.531 163.766C156.584 163.565 155.602 163.457 154.594 163.457C146.812 163.458 140.503 169.766 140.503 177.548Z" fill="#A87D1D"/>
<path opacity="0.28" d="M77.2001 178.728C77.2001 178.728 89.1525 178.19 114.438 173.68C134.924 170.026 140.933 159.54 142.476 155.69C141.967 155.784 141.457 155.904 140.949 156.058L84.8485 173.08C82.4276 168.238 73.8195 169.852 72.4747 173.08C71.1299 176.308 70.5919 182.225 64.8651 184.647C59.1383 187.067 57.9787 192.717 57.9787 192.717C57.9787 192.717 63.867 188.951 67.5896 188.144C71.3118 187.337 77.2001 178.728 77.2001 178.728Z" fill="#4C2A29"/>
<path opacity="0.57" d="M64.8645 184.646L56.4547 183.087C48.8432 181.872 43.6884 174.676 44.9869 167.079L45.0379 166.781C46.4536 158.497 54.8614 153.374 62.8726 155.913L78.7516 160.946" stroke="white" stroke-width="1.1139" stroke-miterlimit="10"/>
<path d="M98.9106 70.3242C98.6083 70.3242 98.4307 70.6747 98.6163 70.9132C99.4585 71.9945 100.573 72.6553 101.799 72.6553C103.025 72.6553 104.14 71.9945 104.982 70.9132C105.167 70.6747 104.99 70.3242 104.687 70.3242H98.9106Z" fill="white"/>
<path d="M102.628 65.666V68.5842C102.628 68.5842 101.957 68.2049 101.023 68.5842" stroke="#2F2F35" stroke-width="0.8212" stroke-miterlimit="10" stroke-linecap="round"/>
<path d="M105.058 55.1377H104.34V59.7035H105.058V55.1377Z" fill="#FF7E6E"/>
<path d="M146.651 140.468L146.681 140.55C148.362 145.205 146.348 150.388 141.964 152.686L112.006 168.39L111.858 168.007C109.218 161.189 111.979 153.466 118.343 149.866L131.834 142.233L146.651 140.468Z" fill="#FF7E6E"/>
<path opacity="0.28" d="M140.325 150.088C140.325 151.193 140.602 152.234 141.084 153.148L141.964 152.687C145.421 150.874 147.396 147.267 147.255 143.54C147.134 143.533 147.014 143.521 146.891 143.521C143.265 143.521 140.325 146.461 140.325 150.088Z" fill="#4C2A29"/>
<path d="M131.833 142.235L140.325 137.419" stroke="#4C2A29" stroke-width="1.3362" stroke-miterlimit="10" stroke-linecap="round"/>
<path d="M57.0274 140.468L56.9976 140.55C55.316 145.205 57.3301 150.388 61.7145 152.686L91.6725 168.39L91.8209 168.007C94.4604 161.189 91.6995 153.466 85.3359 149.866L71.8451 142.233L57.0274 140.468Z" fill="#FF7E6E"/>
<path opacity="0.28" d="M63.3531 150.088C63.3531 151.193 63.0768 152.234 62.594 153.148L61.7145 152.687C58.2569 150.874 56.2829 147.267 56.4237 143.54C56.5446 143.533 56.6641 143.521 56.7869 143.521C60.4132 143.521 63.3531 146.461 63.3531 150.088Z" fill="#4C2A29"/>
<path d="M71.8451 142.235L63.3532 137.419" stroke="#4C2A29" stroke-width="1.3362" stroke-miterlimit="10" stroke-linecap="round"/>
<path d="M88.3481 166.649C88.3481 166.649 89.8601 158.352 84.9363 155.69" stroke="#4C2A29" stroke-width="1.3362" stroke-miterlimit="10" stroke-linecap="round"/>
<path d="M115.242 166.649C115.242 166.649 113.73 158.352 118.654 155.69" stroke="#4C2A29" stroke-width="1.3362" stroke-miterlimit="10" stroke-linecap="round"/>
<path d="M74.6117 193.221C74.6117 193.221 64.3101 203.077 55.5277 199.021C54.0667 198.347 53.6085 196.48 54.5627 195.185C61.9607 185.137 71.2877 174.191 74.8436 170.078C75.7335 169.048 77.1425 168.632 78.4495 169.012L88.5669 171.951L74.6117 193.221Z" fill="#2F2F35"/>
<path d="M88.5672 171.952L98.257 169.012L90.9167 191.6L74.6115 193.222L88.5672 171.952Z" fill="#ECECEC"/>
<path opacity="0.28" d="M84.5371 178.095C87.4114 177.788 91.1448 177.339 95.763 176.687L98.2571 169.013L88.5672 171.953L84.5371 178.095Z" fill="#4C2A29"/>
<path d="M77.6987 186.361L72.0772 194.928C71.7272 195.462 71.1018 195.747 70.4693 195.661L70.432 195.656C69.2143 195.49 68.5946 194.103 69.2837 193.086L75.0332 184.598C75.4012 184.055 76.0658 183.795 76.7039 183.945L76.737 183.953C77.8073 184.204 78.3014 185.442 77.6987 186.361Z" fill="#FFF6E7"/>
<path d="M101.023 136.844H66.6202L75.1022 167.056H101.023H126.943L135.425 136.844H101.023Z" fill="#AFAFAF"/>
<path d="M126.943 167.057H75.1022V171.457H126.943V167.057Z" fill="#8B8B8C"/>
<path d="M101.082 158.638C105.727 158.638 109.493 156.709 109.493 154.33C109.493 151.951 105.727 150.022 101.082 150.022C96.4359 150.022 92.6699 151.951 92.6699 154.33C92.6699 156.709 96.4359 158.638 101.082 158.638Z" fill="#5A5A63"/>
<path d="M135.425 134.84H66.6203V136.844H135.425V134.84Z" fill="#5A5A63"/>
<path d="M83.1652 168.32H77.9735V170.089H83.1652V168.32Z" fill="#5A5A63"/>
<path d="M90.6581 168.32H85.4665V170.089H90.6581V168.32Z" fill="#5A5A63"/>
<path d="M126.943 169.257H95.3925" stroke="#0F1201" stroke-miterlimit="10"/>
<path opacity="0.54" d="M66.6203 136.844L75.1023 167.057H93.5661C104.529 154.346 111.191 136.844 111.191 136.844L111.168 134.84H66.6203V136.844Z" fill="white"/>
<path opacity="0.57" d="M66.6202 136.845H135.425" stroke="#0F1201" stroke-miterlimit="10"/>
<path opacity="0.87" d="M30.8779 193.852C37.7681 193.852 43.3537 193.569 43.3537 193.22C43.3537 192.872 37.7681 192.589 30.8779 192.589C23.9878 192.589 18.4022 192.872 18.4022 193.22C18.4022 193.569 23.9878 193.852 30.8779 193.852Z" fill="#515159"/>
<path d="M32.7022 187.008L33.5198 186.117L33.1112 186.563L33.5236 186.121C33.423 186.025 23.5773 176.043 35.4702 131.063L34.3006 130.754C22.1588 176.675 32.2662 186.608 32.7022 187.008Z" fill="#5A5A63"/>
<path d="M29.0343 131.837C33.5386 135.93 32.7493 140.77 32.7493 140.77C32.7493 140.77 28.2383 138.846 27.1921 132.851C27.0083 131.799 28.2445 131.119 29.0343 131.837Z" fill="#5A5A63"/>
<path d="M40.304 134.727C34.3854 136.148 32.7487 140.771 32.7487 140.771C32.7487 140.771 37.6286 141.255 41.4315 136.502C42.0985 135.669 41.3418 134.478 40.304 134.727Z" fill="#5A5A63"/>
<path d="M25.948 143.602C30.8411 147.222 30.5421 152.117 30.5421 152.117C30.5421 152.117 25.8606 150.656 24.2169 144.796C23.9287 143.768 25.0898 142.967 25.948 143.602Z" fill="#5A5A63"/>
<path d="M37.4517 145.344C31.706 147.353 30.5421 152.116 30.5421 152.116C30.5421 152.116 35.4461 152.107 38.7516 146.997C39.3312 146.101 38.4588 144.992 37.4517 145.344Z" fill="#5A5A63"/>
<path d="M23.9917 153.916C29.1394 157.164 29.2032 162.068 29.2032 162.068C29.2032 162.068 24.4267 160.958 22.3536 155.235C21.9903 154.231 23.0895 153.347 23.9917 153.916Z" fill="#5A5A63"/>
<path d="M35.5927 154.803C30.0114 157.232 29.2032 162.068 29.2032 162.068C29.2032 162.068 34.093 161.696 37.0116 156.355C37.5232 155.419 36.5714 154.377 35.5927 154.803Z" fill="#5A5A63"/>
<path d="M38.6835 122.825C38.7856 128.91 34.7181 131.65 34.7181 131.65C34.7181 131.65 33.0309 127.045 36.6831 122.176C37.3232 121.323 38.6656 121.758 38.6835 122.825Z" fill="#5A5A63"/>
<path d="M36.9439 167.067H23.865V192.941H36.9439V167.067Z" fill="#EDB62B"/>
<path opacity="0.67" d="M36.9439 167.067H31.7188V192.941H36.9439V167.067Z" fill="#A87D1D"/>
<path d="M42.6872 43.6629L37.9811 44.8334C37.2986 45.0034 36.6071 44.5873 36.4375 43.9047L35.9845 42.0833L43.1633 40.2979L43.6163 42.1192C43.7859 42.8023 43.3702 43.4933 42.6872 43.6629Z" fill="#A87D1D"/>
<path d="M60.1745 38.0483L19.5201 48.159C18.8148 48.3342 18.1006 47.9049 17.9249 47.1992L11.2203 20.2401C11.0451 19.5349 11.4745 18.8207 12.1802 18.645L52.8346 8.53428C53.5398 8.35903 54.254 8.7884 54.4293 9.4941L61.1339 36.4532C61.3096 37.1588 60.8797 37.8726 60.1745 38.0483Z" fill="#A87D1D"/>
<path d="M58.9696 33.3912L57.8359 36.6486L21.7656 45.619L18.5626 43.4405L11.919 16.729L52.3264 6.67969L58.9696 33.3912Z" fill="#EDB62B"/>
<path d="M31.6017 11.8346L11.9165 16.7295L18.5584 43.4402L38.2436 38.5452L31.6017 11.8346Z" fill="white"/>
<path d="M30.385 14.1197L14.211 18.1416L14.4433 19.0758L30.6173 15.0539L30.385 14.1197Z" fill="#AFAFAF"/>
<path d="M31.1319 17.1034L14.9578 21.127L15.1902 22.0611L31.3643 18.0376L31.1319 17.1034Z" fill="#AFAFAF"/>
<path d="M31.8714 20.0963L15.6973 24.1182L15.9296 25.0523L32.1037 21.0305L31.8714 20.0963Z" fill="#AFAFAF"/>
<path d="M32.6148 23.0865L16.4407 27.1084L16.673 28.0426L32.8471 24.0207L32.6148 23.0865Z" fill="#AFAFAF"/>
<path d="M33.3616 26.0702L17.1876 30.0938L17.4199 31.0279L33.594 27.0044L33.3616 26.0702Z" fill="#AFAFAF"/>
<path d="M34.1009 29.0631L17.9268 33.085L18.1591 34.0191L34.3332 29.9973L34.1009 29.0631Z" fill="#AFAFAF"/>
<path d="M34.8441 32.0504L18.67 36.0723L18.9023 37.0064L35.0764 32.9846L34.8441 32.0504Z" fill="#AFAFAF"/>
<path d="M35.5921 35.0351L19.418 39.0586L19.6504 39.9928L35.8245 35.9692L35.5921 35.0351Z" fill="#AFAFAF"/>
<path d="M52.3242 6.67335L32.639 11.5703L39.2837 38.281L58.9689 33.384L52.3242 6.67335Z" fill="white"/>
<path d="M50.9594 8.99797L34.7853 13.0215L35.0177 13.9556L51.1917 9.93213L50.9594 8.99797Z" fill="#AFAFAF"/>
<path d="M51.6998 11.9928L35.5258 16.0146L35.758 16.9488L51.9321 12.927L51.6998 11.9928Z" fill="#AFAFAF"/>
<path d="M52.4428 14.983L36.2687 19.0049L36.501 19.939L52.6751 15.9172L52.4428 14.983Z" fill="#AFAFAF"/>
<path d="M53.1893 17.9638L37.0153 21.9873L37.2476 22.9215L53.4217 18.8979L53.1893 17.9638Z" fill="#AFAFAF"/>
<path d="M53.9294 20.9596L37.7553 24.9814L37.9876 25.9156L54.1616 21.8938L53.9294 20.9596Z" fill="#AFAFAF"/>
<path d="M54.6725 23.9479L38.4984 27.9697L38.7307 28.9039L54.9048 24.882L54.6725 23.9479Z" fill="#AFAFAF"/>
<path d="M55.4198 26.9286L39.2458 30.9521L39.4781 31.8863L55.6522 27.8628L55.4198 26.9286Z" fill="#AFAFAF"/>
<path d="M56.1586 29.9244L39.9845 33.9463L40.2168 34.8805L56.3909 30.8586L56.1586 29.9244Z" fill="#AFAFAF"/>
<path d="M41.4543 42.1003L38.3396 42.875C37.6571 43.0446 36.9665 42.6289 36.7964 41.9468L36.5121 40.8033L42.0981 39.4141L42.3825 40.5576C42.5521 41.2397 42.1364 41.9308 41.4543 42.1003Z" fill="#EDB62B"/>
<path d="M110.585 3.6925C108.969 2.15641 106.928 1.10873 104.827 0.408703C104.813 0.40398 104.78 0.395005 104.732 0.382251C102.829 -0.127417 100.822 -0.127417 98.9185 0.382251C98.8708 0.395005 98.8382 0.40398 98.8241 0.408703C96.7226 1.10873 94.6815 2.15688 93.0661 3.6925C88.2575 8.2644 89.0388 16.5627 93.7217 20.9414C95.0353 22.1695 95.6121 23.7552 96.014 25.5034C96.1354 26.0301 96.8321 31.5212 96.5889 31.5212C98.9388 31.5212 101.825 31.5212 101.825 31.5212C101.825 31.5212 104.711 31.5212 107.061 31.5212C106.818 31.5212 107.515 26.0296 107.636 25.5034C108.038 23.7557 108.615 22.17 109.929 20.9414C114.612 16.5632 115.393 8.26487 110.585 3.6925Z" fill="#EDB62B"/>
<path opacity="0.52" d="M99.9422 25.5033C99.5402 23.7556 98.963 22.1699 97.6498 20.9414C92.9669 16.5626 92.1856 8.26435 96.9942 3.69245C98.6096 2.15636 100.651 1.10868 102.752 0.408653C102.766 0.403929 102.798 0.394954 102.847 0.382201C103.158 0.298594 103.473 0.233882 103.789 0.177672C102.174 -0.109046 100.51 -0.0443336 98.9186 0.382201C98.8709 0.394954 98.8383 0.403929 98.8241 0.408653C96.7226 1.10868 94.6811 2.15683 93.0661 3.69245C88.2576 8.26435 89.0388 16.5626 93.7217 20.9414C95.0354 22.1695 95.6121 23.7552 96.0141 25.5033C96.1355 26.03 96.8322 31.5211 96.5889 31.5211C97.9384 31.5211 99.4618 31.5211 100.517 31.5211C100.76 31.5211 100.064 26.0295 99.9422 25.5033Z" fill="#FFF6E7"/>
<path d="M101.825 31.5205V18.714L104.08 17.4146C104.824 16.9852 104.676 15.8691 103.844 15.6499L99.7424 14.5673C99.0428 14.3826 98.9635 13.4218 99.6233 13.1247L101.825 12.1342V7.78711" stroke="#FEFEFE" stroke-width="2.2387" stroke-miterlimit="10" stroke-linecap="round"/>
<path d="M108.104 33.2829C108.104 33.6721 107.788 33.9876 107.399 33.9876H95.8848C95.4956 33.9876 95.1801 33.6721 95.1801 33.2829C95.1801 32.8937 95.4956 32.5781 95.8848 32.5781H107.399C107.788 32.5781 108.104 32.8937 108.104 33.2829Z" fill="#2F2F35"/>
<path d="M108.104 35.3981C108.104 35.7873 107.788 36.1033 107.399 36.1033H95.8848C95.4956 36.1033 95.1801 35.7878 95.1801 35.3981C95.1801 35.0089 95.4956 34.6934 95.8848 34.6934H107.399C107.788 34.6934 108.104 35.0089 108.104 35.3981Z" fill="#2F2F35"/>
<path d="M108.104 37.5128C108.104 37.9021 107.788 38.2176 107.399 38.2176H95.8848C95.4956 38.2176 95.1801 37.9021 95.1801 37.5128C95.1801 37.1236 95.4956 36.8076 95.8848 36.8076H107.399C107.788 36.8081 108.104 37.1236 108.104 37.5128Z" fill="#2F2F35"/>
<path d="M101.641 43.1523C103.912 43.1523 105.754 41.3111 105.754 39.04H97.5294C97.5294 41.3116 99.3702 43.1523 101.641 43.1523Z" fill="#2F2F35"/>
<path d="M150.356 45.8578V42.5471H148.893C148.617 40.9746 147.974 39.532 147.055 38.3034L148.216 37.1429L145.875 34.8019L144.671 36.0059C143.439 35.1642 142.006 34.6002 140.463 34.3777V32.6484H137.153V34.4424C135.673 34.7216 134.312 35.3271 133.139 36.1788L131.967 35.0069L129.626 37.3479L130.813 38.5349C129.946 39.7682 129.355 41.2051 129.116 42.7601H127.473V46.0703H129.152C129.423 47.5875 130.035 48.9829 130.906 50.1817L129.612 51.475L131.953 53.816L133.263 52.5066C134.464 53.3502 135.858 53.9317 137.366 54.183V55.9699H140.676V54.183C142.179 53.9331 143.569 53.355 144.767 52.5161L145.862 53.611L148.203 51.27L147.127 50.194C148.043 48.937 148.67 47.4614 148.922 45.8578H150.356ZM139.021 49.9276C135.911 49.9276 133.39 47.4062 133.39 44.2962C133.39 41.1857 135.911 38.6648 139.021 38.6648C142.132 38.6648 144.653 41.1862 144.653 44.2962C144.653 47.4066 142.132 49.9276 139.021 49.9276Z" fill="#666666"/>
<path d="M163.558 58.4129V56.5032H162.714C162.554 55.5958 162.183 54.764 161.654 54.055L162.323 53.3852L160.973 52.0348L160.279 52.7291C159.568 52.2435 158.741 51.9181 157.851 51.7896V50.792H155.941V51.8269C155.087 51.988 154.302 52.3375 153.625 52.8288L152.95 52.1528L151.599 53.5033L152.284 54.1882C151.784 54.8996 151.443 55.7285 151.305 56.6255H150.357V58.5353H151.326C151.482 59.4105 151.835 60.2154 152.337 60.907L151.591 61.6533L152.942 63.0037L153.697 62.2484C154.39 62.7354 155.194 63.0708 156.063 63.2153V64.246H157.973V63.2153C158.84 63.0713 159.642 62.7378 160.333 62.2536L160.964 62.8852L162.315 61.5347L161.694 60.914C162.223 60.189 162.585 59.3378 162.73 58.4125L163.558 58.4129ZM157.018 60.7605C155.224 60.7605 153.77 59.3061 153.77 57.5117C153.77 55.7177 155.224 54.2628 157.018 54.2628C158.813 54.2628 160.267 55.7172 160.267 57.5117C160.267 59.3061 158.813 60.7605 157.018 60.7605Z" fill="#9E9E9E"/>
<path d="M193.646 33.678V26.8794H190.642C190.073 23.6499 188.753 20.6878 186.868 18.164L189.252 15.78L184.444 10.9729L181.972 13.4452C179.441 11.7169 176.499 10.5587 173.33 10.101V6.5498H166.531V10.2342C163.493 10.8071 160.698 12.0513 158.289 13.8004L155.883 11.3943L151.076 16.2014L153.513 18.6392C151.732 21.172 150.52 24.1227 150.028 27.3163H146.653V34.1149H150.103C150.66 37.2305 151.915 40.0958 153.704 42.5577L151.047 45.2142L155.854 50.0214L158.544 47.3323C161.01 49.0653 163.872 50.2594 166.969 50.7748V54.4445H173.768V50.7748C176.854 50.2613 179.708 49.0743 182.168 47.3512L184.417 49.6L189.224 44.7929L187.015 42.5837C188.897 40.0023 190.185 36.9726 190.702 33.6784L193.646 33.678ZM170.368 42.0367C163.981 42.0367 158.803 36.8588 158.803 30.4721C158.803 24.085 163.981 18.907 170.368 18.907C176.755 18.907 181.933 24.085 181.933 30.4721C181.933 36.8588 176.755 42.0367 170.368 42.0367Z" fill="#8B8B8C"/>
<path d="M170.15 37.2845C173.898 37.2845 176.936 34.2462 176.936 30.4982C176.936 26.7502 173.898 23.7119 170.15 23.7119C166.402 23.7119 163.363 26.7502 163.363 30.4982C163.363 34.2462 166.402 37.2845 170.15 37.2845Z" fill="#666666"/>
<path d="M37.9598 65.2132C23.3783 66.0975 12.0437 74.836 12.6441 84.7308C13.2445 94.6257 25.5516 101.93 40.1331 101.045C40.144 101.045 40.1549 101.044 40.1657 101.044C41.6007 100.955 42.6045 99.5689 42.2497 98.1759C42.0773 97.4981 41.98 96.7881 41.9687 96.055C41.8945 91.3386 45.543 87.2863 50.241 86.8616C53.6505 86.5536 56.7651 88.1563 58.5629 90.7647C59.45 92.0518 61.3356 92.143 62.295 90.9083C64.4872 88.0864 65.652 84.874 65.4489 81.5283C64.849 71.633 52.5418 64.3285 37.9598 65.2132Z" fill="#5A5A63"/>
<path d="M37.8632 63.6126C23.2816 64.4969 11.9471 73.2354 12.5474 83.1302C13.1478 93.0251 25.4549 100.33 40.0369 99.4448C40.0478 99.4444 40.0587 99.4434 40.0695 99.443C41.5045 99.3546 42.5083 97.9683 42.1535 96.5753C41.9811 95.8975 41.8838 95.1875 41.8725 94.4544C41.7983 89.738 45.4468 85.6857 50.1448 85.261C53.5542 84.9531 56.6689 86.5557 58.4667 89.1641C59.3538 90.4512 61.2394 90.5424 62.1988 89.3077C64.391 86.4858 65.5558 83.2734 65.3527 79.9277C64.7518 70.0324 52.4447 62.7279 37.8632 63.6126Z" fill="#8B8B8C"/>
<path d="M32.7129 91.6635C32.8197 93.4211 31.481 94.9326 29.7234 95.0394C27.9658 95.1461 26.4542 93.8075 26.3475 92.0498C26.2407 90.2922 27.5794 88.7807 29.337 88.6739C31.0946 88.5672 32.6062 89.9058 32.7129 91.6635Z" fill="#EDB62B"/>
<path d="M24.0264 85.6283C24.1331 87.3859 22.7945 88.8975 21.0368 89.0042C19.2792 89.111 17.7677 87.7723 17.6609 86.0147C17.5542 84.2571 18.8928 82.7455 20.6505 82.6388C22.4086 82.532 23.9196 83.8707 24.0264 85.6283Z" fill="#EDB62B"/>
<path d="M26.5806 75.0746C26.6873 76.8322 25.3487 78.3437 23.5911 78.4505C21.8334 78.5573 20.3219 77.2186 20.2152 75.461C20.1084 73.7033 21.4471 72.1918 23.2047 72.0851C24.9628 71.9783 26.4743 73.317 26.5806 75.0746Z" fill="#EDB62B"/>
<path d="M37.3458 69.3695C37.4525 71.1271 36.1139 72.6387 34.3562 72.7454C32.5986 72.8522 31.0871 71.5135 30.9803 69.7559C30.8736 67.9983 32.2122 66.4867 33.9698 66.38C35.7275 66.2732 37.239 67.6119 37.3458 69.3695Z" fill="#EDB62B"/>
<path d="M49.4715 69.5238C49.5783 71.2814 48.2397 72.793 46.482 72.8997C44.7244 73.0065 43.2129 71.6678 43.1061 69.9102C42.9994 68.1526 44.338 66.641 46.0956 66.5343C47.8533 66.4275 49.3648 67.7662 49.4715 69.5238Z" fill="#EDB62B"/>
<path d="M59.706 75.2924C59.8127 77.05 58.4741 78.5615 56.7164 78.6683C54.9588 78.775 53.4473 77.4364 53.3405 75.6787C53.2338 73.9211 54.5724 72.4096 56.3301 72.3028C58.0882 72.1961 59.5997 73.5347 59.706 75.2924Z" fill="#EDB62B"/>
<path opacity="0.68" d="M52.0546 65.501L49.0528 71.7814C48.6569 71.762 48.2743 71.9869 48.1166 72.3751L48.1081 72.3964C47.9078 72.8876 48.1439 73.4483 48.6357 73.6486L48.9172 73.7634C48.8619 73.745 48.5757 73.7114 47.972 74.5905C47.9715 74.5909 47.9715 74.5909 47.9715 74.5914C47.9352 74.6443 47.8974 74.7015 47.8587 74.7615C47.8549 74.7676 47.8511 74.7733 47.8468 74.7794C47.8109 74.8356 47.7736 74.8951 47.7354 74.9575C47.7278 74.9702 47.7202 74.9825 47.7122 74.9953C47.6763 75.0543 47.6399 75.1162 47.6026 75.1809C47.5918 75.1998 47.5804 75.2192 47.5691 75.239C47.5337 75.3009 47.4978 75.3651 47.4609 75.4322C47.4463 75.4586 47.4316 75.486 47.4165 75.5134C47.3816 75.5782 47.3457 75.6452 47.3093 75.7147C47.2914 75.7487 47.2734 75.7836 47.255 75.8191C47.22 75.8866 47.1846 75.9556 47.1482 76.0278C47.127 76.0703 47.1053 76.1143 47.083 76.1587C47.0481 76.2291 47.0131 76.3004 46.9777 76.3745C46.9531 76.4256 46.9281 76.4785 46.9026 76.5318C46.8677 76.606 46.8322 76.6806 46.7963 76.7586C46.7689 76.8171 46.7411 76.879 46.7132 76.9399C46.6778 77.0179 46.6423 77.0958 46.606 77.1775C46.5753 77.2465 46.5436 77.3192 46.512 77.3915C46.477 77.4713 46.4421 77.5507 46.4062 77.6338C46.3717 77.7141 46.3363 77.7982 46.3008 77.8818C46.2659 77.9649 46.2309 78.0467 46.195 78.1331C46.1572 78.2238 46.1185 78.3192 46.0798 78.4132C46.0448 78.4987 46.0103 78.5823 45.9744 78.6711C45.9329 78.7746 45.8894 78.8841 45.8469 78.9923C45.8124 79.0797 45.7784 79.1647 45.743 79.2554C45.6953 79.3773 45.6461 79.5058 45.597 79.6333C45.5654 79.716 45.5342 79.7953 45.5021 79.8803C45.444 80.0334 45.3845 80.194 45.3245 80.3541C45.2994 80.4217 45.2749 80.4859 45.2494 80.5549C45.1634 80.7882 45.0756 81.0286 44.9858 81.2785C44.7454 81.9478 44.4643 82.7357 44.1545 83.6096C44.1186 83.7111 44.0836 83.8098 44.0463 83.9138C43.9995 84.046 43.9504 84.1844 43.9022 84.3209C43.8621 84.4343 43.8229 84.5453 43.7818 84.6615C43.7185 84.8405 43.6533 85.0257 43.5881 85.2108C43.5588 85.294 43.5305 85.3747 43.5007 85.4588C43.436 85.6421 43.3699 85.8301 43.3038 86.0186C43.2702 86.1144 43.2367 86.2084 43.2027 86.3058C43.1403 86.4824 43.077 86.6638 43.0133 86.8447C42.974 86.9567 42.9353 87.0662 42.8956 87.1796C42.8224 87.3889 42.7478 87.6019 42.6727 87.8159C42.6443 87.8962 42.617 87.975 42.5886 88.0563C42.5126 88.2745 42.4351 88.4961 42.3572 88.7185C42.3241 88.8135 42.291 88.9075 42.258 89.0029C42.1857 89.2098 42.1125 89.42 42.0393 89.6302C42.0019 89.7374 41.9651 89.8432 41.9273 89.9514C41.8494 90.1743 41.771 90.4001 41.6926 90.6264C41.6586 90.7237 41.625 90.82 41.5915 90.9178C41.514 91.1403 41.4361 91.3651 41.3581 91.5904C41.3189 91.7029 41.2802 91.8143 41.2415 91.9272C41.1716 92.1294 41.1012 92.3325 41.0308 92.5361C40.9807 92.6802 40.9311 92.8242 40.8811 92.9692C40.8206 93.144 40.7597 93.3202 40.6992 93.4959C40.6416 93.6631 40.5839 93.8299 40.5258 93.9975C40.4611 94.1855 40.3959 94.374 40.3312 94.5625C40.2972 94.6612 40.2632 94.759 40.2292 94.8582C39.6997 96.3966 39.1659 97.9577 38.6407 99.5042C39.1036 99.4924 39.5693 99.4731 40.0374 99.4447C40.0483 99.4442 40.0592 99.4433 40.07 99.4428C41.505 99.3545 42.5088 97.9681 42.154 96.5752C41.9816 95.8974 41.8843 95.1874 41.873 94.4543C41.8083 90.3264 44.5942 86.7077 48.4401 85.5835C48.8652 84.6634 49.245 83.8377 49.5629 83.141C52.9459 75.7326 52.1051 75.0685 51.9988 75.017L52.2803 75.1318C52.7716 75.3316 53.3323 75.0954 53.5325 74.6042L53.5411 74.5829C53.7281 74.1233 53.5307 73.607 53.1022 73.3779L55.3516 66.9114C54.3115 66.3852 53.2104 65.9133 52.0546 65.501Z" fill="#2F2F35"/>
<path opacity="0.42" d="M26.0287 74.5848C26.0731 75.3198 25.5134 75.9523 24.7784 75.9967C24.0434 76.0411 23.4109 75.4813 23.3665 74.7464C23.3221 74.0114 23.8819 73.3789 24.6168 73.3345C25.3518 73.2901 25.9838 73.8498 26.0287 74.5848Z" fill="white"/>
<path opacity="0.42" d="M36.8009 68.9921C36.8453 69.7271 36.2856 70.3596 35.5506 70.404C34.8156 70.4484 34.1832 69.8886 34.1388 69.1536C34.0944 68.4187 34.6541 67.7862 35.3891 67.7418C36.1241 67.6969 36.7561 68.2566 36.8009 68.9921Z" fill="white"/>
<path opacity="0.42" d="M48.2068 68.7088C48.2512 69.4438 47.6914 70.0763 46.9564 70.1207C46.2215 70.1651 45.589 69.6054 45.5446 68.8704C45.5002 68.1354 46.0599 67.5029 46.7949 67.4585C47.5299 67.4141 48.1619 67.9739 48.2068 68.7088Z" fill="white"/>
<path opacity="0.42" d="M22.6822 84.6864C22.7266 85.4214 22.1669 86.0538 21.4319 86.0982C20.6969 86.1426 20.0644 85.5829 20.02 84.8479C19.9756 84.1129 20.5354 83.4805 21.2704 83.4361C22.0053 83.3917 22.6374 83.9514 22.6822 84.6864Z" fill="white"/>
<path opacity="0.42" d="M32.1347 90.7372C32.1791 91.4721 31.6193 92.1046 30.8843 92.149C30.1494 92.1934 29.5169 91.6337 29.4725 90.8987C29.4281 90.1637 29.9878 89.5312 30.7228 89.4868C31.4578 89.4424 32.0898 90.0022 32.1347 90.7372Z" fill="white"/>
<path d="M63.7128 63.6032C63.7128 63.6032 68.0631 61.2254 68.3418 57.5505C68.3243 55.3786 67.381 53.5964 67.381 53.5964L66.7854 55.8344C66.7854 55.8344 66.4581 52.3187 63.9475 50.6201C61.437 48.9216 62.0548 49.3986 62.0548 49.3986C62.0548 49.3986 64.1629 52.1964 61.8229 56.8358C59.4828 61.4753 62.436 63.0836 62.436 63.0836L63.7128 63.6032Z" fill="#EDB62B"/>
<path d="M63.444 62.0965C63.444 62.0965 62.6571 58.0617 64.4553 55.8936C62.1176 58.8571 61.6349 61.2382 62.222 63.1621C63.444 62.0965 63.444 62.0965 63.444 62.0965Z" fill="#A87D1D"/>
<path d="M61.3429 62.8942C61.726 62.1185 62.6428 61.7704 63.4444 62.0968L63.4586 62.1025L63.4727 62.1082C64.2738 62.4346 64.6871 63.324 64.4193 64.1468L61.5587 72.935L59.4048 72.0578L57.2509 71.1806L61.3429 62.8942Z" fill="white"/>
<path d="M56.9176 73.1448L60.5618 74.6285C61.0531 74.8288 61.6138 74.5926 61.8141 74.1009L61.8225 74.0796C62.0228 73.5879 61.7867 73.0277 61.2949 72.8274L57.6507 71.3437C57.1595 71.1435 56.5988 71.3796 56.3985 71.8714L56.39 71.8926C56.1902 72.3839 56.4264 72.9445 56.9176 73.1448Z" fill="#CCCCCC"/>
<path d="M57.21 73.2635L58.74 73.8861L60.2699 74.5091C60.2699 74.5091 61.431 74.7836 57.8444 82.6374C55.1789 88.4747 48.3227 103.115 44.3719 110.937C44.0026 111.669 42.8944 111.218 43.141 110.436C45.7777 102.078 51.0978 86.813 53.2678 80.7739C56.1874 72.649 57.21 73.2635 57.21 73.2635Z" fill="#2F2F35"/>
<path d="M49.0501 101.374C47.3426 104.935 45.694 108.318 44.3715 110.937C44.0021 111.668 42.8939 111.217 43.1405 110.435C44.0233 107.638 45.207 104.065 46.472 100.324L49.0501 101.374Z" fill="white"/>
<path opacity="0.75" d="M48.5109 94.3546C54.1319 87.3973 56.2452 74.1445 56.2546 74.0869C55.6306 74.9957 54.668 76.8795 53.2679 80.775C52.2075 83.7257 50.3951 88.8801 48.5109 94.3546Z" fill="white"/>
<path d="M157.337 78.04L158.333 80.0579L160.559 80.3815L158.948 81.9521L159.328 84.1702L157.337 83.123L155.345 84.1702L155.726 81.9521L154.115 80.3815L156.341 80.0579L157.337 78.04Z" fill="#9E9E9E"/>
<path d="M186.007 75.2207L187.398 78.0383L190.508 78.4903L188.258 80.6835L188.789 83.7802L186.007 82.3183L183.227 83.7802L183.758 80.6835L181.508 78.4903L184.617 78.0383L186.007 75.2207Z" fill="#666666"/>
<path d="M177.306 117.445L178.082 119.018L179.818 119.27L178.562 120.494L178.859 122.223L177.306 121.406L175.754 122.223L176.05 120.494L174.794 119.27L176.53 119.018L177.306 117.445Z" fill="#9E9E9E"/>
<path d="M149.615 106.792L151.005 109.61L154.114 110.061L151.865 112.254L152.396 115.351L149.615 113.889L146.834 115.351L147.365 112.254L145.115 110.061L148.224 109.61L149.615 106.792Z" fill="#666666"/>
<path d="M176.278 113.447C184.227 110.259 188.088 101.231 184.9 93.2818C181.712 85.3325 172.684 81.4724 164.735 84.66C156.786 87.8476 152.925 96.8758 156.113 104.825C159.301 112.774 168.329 116.635 176.278 113.447Z" fill="#EDB62B"/>
<g opacity="0.67">
<path d="M166.329 113.99C171.807 115.519 177.416 113.904 181.243 110.233C178.652 110.927 175.847 110.961 173.075 110.188C164.826 107.886 160.005 99.3331 162.307 91.0839C163.08 88.3126 164.561 85.9305 166.497 84.0732C161.375 85.4459 157.089 89.4089 155.561 94.8868C153.259 103.136 158.081 111.688 166.329 113.99Z" fill="#A87D1D"/>
</g>
<path opacity="0.52" d="M174.665 84.1167C173.893 83.9013 173.117 83.7483 172.345 83.6543C171.94 85.1044 171.72 86.6306 171.72 88.2097C171.72 96.2817 177.371 103.029 184.931 104.724C185.122 104.237 185.29 103.735 185.434 103.221C187.735 94.9714 182.914 86.418 174.665 84.1167Z" fill="#FFF6E7"/>
<path d="M155.044 97.776C149.028 95.4322 145.286 93.3118 145.601 92.1852C146.124 90.3109 157.672 91.8957 171.394 95.7246C185.116 99.5535 195.816 104.177 195.293 106.051C194.98 107.174 190.708 107.055 184.381 105.956" stroke="#666666" stroke-width="2" stroke-miterlimit="10"/>
</svg>
