<svg width="70" height="71" viewBox="0 0 70 71" fill="none" xmlns="http://www.w3.org/2000/svg">
<path d="M68.25 69.2656C68.1406 69.2656 68.0312 69.2656 67.8125 69.1562C45.9375 57.4531 23.8438 57.4531 2.29687 69.1562C1.85937 69.375 1.42188 69.2656 1.20313 68.8281C0.984375 68.3906 1.09375 67.9531 1.53125 67.7344C23.625 55.7031 46.1562 55.7031 68.5781 67.7344C69.0156 67.9531 69.125 68.3906 68.9062 68.8281C68.7969 69.1562 68.4688 69.2656 68.25 69.2656Z" fill="white"/>
<path d="M35 27.8125H33.7969C28.3281 27.8125 23.8438 23.3281 23.8438 17.8594V16.6563C23.8438 16.2188 24.1719 15.7812 24.7188 15.7812H25.9219C31.3906 15.7812 35.875 20.2656 35.875 25.7344V26.9375C35.875 27.4844 35.4375 27.8125 35 27.8125ZM25.4844 17.5313V17.8594C25.4844 22.4531 29.2031 26.1719 33.7969 26.1719H34.125V25.8438C34.125 21.25 30.4063 17.5313 25.8125 17.5313H25.4844Z" fill="white"/>
<path d="M35 39.625H33.7969C28.3281 39.625 23.8438 35.1406 23.8438 29.6719V28.4687C23.8438 28.0312 24.1719 27.5938 24.7188 27.5938H25.9219C31.3906 27.5938 35.875 32.0781 35.875 37.5469V38.75C35.875 39.1875 35.4375 39.625 35 39.625ZM25.4844 29.2344V29.5625C25.4844 34.1562 29.2031 37.875 33.7969 37.875H34.125V37.5469C34.125 32.9531 30.4063 29.2344 25.8125 29.2344H25.4844Z" fill="white"/>
<path d="M35 51.2188H33.7969C28.3281 51.2188 23.8438 46.7344 23.8438 41.2656V40.0625C23.8438 39.625 24.1719 39.1875 24.7188 39.1875H25.9219C31.3906 39.1875 35.875 43.6719 35.875 49.1406V50.3438C35.875 50.8906 35.4375 51.2188 35 51.2188ZM25.4844 40.9375V41.2656C25.4844 45.8594 29.2031 49.5781 33.7969 49.5781H34.125V49.25C34.125 44.6563 30.4063 40.9375 25.8125 40.9375H25.4844Z" fill="white"/>
<path d="M36.2031 27.8125H35C34.5625 27.8125 34.125 27.4844 34.125 26.9375V25.7344C34.125 20.2656 38.6094 15.7812 44.0781 15.7812H45.2813C45.7188 15.7812 46.1562 16.1094 46.1562 16.6563V17.8594C46.1562 23.3281 41.6719 27.8125 36.2031 27.8125ZM35.875 26.1719H36.2031C40.7969 26.1719 44.5156 22.4531 44.5156 17.8594V17.5313H44.1875C39.5938 17.5313 35.875 21.25 35.875 25.8438V26.1719Z" fill="white"/>
<path d="M36.2031 39.625H35C34.5625 39.625 34.125 39.2969 34.125 38.75V37.5469C34.125 32.0781 38.6094 27.5938 44.0781 27.5938H45.2813C45.7188 27.5938 46.1562 27.9219 46.1562 28.4687V29.6719C46.1562 35.1406 41.6719 39.625 36.2031 39.625ZM35.875 37.9844H36.2031C40.7969 37.9844 44.5156 34.2656 44.5156 29.6719V29.3438H44.1875C39.5938 29.3438 35.875 33.0625 35.875 37.6563V37.9844Z" fill="white"/>
<path d="M36.2031 51.2188H35C34.5625 51.2188 34.125 50.8906 34.125 50.3438V49.1406C34.125 43.6719 38.6094 39.1875 44.0781 39.1875H45.2813C45.7188 39.1875 46.1562 39.5156 46.1562 40.0625V41.2656C46.1562 46.7344 41.6719 51.2188 36.2031 51.2188ZM35.875 49.5781H36.2031C40.7969 49.5781 44.5156 45.8594 44.5156 41.2656V40.9375H44.1875C39.5938 40.9375 35.875 44.6563 35.875 49.25V49.5781Z" fill="white"/>
<path d="M35 17.6406C34.7812 17.6406 34.5625 17.5312 34.4531 17.4219L33.5781 16.5469C29.6406 12.6094 29.6406 6.375 33.5781 2.4375L34.4531 1.5625C34.7812 1.23438 35.2187 1.23438 35.5469 1.5625L36.4219 2.32812C40.25 6.26562 40.25 12.5 36.5313 16.5469L35.6562 17.4219C35.4375 17.5312 35.2187 17.6406 35 17.6406ZM35 3.3125L34.6719 3.64062C31.3906 6.92187 31.3906 12.1719 34.6719 15.4531L34.8906 15.6719L35.1094 15.4531C38.2812 12.0625 38.2812 6.8125 35.1094 3.53125L35 3.3125Z" fill="white"/>
<path d="M35 60.2969C34.5625 60.2969 34.125 59.9687 34.125 59.4219V16.6563C34.125 16.2188 34.4531 15.7812 35 15.7812C35.5469 15.7812 35.875 16.1094 35.875 16.6563V59.4219C35.875 59.8594 35.4375 60.2969 35 60.2969Z" fill="white"/>
<path d="M12.25 34.5938H11.0469C5.57813 34.5938 1.09375 30.1094 1.09375 24.6406V23.4375C1.09375 23 1.42187 22.5625 1.96875 22.5625H3.0625C8.42188 22.5625 12.7969 26.8281 13.0156 32.0781C13.125 32.1875 13.125 32.2969 13.125 32.4062V33.6094C13.0156 34.2656 12.6875 34.5938 12.25 34.5938ZM2.73438 24.3125V24.6406C2.73438 29.2344 6.45313 32.9531 11.0469 32.9531H11.375C11.2656 32.8438 11.2656 32.7344 11.2656 32.625C11.2656 28.0313 7.54688 24.3125 2.95312 24.3125H2.73438Z" fill="white"/>
<path d="M12.25 46.4062H11.0469C5.57813 46.4062 1.09375 41.9219 1.09375 36.4531V35.25C1.09375 34.8125 1.42187 34.375 1.96875 34.375H3.0625C8.42188 34.375 12.7969 38.6406 13.0156 43.8906C13.125 44 13.125 44.1094 13.125 44.2188V45.4219C13.0156 45.9687 12.6875 46.4062 12.25 46.4062ZM2.73438 36.125V36.4531C2.73438 41.0469 6.45313 44.7656 11.0469 44.7656H11.375C11.2656 44.6562 11.2656 44.5469 11.2656 44.4375C11.2656 39.8438 7.54688 36.125 2.95312 36.125H2.73438Z" fill="white"/>
<path d="M12.25 58.1094H11.0469C5.57813 58.1094 1.09375 53.625 1.09375 48.1562V46.9531C1.09375 46.5156 1.42188 46.1875 1.85938 46.1875H2.95312C8.3125 46.1875 12.6875 50.4531 12.9062 55.7031C13.0156 55.8125 13.0156 55.9219 13.0156 56.0312V57.2344C13.0156 57.7812 12.6875 58.1094 12.25 58.1094ZM2.73438 47.8281V48.1562C2.73438 52.75 6.45313 56.4688 11.0469 56.4688H11.375C11.2656 56.3594 11.2656 56.25 11.2656 56.1406C11.2656 51.5469 7.54688 47.8281 2.95312 47.8281H2.73438Z" fill="white"/>
<path d="M13.2344 34.5938H12.0313C11.5938 34.5938 11.1562 34.2656 11.1562 33.7188V32.5156C11.1562 27.0469 15.6406 22.5625 21.1094 22.5625H22.3125C22.75 22.5625 23.1875 22.8906 23.1875 23.4375V24.6406C23.1875 30.1094 18.7031 34.5938 13.2344 34.5938ZM12.9063 32.9531H13.2344C17.8281 32.9531 21.5469 29.2344 21.5469 24.6406V24.3125H21.2188C16.625 24.3125 12.9063 28.0313 12.9063 32.625V32.9531Z" fill="white"/>
<path d="M13.2344 46.4062H12.0313C11.5938 46.4062 11.1562 46.0781 11.1562 45.5313V44.3281C11.1562 38.8594 15.6406 34.375 21.1094 34.375H22.3125C22.75 34.375 23.1875 34.7031 23.1875 35.25V36.4531C23.1875 41.9219 18.7031 46.4062 13.2344 46.4062ZM12.9063 44.7656H13.2344C17.8281 44.7656 21.5469 41.0469 21.5469 36.4531V36.125H21.2188C16.625 36.125 12.9063 39.8438 12.9063 44.4375V44.7656Z" fill="white"/>
<path d="M13.2344 58.1094H12.0313C11.5938 58.1094 11.1562 57.7812 11.1562 57.2344V56.0312C11.1562 50.5625 15.6406 46.0781 21.1094 46.0781H22.3125C22.75 46.0781 23.1875 46.4062 23.1875 46.9531V48.1562C23.1875 53.625 18.7031 58.1094 13.2344 58.1094ZM12.9063 56.4688H13.2344C17.8281 56.4688 21.5469 52.75 21.5469 48.1562V47.8281H21.2188C16.625 47.8281 12.9063 51.5469 12.9063 56.1406V56.4688Z" fill="white"/>
<path d="M12.1406 24.3125C11.9219 24.3125 11.7031 24.2031 11.5938 24.0937L10.6094 23.2188C6.67187 19.2812 6.67187 13.0469 10.6094 9.10938L11.4844 8.23438C11.5938 8.125 11.8125 8.01562 12.0312 8.01562C12.25 8.01562 12.4688 8.125 12.5781 8.23438L13.4531 9.10938C15.4219 11.0781 16.4062 13.5938 16.4062 16.2188C16.4062 18.8438 15.3125 21.3594 13.4531 23.1094L12.5781 23.9844C12.4688 24.2031 12.3594 24.3125 12.1406 24.3125ZM12.1406 9.98437L11.9219 10.2031C8.64062 13.4844 8.64062 18.7344 11.9219 22.0156L12.1406 22.2344L12.3594 22.0156C13.8906 20.4844 14.7656 18.4063 14.875 16.2188C14.875 13.9219 14 11.8438 12.3594 10.2031L12.1406 9.98437Z" fill="white"/>
<path d="M12.1406 64.2344C11.7031 64.2344 11.2656 63.9063 11.2656 63.3594V23.4375C11.2656 23 11.5938 22.5625 12.1406 22.5625C12.6875 22.5625 13.0156 22.8906 13.0156 23.4375V63.4688C12.9062 63.9062 12.5781 64.2344 12.1406 64.2344Z" fill="white"/>
<path d="M57.8594 34.5938H56.6562C51.1875 34.5938 46.7031 30.1094 46.7031 24.6406V23.4375C46.7031 23 47.0312 22.5625 47.5781 22.5625H48.7812C54.25 22.5625 58.7344 27.0469 58.7344 32.5156V33.7188C58.7344 34.2656 58.4063 34.5938 57.8594 34.5938ZM48.4531 24.3125V24.6406C48.4531 29.2344 52.1719 32.9531 56.7656 32.9531H57.0938V32.625C57.0938 28.0313 53.375 24.3125 48.7812 24.3125H48.4531Z" fill="white"/>
<path d="M57.8594 46.4062H56.6562C51.1875 46.4062 46.7031 41.9219 46.7031 36.4531V35.25C46.7031 34.8125 47.0312 34.375 47.5781 34.375H48.7812C54.25 34.375 58.7344 38.8594 58.7344 44.3281V45.5313C58.7344 45.9688 58.4063 46.4062 57.8594 46.4062ZM48.4531 36.125V36.4531C48.4531 41.0469 52.1719 44.7656 56.7656 44.7656H57.0938V44.4375C57.0938 39.8438 53.375 36.125 48.7812 36.125H48.4531Z" fill="white"/>
<path d="M57.8594 58.1094H56.6562C51.1875 58.1094 46.7031 53.625 46.7031 48.1562V46.9531C46.7031 46.5156 47.0312 46.0781 47.5781 46.0781H48.7812C54.25 46.0781 58.7344 50.5625 58.7344 56.0312V57.2344C58.7344 57.7812 58.4063 58.1094 57.8594 58.1094ZM48.4531 47.8281V48.1562C48.4531 52.75 52.1719 56.4688 56.7656 56.4688H57.0938V56.1406C57.0938 51.5469 53.375 47.8281 48.7812 47.8281H48.4531Z" fill="white"/>
<path d="M59.0625 34.5938H57.8594C57.4219 34.5938 56.9844 34.2656 56.9844 33.7188V32.5156C56.9844 27.0469 61.4688 22.5625 66.9375 22.5625H68.1406C68.5781 22.5625 69.0156 22.8906 69.0156 23.4375V24.6406C69.0156 30.1094 64.5313 34.5938 59.0625 34.5938ZM58.7344 32.9531H59.0625C63.6563 32.9531 67.375 29.2344 67.375 24.6406V24.3125H67.0469C62.4531 24.3125 58.7344 28.0313 58.7344 32.625V32.9531Z" fill="white"/>
<path d="M59.0625 46.4062H57.8594C57.4219 46.4062 56.9844 46.0781 56.9844 45.5313V44.3281C56.9844 38.8594 61.4688 34.375 66.9375 34.375H68.1406C68.5781 34.375 69.0156 34.7031 69.0156 35.25V36.4531C69.0156 41.9219 64.5313 46.4062 59.0625 46.4062ZM58.7344 44.7656H59.0625C63.6563 44.7656 67.375 41.0469 67.375 36.4531V36.125H67.0469C62.4531 36.125 58.7344 39.8438 58.7344 44.4375V44.7656Z" fill="white"/>
<path d="M59.0625 58.1094H57.8594C57.4219 58.1094 56.9844 57.7812 56.9844 57.2344V56.0312C56.9844 50.5625 61.4688 46.0781 66.9375 46.0781H68.1406C68.5781 46.0781 69.0156 46.4062 69.0156 46.9531V48.1562C69.0156 53.625 64.5313 58.1094 59.0625 58.1094ZM58.7344 56.4688H59.0625C63.6563 56.4688 67.375 52.75 67.375 48.1562V47.8281H67.0469C62.4531 47.8281 58.7344 51.5469 58.7344 56.1406V56.4688Z" fill="white"/>
<path d="M57.75 24.3125C57.5312 24.3125 57.3125 24.2031 57.2031 24.0937L56.3281 23.2188C52.3906 19.2812 52.3906 13.0469 56.3281 9.10938L57.2031 8.23438C57.3125 8.125 57.5312 8.01562 57.75 8.01562C57.9687 8.01562 58.1875 8.125 58.2969 8.23438L59.1719 9.10938C61.1406 11.0781 62.125 13.5938 62.125 16.2188C62.125 18.8438 61.0312 21.3594 59.1719 23.1094L58.2969 23.9844C58.1875 24.2031 57.9687 24.3125 57.75 24.3125ZM57.75 9.98437L57.5312 10.2031C54.25 13.4844 54.25 18.7344 57.5312 22.0156L57.75 22.2344L57.9688 22.0156C59.5 20.4844 60.375 18.4063 60.4844 16.2188C60.4844 13.9219 59.6094 11.8438 57.9688 10.2031L57.75 9.98437Z" fill="white"/>
<path d="M57.8594 64.2344C57.4219 64.2344 56.9844 63.9063 56.9844 63.3594V23.4375C56.9844 23 57.3125 22.5625 57.8594 22.5625C58.4063 22.5625 58.7344 22.8906 58.7344 23.4375V63.4688C58.7344 63.9062 58.4063 64.2344 57.8594 64.2344Z" fill="white"/>
</svg>
