<svg width="70" height="70" viewBox="0 0 70 70" fill="none" xmlns="http://www.w3.org/2000/svg">
<path d="M46.3485 50.8029L42.2121 55.0453L38.1818 51.015C35.8485 52.6059 33.197 53.7726 30.3333 54.3029V59.9241H23.5455V54.3029C20.6818 53.7726 18.0303 52.7119 15.697 51.015L11.7727 54.9392L7 50.1665L10.9242 46.2422C9.33334 43.9089 8.16667 41.2574 7.74243 38.3938H2.12122V31.6059H7.74243C8.27273 28.7422 9.33334 26.0907 10.9242 23.7574L7 19.8332L11.7727 15.0604L15.697 18.9847C18.0303 17.3938 20.6818 16.2271 23.5455 15.8029V10.1816H30.3333V15.8029C33.197 16.3332 35.8485 17.3938 38.1818 18.9847L42.1061 15.0604L46.8788 19.8332" stroke="white" stroke-width="2" stroke-miterlimit="10" stroke-linecap="round" stroke-linejoin="round"/>
<path d="M28.3182 49.3176C27.2576 49.4237 26.197 49.4237 25.1364 49.2116C18.5606 48.3631 13.2576 42.954 12.6212 36.3782C11.7727 27.7873 18.5606 20.5752 26.9394 20.5752C27.3636 20.5752 27.7879 20.5752 28.3182 20.6813" stroke="white" stroke-width="2" stroke-miterlimit="10" stroke-linecap="round" stroke-linejoin="round"/>
<path d="M28.8485 30.8637H35.5303L46.2424 26.9395H55.4697" stroke="white" stroke-width="2" stroke-miterlimit="10" stroke-linecap="round" stroke-linejoin="round"/>
<path d="M28.8485 40.4092H35.5303L46.2424 44.3334L55.4697 44.2274" stroke="white" stroke-width="2" stroke-miterlimit="10" stroke-linecap="round" stroke-linejoin="round"/>
<path d="M28.8485 35.6357H61.197" stroke="white" stroke-width="2" stroke-miterlimit="10" stroke-linecap="round" stroke-linejoin="round"/>
<path d="M28.8485 24.4998H35.5303L52.2879 17.7119" stroke="white" stroke-width="2" stroke-miterlimit="10" stroke-linecap="round" stroke-linejoin="round"/>
<path d="M28.8485 46.4541H35.5303L52.394 53.242" stroke="white" stroke-width="2" stroke-miterlimit="10" stroke-linecap="round" stroke-linejoin="round"/>
<path d="M58.8636 47.5152C60.6795 47.5152 62.1515 46.0432 62.1515 44.2273C62.1515 42.4115 60.6795 40.9395 58.8636 40.9395C57.0478 40.9395 55.5757 42.4115 55.5757 44.2273C55.5757 46.0432 57.0478 47.5152 58.8636 47.5152Z" stroke="white" stroke-width="2" stroke-miterlimit="10" stroke-linecap="round" stroke-linejoin="round"/>
<path d="M64.5909 38.9244C66.4068 38.9244 67.8788 37.4524 67.8788 35.6365C67.8788 33.8207 66.4068 32.3486 64.5909 32.3486C62.7751 32.3486 61.303 33.8207 61.303 35.6365C61.303 37.4524 62.7751 38.9244 64.5909 38.9244Z" stroke="white" stroke-width="2" stroke-miterlimit="10" stroke-linecap="round" stroke-linejoin="round"/>
<path d="M58.7576 29.9088C60.5735 29.9088 62.0455 28.4367 62.0455 26.6209C62.0455 24.805 60.5735 23.333 58.7576 23.333C56.9418 23.333 55.4697 24.805 55.4697 26.6209C55.4697 28.4367 56.9418 29.9088 58.7576 29.9088Z" stroke="white" stroke-width="2" stroke-miterlimit="10" stroke-linecap="round" stroke-linejoin="round"/>
<path d="M55.6818 19.5152C57.4976 19.5152 58.9697 18.0432 58.9697 16.2273C58.9697 14.4115 57.4976 12.9395 55.6818 12.9395C53.866 12.9395 52.3939 14.4115 52.3939 16.2273C52.3939 18.0432 53.866 19.5152 55.6818 19.5152Z" stroke="white" stroke-width="2" stroke-miterlimit="10" stroke-linecap="round" stroke-linejoin="round"/>
<path d="M56.5303 57.9088C58.3462 57.9088 59.8182 56.4367 59.8182 54.6209C59.8182 52.805 58.3462 51.333 56.5303 51.333C54.7145 51.333 53.2424 52.805 53.2424 54.6209C53.2424 56.4367 54.7145 57.9088 56.5303 57.9088Z" stroke="white" stroke-width="2" stroke-miterlimit="10" stroke-linecap="round" stroke-linejoin="round"/>
<path d="M28.3182 20.5752V49.4237" stroke="white" stroke-width="2" stroke-miterlimit="10" stroke-linecap="round" stroke-linejoin="round"/>
</svg>
