<svg width="70" height="70" viewBox="0 0 70 70" fill="none" xmlns="http://www.w3.org/2000/svg">
<path d="M2.275 47.6972C2.31328 48.1784 2.66219 48.5776 3.13469 48.6793L6.94641 49.5018C7.08094 50.1515 7.25156 50.7925 7.45828 51.4181L4.57297 54.0322C4.21531 54.3559 4.1125 54.8765 4.32031 55.3129C4.8475 56.422 5.43484 57.4468 6.06594 58.359C6.33938 58.755 6.84031 58.9256 7.30078 58.7779L11.0053 57.5846C11.4483 58.0812 11.9197 58.5526 12.4163 58.9956L11.223 62.7001C11.0753 63.1584 11.2448 63.6604 11.6419 63.935C12.5541 64.5661 13.5789 65.1534 14.688 65.6806C15.1255 65.8884 15.645 65.7845 15.9688 65.4279L18.5828 62.5426C19.2095 62.7482 19.8505 62.92 20.5002 63.0545L21.3227 66.8662C21.4244 67.3376 21.8236 67.6865 22.3038 67.7259C22.8856 67.7718 23.4686 67.8134 24.0625 67.8134C24.6564 67.8134 25.2394 67.7718 25.8212 67.7259C26.3025 67.6876 26.7017 67.3387 26.8034 66.8662L27.6259 63.0545C28.2756 62.92 28.9177 62.7493 29.5433 62.5426L32.1573 65.4279C32.4822 65.7856 33.0028 65.8895 33.4381 65.6806C34.5472 65.1534 35.572 64.565 36.4842 63.935C36.8812 63.6604 37.0508 63.1584 36.9031 62.7001L35.7098 58.9956C36.2064 58.5526 36.6778 58.0812 37.1208 57.5857L40.8253 58.779C41.2836 58.9278 41.7856 58.7571 42.0602 58.3601C42.6913 57.4479 43.2786 56.4231 43.8058 55.314C44.0136 54.8776 43.9108 54.357 43.5531 54.0332L40.6678 51.4192C40.8734 50.7925 41.0452 50.1515 41.1797 49.5018L44.9914 48.6793C45.4628 48.5776 45.8117 48.1784 45.8511 47.6982C45.8959 47.1153 45.9375 46.5323 45.9375 45.9384C45.9375 45.3445 45.8959 44.7615 45.85 44.1796C45.8117 43.6984 45.4628 43.2992 44.9903 43.1975L41.1786 42.375C41.0441 41.7253 40.8734 41.0832 40.6667 40.4576L43.552 37.8436C43.9097 37.5198 44.0125 36.9992 43.8047 36.5628C43.2775 35.4537 42.6891 34.4289 42.0591 33.5167C41.7845 33.1196 41.2825 32.949 40.8242 33.0978L37.1197 34.2911C36.6767 33.7945 36.2053 33.3231 35.7087 32.8801L36.902 29.1756C37.0497 28.7173 36.8802 28.2153 36.4831 27.9407C35.5709 27.3097 34.5461 26.7223 33.437 26.1951C32.9995 25.9862 32.48 26.0901 32.1562 26.4478L29.5422 29.3331C28.9155 29.1275 28.2745 28.9557 27.6248 28.8212L26.8023 25.0095C26.7006 24.5381 26.3014 24.1892 25.8212 24.1498C24.6564 24.0557 23.4675 24.0579 22.3027 24.1498C21.8214 24.1881 21.4222 24.537 21.3205 25.0095L20.498 28.8212C19.8483 28.9557 19.2073 29.1264 18.5817 29.3331L15.9677 26.4478C15.6439 26.0901 15.1244 25.9873 14.6869 26.1951C13.5778 26.7223 12.553 27.3097 11.6408 27.9407C11.2437 28.2153 11.0742 28.7173 11.2219 29.1756L12.4152 32.8801C11.9186 33.3231 11.4472 33.7945 11.0042 34.2911L7.30078 33.0978C6.84141 32.949 6.33938 33.1196 6.06594 33.5167C5.43484 34.4289 4.8475 35.4537 4.32031 36.5628C4.1125 36.9992 4.21531 37.5198 4.57297 37.8436L7.45828 40.4576C7.25266 41.0843 7.08094 41.7253 6.94641 42.375L3.13469 43.1975C2.66328 43.2992 2.31437 43.6984 2.275 44.1786C2.22906 44.7615 2.1875 45.3445 2.1875 45.9384C2.1875 46.5323 2.22906 47.1153 2.275 47.6972ZM4.39797 45.1629L8.11891 44.359C8.55859 44.2639 8.89547 43.9095 8.96766 43.4654C9.13172 42.457 9.39641 41.4672 9.75406 40.5222C9.91375 40.1021 9.79891 39.6264 9.46531 39.3245L6.65547 36.7782C6.90047 36.309 7.15641 35.8595 7.42109 35.434L11.0261 36.5956C11.4527 36.7323 11.923 36.5956 12.2084 36.2478C12.8537 35.4581 13.5822 34.7307 14.3719 34.0843C14.7197 33.8 14.8586 33.3307 14.7197 32.902L13.5581 29.297C13.9836 29.0312 14.432 28.7753 14.9023 28.5314L17.4486 31.3423C17.7516 31.6759 18.2284 31.7907 18.6473 31.6311C19.5902 31.2734 20.58 31.0087 21.5895 30.8447C22.0336 30.7725 22.388 30.4356 22.4831 29.9959L23.2859 26.275C23.8011 26.2476 24.325 26.2465 24.838 26.275L25.6419 29.9959C25.737 30.4356 26.0914 30.7725 26.5355 30.8447C27.5439 31.0087 28.5338 31.2734 29.4788 31.6311C29.8966 31.7907 30.3734 31.677 30.6764 31.3423L33.2227 28.5325C33.6919 28.7775 34.1414 29.0334 34.5669 29.2981L33.4053 32.9031C33.2675 33.3318 33.4053 33.8 33.7531 34.0854C34.5428 34.7307 35.2702 35.4592 35.9166 36.2489C36.202 36.5978 36.6712 36.7367 37.0989 36.5967L40.7039 35.4351C40.9697 35.8606 41.2256 36.309 41.4695 36.7782L38.6586 39.3245C38.325 39.6264 38.2102 40.1021 38.3698 40.5232C38.7275 41.4661 38.9922 42.4559 39.1562 43.4654C39.2284 43.9095 39.5653 44.2639 40.005 44.359L43.7259 45.1618C43.7402 45.4189 43.75 45.6781 43.75 45.9384C43.75 46.1987 43.7412 46.4579 43.727 46.7139L40.0061 47.5178C39.5664 47.6129 39.2295 47.9673 39.1573 48.4114C38.9933 49.4198 38.7286 50.4097 38.3709 51.3547C38.2113 51.7747 38.3261 52.2504 38.6597 52.5523L41.4695 55.0986C41.2245 55.5678 40.9686 56.0173 40.7039 56.4428L37.0989 55.2812C36.6691 55.1412 36.202 55.2801 35.9166 55.629C35.2723 56.4165 34.5439 57.145 33.7531 57.7925C33.4053 58.0768 33.2675 58.5461 33.4053 58.9737L34.5669 62.5787C34.1414 62.8445 33.693 63.1004 33.2237 63.3443L30.6775 60.5334C30.3756 60.1998 29.8998 60.0872 29.4788 60.2447C28.5359 60.6023 27.5461 60.867 26.5366 61.0311C26.0925 61.1032 25.7381 61.4401 25.643 61.8798L24.8402 65.6007C24.325 65.6281 23.8011 65.6292 23.2881 65.6007L22.4842 61.8798C22.3891 61.4401 22.0347 61.1032 21.5906 61.0311C20.5822 60.867 19.5923 60.6023 18.6473 60.2447C18.2284 60.085 17.7516 60.1987 17.4497 60.5334L14.9034 63.3432C14.4342 63.0982 13.9847 62.8423 13.5592 62.5776L14.7208 58.9726C14.8586 58.5439 14.7208 58.0757 14.373 57.7903C13.5833 57.145 12.8559 56.4165 12.2095 55.6268C11.9241 55.2779 11.4537 55.1401 11.0272 55.279L7.42219 56.4406C7.15641 56.0151 6.90047 55.5667 6.65656 55.0964L9.4675 52.5501C9.80109 52.2482 9.91594 51.7725 9.75625 51.3514C9.39859 50.4086 9.13391 49.4187 8.96984 48.4092C8.89766 47.9651 8.56078 47.6107 8.12109 47.5156L4.39797 46.715C4.38484 46.4579 4.375 46.1987 4.375 45.9384C4.375 45.6781 4.38375 45.4189 4.39797 45.1629Z" fill="white"/>
<path d="M59.302 17.7565C59.7133 17.6274 60.0108 17.2676 60.06 16.8388C60.1256 16.2865 60.1562 15.7866 60.1562 15.312C60.1562 14.8373 60.1256 14.3374 60.0611 13.7851C60.0119 13.3563 59.7144 12.9965 59.3031 12.8674L56.2702 11.9148C56.1794 11.6665 56.0788 11.4226 55.9683 11.1841L57.4383 8.36773C57.6373 7.98602 57.5936 7.52227 57.3267 7.1832C56.6934 6.38258 55.965 5.65414 55.1622 5.01867C54.8231 4.7507 54.3594 4.70805 53.9777 4.90602L51.1591 6.37602C50.9206 6.26664 50.6767 6.16602 50.4284 6.07523L49.4758 3.04227C49.3467 2.63102 48.9869 2.33352 48.5581 2.2843C47.4513 2.15523 46.6102 2.15523 45.5033 2.2843C45.0745 2.33352 44.7147 2.63102 44.5856 3.04227L43.633 6.07523C43.3847 6.16602 43.1408 6.26664 42.9023 6.37711L40.0859 4.90711C39.7042 4.70914 39.2416 4.7518 38.9014 5.01867C38.1008 5.65195 37.3723 6.38039 36.7369 7.1832C36.4689 7.52227 36.4252 7.98492 36.6242 8.36773L38.0931 11.1841C37.9837 11.4226 37.8831 11.6665 37.7923 11.9148L34.7594 12.8674C34.3481 12.9965 34.0506 13.3563 34.0014 13.7851C33.9369 14.3374 33.9062 14.8373 33.9062 15.312C33.9062 15.7866 33.9369 16.2865 34.0014 16.8388C34.0506 17.2676 34.3481 17.6274 34.7594 17.7565L37.7923 18.7091C37.8831 18.9574 37.9837 19.2013 38.0942 19.4398L36.6242 22.2562C36.4252 22.6379 36.4689 23.1016 36.7358 23.4407C37.3691 24.2413 38.0975 24.9698 38.9003 25.6052C39.2383 25.8732 39.7031 25.9159 40.0848 25.7179L42.9012 24.249C43.1397 24.3584 43.3836 24.459 43.6319 24.5498L44.5845 27.5827C44.7136 27.994 45.0734 28.2915 45.5022 28.3407C46.0567 28.4063 46.5566 28.437 47.0312 28.437C47.5059 28.437 48.0058 28.4063 48.5581 28.3418C48.9869 28.2926 49.3467 27.9951 49.4758 27.5838L50.4284 24.5509C50.6767 24.4601 50.9206 24.3595 51.1591 24.249L53.9755 25.719C54.3572 25.918 54.8209 25.8754 55.16 25.6074C55.9606 24.9741 56.6891 24.2457 57.3245 23.4429C57.5925 23.1038 57.6362 22.6412 57.4372 22.2584L55.9672 19.442C56.0777 19.2035 56.1783 18.9596 56.2691 18.7113L59.302 17.7565ZM55.0802 16.7896C54.7345 16.899 54.4655 17.1713 54.3605 17.5191C54.2117 18.0135 54.0148 18.4893 53.7764 18.9345C53.6047 19.2538 53.6014 19.6377 53.7698 19.9582L55.1578 22.6182C54.8986 22.9059 54.6241 23.1804 54.3375 23.4385L51.6775 22.0505C51.3559 21.8821 50.972 21.8865 50.6537 22.0571C50.2086 22.2955 49.7328 22.4924 49.2384 22.6412C48.8917 22.7451 48.6183 23.0152 48.5089 23.3609L47.6077 26.2309C47.2084 26.2549 46.8552 26.2549 46.4548 26.2309L45.5536 23.3609C45.4442 23.0152 45.1719 22.7462 44.8241 22.6412C44.3286 22.4924 43.8528 22.2955 43.4098 22.0571C43.0905 21.8854 42.7066 21.8821 42.385 22.0505L39.725 23.4385C39.4373 23.1793 39.1628 22.9048 38.9047 22.6182L40.2927 19.9582C40.46 19.6377 40.4578 19.2527 40.2861 18.9345C40.0477 18.4893 39.8508 18.0135 39.702 17.5191C39.5981 17.1724 39.328 16.899 38.9823 16.7896L36.1123 15.8884C36.0992 15.6882 36.0938 15.4968 36.0938 15.312C36.0938 15.1271 36.0992 14.9357 36.1123 14.7355L38.9823 13.8343C39.328 13.7249 39.597 13.4526 39.702 13.1048C39.8508 12.6093 40.0477 12.1335 40.2861 11.6905C40.4578 11.3712 40.4611 10.9873 40.2927 10.6657L38.9047 8.0057C39.1639 7.71805 39.4384 7.44352 39.725 7.18539L42.385 8.57336C42.7055 8.7407 43.0905 8.73742 43.4087 8.5668C43.8539 8.32836 44.3297 8.13148 44.8241 7.98273C45.1708 7.87883 45.4442 7.60867 45.5536 7.26305L46.4548 4.39305C46.8541 4.36898 47.2073 4.36898 47.6077 4.39305L48.5089 7.26305C48.6183 7.60867 48.8906 7.87773 49.2384 7.98273C49.7339 8.13148 50.2097 8.32836 50.6527 8.5668C50.972 8.73852 51.3559 8.7418 51.6775 8.57336L54.3375 7.18539C54.6252 7.44461 54.8997 7.71914 55.1578 8.0057L53.7698 10.6657C53.6025 10.9862 53.6047 11.3712 53.7764 11.6895C54.0148 12.1346 54.2117 12.6104 54.3605 13.1048C54.4644 13.4515 54.7345 13.7249 55.0802 13.8343L57.9502 14.7355C57.9633 14.9357 57.9688 15.1271 57.9688 15.312C57.9688 15.4968 57.9633 15.6882 57.9502 15.8884L55.0802 16.7896Z" fill="white"/>
<path d="M67.0053 38.2411L65.1262 37.5739C65.0191 37.2687 64.8966 36.9701 64.7577 36.6803L65.6119 34.8811C65.7902 34.507 65.7409 34.0651 65.485 33.7392C64.9381 33.0403 64.3059 32.407 63.6048 31.8579C63.2778 31.602 62.8338 31.5539 62.4619 31.7311L60.6616 32.5853C60.3728 32.4475 60.0742 32.3239 59.7691 32.2178L59.1008 30.3387C58.9619 29.9482 58.613 29.6693 58.2017 29.619C57.2272 29.502 56.5217 29.502 55.5472 29.619C55.1359 29.6682 54.787 29.9471 54.6481 30.3387L53.9809 32.2178C53.6758 32.325 53.3772 32.4475 53.0873 32.5864L51.2881 31.7321C50.9162 31.555 50.4733 31.6042 50.1462 31.859C49.4473 32.4059 48.8141 33.0381 48.265 33.7392C48.0102 34.0651 47.9609 34.5081 48.1381 34.8821L48.9923 36.6825C48.8545 36.9712 48.7309 37.2698 48.6248 37.575L46.7458 38.2432C46.3553 38.3821 46.0764 38.7311 46.0261 39.1423C45.9659 39.6268 45.9375 40.0611 45.9375 40.4679C45.9375 40.8748 45.9659 41.3079 46.025 41.7947C46.0742 42.2059 46.3531 42.5548 46.7447 42.6937L48.6238 43.3609C48.7309 43.6661 48.8534 43.9647 48.9923 44.2545L48.1381 46.0537C47.9598 46.4278 48.0091 46.8696 48.265 47.1956C48.8119 47.8945 49.4441 48.5278 50.1452 49.0768C50.4711 49.3317 50.9152 49.3809 51.2881 49.2037L53.0884 48.3495C53.3772 48.4873 53.6758 48.6109 53.9809 48.717L54.6492 50.5961C54.7881 50.9865 55.137 51.2654 55.5483 51.3157C56.035 51.377 56.4681 51.4054 56.875 51.4054C57.2819 51.4054 57.715 51.377 58.2017 51.3179C58.613 51.2687 58.9619 50.9898 59.1008 50.5982L59.768 48.7192C60.0731 48.612 60.3717 48.4895 60.6616 48.3506L62.4608 49.2048C62.8337 49.3831 63.2778 49.335 63.6027 49.0779C64.3016 48.5311 64.9348 47.8989 65.4839 47.1978C65.7387 46.8718 65.788 46.4289 65.6108 46.0548L64.7566 44.2545C64.8944 43.9657 65.018 43.6671 65.1241 43.362L67.0031 42.6937C67.3936 42.5548 67.6725 42.2059 67.7228 41.7947C67.7841 41.3079 67.8125 40.8748 67.8125 40.4679C67.8125 40.0611 67.7841 39.6279 67.725 39.1412C67.6758 38.7289 67.3969 38.3811 67.0053 38.2411ZM65.6141 40.8672L63.8805 41.4829C63.5447 41.6021 63.2877 41.8778 63.1925 42.2212C63.0492 42.7407 62.8447 43.2362 62.5855 43.6945C62.4105 44.004 62.3973 44.3803 62.5494 44.7018L63.3347 46.3567C63.1531 46.5557 62.9628 46.7461 62.7648 46.9265L61.11 46.1412C60.7906 45.9892 60.4133 46.0023 60.1027 46.1773C59.6433 46.4376 59.1478 46.6411 58.6305 46.7843C58.287 46.8795 58.0114 47.1365 57.8911 47.4723L57.2753 49.2059C57.0106 49.2201 56.7416 49.2201 56.4769 49.2059L55.8611 47.4723C55.7419 47.1365 55.4662 46.8795 55.1228 46.7843C54.6033 46.6411 54.1078 46.4365 53.6495 46.1773C53.34 46.0034 52.9648 45.9903 52.6422 46.1412L50.9873 46.9265C50.7883 46.745 50.598 46.5546 50.4175 46.3567L51.2028 44.7018C51.3559 44.3803 51.3417 44.004 51.1667 43.6945C50.9064 43.2351 50.703 42.7396 50.5597 42.2223C50.4645 41.8789 50.2075 41.6032 49.8717 41.4829L48.1381 40.8672C48.1294 40.7348 48.125 40.6025 48.125 40.4679C48.125 40.3334 48.1294 40.2 48.1359 40.0687L49.8695 39.4518C50.2053 39.3326 50.4623 39.057 50.5564 38.7136C50.7008 38.1929 50.9053 37.6986 51.1645 37.2403C51.3395 36.9307 51.3527 36.5545 51.2006 36.2329L50.4153 34.5781C50.5969 34.379 50.7872 34.1887 50.9852 34.0082L52.64 34.7936C52.9616 34.9467 53.3378 34.9336 53.6473 34.7575C54.1067 34.4971 54.6022 34.2937 55.1195 34.1504C55.463 34.0553 55.7386 33.7982 55.8589 33.4625L56.4747 31.7289C56.7394 31.7146 57.0084 31.7146 57.2731 31.7289L57.8889 33.4625C58.0081 33.7982 58.2838 34.0553 58.6272 34.1504C59.1467 34.2937 59.6422 34.4982 60.1005 34.7575C60.4111 34.9336 60.7862 34.9467 61.1078 34.7936L62.7627 34.0082C62.9617 34.1898 63.152 34.3801 63.3325 34.5781L62.5472 36.2329C62.3941 36.5545 62.4083 36.9307 62.5833 37.2403C62.8436 37.6996 63.047 38.1951 63.1903 38.7125C63.2855 39.0559 63.5425 39.3315 63.8783 39.4518L65.6119 40.0676C65.6206 40.2011 65.625 40.3334 65.625 40.4679C65.625 40.6025 65.6206 40.7348 65.6141 40.8672Z" fill="white"/>
<path d="M24.0625 57.9688C30.6961 57.9688 36.0938 52.5711 36.0938 45.9375C36.0938 39.3039 30.6961 33.9062 24.0625 33.9062C17.4289 33.9062 12.0312 39.3039 12.0312 45.9375C12.0312 52.5711 17.4289 57.9688 24.0625 57.9688ZM24.0625 36.0938C29.4897 36.0938 33.9062 40.5103 33.9062 45.9375C33.9062 51.3647 29.4897 55.7812 24.0625 55.7812C18.6353 55.7812 14.2188 51.3647 14.2188 45.9375C14.2188 40.5103 18.6353 36.0938 24.0625 36.0938Z" fill="white"/>
<path d="M2.21155 27.7362L3.89155 29.1373C8.89983 23.1316 16.2509 19.6873 24.0625 19.6873C24.6192 19.6873 25.1748 19.7191 25.7305 19.7541L24.383 21.1016L25.9295 22.6481L29.2108 19.3669C29.6384 18.9392 29.6384 18.248 29.2108 17.8203L25.9295 14.5391L24.383 16.0856L25.8694 17.572C25.2678 17.5337 24.6651 17.4998 24.0625 17.4998C15.6012 17.4998 7.63655 21.2306 2.21155 27.7362Z" fill="white"/>
<path d="M47.0312 9.84375C44.0158 9.84375 41.5625 12.297 41.5625 15.3125C41.5625 18.328 44.0158 20.7812 47.0312 20.7812C50.0467 20.7812 52.5 18.328 52.5 15.3125C52.5 12.297 50.0467 9.84375 47.0312 9.84375ZM47.0312 18.5938C45.2222 18.5938 43.75 17.1216 43.75 15.3125C43.75 13.5034 45.2222 12.0312 47.0312 12.0312C48.8403 12.0312 50.3125 13.5034 50.3125 15.3125C50.3125 17.1216 48.8403 18.5938 47.0312 18.5938Z" fill="white"/>
<path d="M56.875 36.0938C54.4622 36.0938 52.5 38.0559 52.5 40.4688C52.5 42.8816 54.4622 44.8438 56.875 44.8438C59.2878 44.8438 61.25 42.8816 61.25 40.4688C61.25 38.0559 59.2878 36.0938 56.875 36.0938ZM56.875 42.6562C55.6686 42.6562 54.6875 41.6752 54.6875 40.4688C54.6875 39.2623 55.6686 38.2812 56.875 38.2812C58.0814 38.2812 59.0625 39.2623 59.0625 40.4688C59.0625 41.6752 58.0814 42.6562 56.875 42.6562Z" fill="white"/>
<path d="M66.9331 5.49072L61.4643 4.39697C60.8693 4.27666 60.2951 4.66275 60.177 5.25447L59.0833 10.7232L61.2281 11.1531L61.8176 8.20869C62.8775 10.4137 63.4375 12.844 63.4375 15.3126C63.4375 19.0838 62.1928 22.6298 59.839 25.5665L61.5464 26.9348C64.1768 23.6524 65.625 19.5257 65.625 15.3126C65.625 12.4481 64.9633 9.624 63.7043 7.07556L66.5043 7.63556L66.9331 5.49072Z" fill="white"/>
</svg>
