<svg width="49" height="73" viewBox="0 0 49 73" fill="none" xmlns="http://www.w3.org/2000/svg">
<path d="M0.00302094 39.7441C-0.0369051 37.9859 0.319375 36.2412 1.04533 34.6402C1.71498 33.2194 2.69085 31.9653 3.90256 30.9684C5.16755 29.9446 6.62326 29.1835 8.18476 28.7297C9.93499 28.2176 11.7508 27.9662 13.574 27.9835C15.7564 27.9457 17.9238 28.3518 19.9453 29.1773C21.7079 29.8965 23.2634 31.0456 24.4708 32.5202C25.6635 31.0564 27.1966 29.9084 28.9352 29.1773C30.9347 28.3475 33.0837 27.9411 35.2474 27.9835C37.0506 27.9689 38.8462 28.2203 40.5764 28.7297C42.1379 29.1835 43.5936 29.9446 44.8586 30.9684C46.0706 31.9649 47.0467 33.2187 47.7168 34.6393C48.445 36.2401 48.8035 37.9851 48.7655 39.7441L48.7655 59.263H39.1806L39.1806 42.4897C39.1806 40.4602 38.7636 39.0076 37.9297 38.132C37.4678 37.6798 36.9166 37.3295 36.3115 37.1037C35.7064 36.878 35.0609 36.7818 34.4164 36.8213C33.7131 36.7969 33.0127 36.9227 32.3616 37.1904C31.7104 37.4581 31.1236 37.8616 30.6399 38.3741C29.668 39.4092 29.1821 41.0609 29.1821 43.3291V59.263H19.5918V43.3255C19.5918 41.0573 19.1153 39.4056 18.1623 38.3704C17.6853 37.8561 17.1031 37.451 16.4556 37.1831C15.808 36.9151 15.1104 36.7904 14.4104 36.8177C13.7616 36.7802 13.1121 36.8773 12.5024 37.1028C11.8928 37.3283 11.3361 37.6775 10.8671 38.1284C10.0167 39.0022 9.58999 40.4547 9.58695 42.4861L9.58695 59.263H0.00302094L0.00302094 39.7441Z" fill="white"/>
<path d="M24.1821 27.8099C26.5179 27.8099 28.4114 25.9116 28.4114 23.57C28.4114 21.2283 26.5179 19.3301 24.1821 19.3301C21.8462 19.3301 19.9527 21.2283 19.9527 23.57C19.9527 25.9116 21.8462 27.8099 24.1821 27.8099Z" fill="white"/>
<path d="M34.2873 13.355C34.2244 13.2901 34.1579 13.2326 34.0942 13.1723L33.9037 12.9896C33.8708 12.9566 33.8355 12.9261 33.798 12.8983C31.174 10.5005 27.7289 9.20919 24.1794 9.29289C20.6298 9.37659 17.2491 10.8289 14.7404 13.3477L14.1309 13.9679L13.2836 14.8164C12.7881 15.316 12.5105 15.9922 12.5115 16.6968C12.5126 17.4013 12.7922 18.0766 13.2892 18.5748C13.7861 19.073 14.4598 19.3533 15.1625 19.3544C15.8653 19.3554 16.5398 19.0771 17.0382 18.5804L18.496 17.119C20.0937 15.5222 22.2578 14.6255 24.5139 14.6255C26.77 14.6255 28.934 15.5222 30.5317 17.119L31.5859 18.1429C31.955 18.5093 32.4239 18.758 32.9337 18.858C33.4434 18.9579 33.9713 18.9045 34.4509 18.7044C34.9304 18.5044 35.3403 18.1667 35.6289 17.7338C35.9176 17.3009 36.0721 16.7921 36.0731 16.2714C36.0753 15.9263 36.0087 15.5842 35.8773 15.2651C35.7459 14.9461 35.5522 14.6566 35.3078 14.4136L34.2873 13.355Z" fill="white"/>
<path d="M41.4914 8.11376L40.6131 7.23326C40.6103 7.22846 40.6057 7.22488 40.6004 7.22322L39.907 6.52631C39.7865 6.40757 39.6544 6.30138 39.5125 6.20937C35.1784 2.40783 29.5804 0.372911 23.823 0.506153C18.0657 0.639395 12.5673 2.93112 8.41281 6.92911C8.37089 6.96747 8.32169 6.99396 8.28252 7.03506L6.69628 8.62708C6.24224 9.08249 5.98726 9.70008 5.98743 10.344C5.9876 10.9878 6.24291 11.6053 6.69719 12.0605C7.15148 12.5156 7.76752 12.7713 8.40981 12.7711C9.05209 12.7709 9.668 12.515 10.122 12.0596L11.7092 10.4712C11.718 10.4586 11.7281 10.447 11.7393 10.4365C15.1018 7.18734 19.5829 5.36047 24.2531 5.33479C28.9233 5.30911 33.4241 7.0866 36.822 10.2986L38.0702 11.5517C38.5245 12.0069 39.1406 12.2625 39.7828 12.2623C40.4251 12.2622 41.041 12.0062 41.4951 11.5508C41.9491 11.0954 42.2041 10.4778 42.2039 9.83392C42.2038 9.19003 41.9485 8.57259 41.4942 8.11741L41.4914 8.11376Z" fill="white"/>
<path d="M0.869219 69.986C0.996798 70.0702 1.13251 70.1421 1.27443 70.2009C1.49146 70.2948 1.71513 70.3736 1.94373 70.4367C2.23439 70.5175 2.52969 70.5817 2.82811 70.629C3.1733 70.6843 3.52266 70.7114 3.87253 70.7101C4.19171 70.7227 4.51091 70.6853 4.8178 70.5993C4.90911 70.579 4.99056 70.5291 5.04876 70.4579C5.10697 70.3867 5.13847 70.2985 5.1381 70.2076C5.14447 70.121 5.12198 70.0347 5.07393 69.9614C5.02588 69.8882 4.95482 69.8318 4.87122 69.8006C4.60325 69.7057 4.3241 69.6436 4.04026 69.6158L3.24709 69.5272C2.86165 69.4799 2.4798 69.4083 2.104 69.3128C1.75959 69.2282 1.43231 69.0881 1.13586 68.8983C0.859528 68.7193 0.631978 68.4781 0.472635 68.1954C0.299023 67.8619 0.215316 67.4913 0.229318 67.118C0.225606 66.7704 0.295477 66.4257 0.434609 66.1053C0.57836 65.7868 0.800959 65.5075 1.08267 65.2923C1.41843 65.0406 1.80165 64.8549 2.21084 64.7455C2.74186 64.6031 3.29134 64.536 3.8422 64.5461C4.39632 64.5395 4.94999 64.5791 5.49712 64.6643C5.913 64.7285 6.31653 64.8531 6.69411 65.0339C6.87349 65.1216 7.03188 65.2449 7.15904 65.3957C7.27839 65.5456 7.3404 65.7311 7.33447 65.9204C7.33726 66.0665 7.30323 66.2111 7.23533 66.3417C7.17472 66.4574 7.09777 66.5643 7.00671 66.6594C6.93356 66.737 6.85172 66.8064 6.76269 66.8663C6.68649 66.9155 6.6382 66.945 6.61782 66.955C6.53929 66.8936 6.45511 66.8393 6.36634 66.7928C6.19199 66.6984 6.00804 66.6216 5.81742 66.5637C5.54781 66.4798 5.27279 66.4132 4.99416 66.3643C4.63442 66.3019 4.26945 66.2722 3.90402 66.2756C3.57806 66.2511 3.25088 66.3044 2.95105 66.4308C2.87224 66.4682 2.80562 66.5261 2.75854 66.5979C2.71145 66.6697 2.68572 66.7527 2.68417 66.8378C2.68062 66.9144 2.70237 66.9902 2.74625 67.054C2.79014 67.1178 2.85387 67.1664 2.92819 67.1927C3.1639 67.28 3.40961 67.3395 3.66 67.37L5.04758 67.5622C5.38545 67.6098 5.71924 67.6815 6.04628 67.7766C6.35285 67.8638 6.64166 68.0015 6.9001 68.1836C7.15042 68.3622 7.35422 68.595 7.49521 68.8634C7.65105 69.1764 7.72691 69.5211 7.71636 69.8684C7.73232 70.2443 7.65148 70.6182 7.48111 70.9562C7.31075 71.2943 7.05623 71.5859 6.74053 71.8047C6.08998 72.2677 5.19043 72.4993 4.04189 72.4994C3.09628 72.5093 2.15483 72.3768 1.25111 72.1068C0.968538 72.0248 0.695039 71.9159 0.434609 71.7816C0.284726 71.7036 0.139616 71.6172 0 71.5229L0.869219 69.986ZM16.0094 71.6414C15.8979 71.7105 15.7501 71.7942 15.5662 71.8927C15.3533 72.0039 15.1313 72.0978 14.9025 72.1735C14.611 72.2705 14.3127 72.3471 14.0099 72.4026C13.643 72.4695 13.2702 72.5017 12.8969 72.4987C12.3559 72.4995 11.8184 72.4146 11.3057 72.2473C10.8087 72.0889 10.3498 71.8351 9.95636 71.501C9.55904 71.1558 9.24212 70.7326 9.02672 70.2594C8.7827 69.7117 8.66335 69.1194 8.67679 68.5229C8.66662 67.9416 8.78357 67.3649 9.01996 66.8306C9.23285 66.3539 9.55005 65.9277 9.9496 65.5816C10.3508 65.2409 10.817 64.9796 11.3218 64.8127C11.8588 64.6332 12.4233 64.5433 12.9914 64.5467C13.504 64.5434 14.0146 64.6105 14.5077 64.7462C14.9017 64.838 15.266 65.0234 15.5676 65.2858C15.6743 65.3877 15.7643 65.5048 15.8344 65.6331C15.9035 65.7685 15.9375 65.9182 15.9336 66.0692C15.9357 66.2263 15.9046 66.3823 15.8421 66.5273C15.7843 66.6603 15.7073 66.7847 15.6135 66.8969C15.5273 66.9999 15.433 67.0963 15.3315 67.1852C15.2544 67.2549 15.1701 67.3168 15.08 67.37C14.855 67.1649 14.5965 66.9974 14.3151 66.8742C13.9517 66.7137 13.5555 66.6354 13.1563 66.6452C12.8998 66.6439 12.6448 66.6839 12.4017 66.7634C12.17 66.8381 11.957 66.959 11.7764 67.1183C11.5925 67.2839 11.4468 67.4853 11.3488 67.7094C11.2379 67.9667 11.1834 68.2436 11.1888 68.5224C11.181 68.8086 11.2355 69.0932 11.3488 69.3576C11.4459 69.5762 11.5925 69.7709 11.7776 69.9272C11.9619 70.0781 12.1775 70.1888 12.4098 70.2517C12.6626 70.322 12.9244 70.3568 13.1874 70.3553C13.4053 70.3569 13.6227 70.3346 13.8354 70.2888C14.0146 70.2502 14.1905 70.1983 14.3615 70.1337C14.4919 70.0845 14.6192 70.0277 14.7427 69.9636C14.8137 69.9294 14.8803 69.887 14.941 69.8374L16.0094 71.6414ZM17.031 62.4488C17.0145 62.2957 17.0378 62.1411 17.099 61.999C17.1601 61.857 17.257 61.7321 17.3809 61.6358C17.6584 61.4663 17.9829 61.3838 18.3105 61.3992C18.5605 61.396 18.8097 61.4284 19.05 61.4953C19.2678 61.5593 19.4077 61.6013 19.4699 61.6215V65.1971C19.7071 65.0039 19.9749 64.8491 20.2631 64.739C20.6771 64.5876 21.118 64.5173 21.5602 64.532C21.9895 64.5279 22.4167 64.5903 22.8258 64.7168C23.2031 64.835 23.5492 65.0319 23.8396 65.2937C24.1398 65.57 24.3717 65.9086 24.518 66.284C24.69 66.7355 24.7728 67.2144 24.762 67.6956V72.2916H22.3076V68.1821C22.3076 67.6796 22.1932 67.315 21.9645 67.0884C21.6633 66.8583 21.2884 66.7382 20.9051 66.749C20.5219 66.7598 20.1548 66.9008 19.8679 67.1474C19.6138 67.4135 19.4867 67.8274 19.4867 68.389V72.2916H17.0326L17.031 62.4488ZM26.2858 68.5231C26.2797 67.9788 26.3939 67.4396 26.6206 66.9416C26.8381 66.4672 27.1518 66.04 27.543 65.6854C27.9402 65.327 28.403 65.0438 28.9075 64.8502C29.9841 64.4462 31.1775 64.4462 32.2542 64.8502C32.7617 65.0425 33.2272 65.3259 33.6264 65.6854C34.0176 66.04 34.3312 66.4672 34.5488 66.9416C34.7696 67.4414 34.8834 67.9794 34.8834 68.5231C34.8834 69.0668 34.7696 69.6048 34.5488 70.1045C34.3312 70.579 34.0176 71.0062 33.6264 71.3608C33.2272 71.7203 32.7617 72.0036 32.2542 72.1959C31.1775 72.5999 29.9841 72.5999 28.9075 72.1959C28.403 72.0024 27.9402 71.7191 27.543 71.3608C27.1518 71.0062 26.8381 70.579 26.6206 70.1045C26.3939 69.6064 26.2797 69.067 26.2858 68.5226V68.5231ZM30.5855 70.3702C30.8294 70.3723 31.0709 70.3244 31.2945 70.2298C31.509 70.1389 31.7032 70.0083 31.8662 69.8454C32.0316 69.6783 32.1588 69.4794 32.2395 69.2614C32.413 68.7831 32.413 68.2617 32.2395 67.7834C32.1588 67.5655 32.0316 67.3665 31.8662 67.1994C31.7032 67.0365 31.509 66.9059 31.2945 66.815C31.069 66.7223 30.8266 66.6746 30.5817 66.6746C30.3367 66.6746 30.0943 66.7223 29.8689 66.815C29.6574 66.9073 29.4659 67.0378 29.3048 67.1994C29.1394 67.3665 29.0122 67.5654 28.9315 67.7834C28.758 68.2617 28.758 68.7831 28.9315 69.2614C29.0122 69.4794 29.1394 69.6783 29.3048 69.8454C29.4659 70.007 29.6574 70.1375 29.8689 70.2298C30.0946 70.3259 30.339 70.3738 30.5855 70.3702ZM36.1048 68.5226C36.0987 67.9784 36.2128 67.4391 36.4396 66.9412C36.6571 66.4667 36.9708 66.0395 37.362 65.6849C37.7591 65.3266 38.2219 65.0433 38.7264 64.8498C39.8031 64.4458 40.9965 64.4458 42.0731 64.8498C42.5806 65.0421 43.0461 65.3254 43.4453 65.6849C43.8365 66.0395 44.1502 66.4668 44.3677 66.9412C44.5886 67.4409 44.7024 67.979 44.7024 68.5226C44.7024 69.0663 44.5886 69.6043 44.3677 70.1041C44.1502 70.5785 43.8365 71.0057 43.4453 71.3603C43.0461 71.7198 42.5806 72.0032 42.0731 72.1955C40.9965 72.5995 39.8031 72.5995 38.7264 72.1955C38.2219 72.0019 37.7591 71.7187 37.362 71.3603C36.9708 71.0057 36.6571 70.5785 36.4396 70.1041C36.2125 69.6062 36.0981 69.067 36.1039 68.5226H36.1048ZM40.4045 70.3702C40.6483 70.3723 40.8899 70.3244 41.1134 70.2298C41.328 70.1389 41.5222 70.0083 41.6852 69.8454C41.8506 69.6783 41.9777 69.4794 42.0584 69.2614C42.232 68.7831 42.232 68.2617 42.0584 67.7834C41.9778 67.5654 41.8506 67.3665 41.6852 67.1994C41.5222 67.0365 41.328 66.9059 41.1134 66.815C40.8879 66.7223 40.6455 66.6746 40.4006 66.6746C40.1557 66.6746 39.9133 66.7223 39.6878 66.815C39.4763 66.9073 39.2849 67.0378 39.1237 67.1994C38.9583 67.3665 38.8312 67.5654 38.7505 67.7834C38.5769 68.2617 38.5769 68.7831 38.7505 69.2614C38.8312 69.4794 38.9584 69.6783 39.1237 69.8454C39.2849 70.007 39.4763 70.1375 39.6878 70.2298C39.9135 70.3259 40.158 70.3738 40.4045 70.3702ZM46.3049 62.4479C46.2884 62.2948 46.3118 62.1402 46.373 61.9981C46.4341 61.8561 46.531 61.7312 46.6549 61.6349C46.9324 61.4654 47.2569 61.3829 47.5845 61.3983C47.8368 61.3956 48.0882 61.4279 48.331 61.4944C48.5542 61.5584 48.6967 61.6004 48.7586 61.6206V72.2916H46.3056L46.3049 62.4479Z" fill="white"/>
</svg>
