<svg width="70" height="71" viewBox="0 0 70 71" fill="none" xmlns="http://www.w3.org/2000/svg">
<g clip-path="url(#clip0_199_2594)">
<path d="M47.0176 24.4219C47.5098 25.8438 47.7559 27.334 47.7559 28.8516C47.7559 29.4531 47.2773 29.9316 46.6758 29.9316C46.0742 29.9316 45.5957 29.4531 45.5957 28.8516C45.5957 27.5801 45.3906 26.3223 44.9805 25.1328C43.8457 21.8379 41.3027 19.2676 38.0078 18.0918C37.4473 17.8867 37.1465 17.2715 37.3516 16.7109C37.5566 16.1504 38.1719 15.8496 38.7324 16.0547C42.6426 17.4492 45.6641 20.498 47.0176 24.4219ZM51.9258 29.8633C51.666 34.6758 49.5059 39.0918 45.8418 42.2773C43.0117 44.7383 41.3438 48.2656 41.166 52.0527C44.6934 51.8477 46.5938 56.291 44.0371 58.6699C46.5254 60.9668 44.8027 65.3281 41.3711 65.2871H40.2227C40.332 67.8984 38.2402 70.1133 35.6152 70.1133H27.4531C24.8281 70.127 22.7363 67.8984 22.8457 65.2871H21.6973C18.2656 65.3281 16.543 60.9668 19.0312 58.6699C16.8438 56.7148 17.8965 52.8184 20.7402 52.1895C20.1797 51.5879 19.7285 50.877 19.4277 50.084C14.2734 50.4668 10.3633 45.1621 12.0586 40.3633C5.56445 37.4238 5.56445 27.8945 12.0586 24.9551C10.3633 20.1699 14.2734 14.8652 19.4277 15.2344C21.8887 8.71289 31.5273 10.3809 31.6094 17.3945V47.9238C31.6094 49.5098 31.0215 50.9453 30.0508 52.0527H33.0859V13.5664C33.0586 12.1855 34.3437 10.9824 35.7246 11.1328C45.0898 11.8027 52.6094 20.4844 51.9258 29.8633ZM23.2285 44.5195C23.4473 45.0801 23.1602 45.6953 22.5996 45.9141C22.3125 46.0234 22.0664 46.1738 21.875 46.3789C21.0547 47.1992 21.2734 48.5527 21.3008 48.7168C22.3262 53.584 29.3809 52.9141 29.4766 47.9375V17.4082C29.4492 12.9922 23.4199 11.7207 21.6152 15.7129C23.0645 16 27.3574 19.6641 24.2813 20.3477C23.2422 20.3203 23.0371 18.9531 22.2031 18.4883C18.1562 15.2754 12.3867 19.6777 14.1504 24.3535C16.1875 24.0527 18.3066 24.8867 19.6191 26.459C20.002 26.9102 19.9473 27.5938 19.4824 27.9766C19.0312 28.3594 18.3477 28.3047 17.9648 27.8398C17.6777 27.498 17.0488 26.8828 16.0508 26.5957C15.0801 26.3086 14.2324 26.4863 13.8223 26.6094C8.24414 28.25 7.79297 36.1797 13.0977 38.4629C13.8223 37.3008 18.0879 34.0469 18.8398 36.3164C18.9902 36.8906 18.6348 37.4785 18.0605 37.6289C11.9219 39.1465 12.7695 47.7734 19.0996 47.9375C19.127 47.0352 19.373 45.8184 20.3438 44.8477C21.041 44.123 22.6543 43.1797 23.2285 44.5195ZM38.0762 65.2871H25.0195C24.9102 66.709 26.0312 67.9531 27.4668 67.9531H35.6289C37.0645 67.9668 38.1719 66.709 38.0762 65.2871ZM43.0664 61.4453C43.0664 60.5156 42.3145 59.75 41.3711 59.75H21.7246C20.7949 59.75 20.0293 60.502 20.0293 61.4453C20.0293 62.375 20.7812 63.1406 21.7246 63.1406H41.3848C42.3008 63.127 43.0664 62.375 43.0664 61.4453ZM21.7246 54.2129C19.4961 54.2676 19.4961 57.5352 21.7246 57.5898H41.3848C42.3145 57.5898 43.0801 56.8379 43.0801 55.8945C43.0801 54.9648 42.3281 54.1992 41.3848 54.1992H21.7246V54.2129ZM35.5332 13.2793C35.3418 13.293 35.2598 13.3613 35.2324 13.5664V52.0527H38.9785C39.1699 47.6367 41.125 43.5078 44.4199 40.6504C54.8242 31.75 49.1094 14.3867 35.5332 13.2793ZM49.4238 15.2754L54.4141 10.2852C55.3984 9.27344 53.9082 7.76953 52.8828 8.75391L47.8926 13.7441C46.9082 14.7695 48.4121 16.2598 49.4238 15.2754ZM61.7285 27.9355H54.6738C53.252 27.9629 53.252 30.0684 54.6738 30.0957H61.7285C63.1504 30.0684 63.1504 27.9629 61.7285 27.9355ZM49.4238 42.7422C48.4121 41.7578 46.9082 43.248 47.8926 44.2734L52.8828 49.2637C53.9082 50.248 55.3984 48.7578 54.4141 47.7324L49.4238 42.7422ZM35.2461 8.50781V1.45312C35.2187 0.03125 33.1133 0.03125 33.0859 1.45312V8.50781C33.1133 9.92969 35.2187 9.92969 35.2461 8.50781Z" fill="white"/>
</g>
<defs>
<clipPath id="clip0_199_2594">
<rect width="70" height="70" fill="white" transform="translate(0 0.25)"/>
</clipPath>
</defs>
</svg>
