<svg width="70" height="71" viewBox="0 0 70 71" fill="none" xmlns="http://www.w3.org/2000/svg">
<path d="M35 16.9063C31.6609 16.9032 28.3832 17.8033 25.5141 19.5114C25.2659 19.6606 25.0871 19.902 25.0167 20.1828C24.9463 20.4636 24.9902 20.7609 25.1386 21.0094C25.2871 21.258 25.528 21.4375 25.8086 21.5087C26.0892 21.5799 26.3866 21.5369 26.6356 21.3891C28.8497 20.0847 31.3412 19.3232 33.9062 19.1671V24.5625C33.9062 24.7062 33.9344 24.8484 33.9893 24.9812C34.0443 25.1139 34.1248 25.2345 34.2264 25.3361C34.328 25.4377 34.4486 25.5182 34.5813 25.5732C34.7141 25.6281 34.8563 25.6563 35 25.6563H37.1875C37.4776 25.6563 37.7558 25.7715 37.9609 25.9766C38.166 26.1817 38.2812 26.4599 38.2812 26.75C38.2812 27.0401 38.166 27.3183 37.9609 27.5234C37.7558 27.7285 37.4776 27.8438 37.1875 27.8438H35C34.8563 27.8437 34.7141 27.8719 34.5813 27.9268C34.4486 27.9818 34.328 28.0623 34.2264 28.1639C34.1248 28.2655 34.0443 28.3861 33.9893 28.5188C33.9344 28.6516 33.9062 28.7939 33.9062 28.9375V34.4063H29.5312V33.3125C29.5312 32.4423 29.1855 31.6077 28.5702 30.9923C27.9548 30.377 27.1202 30.0313 26.25 30.0313C25.3798 30.0313 24.5452 30.377 23.9298 30.9923C23.3144 31.6077 22.9687 32.4423 22.9687 33.3125V34.4073L18.6669 34.4099C18.8225 31.8436 19.5841 29.3507 20.8891 27.1356C21.0369 26.8866 21.0799 26.5892 21.0087 26.3086C20.9375 26.028 20.758 25.7871 20.5094 25.6386C20.2609 25.4902 19.9636 25.4463 19.6828 25.5167C19.402 25.5871 19.1605 25.766 19.0114 26.0141C16.5304 30.1891 15.7843 35.1701 16.933 39.8888C18.0818 44.6076 21.0339 48.6883 25.1562 51.2558V53C25.1562 53.1437 25.1844 53.2859 25.2393 53.4187C25.2943 53.5514 25.3748 53.672 25.4764 53.7736C25.578 53.8752 25.6986 53.9557 25.8313 54.0107C25.9641 54.0656 26.1063 54.0938 26.25 54.0938H27.3437V56.2856H26.25C25.9599 56.2856 25.6817 56.4009 25.4766 56.606C25.2715 56.8111 25.1562 57.0893 25.1562 57.3794C25.1562 57.6695 25.2715 57.9477 25.4766 58.1528C25.6817 58.3579 25.9599 58.4731 26.25 58.4731H27.3437V61.7544C27.3437 61.898 27.3719 62.0403 27.4268 62.173C27.4818 62.3058 27.5623 62.4264 27.6639 62.528C27.7655 62.6295 27.8861 62.7101 28.0188 62.765C28.1516 62.82 28.2938 62.8482 28.4375 62.8481H29.6419C29.894 64.0832 30.565 65.1932 31.5413 65.9905C32.5177 66.7877 33.7395 67.2231 35 67.2231C36.2605 67.2231 37.4823 66.7877 38.4587 65.9905C39.435 65.1932 40.106 64.0832 40.3581 62.8481H41.5625C41.7062 62.8482 41.8484 62.82 41.9812 62.765C42.1139 62.7101 42.2345 62.6295 42.3361 62.528C42.4377 62.4264 42.5182 62.3058 42.5732 62.173C42.6281 62.0403 42.6563 61.898 42.6562 61.7544V58.4731H43.75C44.0401 58.4731 44.3183 58.3579 44.5234 58.1528C44.7285 57.9477 44.8437 57.6695 44.8437 57.3794C44.8437 57.0893 44.7285 56.8111 44.5234 56.606C44.3183 56.4009 44.0401 56.2856 43.75 56.2856H42.6562V54.0938H43.75C43.8937 54.0938 44.0359 54.0656 44.1687 54.0107C44.3014 53.9557 44.422 53.8752 44.5236 53.7736C44.6252 53.672 44.7057 53.5514 44.7607 53.4187C44.8156 53.2859 44.8438 53.1437 44.8437 53V51.2558C48.2698 49.1195 50.9068 45.9254 52.3558 42.1569C53.8049 38.3883 53.987 34.2503 52.8747 30.369C51.7624 26.4878 49.4162 23.0743 46.1911 20.6453C42.966 18.2162 39.0375 16.9037 35 16.9063ZM35 65.0356C34.3216 65.0348 33.66 64.8241 33.106 64.4325C32.552 64.0409 32.1327 63.4874 31.9057 62.8481H38.0943C37.8672 63.4874 37.448 64.0409 36.894 64.4325C36.34 64.8241 35.6784 65.0348 35 65.0356ZM40.4687 60.6606H29.5312V58.4731H40.4687V60.6606ZM29.5312 56.2856V54.0981H40.4687V56.2856H29.5312ZM36.0937 30.0313H37.1875C38.0577 30.0313 38.8923 29.6856 39.5077 29.0702C40.123 28.4548 40.4687 27.6202 40.4687 26.75C40.4687 25.8798 40.123 25.0452 39.5077 24.4298C38.8923 23.8145 38.0577 23.4688 37.1875 23.4688H36.0937V19.1492C40.0524 19.4175 43.7797 21.1115 46.585 23.9175C49.3903 26.7234 51.0835 30.451 51.351 34.4097L45.9386 34.4063C45.6485 34.4063 45.3693 34.5216 45.1642 34.7267C44.9591 34.9318 44.8438 35.2099 44.8437 35.5V37.6875C44.8437 37.9776 44.7285 38.2558 44.5234 38.4609C44.3183 38.666 44.0401 38.7813 43.75 38.7813C43.4599 38.7813 43.1817 38.666 42.9766 38.4609C42.7715 38.2558 42.6562 37.9776 42.6562 37.6875V35.5C42.6563 35.3564 42.6281 35.2141 42.5732 35.0813C42.5182 34.9486 42.4377 34.828 42.3361 34.7264C42.2345 34.6248 42.1139 34.5443 41.9812 34.4893C41.8484 34.4344 41.7062 34.4062 41.5625 34.4063H36.0937V30.0313ZM18.6673 36.5972L24.0636 36.5938C24.3535 36.5935 24.6314 36.4782 24.8363 36.2731C25.0412 36.068 25.1563 35.7899 25.1562 35.5V33.3125C25.1562 33.0224 25.2715 32.7442 25.4766 32.5391C25.6817 32.334 25.9599 32.2188 26.25 32.2188C26.5401 32.2188 26.8183 32.334 27.0234 32.5391C27.2285 32.7442 27.3437 33.0224 27.3437 33.3125V35.5C27.3437 35.6437 27.3719 35.7859 27.4268 35.9187C27.4818 36.0514 27.5623 36.172 27.6639 36.2736C27.7655 36.3752 27.8861 36.4557 28.0188 36.5107C28.1516 36.5656 28.2938 36.5938 28.4375 36.5938H33.9062V40.9688H32.8125C31.9423 40.9688 31.1077 41.3145 30.4923 41.9298C29.8769 42.5452 29.5312 43.3798 29.5312 44.25C29.5312 45.1203 29.8769 45.9548 30.4923 46.5702C31.1077 47.1856 31.9423 47.5313 32.8125 47.5313H33.9062V51.9063H27.3437V50.6373C27.3438 50.4453 27.2933 50.2566 27.1973 50.0903C27.1013 49.924 26.9632 49.7859 26.7969 49.6899C24.4738 48.3396 22.5177 46.4396 21.1003 44.1568C19.6828 41.874 18.8474 39.2782 18.6673 36.5972ZM43.2031 49.6899C43.0368 49.7859 42.8987 49.924 42.8027 50.0903C42.7067 50.2566 42.6562 50.4453 42.6562 50.6373V51.9063H36.0937V46.4375C36.0938 46.2939 36.0656 46.1516 36.0107 46.0188C35.9557 45.8861 35.8752 45.7655 35.7736 45.6639C35.672 45.5623 35.5514 45.4818 35.4187 45.4268C35.2859 45.3719 35.1437 45.3437 35 45.3438H32.8125C32.5224 45.3438 32.2442 45.2285 32.0391 45.0234C31.834 44.8183 31.7187 44.5401 31.7187 44.25C31.7187 43.9599 31.834 43.6817 32.0391 43.4766C32.2442 43.2715 32.5224 43.1563 32.8125 43.1563H35C35.1437 43.1563 35.2859 43.1281 35.4187 43.0732C35.5514 43.0182 35.672 42.9377 35.7736 42.8361C35.8752 42.7345 35.9557 42.6139 36.0107 42.4812C36.0656 42.3484 36.0938 42.2062 36.0937 42.0625V36.5938H40.4687V37.6875C40.4687 38.5578 40.8144 39.3923 41.4298 40.0077C42.0452 40.6231 42.8798 40.9688 43.75 40.9688C44.6202 40.9688 45.4548 40.6231 46.0702 40.0077C46.6855 39.3923 47.0312 38.5578 47.0312 37.6875V36.5948L51.3327 36.5974C51.1525 39.2783 50.3171 41.8741 48.8997 44.1569C47.4822 46.4396 45.5262 48.3396 43.2031 49.6899Z" fill="white"/>
<path d="M12.0312 35.5C12.0313 35.3563 12.0031 35.2141 11.9482 35.0813C11.8932 34.9486 11.8127 34.828 11.7111 34.7264C11.6095 34.6248 11.4889 34.5443 11.3562 34.4893C11.2234 34.4344 11.0812 34.4062 10.9375 34.4063H4.375C4.08492 34.4063 3.80672 34.5215 3.6016 34.7266C3.39648 34.9317 3.28125 35.2099 3.28125 35.5C3.28125 35.7901 3.39648 36.0683 3.6016 36.2734C3.80672 36.4785 4.08492 36.5938 4.375 36.5938H10.9375C11.0812 36.5938 11.2234 36.5656 11.3562 36.5107C11.4889 36.4557 11.6095 36.3752 11.7111 36.2736C11.8127 36.172 11.8932 36.0514 11.9482 35.9187C12.0031 35.7859 12.0313 35.6437 12.0312 35.5Z" fill="white"/>
<path d="M14.7079 22.5215L9.02451 19.2403C8.90009 19.1684 8.76274 19.1218 8.62031 19.1031C8.47788 19.0844 8.33316 19.0939 8.1944 19.1311C8.05564 19.1682 7.92557 19.2324 7.8116 19.3199C7.69764 19.4073 7.60202 19.5164 7.5302 19.6408C7.45839 19.7652 7.41178 19.9026 7.39304 20.045C7.37431 20.1874 7.3838 20.3322 7.421 20.4709C7.45819 20.6097 7.52236 20.7398 7.60982 20.8537C7.69728 20.9677 7.80634 21.0633 7.93076 21.1351L13.6142 24.4164C13.8655 24.5614 14.1641 24.6007 14.4443 24.5256C14.7245 24.4504 14.9635 24.2671 15.1085 24.0158C15.2535 23.7645 15.2928 23.4659 15.2177 23.1857C15.1426 22.9055 14.9592 22.6665 14.7079 22.5215Z" fill="white"/>
<path d="M22.0213 15.208C22.0931 15.3324 22.1888 15.4415 22.3027 15.529C22.4167 15.6164 22.5468 15.6806 22.6855 15.7178C22.8243 15.755 22.969 15.7645 23.1114 15.7457C23.2539 15.727 23.3912 15.6804 23.5156 15.6086C23.64 15.5368 23.7491 15.4411 23.8366 15.3272C23.924 15.2132 23.9882 15.0831 24.0254 14.9444C24.0626 14.8056 24.0721 14.6609 24.0533 14.5185C24.0346 14.376 23.988 14.2387 23.9162 14.1143L20.6349 8.43085C20.5631 8.30643 20.4675 8.19738 20.3535 8.10991C20.2396 8.02245 20.1095 7.95829 19.9707 7.92109C19.832 7.8839 19.6873 7.8744 19.5448 7.89313C19.4024 7.91187 19.265 7.95848 19.1406 8.0303C19.0162 8.10211 18.9072 8.19773 18.8197 8.31169C18.7322 8.42566 18.6681 8.55573 18.6309 8.69449C18.5937 8.83325 18.5842 8.97797 18.6029 9.1204C18.6216 9.26284 18.6683 9.40018 18.7401 9.5246L22.0213 15.208Z" fill="white"/>
<path d="M35 12.5312C35.1437 12.5313 35.2859 12.5031 35.4187 12.4482C35.5514 12.3932 35.672 12.3127 35.7736 12.2111C35.8752 12.1095 35.9557 11.9889 36.0107 11.8562C36.0656 11.7234 36.0938 11.5812 36.0938 11.4375V4.875C36.0938 4.58492 35.9785 4.30672 35.7734 4.1016C35.5683 3.89648 35.2901 3.78125 35 3.78125C34.7099 3.78125 34.4317 3.89648 34.2266 4.1016C34.0215 4.30672 33.9063 4.58492 33.9063 4.875V11.4375C33.9062 11.5812 33.9344 11.7234 33.9893 11.8562C34.0443 11.9889 34.1248 12.1095 34.2264 12.2111C34.328 12.3127 34.4486 12.3932 34.5813 12.4482C34.7141 12.5031 34.8563 12.5313 35 12.5312Z" fill="white"/>
<path d="M46.4844 15.6086C46.7357 15.7535 47.0342 15.7927 47.3144 15.7176C47.5946 15.6425 47.8335 15.4592 47.9787 15.208L51.2599 9.5246C51.405 9.27333 51.4443 8.97473 51.3691 8.69449C51.294 8.41426 51.1107 8.17534 50.8594 8.0303C50.6081 7.88526 50.3095 7.84598 50.0293 7.92109C49.749 7.99621 49.5101 8.17958 49.3651 8.43085L46.0838 14.1143C46.012 14.2387 45.9654 14.376 45.9466 14.5185C45.9279 14.6609 45.9374 14.8056 45.9746 14.9444C46.0117 15.0832 46.0759 15.2133 46.1634 15.3272C46.2509 15.4412 46.3599 15.5368 46.4844 15.6086Z" fill="white"/>
<path d="M55.84 24.5627C56.0316 24.5628 56.2199 24.5124 56.3858 24.4164L62.0692 21.1351C62.3205 20.9901 62.5039 20.7512 62.579 20.4709C62.6541 20.1907 62.6148 19.8921 62.4698 19.6408C62.3247 19.3895 62.0858 19.2062 61.8056 19.1311C61.5254 19.0559 61.2268 19.0952 60.9755 19.2403L55.2921 22.5215C55.0834 22.6419 54.9202 22.8278 54.8281 23.0504C54.7359 23.273 54.7197 23.5198 54.7822 23.7525C54.8447 23.9852 54.9822 24.1908 55.1735 24.3373C55.3648 24.4838 55.5991 24.563 55.84 24.5627Z" fill="white"/>
<path d="M65.625 34.4062H59.0625C58.7724 34.4062 58.4942 34.5215 58.2891 34.7266C58.084 34.9317 57.9688 35.2099 57.9688 35.5C57.9688 35.7901 58.084 36.0683 58.2891 36.2734C58.4942 36.4785 58.7724 36.5938 59.0625 36.5938H65.625C65.9151 36.5938 66.1933 36.4785 66.3984 36.2734C66.6035 36.0683 66.7188 35.7901 66.7188 35.5C66.7188 35.2099 66.6035 34.9317 66.3984 34.7266C66.1933 34.5215 65.9151 34.4062 65.625 34.4062Z" fill="white"/>
<path d="M62.0692 49.8653L56.3858 46.584C56.2614 46.5122 56.124 46.4656 55.9816 46.4468C55.8392 46.4281 55.6945 46.4376 55.5557 46.4748C55.2755 46.5499 55.0365 46.7333 54.8915 46.9846C54.7465 47.2358 54.7072 47.5344 54.7823 47.8147C54.8574 48.0949 55.0408 48.3338 55.2921 48.4789L60.9755 51.7601C61.2268 51.9051 61.5254 51.9444 61.8056 51.8693C62.0858 51.7942 62.3247 51.6108 62.4698 51.3596C62.6148 51.1083 62.6541 50.8097 62.579 50.5294C62.5039 50.2492 62.3205 50.0103 62.0692 49.8653Z" fill="white"/>
<path d="M13.6142 46.584L7.93076 49.8653C7.67949 50.0103 7.49612 50.2492 7.421 50.5294C7.34588 50.8097 7.38517 51.1083 7.53021 51.3596C7.67525 51.6108 7.91416 51.7942 8.1944 51.8693C8.47464 51.9444 8.77324 51.9051 9.02451 51.7601L14.7079 48.4789C14.8324 48.407 14.9414 48.3114 15.0289 48.1975C15.1163 48.0835 15.1805 47.9534 15.2177 47.8147C15.2549 47.6759 15.2644 47.5312 15.2457 47.3888C15.2269 47.2463 15.1803 47.109 15.1085 46.9846C15.0367 46.8601 14.9411 46.7511 14.8271 46.6636C14.7131 46.5762 14.5831 46.512 14.4443 46.4748C14.3055 46.4376 14.1608 46.4281 14.0184 46.4468C13.876 46.4656 13.7386 46.5122 13.6142 46.584Z" fill="white"/>
<path d="M21.8522 22.3526C21.6992 22.5056 21.5951 22.7005 21.5529 22.9127C21.5107 23.1248 21.5323 23.3447 21.6151 23.5446C21.6979 23.7444 21.8381 23.9152 22.018 24.0354C22.1978 24.1556 22.4093 24.2197 22.6256 24.2197C22.8419 24.2197 23.0534 24.1556 23.2332 24.0354C23.4131 23.9152 23.5533 23.7444 23.6361 23.5446C23.7189 23.3447 23.7405 23.1248 23.6984 22.9127C23.6562 22.7005 23.552 22.5056 23.3991 22.3526C23.2975 22.2511 23.1769 22.1705 23.0442 22.1155C22.9115 22.0605 22.7693 22.0322 22.6256 22.0322C22.482 22.0322 22.3397 22.0605 22.207 22.1155C22.0743 22.1705 21.9537 22.2511 21.8522 22.3526Z" fill="white"/>
</svg>
