<svg width="19" height="24" viewBox="0 0 19 24" fill="none" xmlns="http://www.w3.org/2000/svg">
<path d="M12.1172 1.40625H11.2939C11.0034 0.587766 10.2214 0 9.30469 0C8.388 0 7.60594 0.587766 7.31545 1.40625H6.49219C5.32903 1.40625 4.38281 2.35247 4.38281 3.51562C4.38281 3.90427 4.6973 4.21875 5.08594 4.21875H13.5234C13.9121 4.21875 14.2266 3.90427 14.2266 3.51562C14.2266 2.35247 13.2803 1.40625 12.1172 1.40625Z" fill="#002147"/>
<path d="M16.3359 2.8125H15.5617C15.608 3.0398 15.6328 3.27487 15.6328 3.51562C15.6328 4.67878 14.6866 5.625 13.5234 5.625H5.08594C3.92278 5.625 2.97656 4.67878 2.97656 3.51562C2.97656 3.27487 3.00136 3.0398 3.04772 2.8125H2.27344C1.11028 2.8125 0.164062 3.75872 0.164062 4.92188V21.8906C0.164062 23.0538 1.11028 24 2.27344 24H16.3359C17.4991 24 18.4453 23.0538 18.4453 21.8906V4.92188C18.4453 3.75872 17.4991 2.8125 16.3359 2.8125ZM7.19531 19.6875H4.38281C3.99417 19.6875 3.67969 19.373 3.67969 18.9844C3.67969 18.5957 3.99417 18.2812 4.38281 18.2812H7.19531C7.58395 18.2812 7.89844 18.5957 7.89844 18.9844C7.89844 19.373 7.58395 19.6875 7.19531 19.6875ZM7.19531 14.7656H4.38281C3.99417 14.7656 3.67969 14.4511 3.67969 14.0625C3.67969 13.6739 3.99417 13.3594 4.38281 13.3594H7.19531C7.58395 13.3594 7.89844 13.6739 7.89844 14.0625C7.89844 14.4511 7.58395 14.7656 7.19531 14.7656ZM7.19531 9.84375H4.38281C3.99417 9.84375 3.67969 9.52927 3.67969 9.14062C3.67969 8.75198 3.99417 8.4375 4.38281 8.4375H7.19531C7.58395 8.4375 7.89844 8.75198 7.89844 9.14062C7.89844 9.52927 7.58395 9.84375 7.19531 9.84375ZM14.0205 19.8935C14.2952 20.1682 14.2952 20.6131 14.0205 20.8878C13.8832 21.0251 13.7033 21.0938 13.5234 21.0938C13.3436 21.0938 13.1636 21.0251 13.0263 20.8878L12.1172 19.9786L11.208 20.8878C11.0707 21.0251 10.8908 21.0938 10.7109 21.0938C10.5311 21.0938 10.3511 21.0251 10.2138 20.8878C9.93919 20.6131 9.93919 20.1682 10.2138 19.8935L11.1229 18.9844L10.2138 18.0752C9.93914 17.8006 9.93914 17.3556 10.2138 17.081C10.4884 16.8063 10.9334 16.8063 11.208 17.081L12.1172 17.9901L13.0263 17.081C13.301 16.8063 13.746 16.8063 14.0206 17.081C14.2952 17.3556 14.2952 17.8006 14.0206 18.0752L13.1115 18.9844L14.0205 19.8935ZM14.7237 13.1534L12.6143 15.2627C12.477 15.4001 12.297 15.4688 12.1172 15.4688C11.9373 15.4688 11.7574 15.4001 11.6201 15.2627L10.2138 13.8565C9.93919 13.5818 9.93919 13.1369 10.2138 12.8622C10.4885 12.5876 10.9335 12.5876 11.2081 12.8622L12.1172 13.7714L13.7295 12.1591C14.0041 11.8845 14.4491 11.8845 14.7237 12.1591C14.9984 12.4337 14.9984 12.8787 14.7237 13.1534ZM14.7237 8.93461L12.6143 11.044C12.477 11.1813 12.297 11.25 12.1172 11.25C11.9373 11.25 11.7574 11.1813 11.6201 11.044L10.2138 9.63773C9.93919 9.36309 9.93919 8.91811 10.2138 8.64347C10.4885 8.36883 10.9335 8.36883 11.2081 8.64347L12.1172 9.55261L13.7295 7.94034C14.0041 7.6657 14.4491 7.6657 14.7237 7.94034C14.9984 8.21498 14.9984 8.65997 14.7237 8.93461Z" fill="#002147"/>
</svg>
