<svg width="28" height="25" viewBox="0 0 28 25" fill="none" xmlns="http://www.w3.org/2000/svg">
<path fill-rule="evenodd" clip-rule="evenodd" d="M18.9473 21.9627V23.552C18.9473 24.075 18.5228 24.4995 17.9998 24.4995C17.4767 24.4995 17.0522 24.075 17.0522 23.552V21.9728H18.6314C18.7376 21.9728 18.8424 21.969 18.9473 21.9627Z" fill="white"/>
<path fill-rule="evenodd" clip-rule="evenodd" d="M17.0572 21.974H8.52958C5.91317 21.974 3.79199 19.8528 3.79199 17.2364V13.3427L11.0108 17.3311C12.5748 18.1953 14.5912 18.1953 16.1552 17.3311L17.0572 16.8334V21.974ZM18.9523 15.786L23.374 13.3427V17.2364C23.374 19.7467 21.4221 21.8009 18.9523 21.9639V15.786Z" fill="white"/>
<path fill-rule="evenodd" clip-rule="evenodd" d="M17.0553 15.3896L15.5418 16.2259C14.3492 16.8854 12.813 16.8854 11.6203 16.2259L1.11681 10.4221C0.401747 10.0267 0 9.33433 0 8.61043C0 7.88526 0.401747 7.19294 1.11681 6.79878L11.6203 0.993656C12.813 0.335448 14.3492 0.335448 15.5418 0.993656L26.0453 6.79878C26.7604 7.19294 27.1622 7.88526 27.1622 8.61043C27.1622 9.33433 26.7604 10.0267 26.0453 10.4221L18.9503 14.3423V13.4466C18.9503 13.1951 18.8505 12.9538 18.6724 12.777L14.2507 8.35523C13.8818 7.98507 13.2804 7.98507 12.9115 8.35523C12.5413 8.72413 12.5413 9.32549 12.9115 9.69439L17.0553 13.8395V15.3896Z" fill="white"/>
</svg>
