<svg width="28" height="25" viewBox="0 0 28 25" fill="none" xmlns="http://www.w3.org/2000/svg">
<path fill-rule="evenodd" clip-rule="evenodd" d="M18.9475 21.9629V23.5522C18.9475 24.0752 18.523 24.4997 18 24.4997C17.477 24.4997 17.0525 24.0752 17.0525 23.5522V21.973H18.6317C18.7378 21.973 18.8427 21.9692 18.9475 21.9629Z" fill="#002147"/>
<path fill-rule="evenodd" clip-rule="evenodd" d="M17.057 21.974H8.52933C5.91292 21.974 3.79175 19.8528 3.79175 17.2364V13.3428L11.0106 17.3312C12.5746 18.1953 14.5909 18.1953 16.155 17.3312L17.057 16.8334V21.974ZM18.952 15.7861L23.3738 13.3428V17.2364C23.3738 19.7467 21.4219 21.8009 18.952 21.9639V15.7861Z" fill="#002147"/>
<path fill-rule="evenodd" clip-rule="evenodd" d="M17.0553 15.3896L15.5418 16.2259C14.3492 16.8854 12.813 16.8854 11.6203 16.2259L1.11681 10.4221C0.401747 10.0267 0 9.33433 0 8.61043C0 7.88526 0.401747 7.19294 1.11681 6.79878L11.6203 0.993656C12.813 0.335448 14.3492 0.335448 15.5418 0.993656L26.0453 6.79878C26.7604 7.19294 27.1622 7.88526 27.1622 8.61043C27.1622 9.33433 26.7604 10.0267 26.0453 10.4221L18.9503 14.3423V13.4466C18.9503 13.1951 18.8505 12.9538 18.6724 12.777L14.2507 8.35523C13.8818 7.98507 13.2804 7.98507 12.9115 8.35523C12.5413 8.72413 12.5413 9.32549 12.9115 9.69439L17.0553 13.8395V15.3896Z" fill="#002147"/>
</svg>
