<svg width="19" height="24" viewBox="0 0 19 24" fill="none" xmlns="http://www.w3.org/2000/svg">
<path d="M17.8759 20.8472V24H0.97667V20.846C0.97667 19.6763 1.98576 18.234 3.21944 17.6501L5.96428 16.3451L7.86925 20.3144L8.84388 17.6704C9.03586 17.708 9.22722 17.7559 9.42657 17.7559C9.62654 17.7559 9.81729 17.708 10.0099 17.6704L10.9347 20.1851L12.8009 16.3014L15.6331 17.6483C16.8668 18.234 17.8759 19.6763 17.8759 20.8472ZM9.42719 16.3008C11.8385 16.3008 13.7933 13.2999 13.7933 10.5496C13.7933 7.79671 11.8392 6.33661 9.42719 6.33661C7.01583 6.33661 5.06226 7.79671 5.06226 10.5496C5.06103 13.2999 7.01583 16.3008 9.42719 16.3008ZM15.95 9.34235L15.0086 9.01808C15.1076 8.73074 15.1944 8.52031 15.2682 8.38494C15.3421 8.24896 15.4565 8.14128 15.6097 8.06191C15.7635 7.98007 15.9826 7.93023 16.2699 7.90931C16.4034 7.90562 16.5179 7.90193 16.6157 7.89885C16.7111 7.89455 16.7972 7.88593 16.8717 7.87178C16.9461 7.85763 17.012 7.83117 17.0649 7.79425C17.2064 7.7038 17.3196 7.53706 17.4021 7.29586C17.5085 6.98821 17.5288 6.76855 17.4642 6.63688C17.4304 6.54458 17.3621 6.46828 17.2569 6.40921C17.151 6.35015 16.9904 6.28369 16.7745 6.20986C16.5302 6.13356 16.3468 6.08864 16.2244 6.07203C16.105 6.05542 16.0041 6.07142 15.9235 6.12249C15.8374 6.18648 15.7512 6.31877 15.6614 6.52181C15.6626 6.5495 15.6546 6.58827 15.6374 6.63749L15.5605 6.859L14.6197 6.53597C14.7692 6.10157 14.92 5.78346 15.0726 5.58164C15.2264 5.38043 15.3981 5.25799 15.5894 5.21246C15.8091 5.15954 16.0361 5.15647 16.2681 5.20323C16.4994 5.24999 16.7775 5.32936 17.1018 5.44073C17.8266 5.69055 18.2617 5.99204 18.4075 6.3483C18.5379 6.66149 18.5096 7.08727 18.3232 7.62935C18.1934 8.00469 18.0531 8.26373 17.8999 8.40524C17.7466 8.54553 17.5571 8.63783 17.3313 8.6809C17.2593 8.69567 17.1393 8.70859 16.9689 8.71659C16.8009 8.72459 16.6742 8.73135 16.5905 8.74058C16.5062 8.74858 16.4219 8.77258 16.3339 8.80827C16.225 8.84088 16.153 8.89133 16.1161 8.9584C16.0749 9.01193 16.0189 9.1393 15.95 9.34235ZM14.7495 9.76752L15.6909 10.0912L15.3414 11.107L14.4006 10.7834L14.7495 9.76752ZM3.24466 9.14483L2.44785 9.49432C2.34079 9.25067 2.27126 9.06423 2.23803 8.93317C2.20604 8.80211 2.21465 8.66429 2.26511 8.52215C2.31556 8.38002 2.42755 8.21696 2.5986 8.03299C2.68228 7.95054 2.75427 7.88039 2.81457 7.82133C2.87364 7.76164 2.92409 7.70565 2.96347 7.65212C3.00223 7.59797 3.02808 7.5426 3.04161 7.48722C3.07915 7.34447 3.05269 7.16972 2.96347 6.96729C2.84841 6.70579 2.7315 6.55196 2.6109 6.50643C2.53522 6.46644 2.44539 6.45905 2.34263 6.48367C2.23988 6.50766 2.09775 6.56058 1.91439 6.64118C1.71195 6.7384 1.56736 6.81839 1.47998 6.8793C1.39261 6.94083 1.33785 7.01036 1.3157 7.09097C1.29909 7.18203 1.32185 7.32047 1.38523 7.50322C1.40307 7.51983 1.42092 7.54998 1.43938 7.59243L1.52183 7.78133L0.725013 8.13144C0.563805 7.76349 0.472125 7.46999 0.451205 7.24848C0.429669 7.02821 0.467203 6.84731 0.563189 6.70394C0.673943 6.53966 0.817308 6.40429 0.994514 6.29662C1.1711 6.18955 1.39692 6.07634 1.67196 5.95389C2.28541 5.68439 2.74442 5.6204 3.04961 5.76192C3.3185 5.88498 3.55354 6.17663 3.75475 6.63503C3.89503 6.95437 3.95779 7.20357 3.94241 7.38508C3.92703 7.56598 3.86058 7.73703 3.74121 7.89947C3.70306 7.953 3.63292 8.03299 3.52893 8.13759C3.42495 8.24219 3.34926 8.32279 3.29942 8.37817C3.2502 8.43355 3.20959 8.49939 3.17513 8.57507C3.12468 8.65936 3.10807 8.73382 3.12406 8.79904C3.1296 8.85872 3.16898 8.97317 3.24466 9.14483ZM2.72535 10.1299L3.52278 9.77921L3.90119 10.64L3.10376 10.9889L2.72535 10.1299ZM8.59653 4.16276L7.70004 3.72405C7.83356 3.45024 7.94555 3.25027 8.036 3.12413C8.12583 2.99923 8.25381 2.9057 8.41564 2.84417C8.57808 2.78141 8.80327 2.75865 9.09123 2.77403C9.22537 2.78695 9.34043 2.79741 9.43642 2.80725C9.5324 2.81525 9.61916 2.8171 9.69546 2.81095C9.77176 2.80602 9.83882 2.78695 9.89789 2.75926C10.0511 2.68481 10.184 2.53406 10.2954 2.30517C10.4381 2.01167 10.4873 1.79509 10.4369 1.6548C10.416 1.55943 10.3557 1.47452 10.2585 1.40253C10.1612 1.33177 10.0093 1.24501 9.80313 1.1441C9.56932 1.03827 9.39212 0.972432 9.27398 0.939206C9.15646 0.909056 9.05432 0.911518 8.96756 0.952127C8.87465 1.00566 8.77189 1.12749 8.65806 1.32008C8.65683 1.34776 8.64391 1.38407 8.62053 1.43268L8.51655 1.64434L7.61944 1.20625C7.82187 0.79215 8.012 0.494345 8.18797 0.313447C8.36641 0.130703 8.55223 0.0297941 8.7479 0.00948926C8.97371 -0.015738 9.19953 0.00948927 9.42411 0.0833251C9.64869 0.159007 9.91574 0.272837 10.2258 0.42297C10.9162 0.762 11.3125 1.11641 11.4152 1.48744C11.5051 1.81293 11.4263 2.23503 11.1728 2.75311C10.9974 3.10998 10.8258 3.35056 10.6553 3.47178C10.4861 3.59238 10.2861 3.6619 10.0554 3.67729C9.98034 3.68344 9.85913 3.68098 9.68931 3.66683C9.5201 3.65329 9.39396 3.64591 9.30966 3.64345C9.22475 3.64037 9.13677 3.65575 9.04509 3.68221C8.93433 3.69821 8.85558 3.74066 8.81004 3.80342C8.76266 3.84834 8.69252 3.96955 8.59653 4.16276ZM7.35055 4.4378L8.24828 4.87589L7.77449 5.84437L6.87677 5.40505L7.35055 4.4378Z" fill="#002147"/>
</svg>
