<svg width="137" height="51" viewBox="0 0 137 51" fill="none" xmlns="http://www.w3.org/2000/svg">
<path d="M108.703 14.6716V21.292C114.48 18.0844 122.177 19.769 125.303 21.0122V15.2311L132.43 13.7391L120.145 2.0835L100.732 9.44986L108.703 14.6716Z" fill="white"/>
<path fill-rule="evenodd" clip-rule="evenodd" d="M110.298 43.2046L110.016 24.8353C110.141 23.6542 111.536 21.292 116.112 21.292C120.332 21.292 123.802 21.292 123.896 25.9542C123.971 29.684 123.927 38.6356 123.896 42.6451C123.677 43.8884 122.546 46.3749 119.77 46.3749C116.919 46.3003 114.143 46.3438 113.111 46.3749C112.185 46.0952 110.326 45.0695 110.298 43.2046ZM117.192 43.2046C114.938 43.2046 113.111 41.3773 113.111 39.1233V29.9514C113.111 27.743 114.9 25.952 117.108 25.9493C119.294 25.9466 121.077 27.6974 121.115 29.8824L121.273 39.053C121.312 41.3342 119.474 43.2046 117.192 43.2046Z" fill="white"/>
<path d="M120.237 1.15025L99.9456 8.79118C99.3454 9.00646 98.8855 8.04694 98.8542 7.67756C104.731 5.50179 117.368 0.731498 119.093 0.209325C120.819 -0.312847 121.362 0.279964 121.643 0.497536L134.679 13.3654H133.085L120.237 1.15025Z" fill="white"/>
<path d="M76.6873 27.0045V30.5355H65.4879V27.0045H76.6873ZM68.2529 22.3638H72.8442V40.5483C72.8442 41.162 72.9372 41.6328 73.1233 41.9607C73.3177 42.2802 73.5714 42.4988 73.8842 42.6165C74.1971 42.7342 74.5438 42.793 74.9243 42.793C75.2118 42.793 75.4739 42.772 75.7106 42.73C75.9559 42.6879 76.1419 42.6501 76.2687 42.6165L77.0424 46.1853C76.7972 46.2694 76.4463 46.3618 75.9897 46.4627C75.5415 46.5636 74.9919 46.6225 74.3408 46.6393C73.1909 46.6729 72.1551 46.5006 71.2334 46.1222C70.3118 45.7355 69.5804 45.1386 69.0392 44.3315C68.5065 43.5244 68.2444 42.5156 68.2529 41.305V22.3638Z" fill="white"/>
<path d="M91.1582 38.228V27.0045H95.7496V46.3744H91.2978V42.9317H91.0948C90.6551 44.0163 89.9322 44.9032 88.926 45.5926C87.9282 46.282 86.698 46.6267 85.2352 46.6267C83.9584 46.6267 82.8296 46.345 81.8487 45.7817C80.8763 45.2101 80.1153 44.382 79.5657 43.2974C79.0161 42.2045 78.7413 40.8846 78.7413 39.3377V27.0045H83.3327V38.6315C83.3327 39.8589 83.6709 40.8342 84.3473 41.5572C85.0238 42.2802 85.9116 42.6417 87.0108 42.6417C87.6873 42.6417 88.3426 42.4778 88.9767 42.1499C89.6109 41.822 90.1309 41.3344 90.5368 40.687C90.9511 40.0313 91.1582 39.2116 91.1582 38.228Z" fill="white"/>
<path d="M108.413 27.0045V30.5355H97.2139V27.0045H108.413ZM99.9788 22.3638H104.57V40.5483C104.57 41.162 104.663 41.6328 104.849 41.9607C105.044 42.2802 105.297 42.4988 105.61 42.6165C105.923 42.7342 106.27 42.793 106.65 42.793C106.938 42.793 107.2 42.772 107.437 42.73C107.682 42.6879 107.868 42.6501 107.995 42.6165L108.768 46.1853C108.523 46.2694 108.172 46.3618 107.716 46.4627C107.267 46.5636 106.718 46.6225 106.067 46.6393C104.917 46.6729 103.881 46.5006 102.959 46.1222C102.038 45.7355 101.306 45.1386 100.765 44.3315C100.232 43.5244 99.9704 42.5156 99.9788 41.305V22.3638Z" fill="white"/>
<path d="M125.884 46.1762V26.8062H130.336V30.0346H130.539C130.894 28.9164 131.503 28.0547 132.365 27.4494C133.236 26.8357 134.23 26.5288 135.346 26.5288C135.6 26.5288 135.883 26.5414 136.196 26.5666C136.517 26.5835 136.783 26.6129 136.995 26.6549V30.8543C136.8 30.787 136.492 30.7282 136.069 30.6777C135.655 30.6189 135.253 30.5894 134.864 30.5894C134.027 30.5894 133.274 30.7702 132.606 31.1317C131.947 31.4848 131.427 31.9766 131.046 32.6071C130.666 33.2377 130.476 33.9649 130.476 34.7888V46.1762H125.884Z" fill="white"/>
<path d="M38.4253 21.9961C38.5481 21.8991 38.671 21.8141 38.7816 21.717C41.8167 18.7546 44.8559 15.7882 47.8993 12.8177C48.931 11.8222 49.9514 10.8145 51.0449 9.89181C52.63 8.53203 54.424 8.33774 56.3532 9.16338C57.2871 9.56405 58.135 10.0497 58.6265 10.9845C59.033 11.7564 59.2398 12.6156 59.2287 13.4856C59.2165 14.8454 59.1795 16.2051 59.069 17.5528C58.8848 19.9083 58.6513 22.2635 58.4183 24.6188C58.234 26.537 57.9882 28.4431 57.8039 30.3614C57.6811 31.5876 57.595 32.826 57.5458 34.0644C57.4966 35.3269 57.4844 36.5892 57.5458 37.8523C57.6319 39.4792 57.8156 41.1182 58.6518 42.5751C59.5611 44.1535 60.9005 45.1368 62.7927 45.1732C63.5743 45.1645 64.3387 44.9463 65.0046 44.5419L65.4101 44.3234C65.4347 44.3598 65.4715 44.3841 65.4961 44.4205C65.0041 44.9426 64.55 45.4889 64.0339 45.9746C62.7899 47.176 61.3585 48.1722 59.7945 48.9248C58.0675 49.7613 56.1758 50.213 54.2527 50.2482C52.6676 50.2603 51.1071 50.1384 49.5957 49.6654C47.5068 49.0098 45.9585 47.7229 45.1228 45.6711C44.3732 43.8136 44.3364 41.8711 44.447 39.9159C44.5331 38.4468 44.533 36.9657 44.5581 35.4845C44.5949 32.85 44.6073 30.2154 44.6319 27.5687C44.6319 27.3744 44.6073 27.1802 44.5827 26.8889C44.4353 27.0225 44.3493 27.0832 44.2878 27.1555C42.371 29.4379 40.4786 31.7447 38.5372 33.9907C36.4113 36.4432 34.2359 38.8591 31.8156 41.0568C30.6115 42.1493 29.2966 43.0483 27.6255 43.3027C25.7701 43.582 24.1972 43.0361 23.0298 41.603C21.9508 40.2875 21.2732 38.6957 21.076 37.0137C20.904 35.6417 21.1743 34.3426 21.5922 33.0678C22.3294 30.8096 23.1036 28.5635 23.8531 26.3176C24.0005 25.8805 24.1358 25.4551 24.2832 25.0185C24.2515 24.9966 24.2187 24.9764 24.185 24.9578C24.0874 25.0115 23.9968 25.0768 23.9152 25.1521C20.7326 28.855 17.5377 32.5337 14.3921 36.2609C13.4214 37.4143 12.6472 38.7255 11.6888 39.8789C10.4969 41.3237 9.02236 42.3921 7.09315 42.6834C6.18621 42.8071 5.26351 42.7535 4.37749 42.5257C2.65525 42.1258 1.38948 41.1907 0.640011 39.6005C0.200761 38.5672 -0.0168201 37.4551 0.00101403 36.3345C-0.0153337 34.9281 0.187775 33.5276 0.603189 32.1823C1.13156 30.5432 1.75818 28.9286 2.36035 27.3138C3.20822 25.0193 4.06831 22.7368 4.91571 20.4543C5.96023 17.662 7.01697 14.8695 8.04911 12.0645C8.51606 10.8257 8.94618 9.56343 9.40075 8.32519C9.622 7.73022 9.5482 7.63315 8.8846 7.57246C7.582 7.46269 6.41479 7.81522 5.30885 8.44657C4.78048 8.75017 4.27718 9.10223 3.66231 9.38136C3.80976 9.07776 3.94499 8.77432 4.11704 8.49502C5.34583 6.4796 7.12759 5.07121 9.29028 4.16073C10.175 3.78436 11.0966 3.43231 12.0305 3.29823C13.1241 3.15254 14.2546 3.20116 15.3606 3.26185C16.6508 3.33477 17.8428 3.78389 18.9855 4.36663C19.8456 4.80368 20.5707 5.41072 20.7059 6.39413C20.796 7.14719 20.7628 7.90967 20.6076 8.65231C20.1529 10.8498 19.6615 13.0352 19.1085 15.1962C18.5556 17.3446 17.929 19.4819 17.3268 21.6187C17.2941 21.7342 17.2694 21.8518 17.253 21.9707C17.3944 21.888 17.5262 21.7903 17.6461 21.6794C20.4109 18.1463 23.1756 14.6093 25.9404 11.0683C27.3658 9.24713 28.7543 7.40169 30.2043 5.60487C31.2611 4.28148 32.5759 3.24961 34.2348 2.73964C35.5005 2.33982 36.8691 2.40074 38.0932 2.91136C38.8086 3.20892 39.4885 3.58353 40.1207 4.02837C41.3746 4.90248 41.8164 6.21363 41.8779 7.65856C41.9517 9.18832 41.6812 10.6938 41.3617 12.187C40.6613 15.4043 39.5923 18.5124 38.4004 21.584C38.3628 21.7025 38.3381 21.8246 38.3266 21.9483C38.3606 21.9618 38.3936 21.9778 38.4253 21.9961Z" fill="white"/>
</svg>
