<svg width="138" height="51" viewBox="0 0 138 51" fill="none" xmlns="http://www.w3.org/2000/svg">
<path d="M109.261 14.6716V21.292C115.038 18.0844 122.734 19.769 125.86 21.0122V15.2311L132.988 13.7391L120.702 2.0835L101.29 9.44986L109.261 14.6716Z" fill="#FDC800"/>
<path fill-rule="evenodd" clip-rule="evenodd" d="M110.855 43.2046L110.574 24.8353C110.699 23.6542 112.093 21.292 116.67 21.292C120.89 21.292 124.36 21.292 124.454 25.9542C124.529 29.684 124.485 38.6356 124.454 42.6451C124.235 43.8884 123.103 46.3749 120.327 46.3749C117.476 46.3003 114.7 46.3438 113.669 46.3749C112.743 46.0952 110.884 45.0695 110.855 43.2046ZM117.75 43.2046C115.496 43.2046 113.669 41.3773 113.669 39.1233V29.9514C113.669 27.743 115.458 25.952 117.666 25.9493C119.851 25.9466 121.635 27.6974 121.673 29.8824L121.831 39.053C121.87 41.3342 120.032 43.2046 117.75 43.2046Z" fill="#FDC800"/>
<path d="M120.794 1.15025L100.503 8.79118C99.903 9.00646 99.4431 8.04694 99.4119 7.67756C105.289 5.50179 117.925 0.731498 119.651 0.209325C121.377 -0.312847 121.92 0.279964 122.201 0.497536L135.237 13.3654H133.642L120.794 1.15025Z" fill="#FDC800"/>
<path d="M77.2449 27.0045V30.5355H66.0455V27.0045H77.2449ZM68.8105 22.3638H73.4018V40.5483C73.4018 41.162 73.4948 41.6328 73.6809 41.9607C73.8753 42.2802 74.129 42.4988 74.4419 42.6165C74.7547 42.7342 75.1014 42.793 75.4819 42.793C75.7694 42.793 76.0315 42.772 76.2683 42.73C76.5135 42.6879 76.6995 42.6501 76.8263 42.6165L77.6 46.1853C77.3548 46.2694 77.0039 46.3618 76.5473 46.4627C76.0991 46.5636 75.5495 46.6225 74.8985 46.6393C73.7485 46.6729 72.7127 46.5005 71.7911 46.1222C70.8694 45.7355 70.138 45.1386 69.5969 44.3315C69.0642 43.5244 68.802 42.5156 68.8105 41.305V22.3638Z" fill="#FDC800"/>
<path d="M91.7159 38.228V27.0045H96.3072V46.3744H91.8554V42.9317H91.6524C91.2128 44.0163 90.4898 44.9032 89.4836 45.5926C88.4859 46.282 87.2556 46.6267 85.7928 46.6267C84.516 46.6267 83.3872 46.345 82.4063 45.7817C81.4339 45.2101 80.673 44.382 80.1233 43.2974C79.5737 42.2045 79.2989 40.8846 79.2989 39.3377V27.0045H83.8903V38.6315C83.8903 39.8589 84.2285 40.8342 84.9049 41.5572C85.5814 42.2802 86.4692 42.6417 87.5684 42.6417C88.2449 42.6417 88.9002 42.4778 89.5343 42.1499C90.1685 41.822 90.6885 41.3344 91.0944 40.687C91.5087 40.0313 91.7159 39.2116 91.7159 38.228Z" fill="#FDC800"/>
<path d="M108.971 27.0045V30.5355H97.7715V27.0045H108.971ZM100.536 22.3638H105.128V40.5483C105.128 41.162 105.221 41.6328 105.407 41.9607C105.601 42.2802 105.855 42.4988 106.168 42.6165C106.481 42.7342 106.827 42.793 107.208 42.793C107.495 42.793 107.757 42.772 107.994 42.73C108.239 42.6879 108.425 42.6501 108.552 42.6165L109.326 46.1853C109.081 46.2694 108.73 46.3618 108.273 46.4627C107.825 46.5636 107.276 46.6225 106.624 46.6393C105.474 46.6729 104.439 46.5005 103.517 46.1222C102.595 45.7355 101.864 45.1386 101.323 44.3315C100.79 43.5244 100.528 42.5156 100.536 41.305V22.3638Z" fill="#FDC800"/>
<path d="M126.442 46.1762V26.8062H130.894V30.0346H131.097C131.452 28.9164 132.06 28.0547 132.923 27.4494C133.794 26.8357 134.787 26.5288 135.904 26.5288C136.157 26.5288 136.44 26.5414 136.753 26.5666C137.075 26.5835 137.341 26.6129 137.552 26.6549V30.8543C137.358 30.787 137.049 30.7282 136.626 30.6777C136.212 30.6189 135.81 30.5894 135.422 30.5894C134.584 30.5894 133.832 30.7702 133.164 31.1317C132.504 31.4848 131.984 31.9766 131.604 32.6071C131.223 33.2377 131.033 33.9649 131.033 34.7888V46.1762H126.442Z" fill="#FDC800"/>
<path d="M38.9829 21.9961C39.1057 21.8991 39.2286 21.8141 39.3392 21.717C42.3743 18.7546 45.4135 15.7882 48.4569 12.8177C49.4886 11.8222 50.509 10.8145 51.6025 9.89181C53.1876 8.53203 54.9816 8.33774 56.9108 9.16338C57.8447 9.56405 58.6926 10.0497 59.1841 10.9845C59.5906 11.7564 59.7975 12.6156 59.7863 13.4856C59.7741 14.8454 59.7371 16.2051 59.6266 17.5528C59.4424 19.9083 59.2089 22.2635 58.9759 24.6188C58.7916 26.537 58.5458 28.4431 58.3615 30.3614C58.2387 31.5876 58.1526 32.826 58.1034 34.0644C58.0542 35.3269 58.042 36.5892 58.1034 37.8523C58.1895 39.4792 58.3733 41.1182 59.2094 42.5751C60.1187 44.1535 61.4581 45.1368 63.3503 45.1732C64.1319 45.1645 64.8964 44.9463 65.5622 44.5419L65.9677 44.3234C65.9923 44.3598 66.0292 44.3841 66.0538 44.4205C65.5617 44.9426 65.1076 45.4889 64.5915 45.9746C63.3475 47.176 61.9161 48.1722 60.3522 48.9248C58.6252 49.7613 56.7334 50.213 54.8104 50.2482C53.2253 50.2603 51.6647 50.1384 50.1533 49.6654C48.0644 49.0098 46.5161 47.7229 45.6805 45.6711C44.9308 43.8136 44.894 41.8711 45.0046 39.9159C45.0907 38.4468 45.0907 36.9657 45.1157 35.4845C45.1526 32.85 45.1649 30.2154 45.1895 27.5687C45.1895 27.3744 45.1649 27.1802 45.1403 26.8889C44.9929 27.0225 44.9069 27.0832 44.8454 27.1555C42.9286 29.4379 41.0362 31.7447 39.0948 33.9907C36.9689 36.4432 34.7935 38.8591 32.3733 41.0568C31.1691 42.1493 29.8543 43.0483 28.1831 43.3027C26.3277 43.582 24.7548 43.0361 23.5874 41.603C22.5085 40.2875 21.8308 38.6957 21.6336 37.0137C21.4616 35.6417 21.7319 34.3426 22.1498 33.0678C22.887 30.8096 23.6612 28.5635 24.4107 26.3176C24.5582 25.8805 24.6934 25.4551 24.8408 25.0185C24.8092 24.9966 24.7764 24.9764 24.7426 24.9578C24.645 25.0115 24.5544 25.0768 24.4728 25.1521C21.2902 28.855 18.0953 32.5337 14.9497 36.2609C13.979 37.4143 13.2048 38.7255 12.2464 39.8789C11.0545 41.3237 9.57998 42.3921 7.65077 42.6834C6.74383 42.8071 5.82113 42.7535 4.93511 42.5257C3.21287 42.1258 1.94709 41.1907 1.19763 39.6005C0.758378 38.5672 0.540797 37.4551 0.558631 36.3345C0.542283 34.9281 0.745392 33.5276 1.16081 32.1823C1.68918 30.5432 2.31579 28.9286 2.91797 27.3138C3.76584 25.0193 4.62593 22.7368 5.47332 20.4543C6.51784 17.662 7.57458 14.8695 8.60672 12.0645C9.07367 10.8257 9.5038 9.56343 9.95836 8.32519C10.1796 7.73022 10.1058 7.63315 9.44221 7.57246C8.13962 7.46269 6.97241 7.81522 5.86647 8.44657C5.33809 8.75017 4.8348 9.10223 4.21993 9.38136C4.36738 9.07776 4.50261 8.77432 4.67465 8.49502C5.90345 6.4796 7.68521 5.07121 9.8479 4.16073C10.7326 3.78436 11.6543 3.43231 12.5882 3.29823C13.6817 3.15254 14.8123 3.20116 15.9182 3.26185C17.2084 3.33477 18.4004 3.78389 19.5432 4.36663C20.4033 4.80368 21.1283 5.41072 21.2635 6.39413C21.3536 7.14719 21.3204 7.90967 21.1653 8.65231C20.7105 10.8498 20.2191 13.0352 19.6662 15.1962C19.1132 17.3446 18.4866 19.4819 17.8844 21.6187C17.8517 21.7342 17.827 21.8518 17.8106 21.9707C17.952 21.888 18.0838 21.7903 18.2037 21.6794C20.9685 18.1463 23.7333 14.6093 26.498 11.0683C27.9235 9.24713 29.3119 7.40169 30.762 5.60487C31.8187 4.28148 33.1335 3.24961 34.7924 2.73964C36.0581 2.33982 37.4267 2.40074 38.6509 2.91136C39.3662 3.20892 40.0461 3.58353 40.6783 4.02837C41.9322 4.90248 42.3741 6.21363 42.4355 7.65856C42.5093 9.18832 42.2388 10.6938 41.9193 12.187C41.2189 15.4043 40.1499 18.5124 38.958 21.584C38.9204 21.7025 38.8957 21.8246 38.8842 21.9483C38.9183 21.9618 38.9513 21.9778 38.9829 21.9961Z" fill="white"/>
</svg>
