<svg width="22" height="24" viewBox="0 0 22 24" fill="none" xmlns="http://www.w3.org/2000/svg">
<path d="M3.65419 24H18.8178C20.2572 24 21.4268 22.8305 21.4268 21.3911C21.4128 -4.34811 21.4176 4.52938 21.4166 2.6089C21.4166 1.1695 20.2572 0 18.8178 0H3.754C1.89565 0 0.445312 1.52233 0.445312 3.30863V20.7414C0.445312 22.5399 1.89449 24 3.65419 24ZM13.4502 4.05832C16.2456 4.53879 17.0355 8.31889 14.5696 9.8659C14.1398 10.1358 13.8799 10.6056 13.8799 11.1154C13.8799 11.6651 13.4302 12.115 12.8803 12.115C12.3305 12.115 11.8808 11.6651 11.8808 11.1154C11.8808 9.91587 12.4904 8.81629 13.5 8.1766C14.4298 7.58497 14.1103 6.20318 13.1002 6.02747C12.3657 5.88467 11.7107 6.45949 11.7107 7.17702C11.7107 7.73678 11.2609 8.1766 10.7111 8.1766C10.1515 8.1766 9.71149 7.73678 9.71149 7.17702C9.71149 5.2278 11.45 3.71786 13.4502 4.05832ZM13.9998 14.5639C13.9998 15.1244 13.561 15.5635 13.0002 15.5635C12.4725 15.5635 12.0106 15.143 12.0106 14.5639C12.0106 13.9008 12.6133 13.4598 13.2003 13.5843C13.5917 13.6498 13.9998 14.0205 13.9998 14.5639ZM19.4277 19.5718V21.3911C19.4277 21.721 19.1478 22.0008 18.8178 22.0008H3.65419C3.00266 22.0008 2.41212 21.4465 2.45473 20.7014C2.45473 20.2492 2.88964 19.6766 3.58415 19.5818C3.6845 19.5651 2.58982 19.5718 19.4277 19.5718ZM2.44448 3.30863C2.44448 2.58889 3.03433 2.00912 3.754 2.00912H4.34384V17.5727C4.24319 17.5727 3.55354 17.5727 3.65419 17.5727C3.2342 17.5727 2.82445 17.6527 2.44448 17.8026V3.30863Z" fill="#072655"/>
</svg>
