<svg width="58" height="45" viewBox="0 0 58 45" fill="none" xmlns="http://www.w3.org/2000/svg">
<g clip-path="url(#clip0_550_574)">
<path d="M6.02034 28.8113C6.02023 28.8478 6.02023 28.8478 6.02034 28.8113ZM0.837136 23.8947C0.666081 24.2964 0.596936 24.6986 0.867522 25.1017C0.799139 25.2478 0.730865 25.3574 0.628513 25.5033C0.457783 25.7955 0.490883 26.0882 0.59193 26.3811C0.62569 26.4543 0.761245 26.5644 0.79533 26.528C1.10141 26.4191 1.50865 26.5666 1.71357 26.2015C1.81538 26.2384 1.88321 26.2752 1.98502 26.3121C1.74601 26.7137 1.3035 27.005 1.47173 27.5541C1.67545 27.5913 1.84521 27.6284 2.01507 27.6289C2.11634 27.8487 2.14977 28.0317 2.04731 28.2142C2.04709 28.2874 2.01279 28.397 2.04666 28.4336C2.182 28.617 2.35131 28.8003 2.52074 28.9471C2.62245 29.0206 2.79198 29.1308 2.89401 29.0945C3.70956 29.0239 4.55919 28.9167 5.37475 28.8459C5.5787 28.81 5.78253 28.8106 5.98636 28.8112C5.95316 28.5551 6.12313 28.519 6.29299 28.5194C6.32697 28.5196 6.36061 28.6294 6.42823 28.7393C6.29223 28.7755 6.15623 28.8116 5.98626 28.8477C6.12225 28.8115 6.29223 28.7755 6.42823 28.7393L7.17562 28.7416C7.00543 28.8508 6.93738 28.8871 6.83535 28.9234C6.90319 28.9602 6.97103 28.997 7.03886 29.0338C6.96972 29.4358 6.86649 29.8745 7.17126 30.2046C6.89839 30.5696 6.82936 30.9351 6.99803 31.338C7.50772 31.3028 7.84745 31.3039 8.08493 31.4143C8.05074 31.4874 8.01655 31.5605 7.98236 31.6335C7.94807 31.7431 7.87989 31.8161 7.8456 31.9256C7.74292 32.1814 7.81043 32.328 8.0821 32.3653C8.11607 32.3654 8.15005 32.3655 8.218 32.3657C8.42183 32.3663 8.48944 32.4763 8.45482 32.6956C8.42052 32.8053 8.38612 32.9515 8.45395 32.9882C8.5893 33.1715 8.75851 33.3915 8.96201 33.5018C9.13154 33.612 9.33537 33.6126 9.53935 33.5766C10.287 33.4692 11.0009 33.325 11.7487 33.1809C12.1227 33.1088 12.4968 32.9637 12.8697 33.2208C12.87 33.1111 12.9042 33.038 12.9044 33.0014C13.0745 32.9288 13.2783 32.8928 13.4484 32.8202C14.0607 32.566 14.6729 32.3117 15.2854 32.021C16.2378 31.6215 17.1903 31.1854 18.1428 30.7493C18.4149 30.6403 18.7213 30.4584 18.9596 30.2762C19.232 30.0576 19.538 29.9853 19.9118 29.9499C19.8775 30.0595 19.8773 30.1327 19.8432 30.1691C19.7066 30.3882 19.5022 30.6071 19.3995 30.8628C19.2967 31.1551 19.2957 31.4842 19.2608 31.8133C19.2259 32.1058 19.1571 32.3983 19.1223 32.6908C19.0879 32.837 19.0873 33.0199 19.0869 33.1661C19.3245 33.24 19.5282 33.2772 19.7998 33.3511C19.7993 33.534 19.7986 33.7169 19.7641 33.8997C19.7295 34.119 19.7971 34.2655 19.9667 34.3392C20.2043 34.4131 20.2038 34.596 20.1691 34.8153C20.1691 34.8153 20.1692 34.7787 20.2032 34.7789C20.2712 34.7424 20.3393 34.7061 20.3734 34.6696C20.3732 34.7062 20.3732 34.7428 20.3731 34.7793C20.3051 34.7791 20.2371 34.7789 20.1691 34.8153C20.203 34.852 20.2708 34.8888 20.2706 34.9619C20.4045 35.6206 20.846 35.6952 21.3215 35.6966C21.9332 35.6618 22.5448 35.6271 23.1564 35.5923C23.7001 35.5573 24.2445 35.2663 24.8218 35.3412C24.9237 35.3415 25.0258 35.2686 25.1279 35.2324C25.128 35.1958 25.128 35.1958 25.1281 35.1592L24.8563 35.1584C24.8565 35.1218 24.8565 35.1218 24.8566 35.0853C25.1286 35.0129 25.4346 34.9042 25.7066 34.8318C25.5703 34.9776 25.4004 34.9772 25.3318 35.1965C25.4339 35.1602 25.5018 35.1604 25.5699 35.124C26.08 34.9426 26.5903 34.7247 27.0664 34.5432C27.4405 34.398 27.8148 34.2163 28.1551 33.9978C28.8018 33.5974 29.55 33.3436 30.1629 32.8699C30.333 32.7607 30.4686 32.8709 30.468 33.0903C30.4676 33.2 30.4334 33.3096 30.3991 33.4193L30.433 33.4194C30.5015 33.2367 30.5699 33.0905 30.6724 32.908C30.7401 32.9813 30.8078 33.0547 30.8756 33.128C31.0118 32.9822 31.1483 32.7997 31.2507 32.6537C31.2843 32.7636 31.3179 32.9099 31.2838 32.9464C31.1135 33.0556 31.2145 33.3851 30.9766 33.421C30.976 33.6039 31.0094 33.8235 31.0087 34.0429C31.145 33.9336 31.2472 33.8242 31.3835 33.6782C31.4163 34.0806 31.2459 34.263 31.1096 34.4089C31.1768 34.6286 31.2781 34.8483 31.3115 35.0313C31.3442 35.4703 31.3781 35.507 31.7518 35.5082C31.8536 35.5084 31.9557 35.4722 32.0916 35.4726C32.1935 35.4729 32.3295 35.4367 32.3972 35.5101C32.6346 35.6571 32.8725 35.6212 33.1445 35.5488C33.2806 35.4761 33.4167 35.4033 33.5527 35.3671C33.7568 35.2946 33.9606 35.2952 34.1299 35.4787C34.1638 35.5153 34.2998 35.4791 34.4016 35.516C34.3681 35.3696 34.3343 35.2964 34.3006 35.2231C34.8111 34.8955 34.8111 34.8955 35.1158 35.2621C35.1838 35.2257 35.2519 35.1893 35.3199 35.153C35.1846 34.9697 35.3206 34.9336 35.4566 34.8974C35.6605 34.8614 35.8309 34.679 36.0342 34.8625C36.0681 34.8991 36.1702 34.8264 36.2043 34.7898C36.4086 34.6442 36.6128 34.4985 36.8172 34.3527C36.9193 34.2799 37.0215 34.1705 37.1913 34.2076C37.2591 34.2444 37.3612 34.1715 37.4292 34.1352C37.8376 33.9169 38.2119 33.6985 38.6202 33.4803C38.9606 33.2985 39.3345 33.1899 39.6411 32.9347C40.1179 32.5338 40.6284 32.2061 41.139 31.8784C41.5134 31.6601 41.8878 31.4051 42.2623 31.1502C42.2964 31.1138 42.3303 31.1139 42.3983 31.1141C42.4663 31.1143 42.9761 31.0061 43.0443 30.9331C43.2146 30.7873 43.5204 30.7882 43.5213 30.459C43.7589 30.5329 43.7257 30.2767 43.794 30.1673C43.998 30.0947 44.2359 30.0954 44.3721 29.9861C44.7466 29.6946 45.0873 29.3664 45.4282 29.0016C45.6666 28.7829 45.8374 28.4908 46.042 28.1988C46.1785 28.0163 46.3148 27.8705 46.485 27.7612C46.6212 27.6519 46.7573 27.5791 46.8936 27.4698C47.0638 27.324 47.2342 27.1417 47.4045 26.9958C47.6769 26.8138 47.9153 26.595 47.9165 26.1927C48.1544 26.1569 48.3584 26.1209 48.2911 25.8646C48.4956 25.6824 48.632 25.4999 48.8023 25.3541C48.9045 25.2812 49.0066 25.2084 49.0748 25.0988C49.1771 24.9894 49.3812 24.8803 49.3816 24.7706C49.3826 24.4414 49.6548 24.2959 49.8253 24.0769C50.2344 23.6027 50.6772 23.2016 51.0523 22.7273C51.6318 22.0706 52.2114 21.3774 52.791 20.6842C53.234 20.21 53.677 19.7724 54.1201 19.2982C54.5972 18.7876 55.0404 18.2403 55.5178 17.693C56.1309 17.1462 56.7102 16.5262 57.2557 15.906C57.1546 15.6131 57.0874 15.3568 57.054 15.1738C56.8844 15.0636 56.7147 15.0265 56.7151 14.9168C56.7155 14.7705 56.8178 14.6245 56.8521 14.5148C56.5808 14.3677 56.3433 14.2573 56.0718 14.1467C56.0038 14.1832 55.8677 14.2559 55.7316 14.3287C55.6987 13.9628 56.0045 13.9637 56.1749 13.7813C55.9713 13.7075 55.7673 13.7435 55.6317 13.6334C55.4962 13.5232 55.3949 13.3035 55.2933 13.1934C55.0213 13.2658 54.7833 13.3382 54.5452 13.4107C54.4092 13.4468 54.2729 13.5928 54.1377 13.3729C54.1378 13.3363 54.0018 13.3725 53.8998 13.4088C53.8318 13.4086 53.7638 13.4449 53.6958 13.4447C53.6626 13.1886 54.0364 13.1531 53.9354 12.8602C53.8332 12.9331 53.731 13.0425 53.6287 13.1519C53.595 13.0787 53.5613 13.0054 53.5954 12.9689C53.6983 12.6401 53.7672 12.3111 53.904 11.9823C53.9381 11.9458 54.0402 11.9095 54.0742 11.8731C54.0407 11.7267 54.0411 11.5804 54.0074 11.4705C54.0079 11.3242 53.9401 11.2875 53.8041 11.3236C53.7361 11.3235 53.6681 11.3598 53.6681 11.3598C53.533 11.0668 53.3978 10.8469 53.2965 10.6638C53.3991 10.408 53.4677 10.1887 53.5363 9.9695C53.2652 9.74929 53.028 9.52907 52.7909 9.30895C52.7229 9.30877 52.6209 9.34503 52.5189 9.3813C52.5191 9.30815 52.5193 9.23493 52.5196 9.16178C52.6571 8.61358 52.5564 8.21095 52.0475 7.9534C51.9797 7.91661 51.8443 7.76991 51.8783 7.73344C51.981 7.4777 51.7774 7.40394 51.6759 7.25734C51.3377 6.74426 50.7266 6.59613 50.25 6.92391C50.1479 6.99675 50.0119 6.99636 49.9101 6.99605C49.8078 7.10547 49.7053 7.28805 49.5691 7.39738C49.433 7.5067 49.2291 7.50609 49.1616 7.35959C49.0943 7.13993 48.9246 7.10285 48.7889 7.02928C48.9938 6.66414 49.3668 6.92128 49.5371 6.73891C49.5037 6.55592 49.4702 6.40952 49.4366 6.29969C49.3344 6.37254 49.2662 6.44549 49.1642 6.48176C48.3815 6.91835 47.6666 7.42829 47.0193 8.04816C45.7245 9.32449 44.4636 10.6375 43.2027 11.9505C43.1345 12.0234 43.0665 12.0598 42.9984 12.1327C42.9645 12.096 42.9645 12.096 42.9306 12.0594C42.9989 11.9499 43.0673 11.8037 43.1355 11.6943C43.6817 10.818 44.2617 9.97855 44.7739 9.10216C45.1154 8.51799 45.4229 7.93368 45.7305 7.3128C45.8671 7.05717 45.9699 6.76487 45.9369 6.43558C45.8013 6.36203 45.6997 6.25199 45.5301 6.14176C45.6661 6.10559 45.7342 6.06922 45.8703 5.99647C45.565 5.84926 45.3953 5.7756 45.1918 5.66526L45.1931 5.22635C45.0912 5.22604 44.9893 5.22575 44.8874 5.22544C44.9901 4.93314 44.9901 4.93314 45.5339 4.8616C45.2965 4.75117 45.1608 4.67762 44.9912 4.60396C45.1619 4.31186 44.9585 4.16494 44.721 4.05451C44.5515 3.94427 44.3819 3.83404 44.2463 3.72391C44.1102 3.79665 43.9741 3.8694 43.8041 3.94205C43.805 3.61287 43.8058 3.35683 43.8066 3.1008C43.8076 2.77162 43.6384 2.55166 43.4012 2.33149C43.2996 2.22146 43.1298 2.18438 42.9602 2.11072C42.9945 2.00109 43.0288 1.89146 43.0631 1.78184C42.9612 1.78154 42.8593 1.78123 42.7572 1.8175C42.5552 1.19511 42.5214 1.15843 41.9437 1.19329C41.9098 1.19318 41.8418 1.19298 41.842 1.15641C41.7406 0.973224 41.6384 1.04608 41.5023 1.11882C41.264 1.26442 41.0598 1.41011 40.8215 1.59228C40.7538 1.48236 40.6521 1.4089 40.5845 1.29897C40.449 1.15227 40.3476 1.00566 40.2121 0.858949C40.0079 1.00464 39.8038 1.07719 39.6335 1.22299C37.9309 2.57125 36.3975 4.10289 34.8642 5.63454C34.1826 6.36403 33.467 7.09343 32.7854 7.78636C32.7173 7.8593 32.6153 7.89558 32.4791 8.0049C32.4457 7.78535 32.4122 7.63894 32.4126 7.49263C32.4474 7.23671 32.3459 7.0901 32.1423 7.01633C32.0405 6.97946 31.973 6.83295 31.9051 6.79618C31.8704 7.05211 31.8704 7.05211 31.5308 7.01452C31.6001 6.57581 31.6353 6.13699 31.7046 5.66171C31.6367 5.66151 31.5688 5.66131 31.5007 5.69768C31.4327 5.73406 31.3645 5.80701 31.3307 5.77033C30.9913 5.62301 30.7527 5.87834 30.4806 5.98726C30.3445 6.06001 30.2423 6.16943 30.1064 6.16903C30.1412 5.91309 30.2098 5.65726 30.1766 5.43771C30.1439 4.99869 30.1793 4.52331 30.0787 4.08409L30.0787 4.04752C30.1132 3.90131 30.1815 3.79179 30.2159 3.64558C29.8426 3.49817 29.5364 3.64356 29.2983 3.716C29.1289 3.60577 28.9593 3.49554 28.7898 3.3853C28.9259 3.31256 29.0279 3.27628 29.0959 3.23992C28.9606 3.05663 28.8252 2.87335 28.6899 2.72663C28.6221 2.65328 28.4864 2.57973 28.3845 2.57942C28.2486 2.57902 28.0786 2.65167 27.9425 2.72441C27.5001 2.94256 27.0577 3.19728 26.6153 3.45199C26.5484 3.12261 26.8211 2.79423 26.4822 2.53719C26.6183 2.46444 26.7544 2.39169 26.8565 2.31884C26.8566 2.28226 26.8228 2.24559 26.8228 2.24559C26.4824 2.42746 26.1425 2.53618 25.836 2.75472C25.1893 3.15514 24.5426 3.59213 23.9299 3.99265C23.7256 4.13834 23.522 4.06459 23.4202 3.99113C23.0137 3.62416 22.5721 3.58626 22.0287 3.54808C22.1321 3.03631 21.9637 2.56032 22.1011 2.04866C22.2382 1.64673 22.1029 1.46345 21.6953 1.42566C21.5934 1.42535 21.4576 1.38837 21.3556 1.42465C21.2197 1.42424 21.1179 1.38736 21.0163 1.27733C20.8132 1.02069 20.6101 0.764053 20.407 0.543988C20.3393 0.470637 20.2374 0.433754 20.1356 0.433451C19.9316 0.469421 19.7277 0.468814 19.5235 0.577936C19.2854 0.686958 19.0471 0.869131 18.7747 1.0512C18.8433 0.831949 18.8777 0.685745 18.9123 0.502968C18.5719 0.721411 18.5365 1.1968 18.196 1.45182C18.2306 1.23247 18.2991 1.04979 18.2998 0.830329C18.3003 0.64745 18.2329 0.464367 18.1656 0.244711C18.3696 0.20874 18.5735 0.172771 18.7435 0.136703C18.5061 0.0262668 18.5061 0.0262668 18.3018 0.135389C17.9276 0.317156 17.5535 0.462349 17.2469 0.71747C16.4298 1.33683 15.6124 2.02935 14.7951 2.6853C14.6589 2.79462 14.5225 2.94052 14.3182 3.12279C14.4881 3.08672 14.5561 3.08692 14.624 3.08713C14.7257 3.16058 14.8276 3.19746 14.9632 3.27102C14.8949 3.38054 14.8265 3.52664 14.7243 3.63607C14.4857 3.89139 14.1116 4.03659 14.0425 4.43872C14.0423 4.4753 14.0084 4.47519 13.9745 4.47509C13.3275 4.94866 12.7144 5.49548 12.2028 6.15233C12.0665 6.33481 12.0321 6.44443 12.0656 6.62742C12.7452 6.55629 12.847 6.59317 13.0162 6.81313C12.8461 6.92235 12.5741 6.9947 12.4716 7.17727C12.3691 7.35984 12.3008 7.46937 12.0967 7.5785C11.9606 7.65124 11.9261 7.83403 12.0276 7.98063C12.0951 8.12714 12.2312 8.05439 12.3333 7.98154C12.4694 7.90879 12.5717 7.79937 12.7076 7.76319C12.7418 7.72672 12.8434 7.80018 12.8774 7.80027C12.8432 7.87333 12.843 7.94648 12.8089 7.98295C12.7407 8.05591 12.6387 8.09218 12.5705 8.16513C12.5024 8.23808 12.3663 8.31082 12.366 8.38397C12.3993 8.64011 12.2293 8.67618 12.0932 8.74893C11.991 8.8218 11.8889 8.89459 11.7868 8.96747C11.8542 9.15055 11.8878 9.297 11.9213 9.44337C11.8872 9.47981 11.853 9.55287 11.8529 9.58948C10.0463 11.5958 8.27393 13.5656 6.4674 15.572C5.68353 16.4109 4.89966 17.2498 4.14966 18.1254C3.80885 18.4902 3.5019 18.8916 3.33051 19.4032C3.26202 19.5858 3.15945 19.805 3.02313 19.9509C2.51179 20.5345 1.9665 21.1182 1.45518 21.7019C1.14833 22.0667 0.841597 22.395 0.636347 22.8699C0.567754 23.0891 0.533239 23.2719 0.702554 23.4553C1.00853 23.383 0.973902 23.6024 0.837136 23.8947ZM19.3604 32.5817C19.4277 32.8014 19.4951 32.9845 19.5286 33.1675C19.1887 33.203 19.1549 33.1663 19.3604 32.5817ZM55.1215 13.8514C55.1216 13.8147 55.2236 13.7785 55.2577 13.742C55.2915 13.8153 55.3592 13.8886 55.3591 13.9252C55.3248 14.0348 55.2565 14.1444 55.1883 14.2173C55.1543 14.2171 55.1205 14.1805 55.1205 14.1805C55.1208 14.0708 55.0872 13.9609 55.1215 13.8514ZM53.2654 9.67615C53.1288 9.89513 53.4 10.1154 53.1278 10.2609C53.0265 10.0412 52.9251 9.85799 52.7899 9.63813C52.9597 9.63865 53.0616 9.67553 53.2654 9.67615ZM52.3182 8.31996C52.3178 8.46626 52.3513 8.61267 52.351 8.7224C52.317 8.72229 52.2829 8.75877 52.2829 8.75877C52.2152 8.68542 52.1135 8.61197 51.9779 8.50183C52.114 8.42909 52.1821 8.39271 52.3182 8.31996ZM51.9765 8.97731C52.1119 9.16064 52.1453 9.34354 51.9751 9.45277C51.9411 9.45268 51.9073 9.41607 51.8733 9.41589C51.8739 9.23308 51.9421 9.1235 51.9765 8.97731ZM50.6912 7.07153C50.9295 6.92593 51.2351 6.96341 51.4724 7.147C51.3024 7.18307 51.1324 7.21915 50.9623 7.2918C50.7923 7.36444 50.6222 7.43709 50.486 7.54641C50.4521 7.50974 50.4182 7.47305 50.3844 7.43637C50.4866 7.32695 50.5551 7.14427 50.6912 7.07153ZM47.7672 7.8675C47.8693 7.79465 47.9715 7.72181 48.0057 7.64876C48.1767 7.24693 48.5502 7.32119 48.9243 7.176C48.7194 7.54115 48.718 8.01664 48.175 7.83215C48.1071 7.79536 48.0389 7.90489 47.9708 7.94126C47.5963 8.23276 47.2216 8.56083 46.881 8.85245C46.8471 8.81575 46.8471 8.81575 46.8132 8.77908C47.154 8.4509 47.4606 8.1592 47.7672 7.8675ZM44.3399 29.3642C44.3398 29.4373 44.3395 29.5105 44.3394 29.5471C44.3049 29.7298 44.2371 29.6565 44.0675 29.5828C44.1698 29.4734 44.2378 29.4371 44.3399 29.3642ZM45.5972 6.43457C45.8002 6.72779 45.7654 6.98371 45.3563 7.49457C45.4592 7.16569 45.5282 6.80013 45.5972 6.43457ZM44.5169 4.12705C44.5849 4.12725 44.6185 4.23708 44.6864 4.27386C44.6184 4.31023 44.55 4.41976 44.5161 4.41966C44.4143 4.38278 44.3465 4.30942 44.1769 4.23577C44.347 4.16312 44.415 4.12675 44.5169 4.12705ZM43.3661 2.69715C43.57 2.69776 43.5355 2.88053 43.501 3.06331L43.1952 3.0624C43.0939 2.84264 43.1623 2.69654 43.3661 2.69715ZM43.1598 3.53779L43.1937 3.53789C43.1596 3.61094 43.1592 3.72067 43.1251 3.79372C43.0911 3.79362 43.0911 3.79362 43.0572 3.75695C43.0913 3.72046 43.1256 3.61084 43.1598 3.53779ZM42.0112 1.37637C42.0106 1.55925 42.0442 1.70566 42.0099 1.77871C41.8734 1.99776 41.6693 2.10688 41.3296 2.06929C41.5682 1.81397 41.7726 1.63169 42.0112 1.37637ZM39.905 1.33353C40.143 1.26108 40.3468 1.26169 40.5848 1.22582C40.5843 1.37212 40.6179 1.51853 40.6173 1.70141C40.5833 1.70131 40.5492 1.73779 40.5492 1.73779C40.5155 1.66453 40.4816 1.62785 40.414 1.51792C40.3797 1.62755 40.3455 1.7006 40.3114 1.77365C40.0737 1.73637 39.8361 1.66251 39.5984 1.62523C39.6329 1.44244 39.769 1.3697 39.905 1.33353ZM39.7336 1.84509C39.6992 1.9913 39.7327 2.13769 39.6647 2.17407C39.5624 2.28349 39.4602 2.39292 39.3242 2.42909C38.8479 2.64713 38.4732 3.01178 38.0983 3.37643C37.9281 3.52223 37.7578 3.63145 37.5876 3.77725C37.5537 3.74057 37.5538 3.70399 37.5199 3.66731C38.2352 3.04765 38.8488 2.35453 39.7336 1.84509ZM36.3612 4.90746C36.5661 4.54231 36.8725 4.32376 37.2129 4.10532C37.008 4.47048 36.7013 4.76217 36.3609 4.98061C36.3609 4.98061 36.3271 4.94394 36.3612 4.90746ZM36.3269 5.0171C36.2586 5.12661 36.1904 5.19956 36.054 5.38204C36.1568 5.08974 36.1568 5.08974 36.3269 5.0171ZM32.2289 34.9975C32.0585 35.1799 32.0585 35.1799 31.7527 35.2155C31.7527 35.179 31.7189 35.1423 31.7189 35.1057C31.8889 35.0697 32.0249 35.0335 32.2289 34.9975ZM32.1077 7.2357C32.1751 7.41878 32.1067 7.56488 31.9707 7.60105C31.8007 7.63712 31.631 7.60004 31.5638 7.3438C31.7677 7.30784 31.9377 7.27176 32.1077 7.2357ZM29.4339 3.82615C29.5702 3.71682 29.7403 3.64417 29.8761 3.64457C30.046 3.64508 30.0455 3.82796 30.079 3.97437C29.9086 4.15674 29.7046 4.1927 29.501 4.11895C29.3993 4.0455 29.3319 3.86241 29.4339 3.82615ZM28.1219 33.7417C28.0879 33.7781 28.0539 33.7781 28.0199 33.778C27.9859 33.7779 27.952 33.7412 27.8843 33.6678C27.9864 33.6315 28.0203 33.6316 28.0543 33.6318C28.0881 33.6684 28.1219 33.7417 28.1219 33.7417ZM27.9739 3.56576C27.9737 3.63891 28.0075 3.67559 28.0074 3.71217C27.9393 3.78511 27.8373 3.82139 27.769 3.89434C27.7352 3.85766 27.7353 3.82109 27.7014 3.78441C27.7697 3.71145 27.8718 3.63861 27.9739 3.56576ZM27.0339 34.031C27.068 33.9946 27.1359 34.0314 27.2379 33.9951C27.1696 34.1046 27.1355 34.141 27.1015 34.1776C27.0674 34.214 26.9995 34.1772 26.8976 34.177C26.9658 34.104 26.9999 34.0676 27.0339 34.031ZM25.7994 3.63245C25.7996 3.59587 25.7997 3.5593 25.7998 3.52272C25.8677 3.52292 25.9357 3.52312 26.0036 3.52332C26.0036 3.52332 26.0035 3.55989 26.0034 3.59647L25.7994 3.63245ZM26.3794 2.82949C26.4133 2.82959 26.4473 2.82969 26.4812 2.86637C26.4467 3.04915 26.4121 3.23193 26.3773 3.52444C26.1744 3.19464 26.3448 3.04884 26.3794 2.82949ZM26.0735 2.86516C26.2772 2.90234 26.2427 3.08512 26.1404 3.23112C26.0045 3.23071 25.8686 3.23031 25.6989 3.19323C25.7674 2.97397 25.8697 2.82797 26.0735 2.86516ZM25.5275 3.70479C25.4932 3.77784 25.493 3.88756 25.425 3.88736C24.9145 4.17845 24.4379 4.50623 23.9275 4.79732C24.3367 4.28646 25.2556 3.70398 25.5275 3.70479ZM23.0134 3.73388C23.1152 3.77077 23.1829 3.84412 23.2848 3.881C23.2846 3.91758 23.2845 3.95415 23.2505 3.95405C23.1826 3.95385 23.1486 3.95374 23.0808 3.91697C23.0129 3.88019 22.9791 3.84351 22.9453 3.77026C22.9793 3.77036 22.9794 3.73378 23.0134 3.73388ZM22.776 3.58687C22.7759 3.62345 22.7758 3.66003 22.7757 3.6966C22.6735 3.80603 22.5039 3.69579 22.3681 3.65882C22.504 3.65922 22.64 3.62304 22.776 3.58687ZM21.1563 34.1598C21.2924 34.0871 21.3605 34.0142 21.4626 33.9413C21.4964 34.0146 21.5303 34.0512 21.5302 34.0878C21.4619 34.1973 21.3939 34.2338 21.1563 34.1598ZM21.8649 1.53589C21.9665 1.60934 21.9665 1.64592 21.8636 1.97481C21.592 1.90084 21.1839 2.04593 21.0835 1.53356C21.3898 1.31501 21.6617 1.31582 21.8649 1.53589ZM19.9023 33.132C19.8346 33.0587 19.8007 33.022 19.7331 32.9487C19.7671 32.9121 19.8013 32.8391 19.8012 32.8757C19.869 32.9125 19.9368 32.9858 20.0045 33.0226L19.9023 33.132ZM19.8961 0.981381C19.8274 1.23722 19.6916 1.20023 19.556 1.0901C19.6581 1.05383 19.7601 1.01756 19.8961 0.981381ZM19.7594 1.23702C19.7591 1.34675 19.759 1.38332 19.7589 1.4199C19.6908 1.45626 19.5888 1.49254 19.5207 1.52891C19.5208 1.49234 19.487 1.45566 19.4871 1.41909C19.5552 1.38271 19.6233 1.30976 19.7594 1.23702ZM18.0282 0.756371C18.0282 0.756371 18.0623 0.719896 18.0622 0.756472L18.0961 0.793149C18.0619 0.866197 18.0617 0.939349 18.0274 1.0124C17.9936 1.0123 17.9935 1.0123 17.9596 1.0122C17.9938 0.902567 18.0281 0.829523 18.0282 0.756371ZM17.7564 0.792138C17.7902 0.828816 17.7899 0.938541 17.7559 0.938436C17.6197 1.04776 17.552 0.974409 17.4504 0.864381C17.5529 0.681803 17.6549 0.64553 17.7564 0.792138ZM15.747 2.46867C16.1556 2.1407 16.5305 1.73948 17.109 1.41201C17.0746 1.55822 17.0744 1.63137 17.0404 1.63126C16.7339 1.88639 16.3933 2.17799 16.053 2.39643C15.9848 2.46938 15.8489 2.46897 15.7469 2.50524C15.7129 2.50515 15.713 2.46857 15.747 2.46867ZM15.7128 2.54172C15.7126 2.61488 15.7124 2.68803 15.6784 2.68792C15.4741 2.83362 15.2699 2.94274 15.0658 3.05186C15.2024 2.79624 15.4068 2.61396 15.7128 2.54172ZM14.7265 2.90455C14.8287 2.79513 14.931 2.6857 15.0333 2.5397C14.9986 2.79563 14.9986 2.79563 14.7265 2.90455ZM2.45498 28.2154C2.31822 28.5077 2.21706 28.2513 2.08116 28.2509C2.18352 28.1049 2.28577 27.9955 2.45498 28.2154ZM1.64736 25.6162L1.7152 25.6529C1.71509 25.6895 1.6809 25.7625 1.64682 25.799C1.57898 25.7622 1.54512 25.7256 1.51114 25.7255C1.5792 25.689 1.61328 25.6526 1.64736 25.6162ZM45.4983 5.44672C45.5322 5.44682 45.5662 5.44692 45.6001 5.44702C45.6004 5.37387 45.5667 5.30062 45.5668 5.22746C45.5328 5.22736 45.5328 5.22736 45.4989 5.22726C45.4647 5.30031 45.4984 5.37357 45.4983 5.44672ZM55.8726 12.61C55.8387 12.5733 55.8389 12.5367 55.805 12.5C55.771 12.5 55.7369 12.5364 55.7029 12.5363C55.7368 12.573 55.7366 12.6095 55.7366 12.6095C55.8045 12.6463 55.8386 12.6099 55.8726 12.61ZM49.8105 6.19107C49.8107 6.15449 49.8107 6.15449 49.8105 6.19107C49.6747 6.19067 49.5727 6.19036 49.4368 6.18996C49.5727 6.19036 49.7087 6.19077 49.8105 6.19107Z" fill="#219653" fill-opacity="0.1"/>
</g>
<g clip-path="url(#clip1_550_574)">
<path d="M33.5397 21.2667H14.7397C14.5619 21.2667 14.4286 21.3333 14.3397 21.4667C14.2508 21.6 14.2063 21.7556 14.2063 21.9333C14.2063 22.1111 14.2508 22.2444 14.3397 22.3333C14.4286 22.4222 14.5619 22.4667 14.7397 22.4667H33.5397C33.7175 22.4667 33.873 22.4222 34.0063 22.3333C34.1397 22.2444 34.2063 22.1111 34.2063 21.9333C34.2063 21.7556 34.1397 21.6 34.0063 21.4667C33.873 21.3333 33.7175 21.2667 33.5397 21.2667ZM33.5397 16.2H14.7397C14.5619 16.2 14.4286 16.2667 14.3397 16.4C14.2508 16.5333 14.2063 16.6889 14.2063 16.8667C14.2063 17.0444 14.2508 17.2 14.3397 17.3333C14.4286 17.4667 14.5619 17.5333 14.7397 17.5333H33.5397C33.7175 17.5333 33.873 17.4667 34.0063 17.3333C34.1397 17.2 34.2063 17.0444 34.2063 16.8667C34.2063 16.6889 34.1397 16.5333 34.0063 16.4C33.873 16.2667 33.7175 16.2 33.5397 16.2ZM33.5397 26.2H14.7397C14.5619 26.2 14.4286 26.2667 14.3397 26.4C14.2508 26.5333 14.2063 26.6889 14.2063 26.8667C14.2063 27.0444 14.2508 27.2 14.3397 27.3333C14.4286 27.4667 14.5619 27.5333 14.7397 27.5333H33.5397C33.7175 27.5333 33.873 27.4667 34.0063 27.3333C34.1397 27.2 34.2063 27.0444 34.2063 26.8667C34.2063 26.6889 34.1397 26.5333 34.0063 26.4C33.873 26.2667 33.7175 26.2 33.5397 26.2ZM33.5397 31.2667H14.7397C14.5619 31.2667 14.4286 31.3333 14.3397 31.4667C14.2508 31.6 14.2063 31.7556 14.2063 31.9333C14.2063 32.1111 14.2508 32.2444 14.3397 32.3333C14.4286 32.4222 14.5619 32.4667 14.7397 32.4667H33.5397C33.7175 32.4667 33.873 32.4222 34.0063 32.3333C34.1397 32.2444 34.2063 32.1111 34.2063 31.9333C34.2063 31.7556 34.1397 31.6 34.0063 31.4667C33.873 31.3333 33.7175 31.2667 33.5397 31.2667ZM28.473 36.2H14.7397C14.5619 36.2 14.4286 36.2667 14.3397 36.4C14.2508 36.5333 14.2063 36.6889 14.2063 36.8667C14.2063 37.0444 14.2508 37.2 14.3397 37.3333C14.4286 37.4667 14.5619 37.5333 14.7397 37.5333H28.473C28.6508 37.5333 28.8063 37.4667 28.9397 37.3333C29.073 37.2 29.1397 37.0444 29.1397 36.8667C29.1397 36.6889 29.073 36.5333 28.9397 36.4C28.8063 36.2667 28.6508 36.2 28.473 36.2ZM39.0063 12.7333C38.9175 12.7333 37.6286 11.4889 35.1397 9L31.273 5.13333C31.1841 5.04444 30.8286 5 30.2063 5H12.2063C11.3175 5 10.5619 5.31111 9.93968 5.93333C9.31746 6.55555 9.00635 7.31111 9.00635 8.2V41.9333C9.00635 42.7333 9.31746 43.4444 9.93968 44.0667C10.5619 44.6889 11.3175 45 12.2063 45H35.9397C36.8286 45 37.5619 44.6889 38.1397 44.0667C38.7175 43.4444 39.0063 42.7333 39.0063 41.9333V14.2C39.0063 13.3111 39.0063 12.8667 39.0063 12.8667V12.7333ZM36.873 12.4667H31.5397V7.13333L36.873 12.4667ZM35.9397 43.8H12.2063C11.673 43.8 11.2286 43.6 10.873 43.2C10.5175 42.8 10.3397 42.3778 10.3397 41.9333V8.2C10.3397 7.66666 10.5175 7.2 10.873 6.8C11.2286 6.4 11.673 6.2 12.2063 6.2H30.3397V13.1333C30.3397 13.3111 30.4063 13.4667 30.5397 13.6C30.673 13.7333 30.8286 13.8 31.0063 13.8H37.8063V41.9333C37.8063 42.3778 37.6286 42.8 37.273 43.2C36.9175 43.6 36.473 43.8 35.9397 43.8Z" fill="#219653"/>
</g>
<defs>
<clipPath id="clip0_550_574">
<rect width="57.0732" height="36" fill="white" transform="translate(0.47998)"/>
</clipPath>
<clipPath id="clip1_550_574">
<rect width="40.02" height="40" fill="white" transform="matrix(1 0 0 -1 8.99658 45)"/>
</clipPath>
</defs>
</svg>
