<svg width="65" height="62" viewBox="0 0 65 62" fill="none" xmlns="http://www.w3.org/2000/svg">
<g clip-path="url(#clip0_550_558)">
<path d="M6.30982 32.5504C6.3097 32.5867 6.3097 32.5867 6.30982 32.5504ZM0.406731 27.6783C0.211917 28.0765 0.133177 28.475 0.441337 28.8744C0.363456 29.0192 0.2857 29.1278 0.169131 29.2724C-0.0253105 29.5619 0.0123942 29.852 0.127468 30.1422C0.165916 30.2148 0.320299 30.3239 0.359119 30.2878C0.707706 30.18 1.1715 30.3261 1.40489 29.9643C1.52084 30.0008 1.59809 30.0373 1.71404 30.0738C1.44184 30.4718 0.93787 30.7605 1.12946 31.3047C1.36148 31.3415 1.55482 31.3783 1.74827 31.3788C1.8636 31.5965 1.90167 31.7778 1.78498 31.9588C1.78473 32.0313 1.74567 32.1399 1.78424 32.1762C1.93838 32.3579 2.13121 32.5396 2.32417 32.6851C2.44 32.7579 2.63308 32.8671 2.74928 32.8312C3.67811 32.7611 4.64575 32.6548 5.57457 32.5847C5.80684 32.5491 6.03899 32.5497 6.27113 32.5503C6.23331 32.2965 6.42689 32.2607 6.62035 32.2612C6.65903 32.2613 6.69735 32.3702 6.77436 32.4791C6.61947 32.515 6.46458 32.5508 6.27101 32.5866C6.4259 32.5507 6.61947 32.515 6.77436 32.4791L7.62556 32.4813C7.43173 32.5896 7.35423 32.6256 7.23803 32.6615C7.31529 32.698 7.39255 32.7344 7.4698 32.7709C7.39106 33.1694 7.2735 33.604 7.6206 33.9311C7.30983 34.2928 7.23121 34.655 7.4233 35.0542C8.00379 35.0195 8.3907 35.0205 8.66116 35.1299C8.62222 35.2023 8.58329 35.2747 8.54435 35.3471C8.50529 35.4557 8.42766 35.528 8.38859 35.6366C8.27165 35.89 8.34854 36.0352 8.65794 36.0723C8.69663 36.0724 8.73532 36.0725 8.81271 36.0727C9.04485 36.0733 9.12186 36.1822 9.08243 36.3996C9.04336 36.5082 9.00418 36.6531 9.08144 36.6895C9.23558 36.8712 9.42829 37.0891 9.66006 37.1985C9.85315 37.3077 10.0853 37.3083 10.3176 37.2727C11.1691 37.1661 11.9821 37.0233 12.8338 36.8805C13.2597 36.8091 13.6858 36.6652 14.1105 36.92C14.1109 36.8113 14.1498 36.7389 14.15 36.7027C14.3437 36.6307 14.5759 36.595 14.7696 36.523C15.4669 36.2711 16.1642 36.0192 16.8617 35.7311C17.9464 35.3352 19.0312 34.903 20.116 34.4709C20.4259 34.363 20.7748 34.1826 21.0462 34.0021C21.3565 33.7855 21.705 33.7139 22.1307 33.6787C22.0916 33.7874 22.0914 33.8598 22.0526 33.896C21.897 34.1131 21.6642 34.3299 21.5472 34.5833C21.4302 34.873 21.429 35.1992 21.3892 35.5253C21.3495 35.8152 21.2712 36.1049 21.2315 36.3948C21.1923 36.5397 21.1917 36.7209 21.1912 36.8659C21.4618 36.9391 21.6938 36.9759 22.0031 37.0492C22.0025 37.2304 22.0018 37.4116 21.9625 37.5928C21.9231 37.8101 22 37.9553 22.1932 38.0283C22.4638 38.1015 22.4632 38.2827 22.4237 38.5001C22.4237 38.5001 22.4238 38.4638 22.4625 38.4639C22.54 38.4279 22.6175 38.3919 22.6564 38.3557C22.6562 38.392 22.6561 38.4282 22.656 38.4645C22.5786 38.4643 22.5012 38.464 22.4237 38.5001C22.4623 38.5364 22.5395 38.5729 22.5393 38.6454C22.6918 39.2982 23.1946 39.372 23.7362 39.3734C24.4328 39.3389 25.1294 39.3045 25.8259 39.2701C26.4451 39.2354 27.0651 38.9471 27.7226 39.0212C27.8387 39.0215 27.955 38.9494 28.0712 38.9134C28.0713 38.8772 28.0713 38.8772 28.0715 38.8409L27.7619 38.8401C27.7621 38.8039 27.7621 38.8039 27.7622 38.7676C28.072 38.6959 28.4205 38.5881 28.7303 38.5164C28.5751 38.661 28.3816 38.6605 28.3035 38.8778C28.4197 38.8418 28.4971 38.842 28.5746 38.806C29.1556 38.6263 29.7367 38.4103 30.2789 38.2305C30.705 38.0866 31.1313 37.9065 31.5189 37.69C32.2554 37.2932 33.1075 37.0417 33.8055 36.5723C33.9993 36.4641 34.1537 36.5732 34.153 36.7907C34.1526 36.8994 34.1136 37.0081 34.0745 37.1167L34.1132 37.1168C34.1912 36.9358 34.2691 36.791 34.3858 36.6101C34.4629 36.6828 34.54 36.7554 34.6172 36.8281C34.7724 36.6836 34.9278 36.5027 35.0444 36.3581C35.0827 36.4669 35.1209 36.612 35.0821 36.6481C34.8882 36.7563 35.0032 37.0829 34.7322 37.1184C34.7316 37.2996 34.7696 37.5172 34.7688 37.7347C34.924 37.6263 35.0404 37.5179 35.1957 37.3733C35.233 37.7721 35.0389 37.9528 34.8837 38.0974C34.9603 38.3151 35.0756 38.5328 35.1137 38.7142C35.1509 39.1492 35.1895 39.1856 35.6151 39.1867C35.7311 39.187 35.8473 39.151 36.0021 39.1514C36.1182 39.1517 36.2731 39.1159 36.3502 39.1886C36.6205 39.3342 36.8915 39.2987 37.2013 39.227C37.3563 39.1549 37.5113 39.0828 37.6662 39.047C37.8986 38.9751 38.1307 38.9757 38.3235 39.1574C38.3621 39.1938 38.517 39.1579 38.6329 39.1945C38.5948 39.0494 38.5563 38.9768 38.5179 38.9042C39.0993 38.5795 39.0993 38.5795 39.4463 38.9429C39.5238 38.9068 39.6013 38.8708 39.6788 38.8347C39.5247 38.6531 39.6796 38.6173 39.8345 38.5814C40.0667 38.5458 40.2608 38.365 40.4923 38.5469C40.5309 38.5832 40.6472 38.511 40.686 38.4749C40.9187 38.3305 41.1513 38.1861 41.384 38.0417C41.5003 37.9696 41.6167 37.8611 41.8101 37.8979C41.8873 37.9343 42.0036 37.8621 42.0811 37.8261C42.5462 37.6098 42.9725 37.3934 43.4375 37.1772C43.8251 36.997 44.251 36.8893 44.6001 36.6365C45.1432 36.2392 45.7246 35.9145 46.3061 35.5898C46.7325 35.3734 47.1589 35.1208 47.5854 34.8682C47.6242 34.8321 47.6629 34.8322 47.7403 34.8324C47.8177 34.8326 48.3984 34.7253 48.476 34.6531C48.67 34.5086 49.0182 34.5095 49.0193 34.1833C49.2899 34.2565 49.2521 34.0026 49.3298 33.8941C49.5622 33.8222 49.8331 33.8229 49.9882 33.7146C50.4148 33.4257 50.8028 33.1005 51.191 32.7391C51.4625 32.5223 51.657 32.2329 51.8901 31.9435C52.0455 31.7627 52.2008 31.6181 52.3946 31.5099C52.5497 31.4015 52.7047 31.3294 52.8599 31.2211C53.0538 31.0766 53.2479 30.8959 53.4418 30.7514C53.752 30.571 54.0236 30.3542 54.0249 29.9555C54.2959 29.92 54.5282 29.8844 54.4516 29.6304C54.6844 29.4498 54.8398 29.269 55.0337 29.1245C55.1501 29.0523 55.2664 28.9801 55.3441 28.8716C55.4606 28.7632 55.6931 28.655 55.6935 28.5463C55.6946 28.2201 56.0046 28.0759 56.1988 27.8589C56.6647 27.389 57.1691 26.9916 57.5963 26.5215C58.2562 25.8708 58.9163 25.1838 59.5764 24.4969C60.081 24.027 60.5855 23.5934 61.0901 23.1235C61.6335 22.6175 62.1383 22.0751 62.6819 21.5328C63.3802 20.9909 64.04 20.3765 64.6612 19.7619C64.5461 19.4717 64.4696 19.2177 64.4315 19.0364C64.2384 18.9272 64.0451 18.8904 64.0455 18.7817C64.046 18.6367 64.1625 18.492 64.2016 18.3834C63.8926 18.2376 63.6221 18.1282 63.3129 18.0187C63.2354 18.0547 63.0804 18.1268 62.9254 18.1989C62.888 17.8363 63.2362 17.8372 63.4303 17.6565C63.1984 17.5834 62.9661 17.6191 62.8117 17.5099C62.6573 17.4008 62.542 17.183 62.4263 17.074C62.1165 17.1457 61.8454 17.2175 61.5743 17.2893C61.4194 17.3251 61.2642 17.4697 61.1102 17.2518C61.1103 17.2156 60.9554 17.2514 60.8392 17.2873C60.7618 17.2871 60.6843 17.3232 60.6069 17.323C60.5691 17.0692 60.9948 17.034 60.8798 16.7438C60.7634 16.816 60.647 16.9244 60.5305 17.0328C60.4921 16.9602 60.4537 16.8877 60.4925 16.8515C60.6097 16.5256 60.6882 16.1996 60.844 15.8738C60.8829 15.8377 60.9991 15.8017 61.0379 15.7656C60.9997 15.6205 61.0002 15.4755 60.9618 15.3667C60.9623 15.2217 60.8851 15.1852 60.7302 15.2211C60.6528 15.2209 60.5753 15.2569 60.5753 15.2569C60.4215 14.9666 60.2675 14.7487 60.1521 14.5672C60.269 14.3138 60.3471 14.0965 60.4253 13.8793C60.1165 13.661 59.8464 13.4428 59.5763 13.2247C59.4989 13.2245 59.3827 13.2604 59.2665 13.2963C59.2668 13.2239 59.267 13.1514 59.2673 13.0789C59.4239 12.5356 59.3092 12.1366 58.7297 11.8814C58.6524 11.8449 58.4982 11.6996 58.537 11.6634C58.6539 11.41 58.422 11.3369 58.3064 11.1916C57.9213 10.6832 57.2253 10.5364 56.6825 10.8612C56.5662 10.9334 56.4114 10.933 56.2954 10.9327C56.1789 11.0412 56.0622 11.2221 55.9071 11.3304C55.752 11.4387 55.5198 11.4381 55.4429 11.293C55.3663 11.0753 55.173 11.0385 55.0185 10.9657C55.2518 10.6038 55.6766 10.8586 55.8706 10.6779C55.8326 10.4966 55.7944 10.3515 55.7561 10.2427C55.6397 10.3149 55.5621 10.3871 55.4459 10.4231C54.5545 10.8557 53.7403 11.361 53.0031 11.9753C51.5285 13.2401 50.0925 14.5411 48.6564 15.8422C48.5788 15.9145 48.5013 15.9506 48.4237 16.0229C48.3851 15.9865 48.3851 15.9865 48.3465 15.9502C48.4243 15.8416 48.5022 15.6969 48.5799 15.5883C49.2019 14.7201 49.8625 13.8882 50.4459 13.0198C50.8348 12.4409 51.185 11.8619 51.5353 11.2466C51.6909 10.9933 51.808 10.7036 51.7704 10.3773C51.6159 10.3044 51.5002 10.1954 51.3071 10.0862C51.462 10.0503 51.5395 10.0143 51.6945 9.94219C51.3468 9.79631 51.1536 9.72332 50.9218 9.61398L50.9233 9.17904C50.8072 9.17874 50.6912 9.17844 50.5751 9.17814C50.6921 8.88848 50.6921 8.88848 51.3114 8.81759C51.041 8.70816 50.8865 8.63527 50.6933 8.56228C50.8877 8.27282 50.6561 8.12724 50.3856 8.01781C50.1925 7.90857 49.9994 7.79933 49.845 7.6902C49.69 7.76229 49.535 7.83438 49.3413 7.90636C49.3424 7.58016 49.3433 7.32644 49.3442 7.07273C49.3453 6.74653 49.1526 6.52856 48.8825 6.31039C48.7668 6.20135 48.5734 6.16461 48.3802 6.09162C48.4193 5.98298 48.4584 5.87435 48.4974 5.76571C48.3814 5.76541 48.2653 5.76511 48.1491 5.80105C47.9191 5.18429 47.8805 5.14794 47.2226 5.18249C47.1839 5.18239 47.1065 5.18219 47.1067 5.14594C46.9912 4.96441 46.8749 5.03661 46.7199 5.1087C46.4486 5.25298 46.2159 5.39735 45.9445 5.57787C45.8674 5.46894 45.7516 5.39615 45.6746 5.28722C45.5203 5.14183 45.4048 4.99655 45.2505 4.85117C45.0179 4.99555 44.7855 5.06744 44.5915 5.21192C42.6524 6.54797 40.9061 8.06575 39.1598 9.58353C38.3835 10.3064 37.5685 11.0292 36.7923 11.7159C36.7147 11.7882 36.5985 11.8241 36.4434 11.9324C36.4054 11.7149 36.3672 11.5698 36.3677 11.4248C36.4073 11.1712 36.2917 11.0259 36.0598 10.9528C35.9439 10.9163 35.867 10.7711 35.7897 10.7347C35.7502 10.9883 35.7502 10.9883 35.3634 10.951C35.4423 10.5163 35.4824 10.0814 35.5614 9.61046C35.484 9.61026 35.4067 9.61006 35.3292 9.64611C35.2517 9.68215 35.174 9.75444 35.1355 9.71809C34.749 9.57211 34.4773 9.82513 34.1674 9.93306C34.0124 10.0051 33.896 10.1136 33.7412 10.1132C33.7808 9.85957 33.859 9.60605 33.8211 9.38849C33.7839 8.95345 33.8242 8.48236 33.7096 8.04712L33.7097 8.01088C33.7489 7.866 33.8267 7.75747 33.8659 7.61259C33.4407 7.4665 33.092 7.61058 32.8209 7.68237C32.6279 7.57313 32.4348 7.4639 32.2417 7.35466C32.3967 7.28257 32.5129 7.24663 32.5904 7.21058C32.4363 7.02896 32.2821 6.84734 32.1279 6.70196C32.0507 6.62927 31.8962 6.55638 31.7801 6.55608C31.6254 6.55567 31.4317 6.62766 31.2767 6.69975C30.7729 6.91592 30.2691 7.16833 29.7652 7.42074C29.689 7.09434 29.9996 6.76894 29.6136 6.51422C29.7686 6.44213 29.9236 6.37004 30.0399 6.29785C30.04 6.26161 30.0015 6.22526 30.0015 6.22526C29.6139 6.40549 29.2267 6.51322 28.8777 6.72979C28.1412 7.12658 27.4046 7.55961 26.7068 7.95651C26.4742 8.10088 26.2423 8.02779 26.1264 7.955C25.6634 7.59135 25.1605 7.5538 24.5416 7.51596C24.6594 7.00883 24.4676 6.53714 24.6241 6.03012C24.7802 5.63182 24.6261 5.4502 24.1619 5.41275C24.0458 5.41245 23.8912 5.37581 23.775 5.41175C23.6202 5.41135 23.5043 5.3748 23.3886 5.26577C23.1573 5.01145 22.926 4.75713 22.6946 4.53906C22.6175 4.46637 22.5015 4.42983 22.3855 4.42953C22.1532 4.46517 21.921 4.46457 21.6885 4.5727C21.4173 4.68074 21.1459 4.86126 20.8357 5.04169C20.9138 4.82441 20.953 4.67954 20.9923 4.49841C20.6047 4.71488 20.5644 5.18597 20.1766 5.43868C20.216 5.22131 20.294 5.04028 20.2948 4.82281C20.2954 4.64159 20.2186 4.46016 20.142 4.24249C20.3743 4.20685 20.6065 4.1712 20.8001 4.13546C20.5297 4.02603 20.5297 4.02603 20.2971 4.13416C19.8709 4.31428 19.4448 4.45816 19.0957 4.71097C18.1651 5.32473 17.2341 6.01099 16.3033 6.66099C16.1482 6.76932 15.9929 6.9139 15.7602 7.09453C15.9537 7.05878 16.0311 7.05898 16.1085 7.05918C16.2243 7.13197 16.3403 7.16852 16.4948 7.24141C16.417 7.34994 16.3392 7.49472 16.2227 7.60316C15.951 7.85617 15.5249 8.00005 15.4462 8.39854C15.446 8.43479 15.4074 8.43469 15.3687 8.43459C14.6319 8.90387 13.9336 9.44574 13.351 10.0966C13.1957 10.2775 13.1566 10.3861 13.1947 10.5674C13.9687 10.4969 14.0847 10.5335 14.2774 10.7514C14.0836 10.8597 13.7738 10.9314 13.6571 11.1123C13.5404 11.2932 13.4626 11.4018 13.2301 11.5099C13.0751 11.582 13.0358 11.7631 13.1514 11.9084C13.2283 12.0536 13.3833 11.9815 13.4996 11.9093C13.6546 11.8372 13.7711 11.7288 13.9259 11.6929C13.9648 11.6568 14.0806 11.7296 14.1193 11.7297C14.0803 11.8021 14.0801 11.8745 14.0413 11.9107C13.9636 11.983 13.8474 12.0189 13.7698 12.0912C13.6922 12.1635 13.5372 12.2356 13.5369 12.3081C13.5748 12.5619 13.3812 12.5976 13.2262 12.6697C13.1098 12.7419 12.9935 12.8141 12.8772 12.8863C12.954 13.0677 12.9922 13.2128 13.0304 13.3579C12.9915 13.394 12.9526 13.4664 12.9525 13.5027C10.895 15.4908 8.87641 17.4428 6.81898 19.431C5.92624 20.2623 5.0335 21.0936 4.17933 21.9613C3.79118 22.3227 3.4416 22.7205 3.24641 23.2275C3.16841 23.4085 3.05159 23.6256 2.89633 23.7702C2.31399 24.3486 1.69295 24.927 1.11061 25.5054C0.761151 25.8669 0.411812 26.1922 0.178054 26.6628C0.0999341 26.8801 0.0606259 27.0612 0.253464 27.2429C0.601924 27.1713 0.562492 27.3887 0.406731 27.6783ZM21.5027 36.2868C21.5793 36.5044 21.6561 36.6858 21.6942 36.8672C21.3071 36.9024 21.2686 36.8661 21.5027 36.2868ZM62.2306 17.7259C62.2307 17.6896 62.3469 17.6537 62.3857 17.6176C62.4242 17.6902 62.5013 17.7628 62.5012 17.7991C62.4621 17.9077 62.3844 18.0163 62.3067 18.0885C62.268 18.0884 62.2295 18.0521 62.2295 18.0521C62.2298 17.9434 62.1915 17.8345 62.2306 17.7259ZM60.1167 13.5885C59.9612 13.8056 60.27 14.0238 59.96 14.168C59.8446 13.9503 59.7292 13.7687 59.5752 13.5509C59.7686 13.5514 59.8846 13.5879 60.1167 13.5885ZM59.038 12.2446C59.0375 12.3896 59.0757 12.5347 59.0753 12.6434C59.0366 12.6433 58.9978 12.6795 58.9978 12.6795C58.9207 12.6068 58.8048 12.534 58.6504 12.4249C58.8054 12.3528 58.883 12.3167 59.038 12.2446ZM58.6488 12.896C58.803 13.0777 58.841 13.259 58.6472 13.3672C58.6085 13.3671 58.57 13.3308 58.5313 13.3307C58.5319 13.1495 58.6096 13.0409 58.6488 12.896ZM57.185 11.0075C57.4564 10.8632 57.8044 10.9004 58.0747 11.0823C57.8811 11.118 57.6875 11.1538 57.4938 11.2258C57.3001 11.2978 57.1064 11.3698 56.9513 11.4781C56.9127 11.4417 56.8741 11.4054 56.8356 11.3691C56.952 11.2606 57.03 11.0796 57.185 11.0075ZM53.8549 11.7963C53.9712 11.7241 54.0875 11.6519 54.1265 11.5795C54.3213 11.1813 54.7466 11.2549 55.1727 11.111C54.9393 11.4729 54.9377 11.9441 54.3193 11.7612C54.242 11.7248 54.1643 11.8333 54.0868 11.8694C53.6602 12.1582 53.2335 12.4833 52.8456 12.7723C52.807 12.7359 52.807 12.7359 52.7684 12.6996C53.1565 12.3744 53.5057 12.0853 53.8549 11.7963ZM49.9516 33.0983C49.9514 33.1708 49.9511 33.2433 49.951 33.2796C49.9117 33.4607 49.8345 33.388 49.6413 33.315C49.7578 33.2066 49.8353 33.1705 49.9516 33.0983ZM51.3835 10.3763C51.6147 10.6669 51.5751 10.9205 51.1091 11.4267C51.2263 11.1008 51.3049 10.7386 51.3835 10.3763ZM50.1532 8.08969C50.2306 8.08989 50.2689 8.19873 50.3462 8.23517C50.2687 8.27122 50.1909 8.37975 50.1522 8.37965C50.0363 8.34311 49.9591 8.27042 49.7659 8.19743C49.9596 8.12544 50.0371 8.08939 50.1532 8.08969ZM48.8425 6.67274C49.0747 6.67334 49.0354 6.85446 48.9961 7.03558L48.6479 7.03468C48.5325 6.81691 48.6104 6.67214 48.8425 6.67274ZM48.6076 7.50577L48.6462 7.50587C48.6073 7.57826 48.6069 7.68699 48.568 7.75938C48.5293 7.75928 48.5293 7.75928 48.4907 7.72294C48.5295 7.68679 48.5686 7.57816 48.6076 7.50577ZM47.2994 5.36391C47.2988 5.54514 47.337 5.69022 47.298 5.76261C47.1425 5.97967 46.91 6.08781 46.5232 6.05056C46.7949 5.79755 47.0277 5.61693 47.2994 5.36391ZM44.9007 5.32146C45.1718 5.24967 45.4039 5.25027 45.6749 5.21473C45.6744 5.35971 45.7126 5.50479 45.7119 5.68601C45.6732 5.68591 45.6344 5.72205 45.6344 5.72205C45.596 5.64946 45.5574 5.61312 45.4804 5.50419C45.4413 5.61282 45.4024 5.68521 45.3635 5.7576C45.0928 5.72065 44.8222 5.64746 44.5515 5.61052C44.5908 5.42939 44.7458 5.3573 44.9007 5.32146ZM44.7055 5.82839C44.6663 5.97327 44.7045 6.11834 44.627 6.15439C44.5105 6.26282 44.3941 6.37126 44.2392 6.4071C43.6968 6.62317 43.27 6.98452 42.8431 7.34586C42.6492 7.49034 42.4553 7.59858 42.2614 7.74305C42.2228 7.70671 42.2229 7.67047 42.1844 7.63412C42.999 7.02006 43.6978 6.33321 44.7055 5.82839ZM40.8647 8.86304C41.0981 8.50119 41.447 8.28463 41.8347 8.06816C41.6013 8.43001 41.2521 8.71906 40.8644 8.93553C40.8644 8.93553 40.8259 8.89918 40.8647 8.86304ZM40.8256 8.97168C40.7479 9.08021 40.6702 9.1525 40.5148 9.33332C40.6319 9.04367 40.6319 9.04367 40.8256 8.97168ZM36.1585 38.6806C35.9644 38.8614 35.9644 38.8614 35.6161 38.8967C35.6162 38.8605 35.5776 38.8241 35.5777 38.7879C35.7713 38.7521 35.9262 38.7163 36.1585 38.6806ZM36.0204 11.1702C36.0972 11.3516 36.0193 11.4964 35.8644 11.5322C35.6708 11.568 35.4775 11.5312 35.401 11.2773C35.6332 11.2417 35.8268 11.2059 36.0204 11.1702ZM32.9753 7.79151C33.1305 7.68317 33.3242 7.61118 33.4789 7.61159C33.6724 7.61209 33.6718 7.79331 33.71 7.93839C33.5159 8.11911 33.2836 8.15476 33.0517 8.08166C32.9359 8.00888 32.8591 7.82745 32.9753 7.79151ZM31.4811 37.4362C31.4423 37.4723 31.4036 37.4722 31.3649 37.4721C31.3262 37.472 31.2876 37.4357 31.2105 37.363C31.3267 37.327 31.3654 37.3271 31.4041 37.3272C31.4426 37.3636 31.4811 37.4362 31.4811 37.4362ZM31.3125 7.53348C31.3123 7.60597 31.3508 7.64232 31.3507 7.67856C31.2731 7.75085 31.1569 7.7868 31.0792 7.85909C31.0407 7.82274 31.0408 7.7865 31.0022 7.75015C31.0799 7.67786 31.1962 7.60567 31.3125 7.53348ZM30.242 37.7229C30.2808 37.6868 30.3581 37.7232 30.4743 37.6873C30.3965 37.7958 30.3577 37.832 30.3189 37.8681C30.2801 37.9043 30.2028 37.8678 30.0867 37.8675C30.1644 37.7952 30.2032 37.7591 30.242 37.7229ZM28.836 7.59957C28.8362 7.56332 28.8363 7.52707 28.8364 7.49083C28.9138 7.49103 28.9912 7.49123 29.0686 7.49143C29.0686 7.49143 29.0684 7.52767 29.0683 7.56392L28.836 7.59957ZM29.4965 6.80388C29.5352 6.80398 29.5739 6.80408 29.6125 6.84042C29.5732 7.02155 29.5338 7.20267 29.4942 7.49253C29.2631 7.16573 29.4571 7.02125 29.4965 6.80388ZM29.1482 6.83922C29.3802 6.87607 29.3409 7.05719 29.2243 7.20187C29.0696 7.20147 28.9148 7.20107 28.7215 7.16432C28.7996 6.94705 28.9161 6.80238 29.1482 6.83922ZM28.5263 7.67125C28.4873 7.74364 28.487 7.85238 28.4096 7.85218C27.8282 8.14063 27.2854 8.46544 26.7041 8.75389C27.1701 8.24767 28.2167 7.67045 28.5263 7.67125ZM25.663 7.70008C25.779 7.73663 25.8561 7.80932 25.9721 7.84587C25.9719 7.88211 25.9718 7.91835 25.9331 7.91825C25.8557 7.91805 25.817 7.91796 25.7398 7.88151C25.6625 7.84506 25.624 7.80872 25.5855 7.73613C25.6242 7.73623 25.6243 7.69998 25.663 7.70008ZM25.3927 7.5544C25.3926 7.59065 25.3924 7.62689 25.3923 7.66314C25.2759 7.77157 25.0828 7.66234 24.9281 7.62569C25.0829 7.62609 25.2378 7.59025 25.3927 7.5544ZM23.548 37.8506C23.703 37.7785 23.7806 37.7062 23.8969 37.634C23.9354 37.7066 23.974 37.743 23.9738 37.7792C23.8961 37.8877 23.8186 37.9238 23.548 37.8506ZM24.355 5.52198C24.4708 5.59477 24.4707 5.63102 24.3535 5.95693C24.0442 5.88363 23.5794 6.02741 23.4651 5.51968C23.814 5.30311 24.1236 5.30392 24.355 5.52198ZM22.1199 36.832C22.0428 36.7593 22.0042 36.723 21.9271 36.6503C21.9659 36.6142 22.0048 36.5418 22.0047 36.578C22.0819 36.6145 22.1591 36.6871 22.2363 36.7236L22.1199 36.832ZM22.1128 4.9725C22.0345 5.22602 21.8799 5.18937 21.7255 5.08024C21.8417 5.04429 21.9579 5.00835 22.1128 4.9725ZM21.9571 5.22582C21.9568 5.33455 21.9566 5.3708 21.9565 5.40704C21.879 5.44309 21.7628 5.47903 21.6853 5.51507C21.6854 5.47883 21.6469 5.44249 21.647 5.40624C21.7245 5.3702 21.8021 5.29791 21.9571 5.22582ZM19.9855 4.74952C19.9855 4.74952 20.0243 4.71338 20.0242 4.74962L20.0628 4.78596C20.0238 4.85835 20.0236 4.93084 19.9846 5.00324C19.9459 5.00314 19.9459 5.00314 19.9073 5.00304C19.9463 4.8944 19.9853 4.82201 19.9855 4.74952ZM19.6759 4.78496C19.7144 4.82131 19.7141 4.93004 19.6754 4.92994C19.5202 5.03828 19.4431 4.96559 19.3274 4.85655C19.4441 4.67563 19.5603 4.63969 19.6759 4.78496ZM17.3874 6.44632C17.8528 6.12132 18.2798 5.72373 18.9386 5.39923C18.8994 5.54411 18.8992 5.6166 18.8605 5.6165C18.5114 5.86931 18.1235 6.15827 17.7359 6.37474C17.6582 6.44703 17.5035 6.44663 17.3873 6.48257C17.3486 6.48247 17.3487 6.44622 17.3874 6.44632ZM17.3485 6.51871C17.3482 6.59121 17.348 6.6637 17.3093 6.6636C17.0766 6.80797 16.8441 6.91611 16.6116 7.02424C16.7672 6.77093 17 6.5903 17.3485 6.51871ZM16.2252 6.87826C16.3416 6.76982 16.4581 6.66139 16.5746 6.51671C16.5351 6.77033 16.5351 6.77033 16.2252 6.87826ZM2.24927 31.96C2.09352 32.2495 1.97831 31.9955 1.82355 31.9951C1.94011 31.8504 2.05656 31.742 2.24927 31.96ZM1.32949 29.3842L1.40675 29.4206C1.40662 29.4569 1.36768 29.5293 1.32887 29.5654C1.25161 29.529 1.21304 29.4926 1.17435 29.4925C1.25186 29.4565 1.29067 29.4203 1.32949 29.3842ZM51.2708 9.39741C51.3095 9.39751 51.3482 9.39761 51.3868 9.39771C51.3871 9.32522 51.3487 9.25263 51.3489 9.18014C51.3102 9.18004 51.3102 9.18004 51.2715 9.17994C51.2326 9.25233 51.271 9.32492 51.2708 9.39741ZM63.086 16.4958C63.0474 16.4594 63.0476 16.4232 63.009 16.3868C62.9703 16.3867 62.9315 16.4229 62.8928 16.4228C62.9314 16.4591 62.9312 16.4954 62.9312 16.4954C63.0085 16.5318 63.0473 16.4957 63.086 16.4958ZM56.182 10.135C56.1822 10.0988 56.1822 10.0988 56.182 10.135C56.0273 10.1346 55.9112 10.1343 55.7564 10.1339C55.9112 10.1343 56.066 10.1347 56.182 10.135Z" fill="#9B51E0" fill-opacity="0.1"/>
</g>
<g clip-path="url(#clip1_550_558)">
<path d="M26.7389 21.8951L18.3863 33.6388L9.44578 34.0902L22.7253 14.3074L46.5037 12.7926L33.2991 32.7059L20.1966 33.4663L27.8607 22.639L26.7389 21.8951ZM20.5176 42.4818C20.7675 42.9168 20.8278 43.374 20.6983 43.8534C20.5688 44.3328 20.2866 44.6976 19.8516 44.9475C19.4167 45.1975 18.9812 45.2452 18.5453 45.0908C18.1093 44.9363 17.7664 44.6416 17.5164 44.2066C17.2664 43.7717 17.1844 43.327 17.2704 42.8725C17.3564 42.4181 17.6169 42.0658 18.0518 41.8159C18.4868 41.5659 18.944 41.5057 19.4234 41.6351C19.9029 41.7646 20.2676 42.0468 20.5176 42.4818ZM18.0293 40.2665C17.5444 40.4295 17.1529 40.6545 16.855 40.9415L15.2051 38.0708L18.3863 33.6388L20.1966 33.4663L16.8295 38.1788L18.0293 40.2665ZM18.8662 46.5553C19.4512 46.5663 20.0046 46.4219 20.5266 46.1219C21.0485 45.8219 21.452 45.4165 21.7369 44.9055L28.2357 53.4951L23.1468 56.4198L18.8662 46.5553ZM20.891 34.9766L34.1241 34.1412L42.8651 20.9592L48.5645 30.8761L48.3785 31.1565C45.8268 35.979 42.5501 39.5401 38.5486 41.8399C34.547 44.1396 29.8205 45.178 24.3691 44.955L24.0332 44.9745L19.3837 36.8844L20.891 34.9766Z" fill="#9B51E0"/>
</g>
<defs>
<clipPath id="clip0_550_558">
<rect width="65" height="36" fill="white" transform="translate(0 4)"/>
</clipPath>
<clipPath id="clip1_550_558">
<rect width="45.17" height="45.15" fill="white" transform="translate(61.6606 39.1455) rotate(150.113)"/>
</clipPath>
</defs>
</svg>
