<svg width="65" height="49" viewBox="0 0 65 49" fill="none" xmlns="http://www.w3.org/2000/svg">
<g clip-path="url(#clip0_550_573)">
<path d="M6.30982 29.0504C6.3097 29.0867 6.3097 29.0867 6.30982 29.0504ZM0.406731 24.1783C0.211917 24.5765 0.133177 24.975 0.441337 25.3744C0.363456 25.5192 0.2857 25.6278 0.169131 25.7724C-0.0253105 26.0619 0.0123942 26.352 0.127468 26.6422C0.165916 26.7148 0.320299 26.8239 0.359119 26.7878C0.707706 26.68 1.1715 26.8261 1.40489 26.4643C1.52084 26.5008 1.59809 26.5373 1.71404 26.5738C1.44184 26.9718 0.93787 27.2605 1.12946 27.8047C1.36148 27.8415 1.55482 27.8783 1.74827 27.8788C1.8636 28.0965 1.90167 28.2778 1.78498 28.4588C1.78473 28.5313 1.74567 28.6399 1.78424 28.6762C1.93838 28.8579 2.13121 29.0396 2.32417 29.1851C2.44 29.2579 2.63308 29.3671 2.74928 29.3312C3.67811 29.2611 4.64575 29.1548 5.57457 29.0847C5.80684 29.0491 6.03899 29.0497 6.27113 29.0503C6.23331 28.7965 6.42689 28.7607 6.62035 28.7612C6.65903 28.7613 6.69735 28.8702 6.77436 28.9791C6.61947 29.015 6.46458 29.0508 6.27101 29.0866C6.4259 29.0507 6.61947 29.015 6.77436 28.9791L7.62556 28.9813C7.43173 29.0896 7.35423 29.1256 7.23803 29.1615C7.31529 29.198 7.39255 29.2344 7.4698 29.2709C7.39106 29.6694 7.2735 30.104 7.6206 30.4311C7.30983 30.7928 7.23121 31.155 7.4233 31.5542C8.00379 31.5195 8.3907 31.5205 8.66116 31.6299C8.62222 31.7023 8.58329 31.7747 8.54435 31.8471C8.50529 31.9557 8.42766 32.028 8.38859 32.1366C8.27165 32.39 8.34854 32.5352 8.65794 32.5723C8.69663 32.5724 8.73532 32.5725 8.81271 32.5727C9.04485 32.5733 9.12186 32.6822 9.08243 32.8996C9.04336 33.0082 9.00418 33.1531 9.08144 33.1895C9.23558 33.3712 9.42829 33.5891 9.66006 33.6985C9.85315 33.8077 10.0853 33.8083 10.3176 33.7727C11.1691 33.6661 11.9821 33.5233 12.8338 33.3805C13.2597 33.3091 13.6858 33.1652 14.1105 33.42C14.1109 33.3113 14.1498 33.2389 14.15 33.2027C14.3437 33.1307 14.5759 33.095 14.7696 33.023C15.4669 32.7711 16.1642 32.5192 16.8617 32.2311C17.9464 31.8352 19.0312 31.403 20.116 30.9709C20.4259 30.863 20.7748 30.6826 21.0462 30.5021C21.3565 30.2855 21.705 30.2139 22.1307 30.1787C22.0916 30.2874 22.0914 30.3598 22.0526 30.396C21.897 30.6131 21.6642 30.8299 21.5472 31.0833C21.4302 31.373 21.429 31.6992 21.3892 32.0253C21.3495 32.3152 21.2712 32.6049 21.2315 32.8948C21.1923 33.0397 21.1917 33.2209 21.1912 33.3659C21.4618 33.4391 21.6938 33.4759 22.0031 33.5492C22.0025 33.7304 22.0018 33.9116 21.9625 34.0928C21.9231 34.3101 22 34.4553 22.1932 34.5283C22.4638 34.6015 22.4632 34.7827 22.4237 35.0001C22.4237 35.0001 22.4238 34.9638 22.4625 34.9639C22.54 34.9279 22.6175 34.8919 22.6564 34.8557C22.6562 34.892 22.6561 34.9282 22.656 34.9645C22.5786 34.9643 22.5012 34.964 22.4237 35.0001C22.4623 35.0364 22.5395 35.0729 22.5393 35.1454C22.6918 35.7982 23.1946 35.872 23.7362 35.8734C24.4328 35.8389 25.1294 35.8045 25.8259 35.7701C26.4451 35.7354 27.0651 35.4471 27.7226 35.5212C27.8387 35.5215 27.955 35.4494 28.0712 35.4134C28.0713 35.3772 28.0713 35.3772 28.0715 35.3409L27.7619 35.3401C27.7621 35.3039 27.7621 35.3039 27.7622 35.2676C28.072 35.1959 28.4205 35.0881 28.7303 35.0164C28.5751 35.161 28.3816 35.1605 28.3035 35.3778C28.4197 35.3418 28.4971 35.342 28.5746 35.306C29.1556 35.1263 29.7367 34.9103 30.2789 34.7305C30.705 34.5866 31.1313 34.4065 31.5189 34.19C32.2554 33.7932 33.1075 33.5417 33.8055 33.0723C33.9993 32.9641 34.1537 33.0732 34.153 33.2907C34.1526 33.3994 34.1136 33.5081 34.0745 33.6167L34.1132 33.6168C34.1912 33.4358 34.2691 33.291 34.3858 33.1101C34.4629 33.1828 34.54 33.2554 34.6172 33.3281C34.7724 33.1836 34.9278 33.0027 35.0444 32.8581C35.0827 32.9669 35.1209 33.112 35.0821 33.1481C34.8882 33.2563 35.0032 33.5829 34.7322 33.6184C34.7316 33.7996 34.7696 34.0172 34.7688 34.2347C34.924 34.1263 35.0404 34.0179 35.1957 33.8733C35.233 34.2721 35.0389 34.4528 34.8837 34.5974C34.9603 34.8151 35.0756 35.0328 35.1137 35.2142C35.1509 35.6492 35.1895 35.6856 35.6151 35.6867C35.7311 35.687 35.8473 35.651 36.0021 35.6514C36.1182 35.6517 36.2731 35.6159 36.3502 35.6886C36.6205 35.8342 36.8915 35.7987 37.2013 35.727C37.3563 35.6549 37.5113 35.5828 37.6662 35.547C37.8986 35.4751 38.1307 35.4757 38.3235 35.6574C38.3621 35.6938 38.517 35.6579 38.6329 35.6945C38.5948 35.5494 38.5563 35.4768 38.5179 35.4042C39.0993 35.0795 39.0993 35.0795 39.4463 35.4429C39.5238 35.4068 39.6013 35.3708 39.6788 35.3347C39.5247 35.1531 39.6796 35.1173 39.8345 35.0814C40.0667 35.0458 40.2608 34.865 40.4923 35.0469C40.5309 35.0832 40.6472 35.011 40.686 34.9749C40.9187 34.8305 41.1513 34.6861 41.384 34.5417C41.5003 34.4696 41.6167 34.3611 41.8101 34.3979C41.8873 34.4343 42.0036 34.3621 42.0811 34.3261C42.5462 34.1098 42.9725 33.8934 43.4375 33.6772C43.8251 33.497 44.251 33.3893 44.6001 33.1365C45.1432 32.7392 45.7246 32.4145 46.3061 32.0898C46.7325 31.8734 47.1589 31.6208 47.5854 31.3682C47.6242 31.3321 47.6629 31.3322 47.7403 31.3324C47.8177 31.3326 48.3984 31.2253 48.476 31.1531C48.67 31.0086 49.0182 31.0095 49.0193 30.6833C49.2899 30.7565 49.2521 30.5026 49.3298 30.3941C49.5622 30.3222 49.8331 30.3229 49.9882 30.2146C50.4148 29.9257 50.8028 29.6005 51.191 29.2391C51.4625 29.0223 51.657 28.7329 51.8901 28.4435C52.0455 28.2627 52.2008 28.1181 52.3946 28.0099C52.5497 27.9015 52.7047 27.8294 52.8599 27.7211C53.0538 27.5766 53.2479 27.3959 53.4418 27.2514C53.752 27.071 54.0236 26.8542 54.0249 26.4555C54.2959 26.42 54.5282 26.3844 54.4516 26.1304C54.6844 25.9498 54.8398 25.769 55.0337 25.6245C55.1501 25.5523 55.2664 25.4801 55.3441 25.3716C55.4606 25.2632 55.6931 25.155 55.6935 25.0463C55.6946 24.7201 56.0046 24.5759 56.1988 24.3589C56.6647 23.889 57.1691 23.4916 57.5963 23.0215C58.2562 22.3708 58.9163 21.6838 59.5764 20.9969C60.081 20.527 60.5855 20.0934 61.0901 19.6235C61.6335 19.1175 62.1383 18.5751 62.6819 18.0328C63.3802 17.4909 64.04 16.8765 64.6612 16.2619C64.5461 15.9717 64.4696 15.7177 64.4315 15.5364C64.2384 15.4272 64.0451 15.3904 64.0455 15.2817C64.046 15.1367 64.1625 14.992 64.2016 14.8834C63.8926 14.7376 63.6221 14.6282 63.3129 14.5187C63.2354 14.5547 63.0804 14.6268 62.9254 14.6989C62.888 14.3363 63.2362 14.3372 63.4303 14.1565C63.1984 14.0834 62.9661 14.1191 62.8117 14.0099C62.6573 13.9008 62.542 13.683 62.4263 13.574C62.1165 13.6457 61.8454 13.7175 61.5743 13.7893C61.4194 13.8251 61.2642 13.9697 61.1102 13.7518C61.1103 13.7156 60.9554 13.7514 60.8392 13.7873C60.7618 13.7871 60.6843 13.8232 60.6069 13.823C60.5691 13.5692 60.9948 13.534 60.8798 13.2438C60.7634 13.316 60.647 13.4244 60.5305 13.5328C60.4921 13.4602 60.4537 13.3877 60.4925 13.3515C60.6097 13.0256 60.6882 12.6996 60.844 12.3738C60.8829 12.3377 60.9991 12.3017 61.0379 12.2656C60.9997 12.1205 61.0002 11.9755 60.9618 11.8667C60.9623 11.7217 60.8851 11.6852 60.7302 11.7211C60.6528 11.7209 60.5753 11.7569 60.5753 11.7569C60.4215 11.4666 60.2675 11.2487 60.1521 11.0672C60.269 10.8138 60.3471 10.5965 60.4253 10.3793C60.1165 10.161 59.8464 9.94283 59.5763 9.72466C59.4989 9.72446 59.3827 9.76041 59.2665 9.79635C59.2668 9.72386 59.267 9.65137 59.2673 9.57888C59.4239 9.03561 59.3092 8.63662 58.7297 8.3814C58.6524 8.34495 58.4982 8.19957 58.537 8.16343C58.6539 7.91001 58.422 7.83692 58.3064 7.69164C57.9213 7.18321 57.2253 7.03643 56.6825 7.36123C56.5662 7.43342 56.4114 7.43302 56.2954 7.43272C56.1789 7.54116 56.0622 7.72208 55.9071 7.83041C55.752 7.93875 55.5198 7.93815 55.4429 7.79297C55.3663 7.5753 55.173 7.53855 55.0185 7.46566C55.2518 7.10381 55.6766 7.35863 55.8706 7.1779C55.8326 6.99658 55.7944 6.8515 55.7561 6.74267C55.6397 6.81486 55.5621 6.88715 55.4459 6.92309C54.5545 7.35572 53.7403 7.86105 53.0031 8.47531C51.5285 9.74007 50.0925 11.0411 48.6564 12.3422C48.5788 12.4145 48.5013 12.4506 48.4237 12.5229C48.3851 12.4865 48.3851 12.4865 48.3465 12.4502C48.4243 12.3416 48.5022 12.1969 48.5799 12.0883C49.2019 11.2201 49.8625 10.3882 50.4459 9.5198C50.8348 8.94088 51.185 8.36187 51.5353 7.7466C51.6909 7.49329 51.808 7.20363 51.7704 6.87733C51.6159 6.80444 51.5002 6.6954 51.3071 6.58617C51.462 6.55032 51.5395 6.51428 51.6945 6.44219C51.3468 6.29631 51.1536 6.22332 50.9218 6.11398L50.9233 5.67904C50.8072 5.67874 50.6912 5.67844 50.5751 5.67814C50.6921 5.38848 50.6921 5.38848 51.3114 5.31759C51.041 5.20816 50.8865 5.13527 50.6933 5.06228C50.8877 4.77282 50.6561 4.62724 50.3856 4.51781C50.1925 4.40857 49.9994 4.29933 49.845 4.1902C49.69 4.26229 49.535 4.33438 49.3413 4.40636C49.3424 4.08016 49.3433 3.82644 49.3442 3.57273C49.3453 3.24653 49.1526 3.02856 48.8825 2.81039C48.7668 2.70135 48.5734 2.66461 48.3802 2.59162C48.4193 2.48298 48.4584 2.37435 48.4974 2.26571C48.3814 2.26541 48.2653 2.26511 48.1491 2.30105C47.9191 1.68429 47.8805 1.64794 47.2226 1.68249C47.1839 1.68239 47.1065 1.68219 47.1067 1.64594C46.9912 1.46441 46.8749 1.53661 46.7199 1.6087C46.4486 1.75298 46.2159 1.89735 45.9445 2.07787C45.8674 1.96894 45.7516 1.89615 45.6746 1.78722C45.5203 1.64183 45.4048 1.49655 45.2505 1.35117C45.0179 1.49555 44.7855 1.56744 44.5915 1.71192C42.6524 3.04797 40.9061 4.56575 39.1598 6.08353C38.3835 6.80643 37.5685 7.52922 36.7923 8.21587C36.7147 8.28816 36.5985 8.32411 36.4434 8.43244C36.4054 8.21487 36.3672 8.06979 36.3677 7.92481C36.4073 7.6712 36.2917 7.52592 36.0598 7.45283C35.9439 7.41628 35.867 7.2711 35.7897 7.23466C35.7502 7.48827 35.7502 7.48827 35.3634 7.45102C35.4423 7.01629 35.4824 6.58145 35.5614 6.11046C35.484 6.11026 35.4067 6.11006 35.3292 6.14611C35.2517 6.18215 35.174 6.25444 35.1355 6.21809C34.749 6.07211 34.4773 6.32513 34.1674 6.43306C34.0124 6.50515 33.896 6.61358 33.7412 6.61318C33.7808 6.35957 33.859 6.10605 33.8211 5.88849C33.7839 5.45345 33.8242 4.98236 33.7096 4.54712L33.7097 4.51088C33.7489 4.366 33.8267 4.25747 33.8659 4.11259C33.4407 3.9665 33.092 4.11058 32.8209 4.18237C32.6279 4.07313 32.4348 3.9639 32.2417 3.85466C32.3967 3.78257 32.5129 3.74663 32.5904 3.71058C32.4363 3.52896 32.2821 3.34734 32.1279 3.20196C32.0507 3.12927 31.8962 3.05638 31.7801 3.05608C31.6254 3.05567 31.4317 3.12766 31.2767 3.19975C30.7729 3.41592 30.2691 3.66833 29.7652 3.92074C29.689 3.59434 29.9996 3.26894 29.6136 3.01422C29.7686 2.94213 29.9236 2.87004 30.0399 2.79785C30.04 2.76161 30.0015 2.72526 30.0015 2.72526C29.6139 2.90549 29.2267 3.01322 28.8777 3.22979C28.1412 3.62658 27.4046 4.05961 26.7068 4.45651C26.4742 4.60088 26.2423 4.52779 26.1264 4.455C25.6634 4.09135 25.1605 4.0538 24.5416 4.01596C24.6594 3.50883 24.4676 3.03714 24.6241 2.53012C24.7802 2.13182 24.6261 1.9502 24.1619 1.91275C24.0458 1.91245 23.8912 1.87581 23.775 1.91175C23.6202 1.91135 23.5043 1.8748 23.3886 1.76577C23.1573 1.51145 22.926 1.25713 22.6946 1.03906C22.6175 0.966374 22.5015 0.929826 22.3855 0.929526C22.1532 0.965172 21.921 0.964571 21.6885 1.0727C21.4173 1.18074 21.1459 1.36126 20.8357 1.54169C20.9138 1.32441 20.953 1.17954 20.9923 0.99841C20.6047 1.21488 20.5644 1.68597 20.1766 1.93868C20.216 1.72131 20.294 1.54028 20.2948 1.32281C20.2954 1.14159 20.2186 0.960164 20.142 0.742492C20.3743 0.706846 20.6065 0.671204 20.8001 0.635462C20.5297 0.526027 20.5297 0.526027 20.2971 0.63416C19.8709 0.814282 19.4448 0.95816 19.0957 1.21097C18.1651 1.82473 17.2341 2.51099 16.3033 3.16099C16.1482 3.26932 15.9929 3.4139 15.7602 3.59453C15.9537 3.55878 16.0311 3.55898 16.1085 3.55918C16.2243 3.63197 16.3403 3.66852 16.4948 3.74141C16.417 3.84994 16.3392 3.99472 16.2227 4.10316C15.951 4.35617 15.5249 4.50005 15.4462 4.89854C15.446 4.93479 15.4074 4.93469 15.3687 4.93459C14.6319 5.40387 13.9336 5.94574 13.351 6.59664C13.1957 6.77747 13.1566 6.8861 13.1947 7.06743C13.9687 6.99694 14.0847 7.03348 14.2774 7.25145C14.0836 7.35969 13.7738 7.43138 13.6571 7.6123C13.5404 7.79323 13.4626 7.90176 13.2301 8.00989C13.0751 8.08198 13.0358 8.26311 13.1514 8.40839C13.2283 8.55357 13.3833 8.48148 13.4996 8.40929C13.6546 8.3372 13.7711 8.22877 13.9259 8.19292C13.9648 8.15678 14.0806 8.22957 14.1193 8.22967C14.0803 8.30206 14.0801 8.37455 14.0413 8.41069C13.9636 8.48298 13.8474 8.51893 13.7698 8.59122C13.6922 8.66351 13.5372 8.73559 13.5369 8.80808C13.5748 9.0619 13.3812 9.09764 13.2262 9.16973C13.1098 9.24192 12.9935 9.31411 12.8772 9.3863C12.954 9.56772 12.9922 9.7128 13.0304 9.85789C12.9915 9.89403 12.9526 9.96642 12.9525 10.0027C10.895 11.9908 8.87641 13.9428 6.81898 15.931C5.92624 16.7623 5.0335 17.5936 4.17933 18.4613C3.79118 18.8227 3.4416 19.2205 3.24641 19.7275C3.16841 19.9085 3.05159 20.1256 2.89633 20.2702C2.31399 20.8486 1.69295 21.427 1.11061 22.0054C0.761151 22.3669 0.411812 22.6922 0.178054 23.1628C0.0999341 23.3801 0.0606259 23.5612 0.253464 23.7429C0.601924 23.6713 0.562492 23.8887 0.406731 24.1783ZM21.5027 32.7868C21.5793 33.0044 21.6561 33.1858 21.6942 33.3672C21.3071 33.4024 21.2686 33.3661 21.5027 32.7868ZM62.2306 14.2259C62.2307 14.1896 62.3469 14.1537 62.3857 14.1176C62.4242 14.1902 62.5013 14.2628 62.5012 14.2991C62.4621 14.4077 62.3844 14.5163 62.3067 14.5885C62.268 14.5884 62.2295 14.5521 62.2295 14.5521C62.2298 14.4434 62.1915 14.3345 62.2306 14.2259ZM60.1167 10.0885C59.9612 10.3056 60.27 10.5238 59.96 10.668C59.8446 10.4503 59.7292 10.2687 59.5752 10.0509C59.7686 10.0514 59.8846 10.0879 60.1167 10.0885ZM59.038 8.74465C59.0375 8.88963 59.0757 9.03471 59.0753 9.14344C59.0366 9.14334 58.9978 9.17949 58.9978 9.17949C58.9207 9.1068 58.8048 9.03401 58.6504 8.92487C58.8054 8.85278 58.883 8.81674 59.038 8.74465ZM58.6488 9.39605C58.803 9.57768 58.841 9.75901 58.6472 9.86724C58.6085 9.86714 58.57 9.83079 58.5313 9.83069C58.5319 9.64947 58.6096 9.54093 58.6488 9.39605ZM57.185 7.50751C57.4564 7.36324 57.8044 7.40038 58.0747 7.58231C57.8811 7.61805 57.6875 7.65379 57.4938 7.72578C57.3001 7.79777 57.1064 7.86976 56.9513 7.9781C56.9127 7.94175 56.8741 7.90541 56.8356 7.86906C56.952 7.76063 57.03 7.5796 57.185 7.50751ZM53.8549 8.29629C53.9712 8.2241 54.0875 8.15191 54.1265 8.07952C54.3213 7.68133 54.7466 7.75492 55.1727 7.61104C54.9393 7.97289 54.9377 8.44407 54.3193 8.26124C54.242 8.2248 54.1643 8.33334 54.0868 8.36938C53.6602 8.65824 53.2335 8.98334 52.8456 9.2723C52.807 9.23595 52.807 9.23595 52.7684 9.19961C53.1565 8.8744 53.5057 8.58534 53.8549 8.29629ZM49.9516 29.5983C49.9514 29.6708 49.9511 29.7433 49.951 29.7796C49.9117 29.9607 49.8345 29.888 49.6413 29.815C49.7578 29.7066 49.8353 29.6705 49.9516 29.5983ZM51.3835 6.87633C51.6147 7.16689 51.5751 7.4205 51.1091 7.92673C51.2263 7.60082 51.3049 7.23858 51.3835 6.87633ZM50.1532 4.58969C50.2306 4.58989 50.2689 4.69873 50.3462 4.73517C50.2687 4.77122 50.1909 4.87975 50.1522 4.87965C50.0363 4.84311 49.9591 4.77042 49.7659 4.69743C49.9596 4.62544 50.0371 4.58939 50.1532 4.58969ZM48.8425 3.17274C49.0747 3.17334 49.0354 3.35446 48.9961 3.53558L48.6479 3.53468C48.5325 3.31691 48.6104 3.17214 48.8425 3.17274ZM48.6076 4.00577L48.6462 4.00587C48.6073 4.07826 48.6069 4.18699 48.568 4.25938C48.5293 4.25928 48.5293 4.25928 48.4907 4.22294C48.5295 4.18679 48.5686 4.07816 48.6076 4.00577ZM47.2994 1.86391C47.2988 2.04514 47.337 2.19022 47.298 2.26261C47.1425 2.47967 46.91 2.58781 46.5232 2.55056C46.7949 2.29755 47.0277 2.11693 47.2994 1.86391ZM44.9007 1.82146C45.1718 1.74967 45.4039 1.75027 45.6749 1.71473C45.6744 1.85971 45.7126 2.00479 45.7119 2.18601C45.6732 2.18591 45.6344 2.22205 45.6344 2.22205C45.596 2.14946 45.5574 2.11312 45.4804 2.00419C45.4413 2.11282 45.4024 2.18521 45.3635 2.2576C45.0928 2.22065 44.8222 2.14746 44.5515 2.11052C44.5908 1.92939 44.7458 1.8573 44.9007 1.82146ZM44.7055 2.32839C44.6663 2.47327 44.7045 2.61834 44.627 2.65439C44.5105 2.76282 44.3941 2.87126 44.2392 2.9071C43.6968 3.12317 43.27 3.48452 42.8431 3.84586C42.6492 3.99034 42.4553 4.09858 42.2614 4.24305C42.2228 4.20671 42.2229 4.17047 42.1844 4.13412C42.999 3.52006 43.6978 2.83321 44.7055 2.32839ZM40.8647 5.36304C41.0981 5.00119 41.447 4.78463 41.8347 4.56816C41.6013 4.93001 41.2521 5.21906 40.8644 5.43553C40.8644 5.43553 40.8259 5.39918 40.8647 5.36304ZM40.8256 5.47168C40.7479 5.58021 40.6702 5.6525 40.5148 5.83332C40.6319 5.54367 40.6319 5.54367 40.8256 5.47168ZM36.1585 35.1806C35.9644 35.3614 35.9644 35.3614 35.6161 35.3967C35.6162 35.3605 35.5776 35.3241 35.5777 35.2879C35.7713 35.2521 35.9262 35.2163 36.1585 35.1806ZM36.0204 7.67019C36.0972 7.85162 36.0193 7.9964 35.8644 8.03224C35.6708 8.06799 35.4775 8.03124 35.401 7.77733C35.6332 7.74168 35.8268 7.70594 36.0204 7.67019ZM32.9753 4.29151C33.1305 4.18317 33.3242 4.11118 33.4789 4.11159C33.6724 4.11209 33.6718 4.29331 33.71 4.43839C33.5159 4.61911 33.2836 4.65476 33.0517 4.58166C32.9359 4.50888 32.8591 4.32745 32.9753 4.29151ZM31.4811 33.9362C31.4423 33.9723 31.4036 33.9722 31.3649 33.9721C31.3262 33.972 31.2876 33.9357 31.2105 33.863C31.3267 33.827 31.3654 33.8271 31.4041 33.8272C31.4426 33.8636 31.4811 33.9362 31.4811 33.9362ZM31.3125 4.03348C31.3123 4.10597 31.3508 4.14232 31.3507 4.17856C31.2731 4.25085 31.1569 4.2868 31.0792 4.35909C31.0407 4.32274 31.0408 4.2865 31.0022 4.25015C31.0799 4.17786 31.1962 4.10567 31.3125 4.03348ZM30.242 34.2229C30.2808 34.1868 30.3581 34.2232 30.4743 34.1873C30.3965 34.2958 30.3577 34.332 30.3189 34.3681C30.2801 34.4043 30.2028 34.3678 30.0867 34.3675C30.1644 34.2952 30.2032 34.2591 30.242 34.2229ZM28.836 4.09957C28.8362 4.06332 28.8363 4.02707 28.8364 3.99083C28.9138 3.99103 28.9912 3.99123 29.0686 3.99143C29.0686 3.99143 29.0684 4.02767 29.0683 4.06392L28.836 4.09957ZM29.4965 3.30388C29.5352 3.30398 29.5739 3.30408 29.6125 3.34042C29.5732 3.52155 29.5338 3.70267 29.4942 3.99253C29.2631 3.66573 29.4571 3.52125 29.4965 3.30388ZM29.1482 3.33922C29.3802 3.37607 29.3409 3.55719 29.2243 3.70187C29.0696 3.70147 28.9148 3.70107 28.7215 3.66432C28.7996 3.44705 28.9161 3.30238 29.1482 3.33922ZM28.5263 4.17125C28.4873 4.24364 28.487 4.35238 28.4096 4.35218C27.8282 4.64063 27.2854 4.96544 26.7041 5.25389C27.1701 4.74767 28.2167 4.17045 28.5263 4.17125ZM25.663 4.20008C25.779 4.23663 25.8561 4.30932 25.9721 4.34587C25.9719 4.38211 25.9718 4.41835 25.9331 4.41825C25.8557 4.41805 25.817 4.41796 25.7398 4.38151C25.6625 4.34506 25.624 4.30872 25.5855 4.23613C25.6242 4.23623 25.6243 4.19998 25.663 4.20008ZM25.3927 4.0544C25.3926 4.09065 25.3924 4.12689 25.3923 4.16314C25.2759 4.27157 25.0828 4.16234 24.9281 4.12569C25.0829 4.12609 25.2378 4.09025 25.3927 4.0544ZM23.548 34.3506C23.703 34.2785 23.7806 34.2062 23.8969 34.134C23.9354 34.2066 23.974 34.243 23.9738 34.2792C23.8961 34.3877 23.8186 34.4238 23.548 34.3506ZM24.355 2.02198C24.4708 2.09477 24.4707 2.13102 24.3535 2.45693C24.0442 2.38363 23.5794 2.52741 23.4651 2.01968C23.814 1.80311 24.1236 1.80392 24.355 2.02198ZM22.1199 33.332C22.0428 33.2593 22.0042 33.223 21.9271 33.1503C21.9659 33.1142 22.0048 33.0418 22.0047 33.078C22.0819 33.1145 22.1591 33.1871 22.2363 33.2236L22.1199 33.332ZM22.1128 1.4725C22.0345 1.72602 21.8799 1.68937 21.7255 1.58024C21.8417 1.54429 21.9579 1.50835 22.1128 1.4725ZM21.9571 1.72582C21.9568 1.83455 21.9566 1.8708 21.9565 1.90704C21.879 1.94309 21.7628 1.97903 21.6853 2.01507C21.6854 1.97883 21.6469 1.94249 21.647 1.90624C21.7245 1.8702 21.8021 1.79791 21.9571 1.72582ZM19.9855 1.24952C19.9855 1.24952 20.0243 1.21338 20.0242 1.24962L20.0628 1.28596C20.0238 1.35835 20.0236 1.43084 19.9846 1.50324C19.9459 1.50314 19.9459 1.50314 19.9073 1.50304C19.9463 1.3944 19.9853 1.32201 19.9855 1.24952ZM19.6759 1.28496C19.7144 1.32131 19.7141 1.43004 19.6754 1.42994C19.5202 1.53828 19.4431 1.46559 19.3274 1.35655C19.4441 1.17563 19.5603 1.13969 19.6759 1.28496ZM17.3874 2.94632C17.8528 2.62132 18.2798 2.22373 18.9386 1.89923C18.8994 2.04411 18.8992 2.1166 18.8605 2.1165C18.5114 2.36931 18.1235 2.65827 17.7359 2.87474C17.6582 2.94703 17.5035 2.94663 17.3873 2.98257C17.3486 2.98247 17.3487 2.94622 17.3874 2.94632ZM17.3485 3.01871C17.3482 3.09121 17.348 3.1637 17.3093 3.1636C17.0766 3.30797 16.8441 3.41611 16.6116 3.52424C16.7672 3.27093 17 3.0903 17.3485 3.01871ZM16.2252 3.37826C16.3416 3.26982 16.4581 3.16139 16.5746 3.01671C16.5351 3.27033 16.5351 3.27033 16.2252 3.37826ZM2.24927 28.46C2.09352 28.7495 1.97831 28.4955 1.82355 28.4951C1.94011 28.3504 2.05656 28.242 2.24927 28.46ZM1.32949 25.8842L1.40675 25.9206C1.40662 25.9569 1.36768 26.0293 1.32887 26.0654C1.25161 26.029 1.21304 25.9926 1.17435 25.9925C1.25186 25.9565 1.29067 25.9203 1.32949 25.8842ZM51.2708 5.89741C51.3095 5.89751 51.3482 5.89761 51.3868 5.89771C51.3871 5.82522 51.3487 5.75263 51.3489 5.68014C51.3102 5.68004 51.3102 5.68004 51.2715 5.67994C51.2326 5.75233 51.271 5.82492 51.2708 5.89741ZM63.086 12.9958C63.0474 12.9594 63.0476 12.9232 63.009 12.8868C62.9703 12.8867 62.9315 12.9229 62.8928 12.9228C62.9314 12.9591 62.9312 12.9954 62.9312 12.9954C63.0085 13.0318 63.0473 12.9957 63.086 12.9958ZM56.182 6.63503C56.1822 6.59879 56.1822 6.59879 56.182 6.63503C56.0273 6.63463 55.9112 6.63433 55.7564 6.63393C55.9112 6.63433 56.066 6.63473 56.182 6.63503Z" fill="#2494E4" fill-opacity="0.1"/>
</g>
<g clip-path="url(#clip1_550_573)">
<path d="M39.5131 38.7533C39.322 38.7533 39.1547 38.825 39.0114 38.9683C38.8681 39.1117 38.7964 39.3028 38.7964 39.5417C38.7964 39.7806 38.8681 39.9956 39.0114 40.1867C39.1547 40.3778 39.3459 40.4733 39.5847 40.4733C39.8236 40.4733 40.0147 40.3778 40.1581 40.1867C40.3014 39.9956 40.3731 39.7806 40.3731 39.5417C40.3731 39.3028 40.3014 39.1117 40.1581 38.9683C40.0147 38.825 39.7997 38.7533 39.5131 38.7533ZM41.6631 36.03L37.6497 34.74L36.2164 31.8733C37.5542 30.44 38.3664 28.8156 38.6531 27L38.9397 25.8533H40.3731C41.1375 25.8533 41.7586 25.6144 42.2364 25.1367C42.7142 24.6589 42.9531 24.0856 42.9531 23.4167V18.1133C42.9531 15.82 42.3797 13.7178 41.2331 11.8067C40.0864 9.89556 38.5575 8.36667 36.6464 7.22C34.7353 6.07333 32.6331 5.5 30.3397 5.5C28.0464 5.5 25.9442 6.07333 24.0331 7.22C22.122 8.36667 20.5931 9.89556 19.4464 11.8067C18.2997 13.7178 17.7264 15.82 17.7264 18.1133V23.4167C17.7264 23.8944 17.8936 24.3722 18.2281 24.85C18.5625 25.3278 18.9686 25.6144 19.4464 25.71V26.7133C19.4464 27.4778 19.6853 28.0989 20.1631 28.5767C20.6409 29.0544 21.2142 29.2933 21.8831 29.2933H22.7431C23.0297 30.0578 23.4597 30.7744 24.0331 31.4433L24.4631 31.8733L23.0297 34.74L19.0164 36.03C16.7231 36.7944 14.812 38.2756 13.2831 40.4733C11.7542 42.6711 10.9897 45.06 10.9897 47.64C10.9897 47.9267 11.0853 48.1417 11.2764 48.285C11.4675 48.4283 11.6586 48.5 11.8497 48.5H48.8297C49.0209 48.5 49.212 48.4283 49.4031 48.285C49.5942 48.1417 49.6897 47.9267 49.6897 47.64C49.6897 45.06 48.9253 42.6711 47.3964 40.4733C45.8675 38.2756 43.9564 36.7944 41.6631 36.03ZM41.2331 23.4167C41.2331 23.6078 41.1614 23.7989 41.0181 23.99C40.8747 24.1811 40.6597 24.2767 40.3731 24.2767H39.0831C39.3697 22.5567 39.5131 20.8367 39.5131 19.1167V18.9733H41.2331V23.4167ZM20.3064 24.2767C20.0197 24.2767 19.8047 24.1811 19.6614 23.99C19.5181 23.7989 19.4464 23.6078 19.4464 23.4167V18.9733H21.1664V19.26C21.1664 20.8844 21.3097 22.5567 21.5964 24.2767H20.3064ZM21.8831 27.5733C21.692 27.5733 21.5247 27.5017 21.3814 27.3583C21.2381 27.215 21.1664 27 21.1664 26.7133V25.8533H21.7397L22.0264 27.5733H21.8831ZM21.1664 17.2533H19.4464C19.6375 15.4378 20.2109 13.7417 21.1664 12.165C22.122 10.5883 23.412 9.37 25.0364 8.51C26.6609 7.65 28.4286 7.22 30.3397 7.22C32.2509 7.22 33.9947 7.65 35.5714 8.51C37.1481 9.37 38.4381 10.5883 39.4414 12.165C40.4447 13.7417 41.042 15.4378 41.2331 17.2533H39.5131C39.5131 15.7244 39.1309 14.315 38.3664 13.025C37.602 11.735 36.5747 10.7078 35.2847 9.94333C33.9947 9.17889 32.5853 8.79667 31.0564 8.79667H29.6231C28.0942 8.79667 26.6847 9.17889 25.3947 9.94333C24.1047 10.7078 23.0775 11.735 22.3131 13.025C21.5486 14.315 21.1664 15.7244 21.1664 17.2533ZM29.6231 10.5167H31.0564C32.9675 10.5167 34.592 11.1856 35.9297 12.5233C37.2675 13.8611 37.9364 15.4856 37.9364 17.3967V18.1133L36.7897 17.97C33.8275 17.4922 31.2953 16.2022 29.1931 14.1C29.0975 14.0044 28.9064 13.9567 28.6197 13.9567C27.4731 13.9567 26.3981 14.1956 25.3947 14.6733C24.3914 15.1511 23.5553 15.82 22.8864 16.68C22.982 14.96 23.6747 13.5028 24.9647 12.3083C26.2547 11.1139 27.8075 10.5167 29.6231 10.5167ZM23.8897 27.5733C23.6031 26.9044 23.3642 25.71 23.1731 23.99C22.982 22.27 22.8864 20.7411 22.8864 19.4033L23.8897 17.97C24.4631 17.2056 25.132 16.6322 25.8964 16.25C26.6609 15.8678 27.4731 15.6289 28.3331 15.5333C30.6264 17.8267 33.3975 19.1644 36.6464 19.5467L37.7931 19.8333C37.6975 21.5533 37.5542 23.2256 37.3631 24.85L37.0764 26.7133C36.7897 28.0511 36.1925 29.2694 35.2847 30.3683C34.377 31.4672 33.3259 32.16 32.1314 32.4467C30.937 32.7333 29.7664 32.7333 28.6197 32.4467C26.8997 31.9689 25.562 30.9178 24.6064 29.2933H26.3264C26.5175 29.7711 26.8281 30.1772 27.2581 30.5117C27.6881 30.8461 28.142 31.0133 28.6197 31.0133H30.3397C31.0086 31.0133 31.6059 30.7506 32.1314 30.225C32.657 29.6994 32.9197 29.1022 32.9197 28.4333C32.9197 27.7644 32.657 27.1672 32.1314 26.6417C31.6059 26.1161 31.0086 25.8533 30.3397 25.8533H28.6197C28.142 25.8533 27.6881 26.0206 27.2581 26.355C26.8281 26.6894 26.5175 27.0956 26.3264 27.5733H23.8897ZM28.6197 34.1667C29.1931 34.2622 29.7425 34.31 30.2681 34.31C30.7936 34.31 31.2953 34.2622 31.7731 34.1667L30.1964 35.7433L28.6197 34.1667ZM29.0497 37.0333L26.4697 39.7567C25.7053 38.4189 25.0364 36.9856 24.4631 35.4567L25.4664 33.45L29.0497 37.0333ZM35.0697 33.1633L36.2164 35.4567C35.6431 36.9856 34.9742 38.4189 34.2097 39.7567L31.4864 37.0333L35.0697 33.1633ZM27.7597 28.4333C27.7597 28.2422 27.8553 28.0511 28.0464 27.86C28.2375 27.6689 28.4286 27.5733 28.6197 27.5733H30.3397C30.5309 27.5733 30.722 27.6689 30.9131 27.86C31.1042 28.0511 31.1997 28.2422 31.1997 28.4333C31.1997 28.6244 31.1042 28.8156 30.9131 29.0067C30.722 29.1978 30.5309 29.2933 30.3397 29.2933H28.6197C28.4286 29.2933 28.2375 29.1978 28.0464 29.0067C27.8553 28.8156 27.7597 28.6244 27.7597 28.4333ZM12.7097 46.78C12.9009 44.6778 13.6175 42.7906 14.8597 41.1183C16.102 39.4461 17.6786 38.2756 19.5897 37.6067L23.0297 36.46C23.6986 38.2756 24.5109 39.9956 25.4664 41.62C26.1353 42.8622 26.8997 44.0567 27.7597 45.2033L28.7631 46.78H12.7097ZM30.3397 46.0633L29.1931 44.2C28.5242 43.2444 27.9031 42.2889 27.3297 41.3333L30.1964 38.18L33.3497 41.3333C32.7764 42.2889 32.1553 43.2444 31.4864 44.2L30.3397 46.0633ZM31.9164 46.78L32.9197 45.2033C33.7797 44.0567 34.5442 42.8622 35.2131 41.62C36.1686 39.9956 36.9809 38.2756 37.6497 36.46L41.0897 37.6067C43.0009 38.2756 44.5775 39.4461 45.8197 41.1183C47.062 42.7906 47.7786 44.6778 47.9697 46.78H31.9164ZM45.3897 43.4833C44.8164 42.3367 44.052 41.3333 43.0964 40.4733C42.9053 40.3778 42.6903 40.3539 42.4514 40.4017C42.2125 40.4494 42.0214 40.545 41.8781 40.6883C41.7347 40.8317 41.687 41.0228 41.7347 41.2617C41.7825 41.5006 41.8542 41.7156 41.9497 41.9067C42.8097 42.48 43.4786 43.2444 43.9564 44.2C44.052 44.3911 44.1953 44.5344 44.3864 44.63C44.5775 44.7256 44.7925 44.7017 45.0314 44.5583C45.2703 44.415 45.4136 44.2478 45.4614 44.0567C45.5092 43.8656 45.4853 43.6744 45.3897 43.4833Z" fill="#2494E4"/>
</g>
<defs>
<clipPath id="clip0_550_573">
<rect width="65" height="36" fill="white" transform="translate(0 0.5)"/>
</clipPath>
<clipPath id="clip1_550_573">
<rect width="43.02" height="43" fill="white" transform="matrix(1 0 0 -1 10.98 48.5)"/>
</clipPath>
</defs>
</svg>
