<svg width="65" height="45" viewBox="0 0 65 45" fill="none" xmlns="http://www.w3.org/2000/svg">
<g clip-path="url(#clip0_550_577)">
<path d="M9.50373 28.8113C9.50363 28.8478 9.50363 28.8478 9.50373 28.8113ZM4.32053 23.8947C4.14948 24.2964 4.08033 24.6986 4.35092 25.1017C4.28254 25.2478 4.21426 25.3574 4.11191 25.5033C3.94118 25.7955 3.97428 26.0882 4.07533 26.3811C4.10909 26.4543 4.24464 26.5644 4.27873 26.528C4.58481 26.4191 4.99205 26.5666 5.19697 26.2015C5.29878 26.2384 5.36661 26.2752 5.46842 26.3121C5.22941 26.7137 4.7869 27.005 4.95513 27.5541C5.15885 27.5913 5.32861 27.6284 5.49847 27.6289C5.59974 27.8487 5.63316 28.0317 5.5307 28.2142C5.53048 28.2874 5.49619 28.397 5.53005 28.4336C5.6654 28.617 5.83471 28.8003 6.00414 28.9471C6.10584 29.0206 6.27538 29.1308 6.37741 29.0945C7.19296 29.0239 8.04259 28.9167 8.85815 28.8459C9.06209 28.81 9.26593 28.8106 9.46976 28.8112C9.43656 28.5551 9.60653 28.519 9.77639 28.5194C9.81037 28.5196 9.844 28.6294 9.91162 28.7393C9.77563 28.7755 9.63963 28.8116 9.46966 28.8477C9.60565 28.8115 9.77563 28.7755 9.91162 28.7393L10.659 28.7416C10.4888 28.8508 10.4208 28.8871 10.3187 28.9234C10.3866 28.9602 10.4544 28.997 10.5223 29.0338C10.4531 29.4358 10.3499 29.8745 10.6547 30.2046C10.3818 30.5696 10.3128 30.9351 10.4814 31.338C10.9911 31.3028 11.3308 31.3039 11.5683 31.4143C11.5341 31.4874 11.5 31.5605 11.4658 31.6335C11.4315 31.7431 11.3633 31.8161 11.329 31.9256C11.2263 32.1814 11.2938 32.328 11.5655 32.3653C11.5995 32.3654 11.6335 32.3655 11.7014 32.3657C11.9052 32.3663 11.9728 32.4763 11.9382 32.6956C11.9039 32.8053 11.8695 32.9515 11.9373 32.9882C12.0727 33.1715 12.2419 33.3915 12.4454 33.5018C12.6149 33.612 12.8188 33.6126 13.0227 33.5766C13.7704 33.4692 14.4843 33.325 15.2321 33.1809C15.6061 33.1088 15.9802 32.9637 16.3531 33.2208C16.3534 33.1111 16.3876 33.038 16.3878 33.0014C16.5579 32.9288 16.7617 32.8928 16.9318 32.8202C17.5441 32.566 18.1563 32.3117 18.7688 32.021C19.7212 31.6215 20.6737 31.1854 21.6262 30.7493C21.8983 30.6403 22.2047 30.4584 22.443 30.2762C22.7154 30.0576 23.0214 29.9853 23.3952 29.9499C23.3609 30.0595 23.3607 30.1327 23.3266 30.1691C23.19 30.3882 22.9856 30.6071 22.8829 30.8628C22.7801 31.1551 22.7791 31.4842 22.7441 31.8133C22.7093 32.1058 22.6405 32.3983 22.6057 32.6908C22.5713 32.837 22.5707 33.0199 22.5703 33.1661C22.8079 33.24 23.0116 33.2772 23.2832 33.3511C23.2827 33.534 23.282 33.7169 23.2475 33.8997C23.2129 34.119 23.2805 34.2655 23.4501 34.3392C23.6877 34.4131 23.6872 34.596 23.6525 34.8153C23.6525 34.8153 23.6526 34.7787 23.6866 34.7789C23.7546 34.7424 23.8227 34.7061 23.8568 34.6696C23.8566 34.7062 23.8565 34.7428 23.8565 34.7793C23.7885 34.7791 23.7205 34.7789 23.6525 34.8153C23.6864 34.852 23.7542 34.8888 23.754 34.9619C23.8879 35.6206 24.3294 35.6952 24.8049 35.6966C25.4166 35.6618 26.0282 35.6271 26.6398 35.5923C27.1835 35.5573 27.7279 35.2663 28.3052 35.3412C28.4071 35.3415 28.5092 35.2686 28.6113 35.2324C28.6114 35.1958 28.6114 35.1958 28.6115 35.1592L28.3397 35.1584C28.3399 35.1218 28.3399 35.1218 28.34 35.0853C28.612 35.0129 28.918 34.9042 29.19 34.8318C29.0537 34.9776 28.8838 34.9772 28.8152 35.1965C28.9173 35.1602 28.9852 35.1604 29.0533 35.124C29.5634 34.9426 30.0737 34.7247 30.5498 34.5432C30.9239 34.398 31.2982 34.2163 31.6385 33.9978C32.2852 33.5974 33.0334 33.3436 33.6463 32.8699C33.8164 32.7607 33.952 32.8709 33.9514 33.0903C33.951 33.2 33.9168 33.3096 33.8825 33.4193L33.9164 33.4194C33.9849 33.2367 34.0533 33.0905 34.1558 32.908C34.2235 32.9813 34.2912 33.0547 34.359 33.128C34.4952 32.9822 34.6317 32.7997 34.7341 32.6537C34.7677 32.7636 34.8012 32.9099 34.7672 32.9464C34.5969 33.0556 34.6979 33.3851 34.46 33.421C34.4594 33.6039 34.4928 33.8235 34.4921 34.0429C34.6284 33.9336 34.7306 33.8242 34.8669 33.6782C34.8997 34.0806 34.7293 34.263 34.593 34.4089C34.6602 34.6286 34.7615 34.8483 34.7949 35.0313C34.8276 35.4703 34.8615 35.507 35.2352 35.5082C35.337 35.5084 35.4391 35.4722 35.575 35.4726C35.6769 35.4729 35.8129 35.4367 35.8806 35.5101C36.118 35.6571 36.3559 35.6212 36.6279 35.5488C36.764 35.4761 36.9001 35.4033 37.0361 35.3671C37.2402 35.2946 37.444 35.2952 37.6133 35.4787C37.6472 35.5153 37.7832 35.4791 37.885 35.516C37.8515 35.3696 37.8177 35.2964 37.784 35.2231C38.2945 34.8955 38.2945 34.8955 38.5992 35.2621C38.6672 35.2257 38.7353 35.1893 38.8033 35.153C38.668 34.9697 38.804 34.9336 38.94 34.8974C39.1439 34.8614 39.3143 34.679 39.5176 34.8625C39.5515 34.8991 39.6536 34.8264 39.6877 34.7898C39.892 34.6442 40.0962 34.4985 40.3006 34.3527C40.4027 34.2799 40.5049 34.1705 40.6747 34.2076C40.7425 34.2444 40.8446 34.1715 40.9126 34.1352C41.321 33.9169 41.6953 33.6985 42.1036 33.4803C42.444 33.2985 42.8179 33.1899 43.1245 32.9347C43.6013 32.5338 44.1118 32.2061 44.6224 31.8784C44.9968 31.6601 45.3712 31.4051 45.7457 31.1502C45.7798 31.1138 45.8137 31.1139 45.8817 31.1141C45.9497 31.1143 46.4595 31.0061 46.5277 30.9331C46.698 30.7873 47.0038 30.7882 47.0047 30.459C47.2423 30.5329 47.2091 30.2767 47.2774 30.1673C47.4814 30.0947 47.7193 30.0954 47.8555 29.9861C48.23 29.6946 48.5707 29.3664 48.9116 29.0016C49.15 28.7829 49.3208 28.4908 49.5254 28.1988C49.6619 28.0163 49.7982 27.8705 49.9684 27.7612C50.1046 27.6519 50.2407 27.5791 50.377 27.4698C50.5472 27.324 50.7176 27.1417 50.8879 26.9958C51.1603 26.8138 51.3987 26.595 51.3999 26.1927C51.6378 26.1569 51.8418 26.1209 51.7745 25.8646C51.979 25.6824 52.1154 25.4999 52.2857 25.3541C52.3879 25.2812 52.49 25.2084 52.5582 25.0988C52.6605 24.9894 52.8646 24.8803 52.865 24.7706C52.866 24.4414 53.1382 24.2959 53.3087 24.0769C53.7178 23.6027 54.1606 23.2016 54.5357 22.7273C55.1152 22.0706 55.6948 21.3774 56.2744 20.6842C56.7174 20.21 57.1604 19.7724 57.6035 19.2982C58.0806 18.7876 58.5238 18.2403 59.0012 17.693C59.6143 17.1462 60.1936 16.5262 60.7391 15.906C60.638 15.6131 60.5708 15.3568 60.5374 15.1738C60.3678 15.0636 60.1981 15.0265 60.1985 14.9168C60.1989 14.7705 60.3012 14.6245 60.3355 14.5148C60.0642 14.3677 59.8267 14.2573 59.5552 14.1467C59.4872 14.1832 59.3511 14.2559 59.215 14.3287C59.1821 13.9628 59.4879 13.9637 59.6583 13.7813C59.4547 13.7075 59.2507 13.7435 59.1151 13.6334C58.9796 13.5232 58.8783 13.3035 58.7767 13.1934C58.5047 13.2658 58.2667 13.3382 58.0286 13.4107C57.8926 13.4468 57.7563 13.5928 57.6211 13.3729C57.6212 13.3363 57.4852 13.3725 57.3832 13.4088C57.3152 13.4086 57.2472 13.4449 57.1792 13.4447C57.146 13.1886 57.5198 13.1531 57.4188 12.8602C57.3166 12.9331 57.2144 13.0425 57.1121 13.1519C57.0784 13.0787 57.0447 13.0054 57.0788 12.9689C57.1817 12.6401 57.2506 12.3111 57.3874 11.9823C57.4215 11.9458 57.5236 11.9095 57.5576 11.8731C57.5241 11.7267 57.5245 11.5804 57.4908 11.4705C57.4913 11.3242 57.4235 11.2875 57.2875 11.3236C57.2195 11.3235 57.1515 11.3598 57.1515 11.3598C57.0164 11.0668 56.8812 10.8469 56.7799 10.6638C56.8825 10.408 56.9511 10.1887 57.0197 9.9695C56.7486 9.74929 56.5114 9.52907 56.2743 9.30895C56.2063 9.30877 56.1043 9.34503 56.0023 9.3813C56.0025 9.30815 56.0027 9.23493 56.003 9.16178C56.1405 8.61358 56.0398 8.21095 55.5309 7.9534C55.4631 7.91661 55.3277 7.76991 55.3617 7.73344C55.4644 7.4777 55.2608 7.40394 55.1592 7.25734C54.8211 6.74426 54.21 6.59613 53.7334 6.92391C53.6313 6.99675 53.4953 6.99636 53.3935 6.99605C53.2912 7.10547 53.1887 7.28805 53.0525 7.39738C52.9164 7.5067 52.7125 7.50609 52.645 7.35959C52.5777 7.13993 52.408 7.10285 52.2723 7.02928C52.4772 6.66414 52.8502 6.92128 53.0205 6.73891C52.9871 6.55592 52.9536 6.40952 52.92 6.29969C52.8178 6.37254 52.7496 6.44549 52.6476 6.48176C51.8649 6.91835 51.15 7.42829 50.5027 8.04816C49.2079 9.32449 47.947 10.6375 46.6861 11.9505C46.6179 12.0234 46.5499 12.0598 46.4818 12.1327C46.4479 12.096 46.4479 12.096 46.414 12.0594C46.4823 11.9499 46.5507 11.8037 46.6189 11.6943C47.1651 10.818 47.7451 9.97855 48.2573 9.10216C48.5988 8.51799 48.9063 7.93368 49.2139 7.3128C49.3505 7.05717 49.4533 6.76487 49.4203 6.43558C49.2847 6.36203 49.1831 6.25199 49.0135 6.14176C49.1495 6.10559 49.2176 6.06922 49.3537 5.99647C49.0484 5.84926 48.8787 5.7756 48.6752 5.66526L48.6765 5.22635C48.5746 5.22604 48.4727 5.22575 48.3708 5.22544C48.4735 4.93314 48.4735 4.93314 49.0173 4.8616C48.7799 4.75117 48.6442 4.67762 48.4746 4.60396C48.6453 4.31186 48.4419 4.16494 48.2044 4.05451C48.0349 3.94427 47.8653 3.83404 47.7297 3.72391C47.5936 3.79665 47.4575 3.8694 47.2875 3.94205C47.2884 3.61287 47.2892 3.35683 47.29 3.1008C47.291 2.77162 47.1218 2.55166 46.8846 2.33149C46.783 2.22146 46.6132 2.18438 46.4436 2.11072C46.4779 2.00109 46.5122 1.89146 46.5465 1.78184C46.4446 1.78154 46.3427 1.78123 46.2406 1.8175C46.0386 1.19511 46.0048 1.15843 45.4271 1.19329C45.3932 1.19318 45.3252 1.19298 45.3254 1.15641C45.224 0.973224 45.1218 1.04608 44.9857 1.11882C44.7474 1.26442 44.5432 1.41011 44.3049 1.59228C44.2372 1.48236 44.1355 1.4089 44.0679 1.29897C43.9324 1.15227 43.831 1.00566 43.6955 0.858949C43.4913 1.00464 43.2872 1.07719 43.1169 1.22299C41.4143 2.57125 39.8809 4.10289 38.3476 5.63454C37.666 6.36403 36.9504 7.09343 36.2688 7.78636C36.2007 7.8593 36.0987 7.89558 35.9625 8.0049C35.9291 7.78535 35.8956 7.63894 35.896 7.49263C35.9308 7.23671 35.8293 7.0901 35.6256 7.01633C35.5239 6.97946 35.4564 6.83295 35.3885 6.79618C35.3538 7.05211 35.3538 7.05211 35.0142 7.01452C35.0835 6.57581 35.1187 6.13699 35.188 5.66171C35.1201 5.66151 35.0522 5.66131 34.9841 5.69768C34.9161 5.73406 34.8479 5.80701 34.8141 5.77033C34.4747 5.62301 34.2361 5.87834 33.964 5.98726C33.8279 6.06001 33.7257 6.16943 33.5898 6.16903C33.6246 5.91309 33.6932 5.65726 33.66 5.43771C33.6273 4.99869 33.6627 4.52331 33.5621 4.08409L33.5621 4.04752C33.5966 3.90131 33.6649 3.79179 33.6993 3.64558C33.326 3.49817 33.0198 3.64356 32.7817 3.716C32.6123 3.60577 32.4427 3.49554 32.2732 3.3853C32.4093 3.31256 32.5113 3.27628 32.5793 3.23992C32.444 3.05663 32.3086 2.87335 32.1732 2.72663C32.1055 2.65328 31.9698 2.57973 31.8679 2.57942C31.732 2.57902 31.562 2.65167 31.4259 2.72441C30.9835 2.94256 30.5411 3.19728 30.0987 3.45199C30.0318 3.12261 30.3045 2.79423 29.9656 2.53719C30.1017 2.46444 30.2378 2.39169 30.3399 2.31884C30.34 2.28226 30.3062 2.24559 30.3062 2.24559C29.9658 2.42746 29.6259 2.53618 29.3194 2.75472C28.6727 3.15514 28.026 3.59213 27.4133 3.99265C27.209 4.13834 27.0054 4.06459 26.9036 3.99113C26.4971 3.62416 26.0555 3.58626 25.5121 3.54808C25.6155 3.03631 25.4471 2.56032 25.5845 2.04866C25.7216 1.64673 25.5863 1.46345 25.1787 1.42566C25.0768 1.42535 24.941 1.38837 24.839 1.42465C24.7031 1.42424 24.6013 1.38736 24.4997 1.27733C24.2966 1.02069 24.0935 0.764053 23.8904 0.543988C23.8227 0.470637 23.7208 0.433754 23.6189 0.433451C23.415 0.469421 23.2111 0.468814 23.0069 0.577936C22.7688 0.686958 22.5305 0.869131 22.2581 1.0512C22.3267 0.831949 22.3611 0.685745 22.3957 0.502968C22.0553 0.721411 22.0199 1.1968 21.6794 1.45182C21.714 1.23247 21.7825 1.04979 21.7832 0.830329C21.7837 0.64745 21.7163 0.464367 21.649 0.244711C21.853 0.20874 22.0569 0.172771 22.2269 0.136703C21.9895 0.0262668 21.9895 0.0262668 21.7852 0.135389C21.411 0.317156 21.0369 0.462349 20.7303 0.71747C19.9132 1.33683 19.0958 2.02935 18.2785 2.6853C18.1423 2.79462 18.0059 2.94052 17.8016 3.12279C17.9715 3.08672 18.0395 3.08692 18.1074 3.08713C18.2091 3.16058 18.311 3.19746 18.4466 3.27102C18.3783 3.38054 18.3099 3.52664 18.2077 3.63607C17.9691 3.89139 17.595 4.03659 17.5259 4.43872C17.5257 4.4753 17.4917 4.47519 17.4579 4.47509C16.8109 4.94866 16.1978 5.49548 15.6862 6.15233C15.5499 6.33481 15.5155 6.44443 15.549 6.62742C16.2286 6.55629 16.3304 6.59317 16.4996 6.81313C16.3295 6.92235 16.0575 6.9947 15.955 7.17727C15.8525 7.35984 15.7842 7.46937 15.5801 7.5785C15.444 7.65124 15.4095 7.83403 15.511 7.98063C15.5785 8.12714 15.7146 8.05439 15.8167 7.98154C15.9528 7.90879 16.0551 7.79937 16.191 7.76319C16.2252 7.72672 16.3268 7.80018 16.3608 7.80027C16.3266 7.87333 16.3264 7.94648 16.2923 7.98295C16.2241 8.05591 16.1221 8.09218 16.0539 8.16513C15.9858 8.23808 15.8497 8.31082 15.8494 8.38397C15.8827 8.64011 15.7127 8.67618 15.5766 8.74893C15.4744 8.8218 15.3723 8.89459 15.2702 8.96747C15.3376 9.15055 15.3712 9.297 15.4047 9.44337C15.3706 9.47981 15.3364 9.55287 15.3363 9.58948C13.5297 11.5958 11.7573 13.5656 9.9508 15.572C9.16693 16.4109 8.38306 17.2498 7.63306 18.1254C7.29225 18.4902 6.9853 18.8916 6.81391 19.4032C6.74542 19.5858 6.64285 19.805 6.50652 19.9509C5.99519 20.5345 5.4499 21.1182 4.93857 21.7019C4.63173 22.0667 4.325 22.395 4.11975 22.8699C4.05115 23.0891 4.01664 23.2719 4.18595 23.4553C4.49192 23.383 4.4573 23.6024 4.32053 23.8947ZM22.8438 32.5817C22.9111 32.8014 22.9785 32.9845 23.012 33.1675C22.6721 33.203 22.6383 33.1663 22.8438 32.5817ZM58.6049 13.8514C58.605 13.8147 58.707 13.7785 58.7411 13.742C58.7749 13.8153 58.8426 13.8886 58.8425 13.9252C58.8082 14.0348 58.7399 14.1444 58.6717 14.2173C58.6377 14.2171 58.6039 14.1805 58.6039 14.1805C58.6042 14.0708 58.5706 13.9609 58.6049 13.8514ZM56.7488 9.67615C56.6122 9.89513 56.8834 10.1154 56.6112 10.2609C56.5099 10.0412 56.4085 9.85799 56.2733 9.63813C56.4431 9.63865 56.545 9.67553 56.7488 9.67615ZM55.8016 8.31996C55.8012 8.46626 55.8347 8.61267 55.8344 8.7224C55.8004 8.72229 55.7663 8.75877 55.7663 8.75877C55.6986 8.68542 55.5969 8.61197 55.4613 8.50183C55.5974 8.42909 55.6655 8.39271 55.8016 8.31996ZM55.4599 8.97731C55.5953 9.16064 55.6287 9.34354 55.4585 9.45277C55.4245 9.45268 55.3907 9.41607 55.3567 9.41589C55.3572 9.23308 55.4255 9.1235 55.4599 8.97731ZM54.1746 7.07153C54.4129 6.92593 54.7185 6.96341 54.9558 7.147C54.7858 7.18307 54.6158 7.21915 54.4457 7.2918C54.2757 7.36444 54.1056 7.43709 53.9694 7.54641C53.9355 7.50974 53.9016 7.47305 53.8678 7.43637C53.97 7.32695 54.0385 7.14427 54.1746 7.07153ZM51.2506 7.8675C51.3527 7.79465 51.4548 7.72181 51.4891 7.64876C51.6601 7.24693 52.0336 7.32119 52.4077 7.176C52.2028 7.54115 52.2014 8.01664 51.6584 7.83215C51.5905 7.79536 51.5223 7.90489 51.4542 7.94126C51.0797 8.23276 50.705 8.56083 50.3644 8.85245C50.3305 8.81575 50.3305 8.81575 50.2966 8.77908C50.6374 8.4509 50.944 8.1592 51.2506 7.8675ZM47.8233 29.3642C47.8232 29.4373 47.8229 29.5105 47.8228 29.5471C47.7883 29.7298 47.7205 29.6565 47.5509 29.5828C47.6532 29.4734 47.7212 29.4371 47.8233 29.3642ZM49.0806 6.43457C49.2836 6.72779 49.2488 6.98371 48.8397 7.49457C48.9426 7.16569 49.0116 6.80013 49.0806 6.43457ZM48.0003 4.12705C48.0683 4.12725 48.1019 4.23708 48.1698 4.27386C48.1018 4.31023 48.0334 4.41976 47.9995 4.41966C47.8977 4.38278 47.8299 4.30942 47.6603 4.23577C47.8304 4.16312 47.8984 4.12675 48.0003 4.12705ZM46.8495 2.69715C47.0534 2.69776 47.0189 2.88053 46.9844 3.06331L46.6786 3.0624C46.5773 2.84264 46.6457 2.69654 46.8495 2.69715ZM46.6432 3.53779L46.6771 3.53789C46.643 3.61094 46.6426 3.72067 46.6085 3.79372C46.5745 3.79362 46.5745 3.79362 46.5406 3.75695C46.5747 3.72046 46.609 3.61084 46.6432 3.53779ZM45.4946 1.37637C45.494 1.55925 45.5276 1.70566 45.4933 1.77871C45.3568 1.99776 45.1527 2.10688 44.813 2.06929C45.0516 1.81397 45.256 1.63169 45.4946 1.37637ZM43.3884 1.33353C43.6264 1.26108 43.8302 1.26169 44.0682 1.22582C44.0677 1.37212 44.1013 1.51853 44.1007 1.70141C44.0667 1.70131 44.0326 1.73779 44.0326 1.73779C43.9989 1.66453 43.965 1.62785 43.8974 1.51792C43.8631 1.62755 43.8289 1.7006 43.7948 1.77365C43.5571 1.73637 43.3195 1.66251 43.0818 1.62523C43.1163 1.44244 43.2524 1.3697 43.3884 1.33353ZM43.217 1.84509C43.1826 1.9913 43.2161 2.13769 43.1481 2.17407C43.0458 2.28349 42.9436 2.39292 42.8076 2.42909C42.3313 2.64713 41.9566 3.01178 41.5817 3.37643C41.4115 3.52223 41.2412 3.63145 41.071 3.77725C41.0371 3.74057 41.0372 3.70399 41.0033 3.66731C41.7186 3.04765 42.3322 2.35453 43.217 1.84509ZM39.8446 4.90746C40.0495 4.54231 40.3559 4.32376 40.6963 4.10532C40.4914 4.47048 40.1847 4.76217 39.8443 4.98061C39.8443 4.98061 39.8105 4.94394 39.8446 4.90746ZM39.8103 5.0171C39.742 5.12661 39.6738 5.19956 39.5374 5.38204C39.6402 5.08974 39.6402 5.08974 39.8103 5.0171ZM35.7123 34.9975C35.5419 35.1799 35.5419 35.1799 35.2361 35.2155C35.2361 35.179 35.2023 35.1423 35.2023 35.1057C35.3723 35.0697 35.5083 35.0335 35.7123 34.9975ZM35.5911 7.2357C35.6585 7.41878 35.5901 7.56488 35.4541 7.60105C35.2841 7.63712 35.1144 7.60004 35.0472 7.3438C35.2511 7.30784 35.4211 7.27176 35.5911 7.2357ZM32.9173 3.82615C33.0536 3.71682 33.2237 3.64417 33.3595 3.64457C33.5294 3.64508 33.5289 3.82796 33.5624 3.97437C33.392 4.15674 33.188 4.1927 32.9844 4.11895C32.8827 4.0455 32.8153 3.86241 32.9173 3.82615ZM31.6053 33.7417C31.5713 33.7781 31.5373 33.7781 31.5033 33.778C31.4693 33.7779 31.4354 33.7412 31.3677 33.6678C31.4698 33.6315 31.5037 33.6316 31.5377 33.6318C31.5715 33.6684 31.6053 33.7417 31.6053 33.7417ZM31.4573 3.56576C31.4571 3.63891 31.4909 3.67559 31.4908 3.71217C31.4227 3.78511 31.3207 3.82139 31.2524 3.89434C31.2186 3.85766 31.2187 3.82109 31.1848 3.78441C31.2531 3.71145 31.3552 3.63861 31.4573 3.56576ZM30.5173 34.031C30.5514 33.9946 30.6193 34.0314 30.7213 33.9951C30.653 34.1046 30.6189 34.141 30.5849 34.1776C30.5508 34.214 30.4829 34.1772 30.381 34.177C30.4492 34.104 30.4833 34.0676 30.5173 34.031ZM29.2828 3.63245C29.283 3.59587 29.2831 3.5593 29.2832 3.52272C29.3511 3.52292 29.4191 3.52312 29.487 3.52332C29.487 3.52332 29.4869 3.55989 29.4868 3.59647L29.2828 3.63245ZM29.8628 2.82949C29.8967 2.82959 29.9307 2.82969 29.9646 2.86637C29.9301 3.04915 29.8955 3.23193 29.8607 3.52444C29.6578 3.19464 29.8282 3.04884 29.8628 2.82949ZM29.5569 2.86516C29.7606 2.90234 29.7261 3.08512 29.6237 3.23112C29.4879 3.23071 29.352 3.23031 29.1823 3.19323C29.2508 2.97397 29.3531 2.82797 29.5569 2.86516ZM29.0109 3.70479C28.9766 3.77784 28.9764 3.88756 28.9084 3.88736C28.3979 4.17845 27.9213 4.50623 27.4109 4.79732C27.8201 4.28646 28.739 3.70398 29.0109 3.70479ZM26.4968 3.73388C26.5986 3.77077 26.6663 3.84412 26.7682 3.881C26.768 3.91758 26.7679 3.95415 26.7339 3.95405C26.666 3.95385 26.632 3.95374 26.5642 3.91697C26.4963 3.88019 26.4625 3.84351 26.4287 3.77026C26.4627 3.77036 26.4628 3.73378 26.4968 3.73388ZM26.2594 3.58687C26.2593 3.62345 26.2592 3.66003 26.2591 3.6966C26.1569 3.80603 25.9873 3.69579 25.8515 3.65882C25.9874 3.65922 26.1234 3.62304 26.2594 3.58687ZM24.6397 34.1598C24.7758 34.0871 24.8439 34.0142 24.946 33.9413C24.9798 34.0146 25.0137 34.0512 25.0136 34.0878C24.9453 34.1973 24.8773 34.2338 24.6397 34.1598ZM25.3483 1.53589C25.4499 1.60934 25.4499 1.64592 25.3469 1.97481C25.0754 1.90084 24.6673 2.04593 24.5669 1.53356C24.8732 1.31501 25.1451 1.31582 25.3483 1.53589ZM23.3857 33.132C23.318 33.0587 23.2841 33.022 23.2165 32.9487C23.2505 32.9121 23.2847 32.8391 23.2846 32.8757C23.3524 32.9125 23.4202 32.9858 23.4879 33.0226L23.3857 33.132ZM23.3795 0.981381C23.3108 1.23722 23.175 1.20023 23.0394 1.0901C23.1415 1.05383 23.2435 1.01756 23.3795 0.981381ZM23.2428 1.23702C23.2425 1.34675 23.2424 1.38332 23.2423 1.4199C23.1742 1.45626 23.0722 1.49254 23.0041 1.52891C23.0042 1.49234 22.9704 1.45566 22.9705 1.41909C23.0386 1.38271 23.1067 1.30976 23.2428 1.23702ZM21.5116 0.756371C21.5116 0.756371 21.5457 0.719896 21.5456 0.756472L21.5795 0.793149C21.5453 0.866197 21.5451 0.939349 21.5108 1.0124C21.4769 1.0123 21.4769 1.0123 21.443 1.0122C21.4772 0.902567 21.5115 0.829523 21.5116 0.756371ZM21.2398 0.792138C21.2736 0.828816 21.2733 0.938541 21.2393 0.938436C21.1031 1.04776 21.0354 0.974409 20.9338 0.864381C21.0363 0.681803 21.1383 0.64553 21.2398 0.792138ZM19.2304 2.46867C19.639 2.1407 20.0139 1.73948 20.5924 1.41201C20.558 1.55822 20.5578 1.63137 20.5238 1.63126C20.2173 1.88639 19.8767 2.17799 19.5364 2.39643C19.4681 2.46938 19.3323 2.46897 19.2303 2.50524C19.1963 2.50515 19.1964 2.46857 19.2304 2.46867ZM19.1962 2.54172C19.196 2.61488 19.1958 2.68803 19.1618 2.68792C18.9575 2.83362 18.7533 2.94274 18.5492 3.05186C18.6858 2.79624 18.8902 2.61396 19.1962 2.54172ZM18.2099 2.90455C18.3121 2.79513 18.4144 2.6857 18.5167 2.5397C18.482 2.79563 18.482 2.79563 18.2099 2.90455ZM5.93837 28.2154C5.80162 28.5077 5.70046 28.2513 5.56456 28.2509C5.66692 28.1049 5.76916 27.9955 5.93837 28.2154ZM5.13076 25.6162L5.1986 25.6529C5.19849 25.6895 5.16429 25.7625 5.13022 25.799C5.06238 25.7622 5.02852 25.7256 4.99454 25.7255C5.0626 25.689 5.09668 25.6526 5.13076 25.6162ZM48.9817 5.44672C49.0156 5.44682 49.0496 5.44692 49.0835 5.44702C49.0838 5.37387 49.05 5.30062 49.0502 5.22746C49.0162 5.22736 49.0162 5.22736 48.9823 5.22726C48.9481 5.30031 48.9818 5.37357 48.9817 5.44672ZM59.356 12.61C59.3221 12.5733 59.3223 12.5367 59.2884 12.5C59.2544 12.5 59.2203 12.5364 59.1863 12.5363C59.2202 12.573 59.22 12.6095 59.22 12.6095C59.2879 12.6463 59.322 12.6099 59.356 12.61ZM53.2939 6.19107C53.2941 6.15449 53.2941 6.15449 53.2939 6.19107C53.1581 6.19067 53.0561 6.19036 52.9202 6.18996C53.0561 6.19036 53.1921 6.19077 53.2939 6.19107Z" fill="#FF2E2E" fill-opacity="0.1"/>
</g>
<g clip-path="url(#clip1_550_577)">
<path d="M45.8231 8.33317H12.4897V41.6665H52.4897V8.33317H45.8231ZM17.8231 40.3332H13.8231V36.3332H17.8231V40.3332ZM17.8231 34.9998H13.8231V30.9998H17.8231V34.9998ZM17.8231 29.6665H13.8231V25.6665H17.8231V29.6665ZM17.8231 24.3332H13.8231V20.3332H17.8231V24.3332ZM17.8231 18.9998H13.8231V14.9998H17.8231V18.9998ZM17.8231 13.6665H13.8231V9.6665H17.8231V13.6665ZM45.8231 40.3332H19.1564V9.6665H45.8231V40.3332ZM51.1564 40.3332H47.1564V36.3332H51.1564V40.3332ZM51.1564 34.9998H47.1564V30.9998H51.1564V34.9998ZM51.1564 29.6665H47.1564V25.6665H51.1564V29.6665ZM51.1564 24.3332H47.1564V20.3332H51.1564V24.3332ZM51.1564 18.9998H47.1564V14.9998H51.1564V18.9998ZM51.1564 13.6665H47.1564V9.6665H51.1564V13.6665ZM37.6897 24.7332C37.6897 24.5554 37.6453 24.4665 37.5564 24.4665L28.2231 19.1332C28.0453 19.0443 27.8675 19.0221 27.6897 19.0665C27.512 19.1109 27.3786 19.1998 27.2897 19.3332C27.2009 19.4665 27.1564 19.5776 27.1564 19.6665V30.3332C27.1564 30.5998 27.2675 30.7998 27.4897 30.9332C27.712 31.0665 27.9564 31.0443 28.2231 30.8665L37.5564 25.5332C37.6453 25.4443 37.712 25.3109 37.7564 25.1332C37.8009 24.9554 37.7786 24.8221 37.6897 24.7332ZM28.4897 29.1332V20.8665L35.8231 24.9998L28.4897 29.1332Z" fill="#FF2E2E"/>
</g>
<defs>
<clipPath id="clip0_550_577">
<rect width="57.0732" height="36" fill="white" transform="translate(3.96338)"/>
</clipPath>
<clipPath id="clip1_550_577">
<rect width="40.02" height="40" fill="white" transform="matrix(1 0 0 -1 12.48 45)"/>
</clipPath>
</defs>
</svg>
