<svg width="41" height="34" viewBox="0 0 41 34" fill="none" xmlns="http://www.w3.org/2000/svg">
<path d="M33.8231 0.362953H0.489746V33.6963H40.4897V0.362953H33.8231ZM5.82308 32.363H1.82308V28.363H5.82308V32.363ZM5.82308 27.0296H1.82308V23.0296H5.82308V27.0296ZM5.82308 21.6963H1.82308V17.6963H5.82308V21.6963ZM5.82308 16.363H1.82308V12.363H5.82308V16.363ZM5.82308 11.0296H1.82308V7.02962H5.82308V11.0296ZM5.82308 5.69629H1.82308V1.69629H5.82308V5.69629ZM33.8231 32.363H7.15641V1.69629H33.8231V32.363ZM39.1564 32.363H35.1564V28.363H39.1564V32.363ZM39.1564 27.0296H35.1564V23.0296H39.1564V27.0296ZM39.1564 21.6963H35.1564V17.6963H39.1564V21.6963ZM39.1564 16.363H35.1564V12.363H39.1564V16.363ZM39.1564 11.0296H35.1564V7.02962H39.1564V11.0296ZM39.1564 5.69629H35.1564V1.69629H39.1564V5.69629ZM25.6897 16.763C25.6897 16.5852 25.6453 16.4963 25.5564 16.4963L16.2231 11.163C16.0453 11.0741 15.8675 11.0518 15.6897 11.0963C15.512 11.1407 15.3786 11.2296 15.2897 11.363C15.2009 11.4963 15.1564 11.6074 15.1564 11.6963V22.363C15.1564 22.6296 15.2675 22.8296 15.4897 22.963C15.712 23.0963 15.9564 23.0741 16.2231 22.8963L25.5564 17.563C25.6453 17.4741 25.712 17.3407 25.7564 17.163C25.8009 16.9852 25.7786 16.8518 25.6897 16.763ZM16.4897 21.163V12.8963L23.8231 17.0296L16.4897 21.163Z" fill="#FF2E2E"/>
</svg>
