<svg width="40" height="45" viewBox="0 0 40 45" fill="none" xmlns="http://www.w3.org/2000/svg">
<path d="M17.7389 9.92486L9.38629 21.6686L0.445776 22.12L13.7253 2.33719L37.5037 0.822361L24.2991 20.7357L11.1966 21.4961L18.8607 10.6688L17.7389 9.92486ZM11.5176 30.5116C11.7675 30.9465 11.8278 31.4037 11.6983 31.8832C11.5688 32.3626 11.2866 32.7273 10.8516 32.9773C10.4167 33.2273 9.98122 33.275 9.54527 33.1205C9.10932 32.9661 8.76636 32.6713 8.51639 32.2364C8.26641 31.8014 8.18442 31.3567 8.27041 30.9023C8.3564 30.4478 8.61687 30.0956 9.05183 29.8457C9.48678 29.5957 9.94398 29.5354 10.4234 29.6649C10.9029 29.7944 11.2676 30.0766 11.5176 30.5116ZM9.02933 28.2963C8.54438 28.4593 8.15293 28.6843 7.85496 28.9713L6.20514 26.1006L9.38629 21.6686L11.1966 21.4961L7.82946 26.2086L9.02933 28.2963ZM9.86624 34.5851C10.4512 34.5961 11.0046 34.4516 11.5266 34.1517C12.0485 33.8517 12.452 33.4463 12.7369 32.9353L19.2357 41.5249L14.1468 44.4495L9.86624 34.5851ZM11.891 23.0064L25.1241 22.171L33.8651 8.98896L39.5645 18.9059L39.3785 19.1863C36.8268 24.0088 33.5501 27.5699 29.5486 29.8697C25.547 32.1694 20.8205 33.2078 15.3691 32.9848L15.0332 33.0043L10.3837 24.9142L11.891 23.0064Z" fill="#9B51E0"/>
</svg>
