<svg width="40" height="44" viewBox="0 0 40 44" fill="none" xmlns="http://www.w3.org/2000/svg">
<path d="M29.5131 33.2831C29.322 33.2831 29.1547 33.3548 29.0114 33.4981C28.8681 33.6415 28.7964 33.8326 28.7964 34.0715C28.7964 34.3103 28.8681 34.5253 29.0114 34.7165C29.1547 34.9076 29.3459 35.0031 29.5847 35.0031C29.8236 35.0031 30.0147 34.9076 30.1581 34.7165C30.3014 34.5253 30.3731 34.3103 30.3731 34.0715C30.3731 33.8326 30.3014 33.6415 30.1581 33.4981C30.0147 33.3548 29.7997 33.2831 29.5131 33.2831ZM31.6631 30.5598L27.6497 29.2698L26.2164 26.4031C27.5542 24.9698 28.3664 23.3453 28.6531 21.5298L28.9397 20.3831H30.3731C31.1375 20.3831 31.7586 20.1442 32.2364 19.6665C32.7142 19.1887 32.9531 18.6153 32.9531 17.9465V12.6431C32.9531 10.3498 32.3797 8.24756 31.2331 6.33645C30.0864 4.42534 28.5575 2.89645 26.6464 1.74979C24.7353 0.603119 22.6331 0.0297852 20.3397 0.0297852C18.0464 0.0297852 15.9442 0.603119 14.0331 1.74979C12.122 2.89645 10.5931 4.42534 9.44641 6.33645C8.29975 8.24756 7.72641 10.3498 7.72641 12.6431V17.9465C7.72641 18.4242 7.89363 18.902 8.22808 19.3798C8.56252 19.8576 8.96864 20.1442 9.44641 20.2398V21.2431C9.44641 22.0076 9.6853 22.6287 10.1631 23.1065C10.6409 23.5842 11.2142 23.8231 11.8831 23.8231H12.7431C13.0297 24.5876 13.4597 25.3042 14.0331 25.9731L14.4631 26.4031L13.0297 29.2698L9.01641 30.5598C6.72308 31.3242 4.81197 32.8053 3.28308 35.0031C1.75419 37.2009 0.989746 39.5898 0.989746 42.1698C0.989746 42.4565 1.0853 42.6715 1.27641 42.8148C1.46752 42.9581 1.65863 43.0298 1.84975 43.0298H38.8297C39.0209 43.0298 39.212 42.9581 39.4031 42.8148C39.5942 42.6715 39.6897 42.4565 39.6897 42.1698C39.6897 39.5898 38.9253 37.2009 37.3964 35.0031C35.8675 32.8053 33.9564 31.3242 31.6631 30.5598ZM31.2331 17.9465C31.2331 18.1376 31.1614 18.3287 31.0181 18.5198C30.8747 18.7109 30.6597 18.8065 30.3731 18.8065H29.0831C29.3697 17.0865 29.5131 15.3665 29.5131 13.6465V13.5031H31.2331V17.9465ZM10.3064 18.8065C10.0197 18.8065 9.80475 18.7109 9.66141 18.5198C9.51808 18.3287 9.44641 18.1376 9.44641 17.9465V13.5031H11.1664V13.7898C11.1664 15.4142 11.3097 17.0865 11.5964 18.8065H10.3064ZM11.8831 22.1031C11.692 22.1031 11.5247 22.0315 11.3814 21.8881C11.2381 21.7448 11.1664 21.5298 11.1664 21.2431V20.3831H11.7397L12.0264 22.1031H11.8831ZM11.1664 11.7831H9.44641C9.63752 9.96756 10.2109 8.27145 11.1664 6.69479C12.122 5.11812 13.412 3.89978 15.0364 3.03979C16.6609 2.17979 18.4286 1.74979 20.3397 1.74979C22.2509 1.74979 23.9947 2.17979 25.5714 3.03979C27.1481 3.89978 28.4381 5.11812 29.4414 6.69479C30.4447 8.27145 31.042 9.96756 31.2331 11.7831H29.5131C29.5131 10.2542 29.1309 8.84479 28.3664 7.55479C27.602 6.26479 26.5747 5.23756 25.2847 4.47312C23.9947 3.70868 22.5853 3.32645 21.0564 3.32645H19.6231C18.0942 3.32645 16.6847 3.70868 15.3947 4.47312C14.1047 5.23756 13.0775 6.26479 12.3131 7.55479C11.5486 8.84479 11.1664 10.2542 11.1664 11.7831ZM19.6231 5.04645H21.0564C22.9675 5.04645 24.592 5.71534 25.9297 7.05312C27.2675 8.3909 27.9364 10.0153 27.9364 11.9265V12.6431L26.7897 12.4998C23.8275 12.022 21.2953 10.732 19.1931 8.62979C19.0975 8.53423 18.9064 8.48645 18.6197 8.48645C17.4731 8.48645 16.3981 8.72534 15.3947 9.20312C14.3914 9.6809 13.5553 10.3498 12.8864 11.2098C12.982 9.48978 13.6747 8.03256 14.9647 6.83812C16.2547 5.64367 17.8075 5.04645 19.6231 5.04645ZM13.8897 22.1031C13.6031 21.4342 13.3642 20.2398 13.1731 18.5198C12.982 16.7998 12.8864 15.2709 12.8864 13.9331L13.8897 12.4998C14.4631 11.7353 15.132 11.162 15.8964 10.7798C16.6609 10.3976 17.4731 10.1587 18.3331 10.0631C20.6264 12.3565 23.3975 13.6942 26.6464 14.0765L27.7931 14.3631C27.6975 16.0831 27.5542 17.7553 27.3631 19.3798L27.0764 21.2431C26.7897 22.5809 26.1925 23.7992 25.2847 24.8981C24.377 25.997 23.3259 26.6898 22.1314 26.9765C20.937 27.2631 19.7664 27.2631 18.6197 26.9765C16.8997 26.4987 15.562 25.4476 14.6064 23.8231H16.3264C16.5175 24.3009 16.8281 24.707 17.2581 25.0415C17.6881 25.3759 18.142 25.5431 18.6197 25.5431H20.3397C21.0086 25.5431 21.6059 25.2803 22.1314 24.7548C22.657 24.2292 22.9197 23.632 22.9197 22.9631C22.9197 22.2942 22.657 21.697 22.1314 21.1715C21.6059 20.6459 21.0086 20.3831 20.3397 20.3831H18.6197C18.142 20.3831 17.6881 20.5503 17.2581 20.8848C16.8281 21.2192 16.5175 21.6253 16.3264 22.1031H13.8897ZM18.6197 28.6965C19.1931 28.792 19.7425 28.8398 20.2681 28.8398C20.7936 28.8398 21.2953 28.792 21.7731 28.6965L20.1964 30.2731L18.6197 28.6965ZM19.0497 31.5631L16.4697 34.2865C15.7053 32.9487 15.0364 31.5153 14.4631 29.9865L15.4664 27.9798L19.0497 31.5631ZM25.0697 27.6931L26.2164 29.9865C25.6431 31.5153 24.9742 32.9487 24.2097 34.2865L21.4864 31.5631L25.0697 27.6931ZM17.7597 22.9631C17.7597 22.772 17.8553 22.5809 18.0464 22.3898C18.2375 22.1987 18.4286 22.1031 18.6197 22.1031H20.3397C20.5309 22.1031 20.722 22.1987 20.9131 22.3898C21.1042 22.5809 21.1997 22.772 21.1997 22.9631C21.1997 23.1542 21.1042 23.3453 20.9131 23.5365C20.722 23.7276 20.5309 23.8231 20.3397 23.8231H18.6197C18.4286 23.8231 18.2375 23.7276 18.0464 23.5365C17.8553 23.3453 17.7597 23.1542 17.7597 22.9631ZM2.70975 41.3098C2.90086 39.2076 3.61752 37.3203 4.85975 35.6481C6.10197 33.9759 7.67864 32.8053 9.58975 32.1365L13.0297 30.9898C13.6986 32.8053 14.5109 34.5253 15.4664 36.1498C16.1353 37.392 16.8997 38.5865 17.7597 39.7331L18.7631 41.3098H2.70975ZM20.3397 40.5931L19.1931 38.7298C18.5242 37.7742 17.9031 36.8187 17.3297 35.8631L20.1964 32.7098L23.3497 35.8631C22.7764 36.8187 22.1553 37.7742 21.4864 38.7298L20.3397 40.5931ZM21.9164 41.3098L22.9197 39.7331C23.7797 38.5865 24.5442 37.392 25.2131 36.1498C26.1686 34.5253 26.9809 32.8053 27.6497 30.9898L31.0897 32.1365C33.0009 32.8053 34.5775 33.9759 35.8197 35.6481C37.062 37.3203 37.7786 39.2076 37.9697 41.3098H21.9164ZM35.3897 38.0131C34.8164 36.8665 34.052 35.8631 33.0964 35.0031C32.9053 34.9076 32.6903 34.8837 32.4514 34.9315C32.2125 34.9792 32.0214 35.0748 31.8781 35.2181C31.7347 35.3615 31.687 35.5526 31.7347 35.7915C31.7825 36.0303 31.8542 36.2453 31.9497 36.4365C32.8097 37.0098 33.4786 37.7742 33.9564 38.7298C34.052 38.9209 34.1953 39.0642 34.3864 39.1598C34.5775 39.2553 34.7925 39.2315 35.0314 39.0881C35.2703 38.9448 35.4136 38.7776 35.4614 38.5865C35.5092 38.3953 35.4853 38.2042 35.3897 38.0131Z" fill="#2494E4"/>
</svg>
