<svg width="31" height="41" viewBox="0 0 31 41" fill="none" xmlns="http://www.w3.org/2000/svg">
<path d="M25.0231 16.2964H6.22308C6.0453 16.2964 5.91197 16.3631 5.82308 16.4965C5.73419 16.6298 5.68975 16.7853 5.68975 16.9631C5.68975 17.1409 5.73419 17.2742 5.82308 17.3631C5.91197 17.452 6.0453 17.4965 6.22308 17.4965H25.0231C25.2009 17.4965 25.3564 17.452 25.4897 17.3631C25.6231 17.2742 25.6897 17.1409 25.6897 16.9631C25.6897 16.7853 25.6231 16.6298 25.4897 16.4965C25.3564 16.3631 25.2009 16.2964 25.0231 16.2964ZM25.0231 11.2298H6.22308C6.0453 11.2298 5.91197 11.2964 5.82308 11.4298C5.73419 11.5631 5.68975 11.7187 5.68975 11.8965C5.68975 12.0742 5.73419 12.2298 5.82308 12.3631C5.91197 12.4965 6.0453 12.5631 6.22308 12.5631H25.0231C25.2009 12.5631 25.3564 12.4965 25.4897 12.3631C25.6231 12.2298 25.6897 12.0742 25.6897 11.8965C25.6897 11.7187 25.6231 11.5631 25.4897 11.4298C25.3564 11.2964 25.2009 11.2298 25.0231 11.2298ZM25.0231 21.2298H6.22308C6.0453 21.2298 5.91197 21.2965 5.82308 21.4298C5.73419 21.5631 5.68975 21.7187 5.68975 21.8965C5.68975 22.0742 5.73419 22.2298 5.82308 22.3631C5.91197 22.4965 6.0453 22.5631 6.22308 22.5631H25.0231C25.2009 22.5631 25.3564 22.4965 25.4897 22.3631C25.6231 22.2298 25.6897 22.0742 25.6897 21.8965C25.6897 21.7187 25.6231 21.5631 25.4897 21.4298C25.3564 21.2965 25.2009 21.2298 25.0231 21.2298ZM25.0231 26.2965H6.22308C6.0453 26.2965 5.91197 26.3631 5.82308 26.4965C5.73419 26.6298 5.68975 26.7853 5.68975 26.9631C5.68975 27.1409 5.73419 27.2742 5.82308 27.3631C5.91197 27.452 6.0453 27.4965 6.22308 27.4965H25.0231C25.2009 27.4965 25.3564 27.452 25.4897 27.3631C25.6231 27.2742 25.6897 27.1409 25.6897 26.9631C25.6897 26.7853 25.6231 26.6298 25.4897 26.4965C25.3564 26.3631 25.2009 26.2965 25.0231 26.2965ZM19.9564 31.2298H6.22308C6.0453 31.2298 5.91197 31.2965 5.82308 31.4298C5.73419 31.5631 5.68975 31.7187 5.68975 31.8965C5.68975 32.0742 5.73419 32.2298 5.82308 32.3631C5.91197 32.4965 6.0453 32.5631 6.22308 32.5631H19.9564C20.1342 32.5631 20.2897 32.4965 20.4231 32.3631C20.5564 32.2298 20.6231 32.0742 20.6231 31.8965C20.6231 31.7187 20.5564 31.5631 20.4231 31.4298C20.2897 31.2965 20.1342 31.2298 19.9564 31.2298ZM30.4897 7.76311C30.4009 7.76311 29.112 6.51867 26.6231 4.02979L22.7564 0.163116C22.6675 0.0742264 22.312 0.0297813 21.6897 0.0297813H3.68975C2.80086 0.0297813 2.0453 0.340893 1.42308 0.963116C0.800857 1.58534 0.489746 2.34089 0.489746 3.22978V36.9631C0.489746 37.7631 0.800857 38.4742 1.42308 39.0965C2.0453 39.7187 2.80086 40.0298 3.68975 40.0298H27.4231C28.312 40.0298 29.0453 39.7187 29.6231 39.0965C30.2009 38.4742 30.4897 37.7631 30.4897 36.9631V9.22978C30.4897 8.34089 30.4897 7.89645 30.4897 7.89645V7.76311ZM28.3564 7.49645H23.0231V2.16312L28.3564 7.49645ZM27.4231 38.8298H3.68975C3.15641 38.8298 2.71197 38.6298 2.35641 38.2298C2.00086 37.8298 1.82308 37.4076 1.82308 36.9631V3.22978C1.82308 2.69645 2.00086 2.22978 2.35641 1.82978C2.71197 1.42978 3.15641 1.22978 3.68975 1.22978H21.8231V8.16312C21.8231 8.34089 21.8897 8.49645 22.0231 8.62978C22.1564 8.76312 22.312 8.82978 22.4897 8.82978H29.2897V36.9631C29.2897 37.4076 29.112 37.8298 28.7564 38.2298C28.4009 38.6298 27.9564 38.8298 27.4231 38.8298Z" fill="#219653"/>
</svg>
