<svg width="28" height="28" viewBox="0 0 28 28" fill="none" xmlns="http://www.w3.org/2000/svg">
<rect width="28" height="28" rx="14" fill="#FDC800"/>
<g clip-path="url(#clip0_34_3128)">
<path d="M19.2299 10.1683C19.3862 10.3246 19.4643 10.5143 19.4643 10.7375C19.4643 10.9607 19.3862 11.1505 19.2299 11.3067L13.1697 17.367L12.0313 18.5054C11.875 18.6616 11.6853 18.7397 11.4621 18.7397C11.2389 18.7397 11.0491 18.6616 10.8929 18.5054L9.7545 17.367L6.72437 14.3368C6.56812 14.1806 6.48999 13.9909 6.48999 13.7676C6.48999 13.5444 6.56812 13.3547 6.72437 13.1985L7.86276 12.0601C8.01901 11.9038 8.20874 11.8257 8.43195 11.8257C8.65517 11.8257 8.8449 11.9038 9.00115 12.0601L11.4621 14.5294L16.9532 9.02992C17.1094 8.87367 17.2991 8.79555 17.5224 8.79555C17.7456 8.79555 17.9353 8.87367 18.0916 9.02992L19.2299 10.1683Z" fill="#002147"/>
</g>
<defs>
<clipPath id="clip0_34_3128">
<rect width="15.02" height="15" fill="white" transform="matrix(1 0 0 -1 6.47998 21)"/>
</clipPath>
</defs>
</svg>
