<svg width="17" height="14" viewBox="0 0 17 14" fill="none" xmlns="http://www.w3.org/2000/svg">
<path d="M8.0498 6.89328C8.58314 6.57328 9.0098 6.14661 9.32981 5.61328C9.64981 5.07995 9.8098 4.50217 9.8098 3.87995C9.8098 3.25773 9.64981 2.67995 9.32981 2.14661C9.0098 1.61328 8.58314 1.18661 8.0498 0.866614C7.51647 0.546615 6.93869 0.386614 6.31647 0.386614C5.69425 0.386614 5.11647 0.546615 4.58314 0.866614C4.0498 1.18661 3.62314 1.61328 3.30314 2.14661C2.98314 2.67995 2.82314 3.25773 2.82314 3.87995C2.82314 4.50217 2.98314 5.07995 3.30314 5.61328C3.62314 6.14661 4.0498 6.57328 4.58314 6.89328C3.26758 7.21328 2.18314 7.88884 1.3298 8.91995C0.476471 9.95106 0.0498047 11.1066 0.0498047 12.3866V13.2399C0.0498047 13.3466 0.0853602 13.4355 0.156471 13.5066C0.227582 13.5777 0.307582 13.6133 0.396471 13.6133C0.48536 13.6133 0.56536 13.5777 0.636471 13.5066C0.707582 13.4355 0.743138 13.3466 0.743138 13.2399V12.3866C0.743138 11.4977 0.992027 10.6622 1.4898 9.87995C1.98758 9.09773 2.66314 8.48439 3.51647 8.03995C4.3698 7.5955 5.30314 7.37328 6.31647 7.37328C7.3298 7.37328 8.26314 7.5955 9.11647 8.03995C9.9698 8.48439 10.6454 9.09773 11.1431 9.87995C11.6409 10.6622 11.8898 11.4977 11.8898 12.3866V13.2399C11.8898 13.3466 11.9254 13.4355 11.9965 13.5066C12.0676 13.5777 12.1476 13.6133 12.2365 13.6133C12.3254 13.6133 12.4054 13.5777 12.4765 13.5066C12.5476 13.4355 12.5831 13.3466 12.5831 13.2399V12.3866C12.5831 11.1066 12.1565 9.95106 11.3031 8.91995C10.4498 7.88884 9.36536 7.21328 8.0498 6.89328ZM3.51647 3.85328C3.51647 3.10661 3.79203 2.45773 4.34314 1.90661C4.89425 1.3555 5.55203 1.07995 6.31647 1.07995C7.08092 1.07995 7.73869 1.3555 8.2898 1.90661C8.84092 2.45773 9.11647 3.1155 9.11647 3.87995C9.11647 4.64439 8.84092 5.29328 8.2898 5.82661C7.73869 6.35995 7.08092 6.62661 6.31647 6.62661C5.55203 6.62661 4.89425 6.35995 4.34314 5.82661C3.79203 5.29328 3.51647 4.6355 3.51647 3.85328ZM12.6898 6.89328C13.0809 6.64439 13.392 6.3155 13.6231 5.90661C13.8542 5.49773 13.9698 5.04439 13.9698 4.54661C13.9698 3.79995 13.6942 3.15106 13.1431 2.59995C12.592 2.04884 11.9431 1.77328 11.1965 1.77328C11.0898 1.77328 11.0009 1.80884 10.9298 1.87995C10.8587 1.95106 10.8231 2.03106 10.8231 2.11995C10.8231 2.20884 10.8587 2.28884 10.9298 2.35995C11.0009 2.43106 11.0898 2.46661 11.1965 2.46661C11.7654 2.46661 12.2542 2.67106 12.6631 3.07995C13.072 3.48884 13.2765 3.98661 13.2765 4.57328C13.2765 5.15995 13.072 5.64884 12.6631 6.03995C12.2542 6.43106 11.7654 6.62661 11.1965 6.62661C11.0898 6.62661 11.0009 6.66217 10.9298 6.73328C10.8587 6.80439 10.8231 6.89328 10.8231 6.99995C10.8231 7.10661 10.8587 7.1955 10.9298 7.26661C11.0009 7.33773 11.0898 7.37328 11.1965 7.37328C11.9431 7.37328 12.6365 7.54217 13.2765 7.87995C13.9165 8.21773 14.4231 8.67995 14.7965 9.26661C15.1698 9.85328 15.3565 10.5022 15.3565 11.2133V11.8533C15.3565 11.9599 15.392 12.0488 15.4631 12.1199C15.5342 12.1911 15.6142 12.2266 15.7031 12.2266C15.792 12.2266 15.872 12.1911 15.9431 12.1199C16.0142 12.0488 16.0498 11.9599 16.0498 11.8533V11.2133C16.0498 10.2177 15.7387 9.31995 15.1165 8.51995C14.4942 7.71995 13.6854 7.17773 12.6898 6.89328Z" fill="#002147"/>
</svg>
