<svg width="15" height="15" viewBox="0 0 15 15" fill="none" xmlns="http://www.w3.org/2000/svg">
<path d="M7.36992 0.479882C6.05437 0.479882 4.84548 0.799883 3.74326 1.43988C2.64103 2.07988 1.76992 2.95099 1.12992 4.05322C0.489922 5.15544 0.169922 6.35544 0.169922 7.65322C0.169922 8.95099 0.489922 10.151 1.12992 11.2532C1.76992 12.3554 2.64103 13.2354 3.74326 13.8932C4.84548 14.551 6.05437 14.8799 7.36992 14.8799C8.68548 14.8799 9.89437 14.551 10.9966 13.8932C12.0988 13.2354 12.9699 12.3554 13.6099 11.2532C14.2499 10.151 14.5699 8.95099 14.5699 7.65322C14.5699 6.35544 14.2499 5.15544 13.6099 4.05322C12.9699 2.95099 12.0988 2.07988 10.9966 1.43988C9.89437 0.799883 8.68548 0.479882 7.36992 0.479882ZM7.36992 1.43988C8.5077 1.43988 9.55659 1.71544 10.5166 2.26655C11.4766 2.81766 12.2321 3.57322 12.7833 4.53322C13.3344 5.49322 13.6099 6.53322 13.6099 7.65322C13.6099 8.77322 13.3344 9.81322 12.7833 10.7732C12.2321 11.7332 11.4766 12.4977 10.5166 13.0665C9.55659 13.6354 8.5077 13.9199 7.36992 13.9199C6.23214 13.9199 5.18326 13.6354 4.22326 13.0665C3.26326 12.4977 2.5077 11.7332 1.95659 10.7732C1.40548 9.81322 1.12992 8.77322 1.12992 7.65322C1.12992 6.53322 1.40548 5.49322 1.95659 4.53322C2.5077 3.57322 3.26326 2.81766 4.22326 2.26655C5.18326 1.71544 6.23214 1.43988 7.36992 1.43988ZM6.40992 4.31988V8.37322C6.40992 8.47988 6.44548 8.57766 6.51659 8.66655C6.5877 8.75544 6.67659 8.81766 6.78326 8.85322L9.50326 9.59988C9.64548 9.63544 9.76992 9.61766 9.87659 9.54655C9.98326 9.47544 10.0544 9.37766 10.0899 9.25322C10.1255 9.12877 10.1166 9.01322 10.0633 8.90655C10.0099 8.79988 9.91214 8.72877 9.76992 8.69322L7.36992 7.99988V4.31988C7.36992 4.17766 7.32548 4.06211 7.23659 3.97322C7.1477 3.88433 7.03214 3.83988 6.88992 3.83988C6.7477 3.83988 6.63214 3.88433 6.54326 3.97322C6.45437 4.06211 6.40992 4.17766 6.40992 4.31988Z" fill="#002147"/>
</svg>
