<svg width="40" height="40" viewBox="0 0 40 40" fill="none" xmlns="http://www.w3.org/2000/svg">
<path fill-rule="evenodd" clip-rule="evenodd" d="M0 20C0 8.95606 8.95606 0 20 0C31.0439 0 40 8.95606 40 20C40 31.0439 31.0439 40 20 40C8.95606 40 0 31.0439 0 20ZM20.1682 26.623L15.5742 22.029H30.5291C31.1106 22.029 31.5957 21.5438 31.5957 20.9624V19.0376C31.5957 18.4562 31.1165 17.971 30.5291 17.971H15.5742L20.1682 13.3772C20.5835 12.9617 20.5835 12.2841 20.1682 11.8687L18.8072 10.5077C18.3918 10.0924 17.7091 10.0973 17.2987 10.5077L8.71213 19.0943C8.46913 19.3373 8.37008 19.6776 8.41496 20C8.37008 20.3224 8.46913 20.6628 8.71213 20.9058L17.2987 29.4924C17.7091 29.9028 18.3918 29.9077 18.8072 29.4924L20.1682 28.1315C20.5835 27.7161 20.5835 27.0384 20.1682 26.623Z" fill="#1363DF"/>
</svg>
