<svg width="50" height="50" viewBox="0 0 50 50" fill="none" xmlns="http://www.w3.org/2000/svg">
<rect width="50" height="50" rx="25" fill="#1363DF"/>
<g clip-path="url(#clip0_536_117)">
<path d="M22.1945 19.1022L32.7191 19.597L37.0133 14.6578L19.6409 13.3694L8.03928 26.364L25.4528 27.7544L31.8029 20.5605L22.1161 20.0832L22.1945 19.1022ZM36.8442 24.8135C36.9815 25.1535 37.2174 25.3945 37.5516 25.5364C37.8858 25.6783 38.223 25.6805 38.563 25.5431C38.9031 25.4057 39.1271 25.1768 39.2349 24.8563C39.3428 24.5358 39.328 24.2055 39.1906 23.8654C39.0532 23.5254 38.8344 23.2775 38.5342 23.1219C38.234 22.9663 37.9138 22.9572 37.5738 23.0946C37.2337 23.232 36.9927 23.4678 36.8509 23.802C36.709 24.1363 36.7068 24.4734 36.8442 24.8135ZM36.6927 22.3825C37.0053 22.1771 37.3113 22.0534 37.6109 22.0115L36.7041 19.7671L32.7191 19.597L31.8029 20.5605L36.0332 20.7502L36.6927 22.3825ZM39.9326 25.7018C39.675 26.0432 39.3421 26.2964 38.934 26.4613C38.5259 26.6262 38.1106 26.6753 37.6881 26.6086L39.6965 34.2231L43.6753 32.6156L39.9326 25.7018ZM32.3584 21.6415L25.9063 28.8766L14.379 27.9563L17.5116 35.7099L17.7569 35.7295C21.6824 36.4378 25.2095 36.16 28.3382 34.8959C31.4668 33.6318 34.197 31.3816 36.5288 28.1451L36.6916 27.9607L34.136 21.6353L32.3584 21.6415Z" fill="white"/>
</g>
<defs>
<clipPath id="clip0_536_117">
<rect width="33.01" height="33.01" fill="white" transform="matrix(0.927184 -0.374607 -0.374607 -0.927184 16.3657 46.9722)"/>
</clipPath>
</defs>
</svg>
