<svg width="50" height="50" viewBox="0 0 50 50" fill="none" xmlns="http://www.w3.org/2000/svg">
<rect x="0.5" y="0.5" width="49" height="49" rx="24.5" fill="white"/>
<path d="M25.5312 13.7012C25.639 13.7012 25.7423 13.6584 25.8185 13.5822C25.8947 13.506 25.9375 13.4027 25.9375 13.2949V12.0762C25.9352 11.9691 25.8917 11.8671 25.816 11.7914C25.7403 11.7157 25.6383 11.6722 25.5312 11.6699C25.4235 11.6699 25.3202 11.7127 25.244 11.7889C25.1678 11.8651 25.125 11.9684 25.125 12.0762V13.2949C25.125 13.4027 25.1678 13.506 25.244 13.5822C25.3202 13.6584 25.4235 13.7012 25.5312 13.7012Z" fill="#0085F2"/>
<path d="M28.9255 13.3961C28.881 13.4336 28.8451 13.4803 28.8202 13.5329C28.7953 13.5856 28.782 13.643 28.7812 13.7012V14.9199C28.7812 15.0277 28.8241 15.131 28.9002 15.2072C28.9764 15.2834 29.0798 15.3262 29.1875 15.3262C29.2952 15.3262 29.3986 15.2834 29.4748 15.2072C29.5509 15.131 29.5938 15.0277 29.5938 14.9199V13.7012C29.5938 13.5934 29.5509 13.4901 29.4748 13.4139C29.3986 13.3377 29.2952 13.2949 29.1875 13.2949C29.0908 13.2959 28.9978 13.3319 28.9255 13.3961Z" fill="#0085F2"/>
<path d="M21.875 15.3262C21.9827 15.3262 22.0861 15.2834 22.1623 15.2072C22.2384 15.131 22.2812 15.0277 22.2812 14.9199V13.7012C22.2765 13.595 22.2322 13.4944 22.157 13.4192C22.0818 13.344 21.9812 13.2997 21.875 13.2949C21.7673 13.2949 21.6639 13.3377 21.5877 13.4139C21.5116 13.4901 21.4688 13.5934 21.4688 13.7012V14.9199C21.4688 15.0277 21.5116 15.131 21.5877 15.2072C21.6639 15.2834 21.7673 15.3262 21.875 15.3262Z" fill="#0085F2"/>
<path d="M20.5739 19.3826C20.6292 19.3858 30.4097 19.3887 30.4097 19.3887C30.6252 19.3887 30.8318 19.3031 30.9842 19.1507C31.1366 18.9983 31.2222 18.7917 31.2222 18.5762C31.2222 18.3607 31.1366 18.154 30.9842 18.0016C30.8318 17.8493 30.6252 17.7637 30.4097 17.7637H20.6597C20.5175 17.7652 20.3781 17.8034 20.2549 17.8745C20.1318 17.9457 20.0291 18.0475 19.9568 18.1699C19.8907 18.2872 19.8546 18.4191 19.8517 18.5537C19.8489 18.6883 19.8793 18.8216 19.9404 18.9416C20.0015 19.0616 20.0913 19.1647 20.2018 19.2416C20.3123 19.3186 20.4402 19.367 20.5739 19.3826Z" fill="#0085F2"/>
<path d="M30.3845 16.9511C30.3498 16.5238 30.2586 16.1031 30.1131 15.6999C29.9535 15.8923 29.7383 16.0308 29.4969 16.0963C29.2556 16.1617 28.9999 16.1511 28.7649 16.0657C28.5298 15.9803 28.3269 15.8244 28.1838 15.6193C28.0408 15.4142 27.9646 15.1699 27.9657 14.9199V13.7011C27.9658 13.5315 28.0017 13.3639 28.0709 13.2091C27.6598 12.956 27.2137 12.7647 26.7469 12.6416V13.2949C26.7469 13.6181 26.6185 13.9281 26.39 14.1566C26.1614 14.3852 25.8514 14.5136 25.5282 14.5136C25.205 14.5136 24.895 14.3852 24.6664 14.1566C24.4378 13.9281 24.3094 13.6181 24.3094 13.2949V12.6416C23.8423 12.7649 23.3958 12.9566 22.9847 13.2104C23.0543 13.3646 23.0905 13.5319 23.0907 13.7011V14.9199C23.0918 15.1699 23.0156 15.4142 22.8725 15.6193C22.7295 15.8244 22.5266 15.9803 22.2915 16.0657C22.0565 16.1511 21.8008 16.1617 21.5595 16.0963C21.3181 16.0308 21.1029 15.8923 20.9433 15.6999C20.7978 16.1031 20.7066 16.5238 20.6719 16.9511H30.3845Z" fill="#0085F2"/>
<path d="M20.6562 32.7949H30.4062V34.0137H20.6562V32.7949Z" fill="#0085F2"/>
<path d="M25.5327 29.1387C25.8733 29.1196 26.1924 28.9666 26.4207 28.7133C26.649 28.4599 26.7679 28.1265 26.7515 27.7859V26.2949H24.314V27.7859C24.2976 28.1265 24.4165 28.4599 24.6448 28.7133C24.8731 28.9666 25.1922 29.1196 25.5327 29.1387Z" fill="#0085F2"/>
<path d="M30.4062 20.6074V22.6387H30.6094C30.8776 22.6351 31.1339 22.5269 31.3236 22.3372C31.5133 22.1476 31.6214 21.8913 31.625 21.623C31.625 21.3537 31.518 21.0954 31.3275 20.9049C31.1371 20.7144 30.8787 20.6074 30.6094 20.6074H30.4062Z" fill="#0085F2"/>
<path d="M27.1018 25.4613C27.7896 25.3748 28.4221 25.0403 28.8809 24.5207C29.3397 24.001 29.5931 23.3319 29.5938 22.6387V20.2012H21.4688V22.6387C21.4693 23.3318 21.7227 24.0009 22.1814 24.5205C22.6401 25.0402 23.2726 25.3747 23.9603 25.4613C24.0744 25.4755 26.9881 25.4755 27.1018 25.4613Z" fill="#0085F2"/>
<path d="M31.2188 34.0137H33.2094V36.0449H31.2188V34.0137Z" fill="#0085F2"/>
<path d="M20.6562 34.8262H30.4062V36.0449H20.6562V34.8262Z" fill="#0085F2"/>
<path d="M17.8516 34.0137H19.8422V36.0449H17.8516V34.0137Z" fill="#0085F2"/>
<path d="M31.2188 28.2852V33.2008H34.0625V32.3883C34.0555 31.4978 33.7804 30.6302 33.2732 29.8983C32.766 29.1664 32.05 28.6043 31.2188 28.2852Z" fill="#0085F2"/>
<path d="M20.4531 20.6074C20.1838 20.6074 19.9254 20.7144 19.735 20.9049C19.5445 21.0954 19.4375 21.3537 19.4375 21.623C19.4414 21.8912 19.5496 22.1473 19.7393 22.3369C19.9289 22.5265 20.185 22.6348 20.4531 22.6387H20.6562V20.6074H20.4531Z" fill="#0085F2"/>
<path d="M20.6562 31.9824H30.4062V28.0329C30.0633 27.958 29.7132 27.9201 29.3622 27.9199H27.5499C27.5355 28.4519 27.3186 28.9584 26.9434 29.3359C26.5683 29.7134 26.0632 29.9335 25.5312 29.9512C24.9993 29.9335 24.4942 29.7134 24.1191 29.3359C23.7439 28.9584 23.527 28.4519 23.5126 27.9199H21.7003C21.3493 27.9199 20.9992 27.9576 20.6562 28.0325V31.9824Z" fill="#0085F2"/>
<path d="M19.8438 33.2008V28.2852C19.0153 28.6085 18.3021 29.1716 17.7955 29.9026C17.2889 30.6335 17.0119 31.499 17 32.3883V33.2008H19.8438Z" fill="#0085F2"/>
<rect x="0.5" y="0.5" width="49" height="49" rx="24.5" stroke="#0085F2"/>
</svg>
