<svg width="26" height="26" viewBox="0 0 26 26" fill="none" xmlns="http://www.w3.org/2000/svg">
<g clip-path="url(#clip0_1_27568)">
<path d="M25.5844 11.9899L16.1949 2.60021C15.9269 2.33218 15.5696 2.18506 15.1887 2.18506C14.8074 2.18506 14.4504 2.33239 14.1824 2.60021L13.3299 3.45292C13.062 3.72053 12.9145 4.07797 12.9145 4.45909C12.9145 4.84 13.062 5.20949 13.3299 5.4771L18.8076 10.9669H1.40462C0.619979 10.9669 0 11.5811 0 12.366V13.5715C0 14.3563 0.619979 15.0325 1.40462 15.0325H18.8697L13.3301 20.553C13.0623 20.821 12.9147 21.1687 12.9147 21.5498C12.9147 21.9305 13.0623 22.2833 13.3301 22.5511L14.1826 23.4011C14.4506 23.6691 14.8076 23.8152 15.189 23.8152C15.5699 23.8152 15.9271 23.6672 16.1951 23.3992L25.5846 14.0097C25.8533 13.7408 26.0011 13.3819 26 13.0003C26.0008 12.6175 25.8533 12.2584 25.5844 11.9899Z" fill="white"/>
</g>
<defs>
<clipPath id="clip0_1_27568">
<rect width="26" height="26" fill="white"/>
</clipPath>
</defs>
</svg>
