<svg width="40" height="34" viewBox="0 0 40 34" fill="none" xmlns="http://www.w3.org/2000/svg">
<path d="M37.3631 0.426758H3.04308C2.45641 0.426758 1.96752 0.646759 1.57641 1.08676C1.1853 1.52676 0.989746 2.04009 0.989746 2.62676V25.9468C0.989746 26.5334 1.1853 27.0223 1.57641 27.4134C1.96752 27.8045 2.45641 28.0001 3.04308 28.0001H15.9497L14.9231 32.1068H11.9897C11.6964 32.1068 11.4764 32.229 11.3297 32.4734C11.1831 32.7179 11.1831 32.9379 11.3297 33.1334C11.4764 33.329 11.6964 33.4268 11.9897 33.4268H28.4164C28.7097 33.4268 28.9297 33.329 29.0764 33.1334C29.2231 32.9379 29.2231 32.7179 29.0764 32.4734C28.9297 32.229 28.7097 32.1068 28.4164 32.1068H25.4831L24.4564 28.0001H37.3631C37.9497 28.0001 38.4386 27.8045 38.8297 27.4134C39.2209 27.0223 39.4164 26.5334 39.4164 25.9468V2.62676C39.4164 2.04009 39.2209 1.5512 38.8297 1.16009C38.4386 0.768982 37.9497 0.573425 37.3631 0.573425V0.426758ZM3.04308 1.89342H37.3631C37.5586 1.89342 37.7297 1.96676 37.8764 2.11343C38.0231 2.26009 38.0964 2.4312 38.0964 2.62676V23.1601H2.30975V2.62676C2.30975 2.4312 2.38308 2.26009 2.52975 2.11343C2.67641 1.96676 2.84752 1.89342 3.04308 1.89342ZM24.1631 32.1068H16.2431L17.2697 28.0001H23.1364L24.1631 32.1068ZM37.3631 26.6801H3.04308C2.84752 26.6801 2.67641 26.6068 2.52975 26.4601C2.38308 26.3134 2.30975 26.1423 2.30975 25.9468V24.6268H38.0964V25.9468C38.0964 26.1423 38.0231 26.3134 37.8764 26.4601C37.7297 26.6068 37.5586 26.6801 37.3631 26.6801ZM14.0431 20.3734H26.3631C26.6564 20.3734 26.8764 20.2268 27.0231 19.9334C27.1697 19.6401 27.0964 19.3956 26.8031 19.2001L19.7631 12.8934L26.8031 6.58676C27.0964 6.29342 27.1697 6.00009 27.0231 5.70676C26.8764 5.41343 26.6564 5.26676 26.3631 5.26676H14.0431C13.8475 5.26676 13.6764 5.34009 13.5297 5.48676C13.3831 5.63342 13.3097 5.80454 13.3097 6.00009V19.7868C13.3097 19.9823 13.3831 20.129 13.5297 20.2268C13.6764 20.3245 13.8475 20.3734 14.0431 20.3734ZM24.6031 19.0534H14.7764V17.2934L18.5897 13.7734L24.6031 19.0534ZM14.7764 15.5334V11.8668L20.4964 6.73343H24.6031L14.7764 15.5334ZM18.4431 6.73343L14.7764 9.96009V6.73343H18.4431Z" fill="#1363DF"/>
</svg>
