<svg width="45" height="38" viewBox="0 0 45 38" fill="none" xmlns="http://www.w3.org/2000/svg">
<path d="M37.5097 0.519981C35.8475 0.519981 34.4297 1.10665 33.2564 2.27998C32.0831 3.45332 31.4964 4.89554 31.4964 6.60665C31.4964 8.31776 32.0831 9.73554 33.2564 10.86C34.4297 11.9844 35.8475 12.5466 37.5097 12.5466C39.172 12.5466 40.6142 11.96 41.8364 10.7866C43.0586 9.61332 43.6697 8.19554 43.6697 6.53332C43.6697 4.87109 43.0831 3.45332 41.9097 2.27998C40.7364 1.10665 39.2697 0.519981 37.5097 0.519981ZM37.5097 11.2266C36.2386 11.2266 35.1386 10.7622 34.2097 9.83331C33.2809 8.90443 32.8164 7.80443 32.8164 6.53332C32.8164 5.2622 33.2809 4.1622 34.2097 3.23331C35.1386 2.30443 36.2631 1.83998 37.5831 1.83998C38.9031 1.83998 40.0275 2.30443 40.9564 3.23331C41.8853 4.1622 42.3497 5.28665 42.3497 6.60665C42.3497 7.92665 41.8853 9.02665 40.9564 9.90665C40.0275 10.7866 38.8786 11.2266 37.5097 11.2266ZM39.4164 7.55998C39.4164 7.4622 39.4164 7.41331 39.4164 7.41331L38.9764 6.67998L37.0697 5.65331L36.9231 5.06665L37.2164 4.62665C37.3142 4.52887 37.3631 4.47998 37.3631 4.47998H37.6564L38.8297 4.77332L38.9764 3.59998L38.0964 3.45332L37.9497 2.71998H37.0697V3.45332L36.6297 3.59998L36.3364 3.89331L36.0431 4.18665L35.7497 4.77332V5.21331L35.8964 5.94665L36.6297 6.67998L37.5097 7.11998L38.0964 7.55998L38.2431 8.14665L38.0964 8.29332L37.8031 8.43998L36.9231 8.58665L35.7497 8.14665L35.6031 9.31998L35.7497 9.46665C35.8475 9.36887 35.9453 9.36887 36.0431 9.46665L37.0697 9.61332V10.4933H38.0964V9.61332L38.8297 9.31998L39.1231 9.02665L39.4164 8.29332V7.55998ZM34.7231 13.4266C34.5275 13.2311 34.3564 13.1333 34.2097 13.1333C34.0631 13.1333 33.892 13.1822 33.6964 13.28L26.9497 18.56L18.2964 15.04C18.1009 14.9422 17.9053 14.9422 17.7097 15.04L8.32308 21.7866C8.2253 21.8844 8.15197 22.0066 8.10308 22.1533C8.05419 22.3 8.07863 22.4711 8.17641 22.6666C8.27419 22.8622 8.42086 22.96 8.61641 22.96C8.81197 22.96 8.95863 22.9111 9.05641 22.8133L18.1497 16.36L26.8031 20.0266C27.0964 20.1244 27.3409 20.0755 27.5364 19.88L34.5764 14.3066C34.6742 14.2089 34.7475 14.0622 34.7964 13.8666C34.8453 13.6711 34.8209 13.5244 34.7231 13.4266ZM44.4031 36.16H41.3231V16.9466C41.3231 16.7511 41.2497 16.58 41.1031 16.4333C40.9564 16.2866 40.7853 16.2133 40.5897 16.2133H34.5764C34.3809 16.2133 34.2097 16.2866 34.0631 16.4333C33.9164 16.58 33.8431 16.7511 33.8431 16.9466V36.16H31.6431V23.5466C31.6431 23.3511 31.5697 23.2044 31.4231 23.1066C31.2764 23.0089 31.1053 22.96 30.9097 22.96H24.7497C24.652 22.96 24.5297 23.0089 24.3831 23.1066C24.2364 23.2044 24.1631 23.3511 24.1631 23.5466V36.16H21.9631V22.52C21.9631 22.3244 21.8897 22.1778 21.7431 22.08C21.5964 21.9822 21.4253 21.9333 21.2297 21.9333H15.2164C15.0209 21.9333 14.8497 21.9822 14.7031 22.08C14.5564 22.1778 14.4831 22.3244 14.4831 22.52V36.16H12.2831V26.48C12.2831 26.2844 12.2097 26.1133 12.0631 25.9666C11.9164 25.82 11.7453 25.7466 11.5497 25.7466H5.38975C5.19419 25.7466 5.04752 25.82 4.94975 25.9666C4.85197 26.1133 4.80308 26.2844 4.80308 26.48V36.16H1.72308C1.52752 36.16 1.35641 36.2089 1.20975 36.3066C1.06308 36.4044 0.989746 36.5511 0.989746 36.7466C0.989746 36.9422 1.06308 37.1133 1.20975 37.26C1.35641 37.4066 1.52752 37.48 1.72308 37.48H44.2564C44.452 37.48 44.6231 37.4066 44.7697 37.26C44.9164 37.1133 44.9897 36.9666 44.9897 36.82C44.9897 36.6733 44.9409 36.5266 44.8431 36.38C44.7453 36.2333 44.5986 36.16 44.4031 36.16ZM10.8164 36.16H6.12308V27.0666H10.8164V36.16ZM20.6431 36.16H15.8031V23.2533H20.6431V36.16ZM30.3231 36.16H25.4831V24.28H30.3231V36.16ZM40.0031 36.16H35.1631V17.5333H40.0031V36.16Z" fill="#1363DF"/>
</svg>
