<svg width="43" height="43" viewBox="0 0 43 43" fill="none" xmlns="http://www.w3.org/2000/svg">
<path d="M18.8831 3.31351C18.7853 3.21573 18.7364 3.06907 18.7364 2.87351C18.7364 2.67796 18.7853 2.53129 18.8831 2.43351L20.0564 1.55351C20.5453 1.1624 21.0831 0.966843 21.6697 0.966843C22.2564 0.966843 22.7942 1.1624 23.2831 1.55351L24.4564 2.43351C24.5542 2.53129 24.6031 2.67796 24.6031 2.87351C24.6031 3.06907 24.5542 3.24018 24.4564 3.38684C24.3586 3.53351 24.212 3.60685 24.0164 3.60685C23.8209 3.60685 23.6742 3.55796 23.5764 3.46018L22.4031 2.58018C22.2075 2.38462 21.9631 2.28684 21.6697 2.28684C21.3764 2.28684 21.132 2.38462 20.9364 2.58018L19.7631 3.46018C19.6653 3.55796 19.5186 3.60685 19.3231 3.60685C19.1275 3.60685 18.9809 3.50907 18.8831 3.31351ZM42.3497 19.3002V38.6602C42.3497 39.638 42.0075 40.4691 41.3231 41.1535C40.6386 41.838 39.8075 42.1802 38.8297 42.1802H4.50975C3.53197 42.1802 2.70086 41.838 2.01641 41.1535C1.33197 40.4691 0.989746 39.638 0.989746 38.6602V19.3002C0.989746 18.2246 1.42975 17.3446 2.30975 16.6602L3.33641 15.7802C3.53197 15.6824 3.70308 15.6335 3.84975 15.6335C3.99641 15.6335 4.14308 15.7068 4.28975 15.8535C4.43641 16.0002 4.50975 16.1713 4.50975 16.3668C4.50975 16.5624 4.41197 16.7091 4.21641 16.8068L2.89641 18.1268L20.9364 33.5268C21.132 33.7224 21.3764 33.8202 21.6697 33.8202C21.9631 33.8202 22.2075 33.7224 22.4031 33.5268L40.4431 18.1268L39.1231 16.8068C38.9275 16.7091 38.8297 16.5624 38.8297 16.3668C38.8297 16.1713 38.9031 16.0002 39.0497 15.8535C39.1964 15.7068 39.3431 15.6335 39.4897 15.6335C39.6364 15.6335 39.8075 15.6824 40.0031 15.7802L41.0297 16.6602C41.9097 17.3446 42.3497 18.2246 42.3497 19.3002ZM40.8831 38.6602V19.5935L29.0031 29.7135L40.5897 39.6868C40.7853 39.3935 40.8831 39.0513 40.8831 38.6602ZM14.3364 29.7135L2.45641 19.5935V38.6602C2.45641 39.0513 2.55419 39.3935 2.74975 39.6868L14.3364 29.7135ZM38.8297 40.7135C39.1231 40.7135 39.3675 40.6646 39.5631 40.5668L27.9764 30.5935L23.2831 34.7002C22.7942 35.0913 22.2564 35.2868 21.6697 35.2868C21.0831 35.2868 20.5453 35.0913 20.0564 34.7002L15.3631 30.5935L3.77641 40.5668C3.97197 40.6646 4.21641 40.7135 4.50975 40.7135H38.8297ZM6.56308 19.3002C6.75863 19.3002 6.92975 19.2268 7.07641 19.0802C7.22308 18.9335 7.29641 18.7624 7.29641 18.5668V8.44684C7.29641 7.86018 7.49197 7.37129 7.88308 6.98018C8.27419 6.58907 8.76308 6.39351 9.34975 6.39351H33.9897C34.5764 6.39351 35.0653 6.58907 35.4564 6.98018C35.8475 7.37129 36.0431 7.86018 36.0431 8.44684V18.5668C36.0431 18.7624 36.1164 18.9335 36.2631 19.0802C36.4097 19.2268 36.5809 19.3002 36.7764 19.3002C36.972 19.3002 37.1431 19.2268 37.2897 19.0802C37.4364 18.9335 37.5097 18.7624 37.5097 18.5668V8.44684C37.5097 7.46907 37.1675 6.6624 36.4831 6.02684C35.7986 5.39129 34.9675 5.02462 33.9897 4.92685H9.34975C8.37197 5.02462 7.54086 5.39129 6.85641 6.02684C6.17197 6.6624 5.82975 7.46907 5.82975 8.44684V18.5668C5.82975 18.7624 5.90308 18.9335 6.04975 19.0802C6.19641 19.2268 6.36752 19.3002 6.56308 19.3002ZM14.0431 23.5535V19.8868C13.1631 19.5935 12.4542 19.0068 11.9164 18.1268C11.3786 17.2468 11.2075 16.318 11.4031 15.3402C11.5986 14.3624 12.0875 13.5313 12.8697 12.8468C13.652 12.1624 14.532 11.8202 15.5097 11.8202H17.5631C19.4209 11.8202 20.9853 11.4291 22.2564 10.6468C23.0386 10.2557 23.5764 9.81573 23.8697 9.32684C24.0653 9.13129 24.3097 9.0824 24.6031 9.18018C24.8964 9.27795 25.0431 9.47351 25.0431 9.76684V13.8735H25.7764C26.3631 13.8735 26.852 14.0935 27.2431 14.5335C27.6342 14.9735 27.8297 15.4624 27.8297 16.0002C27.8297 16.538 27.6342 17.0268 27.2431 17.4668C26.852 17.9068 26.3631 18.1268 25.7764 18.1268H25.0431V22.2335C25.0431 22.5268 24.8964 22.7224 24.6031 22.8202C24.3097 22.918 24.0409 22.7957 23.7964 22.4535C23.552 22.1113 23.1364 21.7446 22.5497 21.3535C21.2786 20.6691 19.8609 20.278 18.2964 20.1802V23.5535C18.2964 24.1402 18.0764 24.6291 17.6364 25.0202C17.1964 25.4113 16.7075 25.6068 16.1697 25.6068C15.632 25.6068 15.1431 25.4113 14.7031 25.0202C14.2631 24.6291 14.0431 24.1402 14.0431 23.5535ZM25.0431 15.3402V16.6602H25.7764C25.972 16.6602 26.1431 16.5868 26.2897 16.4402C26.4364 16.2935 26.5097 16.1468 26.5097 16.0002C26.5097 15.8535 26.4364 15.7068 26.2897 15.5602C26.1431 15.4135 25.972 15.3402 25.7764 15.3402H25.0431ZM16.8297 23.5535V20.1802H15.5097V23.5535C15.5097 23.7491 15.5831 23.9202 15.7297 24.0668C15.8764 24.2135 16.0231 24.2868 16.1697 24.2868C16.3164 24.2868 16.4631 24.2135 16.6097 24.0668C16.7564 23.9202 16.8297 23.7491 16.8297 23.5535ZM18.2964 13.2868V18.7135C20.252 18.8113 22.0609 19.4468 23.7231 20.6202V11.3802C22.0609 12.5535 20.252 13.1891 18.2964 13.2868ZM15.5097 18.7135H16.8297V13.2868H15.5097C14.7275 13.2868 14.0675 13.5557 13.5297 14.0935C12.992 14.6313 12.7231 15.2668 12.7231 16.0002C12.7231 16.7335 12.992 17.3691 13.5297 17.9068C14.0675 18.4446 14.7275 18.7135 15.5097 18.7135ZM31.3497 15.3402H29.8831C29.6875 15.3402 29.5409 15.4135 29.4431 15.5602C29.3453 15.7068 29.2964 15.8535 29.2964 16.0002C29.2964 16.1468 29.3453 16.2935 29.4431 16.4402C29.5409 16.5868 29.6875 16.6602 29.8831 16.6602H31.3497C31.5453 16.6602 31.692 16.5868 31.7897 16.4402C31.8875 16.2935 31.9364 16.1468 31.9364 16.0002C31.9364 15.8535 31.8875 15.7068 31.7897 15.5602C31.692 15.4135 31.5453 15.3402 31.3497 15.3402ZM30.1764 18.1268C29.9809 18.0291 29.7609 18.0535 29.5164 18.2002C29.272 18.3468 29.1742 18.5424 29.2231 18.7868C29.272 19.0313 29.3942 19.2024 29.5897 19.3002L31.0564 20.0335C31.1542 20.1313 31.3009 20.1557 31.4964 20.1068C31.692 20.058 31.8386 19.9357 31.9364 19.7402C32.0342 19.5446 32.0342 19.3735 31.9364 19.2268C31.8386 19.0802 31.7409 18.958 31.6431 18.8602L30.1764 18.1268ZM29.8831 13.8735C29.9809 13.8735 30.0786 13.8735 30.1764 13.8735L31.6431 13.1402C31.7409 13.0424 31.8386 12.9202 31.9364 12.7735C32.0342 12.6268 32.0342 12.4557 31.9364 12.2602C31.8386 12.0646 31.692 11.9424 31.4964 11.8935C31.3009 11.8446 31.1542 11.8691 31.0564 11.9668L29.5897 12.7002C29.2964 12.798 29.1986 13.018 29.2964 13.3602C29.3942 13.7024 29.5897 13.8735 29.8831 13.8735Z" fill="#1363DF"/>
</svg>
