<svg width="43" height="43" viewBox="0 0 43 43" fill="none" xmlns="http://www.w3.org/2000/svg">
<path d="M2.16308 21.6468C1.96752 21.4513 1.72308 21.4268 1.42975 21.5735C1.13641 21.7202 0.989746 21.9402 0.989746 22.2335V41.4468C0.989746 41.6424 1.06308 41.8135 1.20975 41.9602C1.35641 42.1068 1.52752 42.1802 1.72308 42.1802H20.9364C21.2297 42.1802 21.4497 42.0335 21.5964 41.7402C21.7431 41.4468 21.7186 41.2024 21.5231 41.0068L2.16308 21.6468ZM2.45641 40.7135V23.8468L19.3231 40.7135H2.45641ZM5.82975 37.9268H11.4031C11.6964 38.0246 11.892 37.9268 11.9897 37.6335C12.0875 37.3402 12.0386 37.0468 11.8431 36.7535L6.41641 31.3268C6.12308 31.1313 5.82975 31.0824 5.53641 31.1802C5.24308 31.278 5.09641 31.4735 5.09641 31.7668V37.3402C5.19419 37.5357 5.29197 37.6824 5.38975 37.7802C5.48752 37.878 5.63419 37.9268 5.82975 37.9268ZM6.56308 33.5268L9.64308 36.6068H6.56308V33.5268ZM8.61641 3.60685H9.93641V4.92685H8.61641V3.60685ZM11.4031 3.60685H12.7231V4.92685H11.4031V3.60685ZM14.0431 3.60685H15.5097V4.92685H14.0431V3.60685ZM15.2164 13.2868C14.9231 13.3846 14.7764 13.5802 14.7764 13.8735V21.5002C14.7764 21.7935 14.9231 21.9891 15.2164 22.0868L21.3764 24.8735C21.572 24.9713 21.7675 24.9713 21.9631 24.8735L28.1231 22.0868C28.4164 21.9891 28.5631 21.7935 28.5631 21.5002V13.8735C28.5631 13.5802 28.4164 13.3846 28.1231 13.2868L21.9631 10.5002C21.7675 10.5002 21.572 10.5002 21.3764 10.5002L15.2164 13.2868ZM20.9364 23.2602L16.2431 21.0602V15.0468L20.9364 17.1002V23.2602ZM27.2431 21.0602L22.4031 23.2602V17.1002L27.2431 15.0468V21.0602ZM21.6697 11.9668L26.2164 13.8735L21.6697 15.9268L17.1231 13.8735L21.6697 11.9668ZM20.9364 26.9268H22.4031V30.4468H20.9364V26.9268ZM20.9364 5.66018H22.4031V9.18018H20.9364V5.66018ZM9.64308 12.5535L10.2297 11.2335L13.1631 12.7002L12.5764 13.8735L9.64308 12.5535ZM30.1764 12.5535L33.1097 11.2335L33.6964 12.5535L30.7631 13.8735L30.1764 12.5535ZM9.64308 23.5535L12.5764 22.2335L13.1631 23.5535L10.2297 24.8735L9.64308 23.5535ZM41.6164 32.5002H37.5097V21.7935L41.4697 17.6868C42.0564 17.198 42.3497 16.5868 42.3497 15.8535C42.3497 15.1202 42.0809 14.5091 41.5431 14.0202C41.0053 13.5313 40.3697 13.2868 39.6364 13.2868C38.9031 13.2868 38.292 13.5313 37.8031 14.0202L37.5097 14.3135V8.44684C37.5097 8.25129 37.412 8.10462 37.2164 8.00684L30.4697 1.11351C30.2742 0.917953 30.0786 0.820179 29.8831 0.820179H8.61641C7.83419 0.820179 7.17419 1.08907 6.63641 1.62684C6.09863 2.16462 5.82975 2.82462 5.82975 3.60685V23.5535H7.29641V3.60685C7.29641 3.21573 7.41863 2.89796 7.66308 2.65351C7.90752 2.40907 8.2253 2.28684 8.61641 2.28684H29.2964V6.39351C29.2964 7.17573 29.5653 7.83573 30.1031 8.37351C30.6409 8.91129 31.252 9.18018 31.9364 9.18018H36.0431V15.7802L25.3364 26.4868C25.2386 26.5846 25.1897 26.7313 25.1897 26.9268L24.4564 30.3002C24.3586 30.4957 24.4075 30.6913 24.6031 30.8868C24.7986 31.0824 24.9942 31.1802 25.1897 31.1802L28.7097 30.4468C28.8075 30.4468 28.9053 30.398 29.0031 30.3002L36.0431 23.1135V32.5002H22.4031C22.2075 32.5002 22.0364 32.5735 21.8897 32.7202C21.7431 32.8668 21.6697 33.038 21.6697 33.2335V35.2868H18.2964V36.6068H21.6697V38.6602C21.6697 38.8557 21.7431 39.0268 21.8897 39.1735C22.0364 39.3202 22.2075 39.3935 22.4031 39.3935H41.6164C41.812 39.3935 41.9831 39.3202 42.1297 39.1735C42.2764 39.0268 42.3497 38.8557 42.3497 38.6602V33.2335C42.3497 33.038 42.2764 32.8668 42.1297 32.7202C41.9831 32.5735 41.812 32.5002 41.6164 32.5002ZM30.6164 6.39351V3.16684L35.1631 7.71351H31.9364C31.5453 7.71351 31.2275 7.59129 30.9831 7.34684C30.7386 7.1024 30.6164 6.78462 30.6164 6.39351ZM26.8031 26.9268L37.5097 16.2202L39.2697 18.1268L28.5631 28.8335L26.8031 26.9268ZM39.7097 14.6068C40.1986 14.6068 40.5653 14.8757 40.8097 15.4135C41.0542 15.9513 40.9809 16.4157 40.5897 16.8068L40.2964 17.1002L38.3897 15.3402L38.8297 15.0468C39.0253 14.7535 39.3186 14.6068 39.7097 14.6068ZM26.2164 28.3935L27.0964 29.2735L25.9231 29.5668L26.2164 28.3935ZM40.8831 37.9268H22.9897V33.8202H24.4564V35.2868H25.7764V33.8202H27.2431V35.2868H28.5631V33.8202H29.8831V35.2868H31.3497V33.8202H32.6697V35.2868H33.9897V33.8202H35.4564V35.2868H36.7764V33.8202H38.2431V35.2868H39.5631V33.8202H40.8831V37.9268Z" fill="#1363DF"/>
</svg>
