<svg width="50" height="50" viewBox="0 0 50 50" fill="none" xmlns="http://www.w3.org/2000/svg">
<rect width="50" height="50" rx="25" fill="#12BB6A"/>
<path d="M37.0287 22.7263C37.5887 22.3404 38.0287 21.8579 38.3487 21.2789C38.6687 20.7 38.8287 20.1018 38.8287 19.4842C38.8287 18.3263 38.4287 17.3614 37.6287 16.5895C36.8287 15.8175 35.8687 15.4316 34.7487 15.4316C33.6287 15.4316 32.6687 15.8175 31.8687 16.5895C31.0687 17.3614 30.6687 18.3263 30.6687 19.4842C30.6687 20.1018 30.8087 20.7 31.0887 21.2789C31.3687 21.8579 31.7887 22.3404 32.3487 22.7263C31.4687 23.0351 30.6687 23.4596 29.9487 24C28.9887 23.2281 27.8687 22.6491 26.5887 22.2632C27.3887 21.8772 28.0087 21.2982 28.4487 20.5263C28.8887 19.7544 29.1087 18.9053 29.1087 17.9789C29.1087 16.5895 28.6087 15.4123 27.6087 14.4474C26.6087 13.4825 25.3887 13 23.9487 13C22.5087 13 21.2687 13.4825 20.2287 14.4474C19.1887 15.4123 18.6687 16.5895 18.6687 17.9789C18.6687 18.9053 18.9087 19.7544 19.3887 20.5263C19.8687 21.2982 20.4687 21.8772 21.1887 22.2632C19.9887 22.6491 18.9087 23.2281 17.9487 24C17.2287 23.3825 16.4287 22.9579 15.5487 22.7263C16.1087 22.3404 16.5287 21.8579 16.8087 21.2789C17.0887 20.7 17.2287 20.1018 17.2287 19.4842C17.2287 18.3263 16.8287 17.3614 16.0287 16.5895C15.2287 15.8175 14.2687 15.4316 13.1487 15.4316C12.0287 15.4316 11.0687 15.8175 10.2687 16.5895C9.46873 17.3614 9.06873 18.3263 9.06873 19.4842C9.06873 20.1018 9.22873 20.7 9.54873 21.2789C9.86873 21.8579 10.2687 22.3404 10.7487 22.7263C9.38873 23.1895 8.24873 24.0193 7.32873 25.2158C6.40873 26.4123 5.94873 27.7439 5.94873 29.2105V29.7895H14.7087C14.6287 30.1754 14.5887 30.5614 14.5887 30.9474V31.4105C14.5887 32.414 14.9687 33.2632 15.7287 33.9579C16.4887 34.6526 17.3887 35 18.4287 35H29.4687C30.5087 35 31.3887 34.6526 32.1087 33.9579C32.8287 33.2632 33.1887 32.414 33.1887 31.4105V30.9474C33.1887 30.5614 33.1887 30.1754 33.1887 29.7895L41.9487 29.6737V29.2105C41.9487 27.7439 41.4887 26.4123 40.5687 25.2158C39.6487 24.0193 38.4687 23.1895 37.0287 22.7263ZM31.7487 19.3684C31.7487 18.5965 32.0487 17.9404 32.6487 17.4C33.2487 16.8596 33.9487 16.5895 34.7487 16.5895C35.5487 16.5895 36.2487 16.8596 36.8487 17.4C37.4487 17.9404 37.7487 18.6158 37.7487 19.4263C37.7487 20.2368 37.4487 20.9123 36.8487 21.4526C36.2487 21.993 35.5487 22.2632 34.7487 22.2632H34.6287C33.8287 22.2632 33.1487 21.993 32.5887 21.4526C32.0287 20.9123 31.7487 20.2175 31.7487 19.3684ZM19.8687 17.9789C19.8687 16.8982 20.2687 15.9719 21.0687 15.2C21.8687 14.4281 22.8287 14.0421 23.9487 14.0421C25.0687 14.0421 26.0087 14.4281 26.7687 15.2C27.5287 15.9719 27.9087 16.8982 27.9087 17.9789C27.9087 19.0596 27.5487 19.9667 26.8287 20.7C26.1087 21.4333 25.2287 21.8386 24.1887 21.9158H23.7087C22.5887 21.8386 21.6687 21.4333 20.9487 20.7C20.2287 19.9667 19.8687 19.0596 19.8687 17.9789ZM10.1487 19.3684C10.1487 18.5965 10.4487 17.9404 11.0487 17.4C11.6487 16.8596 12.3487 16.5895 13.1487 16.5895C13.9487 16.5895 14.6487 16.8596 15.2487 17.4C15.8487 17.9404 16.1487 18.6158 16.1487 19.4263C16.1487 20.2368 15.8687 20.9123 15.3087 21.4526C14.7487 21.993 14.0287 22.2632 13.1487 22.2632H13.0287C12.2287 22.2632 11.5487 21.993 10.9887 21.4526C10.4287 20.9123 10.1487 20.2175 10.1487 19.3684ZM14.8287 28.6316H7.14873C7.30873 27.1649 7.94873 25.9298 9.06873 24.9263C10.1887 23.9228 11.5487 23.4211 13.1487 23.4211C14.6687 23.4211 15.9887 23.8842 17.1087 24.8105C15.9887 25.8912 15.2287 27.1649 14.8287 28.6316ZM32.1087 31.4105C32.1087 32.1053 31.8487 32.7035 31.3287 33.2053C30.8087 33.707 30.1887 33.9579 29.4687 33.9579H18.4287C17.7087 33.9579 17.0887 33.707 16.5687 33.2053C16.0487 32.7035 15.7887 32.1053 15.7887 31.4105V30.9474C15.7887 29.4807 16.1287 28.1684 16.8087 27.0105C17.4887 25.8526 18.4487 24.907 19.6887 24.1737C20.9287 23.4404 22.2687 23.0737 23.7087 23.0737H24.1887C25.6287 23.0737 26.9487 23.4404 28.1487 24.1737C29.3487 24.907 30.3087 25.8526 31.0287 27.0105C31.7487 28.1684 32.1087 29.4807 32.1087 30.9474V31.4105ZM32.9487 28.6316C32.5487 27.1649 31.8287 25.8912 30.7887 24.8105C31.9087 23.8842 33.1887 23.4211 34.6287 23.4211H34.7487C36.3487 23.4211 37.7087 23.9228 38.8287 24.9263C39.9487 25.9298 40.5887 27.1649 40.7487 28.6316H32.9487Z" fill="white"/>
</svg>
