<svg width="11" height="14" viewBox="0 0 11 14" fill="none" xmlns="http://www.w3.org/2000/svg">
<path d="M5.25 0C3.0625 0 1.3125 1.75 1.3125 3.9375V5.6875C0.56875 5.6875 0 6.25625 0 7V12.6875C0 13.4313 0.56875 14 1.3125 14H9.1875C9.93125 14 10.5 13.4313 10.5 12.6875V7C10.5 6.25625 9.93125 5.6875 9.1875 5.6875V3.9375C9.1875 1.75 7.4375 0 5.25 0ZM9.625 7V12.6875C9.625 12.95 9.45 13.125 9.1875 13.125H1.3125C1.05 13.125 0.875 12.95 0.875 12.6875V7C0.875 6.7375 1.05 6.5625 1.3125 6.5625H1.75H8.75H9.1875C9.45 6.5625 9.625 6.7375 9.625 7ZM2.1875 5.6875V3.9375C2.1875 2.23125 3.54375 0.875 5.25 0.875C6.95625 0.875 8.3125 2.23125 8.3125 3.9375V5.6875H2.1875Z" fill="#8E8C94"/>
<path d="M5.25 7.875C4.50625 7.875 3.9375 8.44375 3.9375 9.1875C3.9375 9.75625 4.2875 10.2375 4.8125 10.4125V11.375C4.8125 11.6375 4.9875 11.8125 5.25 11.8125C5.5125 11.8125 5.6875 11.6375 5.6875 11.375V10.4125C6.2125 10.2375 6.5625 9.75625 6.5625 9.1875C6.5625 8.44375 5.99375 7.875 5.25 7.875ZM5.25 9.625C4.9875 9.625 4.8125 9.45 4.8125 9.1875C4.8125 8.925 4.9875 8.75 5.25 8.75C5.5125 8.75 5.6875 8.925 5.6875 9.1875C5.6875 9.45 5.5125 9.625 5.25 9.625Z" fill="#8E8C94"/>
</svg>
