<svg width="13" height="15" viewBox="0 0 13 15" fill="none" xmlns="http://www.w3.org/2000/svg">
<path d="M8.55859 8.84253C10.582 8.84253 12.25 10.5105 12.25 12.5339V13.2175C12.25 13.9558 11.6484 14.53 10.9375 14.53H1.3125C0.574219 14.53 0 13.9558 0 13.2175V12.5339C0 10.5105 1.64062 8.84253 3.66406 8.84253C4.45703 8.84253 4.8125 9.28003 6.125 9.28003C7.41016 9.28003 7.76562 8.84253 8.55859 8.84253ZM10.9375 13.2175V12.5339C10.9375 11.2214 9.87109 10.155 8.55859 10.155C8.14844 10.155 7.51953 10.5925 6.125 10.5925C4.70312 10.5925 4.07422 10.155 3.66406 10.155C2.35156 10.155 1.3125 11.2214 1.3125 12.5339V13.2175H10.9375ZM6.125 8.40503C3.9375 8.40503 2.1875 6.65503 2.1875 4.46753C2.1875 2.30737 3.9375 0.530029 6.125 0.530029C8.28516 0.530029 10.0625 2.30737 10.0625 4.46753C10.0625 6.65503 8.28516 8.40503 6.125 8.40503ZM6.125 1.84253C4.67578 1.84253 3.5 3.04565 3.5 4.46753C3.5 5.91675 4.67578 7.09253 6.125 7.09253C7.54688 7.09253 8.75 5.91675 8.75 4.46753C8.75 3.04565 7.54688 1.84253 6.125 1.84253Z" fill="#8E8C94"/>
</svg>
