<svg width="14" height="11" viewBox="0 0 14 11" fill="none" xmlns="http://www.w3.org/2000/svg">
<path d="M12.6875 0.0900879C13.3984 0.0900879 14 0.69165 14 1.40259V9.27759C14 10.0159 13.3984 10.5901 12.6875 10.5901H1.3125C0.574219 10.5901 0 10.0159 0 9.27759V1.40259C0 0.69165 0.574219 0.0900879 1.3125 0.0900879H12.6875ZM12.6875 1.40259H1.3125V2.52368C1.91406 3.04321 2.89844 3.80884 4.97656 5.44946C5.44141 5.80493 6.34375 6.67993 7 6.65259C7.62891 6.67993 8.53125 5.80493 8.99609 5.44946C11.0742 3.80884 12.0586 3.04321 12.6875 2.52368V1.40259ZM1.3125 9.27759H12.6875V4.21899C12.0586 4.71118 11.1562 5.42212 9.81641 6.48853C9.1875 6.95337 8.14844 7.99243 7 7.96509C5.82422 7.99243 4.75781 6.95337 4.15625 6.48853C2.81641 5.42212 1.91406 4.71118 1.3125 4.21899V9.27759Z" fill="#8E8C94"/>
</svg>
