<svg width="13" height="13" viewBox="0 0 13 13" fill="none" xmlns="http://www.w3.org/2000/svg">
<path d="M6.60498 3.19531C8.32764 3.19531 9.74951 4.61719 9.74951 6.33984C9.74951 8.08984 8.32764 9.48438 6.60498 9.48438C4.85498 9.48438 3.46045 8.08984 3.46045 6.33984C3.46045 4.61719 4.85498 3.19531 6.60498 3.19531ZM6.60498 8.39062C7.72607 8.39062 8.62842 7.48828 8.62842 6.33984C8.62842 5.21875 7.72607 4.31641 6.60498 4.31641C5.45654 4.31641 4.5542 5.21875 4.5542 6.33984C4.5542 7.48828 5.48389 8.39062 6.60498 8.39062ZM10.5972 3.08594C10.5972 3.49609 10.269 3.82422 9.85889 3.82422C9.44873 3.82422 9.12061 3.49609 9.12061 3.08594C9.12061 2.67578 9.44873 2.34766 9.85889 2.34766C10.269 2.34766 10.5972 2.67578 10.5972 3.08594ZM12.6753 3.82422C12.73 4.83594 12.73 7.87109 12.6753 8.88281C12.6206 9.86719 12.4019 10.7148 11.6909 11.4531C10.98 12.1641 10.105 12.3828 9.12061 12.4375C8.10889 12.4922 5.07373 12.4922 4.06201 12.4375C3.07764 12.3828 2.22998 12.1641 1.4917 11.4531C0.780762 10.7148 0.562012 9.86719 0.507324 8.88281C0.452637 7.87109 0.452637 4.83594 0.507324 3.82422C0.562012 2.83984 0.780762 1.96484 1.4917 1.25391C2.22998 0.542969 3.07764 0.324219 4.06201 0.269531C5.07373 0.214844 8.10889 0.214844 9.12061 0.269531C10.105 0.324219 10.98 0.542969 11.6909 1.25391C12.4019 1.96484 12.6206 2.83984 12.6753 3.82422ZM11.3628 9.94922C11.6909 9.15625 11.6089 7.24219 11.6089 6.33984C11.6089 5.46484 11.6909 3.55078 11.3628 2.73047C11.144 2.21094 10.7339 1.77344 10.2144 1.58203C9.39404 1.25391 7.47998 1.33594 6.60498 1.33594C5.70264 1.33594 3.78857 1.25391 2.99561 1.58203C2.44873 1.80078 2.03857 2.21094 1.81982 2.73047C1.4917 3.55078 1.57373 5.46484 1.57373 6.33984C1.57373 7.24219 1.4917 9.15625 1.81982 9.94922C2.03857 10.4961 2.44873 10.9062 2.99561 11.125C3.78857 11.4531 5.70264 11.3711 6.60498 11.3711C7.47998 11.3711 9.39404 11.4531 10.2144 11.125C10.7339 10.9062 11.1714 10.4961 11.3628 9.94922Z" fill="black"/>
</svg>
