<svg width="11" height="12" viewBox="0 0 11 12" fill="none" xmlns="http://www.w3.org/2000/svg">
<path d="M5.56006 3.30469C7.03662 3.30469 8.25537 4.52344 8.25537 6C8.25537 7.5 7.03662 8.69531 5.56006 8.69531C4.06006 8.69531 2.86475 7.5 2.86475 6C2.86475 4.52344 4.06006 3.30469 5.56006 3.30469ZM5.56006 7.75781C6.521 7.75781 7.29443 6.98438 7.29443 6C7.29443 5.03906 6.521 4.26562 5.56006 4.26562C4.57568 4.26562 3.80225 5.03906 3.80225 6C3.80225 6.98438 4.59912 7.75781 5.56006 7.75781ZM8.98193 3.21094C8.98193 3.5625 8.70068 3.84375 8.34912 3.84375C7.99756 3.84375 7.71631 3.5625 7.71631 3.21094C7.71631 2.85938 7.99756 2.57812 8.34912 2.57812C8.70068 2.57812 8.98193 2.85938 8.98193 3.21094ZM10.7632 3.84375C10.8101 4.71094 10.8101 7.3125 10.7632 8.17969C10.7163 9.02344 10.5288 9.75 9.91943 10.3828C9.31006 10.9922 8.56006 11.1797 7.71631 11.2266C6.84912 11.2734 4.24756 11.2734 3.38037 11.2266C2.53662 11.1797 1.81006 10.9922 1.17725 10.3828C0.567871 9.75 0.380371 9.02344 0.333496 8.17969C0.286621 7.3125 0.286621 4.71094 0.333496 3.84375C0.380371 3 0.567871 2.25 1.17725 1.64062C1.81006 1.03125 2.53662 0.84375 3.38037 0.796875C4.24756 0.75 6.84912 0.75 7.71631 0.796875C8.56006 0.84375 9.31006 1.03125 9.91943 1.64062C10.5288 2.25 10.7163 3 10.7632 3.84375ZM9.63818 9.09375C9.91943 8.41406 9.84912 6.77344 9.84912 6C9.84912 5.25 9.91943 3.60938 9.63818 2.90625C9.45068 2.46094 9.09912 2.08594 8.65381 1.92188C7.95068 1.64062 6.31006 1.71094 5.56006 1.71094C4.78662 1.71094 3.146 1.64062 2.46631 1.92188C1.99756 2.10938 1.646 2.46094 1.4585 2.90625C1.17725 3.60938 1.24756 5.25 1.24756 6C1.24756 6.77344 1.17725 8.41406 1.4585 9.09375C1.646 9.5625 1.99756 9.91406 2.46631 10.1016C3.146 10.3828 4.78662 10.3125 5.56006 10.3125C6.31006 10.3125 7.95068 10.3828 8.65381 10.1016C9.09912 9.91406 9.47412 9.5625 9.63818 9.09375Z" fill="#333333"/>
</svg>
