<svg width="16" height="16" viewBox="0 0 16 16" fill="none" xmlns="http://www.w3.org/2000/svg">
<g clip-path="url(#clip0_1_28261)">
<path d="M9.81333 6.50667H2.29333C2.22222 6.50667 2.16889 6.53333 2.13333 6.58667C2.09778 6.64 2.08 6.70222 2.08 6.77333C2.08 6.84444 2.09778 6.89778 2.13333 6.93333C2.16889 6.96889 2.22222 6.98667 2.29333 6.98667H9.81333C9.88444 6.98667 9.94667 6.96889 10 6.93333C10.0533 6.89778 10.08 6.84444 10.08 6.77333C10.08 6.70222 10.0533 6.64 10 6.58667C9.94667 6.53333 9.88444 6.50667 9.81333 6.50667ZM9.81333 4.48H2.29333C2.22222 4.48 2.16889 4.50667 2.13333 4.56C2.09778 4.61333 2.08 4.67556 2.08 4.74667C2.08 4.81778 2.09778 4.88 2.13333 4.93333C2.16889 4.98667 2.22222 5.01333 2.29333 5.01333H9.81333C9.88444 5.01333 9.94667 4.98667 10 4.93333C10.0533 4.88 10.08 4.81778 10.08 4.74667C10.08 4.67556 10.0533 4.61333 10 4.56C9.94667 4.50667 9.88444 4.48 9.81333 4.48ZM9.81333 8.48H2.29333C2.22222 8.48 2.16889 8.50667 2.13333 8.56C2.09778 8.61333 2.08 8.67556 2.08 8.74667C2.08 8.81778 2.09778 8.88 2.13333 8.93333C2.16889 8.98667 2.22222 9.01333 2.29333 9.01333H9.81333C9.88444 9.01333 9.94667 8.98667 10 8.93333C10.0533 8.88 10.08 8.81778 10.08 8.74667C10.08 8.67556 10.0533 8.61333 10 8.56C9.94667 8.50667 9.88444 8.48 9.81333 8.48ZM9.81333 10.5067H2.29333C2.22222 10.5067 2.16889 10.5333 2.13333 10.5867C2.09778 10.64 2.08 10.7022 2.08 10.7733C2.08 10.8444 2.09778 10.8978 2.13333 10.9333C2.16889 10.9689 2.22222 10.9867 2.29333 10.9867H9.81333C9.88444 10.9867 9.94667 10.9689 10 10.9333C10.0533 10.8978 10.08 10.8444 10.08 10.7733C10.08 10.7022 10.0533 10.64 10 10.5867C9.94667 10.5333 9.88444 10.5067 9.81333 10.5067ZM7.78667 12.48H2.29333C2.22222 12.48 2.16889 12.5067 2.13333 12.56C2.09778 12.6133 2.08 12.6756 2.08 12.7467C2.08 12.8178 2.09778 12.88 2.13333 12.9333C2.16889 12.9867 2.22222 13.0133 2.29333 13.0133H7.78667C7.85778 13.0133 7.92 12.9867 7.97333 12.9333C8.02667 12.88 8.05333 12.8178 8.05333 12.7467C8.05333 12.6756 8.02667 12.6133 7.97333 12.56C7.92 12.5067 7.85778 12.48 7.78667 12.48ZM12 3.09333C11.9644 3.09333 11.4489 2.59556 10.4533 1.6L8.90667 0.0533333C8.87111 0.0177774 8.72889 0 8.48 0H1.28C0.924444 0 0.622222 0.124444 0.373333 0.373333C0.124444 0.622222 0 0.924444 0 1.28V14.7733C0 15.0933 0.124444 15.3778 0.373333 15.6267C0.622222 15.8756 0.924444 16 1.28 16H10.7733C11.1289 16 11.4222 15.8756 11.6533 15.6267C11.8844 15.3778 12 15.0933 12 14.7733V3.68C12 3.32444 12 3.14667 12 3.14667V3.09333ZM11.1467 2.98667H9.01333V0.853333L11.1467 2.98667ZM10.7733 15.52H1.28C1.06667 15.52 0.888889 15.44 0.746667 15.28C0.604444 15.12 0.533333 14.9511 0.533333 14.7733V1.28C0.533333 1.06667 0.604444 0.879999 0.746667 0.719999C0.888889 0.559999 1.06667 0.48 1.28 0.48H8.53333V3.25333C8.53333 3.32444 8.56 3.38667 8.61333 3.44C8.66667 3.49333 8.72889 3.52 8.8 3.52H11.52V14.7733C11.52 14.9511 11.4489 15.12 11.3067 15.28C11.1644 15.44 10.9867 15.52 10.7733 15.52Z" fill="#002147"/>
</g>
<defs>
<clipPath id="clip0_1_28261">
<rect width="16" height="16" fill="white" transform="matrix(1 0 0 -1 0 16)"/>
</clipPath>
</defs>
</svg>
