<svg width="15" height="21" viewBox="0 0 15 21" fill="none" xmlns="http://www.w3.org/2000/svg">
<path d="M3.42969 14H0.705078V5.24023H3.42969V14ZM2.05273 4.06836C1.20312 4.06836 0.5 3.33594 0.5 2.45703C0.5 1.60742 1.20312 0.904297 2.05273 0.904297C2.93164 0.904297 3.63477 1.60742 3.63477 2.45703C3.63477 3.33594 2.93164 4.06836 2.05273 4.06836ZM13.5957 14H10.9004V9.75195C10.9004 8.72656 10.8711 7.4375 9.46484 7.4375C8.05859 7.4375 7.85352 8.52148 7.85352 9.66406V14H5.12891V5.24023H7.73633V6.44141H7.76562C8.14648 5.76758 9.02539 5.03516 10.3438 5.03516C13.0977 5.03516 13.625 6.85156 13.625 9.19531V14H13.5957Z" fill="#E7EFFC"/>
</svg>
