<svg width="40" height="40" viewBox="0 0 40 40" fill="none" xmlns="http://www.w3.org/2000/svg">
<path fill-rule="evenodd" clip-rule="evenodd" d="M40 20C40 8.95606 31.0439 0 20 0C8.95606 0 0 8.95606 0 20C0 31.0439 8.95606 40 20 40C31.0439 40 40 31.0439 40 20ZM19.8318 26.623L24.4258 22.029H9.47087C8.88945 22.029 8.40425 21.5438 8.40425 20.9624V19.0376C8.40425 18.4562 8.88346 17.971 9.47087 17.971H24.4258L19.8318 13.3772C19.4165 12.9617 19.4165 12.2841 19.8318 11.8687L21.1928 10.5077C21.6082 10.0924 22.2909 10.0973 22.7013 10.5077L31.2879 19.0943C31.5309 19.3373 31.6299 19.6776 31.585 20C31.6299 20.3224 31.5309 20.6628 31.2879 20.9058L22.7013 29.4924C22.2909 29.9028 21.6082 29.9077 21.1928 29.4924L19.8318 28.1315C19.4165 27.7161 19.4165 27.0384 19.8318 26.623Z" fill="black"/>
</svg>
