<svg width="10" height="12" viewBox="0 0 10 12" fill="none" xmlns="http://www.w3.org/2000/svg">
<path d="M4.87122 0.164062C7.07434 0.164062 9.08997 1.6875 9.08997 4.00781C9.08997 6.1875 7.96497 8.625 5.48059 8.625C4.87122 8.625 4.14465 8.32031 3.83997 7.78125C3.32434 9.89062 3.34778 10.2188 2.1759 11.8359C2.05872 11.8828 2.08215 11.8828 2.01184 11.7891C1.96497 11.3438 1.91809 10.9219 1.91809 10.4766C1.91809 9.04688 2.57434 6.96094 2.90247 5.57812C2.71497 5.20312 2.66809 4.78125 2.66809 4.38281C2.66809 2.50781 4.87122 2.22656 4.87122 3.77344C4.87122 4.6875 4.2384 5.55469 4.2384 6.44531C4.2384 7.03125 4.75403 7.45312 5.33997 7.45312C6.95715 7.45312 7.44934 5.13281 7.44934 3.89062C7.44934 2.22656 6.27747 1.3125 4.66028 1.3125C2.80872 1.3125 1.37903 2.64844 1.37903 4.52344C1.37903 5.4375 1.94153 5.90625 1.94153 6.11719C1.94153 6.30469 1.8009 6.9375 1.56653 6.9375C1.00403 6.9375 0.0899658 6 0.0899658 4.35938C0.0899658 1.75781 2.45715 0.164062 4.87122 0.164062Z" fill="#333333"/>
</svg>
