<svg width="53" height="54" viewBox="0 0 53 54" fill="none" xmlns="http://www.w3.org/2000/svg">
<g clip-path="url(#clip0_199_2590)">
<path d="M19.0867 27.0867C18.9089 27.0867 18.7667 27.0244 18.66 26.9C18.5533 26.7756 18.5 26.6333 18.5 26.4733C18.5 26.3133 18.5533 26.18 18.66 26.0733C18.7667 25.9667 18.9089 25.9133 19.0867 25.9133H25.9133V19.0867C25.9133 18.9089 25.9756 18.7667 26.1 18.66C26.2244 18.5533 26.3578 18.5 26.5 18.5C26.6422 18.5 26.7756 18.5533 26.9 18.66C27.0244 18.7667 27.0867 18.9089 27.0867 19.0867V25.9133H33.9133C34.0911 25.9133 34.2333 25.9756 34.34 26.1C34.4467 26.2244 34.5 26.3578 34.5 26.5C34.5 26.6422 34.4467 26.7756 34.34 26.9C34.2333 27.0244 34.0911 27.0867 33.9133 27.0867H27.0867V33.9133C27.0867 34.0911 27.0244 34.2333 26.9 34.34C26.7756 34.4467 26.6422 34.5 26.5 34.5C26.3578 34.5 26.2244 34.4467 26.1 34.34C25.9756 34.2333 25.9133 34.0911 25.9133 33.9133V27.0867H19.0867Z" fill="white"/>
</g>
<rect x="1" y="1.5" width="51" height="51" stroke="white" stroke-width="2"/>
<defs>
<clipPath id="clip0_199_2590">
<rect width="16" height="16" fill="white" transform="matrix(1 0 0 -1 18.5 34.5)"/>
</clipPath>
</defs>
</svg>
