<svg width="12" height="11" viewBox="0 0 12 11" fill="none" xmlns="http://www.w3.org/2000/svg">
<path d="M5.74927 0.271484C5.88989 0.146484 6.02271 0.146484 6.14771 0.271484L11.0461 5.19336C11.1868 5.31836 11.1868 5.44336 11.0461 5.56836L6.14771 10.4902C6.02271 10.6152 5.88989 10.6152 5.74927 10.4902L5.28052 10.0215C5.23364 9.97461 5.21021 9.91211 5.21021 9.83398C5.21021 9.75586 5.23364 9.68555 5.28052 9.62305L8.91333 5.99023H0.921143C0.733643 5.99023 0.639893 5.89648 0.639893 5.70898V5.05273C0.639893 4.86523 0.733643 4.77148 0.921143 4.77148H8.91333L5.28052 1.13867C5.15552 0.998047 5.15552 0.865234 5.28052 0.740234L5.74927 0.271484Z" fill="white"/>
</svg>
