<svg width="25" height="31" viewBox="0 0 25 31" fill="none" xmlns="http://www.w3.org/2000/svg">
<path d="M21.2168 0.0830785V4.58205H24.9454V30.8362L24.2367 30.867H6.08674C5.03904 30.867 4.05297 30.6103 3.12852 30.0967C2.22462 29.5831 1.49534 28.8847 0.940669 28.0012C0.406542 27.1384 0.139484 26.1832 0.139484 25.1355C0.0778543 18.2946 0.0778543 11.4332 0.139484 4.55122C0.139484 3.21592 0.570891 2.14767 1.43371 1.34648C2.29652 0.524756 3.43667 0.103621 4.85415 0.0830785C6.70304 0.0419917 9.47637 0.0317209 13.1742 0.0522637H20.4465L21.2168 0.0830785ZM23.6204 29.1722V6.1536H21.2168V22.7319H16.8103C12.0237 22.7114 8.43894 22.7217 6.05593 22.7627C5.25474 22.7834 4.38165 22.9887 3.43667 23.379C2.82037 23.6667 2.37869 24.1084 2.11163 24.7041C1.86511 25.2999 1.79321 25.9778 1.89593 26.7378C1.9781 27.3336 2.22462 27.8267 2.63548 28.217C3.04635 28.6279 3.59074 28.8949 4.26867 29.0181C4.74117 29.1209 5.17257 29.1722 5.56289 29.1722H23.6204ZM11.9108 9.48159C10.4727 9.48159 9.02443 9.48159 7.56585 9.48159C7.2988 9.48159 7.08309 9.52268 6.91874 9.60485C6.77495 9.68703 6.70304 9.85137 6.70304 10.0979C6.70304 10.5704 6.99065 10.7861 7.56585 10.745H16.2248C16.5124 10.745 16.7281 10.7039 16.872 10.6217C17.0773 10.519 17.1698 10.3444 17.1493 10.0979C17.1493 9.85137 17.0568 9.67676 16.872 9.57405C16.7281 9.51241 16.5227 9.48159 16.2557 9.48159H11.9108ZM11.9108 7.41701C12.2394 7.41701 12.7221 7.41701 13.3591 7.41701C14.6533 7.39646 15.6187 7.39646 16.2557 7.41701C16.5432 7.41701 16.7487 7.3862 16.872 7.32455C17.0568 7.22185 17.1493 7.04722 17.1493 6.8007C17.1698 6.53365 17.0773 6.34876 16.872 6.24604C16.7281 6.16387 16.5124 6.12278 16.2248 6.12278H7.62748C7.33987 6.12278 7.12417 6.16387 6.98037 6.24604C6.79548 6.34876 6.70304 6.53365 6.70304 6.8007C6.70304 7.06777 6.80576 7.24239 7.01119 7.32455C7.13445 7.3862 7.35015 7.41701 7.6583 7.41701C8.29513 7.39646 9.24013 7.39646 10.4933 7.41701H11.9108ZM11.9108 12.8404C10.4522 12.8404 8.98334 12.8404 7.50423 12.8404C7.25771 12.8404 7.06254 12.8815 6.91874 12.9636C6.77495 13.0459 6.70304 13.2101 6.70304 13.4567C6.70304 13.7032 6.77495 13.8676 6.91874 13.9497C7.06254 14.0319 7.26798 14.073 7.53504 14.073H16.3481C16.9028 14.073 17.1698 13.8676 17.1493 13.4567C17.1493 13.2101 17.0773 13.0459 16.9336 12.9636C16.7897 12.8815 16.5843 12.8404 16.3173 12.8404H11.9108ZM21.3093 26.553H5.84022H5.68615C5.48072 26.5736 5.34719 26.5633 5.28556 26.5221C4.93632 26.2551 4.75143 26.0189 4.73089 25.8134C4.71035 25.7108 4.85415 25.5464 5.1623 25.3204L5.28556 25.1971C5.32665 25.1561 5.43963 25.1458 5.62452 25.1663H20.1075C20.5799 25.1663 20.8779 25.1869 21.0011 25.2279C21.186 25.269 21.299 25.382 21.3401 25.5669C21.3606 25.7108 21.3503 26.0394 21.3093 26.553Z" fill="#FF275A"/>
</svg>
