<svg width="32" height="32" viewBox="0 0 32 32" fill="none" xmlns="http://www.w3.org/2000/svg">
<path d="M28.1409 30.4025C28.1204 30.0943 28.0793 29.6424 28.0177 29.0466L27.956 28.3687C27.73 26.5609 27.4117 24.825 27.0008 23.161C26.898 22.8117 26.7337 22.3085 26.5077 21.6511L26.3845 21.2505C26.0352 20.1411 25.2032 19.3296 23.8885 18.8161C23.5392 18.6723 23.0052 18.4976 22.2861 18.2922C21.7109 18.1279 21.2795 17.9944 20.9919 17.8917C20.8891 17.8505 20.8173 17.8403 20.7762 17.8608C20.735 17.8813 20.7042 17.943 20.6837 18.0457C20.4372 19.0318 20.242 19.761 20.0982 20.2336C19.7696 21.4867 19.4716 22.5036 19.2046 23.2842C18.8553 24.3936 18.4754 25.3797 18.0645 26.2425C18.0233 26.4069 17.9617 26.4993 17.8796 26.5198L17.8488 26.489L17.6022 25.2872C17.4174 24.3423 17.2838 23.6437 17.2017 23.1918C17.1812 23.048 17.1297 22.822 17.0476 22.5139C16.9448 22.0208 16.8832 21.6511 16.8627 21.4045C16.8422 20.9936 16.8935 20.6239 17.0168 20.2952C17.0784 20.1308 17.0784 20.0076 17.0168 19.9254C16.9551 19.8227 16.8422 19.72 16.6778 19.6173C16.4313 19.4529 16.2053 19.3708 15.9999 19.3708C15.7945 19.3708 15.5788 19.4529 15.3528 19.6173L15.2911 19.6481C15.1268 19.7714 15.0343 19.8638 15.0138 19.9254C14.9933 19.9666 15.0035 20.1 15.0446 20.326L15.0754 20.6034C15.1576 20.9936 15.1782 21.2916 15.1371 21.497L14.4283 25.2872L14.151 26.6122C13.9456 26.2425 13.7196 25.7289 13.4731 25.0715C13.1033 24.1266 12.7438 23.048 12.3945 21.8359C12.1686 21.1169 11.8604 20.0282 11.4701 18.5696L11.4393 18.3231C11.3982 18.056 11.3366 17.9122 11.2544 17.8917C11.1722 17.8505 10.9873 17.8813 10.6997 17.9841L10.5148 18.0765L9.74447 18.3231C8.77893 18.5901 8.05993 18.8366 7.58743 19.0626C6.70408 19.494 6.07751 20.1616 5.70773 21.0656C5.31741 22.0928 4.98871 23.2431 4.72165 24.5168C4.20808 26.9615 3.93074 29.0671 3.88965 30.8339C3.86911 31.1831 3.94101 31.4399 4.10536 31.6042C4.26971 31.7891 4.53677 31.8816 4.90654 31.8816H27.0008C27.5143 31.8816 27.8636 31.7275 28.0485 31.4194C28.1101 31.2345 28.1409 30.9058 28.1409 30.4333V30.4025ZM10.4224 11.8519C10.5662 11.8931 10.6689 11.9547 10.7305 12.0368C10.7922 12.0985 10.8538 12.2012 10.9154 12.345C11.2441 13.1462 11.5934 13.8241 11.9631 14.3788C12.3945 15.0567 12.8876 15.6217 13.4422 16.0736C14.4489 16.8748 15.4965 17.1932 16.5854 17.0288C17.3454 16.9261 18.085 16.5461 18.804 15.8887C19.8106 14.9642 20.6016 13.7317 21.1768 12.1909L21.2384 12.0677C21.2589 11.9649 21.3 11.9136 21.3617 11.9136C21.526 11.9136 21.6698 11.8725 21.7931 11.7903C21.8752 11.7287 21.9676 11.6362 22.0704 11.513C22.1937 11.3897 22.2861 11.3076 22.3477 11.2665C22.7791 10.9378 22.9229 10.4242 22.7791 9.72573C22.738 9.43812 22.5839 9.30459 22.3169 9.32513C22.1937 9.34567 22.1115 9.33541 22.0704 9.29432C22.0499 9.25323 22.0601 9.18133 22.1012 9.07861C22.2656 8.29797 22.358 7.49678 22.3785 6.67506L22.3169 5.90469C22.2553 5.53491 22.1732 5.2473 22.0704 5.04187C21.9471 4.77482 21.7417 4.55911 21.4541 4.39476C21.3925 4.35367 21.3308 4.2715 21.2692 4.14824L21.2384 4.11743C20.6221 2.94647 19.7798 2.11447 18.7116 1.62143C18.0337 1.31328 17.253 1.12839 16.3697 1.06676C14.0688 0.964046 12.3843 1.7755 11.316 3.50113C11.2749 3.5833 11.1928 3.65521 11.0695 3.71684L11.0079 3.74765C10.5354 3.93254 10.1862 4.25096 9.96017 4.70291C9.69311 5.27812 9.53904 5.89441 9.49795 6.5518C9.47741 7.27082 9.56986 8.12335 9.77528 9.10943C9.81637 9.25323 9.76501 9.32513 9.62121 9.32513C9.43632 9.32513 9.32334 9.41758 9.28225 9.60247C9.1179 10.0339 9.15899 10.4961 9.40551 10.9891C9.65202 11.4616 9.99099 11.7492 10.4224 11.8519ZM11.7474 10.0031C11.7063 9.69491 11.8091 9.48948 12.0556 9.38676C12.1994 9.30459 12.3124 9.32513 12.3945 9.44839C12.4973 9.57165 12.6308 9.61274 12.7951 9.57165C12.8979 9.57165 12.9697 9.59219 13.0108 9.63328C13.0519 9.65382 13.0622 9.71545 13.0417 9.81817C13.0211 10.0031 13.0622 10.1571 13.1649 10.2804C13.2676 10.3831 13.4012 10.4345 13.5655 10.4345C13.7299 10.4139 13.8531 10.342 13.9353 10.2188C14.038 10.0955 14.0791 9.94143 14.0585 9.75654C14.038 9.63328 14.0894 9.57165 14.2126 9.57165H14.3051C14.49 9.57165 14.6132 9.55111 14.6748 9.51002C14.757 9.46893 14.8186 9.48948 14.8597 9.57165C15.0241 9.75654 15.1062 9.96197 15.1062 10.1879C15.1062 10.4139 15.0241 10.6091 14.8597 10.7734C14.264 11.4103 13.5347 11.6465 12.6719 11.4822C12.4254 11.4411 12.2199 11.3076 12.0556 11.0816C11.8912 10.8351 11.7885 10.5474 11.7474 10.2188V10.0031ZM19.6668 13.1154C19.071 14.1836 18.4446 14.9642 17.7871 15.4573C17.1708 15.9092 16.5442 16.1249 15.9074 16.1044C15.2706 16.0633 14.644 15.7859 14.0277 15.2724C13.1855 14.5328 12.4664 13.4748 11.8707 12.0985V11.9752C12.6719 12.345 13.5142 12.3245 14.3975 11.9136C14.8289 11.7081 15.1474 11.4822 15.3528 11.2357C15.5993 10.9275 15.7225 10.5577 15.7225 10.1263C15.743 10.0441 15.7637 9.99278 15.7842 9.97224C15.8253 9.9517 15.8869 9.94143 15.9691 9.94143H16.0923C16.2156 9.96197 16.2875 10.0236 16.308 10.1263C16.4108 10.7632 16.6881 11.2665 17.14 11.6362C17.6126 12.006 18.1774 12.2012 18.8348 12.2217C19.143 12.2217 19.3792 12.2114 19.5436 12.1909L19.8209 12.0985C19.9853 12.0368 20.1086 11.9957 20.1907 11.9752C20.1291 12.1806 20.0058 12.4682 19.8209 12.838L19.6668 13.1154ZM18.9581 11.513C18.3829 11.513 17.8693 11.3486 17.4174 11.0199C17.1092 10.794 16.9448 10.5064 16.9243 10.1571C16.9243 10.0339 16.9756 9.86952 17.0784 9.6641L17.14 9.57165C17.2017 9.51002 17.2838 9.48948 17.3865 9.51002C17.6126 9.53056 17.7768 9.58193 17.8796 9.6641C17.9823 9.72573 18.0337 9.86952 18.0337 10.0955C18.0132 10.2188 18.0645 10.3112 18.1877 10.3728C18.3315 10.4345 18.4754 10.4447 18.6191 10.4037C18.7629 10.3626 18.8657 10.2907 18.9273 10.1879C18.9889 10.0852 19.0094 9.97224 18.9889 9.84898C18.9684 9.72573 18.9786 9.65382 19.0197 9.63328C19.0609 9.59219 19.1327 9.57165 19.2354 9.57165C19.3998 9.57165 19.5231 9.54084 19.6052 9.47921C19.7285 9.37649 19.8517 9.34567 19.975 9.38676C20.1188 9.42785 20.2112 9.53056 20.2523 9.69491C20.3345 9.94143 20.3243 10.2085 20.2215 10.4961C20.1188 10.7837 19.9442 11.0302 19.6977 11.2357C19.4716 11.4205 19.2251 11.513 18.9581 11.513ZM11.9939 5.47328C12.0761 5.39111 12.148 5.39111 12.2097 5.47328C12.7438 6.15121 13.4114 6.63397 14.2126 6.92158C14.87 7.1681 15.6917 7.32217 16.6778 7.3838C17.4379 7.42489 18.1261 7.34271 18.7424 7.13728C19.1122 7.05511 19.2457 6.88049 19.143 6.61343C19.0814 6.49017 18.9992 6.41826 18.8965 6.39773C18.8143 6.37719 18.7013 6.38745 18.5575 6.42854C17.3249 6.77778 16.0512 6.74696 14.7365 6.3361L14.7057 6.30528C14.644 6.28474 14.6029 6.27447 14.5824 6.27447C15.3631 6.37719 16.0307 6.41826 16.5854 6.39773C17.7768 6.35663 18.804 5.99713 19.6668 5.31921C19.7901 5.23704 19.8825 5.20622 19.9442 5.22676C20.0058 5.22676 20.0674 5.28839 20.1291 5.41165C20.4372 5.92523 20.6426 6.57234 20.7454 7.35298C20.807 8.03091 20.8275 8.67802 20.807 9.29432C20.6426 9.0478 20.4372 8.88345 20.1907 8.80128C20.0263 8.76019 19.7696 8.73965 19.4203 8.73965H17.479C17.1297 8.73965 16.8627 8.89372 16.6778 9.20187C16.5545 9.34567 16.421 9.4073 16.2772 9.38676C16.1951 9.34567 16.1026 9.34567 15.9999 9.38676C15.815 9.4073 15.6609 9.39704 15.5377 9.35595C15.4144 9.29432 15.3116 9.1916 15.2295 9.0478C15.1062 8.84237 14.8905 8.73965 14.5824 8.73965H12.3945C12.0864 8.73965 11.8707 8.77047 11.7474 8.8321C11.6447 8.87319 11.4804 8.99645 11.2544 9.20187C11.0284 8.64721 10.9873 7.98982 11.1311 7.22972C11.2955 6.46963 11.5831 5.88415 11.9939 5.47328Z" fill="#44CEA9"/>
</svg>
