<svg width="17" height="16" viewBox="0 0 17 16" fill="none" xmlns="http://www.w3.org/2000/svg">
<g clip-path="url(#clip0_1_28272)">
<path d="M8.02979 7.89328C8.56312 7.57328 8.98979 7.14661 9.30979 6.61328C9.62979 6.07995 9.78979 5.50217 9.78979 4.87995C9.78979 4.25773 9.62979 3.67995 9.30979 3.14661C8.98979 2.61328 8.56312 2.18661 8.02979 1.86661C7.49645 1.54661 6.91867 1.38661 6.29645 1.38661C5.67423 1.38661 5.09645 1.54661 4.56312 1.86661C4.02979 2.18661 3.60312 2.61328 3.28312 3.14661C2.96312 3.67995 2.80312 4.25773 2.80312 4.87995C2.80312 5.50217 2.96312 6.07995 3.28312 6.61328C3.60312 7.14661 4.02979 7.57328 4.56312 7.89328C3.24756 8.21328 2.16312 8.88884 1.30979 9.91995C0.456452 10.9511 0.0297852 12.1066 0.0297852 13.3866V14.2399C0.0297852 14.3466 0.0653407 14.4355 0.136452 14.5066C0.207563 14.5777 0.287563 14.6133 0.376452 14.6133C0.465341 14.6133 0.545341 14.5777 0.616452 14.5066C0.687563 14.4355 0.723118 14.3466 0.723118 14.2399V13.3866C0.723118 12.4977 0.972007 11.6622 1.46979 10.8799C1.96756 10.0977 2.64312 9.48439 3.49645 9.03995C4.34979 8.5955 5.28312 8.37328 6.29645 8.37328C7.30979 8.37328 8.24312 8.5955 9.09645 9.03995C9.94979 9.48439 10.6253 10.0977 11.1231 10.8799C11.6209 11.6622 11.8698 12.4977 11.8698 13.3866V14.2399C11.8698 14.3466 11.9053 14.4355 11.9765 14.5066C12.0476 14.5777 12.1276 14.6133 12.2165 14.6133C12.3053 14.6133 12.3853 14.5777 12.4565 14.5066C12.5276 14.4355 12.5631 14.3466 12.5631 14.2399V13.3866C12.5631 12.1066 12.1365 10.9511 11.2831 9.91995C10.4298 8.88884 9.34534 8.21328 8.02979 7.89328ZM3.49645 4.85328C3.49645 4.10661 3.77201 3.45773 4.32312 2.90661C4.87423 2.3555 5.53201 2.07995 6.29645 2.07995C7.0609 2.07995 7.71867 2.3555 8.26978 2.90661C8.8209 3.45773 9.09645 4.1155 9.09645 4.87995C9.09645 5.64439 8.8209 6.29328 8.26978 6.82661C7.71867 7.35995 7.0609 7.62661 6.29645 7.62661C5.53201 7.62661 4.87423 7.35995 4.32312 6.82661C3.77201 6.29328 3.49645 5.6355 3.49645 4.85328ZM12.6698 7.89328C13.0609 7.64439 13.372 7.3155 13.6031 6.90661C13.8342 6.49773 13.9498 6.04439 13.9498 5.54661C13.9498 4.79995 13.6742 4.15106 13.1231 3.59995C12.572 3.04884 11.9231 2.77328 11.1765 2.77328C11.0698 2.77328 10.9809 2.80884 10.9098 2.87995C10.8387 2.95106 10.8031 3.03106 10.8031 3.11995C10.8031 3.20884 10.8387 3.28884 10.9098 3.35995C10.9809 3.43106 11.0698 3.46661 11.1765 3.46661C11.7453 3.46661 12.2342 3.67106 12.6431 4.07995C13.052 4.48884 13.2565 4.98661 13.2565 5.57328C13.2565 6.15995 13.052 6.64884 12.6431 7.03995C12.2342 7.43106 11.7453 7.62661 11.1765 7.62661C11.0698 7.62661 10.9809 7.66217 10.9098 7.73328C10.8387 7.80439 10.8031 7.89328 10.8031 7.99995C10.8031 8.10661 10.8387 8.1955 10.9098 8.26661C10.9809 8.33773 11.0698 8.37328 11.1765 8.37328C11.9231 8.37328 12.6165 8.54217 13.2565 8.87995C13.8965 9.21773 14.4031 9.67995 14.7765 10.2666C15.1498 10.8533 15.3365 11.5022 15.3365 12.2133V12.8533C15.3365 12.9599 15.372 13.0488 15.4431 13.1199C15.5142 13.1911 15.5942 13.2266 15.6831 13.2266C15.772 13.2266 15.852 13.1911 15.9231 13.1199C15.9942 13.0488 16.0298 12.9599 16.0298 12.8533V12.2133C16.0298 11.2177 15.7187 10.3199 15.0965 9.51995C14.4742 8.71995 13.6653 8.17773 12.6698 7.89328Z" fill="#002147"/>
</g>
<defs>
<clipPath id="clip0_1_28272">
<rect width="16" height="16" fill="white" transform="matrix(1 0 0 -1 0.0297852 16)"/>
</clipPath>
</defs>
</svg>
