<svg width="17" height="16" viewBox="0 0 17 16" fill="none" xmlns="http://www.w3.org/2000/svg">
<g clip-path="url(#clip0_1_28267)">
<path d="M7.36016 0.479882C6.0446 0.479882 4.83571 0.799883 3.73349 1.43988C2.63127 2.07988 1.76016 2.95099 1.12016 4.05322C0.480156 5.15544 0.160156 6.35544 0.160156 7.65322C0.160156 8.95099 0.480156 10.151 1.12016 11.2532C1.76016 12.3554 2.63127 13.2354 3.73349 13.8932C4.83571 14.551 6.0446 14.8799 7.36016 14.8799C8.67571 14.8799 9.8846 14.551 10.9868 13.8932C12.089 13.2354 12.9602 12.3554 13.6002 11.2532C14.2402 10.151 14.5602 8.95099 14.5602 7.65322C14.5602 6.35544 14.2402 5.15544 13.6002 4.05322C12.9602 2.95099 12.089 2.07988 10.9868 1.43988C9.8846 0.799883 8.67571 0.479882 7.36016 0.479882ZM7.36016 1.43988C8.49793 1.43988 9.54682 1.71544 10.5068 2.26655C11.4668 2.81766 12.2224 3.57322 12.7735 4.53322C13.3246 5.49322 13.6002 6.53322 13.6002 7.65322C13.6002 8.77322 13.3246 9.81322 12.7735 10.7732C12.2224 11.7332 11.4668 12.4977 10.5068 13.0665C9.54682 13.6354 8.49793 13.9199 7.36016 13.9199C6.22238 13.9199 5.17349 13.6354 4.21349 13.0665C3.25349 12.4977 2.49793 11.7332 1.94682 10.7732C1.39571 9.81322 1.12016 8.77322 1.12016 7.65322C1.12016 6.53322 1.39571 5.49322 1.94682 4.53322C2.49793 3.57322 3.25349 2.81766 4.21349 2.26655C5.17349 1.71544 6.22238 1.43988 7.36016 1.43988ZM6.40016 4.31988V8.37322C6.40016 8.47988 6.43571 8.57766 6.50682 8.66655C6.57793 8.75544 6.66682 8.81766 6.77349 8.85322L9.49349 9.59988C9.63571 9.63544 9.76016 9.61766 9.86682 9.54655C9.97349 9.47544 10.0446 9.37766 10.0802 9.25322C10.1157 9.12877 10.1068 9.01322 10.0535 8.90655C10.0002 8.79988 9.90238 8.72877 9.76016 8.69322L7.36016 7.99988V4.31988C7.36016 4.17766 7.31571 4.06211 7.22682 3.97322C7.13793 3.88433 7.02238 3.83988 6.88016 3.83988C6.73793 3.83988 6.62238 3.88433 6.53349 3.97322C6.4446 4.06211 6.40016 4.17766 6.40016 4.31988Z" fill="#002147"/>
</g>
<defs>
<clipPath id="clip0_1_28267">
<rect width="16" height="16" fill="white" transform="matrix(1 0 0 -1 0.160156 16)"/>
</clipPath>
</defs>
</svg>
