<svg width="13" height="10" viewBox="0 0 13 10" fill="none" xmlns="http://www.w3.org/2000/svg">
<path d="M11.0579 2.5625C11.0579 2.67969 11.0579 2.77344 11.0579 2.89062C11.0579 6.14844 8.59692 9.875 4.07349 9.875C2.66724 9.875 1.37817 9.47656 0.300049 8.77344C0.487549 8.79688 0.675049 8.82031 0.885986 8.82031C2.03442 8.82031 3.08911 8.42188 3.93286 7.76562C2.85474 7.74219 1.94067 7.03906 1.63599 6.05469C1.80005 6.07812 1.94067 6.10156 2.10474 6.10156C2.31567 6.10156 2.55005 6.05469 2.73755 6.00781C1.61255 5.77344 0.768799 4.78906 0.768799 3.59375V3.57031C1.09692 3.75781 1.49536 3.85156 1.8938 3.875C1.21411 3.42969 0.792236 2.67969 0.792236 1.83594C0.792236 1.36719 0.909424 0.945312 1.12036 0.59375C2.33911 2.07031 4.16724 3.05469 6.2063 3.17188C6.15942 2.98438 6.13599 2.79688 6.13599 2.60938C6.13599 1.25 7.23755 0.148438 8.59692 0.148438C9.30005 0.148438 9.93286 0.429688 10.4016 0.921875C10.9407 0.804688 11.4797 0.59375 11.9485 0.3125C11.761 0.898438 11.386 1.36719 10.8704 1.67188C11.3625 1.625 11.8547 1.48438 12.2766 1.29688C11.9485 1.78906 11.5266 2.21094 11.0579 2.5625Z" fill="#333333"/>
</svg>
