<svg width="16" height="21" viewBox="0 0 16 21" fill="none" xmlns="http://www.w3.org/2000/svg">
<path d="M13.8271 5.32812C13.8271 5.47461 13.8271 5.5918 13.8271 5.73828C13.8271 9.81055 10.751 14.4688 5.09668 14.4688C3.33887 14.4688 1.72754 13.9707 0.379883 13.0918C0.614258 13.1211 0.848633 13.1504 1.1123 13.1504C2.54785 13.1504 3.86621 12.6523 4.9209 11.832C3.57324 11.8027 2.43066 10.9238 2.0498 9.69336C2.25488 9.72266 2.43066 9.75195 2.63574 9.75195C2.89941 9.75195 3.19238 9.69336 3.42676 9.63477C2.02051 9.3418 0.96582 8.11133 0.96582 6.61719V6.58789C1.37598 6.82227 1.87402 6.93945 2.37207 6.96875C1.52246 6.41211 0.995117 5.47461 0.995117 4.41992C0.995117 3.83398 1.1416 3.30664 1.40527 2.86719C2.92871 4.71289 5.21387 5.94336 7.7627 6.08984C7.7041 5.85547 7.6748 5.62109 7.6748 5.38672C7.6748 3.6875 9.05176 2.31055 10.751 2.31055C11.6299 2.31055 12.4209 2.66211 13.0068 3.27734C13.6807 3.13086 14.3545 2.86719 14.9404 2.51562C14.7061 3.24805 14.2373 3.83398 13.5928 4.21484C14.208 4.15625 14.8232 3.98047 15.3506 3.74609C14.9404 4.36133 14.4131 4.88867 13.8271 5.32812Z" fill="#E7EFFC"/>
</svg>
