<svg width="15" height="13" viewBox="0 0 15 13" fill="none" xmlns="http://www.w3.org/2000/svg">
<path d="M12.6509 3.49609C12.6509 3.63281 12.6509 3.74219 12.6509 3.87891C12.6509 7.67969 9.77979 12.0273 4.50244 12.0273C2.86182 12.0273 1.35791 11.5625 0.100098 10.7422C0.318848 10.7695 0.537598 10.7969 0.783691 10.7969C2.12354 10.7969 3.354 10.332 4.33838 9.56641C3.08057 9.53906 2.01416 8.71875 1.65869 7.57031C1.8501 7.59766 2.01416 7.625 2.20557 7.625C2.45166 7.625 2.7251 7.57031 2.94385 7.51562C1.63135 7.24219 0.646973 6.09375 0.646973 4.69922V4.67188C1.02979 4.89062 1.49463 5 1.95947 5.02734C1.1665 4.50781 0.674316 3.63281 0.674316 2.64844C0.674316 2.10156 0.811035 1.60938 1.05713 1.19922C2.479 2.92188 4.61182 4.07031 6.99072 4.20703C6.93604 3.98828 6.90869 3.76953 6.90869 3.55078C6.90869 1.96484 8.19385 0.679688 9.77979 0.679688C10.6001 0.679688 11.3384 1.00781 11.8853 1.58203C12.5142 1.44531 13.1431 1.19922 13.6899 0.871094C13.4712 1.55469 13.0337 2.10156 12.4321 2.45703C13.0063 2.40234 13.5806 2.23828 14.0728 2.01953C13.6899 2.59375 13.1978 3.08594 12.6509 3.49609Z" fill="black"/>
</svg>
