<svg width="15" height="21" viewBox="0 0 15 21" fill="none" xmlns="http://www.w3.org/2000/svg">
<path d="M11.5127 3.74609C12.7432 4.97656 13.5049 6.58789 13.5049 8.3457C13.5049 11.9199 10.5166 14.8496 6.91309 14.8496C5.8291 14.8496 4.77441 14.5566 3.80762 14.0586L0.379883 14.9375L1.28809 11.5684C0.731445 10.6016 0.40918 9.48828 0.40918 8.31641C0.40918 4.74219 3.33887 1.8125 6.91309 1.8125C8.6709 1.8125 10.3115 2.51562 11.5127 3.74609ZM6.91309 13.7363C9.90137 13.7363 12.3916 11.3047 12.3916 8.3457C12.3916 6.88086 11.7764 5.5332 10.751 4.50781C9.72559 3.48242 8.37793 2.92578 6.94238 2.92578C3.9541 2.92578 1.52246 5.35742 1.52246 8.31641C1.52246 9.3418 1.81543 10.3379 2.34277 11.2168L2.48926 11.4219L1.93262 13.4141L3.9834 12.8574L4.15918 12.9746C5.00879 13.4727 5.94629 13.7363 6.91309 13.7363ZM9.90137 9.69336C10.0479 9.78125 10.165 9.81055 10.1943 9.89844C10.2529 9.95703 10.2529 10.2793 10.1064 10.6602C9.95996 11.041 9.31543 11.3926 9.02246 11.4219C8.49512 11.5098 8.08496 11.4805 7.05957 11.0117C5.41895 10.3086 4.36426 8.66797 4.27637 8.58008C4.18848 8.46289 3.63184 7.70117 3.63184 6.88086C3.63184 6.08984 4.04199 5.70898 4.18848 5.5332C4.33496 5.35742 4.51074 5.32812 4.62793 5.32812C4.71582 5.32812 4.83301 5.32812 4.9209 5.32812C5.03809 5.32812 5.15527 5.29883 5.30176 5.62109C5.41895 5.94336 5.77051 6.73438 5.7998 6.82227C5.8291 6.91016 5.8584 6.99805 5.7998 7.11523C5.50684 7.73047 5.15527 7.70117 5.33105 7.99414C5.97559 9.07812 6.59082 9.45898 7.55762 9.92773C7.7041 10.0156 7.79199 9.98633 7.90918 9.89844C7.99707 9.78125 8.31934 9.40039 8.40723 9.25391C8.52441 9.07812 8.6416 9.10742 8.78809 9.16602C8.93457 9.22461 9.72559 9.60547 9.90137 9.69336Z" fill="#E7EFFC"/>
</svg>
