<svg width="14" height="14" viewBox="0 0 14 14" fill="none" xmlns="http://www.w3.org/2000/svg">
<path fill-rule="evenodd" clip-rule="evenodd" d="M11.903 2.03455C10.5932 0.723242 8.85134 0.000769042 6.99564 0C3.17179 0 0.059729 3.11198 0.0581909 6.93685C0.0576782 8.15955 0.377087 9.3531 0.984204 10.4052L0 14L3.67765 13.0353C4.69099 13.588 5.83182 13.8793 6.99282 13.8797H6.99573C10.8192 13.8797 13.9316 10.7675 13.933 6.94241C13.9338 5.08867 13.2128 3.34576 11.903 2.03455ZM6.99564 12.7081H6.99325C5.95863 12.7077 4.94392 12.4296 4.0585 11.9044L3.84803 11.7793L1.66566 12.3519L2.24817 10.2241L2.11102 10.0059C1.53381 9.08787 1.22902 8.02676 1.22953 6.93728C1.23073 3.75814 3.81744 1.17168 6.99795 1.17168C8.53809 1.17219 9.98585 1.77273 11.0745 2.86263C12.1631 3.95254 12.7623 5.40125 12.7618 6.94198C12.7604 10.1214 10.1738 12.7081 6.99564 12.7081ZM10.1585 8.38958C9.98517 8.30276 9.1329 7.88354 8.97396 7.82561C8.8152 7.76776 8.6995 7.73896 8.58406 7.91243C8.46845 8.08589 8.1363 8.47639 8.03513 8.592C7.93396 8.7077 7.83296 8.72223 7.65958 8.63541C7.48621 8.54868 6.92771 8.36556 6.26556 7.77502C5.75031 7.31539 5.40244 6.74775 5.30127 6.57429C5.20027 6.40066 5.30042 6.31589 5.37732 6.22053C5.56497 5.98751 5.75287 5.74321 5.81063 5.6276C5.86848 5.5119 5.83951 5.41064 5.79611 5.32391C5.75287 5.23718 5.4062 4.38397 5.26179 4.03679C5.12097 3.69893 4.97819 3.74456 4.87172 3.73926C4.77072 3.73422 4.6551 3.73319 4.53949 3.73319C4.42396 3.73319 4.23615 3.77651 4.07721 3.95015C3.91836 4.12369 3.47061 4.54299 3.47061 5.3962C3.47061 6.24941 4.09174 7.07366 4.17838 7.18936C4.26503 7.30505 5.40073 9.05591 7.13954 9.80666C7.55311 9.98542 7.87594 10.092 8.12776 10.1719C8.54304 10.3038 8.92081 10.2852 9.21954 10.2406C9.55263 10.1908 10.245 9.82119 10.3896 9.41633C10.534 9.01139 10.534 8.66438 10.4906 8.592C10.4474 8.51971 10.3318 8.47639 10.1585 8.38958Z" fill="black"/>
</svg>
