<svg width="18" height="18" viewBox="0 0 18 18" fill="none" xmlns="http://www.w3.org/2000/svg">
<g clip-path="url(#clip0_1_27734)">
<path d="M17.4727 6.67773H16.3477C16.0564 6.67773 15.8203 6.91384 15.8203 7.20508V14.9395C15.8203 15.2307 16.0564 15.4668 16.3477 15.4668H17.4727C17.7639 15.4668 18 15.2307 18 14.9395V7.20508C18 6.91384 17.7639 6.67773 17.4727 6.67773Z" fill="#072655" fill-opacity="0.5"/>
<path d="M10.1969 3.34958L11.0758 1.82728C11.2699 1.49098 11.1547 1.06095 10.8184 0.866778L10.2095 0.515216C9.87319 0.321048 9.44316 0.43629 9.24902 0.772595L8.37012 2.2949L10.1969 3.34958Z" fill="#072655" fill-opacity="0.5"/>
<path d="M0.626387 12.3501C0.927712 12.5219 1.31222 12.4097 1.48564 12.1093L5.79513 4.64508C5.39312 4.54956 4.96407 4.63453 4.62647 4.88773L3.13349 6.00745C2.69902 6.33332 2.33804 6.74703 2.07409 7.22164L0.156559 10.6696C-0.172609 11.2615 0.033864 12.008 0.620376 12.3467C0.62238 12.3478 0.624384 12.3489 0.626387 12.3501Z" fill="#072655" fill-opacity="0.5"/>
<path d="M3.75327 10.5502H6.03955L9.66936 4.26318L7.84257 3.2085L3.60059 10.5559C3.65111 10.5525 3.70191 10.5502 3.75327 10.5502Z" fill="#072655" fill-opacity="0.5"/>
<path d="M1.70246 13.8428L1.15687 14.7878C1.13121 14.8322 1.11219 14.8802 1.10038 14.9301L0.597255 17.0582C0.500962 17.4655 0.992552 17.7493 1.29715 17.4623L2.8886 15.9626C2.92593 15.9274 2.95796 15.8869 2.98363 15.8424L3.41499 15.0953C2.66191 14.9832 2.02783 14.5023 1.70246 13.8428Z" fill="#072655" fill-opacity="0.5"/>
<path d="M7.95004 15.1201H4.61887L3.92285 16.3256C4.14666 16.5576 4.4605 16.7021 4.80826 16.7021C5.48783 16.7021 6.03873 16.1512 6.03873 15.4716C6.03873 16.1512 6.58963 16.7021 7.2692 16.7021C7.94877 16.7021 8.49967 16.1512 8.49967 15.4716V15.3913C8.37202 15.3329 8.07969 15.1844 7.95004 15.1201Z" fill="#072655" fill-opacity="0.5"/>
<path d="M10.0478 5.71631L7.25702 10.5501H8.08559C8.37682 10.5501 8.61293 10.7862 8.61293 11.0775C8.61293 11.3687 8.37689 11.6048 8.08566 11.6048H3.75293C3.07336 11.6048 2.52246 12.1557 2.52246 12.8353C2.52246 13.5148 3.07336 14.0657 3.75293 14.0657H8.19837L8.78161 14.3571C9.7797 14.8562 10.8977 15.1204 12.0147 15.1204C12.9401 15.1204 13.8968 14.9385 14.7653 14.5925V7.73751H13.9342L10.0478 5.71631Z" fill="#072655" fill-opacity="0.5"/>
</g>
<defs>
<clipPath id="clip0_1_27734">
<rect width="18" height="18" fill="white"/>
</clipPath>
</defs>
</svg>
