<svg width="14" height="10" viewBox="0 0 14 10" fill="none" xmlns="http://www.w3.org/2000/svg">
<path d="M12.8672 1.92969C13.1484 2.91406 13.1484 5.02344 13.1484 5.02344C13.1484 5.02344 13.1484 7.10938 12.8672 8.11719C12.7266 8.67969 12.2812 9.10156 11.7422 9.24219C10.7344 9.5 6.75 9.5 6.75 9.5C6.75 9.5 2.74219 9.5 1.73438 9.24219C1.19531 9.10156 0.75 8.67969 0.609375 8.11719C0.328125 7.10938 0.328125 5.02344 0.328125 5.02344C0.328125 5.02344 0.328125 2.91406 0.609375 1.92969C0.75 1.36719 1.19531 0.921875 1.73438 0.78125C2.74219 0.5 6.75 0.5 6.75 0.5C6.75 0.5 10.7344 0.5 11.7422 0.78125C12.2812 0.921875 12.7266 1.36719 12.8672 1.92969ZM5.4375 6.92188L8.76562 5.02344L5.4375 3.125V6.92188Z" fill="#333333"/>
</svg>
