<svg width="18" height="21" viewBox="0 0 18 21" fill="none" xmlns="http://www.w3.org/2000/svg">
<path d="M16.7139 4.53711C17.0654 5.76758 17.0654 8.4043 17.0654 8.4043C17.0654 8.4043 17.0654 11.0117 16.7139 12.2715C16.5381 12.9746 15.9814 13.502 15.3076 13.6777C14.0479 14 9.06738 14 9.06738 14C9.06738 14 4.05762 14 2.79785 13.6777C2.12402 13.502 1.56738 12.9746 1.3916 12.2715C1.04004 11.0117 1.04004 8.4043 1.04004 8.4043C1.04004 8.4043 1.04004 5.76758 1.3916 4.53711C1.56738 3.83398 2.12402 3.27734 2.79785 3.10156C4.05762 2.75 9.06738 2.75 9.06738 2.75C9.06738 2.75 14.0479 2.75 15.3076 3.10156C15.9814 3.27734 16.5381 3.83398 16.7139 4.53711ZM7.42676 10.7773L11.5869 8.4043L7.42676 6.03125V10.7773Z" fill="#E7EFFC"/>
</svg>
