<svg width="9" height="11" viewBox="0 0 9 11" fill="none" xmlns="http://www.w3.org/2000/svg">
<path d="M8.57582 9.09825C8.57582 9.58486 8.43631 10.0023 8.1573 10.3505C7.87828 10.6987 7.54234 10.8728 7.14948 10.8728H1.43073C1.03788 10.8728 0.701939 10.6987 0.422921 10.3505C0.143903 10.0023 0.00439453 9.58486 0.00439453 9.09825C0.00439453 8.71878 0.0233677 8.36053 0.0613142 8.02347C0.0992606 7.68642 0.169573 7.34713 0.272252 7.00562C0.37493 6.6641 0.505511 6.37169 0.663993 6.12838C0.822475 5.88508 1.0323 5.68642 1.29346 5.5324C1.55462 5.37838 1.85484 5.30137 2.19413 5.30137C2.77895 5.8728 3.47761 6.15852 4.29011 6.15852C5.10261 6.15852 5.80127 5.8728 6.38609 5.30137C6.72538 5.30137 7.0256 5.37838 7.28676 5.5324C7.54792 5.68642 7.75774 5.88508 7.91622 6.12838C8.07471 6.37169 8.20529 6.6641 8.30797 7.00562C8.41064 7.34713 8.48096 7.68642 8.5189 8.02347C8.55685 8.36053 8.57582 8.71878 8.57582 9.09825ZM6.10819 1.34044C6.10819 1.34044 6.23375 1.46599 6.48486 1.71711C6.73598 1.96823 6.86154 2.4487 6.86154 3.15852C6.86154 3.86834 6.61042 4.47437 6.10819 4.9766C5.60596 5.47883 4.99993 5.72995 4.29011 5.72995C3.58029 5.72995 2.97426 5.47883 2.47203 4.9766C1.9698 4.47437 1.71868 3.86834 1.71868 3.15852C1.71868 2.4487 1.9698 1.84267 2.47203 1.34044C2.97426 0.838204 3.58029 0.587089 4.29011 0.587089C4.99993 0.587089 5.60596 0.838204 6.10819 1.34044Z" fill="white"/>
</svg>
