<svg width="206" height="201" viewBox="0 0 206 201" fill="none" xmlns="http://www.w3.org/2000/svg">
<g opacity="0.6">
<path d="M180.436 167.75C148.399 187.994 106.662 192.662 69.5699 182.848C52.5452 178.346 35.7732 170.502 25.1291 157.139C15.5867 145.151 11.8289 129.189 15.0908 114.496C18.3526 99.799 28.5865 86.6275 42.4257 79.293C47.495 76.6034 52.9934 74.6768 57.9435 71.8059C62.8935 68.9303 67.4239 64.853 69.0072 59.5596C71.8112 50.2031 64.7677 40.7561 64.4625 31.0372C64.2526 24.4419 67.3762 17.8132 72.7078 13.5594C78.0393 9.30563 119.542 -0.451394 150.583 18.8195C168.132 29.7162 176.859 52.6734 169.148 71.1526C165.404 80.118 158.313 87.5621 154.665 96.5609C150.902 105.86 151.155 116.552 155.347 125.684C159.543 134.812 167.636 142.28 177.388 146.009C181.795 147.692 187.079 149.118 188.886 153.277C191.304 158.823 185.7 164.426 180.436 167.75Z" fill="#EEF4FF"/>
</g>
<path d="M6.00378 145.547C6.85263 151.689 11.0206 157.631 17.0102 159.224C20.5106 160.154 24.2112 159.577 27.7973 159.062C31.3835 158.542 35.2463 157.812 38.5558 159.29C42.2707 160.95 43.8302 165.695 44.4692 168.928C44.8364 170.774 44.9031 172.128 44.9031 172.128C46.949 169.186 48.6037 166.019 49.548 162.557C50.4874 159.095 50.497 155.294 49.0139 152.032C47.5355 148.77 44.4263 146.157 40.8592 145.785C38.6798 145.561 36.51 146.148 34.3545 146.524C32.1942 146.901 29.8527 147.035 27.9213 146C25.5989 144.755 24.4162 142.142 23.5006 139.676C22.585 137.211 21.6694 134.559 19.5997 132.938C17.5157 131.312 14.5114 131.092 12.0745 132.118C11.5118 132.356 10.9729 132.657 10.4722 133.005C8.81739 134.159 7.53935 135.866 6.78587 137.75C5.79872 140.196 5.64135 142.929 6.00378 145.547Z" fill="#E1E5FF"/>
<path d="M6.00198 145.547C6.85083 151.689 11.0188 157.631 17.0084 159.224C20.5088 160.154 24.2094 159.577 27.7955 159.062C31.3817 158.542 35.2445 157.812 38.554 159.29C42.2689 160.95 43.8283 165.695 44.4674 168.928C44.9538 165.251 42.66 161.432 39.5078 159.314C36.0027 156.963 31.6678 156.262 27.476 155.747C25.2108 155.471 22.9123 155.223 20.752 154.474C18.5965 153.72 16.5506 152.39 15.4061 150.416C13.9755 147.945 14.1424 144.908 14.1662 142.056C14.1901 139.204 13.9135 136.057 11.901 134.035C11.4814 133.615 10.9902 133.262 10.4656 132.995C8.81082 134.149 7.53278 135.856 6.7793 137.74C5.79692 140.196 5.63955 142.929 6.00198 145.547Z" fill="#CCD2FF"/>
<path d="M41.2412 189.072C40.8931 187.794 39.7438 186.711 38.542 186.153C37.3403 185.595 35.8905 185.6 34.6936 186.158C32.7622 187.059 31.6224 189.215 29.6577 190.035C27.4068 190.97 24.493 189.544 23.854 187.188C23.4725 185.781 23.8206 184.293 23.9875 182.839C24.1545 181.389 24.0686 179.754 23.0385 178.714C21.8702 177.536 19.9054 177.598 18.3842 178.256C16.8629 178.914 15.6039 180.054 14.1685 180.884C11.7555 182.281 8.7559 182.763 6.1092 181.88C3.4625 180.998 1.26884 178.676 0.84441 175.919C0.381833 172.929 2.00801 169.896 4.36381 167.994C6.71961 166.091 9.7049 165.151 12.6663 164.541C14.9458 164.069 17.2969 163.764 19.6002 164.093C21.9036 164.422 24.1783 165.442 25.6519 167.245C26.4721 168.251 27.0301 169.472 27.9743 170.369C30.8165 173.072 35.8333 171.775 38.9235 174.193C41.0218 175.834 41.6275 178.733 41.7753 181.389C41.8945 183.654 41.2412 189.072 41.2412 189.072Z" fill="#E1E5FF"/>
<path d="M0.836077 175.92C1.2605 178.676 3.45417 181.008 6.10087 181.881C8.74757 182.758 11.7424 182.277 14.1602 180.884C15.5908 180.054 16.8546 178.919 18.3758 178.256C19.8971 177.598 21.8666 177.536 23.0302 178.709C24.0603 179.744 24.1414 181.385 23.9792 182.834C23.8123 184.284 23.4594 185.772 23.8457 187.184C24.4847 189.535 27.3985 190.965 29.6541 190.026C31.6237 189.21 32.7586 187.05 34.69 186.149C35.8918 185.586 37.3367 185.586 38.5432 186.144C39.745 186.702 40.8943 187.785 41.2424 189.063C41.2424 189.063 41.271 188.805 41.3235 188.376C41.4904 186.845 41.8671 183.154 41.7717 181.385C41.6239 178.724 41.0182 175.829 38.92 174.189C35.8298 171.771 30.813 173.068 27.9707 170.364C27.0265 169.472 26.4685 168.247 25.6483 167.24C24.1795 165.438 21.9 164.417 19.5967 164.088C17.2933 163.764 14.9423 164.069 12.6628 164.541C9.70133 165.152 6.71128 166.091 4.36024 167.994C2.78176 169.267 1.54186 171.046 1.02683 172.977C0.759776 173.931 0.683475 174.933 0.836077 175.92Z" fill="#E1E5FF"/>
<path d="M0.834806 175.921C1.25923 178.677 3.45289 181.009 6.0996 181.882C8.7463 182.759 11.7411 182.277 14.1589 180.885C15.5896 180.055 16.8533 178.92 18.3746 178.257C19.8958 177.599 21.8653 177.537 23.0289 178.71C24.059 179.745 24.1401 181.386 23.9779 182.835C23.811 184.285 23.4581 185.773 23.8444 187.185C24.4834 189.536 27.3972 190.966 29.6529 190.027C31.6224 189.211 32.7574 187.051 34.6887 186.15C35.8905 185.587 37.3354 185.587 38.542 186.145C39.7437 186.703 40.893 187.785 41.2411 189.064C41.2411 189.064 41.2697 188.806 41.3222 188.377C40.8882 187.199 39.8534 186.236 38.7136 185.649C37.2448 184.891 35.5853 184.605 34.002 184.114C32.4235 183.627 30.8212 182.859 29.9294 181.467C29.3381 180.542 29.114 179.431 28.6419 178.443C27.5689 176.207 25.2369 174.762 22.8096 174.232C20.387 173.708 17.8595 173.989 15.4179 174.447C12.9762 174.905 10.5632 175.544 8.0882 175.725C6.10436 175.878 3.96793 175.682 2.37991 174.476C1.83149 174.061 1.38322 173.546 1.02079 172.969C0.758505 173.932 0.682204 174.934 0.834806 175.921Z" fill="#CCD2FF"/>
<path d="M98.4618 54.2291C98.3617 54.7536 98.1805 55.2401 97.9277 55.674C96.993 57.2907 95.1046 58.2206 93.1684 57.8582C90.703 57.3956 89.0815 55.0207 89.5441 52.56C89.9495 50.3854 91.8522 48.8641 93.9934 48.8594C94.2748 48.8594 94.5562 48.8832 94.8423 48.9357C97.2982 49.3935 98.9196 51.7684 98.4618 54.2291Z" fill="#E1E5FF"/>
<path d="M55.0364 145.867L68.4416 178.581L69.5193 181.208C70.7354 184.17 73.797 185.944 76.973 185.519L94.5843 183.164C99.5868 182.491 102.286 176.936 99.7108 172.586L80.6259 140.359C79.4528 137.154 79.7437 133.596 81.4223 130.625L101.656 101.14C92.7483 98.4883 84.8797 97.5298 78.1604 98.4311L71.341 107.568L58.3221 125.017C53.9777 131.055 52.7569 138.79 55.0364 145.867Z" fill="#8D95FF"/>
<path d="M68.4429 178.581L69.5206 181.208C70.7367 184.17 73.7983 185.944 76.9743 185.519L94.5856 183.164C99.5881 182.491 102.287 176.936 99.7121 172.586L80.6272 140.359C79.4541 137.154 79.745 133.596 81.4236 130.625L101.658 101.14C92.7496 98.4883 84.881 97.5298 78.1618 98.4311L71.3423 107.568C71.6046 107.683 71.8812 107.788 72.1673 107.888C73.8412 108.46 75.5961 108.923 77.022 109.962C79.8928 112.065 80.756 116.119 80.0073 119.6C79.2586 123.076 77.1984 126.105 75.1288 128.995C73.0543 131.884 70.8797 134.803 69.8497 138.203C68.4333 142.877 69.3394 147.974 71.1277 152.519C72.916 157.064 75.5437 161.213 77.7421 165.576C78.6386 167.355 79.4732 169.224 79.5924 171.208C79.7164 173.192 78.9915 175.343 77.3272 176.435C74.9571 177.989 71.638 176.959 69.0914 178.204C68.853 178.314 68.6432 178.443 68.4429 178.581Z" fill="#757BFF"/>
<path d="M125.151 131.913L133.501 126.391L138.227 137.355L131.193 142.448L125.151 131.913Z" fill="#FCBBA4"/>
<path d="M93.0677 159.051L127.89 152.875C129.044 152.67 130.04 152.165 130.832 151.459C132.864 149.651 133.55 146.552 132.058 143.953L124.718 131.153C123.068 128.287 119.42 127.286 116.54 128.907L104.127 135.908C112.095 122.474 115.491 117.743 115.767 105.859L93.1583 97.8667L88.7662 108.086L76.0811 137.629C71.2074 148.979 80.8977 161.206 93.0677 159.051Z" fill="#8D95FF"/>
<path d="M88.7729 108.083C90.1511 110.329 92.3543 112.06 94.939 112.699C97.1136 113.238 99.3931 113.033 101.63 113.195C103.866 113.357 106.246 114.001 107.629 115.761C109.203 117.759 109.055 120.611 108.406 123.071C107.328 127.163 105.078 130.93 101.983 133.82C100.333 135.356 98.4489 136.658 97.0087 138.398C95.5733 140.139 94.6243 142.504 95.2919 144.66C96.136 147.378 99.1118 148.747 101.811 149.648C104.176 150.43 106.623 151.107 109.107 151.021C111.592 150.936 114.153 149.987 115.683 148.022C116.723 146.687 117.205 145.008 118.015 143.52C118.826 142.032 120.18 140.625 121.873 140.592C123.538 140.563 124.949 141.899 125.708 143.382C126.466 144.865 126.766 146.543 127.405 148.079C128.049 149.619 129.184 151.117 130.815 151.47L130.834 151.474C132.866 149.667 133.552 146.567 132.06 143.968L124.72 131.169C123.07 128.303 119.422 127.301 116.542 128.923L104.129 135.923C112.097 122.489 115.493 117.759 115.769 105.875L93.1603 97.8823L88.7729 108.083Z" fill="#757BFF"/>
<path d="M91.7734 183.556L93.7047 191.577L84.0622 192.068L81.8828 184.881L91.7734 183.556Z" fill="#FCBBA4"/>
<path d="M81.4029 81.234C77.9932 81.1291 68.8132 79.6889 61.102 73.8948C56.4762 70.4231 52.0364 65.4158 49.1131 61.7915C47.0435 59.2211 45.732 57.3422 45.6605 57.1848C31.106 56.1261 33.2806 51.7865 34.8019 52.7069C36.0418 53.4556 40.2002 54.004 40.4816 54.0374C34.4967 52.5018 34.5682 48.8775 36.7857 50.4703C38.6837 51.8389 42.1888 52.9835 42.4034 53.055C36.8811 49.7693 37.172 47.2227 39.275 48.9442C41.3829 50.661 44.7544 52.1251 44.7544 52.1251C41.9027 50.3463 41.3876 46.9318 44.9881 50.0649C48.5886 53.198 51.8171 52.4064 53.9106 53.5796C59.9765 56.9893 64.6595 67.0467 76.5768 67.6667C77.3303 67.7096 78.1029 67.7096 78.9136 67.6715C80.349 71.7393 80.225 76.4604 78.823 80.986C79.8626 81.1339 80.74 81.2149 81.4029 81.234Z" fill="#FCBBA4"/>
<path d="M81.404 81.2351C77.9943 81.1302 68.8143 79.69 61.1031 73.8958C56.4773 70.4241 52.0376 65.4169 49.1143 61.7925C49.7437 61.7592 50.3732 62.0644 50.9312 62.3791C54.8464 64.6157 57.8984 68.054 61.2223 71.1013C64.5462 74.1438 68.4566 76.9336 72.9441 77.3342C73.8597 77.4152 74.8087 77.3914 75.6576 77.0576C76.5112 76.7238 77.2694 76.037 77.4983 75.15C77.918 73.5334 76.5732 72.0217 76.2155 70.3908C76.0152 69.4751 76.1535 68.5071 76.5732 67.6677C77.3267 67.7107 78.0992 67.7107 78.9099 67.6725C80.3453 71.7403 80.2213 76.4615 78.8193 80.9871C79.8637 81.1349 80.7411 81.216 81.404 81.2351Z" fill="#F2A07C"/>
<path d="M131.429 88.6799C130.389 87.7643 129.297 86.9917 128.038 86.6245C127.995 89.3332 127.533 91.9561 126.636 94.3977C125.635 97.1064 124.104 99.5957 122.011 101.727C122.006 101.727 122.006 101.732 122.001 101.737C119.307 104.474 115.687 106.63 111.095 107.913C92.73 113.053 91.6141 96.1002 72.9346 105.328C75.443 102.228 77.3124 98.2795 78.6905 94.4836C81.0893 87.8501 81.9572 81.6745 82.0097 81.2405C81.9763 81.2405 81.9381 81.2405 81.9 81.2453C81.2133 81.25 80.1546 81.1737 78.8145 80.9878C80.2833 76.2523 80.5218 71.8698 78.867 67.678C80.6076 67.6684 82.3721 67.3298 84.2462 66.8863C85.1189 66.6765 90.1834 65.1362 90.7032 64.9693C92.0624 64.5305 93.3976 64.1776 94.7043 63.9058C96.7549 63.4623 98.7292 63.2048 100.579 63.0808C105.367 62.7422 109.392 63.2716 112.115 63.8486C112.115 63.8486 114.042 64.2921 116.569 65.656C118.167 66.5191 120.012 67.7543 121.753 69.4806C121.753 69.4806 121.772 69.4997 121.81 69.533C122.602 70.2531 131.028 78.1694 131.429 88.6799Z" fill="#FC6054"/>
<path d="M94.7068 63.8999C94.206 64.6105 93.1521 65.1589 92.5894 65.507C91.0395 66.4465 89.399 67.2381 87.6966 67.858C86.719 68.2157 85.727 68.5161 84.7161 68.7546C83.7861 68.9787 82.7894 69.179 82.0884 69.8276C81.23 70.624 81.0297 71.8925 80.9201 73.0608C80.8438 73.9049 80.7913 74.749 80.7627 75.5978C80.715 77.0428 82.5653 77.6818 83.4189 76.5182L83.4428 76.4848C82.9325 78.0729 82.4222 79.6561 81.9072 81.2489C81.2205 81.2537 80.1618 81.1774 78.8218 80.9914C80.2906 76.2559 80.529 71.8734 78.8742 67.6816C80.6149 67.672 82.3793 67.3335 84.2535 66.89C85.1262 66.6801 90.1907 65.1398 90.7105 64.9729C92.0648 64.5294 93.4001 64.1765 94.7068 63.8999Z" fill="#E64B38"/>
<path d="M124.012 95.9844C123.821 98.035 123.073 99.9568 122.009 101.726C122.004 101.726 122.004 101.731 122 101.736C119.305 104.473 115.686 106.628 111.093 107.911C92.7285 113.052 91.6126 96.0988 72.9331 105.327C75.4415 102.227 77.3109 98.2782 78.6891 94.4822C79.7525 94.2581 80.8541 94.1484 81.9367 94.1245C84.693 94.0625 87.4351 94.5013 90.182 94.735C95.0176 95.1546 99.9008 94.9495 104.684 94.1245C108.38 93.4903 112.181 92.3935 114.899 89.8087C115.843 88.9122 116.597 87.8058 117.112 86.6041C117.369 86.008 118.905 82.3789 118.905 82.3789C118.905 82.3789 121.666 86.8807 122.109 87.7248C123.44 90.2666 124.284 93.1326 124.012 95.9844Z" fill="#E64B38"/>
<path d="M131.425 88.6796C130.386 87.7639 129.294 86.9914 128.035 86.6242C127.992 89.3329 127.529 91.9557 126.633 94.3974C125.197 94.0683 123.814 93.2672 122.765 92.2228C121.735 91.1975 120.905 89.9004 120.724 88.4554C120.548 87.0152 121.12 85.4272 122.355 84.6642C124.153 83.5578 128.016 85.2651 128.435 83.2002C128.869 81.0494 126.051 79.5234 124.792 77.7303C122.584 74.5877 120.252 71.5308 117.787 68.5789C116.809 67.4058 116.146 66.7143 116.566 65.6509C118.163 66.514 120.009 67.7492 121.749 69.4755C121.749 69.4755 121.769 69.4946 121.807 69.5279C122.598 70.2528 131.025 78.1691 131.425 88.6796Z" fill="#E64B38"/>
<path d="M112.117 63.8431C111.487 66.4039 109.17 68.3115 106.418 68.3115C104.845 68.3115 103.371 67.6963 102.265 66.5851C101.311 65.6361 100.724 64.4058 100.586 63.0705C105.364 62.7367 109.394 63.266 112.117 63.8431Z" fill="white"/>
<path d="M115.058 46.7134C115.058 52.4551 110.404 57.1095 104.662 57.1095C98.9205 57.1095 94.2661 52.4551 94.2661 46.7134C94.2661 40.9718 98.9205 36.3174 104.662 36.3174C110.404 36.3174 115.058 40.9718 115.058 46.7134Z" fill="#E1E5FF"/>
<path d="M113.613 41.4296C111.71 39.3313 108.959 38.0103 105.902 38.0103C100.165 38.0103 95.506 42.6599 95.506 48.4016C95.506 50.3282 96.0306 52.1308 96.9462 53.6759C95.2771 51.8304 94.2661 49.3887 94.2661 46.7087C94.2661 40.9718 98.9253 36.3174 104.667 36.3174C108.477 36.3174 111.806 38.368 113.613 41.4296Z" fill="#CCD2FF"/>
<path d="M105.589 43.2607C105.589 43.2607 107.415 43.9475 108.097 46.4034C108.774 48.8594 106.166 46.7563 106.166 46.7563C106.166 46.7563 106.662 44.143 105.589 43.2607Z" fill="#CCD2FF"/>
<path d="M111.383 57.8582L110.186 58.3303V62.3552C110.186 63.4282 109.752 64.3962 109.046 65.0973C108.35 65.8031 107.377 66.237 106.304 66.237C104.234 66.237 102.541 64.6156 102.427 62.5698C102.427 62.4983 102.422 62.4267 102.422 62.3504V58.0489C102.422 57.1524 102.236 56.2702 101.864 55.4547C101.106 53.7808 99.8993 50.848 99.8993 50.848C99.7801 50.5428 99.6894 50.2281 99.6274 49.9133C100.739 50.2757 101.978 50.2662 103.156 49.8084C105.002 49.0883 106.208 47.4335 106.447 45.5927C107.863 46.2747 109.551 46.3891 111.13 45.7692C111.807 45.5069 112.403 45.1302 112.913 44.6724L113.481 46.1125L114.916 49.7702C116.171 52.9749 114.592 56.5992 111.383 57.8582Z" fill="#FCBBA4"/>
<path d="M107.829 58.1104C107.829 58.1104 109.717 60.0417 110.184 61.625V58.5014L107.829 58.1104Z" fill="#F2A07C"/>
<path d="M112.913 44.667C112.408 45.1248 111.807 45.5015 111.13 45.7638C109.551 46.3838 107.863 46.2741 106.447 45.5874C106.208 47.4234 105.002 49.0782 103.156 49.803C101.983 50.2608 100.743 50.2751 99.6274 49.9079C99.6894 50.2227 99.7801 50.5374 99.8993 50.8426C99.8993 50.8426 101.101 53.7707 101.864 55.4493C102.184 56.1551 102.36 56.9134 102.403 57.6859L102.422 59.9225C103.237 58.8829 102.732 55.8833 102.656 54.9724C102.579 54.0759 102.575 53.1555 102.899 52.321C103.199 51.558 103.762 50.9237 104.31 50.3133C105.045 49.4931 105.779 48.6776 106.514 47.8621C106.824 47.514 107.153 47.1516 107.582 46.9751C108.459 46.6079 109.432 47.0753 110.372 47.1945C111.392 47.3185 112.465 46.999 113.252 46.3313C113.333 46.2598 113.414 46.1882 113.486 46.1119L112.913 44.667Z" fill="#F2A07C"/>
<path d="M110.377 48.855C110.377 48.855 110.84 50.0615 111.965 50.8245C112.461 51.1583 111.178 51.4874 110.515 51.4492" fill="#FCBBA4"/>
<path d="M107.647 58.0444C108.324 58.2924 109.178 58.445 110.194 58.3258L107.647 58.0444Z" fill="#F2A07C"/>
<path d="M108.694 48.4019C108.694 48.4019 107.397 48.4162 106.715 49.9851L108.694 48.4019Z" fill="#FCBBA4"/>
<path d="M113.724 46.7803C113.724 46.7803 112.503 46.3511 111.321 47.591L113.724 46.7803Z" fill="#FCBBA4"/>
<path d="M88.3407 84.1819L89.7666 119.996C89.7666 119.996 74.9212 110.019 63.8146 113.224L58.4688 81.2157C68.2973 77.9824 78.2403 78.4879 88.3407 84.1819Z" fill="#E1E5FF"/>
<path d="M85.2164 86.1324C80.3188 83.6335 75.4402 82.4175 70.3567 82.4175C67.6671 82.4175 64.8964 82.7751 62.0923 83.4857L66.4367 109.49C67.1425 109.423 67.8626 109.39 68.597 109.39C75.1541 109.39 81.8829 112.099 86.3466 114.359L85.2164 86.1324Z" fill="white"/>
<path d="M58.4726 81.2115C58.4726 81.2115 48.7347 72.8374 34.2422 76.7002L44.8147 109.424C52.3876 108.618 58.8017 109.758 63.8185 113.225L58.4726 81.2115Z" fill="#E1E5FF"/>
<path d="M55.5258 83.0097C53.6183 81.7173 48.6587 78.8799 41.8488 78.8799C40.7043 78.8799 39.5454 78.961 38.3818 79.1183L47.0754 106.034C47.8241 105.995 48.5585 105.976 49.2738 105.976C53.0555 105.976 56.5177 106.515 59.627 107.579L55.5258 83.0097Z" fill="white"/>
<path d="M130.011 96.9053C125.347 108.718 101.207 104.068 94.8169 102.609C93.825 102.385 93.2622 102.232 93.2622 102.232C93.2622 102.232 87.1534 104.574 87.5921 102.928C87.7256 102.432 88.4267 102.432 89.1754 101.936C87.6827 102.442 85.7609 103.51 86.047 102.423C86.1996 101.855 86.8386 101.393 87.7495 100.825C86.2759 101.312 84.4447 102.418 84.7213 101.369C84.9025 100.692 85.78 100.057 86.9197 99.4089C85.5892 99.8047 84.211 100.63 84.4494 99.7189C84.8929 98.0689 88.9989 96.9768 88.9989 96.9768C88.9989 96.9768 88.4314 94.9024 89.0418 94.311C89.9431 93.4383 92.7377 95.8132 92.7377 95.8132C92.7377 95.8132 116.458 97.0627 120.249 91.2256C120.488 90.8632 120.645 90.4721 120.712 90.0477C120.788 89.5899 120.831 89.1321 120.845 88.6791C125.857 84.9594 128.819 86.3852 131.427 88.6838C131.532 91.2876 131.136 94.0488 130.011 96.9053Z" fill="#FCBBA4"/>
<path d="M130.001 96.9053C125.337 108.718 101.197 104.068 94.8071 102.609C95.6226 101.831 96.9197 101.765 98.069 101.77C103.539 101.779 109.004 101.789 114.474 101.798C117.822 101.808 121.288 101.789 124.345 100.415C127.397 99.0417 129.939 95.9229 129.524 92.599C129.415 91.7454 129.062 90.8393 128.299 90.434C127.259 89.8903 126.024 90.4817 124.932 90.9061C123.439 91.4879 121.732 91.7406 120.239 91.2256C120.478 90.8632 120.635 90.4721 120.702 90.0477C120.778 89.5899 120.821 89.1321 120.835 88.6791C125.847 84.9594 128.809 86.3852 131.417 88.6838C131.522 91.2876 131.127 94.0488 130.001 96.9053Z" fill="#F2A07C"/>
<path d="M95.59 51.7877L104.05 49.9088L103.568 47.9106L94.7603 49.8659L95.59 51.7877Z" fill="#FC6054"/>
<path d="M115.631 44.1333L116.518 48.163C116.714 49.0452 116.156 49.9132 115.278 50.1087L112.007 50.8288C111.768 50.8812 111.516 50.8335 111.315 50.6905L110.772 50.3042C110.681 50.2422 110.567 50.2184 110.457 50.2422L109.494 50.4568C109.384 50.4807 109.289 50.5522 109.236 50.6476L108.907 51.2246C108.783 51.4392 108.578 51.587 108.34 51.6395L105.469 52.2737C104.41 52.5074 103.447 52.2451 103.156 51.2484C103.142 51.2055 103.132 51.1674 103.122 51.1244L102.235 47.0948C102.126 46.5893 102.445 46.0886 102.951 45.9741L114.51 43.4228C114.668 43.3894 114.825 43.3942 114.968 43.4371C115.292 43.5229 115.555 43.7804 115.631 44.1333Z" fill="#757BFF"/>
<path d="M114.983 43.4288L115.827 47.263C116.022 48.1452 115.465 49.0131 114.587 49.2087L111.316 49.9288C111.077 49.9812 110.824 49.9335 110.624 49.7905L110.08 49.4042C109.99 49.3422 109.875 49.3184 109.766 49.3422L108.802 49.5568C108.693 49.5806 108.597 49.6522 108.545 49.7475L108.216 50.3246C108.092 50.5392 107.887 50.687 107.648 50.7395L104.778 51.3737C104.177 51.5072 103.604 51.4786 103.17 51.245C103.156 51.202 103.147 51.1639 103.137 51.121L102.25 47.0913C102.14 46.5858 102.46 46.0851 102.965 45.9706L114.525 43.4193C114.682 43.3812 114.835 43.3907 114.983 43.4288Z" fill="#8D95FF"/>
<path d="M114.378 46.8804C114.559 47.7054 114.04 48.5161 113.215 48.7021C112.733 48.807 112.261 48.6735 111.908 48.3874C111.655 48.1776 111.469 47.8867 111.393 47.5433C111.212 46.7183 111.732 45.9028 112.557 45.7216C112.79 45.6692 113.024 45.6739 113.243 45.7264C113.792 45.8551 114.25 46.2891 114.378 46.8804Z" fill="#E1E5FF"/>
<path d="M113.758 46.5705C113.94 47.3955 113.42 48.2062 112.595 48.3922C112.361 48.4446 112.127 48.4398 111.908 48.3874C111.655 48.1776 111.469 47.8867 111.393 47.5433C111.212 46.7183 111.732 45.9028 112.557 45.7216C112.79 45.6692 113.024 45.6739 113.243 45.7264C113.496 45.9314 113.682 46.2223 113.758 46.5705Z" fill="white"/>
<path d="M107.52 48.3878C107.702 49.2128 107.182 50.0235 106.357 50.2095C105.875 50.3144 105.403 50.1808 105.05 49.8947C104.797 49.6849 104.611 49.394 104.535 49.0506C104.354 48.2256 104.874 47.4102 105.699 47.2289C105.932 47.1765 106.166 47.1812 106.385 47.2337C106.939 47.3625 107.392 47.7964 107.52 48.3878Z" fill="#E1E5FF"/>
<path d="M106.915 48.0778C107.096 48.9028 106.576 49.7135 105.751 49.8995C105.518 49.9519 105.284 49.9472 105.065 49.8947C104.812 49.6849 104.626 49.394 104.55 49.0506C104.368 48.2256 104.888 47.4102 105.713 47.2289C105.947 47.1765 106.181 47.1812 106.4 47.2337C106.648 47.4388 106.839 47.7344 106.915 48.0778Z" fill="white"/>
<path d="M101.696 54.0819C100.738 55.0881 99.1451 55.1311 98.1388 54.1725C97.1326 53.214 97.0945 51.626 98.053 50.615C99.0115 49.6087 100.604 49.5658 101.611 50.5244" fill="#F2A07C"/>
<path d="M123.018 9.73434L123.294 49.4492C123.318 53.6457 126.742 57.0507 130.939 57.0507H193.449C197.645 57.0507 201.031 53.6457 201.007 49.4492L200.731 9.73434C200.707 5.53776 197.283 2.13282 193.086 2.13282H130.576C126.38 2.12805 122.994 5.533 123.018 9.73434Z" fill="white"/>
<path d="M200.73 9.73492L201.007 49.4497C201.031 53.6511 197.645 57.0513 193.448 57.0513H130.934C128.11 57.0513 125.64 55.5157 124.314 53.2314C125.635 54.3235 127.328 54.9768 129.169 54.9768H191.684C195.885 54.9768 199.271 51.5719 199.247 47.3705L198.97 7.65571C198.961 6.27751 198.589 4.98516 197.94 3.87402C199.633 5.27129 200.716 7.37435 200.73 9.73492Z" fill="#E1E5FF"/>
<path d="M185.793 48.5306H132.597C132.597 48.5306 139.726 28.7209 145.792 25.583C153.403 21.6487 158.086 28.9879 161.453 36.3462C164.82 43.7093 171.143 34.6962 175.998 34.8965C180.862 35.0968 184.544 40.4045 185.793 48.5306Z" fill="#47B6C3"/>
<path d="M185.056 48.5305H133.982C136.343 42.6839 141.359 31.4343 145.804 29.1357C153.415 25.2014 158.098 32.5406 161.465 39.899C164.832 47.262 171.155 38.2489 176.01 38.4492C180.125 38.6161 183.392 42.4407 185.056 48.5305Z" fill="#66D3D8"/>
<path d="M138.678 12.3633C139.336 12.3633 139.794 12.6685 140.046 13.2741C140.123 13.4887 140.161 13.7081 140.161 13.9322V13.9513C140.161 14.5951 139.465 15.6395 138.067 17.0701H138.129C138.473 17.0701 139.126 17.0272 140.08 16.9366C140.213 16.9366 140.309 17.0177 140.375 17.175C140.39 17.1989 140.399 17.237 140.399 17.2847C140.399 17.4516 140.304 17.5613 140.108 17.6185C138.959 17.7425 137.996 17.8045 137.219 17.8045C137.018 17.7521 136.923 17.6281 136.923 17.4373C136.923 17.3276 137.061 17.156 137.333 16.9318C138.139 16.0591 138.625 15.4916 138.787 15.2341C139.25 14.638 139.479 14.204 139.479 13.9275V13.9132C139.479 13.5316 139.341 13.2741 139.059 13.1358C138.945 13.0881 138.816 13.0595 138.678 13.0595C138.148 13.0595 137.8 13.2503 137.629 13.627C137.567 13.7987 137.452 13.8845 137.281 13.8845C137.133 13.8845 137.023 13.7939 136.951 13.6079V13.5364C136.951 13.2837 137.137 13.0071 137.509 12.6971C137.843 12.4777 138.234 12.3633 138.678 12.3633Z" fill="black"/>
<path d="M144.242 14.585C144.299 16.0491 144.409 16.9885 144.571 17.4082V17.4463C144.571 17.618 144.481 17.7372 144.304 17.7945L144.228 17.804C144.008 17.804 143.865 17.6085 143.803 17.2174C143.794 17.2174 143.784 17.165 143.77 17.0648C143.584 17.2985 143.408 17.4559 143.236 17.5322C142.974 17.6705 142.707 17.742 142.43 17.742H142.325C141.705 17.742 141.29 17.4463 141.08 16.855C141.018 16.6547 140.99 16.4497 140.99 16.2494C140.99 15.3958 141.242 14.7043 141.743 14.1749C142.034 13.9317 142.358 13.8125 142.716 13.8125C142.993 13.8125 143.312 13.865 143.675 13.9699C144.023 14.07 144.213 14.2751 144.242 14.585ZM141.676 16.2541C141.676 16.5355 141.753 16.7549 141.905 16.9122C142.015 16.9981 142.158 17.041 142.325 17.041H142.42C142.845 17.041 143.25 16.793 143.627 16.3018C143.594 15.5484 143.574 15.0142 143.574 14.7043H143.551C143.245 14.566 142.969 14.4944 142.721 14.4944C142.22 14.4944 141.882 14.9046 141.705 15.7296L141.676 16.2541Z" fill="black"/>
<path d="M146.689 13.3364C146.851 13.3364 146.97 13.427 147.037 13.5987L147.047 14.5525H148.024C148.134 14.6526 148.191 14.7671 148.191 14.8863V14.8958C148.191 15.0914 148.072 15.2058 147.834 15.244H147.056L147.032 16.15C147.032 16.2788 146.951 16.3789 146.794 16.4505C146.77 16.4648 146.732 16.4695 146.684 16.4695C146.527 16.4695 146.413 16.3837 146.351 16.212L146.341 16.1357L146.365 15.2821L145.511 15.3107C145.344 15.3107 145.23 15.2106 145.163 15.0103V14.9864C145.163 14.8243 145.235 14.7098 145.382 14.6383C145.382 14.6145 145.707 14.5906 146.351 14.562V13.6941C146.351 13.5463 146.427 13.4318 146.579 13.3507L146.689 13.3364Z" fill="black"/>
<path d="M149.223 12.1294H149.266C149.399 12.1294 149.495 12.2105 149.562 12.3774L149.581 12.4871C149.519 13.2215 149.485 13.9034 149.485 14.5424C149.886 14.0846 150.32 13.8509 150.787 13.8509H150.797C151.25 13.8509 151.641 14.0322 151.97 14.3898C152.242 14.6998 152.375 15.1433 152.375 15.7251C152.375 16.4738 152.156 17.0318 151.712 17.3942C151.445 17.5945 151.116 17.6946 150.73 17.6946C150.329 17.6946 149.948 17.5706 149.581 17.3274H149.538L149.552 17.3942C149.552 17.5897 149.457 17.7185 149.271 17.7757H149.194C149.008 17.7757 148.899 17.6708 148.86 17.4562C148.813 16.407 148.784 15.5773 148.784 14.9716V14.6903C148.803 13.0879 148.851 12.2868 148.927 12.2868C149.018 12.1819 149.113 12.1294 149.223 12.1294ZM149.576 16.4547C149.662 16.6073 149.79 16.7361 149.967 16.8362C150.143 16.9411 150.401 16.9936 150.749 16.9936C151.092 16.9936 151.331 16.8696 151.469 16.6216C151.607 16.3737 151.674 16.0923 151.674 15.7823V15.7728L151.684 15.7394L151.674 15.6822V15.6106C151.674 15.0908 151.498 14.757 151.14 14.614C151.035 14.5663 150.921 14.5377 150.797 14.5377C150.363 14.5377 149.948 14.7856 149.547 15.2816L149.576 16.4547Z" fill="black"/>
<path d="M155.083 14.0327C155.293 14.0613 155.398 14.171 155.398 14.3665V14.3761C155.398 14.5716 155.278 14.686 155.04 14.7242L153.318 14.7862C153.128 14.7862 153.013 14.686 152.97 14.4858V14.4619C152.97 14.2759 153.07 14.1615 153.266 14.1138L155.083 14.0327ZM155.083 15.3394C155.293 15.3441 155.398 15.4538 155.398 15.6732V15.6827C155.398 15.8783 155.278 15.9927 155.04 16.0309L153.318 16.0929C153.104 16.0929 152.985 15.9927 152.97 15.7924V15.7733C152.97 15.5874 153.056 15.4729 153.228 15.4252L155.083 15.3394Z" fill="black"/>
<path d="M157.911 12.3774H157.982C158.116 12.3774 158.211 12.4585 158.278 12.6254L158.287 12.7065V12.7256C158.287 12.8925 157.825 13.8844 156.9 15.687V15.7156L158.564 15.6632C158.564 15.3055 158.54 14.676 158.488 13.7699C158.488 13.6078 158.578 13.4933 158.755 13.4361L158.826 13.4266C159.003 13.4266 159.117 13.5172 159.174 13.6936C159.227 14.5568 159.256 15.2054 159.256 15.6346H159.284L159.546 15.6107C159.704 15.6107 159.813 15.7061 159.88 15.8921V15.9684C159.88 16.1973 159.713 16.3165 159.375 16.3165L159.275 16.326V17.256L159.284 17.4515C159.246 17.6899 159.127 17.8091 158.931 17.8091C158.783 17.8091 158.674 17.7281 158.602 17.5612C158.588 17.4896 158.583 17.3799 158.583 17.2273V16.3499L156.375 16.4357C156.137 16.3785 156.013 16.2688 155.998 16.1019C155.998 16.0828 155.994 16.0685 155.994 16.0494C155.994 15.9016 156.041 15.7442 156.137 15.5773L157.663 12.511C157.753 12.4251 157.834 12.3774 157.911 12.3774Z" fill="black"/>
<path d="M163.026 13.8514L163.04 13.861C163.34 13.9325 163.503 14.0184 163.531 14.1233C163.555 14.1948 163.565 14.252 163.565 14.2997C163.565 14.3188 163.565 14.3379 163.555 14.3617C163.517 14.5429 163.407 14.6431 163.216 14.6621H163.174L162.825 14.5668C162.735 14.5477 162.639 14.5382 162.544 14.5382C162.253 14.5382 161.962 14.6383 161.686 14.8386C161.471 15.0293 161.328 15.2773 161.261 15.5825C161.223 15.7494 161.204 15.9116 161.204 16.0546C161.204 16.3837 161.299 16.6555 161.495 16.8653C161.59 16.9321 161.676 16.975 161.752 16.9941L161.843 17.018C161.924 17.037 162.01 17.0418 162.096 17.0418C162.43 17.0418 162.768 16.975 163.112 16.8367C163.164 16.8177 163.221 16.8129 163.274 16.8129L163.364 16.8224C163.474 16.894 163.526 16.9846 163.526 17.099C163.526 17.1515 163.517 17.2039 163.493 17.2612C163.417 17.4519 163.221 17.5807 162.902 17.6474C162.582 17.7142 162.315 17.7476 162.101 17.7476C161.948 17.7476 161.805 17.7285 161.667 17.6951L161.557 17.6665C161.008 17.533 160.66 17.1372 160.503 16.4838C160.479 16.3789 160.465 16.2549 160.465 16.1214C160.465 15.9164 160.493 15.6731 160.551 15.3965C160.708 14.7194 161.128 14.233 161.8 13.9277C162.081 13.8514 162.349 13.8181 162.592 13.8181C162.749 13.8133 162.892 13.8228 163.026 13.8514Z" fill="black"/>
<path d="M173.93 27.2603C173.987 28.7244 174.097 29.6638 174.259 30.0835V30.1216C174.259 30.2933 174.169 30.4125 173.992 30.4698L173.916 30.4793C173.696 30.4793 173.553 30.2838 173.491 29.8927C173.482 29.8927 173.472 29.8403 173.458 29.7401C173.272 29.9738 173.096 30.1312 172.924 30.2075C172.662 30.3458 172.395 30.4173 172.118 30.4173H172.013C171.393 30.4173 170.978 30.1216 170.768 29.5303C170.706 29.33 170.678 29.125 170.678 28.9247C170.678 28.071 170.93 27.3796 171.431 26.8502C171.722 26.607 172.046 26.4878 172.404 26.4878C172.681 26.4878 173 26.5402 173.363 26.6452C173.715 26.7405 173.906 26.9456 173.93 27.2603ZM171.364 28.9294C171.364 29.2108 171.441 29.4302 171.593 29.5875C171.703 29.6734 171.846 29.7163 172.013 29.7163H172.108C172.533 29.7163 172.938 29.4683 173.315 28.9771C173.282 28.2236 173.262 27.6895 173.262 27.3796H173.239C172.933 27.2413 172.657 27.1697 172.409 27.1697C171.908 27.1697 171.57 27.5799 171.393 28.4049L171.364 28.9294Z" fill="black"/>
<path d="M176.387 26.0112C176.549 26.0112 176.668 26.1018 176.735 26.2735L176.745 27.2273H177.722C177.832 27.3274 177.889 27.4419 177.889 27.5611V27.5706C177.889 27.7662 177.77 27.8806 177.531 27.9188H176.754L176.73 28.8248C176.73 28.9536 176.649 29.0537 176.492 29.1253C176.468 29.1396 176.43 29.1444 176.382 29.1444C176.225 29.1444 176.11 29.0585 176.048 28.8868L176.039 28.8105L176.063 27.9569L175.209 27.9855C175.042 27.9855 174.928 27.8854 174.861 27.6851V27.6612C174.861 27.4991 174.932 27.3847 175.08 27.3131C175.08 27.2893 175.404 27.2654 176.048 27.2368V26.3689C176.048 26.2211 176.125 26.1066 176.277 26.0255L176.387 26.0112Z" fill="black"/>
<path d="M180.243 25.0386C180.901 25.0386 181.359 25.3438 181.611 25.9494C181.688 26.164 181.726 26.3834 181.726 26.6075V26.6266C181.726 27.2704 181.03 28.3148 179.632 29.7454H179.694C180.038 29.7454 180.691 29.7025 181.645 29.6119C181.778 29.6119 181.874 29.693 181.94 29.8503C181.955 29.8742 181.964 29.9123 181.964 29.96C181.964 30.1269 181.869 30.2366 181.673 30.2938C180.524 30.4178 179.561 30.4798 178.783 30.4798C178.583 30.4274 178.488 30.3034 178.488 30.1126C178.488 30.0029 178.626 29.8312 178.898 29.6071C179.704 28.7344 180.19 28.1669 180.352 27.9094C180.815 27.3133 181.044 26.8793 181.044 26.6028V26.5789C181.044 26.1974 180.906 25.9399 180.624 25.8016C180.51 25.7539 180.381 25.7253 180.243 25.7253C179.713 25.7253 179.365 25.916 179.194 26.2928C179.132 26.4645 179.017 26.5503 178.845 26.5503C178.698 26.5503 178.588 26.4597 178.516 26.2737V26.2022C178.516 25.9494 178.702 25.6728 179.074 25.3629C179.408 25.1483 179.799 25.0386 180.243 25.0386Z" fill="black"/>
<path d="M182.989 24.8047H183.031C183.165 24.8047 183.26 24.8858 183.327 25.0527L183.346 25.1623C183.284 25.8967 183.251 26.5787 183.251 27.2177C183.651 26.7599 184.085 26.5262 184.553 26.5262H184.562C185.015 26.5262 185.406 26.7074 185.735 27.0651C186.007 27.3751 186.141 27.8186 186.141 28.4004C186.141 29.1491 185.921 29.707 185.478 30.0695C185.211 30.2698 184.882 30.3699 184.495 30.3699C184.095 30.3699 183.713 30.2459 183.346 30.0027H183.303L183.318 30.0695C183.318 30.265 183.222 30.3938 183.036 30.451H182.96C182.774 30.451 182.664 30.3461 182.626 30.1315C182.578 29.0823 182.55 28.2526 182.55 27.6469V27.3608C182.569 25.7585 182.617 24.9573 182.693 24.9573C182.783 24.8524 182.879 24.8047 182.989 24.8047ZM183.341 29.13C183.427 29.2826 183.556 29.4114 183.732 29.5115C183.909 29.6164 184.166 29.6689 184.515 29.6689C184.858 29.6689 185.096 29.5449 185.235 29.2969C185.373 29.0489 185.44 28.7676 185.44 28.4576V28.4481L185.449 28.4147L185.44 28.3575V28.2859C185.44 27.7661 185.263 27.4323 184.906 27.2892C184.801 27.2416 184.686 27.2129 184.562 27.2129C184.128 27.2129 183.713 27.4609 183.313 27.9569L183.341 29.13Z" fill="black"/>
<path d="M188.849 26.7075C189.059 26.7361 189.164 26.8458 189.164 27.0413V27.0509C189.164 27.2464 189.045 27.3608 188.806 27.399L187.085 27.461C186.894 27.461 186.78 27.3608 186.737 27.1606V27.1367C186.737 26.9507 186.837 26.8363 187.032 26.7886L188.849 26.7075ZM188.849 28.0094C189.059 28.0142 189.164 28.1239 189.164 28.3432V28.3528C189.164 28.5483 189.045 28.6627 188.806 28.7009L187.085 28.7629C186.87 28.7629 186.751 28.6627 186.737 28.4624V28.4386C186.737 28.2526 186.823 28.1382 186.994 28.0905L188.849 28.0094Z" fill="black"/>
<path d="M34.1988 3.48797C34.1988 5.09507 32.8969 6.40173 31.2898 6.40173C30.2741 6.40173 29.3871 5.88193 28.8625 5.09507C28.5573 4.63249 28.3809 4.07931 28.3809 3.48321C28.3809 1.88088 29.6828 0.574219 31.2898 0.574219C31.5855 0.574219 31.8716 0.617139 32.1387 0.702978C33.3309 1.07018 34.1988 2.18132 34.1988 3.48797Z" fill="#757BFF"/>
<path d="M32.6203 2.30531C32.6203 3.91717 31.3185 5.22383 29.7114 5.22383C29.4157 5.22383 29.1296 5.18091 28.8625 5.09507C28.5573 4.63249 28.3809 4.07931 28.3809 3.48321C28.3809 1.88088 29.6828 0.574219 31.2898 0.574219C31.5855 0.574219 31.8716 0.617139 32.1387 0.702978C32.4391 1.16555 32.6203 1.71397 32.6203 2.30531Z" fill="#8D95FF"/>
<path d="M51.5968 36.5698C51.5968 38.5393 49.9945 40.1416 48.025 40.1416C46.6086 40.1416 45.383 39.3118 44.8013 38.1149C44.5771 37.6523 44.4531 37.1277 44.4531 36.5745C44.4531 34.605 46.0555 33.0122 48.025 33.0122C48.6688 33.0122 49.2696 33.1839 49.7942 33.4843C50.872 34.09 51.5968 35.244 51.5968 36.5698Z" fill="#EFA130"/>
<path d="M50.1423 35.0151C50.1423 36.9846 48.54 38.5822 46.5705 38.5822C45.9267 38.5822 45.3258 38.4105 44.8013 38.1149C44.5771 37.6523 44.4531 37.1277 44.4531 36.5745C44.4531 34.605 46.0555 33.0122 48.025 33.0122C48.6688 33.0122 49.2696 33.1839 49.7942 33.4843C50.0231 33.9421 50.1423 34.4619 50.1423 35.0151Z" fill="#FFC25E"/>
<path d="M13.3642 34.2998C13.3642 36.2311 11.8047 37.8001 9.86383 37.8001C8.36642 37.8001 7.08837 36.8559 6.59718 35.5301C6.45412 35.1486 6.37305 34.7337 6.37305 34.3045C6.37305 32.3779 7.93245 30.8042 9.86383 30.8042C10.6125 30.8042 11.2992 31.0379 11.8667 31.4337C12.7728 32.0679 13.3642 33.1123 13.3642 34.2998Z" fill="#E64B38"/>
<path d="M12.0909 32.6545C12.0909 34.5859 10.5315 36.1548 8.59055 36.1548C7.84661 36.1548 7.1599 35.9212 6.59718 35.5301C6.45412 35.1486 6.37305 34.7337 6.37305 34.3045C6.37305 32.3779 7.93245 30.8042 9.86383 30.8042C10.6125 30.8042 11.2992 31.0379 11.8667 31.4337C12.0146 31.8104 12.0909 32.2205 12.0909 32.6545Z" fill="#FC6054"/>
<path d="M195.409 90.5235C195.223 90.0467 185.752 99.6463 185.752 99.6463L195.409 90.5235Z" fill="white"/>
<path d="M188.663 104.835C188.663 109.184 185.139 112.708 180.79 112.708C178.601 112.708 176.622 111.812 175.191 110.367C173.789 108.946 172.917 106.991 172.917 104.83C172.917 100.486 176.441 96.957 180.79 96.957C181.715 96.957 182.607 97.1144 183.432 97.4148C186.484 98.5069 188.663 101.416 188.663 104.835Z" fill="#E64B38"/>
<path d="M185.707 102.951C185.707 107.3 182.183 110.824 177.834 110.824C176.909 110.824 176.022 110.667 175.192 110.371C173.79 108.95 172.917 106.995 172.917 104.835C172.917 100.49 176.442 96.9614 180.791 96.9614C181.716 96.9614 182.608 97.1188 183.433 97.4192C184.844 98.8451 185.707 100.8 185.707 102.951Z" fill="#FC6054"/>
<path d="M204.323 86.6608C204.323 89.7701 201.805 92.288 198.691 92.288C196.626 92.288 194.823 91.1721 193.841 89.5173C193.345 88.678 193.063 87.7052 193.063 86.6608C193.063 83.5515 195.581 81.0288 198.691 81.0288C199.396 81.0288 200.078 81.1623 200.698 81.4008C202.816 82.2067 204.323 84.2573 204.323 86.6608Z" fill="#EFA130"/>
<path d="M201.49 84.2573C201.49 87.3666 198.968 89.8893 195.858 89.8893C195.153 89.8893 194.475 89.7558 193.855 89.5173C193.36 88.678 193.078 87.7052 193.078 86.6608C193.078 83.5515 195.596 81.0288 198.705 81.0288C199.411 81.0288 200.093 81.1623 200.713 81.4008C201.204 82.2353 201.49 83.2129 201.49 84.2573Z" fill="#FFC25E"/>
<path d="M169.959 91.2119C169.959 93.0622 168.456 94.5643 166.606 94.5643C164.756 94.5643 163.258 93.0622 163.258 91.2119C163.258 89.3615 164.756 87.8594 166.606 87.8594C168.456 87.8594 169.959 89.3615 169.959 91.2119Z" fill="white"/>
<path d="M200.979 128.451C199.129 128.451 197.631 126.949 197.631 125.103C197.631 123.253 199.134 121.75 200.979 121.75C202.825 121.75 204.332 123.257 204.332 125.103C204.336 126.953 202.829 128.451 200.979 128.451Z" fill="white"/>
<path d="M185.434 121.75C185.434 123.601 183.927 125.098 182.081 125.098C180.236 125.098 178.733 123.596 178.733 121.75C178.733 119.9 180.236 118.398 182.081 118.398C183.927 118.398 185.434 119.9 185.434 121.75Z" fill="white"/>
<path d="M164.554 114.31C164.554 116.58 162.708 118.421 160.438 118.421C158.85 118.421 157.467 117.515 156.785 116.194C156.494 115.631 156.332 114.992 156.332 114.315C156.332 112.045 158.173 110.2 160.443 110.2C161.02 110.2 161.563 110.319 162.064 110.534C163.528 111.158 164.554 112.618 164.554 114.31Z" fill="#47B6C3"/>
<path d="M162.527 112.417C162.527 114.687 160.681 116.528 158.411 116.528C157.834 116.528 157.286 116.409 156.785 116.194C156.494 115.631 156.332 114.992 156.332 114.315C156.332 112.045 158.173 110.2 160.443 110.2C161.02 110.2 161.563 110.319 162.064 110.534C162.36 111.091 162.527 111.735 162.527 112.417Z" fill="#66D3D8"/>
<path d="M166.337 192.296C166.337 192.296 171.187 176.411 176.457 187.99C176.457 187.99 180.997 184.013 182.36 190.679C182.36 190.679 187.368 183.154 191.769 185.143C196.052 187.074 194.397 194.714 194.397 194.714C194.397 194.714 199.638 190.636 199.09 197.256C199.09 197.256 203.172 195.009 202.003 199.974H166.328V192.296H166.337Z" fill="#8D95FF"/>
<path d="M194.609 193.312C194.371 191.419 193.627 189.507 191.772 188.672C187.366 186.683 182.358 194.209 182.358 194.209C180.999 187.542 176.459 191.514 176.459 191.514C171.19 179.936 166.34 195.821 166.34 195.821V192.296C166.34 192.296 171.195 176.416 176.459 187.99C176.459 187.99 180.999 184.018 182.358 190.685C182.358 190.685 187.366 183.159 191.772 185.148C194.896 186.555 194.857 191.009 194.609 193.312Z" fill="#757BFF"/>
<path d="M121.906 199.974C121.906 199.974 116.918 182.195 127.81 185.238C127.81 185.238 130.457 166.926 138.602 175.085C138.602 175.085 142.393 159.458 152.102 162.753C161.774 166.039 158.254 185.352 158.254 185.352C158.254 185.352 169.785 174.57 168.312 191.633C168.312 191.633 174.206 186.344 172.976 196.077C172.976 196.077 179.237 192.305 178.565 199.974H121.906Z" fill="#E1E5FF"/>
<path d="M136.711 199.974C136.711 199.974 129.744 182.215 139.734 185.148C139.734 185.148 141.036 177.403 145.533 178.591C150.026 179.778 149.983 189.588 149.983 189.588C149.983 189.588 155.209 185.167 154.303 191.109C154.008 193.05 151.022 197.413 160.841 193.474C166.187 191.333 165.434 199.969 165.434 199.969H136.711V199.974Z" fill="#8D95FF"/>
<path d="M149.773 192.095C149.773 192.095 149.816 182.286 145.324 181.099C140.827 179.906 139.525 187.651 139.525 187.651C136.33 186.711 134.866 187.889 134.356 189.926C134.246 186.525 135.381 183.869 139.735 185.152C139.735 185.152 141.037 177.403 145.534 178.595C150.026 179.782 149.983 189.592 149.983 189.592C149.983 189.592 155.21 185.171 154.299 191.108C154.27 191.299 154.213 191.518 154.146 191.743C153.684 188.786 149.773 192.095 149.773 192.095Z" fill="#757BFF"/>
<path d="M165.44 199.979H165.196C164.963 197.618 164.033 194.619 160.637 195.987C152.254 199.345 153.203 196.66 153.842 194.59C154.362 195.348 156.121 195.377 160.847 193.484C166.188 191.333 165.44 199.979 165.44 199.979Z" fill="#757BFF"/>
<path d="M158.842 179.939C158.556 174.608 157.054 168.757 152.113 167.078C142.408 163.778 138.612 179.405 138.612 179.405C130.467 171.246 127.821 189.558 127.821 189.558C123.042 188.228 121.321 190.898 120.891 194.317C120.424 189.41 121.101 183.359 127.821 185.233C127.821 185.233 130.467 166.921 138.612 175.08C138.612 175.08 142.404 159.453 152.113 162.753C158.46 164.913 159.128 173.974 158.842 179.939Z" fill="white"/>
<path d="M168.365 191.161C167.33 181.213 158.274 189.683 158.274 189.683C158.274 189.683 158.637 187.699 158.809 184.895C161.04 183.03 169.424 176.936 168.365 191.161Z" fill="white"/>
<path d="M178.577 199.978H173.04C174.046 190.831 168.324 195.962 168.324 195.962C168.476 194.227 168.486 192.777 168.395 191.58C169.058 191.012 174.142 186.983 172.992 196.082C172.992 196.082 179.254 192.305 178.577 199.978Z" fill="white"/>
<path d="M168.355 191.161C168.369 191.295 168.384 191.438 168.393 191.581C168.346 191.619 168.322 191.643 168.322 191.643C168.327 191.476 168.346 191.314 168.355 191.161Z" fill="white"/>
<path d="M173.621 199.979H169.901C170.888 199.56 172.538 199.092 173.621 199.979Z" fill="white"/>
<path d="M49.7033 152.93C48.1153 148.538 44.5005 145.862 40.8953 145.486C34.2905 144.804 28.0671 150.965 23.7847 139.563C23.4509 138.647 23.0312 137.498 22.5877 136.53C19.4546 129.634 12.64 130.211 9.1301 133.716C1.29491 141.208 6.80291 159.253 19.9744 159.983C29.9842 160.555 40.8857 153.087 44.1619 168.886C44.6722 171.438 44.4958 171.914 44.6531 172.267C44.8963 173.927 46.1458 183.531 44.8248 197.885C44.3193 195.883 43.3179 192.606 41.5438 189.015C41.5438 189.011 41.6154 188.415 41.6154 188.41C41.9397 185 43.1033 177.627 39.5791 174.375C36.2695 171.061 30.6518 173.254 27.6141 169.53C27.6141 169.525 27.6141 169.525 27.6093 169.525C27.3375 169.182 27.0466 168.738 26.8034 168.362C26.8034 168.362 26.8034 168.357 26.7986 168.357C26.0261 167.15 25.3394 166.244 23.9659 165.348C20.2129 162.906 15.5776 163.517 11.2284 164.547C6.14005 165.763 1.79087 168.309 0.603433 173.45C0.608202 173.455 0.608202 173.46 0.603433 173.46C0.12655 176.078 0.956328 178.352 2.74464 180.141C4.89538 182.291 8.15726 183.264 11.9962 182.144C11.9962 182.144 11.9962 182.144 12.0009 182.144C15.9591 180.894 17.7378 177.747 21.0236 178.114C21.0331 178.114 21.0474 178.114 21.057 178.119C23.3841 178.362 23.9516 180.474 23.6846 182.797C23.4938 184.337 23.1695 185.835 23.5558 187.256C24.1901 189.588 26.8272 190.98 28.9827 190.537C31.5675 190.065 32.7787 187.208 35.0344 186.331C36.9992 185.563 39.0593 186.321 40.2801 187.871C40.3278 187.995 43.3608 193.231 44.6197 199.669H40.1084C39.9415 199.669 39.808 199.803 39.808 199.969C39.808 200.136 39.9415 200.27 40.1084 200.27H49.5936C49.7605 200.27 49.8941 200.136 49.8941 199.969C49.8941 199.803 49.7605 199.669 49.5936 199.669H45.254C46.8563 184.251 45.4924 173.855 45.2445 172.158C49.1787 166.464 51.9065 159.53 49.7033 152.93ZM34.5623 185.887C31.8059 187.175 30.5612 190.894 26.9751 189.85C26.2931 189.64 25.8258 189.344 25.3584 188.977C23.4652 187.365 23.9755 185.324 24.2807 182.873C24.5048 180.894 24.1567 179.421 23.2458 178.505V178.5C21.9678 177.222 19.9077 177.275 18.2576 177.98C16.7173 178.648 15.487 179.764 14.0134 180.622C10.5608 182.616 6.07805 182.616 3.17383 179.726C-0.998893 175.586 0.398376 167.384 12.721 164.828C16.7412 163.989 21.0617 163.774 24.2854 166.316C24.2902 166.316 24.2902 166.316 24.2902 166.316C26.0642 167.718 26.3456 169.234 27.7619 170.574C33.0887 175.653 43.2511 167.58 41.067 187.928C40.9621 187.752 40.8667 187.637 40.7761 187.518C35.9548 178.648 28.296 172.296 17.9906 170.422C17.8285 170.393 17.6711 170.498 17.6425 170.665C17.6139 170.827 17.7188 170.985 17.8857 171.013C29.1544 173.064 35.7354 180.255 39.355 186.25C39.355 186.25 39.355 186.25 39.3502 186.25C39.3073 186.245 37.1708 184.671 34.5623 185.887ZM40.7522 160.398C35.2061 155.104 25.0294 161.051 17.0988 158.938C6.4071 156.101 2.17715 139.353 10.5751 133.301C15.3677 129.796 20.108 131.332 23.2315 139.777C28.1291 152.968 36.0358 143.721 43.2463 146.702C43.2511 146.706 43.2511 146.706 43.2511 146.706C49.9036 149.477 53.2275 159.077 45.1443 171.261C43.9378 161.032 39.8366 153.211 29.6075 151.461C23.2888 150.383 19.0779 148.08 17.0893 144.613C14.8241 140.669 16.3263 136.549 16.3453 136.511C16.4026 136.358 16.3263 136.182 16.1689 136.124C16.0163 136.067 15.8398 136.143 15.7826 136.301C15.7159 136.477 14.1612 140.712 16.5647 144.909C18.6439 148.538 22.9979 150.941 29.5025 152.052C35.6496 153.101 39.9654 156.587 42.4165 162.444C41.8634 161.685 41.6631 161.251 40.7522 160.398Z" fill="#112544"/>
<path d="M92.2842 159.472C93.0949 159.367 90.7343 159.763 127.946 153.173C132.257 152.41 134.503 147.607 132.323 143.807L131.594 142.529L135.166 139.944C135.614 140.731 136.386 141.189 137.493 141.127C140.712 140.941 144.846 144.031 147.755 146.654C149.71 148.413 152.581 148.566 154.656 147.207C155.733 146.52 156.11 145.094 155.505 143.964L141.923 118.623C141.127 117.135 139.09 116.863 137.931 118.117L130.821 125.843C130.378 126.319 130.268 127.035 130.545 127.617C130.587 127.707 130.635 127.803 130.692 127.898L125.261 131.494L124.984 131.012C123.263 128.008 119.409 126.949 116.4 128.651L104.965 135.099C112.227 122.943 115.709 117.702 116.057 106.357C117.197 105.794 118.274 105.155 119.276 104.45C124.006 103.572 128.527 101.483 130.292 97.0197C131.355 94.3301 131.837 91.526 131.727 88.6933V88.6743C131.331 78.1781 121.837 65.0399 110.406 63.2278C110.563 62.4838 110.473 62.2216 110.496 58.54C110.949 58.2777 113.753 57.7675 115.103 54.6725C115.699 53.3038 115.814 51.8112 115.437 50.3853C116.424 50.1326 117.053 49.1263 116.825 48.1058L115.938 44.0762C115.809 43.4991 115.299 43.1081 114.736 43.1081C113.253 38.9878 109.299 36.0264 104.674 36.0264C98.0116 36.0264 92.9757 42.0876 94.144 48.5684C94.0916 48.5636 94.0391 48.5636 93.9867 48.5636C90.1287 48.5684 87.8063 52.9128 90.0095 56.1318C92.0505 59.1409 96.724 58.9597 98.4169 55.3831C99.4947 56.1651 100.725 56.7517 102.056 57.0903C102.113 57.405 102.137 57.7293 102.137 58.0584C102.141 62.6221 102.127 62.4075 102.151 62.7032C102.113 62.7032 100.639 62.7557 100.534 62.7891C93.2475 63.2469 88.4596 65.5836 84.1867 66.5993C66.2988 70.7625 61.5443 57.5386 54.0572 53.3277C51.8493 52.0926 48.7352 52.9414 45.1872 49.8512C44.057 48.8688 42.2735 47.7768 42.1542 49.1311C42.1161 49.5746 42.3879 50.2375 42.9173 50.9051C39.3216 49.0071 38.7922 47.772 37.9195 48.1487C36.6558 48.7067 38.9496 50.9814 40.1418 51.897C37.7192 50.8813 34.8007 48.5112 35.1154 50.7048C35.2299 51.4631 36.0358 52.4359 37.5571 53.2514C36.5079 53.0368 35.4636 52.765 34.9628 52.455C34.1283 51.959 33.1698 52.6171 33.4654 53.5947C33.6848 54.3101 35.1965 56.704 45.4924 57.4766C49.5221 63.6093 58.0774 73.2996 66.1653 77.3817C62.1547 78.3545 59.3936 80.0951 58.5781 80.6626C49.9465 68.6166 37.9481 75.3263 34.1808 76.3039C33.8994 76.2896 33.7468 76.6425 33.9709 76.8333L44.5291 109.519C44.5673 109.652 44.7008 109.738 44.8439 109.729C52.536 108.908 58.8642 110.172 63.6474 113.477C63.7284 113.529 63.8143 113.548 63.9049 113.52C64.8873 113.239 65.903 113.057 66.9379 112.971L58.0774 124.851C53.6996 130.936 52.4597 138.828 54.763 145.986L69.246 181.328C70.4954 184.375 73.6571 186.273 77.0192 185.82L81.6735 185.195L82.3173 187.318C81.912 187.513 81.5877 187.861 81.354 188.352C80.4956 190.174 77.7059 192.001 73.495 193.488C71.3967 194.232 70.195 196.354 70.3953 198.238C70.4668 199.297 71.3633 200.136 72.4268 200.146L95.6891 200.279C95.6939 200.279 95.6939 200.279 95.6987 200.279C97.1007 200.279 98.1022 198.906 97.6491 197.561L94.9118 189.521C94.7306 188.996 94.249 188.624 93.7053 188.6C93.5813 188.591 93.4478 188.591 93.3095 188.605L92.1507 183.793L94.6305 183.464C99.8285 182.768 102.656 176.974 99.9763 172.444L92.2842 159.472ZM92.6991 188.677C92.0982 188.805 91.4353 189.106 90.8345 189.745C89.585 191.066 88.2974 189.988 88.2593 189.955C88.1258 189.826 85.026 186.841 82.8801 187.141L82.2696 185.129L91.545 183.889L92.6991 188.677ZM131.017 128.394C131.498 129.047 132.257 129.686 133.425 130.001C135.671 130.602 135.237 132.691 135.223 132.762C135.17 132.953 134.054 136.997 134.913 139.386L131.293 142.004L125.556 132.009L131.017 128.394ZM103.872 135.752C103.71 136.019 104.02 136.32 104.278 136.167L116.696 129.166C119.424 127.631 122.905 128.589 124.469 131.303C124.517 131.384 132.304 144.97 131.808 144.102C133.773 147.526 131.765 151.89 127.845 152.581C91.7692 158.967 92.5369 158.895 91.2875 158.962C86.3088 159.296 81.5972 157.217 78.426 153.22C74.8923 148.762 74.1197 142.972 76.3658 137.746L85.0117 117.612C87.3341 118.799 89.3991 120.082 89.6041 120.239C89.7853 120.373 90.0858 120.239 90.0667 119.982C89.3371 101.641 90.2717 125.266 89.5517 107.03L90.5722 104.659C97.2962 107.783 103.982 112.027 115.451 106.638C115.041 117.902 111.684 122.6 103.872 135.752ZM89.4372 104.168C89.4706 104.183 89.504 104.197 89.5373 104.206C89.6995 104.273 89.8616 104.34 90.019 104.416L89.4897 105.637L89.4372 104.168ZM117.826 104.678C104.492 113.305 93.958 105.427 89.7138 103.634C90.844 103.4 92.227 102.947 93.2713 102.547C100.367 104.335 110.372 105.709 117.826 104.678ZM129.729 96.7956C128.022 101.116 123.625 103.052 119.066 103.868C119.056 103.868 119.052 103.868 119.037 103.873C111.584 105.208 100.043 103.772 93.3333 101.946C93.2666 101.936 93.2236 101.932 93.1473 101.96C92.3748 102.256 88.4405 103.639 87.8778 103.133C87.5774 102.885 89.2655 102.361 89.3561 102.18C89.6279 101.965 89.3752 101.55 89.0748 101.66C87.4629 102.237 86.7523 102.652 86.3184 102.556C86.5282 101.922 87.1911 101.526 87.9016 101.088C88.1973 100.906 87.9922 100.439 87.6441 100.549C86.7047 100.854 85.398 101.517 84.9879 101.517C84.9879 100.887 86.5568 99.9621 87.0576 99.676C87.3723 99.509 87.1672 99.0274 86.8239 99.1275C86.0561 99.3612 85.0737 99.8 84.7208 99.8381C85.3122 98.0784 89.0605 97.4394 89.2512 97.1294C89.2894 97.0626 89.2989 96.9768 89.2798 96.9005C88.3833 93.5385 89.9952 93.8866 92.5369 96.0421C92.5894 96.085 92.6514 96.1089 92.7182 96.1136C93.8198 96.1756 119.772 97.4537 121.007 90.1002C121.074 89.69 121.117 89.2608 121.136 88.8364C124.841 86.142 127.807 85.8607 131.131 88.8221C131.231 91.3925 130.778 94.1298 129.729 96.7956ZM85.975 113.839C80.1571 110.964 73.123 108.632 66.6803 109.166L62.4313 83.7099C70.2474 81.7928 77.7059 82.6703 84.9211 86.3232L85.3694 97.5824L85.3932 98.1833L85.398 98.1976C84.7924 98.603 84.3059 99.0942 84.1581 99.6474C84.0198 100.181 84.2916 100.558 85.007 100.396C84.7017 100.701 84.5158 100.997 84.4299 101.297C84.3489 101.603 84.3965 101.827 84.5634 101.975C84.778 102.161 85.1071 102.141 85.5506 102.003C85.6317 104.054 85.7414 106.844 86.0179 113.744L85.975 113.839ZM115.351 44.1954L116.243 48.2298C116.4 48.9499 115.947 49.6414 115.256 49.8083C115.246 49.8131 112.051 50.5188 112.061 50.5141L111.956 50.5379C111.441 50.6428 111.145 50.0134 110.654 49.9371C110.444 49.9037 110.349 49.9704 109.442 50.1564C109.013 50.2613 108.97 50.5665 108.751 50.9004C108.684 50.991 108.622 51.2676 108.288 51.3439L105.418 51.9781C104.492 52.1784 103.629 51.9829 103.429 51.053C103.419 51.01 102.528 46.9708 102.537 47.0185C102.466 46.6752 102.68 46.3366 103.024 46.2603C103.076 46.2507 114.283 43.7757 114.326 43.7662C114.793 43.6756 115.232 43.6517 115.351 44.1954ZM97.3535 51.0863L95.7702 51.4392L95.1789 50.0801C95.2886 50.0563 101.808 48.6113 102.251 48.5112C102.261 48.5493 102.585 50.0133 102.566 49.9275L101.617 50.1373C100.367 49.1216 98.2929 49.3457 97.3535 51.0863ZM97.4202 53.7283C96.91 53.1989 96.4521 52.6171 96.0706 51.9876L97.1246 51.754C96.9815 52.4216 97.0816 53.1226 97.4202 53.7283ZM94.578 46.7085C94.578 41.1433 99.1084 36.6129 104.674 36.6129C109.008 36.6129 112.709 39.3502 114.135 43.1939L106.643 44.8439C106.5 44.0952 106.147 43.4038 105.623 42.8315C105.513 42.7123 105.322 42.7027 105.198 42.8172C105.079 42.9269 105.065 43.1176 105.184 43.2416C105.637 43.7328 105.933 44.3337 106.057 44.9775L102.9 45.6737C102.232 45.8215 101.808 46.4844 101.955 47.1521L102.127 47.9246C101.664 48.0295 95.2886 49.4459 94.9738 49.5126C94.8069 49.0024 94.578 47.8388 94.578 46.7085ZM90.4959 55.7884C88.7028 53.1655 90.3337 49.5698 93.4812 49.1883C92.8231 50.681 92.9423 52.4407 93.9151 53.8666C94.6734 54.9825 95.8274 55.7407 97.3821 55.9458C95.651 58.2444 92.1554 58.1919 90.4959 55.7884ZM98.8986 54.9872C99.633 55.2591 100.51 55.2161 101.245 54.8013C101.588 55.5547 101.769 55.9315 101.903 56.4179C100.816 56.1127 99.8094 55.6215 98.8986 54.9872ZM102.733 58.0488C102.733 56.4417 102.203 55.4737 101.755 54.4436C101.812 54.3959 101.865 54.3434 101.917 54.2862C102.027 54.167 102.027 53.981 101.903 53.8618C101.788 53.7521 101.607 53.7521 101.498 53.857C101.488 53.8618 101.488 53.8713 101.483 53.8713C101.355 54.0001 101.183 54.1527 101.03 54.2338C101.025 54.2385 101.016 54.2433 101.011 54.2481C100.048 54.8251 98.8366 54.558 98.2166 53.8141C96.4712 51.8541 98.9987 49.1025 101.04 50.4616H101.045C101.173 50.5379 101.293 50.6285 101.402 50.7382C101.507 50.8431 101.703 50.8527 101.827 50.7239C101.836 50.7144 101.841 50.7144 101.841 50.7048L102.699 50.5141L102.847 51.1769C103.071 52.2213 103.987 52.8937 105.546 52.5599L108.417 51.9304C109.28 51.7349 109.357 50.7811 109.571 50.743C110.601 50.5284 110.539 50.5045 110.616 50.5427C111.14 50.9099 111.197 50.9862 111.388 51.0482C111.131 51.1102 110.806 51.1579 110.539 51.1436C110.382 51.134 110.234 51.258 110.225 51.4249C110.21 51.5871 110.339 51.7301 110.506 51.7444C110.959 51.7015 112.27 51.6824 112.38 51.053C117.459 49.9371 112.142 51.1054 114.85 50.5093C116.071 55.0159 111.674 59.1886 107.754 57.7627C107.602 57.7055 107.43 57.7865 107.373 57.9439C107.316 58.0965 107.397 58.2682 107.554 58.3254C108.322 58.6116 109.104 58.7022 109.9 58.6545C109.876 62.2692 110.01 62.7986 109.638 63.7047V63.7094C109.457 64.1434 109.19 64.544 108.846 64.8873C106.915 66.833 103.577 65.9508 102.857 63.2755C102.857 63.2755 102.857 63.2755 102.857 63.2707C102.623 62.4409 102.78 61.9116 102.733 58.0488ZM102.242 63.2898C102.966 66.4754 106.967 67.6437 109.266 65.307C109.7 64.8778 110.029 64.3628 110.234 63.8C110.802 63.8859 111.464 64.0099 111.746 64.0719C110.511 68.1158 105.432 69.3319 102.47 66.3752C101.636 65.5454 101.107 64.5058 100.916 63.3565C101.531 63.3041 102.094 63.2993 102.242 63.2898ZM100.324 63.3947C100.52 64.6823 101.126 65.8745 102.051 66.7949C105.327 70.0806 110.983 68.7072 112.332 64.2054C121.002 66.3704 130.354 77.6344 131.093 87.9971C127.75 85.3265 124.746 85.5841 121.14 88.0925C120.993 84.3775 118.365 80.4099 115.713 78.0255C115.594 77.9158 115.403 77.9253 115.289 78.0493C115.179 78.1733 115.189 78.3593 115.313 78.4737C118.002 80.8915 120.664 84.9832 120.544 88.6695C120.544 88.679 120.544 88.6838 120.549 88.6981C120.549 88.8984 120.506 89.5183 120.42 89.9952C119.309 96.6144 94.64 95.5986 92.8565 95.5175C92.2508 95.012 90.1144 93.3477 89.0319 93.9486L88.6456 84.182V84.1677C88.6456 84.1534 88.6408 84.1343 88.636 84.12C88.6265 84.0962 88.6217 84.0819 88.617 84.058C88.6122 84.0437 88.6027 84.0247 88.5979 84.0151C88.5836 84.0008 88.5693 83.977 88.5597 83.9674C88.555 83.9627 88.5502 83.9579 88.5454 83.9531C86.5807 82.1457 84.6254 80.7532 82.7179 79.7041C83.3474 77.6917 84.7828 74.3916 87.5774 73.6C87.7347 73.5571 87.8301 73.3902 87.7824 73.2328C87.7395 73.0754 87.5726 72.98 87.4152 73.0277C84.3775 73.8861 82.8467 77.2768 82.1743 79.4084C81.3779 78.9935 80.591 78.6359 79.8185 78.3307C80.6149 74.5013 80.4432 71.0868 79.3034 67.9632C85.7461 67.7296 91.2255 64.0671 100.324 63.3947ZM45.9264 57.0521C45.8835 56.9568 45.7881 56.89 45.6784 56.8852C35.1488 56.1175 34.114 53.6901 34.0329 53.4135C33.8946 52.9653 34.2857 52.7459 34.6433 52.9605C35.9643 53.7569 40.2753 54.3101 40.4565 54.3339C40.8237 54.3768 40.9334 53.8427 40.5662 53.7473C37.2376 52.8985 35.8165 51.3677 35.702 50.6047C35.5589 49.6414 37.2614 51.7444 42.3211 53.342C42.6454 53.4517 42.8791 52.9891 42.5644 52.7983C38.9019 50.6238 38.0721 48.9261 38.1532 48.6876C38.6015 48.5159 40.1656 50.4807 44.6293 52.393C44.9583 52.5408 45.2206 52.064 44.9106 51.8637C43.5229 51.0005 42.8028 49.8035 42.7503 49.2646C42.6788 48.6113 44.2954 49.856 44.7866 50.2852C48.4443 53.466 51.7539 52.7077 53.7616 53.8332C60.0517 57.3621 65.0446 68.483 78.6644 67.968C79.8423 71.0534 80.0378 74.3344 79.251 78.1113C75.331 76.6711 71.2823 76.3421 67.0905 77.1623C57.2333 72.4221 47.1234 59.2792 45.9264 57.0521ZM45.0203 109.099C44.8868 108.689 46.389 113.343 34.6195 76.9096C44.2191 74.5681 54.3338 77.539 58.1871 81.3684H58.1918L63.4041 112.585C58.0058 109.128 51.3962 108.446 45.0203 109.099ZM64.0527 112.843L58.807 81.4161C69.2889 77.9206 78.8933 79.3178 88.0495 84.3585C88.5359 96.581 88.5121 96.0803 88.5168 96.1232C88.5168 96.1327 88.5168 96.1327 88.5216 96.1375L88.5454 96.7861C88.059 96.9339 87.2149 97.2152 86.3899 97.6206C86.2564 97.6111 86.1133 97.6063 85.9798 97.5968L85.522 86.1134C85.5172 86.0037 85.46 85.9036 85.3646 85.8559C78.0683 82.1457 70.4191 81.068 62.026 83.1853C61.8734 83.2235 61.778 83.3713 61.8018 83.5239L66.1462 109.528C66.1701 109.686 66.3131 109.786 66.4705 109.776C73.0658 109.128 80.2954 111.65 86.2135 114.607C86.4138 114.707 86.657 114.559 86.6474 114.331C86.595 112.976 86.2516 104.502 86.1992 103.167C86.5044 103.224 86.986 103.067 87.2769 102.966C87.2531 103.167 87.3055 103.319 87.3675 103.419C87.625 103.82 88.3165 103.811 88.8268 103.758C88.8459 104.283 88.9555 107.077 88.9508 106.896C88.9508 106.934 89.4849 120.258 89.4515 119.409C82.5605 115.098 71.9308 110.759 64.0527 112.843ZM94.5351 182.863L76.9286 185.224C73.8956 185.629 70.9532 183.932 69.7944 181.094L55.3162 145.776C53.0796 138.819 54.2861 131.126 58.5495 125.199L67.7152 112.914C73.681 112.657 80.1284 115.189 84.4681 117.349L75.8079 137.512C73.4759 142.948 74.2771 148.957 77.9539 153.592C81.3302 157.851 86.3851 159.997 91.6261 159.544L99.4422 172.744C101.903 176.893 99.323 182.224 94.5351 182.863Z" fill="#112544"/>
<path d="M110.325 55.0733C111.331 55.7171 112.762 55.0924 112.762 54.0051C112.762 53.2755 112.075 53.7953 111.231 53.7953C110.387 53.7953 109.7 53.2707 109.7 54.0051C109.705 54.4438 109.948 54.8349 110.325 55.0733Z" fill="#112544"/>
<path d="M55.693 82.7659C51.1197 79.6614 44.8773 77.9351 38.3392 78.8221C38.158 78.8459 38.0388 79.0319 38.096 79.2083L46.7896 106.124C46.8325 106.252 46.9565 106.338 47.0948 106.333C51.277 106.109 55.5547 106.5 59.5367 107.864C59.7322 107.936 59.9659 107.769 59.9277 107.53L55.8265 82.9566C55.8074 82.8803 55.7597 82.8088 55.693 82.7659ZM47.2855 105.723L38.7732 79.3705C44.82 78.617 50.7715 80.2003 55.2447 83.1903L59.2458 107.144C55.3973 105.904 51.3295 105.537 47.2855 105.723Z" fill="#112544"/>
<path d="M113.868 45.6692C113.357 45.3496 112.747 45.321 112.394 45.4546C111.96 45.569 111.593 45.8456 111.345 46.2271C110.663 47.2953 111.25 48.7355 112.509 48.9978H112.513C113.767 49.2792 114.955 48.1489 114.674 46.8184C114.564 46.3416 114.278 45.9314 113.868 45.6692ZM112.561 48.3922C111.316 48.0488 111.393 46.2843 112.623 46.0077C113.219 45.8742 113.911 46.2033 114.082 46.9424C114.283 47.8437 113.453 48.6354 112.561 48.3922Z" fill="#112544"/>
<path d="M107.826 48.3254C107.63 47.4288 106.772 46.7278 105.651 46.9329C104.464 47.1999 103.901 48.5114 104.392 49.4937C104.731 50.2234 105.542 50.6955 106.438 50.5047C107.397 50.2901 108.045 49.3364 107.826 48.3397V48.3254ZM106.438 49.88C105.89 50.0994 105.122 49.8085 104.879 49.1122C104.645 48.3301 105.136 47.6577 105.775 47.5194C106.414 47.3764 107.092 47.777 107.239 48.4541C107.378 49.0216 107.049 49.675 106.438 49.88Z" fill="#112544"/>
<path d="M99.9241 51.4012C99.7763 51.4918 99.7381 51.673 99.8192 51.8113C100.015 52.1403 99.9146 52.5695 99.5808 52.7794C99.4377 52.8652 99.39 53.0464 99.4759 53.1847C99.7954 53.7331 100.964 52.5791 100.334 51.5013C100.248 51.363 100.062 51.3201 99.9241 51.4012Z" fill="#112544"/>
<path d="M130.926 57.3526H147.374V103.896C147.374 104.063 147.507 104.197 147.674 104.197H172.644C172.625 104.407 172.615 104.621 172.615 104.836C172.615 105.833 172.796 106.786 173.121 107.669L164.174 111.965C163.392 110.725 162.009 109.896 160.436 109.896C158.003 109.896 156.024 111.875 156.024 114.307C156.024 116.739 158.003 118.718 160.436 118.718C162.868 118.718 164.847 116.739 164.847 114.307C164.847 113.658 164.708 113.043 164.456 112.495L173.35 108.222C174.637 111.045 177.489 113.01 180.784 113.01C181.066 113.01 181.337 112.995 181.609 112.967L181.991 118.093C180.012 118.136 178.419 119.758 178.419 121.746C178.419 123.759 180.055 125.394 182.067 125.394C184.079 125.394 185.72 123.759 185.72 121.746C185.72 119.91 184.356 118.389 182.592 118.131L182.201 112.881C183.86 112.595 185.343 111.798 186.497 110.668L198.31 122.595C197.699 123.248 197.318 124.131 197.318 125.094C197.318 127.106 198.953 128.742 200.966 128.742C202.978 128.742 204.619 127.106 204.619 125.094C204.619 123.081 202.978 121.441 200.966 121.441C200.136 121.441 199.364 121.722 198.748 122.19L186.903 110.229C188.171 108.789 188.948 106.901 188.948 104.831C188.948 102.628 188.071 100.63 186.65 99.1562C189.487 96.2949 193.393 92.4512 194.886 91.197C195.916 92.0649 197.246 92.5847 198.691 92.5847C201.958 92.5847 204.619 89.9237 204.619 86.6571C204.619 83.3856 201.958 80.7246 198.691 80.7246C195.42 80.7246 192.763 83.3856 192.763 86.6571C192.763 88.2689 193.412 89.7377 194.461 90.8059C193.407 91.6691 191.156 93.7483 186.221 98.7413C184.776 97.4489 182.868 96.6621 180.779 96.6621C178.676 96.6621 176.755 97.4585 175.3 98.7747L169.587 93.3048C170.007 92.7087 170.255 91.9886 170.255 91.2065C170.255 89.1941 168.619 87.5584 166.606 87.5584C164.594 87.5584 162.958 89.1941 162.958 91.2065C162.958 93.2237 164.594 94.8595 166.606 94.8595C167.622 94.8595 168.543 94.4398 169.205 93.7674L174.876 99.1991C173.741 100.382 172.963 101.903 172.706 103.591H147.97V57.3478H193.441C197.795 57.3478 201.324 53.8189 201.3 49.4411L201.018 9.73105C200.994 5.37234 197.432 1.8291 193.073 1.8291H130.564C126.234 1.8291 122.705 5.32466 122.705 9.68814V9.73582L122.986 49.4459C123.005 53.8094 126.567 57.3526 130.926 57.3526ZM160.436 118.122C158.337 118.122 156.625 116.415 156.625 114.312C156.625 112.208 158.333 110.496 160.436 110.496C162.558 110.496 164.251 112.228 164.251 114.312C164.246 116.41 162.539 118.122 160.436 118.122ZM185.129 121.751C185.129 123.434 183.755 124.803 182.072 124.803C180.388 124.803 179.02 123.434 179.02 121.751C179.02 120.077 180.369 118.713 182.038 118.694H182.072C183.731 118.694 185.129 120.048 185.129 121.751ZM200.975 122.047C202.659 122.047 204.032 123.42 204.032 125.103C204.032 126.787 202.659 128.155 200.975 128.155C199.292 128.155 197.923 126.787 197.923 125.103C197.928 123.434 199.287 122.047 200.975 122.047ZM193.374 86.6618C193.374 83.7242 195.763 81.3303 198.701 81.3303C201.638 81.3303 204.027 83.7242 204.027 86.6618C204.027 89.5994 201.638 91.9886 198.701 91.9886C195.792 91.9886 193.374 89.6281 193.374 86.6618ZM166.606 94.2633C164.923 94.2633 163.554 92.8947 163.554 91.2065C163.554 89.5231 164.918 88.1545 166.606 88.1545C168.29 88.1545 169.659 89.5231 169.659 91.2065C169.659 92.8947 168.285 94.2633 166.606 94.2633ZM180.784 97.2677C184.981 97.2677 188.362 100.682 188.362 104.841C188.362 109.004 184.971 112.418 180.784 112.418C176.626 112.418 173.211 109.032 173.211 104.841C173.211 100.677 176.597 97.2677 180.784 97.2677ZM130.564 2.42997H193.078C197.103 2.42997 200.398 5.71093 200.422 9.74059L200.704 49.4506C200.727 53.4946 197.47 56.7565 193.445 56.7565C178.042 56.7565 136.525 56.7565 130.931 56.7565C126.906 56.7565 123.606 53.4755 123.587 49.4459L123.305 9.73582C123.277 5.69186 126.539 2.42997 130.564 2.42997Z" fill="#112544"/>
<path d="M128.937 24.0902L131.026 21.5675V48.5305C131.026 48.6974 131.16 48.8309 131.326 48.8309H190.841L188.319 50.9197C188.19 51.0246 188.176 51.2153 188.281 51.3393C188.386 51.4633 188.572 51.4871 188.7 51.3775L191.862 48.7594C191.924 48.7117 191.972 48.6211 191.972 48.5305C191.972 48.4303 191.905 48.3349 191.862 48.3016L188.7 45.6835C188.572 45.5786 188.386 45.5929 188.281 45.7216C188.176 45.8504 188.195 46.0364 188.319 46.1413L190.841 48.23H186.049C184.451 38.3442 179.539 31.4008 170.188 36.8421C166.349 39.093 163.64 40.3948 161.728 36.2221C158.146 28.4012 153.335 21.3577 145.657 25.3206C139.815 28.344 133.196 46.0221 132.39 48.23H131.622V21.5627L133.711 24.0854C133.816 24.2142 134.007 24.2285 134.131 24.1236C134.259 24.0187 134.274 23.8279 134.169 23.7039L131.551 20.5422C131.436 20.4039 131.202 20.4039 131.088 20.5422L128.47 23.7039C128.365 23.8327 128.384 24.0187 128.508 24.1236C128.642 24.2333 128.832 24.2142 128.937 24.0902ZM145.933 25.8499C153.23 22.073 157.774 29.0069 161.184 36.4749C163.268 41.0291 166.396 39.7558 170.488 37.3619C179.425 32.1448 183.912 38.9022 185.443 48.2348H133.029C134.078 45.4069 140.511 28.654 145.933 25.8499Z" fill="#112544"/>
<path d="M6.86993 28.9541C6.84132 29.1163 6.94623 29.2736 7.10837 29.3022C7.27051 29.3309 7.42788 29.2259 7.4565 29.0638C7.86185 26.8463 9.37357 24.5382 11.696 22.3493C13.0456 24.6765 14.81 27.0657 16.9322 29.3833C16.5793 32.1683 16.503 34.8293 16.6746 37.2567C15.9259 37.1565 15.2058 37.0278 14.5191 36.8608C14.357 36.8227 14.1949 36.9228 14.1567 37.085C14.1186 37.2471 14.2187 37.4093 14.3808 37.4474C15.1248 37.6239 15.9116 37.7574 16.7271 37.8623C18.0385 52.3738 27.8242 54.496 35.7118 41.8061C38.9403 42.7313 42.97 43.1748 45.7121 41.2053C45.8456 41.1099 45.879 40.9239 45.7788 40.7856C45.6834 40.6521 45.4975 40.6187 45.3592 40.7188C43.2037 42.2639 39.8655 42.3832 36.0123 41.3006C37.3618 39.045 38.554 36.4746 39.5317 33.7039C42.1021 32.5212 44.4149 31.1669 46.3892 29.7219C46.642 30.3323 46.8613 30.938 47.0473 31.5388C47.095 31.6962 47.2667 31.7868 47.4241 31.7343C47.5814 31.6867 47.6721 31.5198 47.6196 31.3576C47.4145 30.6995 47.1713 30.0271 46.8852 29.3499C57.7534 21.076 55.3213 12.0582 41.6299 11.3285C40.5999 6.76475 38.4539 3.56964 35.4018 2.80185C35.2445 2.7637 35.0776 2.85908 35.0394 3.01645C34.9965 3.17859 35.0966 3.34073 35.2588 3.37888C38.0819 4.09421 40.0705 7.04611 41.0529 11.2999C38.2536 11.2045 35.2063 11.4764 32.0732 12.0915C29.9606 10.5989 27.8337 9.35899 25.7688 8.38615C26.4794 7.50392 27.2138 6.7123 27.9672 6.03035C28.0912 5.92067 28.1008 5.72992 27.9863 5.60593C27.8766 5.48194 27.6859 5.4724 27.5619 5.58685C26.756 6.31648 25.9691 7.17487 25.2061 8.12864C11.4719 1.96254 4.28522 8.98226 11.3956 21.82C8.91576 24.1328 7.29913 26.5936 6.86993 28.9541ZM12.13 21.9487C14.295 20.0078 17.0991 18.1766 20.3371 16.6172C18.792 20.2987 17.6427 24.3808 17.0371 28.6155C15.0532 26.4028 13.3985 24.1424 12.13 21.9487ZM21.1526 16.2309C24.5098 14.6905 28.1866 13.4888 31.9397 12.7306C35.5592 15.3248 38.8879 18.4675 41.5536 21.7961C41.2007 25.5539 40.3614 29.4644 39.0452 33.2699C35.1873 35.0105 30.9621 36.2886 26.8132 36.9658C23.4369 34.7816 20.2656 32.0968 17.5569 29.183C18.1578 24.7194 19.3833 20.2844 21.1526 16.2309ZM17.4663 29.9508C20.1082 32.7406 23.0124 35.1536 25.9405 37.1041C22.8455 37.5428 19.8984 37.6239 17.266 37.3282C17.0991 35.0535 17.1611 32.5641 17.4663 29.9508ZM17.3089 37.9386C20.3896 38.2677 23.6133 38.0769 26.6987 37.5905C29.5743 39.4265 32.4452 40.7951 35.1157 41.6297C27.457 53.8045 18.5488 51.4773 17.3089 37.9386ZM35.4209 41.1242C32.9411 40.3564 30.2658 39.1117 27.5667 37.4379C31.3293 36.7702 35.1062 35.6496 38.7734 34.0377C37.8292 36.6224 36.699 39.0164 35.4209 41.1242ZM39.8035 32.917C40.9718 29.4215 41.7301 25.8925 42.0877 22.4685C43.8093 24.7051 45.1875 26.9798 46.1603 29.1783C44.3243 30.5278 42.1831 31.7916 39.8035 32.917ZM46.6515 28.8158C45.5928 26.4457 44.0668 23.9993 42.1688 21.6101C42.474 18.0573 42.3214 14.7621 41.7635 11.9437C54.8253 12.7067 56.8139 21.0522 46.6515 28.8158ZM41.1817 11.9103C41.711 14.5379 41.8779 17.6138 41.6299 20.9425C39.1597 17.9477 36.141 15.0673 32.7408 12.578C35.6927 12.0343 38.5493 11.8054 41.1817 11.9103ZM31.272 12.2584C27.9863 12.9642 24.6672 14.0277 21.5245 15.4154C22.6691 12.9356 23.9853 10.7133 25.4064 8.85827C27.3234 9.75958 29.2977 10.8946 31.272 12.2584ZM24.8484 8.60075C23.3129 10.6275 21.9013 13.0691 20.6995 15.7874C17.204 17.4136 14.1758 19.3545 11.8391 21.4289C5.115 9.26839 11.7818 2.75416 24.8484 8.60075Z" fill="#112544"/>
<path d="M31.2861 6.70291C33.0553 6.70291 34.4955 5.26272 34.4955 3.48872C34.4955 1.71948 33.0553 0.279297 31.2861 0.279297C29.5168 0.279297 28.0767 1.71948 28.0767 3.48872C28.0767 5.26272 29.5168 6.70291 31.2861 6.70291ZM31.2861 0.875401C32.7215 0.875401 33.8994 2.04376 33.8994 3.48872C33.8994 4.92891 32.7263 6.10681 31.2861 6.10681C29.8459 6.10681 28.6728 4.93368 28.6728 3.48872C28.6728 2.04853 29.8411 0.875401 31.2861 0.875401Z" fill="#112544"/>
<path d="M44.1572 36.5703C44.1572 38.7019 45.8883 40.4378 48.0247 40.4378C50.1612 40.4378 51.8923 38.7019 51.8923 36.5703C51.8923 34.4434 50.1564 32.7075 48.0247 32.7075C45.8931 32.7075 44.1572 34.4434 44.1572 36.5703ZM51.2914 36.5703C51.2914 38.3777 49.8274 39.8417 48.02 39.8417C46.2174 39.8417 44.7533 38.3777 44.7533 36.5703C44.7533 34.7724 46.2174 33.3084 48.02 33.3084C49.8274 33.3084 51.2914 34.7724 51.2914 36.5703Z" fill="#112544"/>
<path d="M9.8547 38.0959C11.953 38.0959 13.6507 36.3934 13.6507 34.2999C13.6507 32.2064 11.9482 30.5039 9.8547 30.5039C7.76595 30.5039 6.06348 32.2111 6.06348 34.2999C6.06348 36.3934 7.76595 38.0959 9.8547 38.0959ZM9.8547 31.1C11.6192 31.1 13.0546 32.5354 13.0546 34.2999C13.0546 36.0644 11.6192 37.4998 9.8547 37.4998C8.09977 37.4998 6.66435 36.0644 6.66435 34.2999C6.66435 32.5354 8.09977 31.1 9.8547 31.1Z" fill="#112544"/>
<path d="M205.229 199.679H202.382C202.954 196.755 201.581 195.897 199.426 196.779C199.573 193.093 197.656 192.32 194.819 194.066C195.124 192.077 195.596 186.545 191.891 184.867C187.99 183.107 183.789 188.219 182.496 189.964C181.519 186.249 179.096 185.682 176.564 187.518C174.074 182.315 171.232 182.287 168.605 186.459C167.794 180.203 163.45 180.651 158.69 184.58C159.258 180.789 160.965 165.443 152.205 162.467C145.104 160.054 140.44 167.403 138.451 174.513C132.505 169.034 128.885 176.903 127.569 184.862C119.681 182.902 119.509 191.839 121.517 199.674H116.448C116.286 199.674 116.147 199.807 116.147 199.974C116.147 200.136 116.281 200.275 116.448 200.275C126.129 200.275 195.377 200.275 205.229 200.275C205.396 200.275 205.53 200.141 205.53 199.974C205.53 199.812 205.396 199.679 205.229 199.679ZM136.92 199.679C134.312 192.654 132.495 183.336 139.658 185.444C139.844 185.496 140.015 185.362 140.039 185.205C140.049 185.162 140.821 180.708 143.101 179.239C147.131 176.621 149.691 183.484 149.691 189.592C149.691 189.84 149.978 189.988 150.187 189.826C152.805 187.599 154.546 187.528 154.017 191.071C153.645 193.479 151.07 197.733 160.96 193.76C164.494 192.349 165.338 196.088 165.157 199.683H136.92V199.679ZM165.758 199.679C165.963 195.453 164.675 191.624 160.731 193.202C151.58 196.87 154.25 193.412 154.603 191.157C155.19 187.322 153.201 186.822 150.278 188.982C149.997 180.35 146.229 176.497 142.772 178.724C140.621 180.112 139.734 183.67 139.505 184.776C132.023 182.83 133.587 192.444 136.281 199.674H122.142C120.191 192.087 120.087 183.383 127.736 185.525C127.926 185.572 128.093 185.439 128.117 185.277C129.343 177.332 132.705 169.573 138.399 175.295C138.556 175.453 138.847 175.391 138.904 175.152C140.783 168.242 145.137 160.693 152.019 163.035C161.332 166.197 158.003 185.11 157.975 185.296C157.922 185.582 158.266 185.768 158.476 185.568C164.675 179.874 168.924 181.085 168.028 191.605C167.999 191.877 168.328 192.034 168.528 191.853C171.342 189.344 173.474 189.874 172.696 196.04C172.663 196.283 172.93 196.46 173.149 196.331C176.125 194.347 178.605 195.253 178.304 199.674C175.529 199.678 169.787 199.679 165.758 199.679ZM178.905 199.679C179.196 195.086 176.807 193.884 173.354 195.549C173.974 189.597 171.599 188.853 168.676 190.975C168.762 189.669 168.776 188.5 168.71 187.466C171.433 182.592 173.908 183.093 176.187 188.114C176.273 188.295 176.507 188.348 176.659 188.214C178.629 186.245 181.218 186.545 182.072 190.737C182.124 190.99 182.458 191.076 182.615 190.847C182.663 190.775 187.532 183.555 191.657 185.415C195.663 187.227 194.132 194.581 194.118 194.652C194.056 194.934 194.38 195.124 194.595 194.953C197.28 192.869 199.13 193.298 198.81 197.232C198.787 197.475 199.054 197.633 199.249 197.518C201.242 196.421 202.339 197.032 201.781 199.674H178.905V199.679Z" fill="#112544"/>
</svg>
