<svg width="50" height="51" viewBox="0 0 50 51" fill="none" xmlns="http://www.w3.org/2000/svg">
<rect y="0.0800781" width="50" height="50" rx="25" fill="white"/>
<path d="M17.7621 32.3928C19.137 32.3928 20.2517 31.2782 20.2517 29.9032C20.2517 28.5282 19.137 27.4136 17.7621 27.4136C16.3871 27.4136 15.2725 28.5282 15.2725 29.9032C15.2725 31.2782 16.3871 32.3928 17.7621 32.3928Z" fill="#002147"/>
<path d="M32.3332 26.1634C32.4709 25.7886 32.5414 25.3924 32.5414 24.993C32.5408 23.1183 31.0206 21.599 29.1458 21.5996C28.7472 21.5998 28.3518 21.6701 27.9775 21.8074V28.1783C29.7368 28.8247 31.6868 27.9226 32.3332 26.1634Z" fill="#002147"/>
<path d="M21.9764 18.5594L18.8294 22.6915C18.7515 22.7931 18.6424 22.8663 18.5189 22.8999L13.2535 24.3379C12.5164 24.5396 12.004 25.2075 12 25.9716V27.8935C12.0076 28.8285 12.7706 29.5809 13.7055 29.5755H14.1249C14.2986 27.5667 16.068 26.079 18.0768 26.2528C19.8447 26.4058 21.2466 27.8077 21.3995 29.5755H26.8156V17.5923H23.9278C23.1626 17.5948 22.4418 17.952 21.9764 18.5594Z" fill="#002147"/>
<path d="M36.4669 23.989C36.2139 23.9651 36.0049 23.7813 35.9488 23.5335C35.7696 22.7052 35.4377 21.9175 34.97 21.2108C34.8277 20.9972 34.8426 20.7156 35.0063 20.518L35.981 19.3403L34.7955 18.1398L33.623 19.1111C33.428 19.273 33.1505 19.2898 32.9374 19.1526C32.2264 18.6874 31.437 18.3546 30.6075 18.1705C30.3608 18.1183 30.1763 17.9122 30.1519 17.6612L30.005 16.1396H27.9776V20.5907C30.4092 19.9453 32.9036 21.3932 33.5489 23.8249C34.1943 26.2565 32.7464 28.7509 30.3147 29.3962C29.5489 29.5995 28.7434 29.5995 27.9775 29.3962V33.8603H30.005L30.1521 32.3321C30.1763 32.0801 30.3604 31.8726 30.6077 31.8187C31.436 31.6395 32.2238 31.3075 32.9306 30.8399C33.1442 30.6976 33.4259 30.7124 33.6235 30.8762L34.7988 31.8494L36.0044 30.6438L35.0312 29.4686C34.8698 29.2732 34.8536 28.9958 34.9911 28.7831C35.4573 28.0722 35.7911 27.2828 35.9763 26.4531C36.0309 26.2058 36.2387 26.0218 36.4908 25.9976L38 25.8508V24.1361L36.4669 23.989Z" fill="#002147"/>
</svg>
