<svg width="50" height="51" viewBox="0 0 50 51" fill="none" xmlns="http://www.w3.org/2000/svg">
<rect y="0.0800781" width="50" height="50" rx="25" fill="white"/>
<path d="M36.246 18.7222C35.7132 17.7082 34.7808 17.8929 33.8902 18.3039L31.6968 16.1105C31.7821 15.879 31.8633 15.6596 31.9486 15.4566C32.0588 15.1728 32.0686 14.8599 31.9763 14.5698C31.884 14.2797 31.6953 14.03 31.4414 13.862C31.1876 13.694 30.8839 13.618 30.5808 13.6465C30.2778 13.675 29.9936 13.8063 29.7755 14.0187C29.1416 14.8981 28.8042 16.3006 28.5041 17.727C29.3373 17.7951 30.332 17.9939 31.1281 18.1211C31.2007 17.7341 31.2956 17.3517 31.4125 16.9757L33.025 18.5882C31.9952 18.8754 31.438 19.0203 30.7463 18.8848C23.6149 17.3454 17.9814 19.6654 18.4675 27.6055C19.3801 27.5315 20.2524 27.8015 21.1564 27.9182C21.0798 27.162 21.0784 26.4001 21.1523 25.6436L24.3571 28.8484C23.3211 28.9385 22.2781 28.9058 21.2498 28.7509C20.0563 28.594 18.9239 28.2376 17.7241 28.5113C16.6037 28.718 15.5088 29.0449 14.4584 29.4861C14.2915 29.5542 14.14 29.6555 14.0133 29.7838C13.8866 29.9121 13.7872 30.0648 13.7211 30.2326C13.6551 30.4004 13.6237 30.5799 13.629 30.7601C13.6342 30.9404 13.676 31.1177 13.7517 31.2814C14.2825 32.2981 15.2266 32.1066 16.1076 31.6997L18.3009 33.8932C18.2156 34.1247 18.1344 34.344 18.0532 34.5471C17.9876 34.7087 17.9544 34.8817 17.9557 35.0561C17.9569 35.2305 17.9925 35.403 18.0604 35.5637C18.1283 35.7244 18.2272 35.8701 18.3514 35.9926C18.4756 36.115 18.6227 36.2118 18.7843 36.2774C18.946 36.343 19.1189 36.3762 19.2933 36.3749C19.4678 36.3737 19.6402 36.3381 19.8009 36.2702C19.9616 36.2023 20.1073 36.1034 20.2298 35.9792C20.3522 35.855 20.449 35.7079 20.5146 35.5463C20.9549 34.4938 21.283 33.3978 21.4935 32.2765C20.6197 32.2046 19.7083 32.0094 18.8777 31.8825C18.7921 32.1871 18.7259 32.6118 18.5853 33.028L16.9687 31.4114C17.6483 31.1637 18.3704 31.0532 19.093 31.0864C26.1613 32.728 32.0947 30.3393 31.5302 22.398C30.6071 22.4714 29.7577 22.2013 28.8414 22.0854C28.9179 22.8416 28.9193 23.6036 28.8454 24.36L25.6406 21.1553C26.4066 21.0809 27.1782 21.0836 27.9436 21.1634C28.9654 21.2181 29.9848 21.5149 31.0022 21.5899C32.5332 21.6465 34.5105 20.9403 35.5393 20.5176C35.7066 20.4499 35.8585 20.3489 35.9855 20.2207C36.1126 20.0925 36.2123 19.9397 36.2784 19.7718C36.3445 19.6038 36.3758 19.4241 36.3702 19.2437C36.3646 19.0632 36.3224 18.8858 36.246 18.7222ZM25.336 28.6818L21.3188 24.6647C21.4678 23.9771 21.769 23.3317 22.2003 22.7759L27.2247 27.8004C26.6689 28.2317 26.0235 28.5329 25.336 28.6818ZM28.6789 25.3389C28.5299 26.0265 28.2287 26.6719 27.7975 27.2277L22.773 22.2032C23.3288 21.772 23.9742 21.4708 24.6617 21.3218L28.6789 25.3389Z" fill="#002147"/>
</svg>
