<svg width="14" height="13" viewBox="0 0 14 13" fill="none" xmlns="http://www.w3.org/2000/svg">
<g clip-path="url(#clip0_1_28467)">
<path d="M12.6177 6.96429C12.6177 6.80804 12.4994 6.72991 12.2628 6.72991H4.97712C4.79855 6.72991 4.6077 6.7779 4.40458 6.87388C4.20145 6.96987 4.04185 7.08705 3.92578 7.22545L1.95703 9.65625C1.87667 9.76339 1.8365 9.85268 1.8365 9.92411C1.8365 10.0804 1.9548 10.1585 2.19141 10.1585H9.47712C9.65569 10.1585 9.84766 10.1094 10.053 10.0112C10.2584 9.91295 10.4169 9.79464 10.5285 9.65625L12.4972 7.22545C12.5776 7.12723 12.6177 7.04018 12.6177 6.96429ZM4.97712 5.87277H10.12V4.80134C10.12 4.62277 10.0575 4.47098 9.93248 4.34598C9.80748 4.22098 9.65569 4.15848 9.47712 4.15848H5.61998C5.44141 4.15848 5.28962 4.09598 5.16462 3.97098C5.03962 3.84598 4.97712 3.6942 4.97712 3.51562V3.08705C4.97712 2.90848 4.91462 2.7567 4.78962 2.6317C4.66462 2.5067 4.51283 2.4442 4.33426 2.4442H2.19141C2.01283 2.4442 1.86105 2.5067 1.73605 2.6317C1.61105 2.7567 1.54855 2.90848 1.54855 3.08705V8.79911L3.26283 6.68973C3.45926 6.45312 3.71819 6.25781 4.03962 6.10379C4.36105 5.94978 4.67355 5.87277 4.97712 5.87277ZM13.4749 6.96429C13.4749 7.24107 13.3722 7.50893 13.1669 7.76786L11.1914 10.1987C10.9994 10.4353 10.7405 10.6306 10.4146 10.7846C10.0887 10.9386 9.77623 11.0156 9.47712 11.0156H2.19141C1.78069 11.0156 1.42801 10.8683 1.13337 10.5737C0.838728 10.279 0.691406 9.92634 0.691406 9.51562V3.08705C0.691406 2.67634 0.838728 2.32366 1.13337 2.02902C1.42801 1.73438 1.78069 1.58705 2.19141 1.58705H4.33426C4.74498 1.58705 5.09766 1.73438 5.3923 2.02902C5.68694 2.32366 5.83426 2.67634 5.83426 3.08705V3.30134H9.47712C9.88783 3.30134 10.2405 3.44866 10.5352 3.7433C10.8298 4.03795 10.9771 4.39062 10.9771 4.80134V5.87277H12.2628C12.5039 5.87277 12.7249 5.92746 12.9258 6.03683C13.1267 6.14621 13.2762 6.30357 13.3744 6.50893C13.4414 6.65179 13.4749 6.80357 13.4749 6.96429Z" fill="white"/>
</g>
<defs>
<clipPath id="clip0_1_28467">
<rect width="12.86" height="12" fill="white" transform="matrix(1 0 0 -1 0.689941 12.73)"/>
</clipPath>
</defs>
</svg>
