<svg width="50" height="51" viewBox="0 0 50 51" fill="none" xmlns="http://www.w3.org/2000/svg">
<path d="M50 25.8301C50 12.023 38.8071 0.830078 25 0.830078C11.1929 0.830078 0 12.023 0 25.8301C0 39.6372 11.1929 50.8301 25 50.8301C38.8071 50.8301 50 39.6372 50 25.8301Z" fill="white"/>
<path fill-rule="evenodd" clip-rule="evenodd" d="M19.0422 37.02C14.8535 37.02 11.1675 33.4254 11 29.252C11.0305 29.252 11.0762 29.2367 11.1066 29.2215C17.321 26.16 22.0123 29.6937 27.0996 28.4295C27.3585 33.0446 23.4897 37.02 19.0422 37.02ZM11 28.597C11.1371 24.9262 13.4827 22.0323 17.0621 21.1489V15.8179H21.0375V21.1489C24.3579 21.9714 26.6122 24.515 27.0387 27.8202C27.0234 27.8202 27.0234 27.8202 27.0082 27.8202C22.2103 29.0844 17.321 25.566 11 28.597ZM14.9145 31.1864C14.1986 31.1864 13.6198 30.6076 13.6198 29.8765C13.6198 29.1606 14.1986 28.5818 14.9145 28.5818C15.6456 28.5818 16.2244 29.1606 16.2244 29.8765C16.2244 30.6076 15.6456 31.1864 14.9145 31.1864ZM14.9145 29.191C14.0006 29.191 14.0006 30.5771 14.9145 30.5771C15.8284 30.5771 15.8284 29.191 14.9145 29.191ZM18.9203 31.6738C18.2045 31.6738 17.6104 31.095 17.6104 30.3639C17.6104 29.648 18.2045 29.0692 18.9203 29.0692C19.6362 29.0692 20.215 29.648 20.215 30.3639C20.215 31.095 19.6362 31.6738 18.9203 31.6738ZM18.9203 29.6784C18.0064 29.6784 18.0064 31.0645 18.9203 31.0645C19.8342 31.0645 19.8342 29.6784 18.9203 29.6784ZM16.5595 34.4002C15.8284 34.4002 15.2496 33.8214 15.2496 33.1055C15.2496 32.3744 15.8284 31.7956 16.5595 31.7956C17.2753 31.7956 17.8541 32.3744 17.8541 33.1055C17.8541 33.8214 17.2753 34.4002 16.5595 34.4002ZM16.5595 32.4049C15.6456 32.4049 15.6456 33.7909 16.5595 33.7909C17.4733 33.7909 17.4733 32.4049 16.5595 32.4049ZM23.3527 32.3744C22.6368 32.3744 22.058 31.7956 22.058 31.0797C22.058 30.3639 22.6368 29.7698 23.3527 29.7698C24.0685 29.7698 24.6626 30.3639 24.6626 31.0797C24.6626 31.7956 24.0685 32.3744 23.3527 32.3744ZM23.3527 30.3791C22.4388 30.3791 22.4388 31.7651 23.3527 31.7651C24.2666 31.7651 24.2666 30.3791 23.3527 30.3791ZM20.0627 35.771C19.3468 35.771 18.7528 35.177 18.7528 34.4611C18.7528 33.7452 19.3468 33.1664 20.0627 33.1664C20.7786 33.1664 21.3726 33.7452 21.3726 34.4611C21.3726 35.177 20.7786 35.771 20.0627 35.771ZM20.0627 33.7757C19.1488 33.7757 19.1488 35.1618 20.0627 35.1618C20.9766 35.1618 20.9766 33.7757 20.0627 33.7757Z" fill="#002147"/>
<path fill-rule="evenodd" clip-rule="evenodd" d="M21.4943 15.2086H16.6051C15.9958 15.2086 15.4932 14.7211 15.4932 14.1119C15.4932 13.5026 15.9958 13 16.6051 13H21.4943C22.1036 13 22.6062 13.5026 22.6062 14.1119C22.6062 14.7211 22.1036 15.2086 21.4943 15.2086Z" fill="#002147"/>
<path fill-rule="evenodd" clip-rule="evenodd" d="M33.8773 37.02C32.5065 37.02 31.3794 35.8929 31.3794 34.5068V28.9626C31.4251 28.9626 31.4556 28.9473 31.486 28.9169C33.2681 27.7288 34.7151 29.0083 36.3753 28.6122V34.5068C36.3753 35.8929 35.2634 37.02 33.8773 37.02ZM33.3442 35.2988C32.1257 35.2988 32.1257 33.4406 33.3442 33.4406C34.578 33.4406 34.578 35.2988 33.3442 35.2988ZM33.3442 34.0499C32.9178 34.0499 32.9178 34.6896 33.3442 34.6896C33.7707 34.6896 33.7707 34.0499 33.3442 34.0499ZM34.7455 33.1664C33.527 33.1664 33.527 31.3082 34.7455 31.3082C35.9793 31.3082 35.9793 33.1664 34.7455 33.1664ZM34.7455 31.9175C34.3191 31.9175 34.3191 32.5572 34.7455 32.5572C35.172 32.5572 35.172 31.9175 34.7455 31.9175ZM33.3899 30.8208C32.1562 30.8208 32.1562 28.9473 33.3899 28.9473C34.6085 28.9473 34.6085 30.8208 33.3899 30.8208ZM33.3899 29.5566C32.9635 29.5566 32.9635 30.2115 33.3899 30.2115C33.8164 30.2115 33.8164 29.5566 33.3899 29.5566ZM31.3794 28.2315V20.2959H36.3753V27.9725C34.8065 28.4295 33.4052 27.15 31.3794 28.2315Z" fill="#002147"/>
<path fill-rule="evenodd" clip-rule="evenodd" d="M36.2994 19.6867H31.4711C31.0903 19.6867 30.7856 19.3821 30.7856 19.0165V18.2854C30.7856 17.9199 31.0903 17.6152 31.4711 17.6152H36.2994C36.665 17.6152 36.9696 17.9199 36.9696 18.2854V19.0165C36.9696 19.3821 36.665 19.6867 36.2994 19.6867Z" fill="#002147"/>
<path fill-rule="evenodd" clip-rule="evenodd" d="M26.8407 37.02C25.8202 37.02 24.952 36.4107 24.556 35.5425C24.8759 35.2836 25.1653 34.9942 25.4394 34.6896C25.7898 35.6644 27.2367 35.4054 27.2367 34.3697C27.2367 33.8823 26.8712 33.4711 26.3838 33.4406C26.5513 33.1664 26.7189 32.8923 26.856 32.6029C27.252 33.532 28.638 33.2426 28.638 32.2373C28.638 31.5671 27.9526 31.1102 27.3434 31.3691C27.6328 30.4705 27.7394 29.5718 27.7089 28.597C28.242 28.6884 28.7903 28.7341 29.3387 28.6122V34.5068C29.3387 35.8929 28.2268 37.02 26.8407 37.02ZM26.3076 34.0499C25.8811 34.0499 25.8811 34.6896 26.3076 34.6896C26.7341 34.6896 26.7341 34.0499 26.3076 34.0499ZM27.7089 31.9175C27.2824 31.9175 27.2824 32.5572 27.7089 32.5572C28.1354 32.5572 28.1354 31.9175 27.7089 31.9175ZM24.3428 22.017V20.2959H29.3387V27.9725C28.7446 28.1401 28.3639 28.0944 27.6632 27.9725C27.4195 25.505 26.2162 23.4031 24.3428 22.017Z" fill="#002147"/>
<path fill-rule="evenodd" clip-rule="evenodd" d="M29.2623 19.6867H24.4187C24.0532 19.6867 23.7485 19.3821 23.7485 19.0165V18.2854C23.7485 17.9199 24.0532 17.6152 24.4187 17.6152H29.2623C29.6279 17.6152 29.9325 17.9199 29.9325 18.2854V19.0165C29.9325 19.3821 29.6279 19.6867 29.2623 19.6867Z" fill="#002147"/>
</svg>
