<svg width="50" height="51" viewBox="0 0 50 51" fill="none" xmlns="http://www.w3.org/2000/svg">
<rect y="0.839844" width="50" height="50" rx="25" fill="white"/>
<path d="M25.5312 14.541C25.639 14.541 25.7423 14.4982 25.8185 14.422C25.8947 14.3458 25.9375 14.2425 25.9375 14.1348V12.916C25.9352 12.809 25.8917 12.707 25.816 12.6313C25.7403 12.5556 25.6383 12.512 25.5312 12.5098C25.4235 12.5098 25.3202 12.5526 25.244 12.6288C25.1678 12.7049 25.125 12.8083 25.125 12.916V14.1348C25.125 14.2425 25.1678 14.3458 25.244 14.422C25.3202 14.4982 25.4235 14.541 25.5312 14.541Z" fill="black"/>
<path d="M28.9255 14.2359C28.881 14.2735 28.8451 14.3201 28.8202 14.3728C28.7953 14.4254 28.782 14.4828 28.7812 14.541V15.7598C28.7812 15.8675 28.8241 15.9708 28.9002 16.047C28.9764 16.1232 29.0798 16.166 29.1875 16.166C29.2952 16.166 29.3986 16.1232 29.4748 16.047C29.5509 15.9708 29.5938 15.8675 29.5938 15.7598V14.541C29.5938 14.4333 29.5509 14.3299 29.4748 14.2538C29.3986 14.1776 29.2952 14.1348 29.1875 14.1348C29.0908 14.1358 28.9978 14.1717 28.9255 14.2359Z" fill="black"/>
<path d="M21.875 16.166C21.9827 16.166 22.0861 16.1232 22.1623 16.047C22.2384 15.9708 22.2812 15.8675 22.2812 15.7598V14.541C22.2765 14.4348 22.2322 14.3342 22.157 14.259C22.0818 14.1839 21.9812 14.1395 21.875 14.1348C21.7673 14.1348 21.6639 14.1776 21.5877 14.2538C21.5116 14.3299 21.4688 14.4333 21.4688 14.541V15.7598C21.4688 15.8675 21.5116 15.9708 21.5877 16.047C21.6639 16.1232 21.7673 16.166 21.875 16.166Z" fill="black"/>
<path d="M20.5739 20.2224C20.6292 20.2257 30.4097 20.2285 30.4097 20.2285C30.6252 20.2285 30.8318 20.1429 30.9842 19.9905C31.1366 19.8382 31.2222 19.6315 31.2222 19.416C31.2222 19.2005 31.1366 18.9939 30.9842 18.8415C30.8318 18.6891 30.6252 18.6035 30.4097 18.6035H20.6597C20.5175 18.605 20.3781 18.6432 20.2549 18.7144C20.1318 18.7856 20.0291 18.8873 19.9568 19.0098C19.8907 19.1271 19.8546 19.2589 19.8517 19.3936C19.8489 19.5282 19.8793 19.6614 19.9404 19.7815C20.0015 19.9015 20.0913 20.0046 20.2018 20.0815C20.3123 20.1584 20.4402 20.2068 20.5739 20.2224Z" fill="black"/>
<path d="M30.3845 17.7909C30.3498 17.3637 30.2586 16.9429 30.1131 16.5397C29.9535 16.7322 29.7383 16.8706 29.4969 16.9361C29.2556 17.0016 28.9999 16.9909 28.7649 16.9055C28.5298 16.8202 28.3269 16.6643 28.1838 16.4592C28.0408 16.2541 27.9646 16.0098 27.9657 15.7597V14.5409C27.9658 14.3714 28.0017 14.2038 28.0709 14.049C27.6598 13.7958 27.2137 13.6046 26.7469 13.4814V14.1347C26.7469 14.4579 26.6185 14.7679 26.39 14.9965C26.1614 15.225 25.8514 15.3534 25.5282 15.3534C25.205 15.3534 24.895 15.225 24.6664 14.9965C24.4378 14.7679 24.3094 14.4579 24.3094 14.1347V13.4814C23.8423 13.6048 23.3958 13.7964 22.9847 14.0502C23.0543 14.2044 23.0905 14.3717 23.0907 14.5409V15.7597C23.0918 16.0098 23.0156 16.2541 22.8725 16.4592C22.7295 16.6643 22.5266 16.8202 22.2915 16.9055C22.0565 16.9909 21.8008 17.0016 21.5595 16.9361C21.3181 16.8706 21.1029 16.7322 20.9433 16.5397C20.7978 16.9429 20.7066 17.3637 20.6719 17.7909H30.3845Z" fill="black"/>
<path d="M20.6562 33.6348H30.4062V34.8535H20.6562V33.6348Z" fill="black"/>
<path d="M25.5327 29.9785C25.8733 29.9594 26.1924 29.8065 26.4207 29.5531C26.649 29.2997 26.7679 28.9664 26.7515 28.6257V27.1348H24.314V28.6257C24.2976 28.9664 24.4165 29.2997 24.6448 29.5531C24.8731 29.8065 25.1922 29.9594 25.5327 29.9785Z" fill="black"/>
<path d="M30.4062 21.4473V23.4785H30.6094C30.8776 23.4749 31.1339 23.3668 31.3236 23.1771C31.5133 22.9874 31.6214 22.7311 31.625 22.4629C31.625 22.1935 31.518 21.9352 31.3275 21.7447C31.1371 21.5543 30.8787 21.4473 30.6094 21.4473H30.4062Z" fill="black"/>
<path d="M27.1018 26.3011C27.7896 26.2146 28.4221 25.8802 28.8809 25.3605C29.3397 24.8409 29.5931 24.1717 29.5938 23.4785V21.041H21.4688V23.4785C21.4693 24.1716 21.7227 24.8407 22.1814 25.3604C22.6401 25.88 23.2726 26.2145 23.9603 26.3011C24.0744 26.3154 26.9881 26.3154 27.1018 26.3011Z" fill="#002147"/>
<path d="M31.2188 34.8535H33.2094V36.8848H31.2188V34.8535Z" fill="black"/>
<path d="M20.6562 35.666H30.4062V36.8848H20.6562V35.666Z" fill="black"/>
<path d="M17.8516 34.8535H19.8422V36.8848H17.8516V34.8535Z" fill="black"/>
<path d="M31.2188 29.125V34.0406H34.0625V33.2281C34.0555 32.3377 33.7804 31.47 33.2732 30.7382C32.766 30.0063 32.05 29.4442 31.2188 29.125Z" fill="black"/>
<path d="M20.4531 21.4473C20.1838 21.4473 19.9254 21.5543 19.735 21.7447C19.5445 21.9352 19.4375 22.1935 19.4375 22.4629C19.4414 22.731 19.5496 22.9871 19.7393 23.1768C19.9289 23.3664 20.185 23.4746 20.4531 23.4785H20.6562V21.4473H20.4531Z" fill="black"/>
<path d="M20.6562 32.8223H30.4062V28.8727C30.0633 28.7978 29.7132 28.7599 29.3622 28.7598H27.5499C27.5355 29.2918 27.3186 29.7982 26.9434 30.1757C26.5683 30.5532 26.0632 30.7733 25.5312 30.791C24.9993 30.7733 24.4942 30.5532 24.1191 30.1757C23.7439 29.7982 23.527 29.2918 23.5126 28.7598H21.7003C21.3493 28.7598 20.9992 28.7975 20.6562 28.8723V32.8223Z" fill="black"/>
<path d="M19.8438 34.0406V29.125C19.0153 29.4483 18.3021 30.0115 17.7955 30.7424C17.2889 31.4734 17.0119 32.3389 17 33.2281V34.0406H19.8438Z" fill="black"/>
</svg>
