<svg width="50" height="51" viewBox="0 0 50 51" fill="none" xmlns="http://www.w3.org/2000/svg">
<rect y="0.830078" width="50" height="50" rx="25" fill="white"/>
<path d="M35.5626 23.0723H34.3256C34.2399 22.8303 34.1424 22.5938 34.0321 22.3629L34.9065 21.4877C35.2238 21.1703 35.2238 20.6562 34.9065 20.3388L32.6086 18.041C32.2912 17.7236 31.7771 17.7236 31.4597 18.041L30.5845 18.9153C30.3536 18.8051 30.1171 18.7075 29.8751 18.6218V17.3848C29.8751 16.9357 29.5117 16.5723 29.0626 16.5723H25.8126C25.3639 16.5723 25.0001 16.9357 25.0001 17.3848V18.6218C24.7585 18.7075 24.5217 18.8058 24.2908 18.9153C24.2908 18.9153 23.3499 17.9995 23.318 17.9758L24.8843 15.3654C25.0351 15.1147 25.039 14.8021 24.8946 14.5466C24.7506 14.2919 24.4804 14.1348 24.1876 14.1348H19.3126C18.9957 14.1348 18.7076 14.3188 18.5747 14.6069L13.6997 25.1694C13.5839 25.4209 13.6037 25.7145 13.7533 25.9478C13.9025 26.181 14.1607 26.3223 14.4376 26.3223H18.0427L13.6997 35.7319C13.5307 36.0984 13.6565 36.5341 13.9953 36.7538C14.1314 36.8419 14.2849 36.8848 14.4372 36.8848C14.665 36.8848 14.8899 36.7896 15.049 36.6071L20.1107 30.8225L22.2671 32.9786C22.5718 33.2833 23.1113 33.2833 23.416 32.9786L24.2908 32.1042C24.5217 32.2137 24.7585 32.3121 25.0001 32.3978V33.6348C25.0001 34.0839 25.3639 34.4473 25.8126 34.4473H29.0626C29.5117 34.4473 29.8751 34.0839 29.8751 33.6348V32.3978C30.1171 32.3121 30.3536 32.2145 30.5845 32.1042L31.4597 32.9786C31.7771 33.296 32.2912 33.296 32.6086 32.9786L34.9065 30.6807C35.2238 30.3633 35.2238 29.8492 34.9065 29.5318L34.0321 28.6566C34.1424 28.4257 34.2399 28.1893 34.3256 27.9473H35.5626C36.0117 27.9473 36.3751 27.5839 36.3751 27.1348V23.8848C36.3751 23.4357 36.0117 23.0723 35.5626 23.0723ZM20.0506 25.8502C20.1664 25.5986 20.1466 25.3051 19.997 25.0718C19.8478 24.8385 19.5896 24.6973 19.3126 24.6973H15.7076L19.8324 15.7598H22.7527L18.616 22.6541C18.4652 22.9048 18.4613 23.2175 18.6057 23.473C18.7497 23.7277 19.0199 23.8848 19.3126 23.8848H24.0222L17.5365 31.2964L20.0506 25.8502ZM34.7501 26.3223H33.725C33.3545 26.3223 33.0315 26.573 32.9387 26.9316C32.8054 27.4466 32.6015 27.9385 32.3325 28.3932C32.1444 28.7122 32.196 29.1192 32.4578 29.381L33.1831 30.1063L32.0341 31.2552L31.3089 30.53C31.0471 30.2681 30.64 30.2181 30.3211 30.4046C29.8664 30.6736 29.3745 30.8775 28.8595 31.0108C28.5009 31.1036 28.2501 31.4266 28.2501 31.7971V32.8223H26.6251V31.7971C26.6251 31.4266 26.3744 31.1036 26.0166 31.0108C25.5008 30.8775 25.0089 30.6736 24.5538 30.4046C24.2341 30.2173 23.8274 30.2681 23.5664 30.53L22.8415 31.2552L21.183 29.597L23.6115 26.8216C24.1605 28.416 25.6593 29.5723 27.4376 29.5723C29.6776 29.5723 31.5001 27.7497 31.5001 25.5098C31.5001 23.6578 30.2497 22.04 28.458 21.5774C28.0248 21.46 27.5805 21.7258 27.4686 22.1606C27.3559 22.5946 27.617 23.0381 28.0518 23.15C29.1253 23.4277 29.8751 24.3981 29.8751 25.5098C29.8751 26.8539 28.7818 27.9473 27.4376 27.9473C26.0935 27.9473 25.0001 26.8539 25.0001 25.5098C25.0001 25.4305 26.4244 23.6071 26.4244 23.6071C26.6339 23.3674 26.6846 23.027 26.5521 22.7366C26.4204 22.4462 26.1316 22.2598 25.8126 22.2598H20.7476L22.4686 19.3915L23.5664 20.4896C23.8282 20.7522 24.2349 20.8022 24.5538 20.6149C25.0089 20.3459 25.5008 20.142 26.0166 20.0087C26.3744 19.9159 26.6251 19.593 26.6251 19.2224V18.1973H28.2501V19.2224C28.2501 19.593 28.5009 19.9159 28.8595 20.0087C29.3745 20.142 29.8664 20.3459 30.3211 20.6149C30.64 20.803 31.0471 20.7514 31.3089 20.4896L32.0341 19.7643L33.1831 20.9133L32.4578 21.6385C32.196 21.9003 32.1444 22.3074 32.3325 22.6263C32.6015 23.081 32.8054 23.5729 32.9387 24.0879C33.0315 24.4465 33.3545 24.6973 33.725 24.6973H34.7501V26.3223Z" fill="#002147"/>
</svg>
