<svg width="218" height="205" viewBox="0 0 218 205" fill="none" xmlns="http://www.w3.org/2000/svg">
<g filter="url(#filter0_d_1_28632)">
<path d="M213.5 192.952C213.5 195.128 166.714 196.892 109 196.892C51.2864 196.892 4.5 195.128 4.5 192.952C4.5 190.777 51.2864 189.013 109 189.013C166.714 189.013 213.5 190.777 213.5 192.952Z" fill="#FFF0E7"/>
<path d="M127.493 118.257L144.856 189.573H139.898L122.601 118.257H127.493Z" fill="#C99D8D"/>
<path d="M104.675 118.257H109.568L92.2713 189.573H87.313L104.675 118.257Z" fill="#C99D8D"/>
<path d="M74.4945 128.917H157.665V69.8749H74.4945L74.4945 128.917Z" fill="#C99D8D"/>
<path d="M77.184 126.307L154.973 126.307V72.4851H77.184V126.307Z" fill="#FDE4D9"/>
<path d="M162.027 54.8575L161.268 57.0711L160.529 54.851C159.577 51.9927 157.585 49.5968 154.948 48.1401C157.597 46.706 159.61 44.3275 160.587 41.4772L161.345 39.2637L162.084 41.4837C163.036 44.3421 165.028 46.7379 167.665 48.1947C165.016 49.6293 163.003 52.0078 162.027 54.8575Z" fill="#FFC253"/>
<path d="M173.268 35.2899L172.676 37.0171L172.099 35.285C171.357 33.0552 169.802 31.1857 167.745 30.0492C169.812 28.9305 171.383 27.0745 172.144 24.8512L172.736 23.1245L173.313 24.8566C174.055 27.0869 175.609 28.9559 177.667 30.0924C175.6 31.2111 174.029 33.0666 173.268 35.2899Z" fill="#FFC253"/>
<path d="M46.3431 36.5939C43.4658 36.5939 41.1338 34.2619 41.1338 31.3846V26.1753H51.5524V31.3846C51.553 34.2619 49.2204 36.5939 46.3431 36.5939Z" fill="#FACC07"/>
<path d="M46.3467 35.2921C44.1926 35.2921 42.4399 33.5395 42.4399 31.3854V28.7808H50.2539V31.3854C50.2539 33.5395 48.5012 35.2921 46.3467 35.2921Z" fill="#CD2B7B"/>
<path d="M46.3431 36.5938C43.4658 36.5938 41.1338 38.9263 41.1338 41.8031V47.0124H51.5524V41.8031C51.553 38.9263 49.2204 36.5938 46.3431 36.5938Z" fill="#FACC07"/>
<path d="M50.2539 41.8032H42.4399V44.4079H50.2539V41.8032Z" fill="#CD2B7B"/>
<path d="M46.9964 34.6406H45.6938V41.8033H46.9964V34.6406Z" fill="#CD2B7B"/>
<path d="M51.5524 26.1753H41.1338V27.4779H51.5524V26.1753Z" fill="#131D42"/>
<path d="M51.5524 45.71H41.1338V47.012H51.5524V45.71Z" fill="#131D42"/>
<path d="M54.1639 28.7793H52.8613V36.5933H54.1639V28.7793Z" fill="#6FB1FE"/>
<path d="M53.5168 37.5146L51.1025 35.1009L52.0238 34.1797L53.5168 35.6732L55.0098 34.1797L55.9305 35.1009L53.5168 37.5146Z" fill="#6FB1FE"/>
<path d="M39.8324 36.5933H38.5298V44.4072H39.8324V36.5933Z" fill="#6FB1FE"/>
<path d="M40.6699 39.0072L39.1769 37.5142L37.6839 39.0072L36.7632 38.0866L39.1769 35.6729L41.5911 38.0866L40.6699 39.0072Z" fill="#6FB1FE"/>
<path d="M108.92 6.63357C90.9115 8.26127 76.7014 23.3164 76.0907 41.3877C75.6368 54.8097 82.4576 66.5964 92.8557 73.2122C96.8154 75.7313 99.5304 79.8057 100.618 84.3713L103.085 94.7326L113.341 94.5179L123.598 94.3026L125.647 83.7498C126.553 79.0874 129.239 74.9718 133.117 72.2303C142.599 65.5275 148.692 54.3915 148.43 41.9081C147.994 21.0757 130.034 4.72511 108.92 6.63357Z" fill="#FACC07"/>
<path d="M110.091 98.7599C110.051 98.7604 110.011 98.7593 109.97 98.7555C109.398 98.7014 108.977 98.194 109.032 97.6217C110.378 83.4089 109.431 70.8714 107.511 63.4718C107.262 63.4599 107.009 63.4458 106.754 63.4307C102.352 63.3003 100.722 61.4546 100.144 60.3667C99.4855 59.1253 99.5352 57.6874 100.277 56.5174C101.064 55.2753 102.488 54.5824 104.076 54.6538C104.925 54.6949 105.73 55.1466 106.467 55.997C107.414 57.0891 108.297 58.9495 109.06 61.4459C111.855 61.5125 114.148 61.3675 116.018 61.09C117.052 58.5822 118.412 56.4854 119.918 55.2997C121.363 54.1605 122.591 54.1686 123.368 54.3698C124.979 54.7944 125.898 56.1068 125.653 57.635C125.319 59.7236 122.919 61.9214 117.553 62.9492C116.639 65.4971 116.045 68.4934 116.106 71.4037C115.842 80.6414 116.646 97.3848 116.654 97.553C116.682 98.127 116.239 98.6143 115.665 98.643C115.103 98.6803 114.603 98.2281 114.576 97.6536C114.568 97.4854 113.759 80.6609 114.026 71.3955C113.969 68.7422 114.424 65.8941 115.227 63.297C113.586 63.481 111.727 63.5708 109.634 63.5394C111.554 71.3279 112.442 83.6929 111.103 97.8181C111.053 98.3498 110.612 98.749 110.091 98.7599ZM103.779 56.7305C103.021 56.7462 102.391 57.0686 102.034 57.6317C101.693 58.1694 101.674 58.8099 101.982 59.3909C102.604 60.5631 104.377 61.2777 106.847 61.3507C106.861 61.3513 106.875 61.3523 106.889 61.354C106.283 59.5402 105.608 58.1824 104.895 57.3602C104.555 56.968 104.228 56.7451 103.978 56.7332C103.91 56.73 103.844 56.7294 103.779 56.7305ZM122.527 56.3464C122.134 56.3545 121.692 56.5509 121.206 56.9344C120.302 57.6463 119.371 58.9354 118.557 60.5745C122.215 59.5981 123.477 58.0677 123.599 57.3061C123.695 56.7024 123.164 56.4687 122.839 56.3832C122.738 56.3562 122.634 56.3443 122.527 56.3464Z" fill="#EA830C"/>
<path d="M118.882 111.53L108.517 111.748L106.138 106.747L121.049 106.435L118.882 111.53Z" fill="#FF3E98"/>
<path d="M125.039 93.544L101.61 94.0352C100.255 94.0639 99.1794 95.1853 99.2081 96.5409L99.267 99.3532C99.2957 100.709 100.417 101.784 101.773 101.756L101.93 101.753C101.26 102.464 100.856 103.426 100.877 104.48C100.922 106.612 102.687 108.304 104.819 108.259L122.43 107.89C124.562 107.845 126.254 106.08 126.21 103.949C126.188 102.895 125.743 101.95 125.044 101.268L125.202 101.265C126.557 101.236 127.633 100.115 127.605 98.7593L127.546 95.9469C127.516 94.5913 126.394 93.5153 125.039 93.544Z" fill="#CD2B7B"/>
<path d="M125.039 93.544L113.572 93.7847L113.967 108.067L122.429 107.89C124.561 107.845 126.253 106.08 126.209 103.949C126.187 102.895 125.742 101.95 125.043 101.268L125.2 101.265C126.556 101.236 127.632 100.115 127.603 98.7593L127.544 95.9474C127.516 94.5913 126.394 93.5153 125.039 93.544Z" fill="#AE115D"/>
<path d="M90.311 84.6726C90.06 83.6686 89.6645 82.723 89.1447 81.8591C91.0569 79.7651 92.1783 78.3835 92.035 78.2402L89.2058 75.411C89.0619 75.2666 87.6809 76.3896 85.5863 78.3002C84.7224 77.782 83.7769 77.3855 82.7734 77.135C82.6436 74.3037 82.4607 72.5332 82.2568 72.5332H78.2565C78.0531 72.5332 77.8692 74.3037 77.7404 77.135C76.737 77.3855 75.792 77.7826 74.9275 78.3002C72.8335 76.3896 71.4514 75.2666 71.307 75.411L68.4789 78.2402C68.335 78.3835 69.4569 79.7651 71.3692 81.8591C70.8493 82.723 70.4534 83.6686 70.2029 84.6726C67.3711 84.8013 65.6011 84.9858 65.6011 85.1892V89.1895C65.6011 89.3923 67.3711 89.5757 70.2029 89.7055C70.4534 90.709 70.8499 91.6551 71.3692 92.5185C69.4569 94.613 68.335 95.9951 68.4789 96.139L71.307 98.9676C71.4514 99.1115 72.833 97.9885 74.9275 96.0784C75.7914 96.5972 76.737 96.9932 77.7404 97.2431C77.8697 100.075 78.0531 101.846 78.2565 101.846H82.2568C82.4607 101.846 82.6436 100.075 82.7734 97.2431C83.7769 96.9932 84.7224 96.5972 85.5863 96.0784C87.6809 97.9891 89.0619 99.1115 89.2058 98.9676L92.035 96.139C92.1783 95.9951 91.0569 94.6136 89.1447 92.5185C89.6645 91.6557 90.06 90.709 90.311 89.7055C93.1417 89.5757 94.9128 89.3923 94.9128 89.1895V85.1892C94.9128 84.9853 93.1417 84.8013 90.311 84.6726Z" fill="#6FB1FE"/>
<path d="M86.9233 87.1889C86.9233 90.87 83.9389 93.8539 80.2578 93.8539C76.5766 93.8539 73.5928 90.8695 73.5928 87.1889C73.5928 83.5083 76.5772 80.5244 80.2578 80.5244C83.9395 80.5244 86.9233 83.5088 86.9233 87.1889Z" fill="#4A80E8"/>
<path d="M84.9019 87.1887C84.9019 89.7555 82.8214 91.8354 80.2546 91.8354C77.6883 91.8354 75.6084 89.7555 75.6084 87.1887C75.6084 84.6225 77.6883 82.542 80.2546 82.542C82.8214 82.542 84.9019 84.623 84.9019 87.1887Z" fill="#3547C7"/>
<path d="M171.366 84.4727C170.986 82.9548 170.389 81.5251 169.603 80.2198C172.493 77.0542 174.189 74.9656 173.972 74.7486L169.695 70.4719C169.478 70.2534 167.39 71.9514 164.223 74.8395C162.918 74.0562 161.488 73.4569 159.972 73.0777C159.775 68.7977 159.499 66.1211 159.191 66.1211H153.144C152.837 66.1211 152.559 68.7972 152.364 73.0777C150.847 73.4563 149.418 74.0562 148.112 74.8395C144.946 71.9514 142.858 70.2539 142.639 70.4719L138.364 74.7486C138.147 74.965 139.843 77.0542 142.733 80.2198C141.947 81.5251 141.349 82.9548 140.97 84.4727C136.689 84.6669 134.013 84.9455 134.013 85.2533V91.3C134.013 91.6067 136.689 91.8837 140.97 92.0795C141.348 93.5963 141.947 95.0266 142.733 96.3313C139.842 99.498 138.147 101.587 138.364 101.804L142.639 106.08C142.857 106.298 144.946 104.601 148.112 101.713C149.418 102.496 150.847 103.095 152.364 103.473C152.559 107.755 152.837 110.432 153.144 110.432H159.191C159.499 110.432 159.775 107.755 159.972 103.473C161.488 103.095 162.918 102.496 164.223 101.713C167.39 104.601 169.478 106.298 169.695 106.08L173.972 101.804C174.188 101.587 172.493 99.498 169.603 96.3313C170.388 95.0266 170.986 93.5963 171.366 92.0795C175.645 91.8831 178.323 91.6062 178.323 91.3V85.2533C178.323 84.9455 175.645 84.6669 171.366 84.4727Z" fill="#6FB1FE"/>
<path d="M166.243 88.2762C166.243 93.8404 161.732 98.3519 156.167 98.3519C150.603 98.3519 146.091 93.841 146.091 88.2762C146.091 82.7126 150.602 78.2017 156.167 78.2017C161.732 78.2017 166.243 82.7126 166.243 88.2762Z" fill="#4A80E8"/>
<path d="M163.191 88.2761C163.191 92.1563 160.046 95.3009 156.166 95.3009C152.287 95.3009 149.143 92.1563 149.143 88.2761C149.143 84.397 152.287 81.252 156.166 81.252C160.046 81.252 163.191 84.397 163.191 88.2761Z" fill="#3547C7"/>
<path d="M47.6289 115.538C47.6289 115.538 52.267 119.673 52.9778 122.145C53.6886 124.617 54.4697 132.324 54.4697 132.324L66.0184 136.857V139.939H48.4203V126.068L47.6289 115.538Z" fill="#6FB1FE"/>
<path d="M66.2554 180.437C66.5453 182.428 67.5937 186.087 67.8149 186.852L67.9637 187.225L68.4494 188.451L70.5927 187.617L70.4802 186.123L70.4293 185.463L71.0384 185.876L72.5033 186.87L83.5099 182.583L82.8792 180.981C82.8392 180.908 82.7883 180.832 82.7342 180.759C82.5855 180.578 82.3788 180.422 82.0927 180.397C80.9356 180.284 76.7908 180.143 75.5072 179.671C74.5135 179.305 73.3347 178.152 72.856 177.655L66.2554 180.437Z" fill="#EA830C"/>
<path d="M73.2125 180.446C73.2092 180.469 73.2065 180.491 73.2038 180.514C73.1854 180.683 73.2233 180.917 73.4316 180.934C73.5376 180.942 73.636 180.889 73.7247 180.831C74.0293 180.634 74.2749 180.365 74.4978 180.075C74.7374 179.765 74.9911 179.43 75.0674 179.024C75.1464 178.605 74.7314 178.403 74.4042 178.621C73.8378 178.999 73.3163 179.729 73.2125 180.446Z" fill="#E05D00"/>
<path d="M74.6832 180.863C74.6799 180.886 74.6772 180.908 74.6745 180.931C74.6561 181.1 74.694 181.334 74.9023 181.351C75.0083 181.359 75.1073 181.306 75.1954 181.248C75.5 181.051 75.7456 180.782 75.9685 180.493C76.2081 180.182 76.4618 179.847 76.5381 179.442C76.6171 179.022 76.2021 178.821 75.8749 179.039C75.3085 179.416 74.787 180.146 74.6832 180.863Z" fill="#E05D00"/>
<path d="M76.3018 180.886C76.2986 180.908 76.2959 180.931 76.2932 180.953C76.2748 181.122 76.3126 181.356 76.5204 181.373C76.6264 181.382 76.7254 181.328 76.8136 181.271C77.1181 181.073 77.3637 180.804 77.5866 180.515C77.8262 180.204 78.0799 179.87 78.1562 179.464C78.2352 179.044 77.8203 178.843 77.493 179.061C76.9272 179.438 76.4057 180.169 76.3018 180.886Z" fill="#E05D00"/>
<path d="M82.7377 180.762L71.0425 185.879L72.5074 186.872L83.514 182.586L82.8833 180.983C82.8427 180.91 82.7924 180.834 82.7377 180.762Z" fill="#E05D00"/>
<path d="M67.9658 187.227L68.4516 188.453L70.5948 187.619L70.4823 186.125L67.9658 187.227Z" fill="#AE115D"/>
<path d="M46.9294 145.344C46.9294 145.344 60.6981 148.362 62.3485 149.246C63.9989 150.129 74.1395 177.141 74.1395 177.141L64.4144 181.855L53.0924 154.434L37.0917 155.367L34.7954 146.398L46.9294 145.344Z" fill="#AE115D"/>
<path d="M82.6427 143.646H79.146V188.518H82.6427V143.646Z" fill="#131D42"/>
<path d="M69.8145 190.429H91.9759C91.9759 188.561 90.4624 187.047 88.595 187.047H73.1959C71.328 187.047 69.8145 188.561 69.8145 190.429Z" fill="#131D42"/>
<path d="M53.0984 145.874H105.07V142.824H53.0984V145.874Z" fill="#FACC07"/>
<path d="M29.0092 160.222L23.5635 133.506H26.147L32.1699 160.676L29.0092 160.222Z" fill="#131D42"/>
<path d="M21.6524 129.066C22.7267 127.937 30.366 127.951 37.6444 128.241V134.524H20.696C20.696 134.524 19.5313 131.297 21.6524 129.066Z" fill="#131A70"/>
<path d="M53.092 162.303L58.0157 190.428H56.2971L49.4087 163.616L53.092 162.303Z" fill="#131D42"/>
<path d="M28.4847 162.303L23.5615 190.428H25.2801L32.168 163.616L28.4847 162.303Z" fill="#131D42"/>
<path d="M26.148 183.055H55.2471V181.268H26.148V183.055Z" fill="#131D42"/>
<path d="M57.2599 159.404C57.2599 159.404 29.5484 157.174 27.4273 159.404C25.3063 161.634 26.4709 164.861 26.4709 164.861H58.0221L57.2599 159.404Z" fill="#131A70"/>
<path d="M61.6855 184.354C61.9755 186.345 63.0239 190.004 63.2451 190.769L63.3939 191.142L63.8796 192.368L66.0229 191.534L65.9103 190.04L65.8595 189.38L66.4686 189.793L67.9335 190.787L78.9401 186.5L78.3094 184.897C78.2693 184.825 78.2185 184.749 78.1644 184.676C78.0156 184.495 77.809 184.339 77.5228 184.314C76.3658 184.201 72.221 184.06 70.9368 183.588C69.9431 183.222 68.7644 182.069 68.2862 181.572L61.6855 184.354Z" fill="#FACC07"/>
<path d="M68.6568 184.361C68.6536 184.384 68.6503 184.406 68.6481 184.429C68.6298 184.597 68.6676 184.832 68.8753 184.848C68.9814 184.856 69.0804 184.803 69.1685 184.746C69.4731 184.548 69.7187 184.279 69.9416 183.989C70.1812 183.678 70.4349 183.344 70.5112 182.938C70.5901 182.518 70.1752 182.317 69.848 182.535C69.2827 182.913 68.7612 183.644 68.6568 184.361Z" fill="#E05D00"/>
<path d="M70.1275 184.778C70.1243 184.801 70.1216 184.823 70.1189 184.846C70.1005 185.015 70.1383 185.249 70.3461 185.265C70.4521 185.274 70.5511 185.22 70.6392 185.163C70.9438 184.966 71.1894 184.696 71.4123 184.407C71.6519 184.096 71.9056 183.761 71.9819 183.356C72.0608 182.936 71.6459 182.735 71.3187 182.953C70.7528 183.331 70.2314 184.062 70.1275 184.778Z" fill="#E05D00"/>
<path d="M71.7462 184.8C71.7429 184.823 71.7402 184.845 71.7375 184.868C71.7191 185.037 71.757 185.271 71.9647 185.288C72.0707 185.296 72.1697 185.243 72.2579 185.185C72.5625 184.988 72.808 184.719 73.0309 184.429C73.2706 184.118 73.5243 183.784 73.6005 183.378C73.6795 182.958 73.2646 182.757 72.9373 182.975C72.3715 183.353 71.85 184.084 71.7462 184.8Z" fill="#E05D00"/>
<path d="M78.1762 184.676L66.481 189.793L67.9458 190.786L78.9525 186.5L78.3217 184.897C78.2817 184.825 78.2308 184.749 78.1762 184.676Z" fill="#E05D00"/>
<path d="M63.4043 191.142L63.8901 192.368L66.0333 191.534L65.9208 190.04L63.4043 191.142Z" fill="#E05D00"/>
<path d="M70.3266 181.01L64.4238 183.971L60.3743 185.664L50.1044 161.425C50.1044 161.425 36.2265 162.537 33.5228 161.245C30.8192 159.954 27.4307 149.746 27.4307 149.746L37.6032 147.257L41.8604 151.206C41.8604 151.206 52.424 151.165 54.2659 151.993C57.1362 153.285 70.3266 181.01 70.3266 181.01Z" fill="#CD2B7B"/>
<path d="M64.4238 183.971L60.3743 185.664L50.1044 161.425C50.1044 161.425 36.2265 162.537 33.5228 161.245C30.8192 159.954 27.4307 149.746 27.4307 149.746H30.7629C29.9363 152.711 31.2048 156.055 33.5098 158.121C35.9035 160.268 39.2157 161.169 42.43 161.177C45.6443 161.186 48.8018 160.377 51.8814 159.458C55.7757 165.809 60.529 177.622 64.4238 183.971Z" fill="#AE115D"/>
<path d="M27.8565 151.666C29.3447 150.075 47.6536 145.503 47.6536 145.503L51.1183 146.286V144.857C51.1183 144.234 50.9063 143.618 50.4773 143.168C49.773 142.428 48.9778 142.534 48.9778 142.534L48.9405 140.397C49.1044 138.899 50.255 127.036 50.1013 121.642V121.601C50.0467 119.768 49.4392 117.993 48.3703 116.504C47.9711 115.951 47.6979 115.62 47.633 115.538C47.626 115.535 47.626 115.531 47.6227 115.524C47.6227 115.521 47.6189 115.521 47.6189 115.521C47.3836 115.289 47.1413 115.071 46.8919 114.862C43.8983 112.339 40.1431 111.486 40.1431 111.486C39.8293 111.418 39.1088 111.558 38.3579 111.756C37.4226 112.003 34.7125 114.27 34.7093 114.272C31.8904 118.309 30.2297 120.96 28.4684 128.525C28.2363 129.518 28.0177 130.665 27.8095 131.908C27.0532 136.434 26.6183 141.003 26.4777 145.585C26.4122 147.696 26.8839 149.79 27.8565 151.666Z" fill="#6FB1FE"/>
<path d="M47.1599 162.715L50.3184 161.892L46.5594 147.468L28.8537 147.432L26.3242 161.892L29.479 162.113L31.5725 150.701L44.0359 150.727L47.1599 162.715Z" fill="#131A70"/>
<path d="M44.5448 113.254C44.5448 113.254 46.5068 114.112 47.2154 115.144C47.3674 115.365 47.2154 119.858 47.2154 119.858L44.6838 118.196L42.3491 120.538C42.3491 120.538 37.4676 115.339 37.1576 114.59C36.7724 113.66 37.3545 112.046 37.3545 112.046C37.3545 112.046 38.9303 111.495 39.4891 111.51L44.1726 116.825L44.5448 113.254Z" fill="#FFF5F2"/>
<path d="M47.2125 119.857C47.2125 119.857 46.7057 122.018 45.9213 122.139C45.1369 122.26 42.3462 120.537 42.3462 120.537L44.6809 118.195L47.2125 119.857Z" fill="#CD2B7B"/>
<path d="M37.0037 117.428C38.0645 119.118 39.3362 120.608 40.9228 121.825C42.4169 122.973 46.4659 125.781 47.7312 123.035C47.8448 122.789 48.2629 122.963 48.1715 123.22C47.3103 125.64 44.6072 124.724 42.8502 123.894C40.1022 122.596 37.8443 120.445 36.3188 117.828C36.0603 117.386 36.7327 116.996 37.0037 117.428Z" fill="#4A80E8"/>
<path d="M84.8992 142.823H63.1699L66.7986 127.94H88.5284L84.8992 142.823Z" fill="#131D42"/>
<path d="M78.7213 135.547C77.9602 135.547 77.3435 134.931 77.3435 134.169C77.3435 133.848 77.4587 133.555 77.6437 133.32C77.4593 133.269 77.2689 133.232 77.0682 133.232C75.8808 133.232 74.9185 134.194 74.9185 135.382C74.9185 136.569 75.8808 137.531 77.0682 137.531C78.2307 137.531 79.1719 136.606 79.2109 135.454C79.0578 135.512 78.8939 135.547 78.7213 135.547Z" fill="#FFF5F2"/>
<path d="M84.8921 140.727H59.3936V142.824H84.8921V140.727Z" fill="#131D42"/>
<path d="M35.466 119.541C35.466 119.541 39.9083 122.672 40.3616 124.778C40.8149 126.884 42.3458 135.383 42.3458 135.383C42.3458 135.383 51.9287 135.087 53.7154 135.383C55.5021 135.678 58.6753 136.857 58.6753 136.857V141.481C58.6753 141.481 55.9436 143.53 53.4098 143.646C50.876 143.762 39.6416 142.569 37.6444 141.209C35.6473 139.849 31.4766 130.42 31.4766 128.516C31.4766 126.612 32.3756 119.519 35.466 119.541Z" fill="#6FB1FE"/>
<path d="M31.9141 128.067C32.3263 132.579 33.5889 137.017 35.7159 141.026C36.2968 142.121 36.9617 143.159 38.1566 143.622C39.205 144.029 40.4275 143.95 41.5381 143.948C43.8214 143.942 46.0842 143.713 48.3464 143.42C48.5238 143.397 48.5612 143.693 48.3886 143.731C45.7071 144.329 42.9175 144.626 40.1684 144.553C38.3757 144.505 36.9238 144.107 35.8268 142.591C32.9002 138.55 31.6669 132.932 31.1833 128.067C31.1367 127.601 31.8719 127.601 31.9141 128.067Z" fill="#4A80E8"/>
<path d="M58.6763 141.118L59.393 140.728H63.673L64.168 138.699C64.168 138.699 61.0635 137.544 60.6707 137.533C60.278 137.522 58.6763 137.28 58.6763 137.28V141.118Z" fill="#D8684E"/>
<path d="M59.0393 135.799L58.6763 142.145L57.0448 142.824L56.8252 135.382L59.0393 135.799Z" fill="#FFF5F2"/>
<path d="M36.9907 124.579C36.8582 124.358 37.1595 124.135 37.3423 124.308C39.7338 126.573 41.4211 130.567 41.9014 133.896C44.5526 133.17 47.5483 132.999 50.3434 133.474C50.7567 129.496 50.78 125.591 50.4787 121.598C50.4716 121.506 50.6236 121.485 50.6399 121.576C51.3609 125.519 51.3842 129.6 50.7973 133.564C52.8101 133.96 54.704 134.694 56.2652 135.811C56.421 135.922 56.3339 136.226 56.1234 136.147C53.3278 135.103 50.8005 134.092 47.768 133.948C45.8222 133.856 43.9738 134.105 42.1481 134.558C42.1059 134.878 41.8527 135.17 41.7321 135.46C41.5363 135.929 41.5092 136.386 41.4578 136.884C41.4394 137.064 41.2344 137.251 41.0521 137.117C40.9634 137.051 40.9099 137.006 40.8487 136.916C40.819 136.873 40.8255 136.789 40.8693 136.755C40.8839 136.744 40.8963 136.738 40.9099 136.729C40.8769 136.262 40.9829 135.776 41.1717 135.356C41.2593 135.161 41.3789 134.913 41.5395 134.716C40.7762 134.925 40.0151 135.164 39.2513 135.43C38.9776 135.526 38.7899 135.088 39.0528 134.959C39.8328 134.575 40.681 134.258 41.5666 133.996C41.0727 132.309 40.5869 130.654 39.8123 129.055C39.0301 127.44 37.9049 126.103 36.9907 124.579Z" fill="#4A80E8"/>
<path d="M45.1372 109.543L44.8927 112.886L44.8635 113.254L44.467 116.827C44.467 116.827 39.4897 111.73 39.4897 111.511C39.5011 111.445 39.5482 110.902 39.6006 110.212C39.6996 108.858 39.8397 106.946 39.8397 106.946L45.1372 109.543Z" fill="#D8684E"/>
<path d="M45.1367 109.543L44.8922 112.887C44.5368 113.034 44.1171 112.958 43.7384 112.854C42.5553 112.514 41.4534 111.916 40.5441 111.127C40.2471 110.869 39.9031 110.557 39.5996 110.212C39.6986 108.858 39.8387 106.945 39.8387 106.945L45.1367 109.543Z" fill="#AC4732"/>
<path d="M38.8399 108.611C38.8399 108.611 38.992 109.05 39.6708 109.651H39.6725C39.8109 109.774 39.9727 109.905 40.1593 110.039C40.8723 110.551 47.5486 113.412 48.5775 113.275C49.6064 113.137 50.5758 109.603 50.6288 109.231C50.9593 106.951 51.8686 99.9025 51.8686 99.9025C49.3316 92.2222 40.2794 96.1998 39.2511 96.9538C38.2227 97.7079 38.8399 108.611 38.8399 108.611Z" fill="#D8684E"/>
<path d="M48.1131 106.273C48.1131 106.273 46.5417 106.495 46.1738 106.273L46.3962 107.265C46.3962 107.265 48.5188 106.793 48.7687 106.62L48.1131 106.273Z" fill="#ED7864"/>
<path d="M47.6713 102.19C47.3868 103.554 47.5474 105.04 48.1127 106.273C47.5961 106.781 47.0314 107.156 46.3682 107.27C47.1671 107.49 48.1078 107.273 48.7332 106.642C48.0781 105.33 47.6421 103.715 47.6713 102.19Z" fill="#AC4732"/>
<path d="M43.8965 108.432C43.8965 108.432 45.8087 107.963 48.7688 108.903C48.7688 108.903 47.8016 111.014 46.0467 110.73C44.2925 110.446 43.8965 108.432 43.8965 108.432Z" fill="white"/>
<path d="M39.6704 109.651C39.8089 109.775 39.9706 109.905 40.1573 110.04C40.8702 110.551 47.5466 113.412 48.5755 113.275C49.6043 113.138 50.5737 109.603 50.6267 109.231C49.9863 110.784 49.2625 112.93 48.5338 112.862C47.4373 112.759 40.4813 110.078 39.6704 109.651Z" fill="#ED7864"/>
<path d="M51.0802 102.596C51.0802 102.596 50.3992 100.658 49.5499 101.075C48.7006 101.491 48.9749 101.649 48.9749 101.649L51.0802 102.596Z" fill="#131A70"/>
<path d="M41.5708 101.608C41.5708 101.608 44.249 99.4176 45.0074 100.49C45.4499 101.116 45.0161 101.415 45.0161 101.415L41.5708 101.608Z" fill="#131A70"/>
<path d="M42.6704 103.672C42.6704 104.382 43.0285 104.957 43.4705 104.957C43.9124 104.957 44.2705 104.382 44.2705 103.672C44.2705 102.962 43.9124 102.387 43.4705 102.387C43.0285 102.387 42.6704 102.963 42.6704 103.672Z" fill="#161818"/>
<path d="M41.9053 102.955C41.9053 102.955 42.1866 103.396 42.674 103.593C43.1613 103.791 43.6709 103.67 43.6709 103.67C43.6709 103.67 43.3896 103.228 42.9017 103.031C42.4143 102.833 41.9053 102.955 41.9053 102.955Z" fill="#FFF0E7"/>
<path d="M50.2361 104.154C50.2361 104.689 49.9662 105.123 49.6329 105.123C49.2997 105.123 49.0298 104.689 49.0298 104.154C49.0298 103.619 49.2997 103.186 49.6329 103.186C49.9662 103.186 50.2361 103.619 50.2361 104.154Z" fill="#161818"/>
<path d="M50.7556 103.684C50.7556 103.684 50.5441 103.97 50.1968 104.11C49.8501 104.251 49.499 104.193 49.499 104.193C49.499 104.193 49.7105 103.907 50.0578 103.767C50.4051 103.626 50.7556 103.684 50.7556 103.684Z" fill="#FFF0E7"/>
<path d="M49.6412 107.12C49.7467 107.401 50.3536 107.434 50.9979 107.192C51.6416 106.952 52.0787 106.528 51.9732 106.247C51.8677 105.966 51.2608 105.933 50.6165 106.174C49.9723 106.415 49.5357 106.839 49.6412 107.12Z" fill="#ED7864"/>
<path d="M41.5397 105.807C41.4299 106.231 42.1282 106.779 43.0992 107.031C44.0702 107.282 44.9466 107.142 45.0564 106.718C45.1662 106.294 44.4678 105.746 43.4968 105.494C42.5264 105.243 41.65 105.383 41.5397 105.807Z" fill="#ED7864"/>
<path d="M39.8268 108.884C38.4518 108.775 37.451 107.96 36.9149 107.276C36.7943 107.122 36.6975 106.975 36.625 106.844C36.2322 106.132 36.1197 103.662 37.1308 103.088C37.8394 102.687 38.3549 103.27 38.6 103.655V103.657C38.7044 103.821 38.7601 103.949 38.7601 103.949L39.8268 108.884Z" fill="#ED7864"/>
<path d="M39.8272 108.884C38.4521 108.775 37.4513 107.96 36.9153 107.277C36.8687 107.207 36.8287 107.14 36.7941 107.077C36.4014 106.365 36.2883 103.896 37.2999 103.322C37.8738 102.997 38.3212 103.317 38.6009 103.655V103.657C38.7053 103.821 38.761 103.949 38.761 103.949L39.8272 108.884Z" fill="#D8684E"/>
<path d="M47.1513 99.8451C45.9888 99.5168 44.8225 99.1808 43.7509 98.6193C43.0709 98.2634 42.4304 97.8047 41.9122 97.2394C39.8604 99.2836 38.7531 102.376 39.2989 105.195C39.1804 104.597 38.7412 104.076 38.1759 103.85C37.6063 103.629 36.9934 103.625 36.4995 103.981C36.1711 102.933 35.8433 101.877 35.6378 100.802C35.535 100.268 35.4636 99.7342 35.436 99.1922C35.357 97.5553 35.7287 95.8313 36.8003 94.5898C37.7767 93.4549 39.4098 92.8345 40.833 93.2299C40.932 92.894 41.0938 92.6013 41.3507 92.3958C41.8765 91.9646 42.8729 91.9295 43.5134 91.8656C44.4033 91.7747 45.3045 91.7942 46.1943 91.9251C47.768 92.1583 49.3178 92.7593 50.4959 93.8271C51.5438 94.7721 52.2551 96.0412 52.7338 97.366C52.7614 97.4374 52.7852 97.5126 52.809 97.5834C53.2358 98.8406 53.4814 100.157 53.7221 101.47C51.2549 101.182 48.8904 100.063 47.1037 98.3348C46.8905 98.8092 46.91 99.3821 47.1513 99.8451Z" fill="#131D42"/>
<path d="M44.7825 95.1043C44.7468 95.9265 44.8301 96.7612 45.0275 97.5596C43.8888 97.2632 42.8686 96.5275 42.2243 95.543C41.1803 96.2229 40.1249 96.9072 39.2389 97.7847C38.349 98.6583 37.6295 99.7537 37.4083 100.979C36.8111 101.023 36.2101 100.964 35.6372 100.802C35.5345 100.268 35.463 99.7342 35.4355 99.1922C35.396 98.338 35.4749 97.4606 35.7162 96.6378C35.9337 95.8865 36.2853 95.1827 36.7997 94.5898C37.7761 93.4549 39.4093 92.8345 40.8325 93.2299C40.9315 92.894 41.0932 92.6013 41.3502 92.3958C41.876 91.9646 42.8724 91.9295 43.5129 91.8656C44.4027 91.7747 45.3039 91.7942 46.1938 91.9251C47.7674 92.1583 49.3172 92.7593 50.4954 93.8271C50.5944 93.9142 50.6891 94.0051 50.7799 94.1078C51.6736 95.0096 52.2984 96.164 52.7333 97.366C52.7609 97.4374 52.7847 97.5126 52.8085 97.5834C51.844 97.5044 50.887 97.3854 49.9382 97.1961C48.1039 96.832 46.3047 96.1878 44.7825 95.1043Z" fill="#131A70"/>
<path d="M43.1423 93.641C42.9643 94.163 42.9681 94.7402 43.1504 95.2584C42.2806 95.0766 41.4464 94.7483 40.6832 94.2939C39.1177 95.049 37.8286 96.3619 37.101 97.9393C36.599 97.5558 36.1322 97.1209 35.7173 96.6383C35.9347 95.887 36.2864 95.1832 36.8008 94.5903C37.7772 93.4554 39.4103 92.835 40.8336 93.2304C40.9325 92.8945 41.0943 92.6018 41.3512 92.3962C41.877 91.9651 42.8735 91.9299 43.5139 91.8661C44.4038 91.7752 45.305 91.7947 46.1949 91.9256C47.7685 92.1588 49.3183 92.7598 50.4965 93.8276C50.5955 93.9147 50.6901 94.0056 50.781 94.1083C48.2348 94.4161 45.629 94.2658 43.1423 93.641Z" fill="#172D8A"/>
<path d="M36.8135 105.05C36.7627 105.248 36.7952 105.453 36.8601 105.648C37.1365 106.477 37.9641 107.11 38.7566 107.697C38.5175 107.295 38.4299 106.841 38.4786 106.399C38.4953 106.246 38.5289 106.093 38.53 105.938C38.5359 105.316 37.1127 103.882 36.8135 105.05Z" fill="#ED7864"/>
<path d="M39.1557 107.933C39.1557 107.933 39.14 107.924 39.1108 107.907C39.0821 107.89 39.0356 107.867 38.9831 107.831C38.8771 107.76 38.7305 107.646 38.592 107.478C38.4546 107.309 38.3296 107.085 38.2707 106.82C38.2171 106.555 38.2285 106.246 38.3708 105.949C38.3859 105.911 38.407 105.875 38.4281 105.84L38.4438 105.814C38.4476 105.807 38.4454 105.811 38.4454 105.811L38.446 105.81C38.446 105.81 38.447 105.812 38.4438 105.806L38.4308 105.782L38.4043 105.735C38.3859 105.704 38.3681 105.673 38.3491 105.643C38.2745 105.521 38.1933 105.407 38.1106 105.301C38.0273 105.195 37.9413 105.098 37.8558 105.009C37.7698 104.92 37.687 104.837 37.6053 104.776C37.5236 104.713 37.4333 104.673 37.3489 104.663C37.264 104.653 37.1845 104.672 37.1304 104.699C37.0757 104.726 37.0454 104.761 37.0335 104.787C37.02 104.813 37.0211 104.829 37.0195 104.829C37.0195 104.829 37.0152 104.813 37.0216 104.784C37.0271 104.756 37.0492 104.712 37.1033 104.672C37.1574 104.633 37.2418 104.596 37.3538 104.593C37.4658 104.592 37.5859 104.63 37.6935 104.691C37.8022 104.752 37.8996 104.828 38.0018 104.912C38.1035 104.996 38.2069 105.091 38.3064 105.198C38.4054 105.304 38.5011 105.42 38.5882 105.547C38.6104 105.578 38.631 105.611 38.6521 105.644L38.6823 105.694L38.7224 105.764L38.7505 105.813C38.7435 105.829 38.7321 105.846 38.7235 105.862L38.6829 105.933C38.6645 105.964 38.6461 105.994 38.6337 106.027C38.5098 106.285 38.4827 106.555 38.5055 106.797C38.5341 107.039 38.6158 107.255 38.7148 107.426C38.8143 107.597 38.9285 107.724 39.0139 107.808C39.0561 107.85 39.0945 107.879 39.1184 107.901C39.1427 107.921 39.1557 107.933 39.1557 107.933Z" fill="#CF4A57"/>
<path d="M92.1536 142.824H96.5033C96.8593 142.824 97.1476 142.536 97.1476 142.18V135.409H91.5088V142.18C91.5093 142.536 91.7977 142.824 92.1536 142.824Z" fill="#FF3E98"/>
<path d="M89.4648 140.484V137.747C89.4648 136.935 90.1259 136.274 90.9378 136.274H93.14V141.957H90.9378C90.1253 141.957 89.4648 141.297 89.4648 140.484ZM92.2983 137.116H90.9378C90.59 137.116 90.3066 137.399 90.3066 137.747V140.484C90.3066 140.832 90.5895 141.115 90.9378 141.115H92.2983V137.116Z" fill="#FF3E98"/>
<path d="M193.775 144.602L190.672 142.25L186.411 146.203C186.411 146.203 175.838 146.162 173.995 146.991C171.123 148.284 159.027 180.16 159.027 180.16H164.079L178.161 156.431C178.161 156.431 192.05 157.544 194.756 156.251C197.462 154.958 193.775 144.602 193.775 144.602Z" fill="#FF7D6F"/>
<path d="M166.195 187.328L164.059 187.799L163.497 184.479C163.497 184.479 162.198 188.23 161.549 188.502C160.9 188.774 154.548 189.371 152.133 188.98C149.667 188.579 149.721 187.861 149.721 187.861C149.932 187.34 151.701 185.951 153.434 185.258C153.785 185.117 154.237 184.809 154.736 184.404C156.692 182.822 159.361 179.784 159.361 179.784L163.999 179.464C166.085 181.718 166.195 187.328 166.195 187.328Z" fill="#FF7D6F"/>
<path d="M166.195 187.328L164.059 187.797L163.497 184.479C163.497 184.479 162.198 188.23 161.549 188.502C160.9 188.773 154.548 189.37 152.133 188.979C149.667 188.578 149.721 187.861 149.721 187.861C149.932 187.34 151.701 185.951 153.434 185.258C153.434 185.258 154.429 187.587 156.138 187.42C157.851 187.252 161.952 183.834 162.455 182.282C162.962 180.73 164.523 180.159 164.523 180.159C166.609 182.413 166.195 187.328 166.195 187.328Z" fill="#3547C7"/>
<path d="M178.457 115.783C179.085 117.012 180.453 117.67 181.769 118.083C186.474 119.559 191.784 118.972 196.053 116.504C196.977 115.97 197.869 115.334 198.483 114.462C198.868 113.906 199.128 113.245 199.177 112.578C199.196 112.351 199.191 112.122 199.152 111.895C199.13 111.737 199.091 111.581 199.039 111.428C198.699 110.458 197.839 109.764 197.344 108.863C196.67 107.639 196.73 106.169 196.485 104.795C196.228 103.352 195.574 101.996 194.659 100.858C193.122 98.9442 190.551 97.3917 188.051 97.2651C185.419 97.1326 182.226 98.9502 180.894 101.162C180.091 102.493 179.791 104.056 179.505 105.582C179.389 106.2 179.272 106.814 179.156 107.432L178.327 111.843C178.215 112.426 178.11 113.032 178.079 113.63C178.042 114.38 178.121 115.117 178.457 115.783Z" fill="#131D42"/>
<path d="M196.532 127.834C197.82 124.031 198.449 120.441 198.449 120.441C198.449 120.441 193.707 117.155 192.337 116.333C190.967 115.511 187.972 117.529 186.89 117.233C185.809 116.937 184.319 117.375 184.319 117.375C184.319 117.375 182.497 135.241 182.535 135.688C182.551 135.877 182.901 136.23 183.726 136.51L183.124 136.918L181.02 146.284C181.02 146.284 198.838 152.894 198.838 152.036C198.838 151.178 196.532 127.833 196.532 127.833L196.532 127.834Z" fill="#CD2B7B"/>
<path d="M184.318 117.375C184.318 117.375 179.865 119.649 179.154 122.123C178.443 124.598 177.66 132.31 177.66 132.31L166.102 136.847V139.932H183.715V126.05L184.318 117.375Z" fill="#CD2B7B"/>
<path d="M152.961 143.643H149.461V188.553H152.961V143.643Z" fill="#131D42"/>
<path d="M162.301 190.466H140.121C140.121 188.597 141.636 187.082 143.505 187.082H158.917C160.786 187.082 162.301 188.597 162.301 190.466Z" fill="#131D42"/>
<path d="M179.037 142.82H99.2158V145.873H179.037V142.82Z" fill="#FACC07"/>
<path d="M203.143 160.232L208.594 133.495H206.008L199.979 160.687L203.143 160.232Z" fill="#131A70"/>
<path d="M210.508 129.051C209.433 127.92 201.787 127.935 194.502 128.225V134.513H211.465C211.465 134.513 212.631 131.283 210.508 129.051Z" fill="#131D42"/>
<path d="M179.04 162.314L174.112 190.463H175.832L182.726 163.628L179.04 162.314Z" fill="#131D42"/>
<path d="M203.667 162.314L208.594 190.463H206.875L199.98 163.628L203.667 162.314Z" fill="#131D42"/>
<path d="M206.004 181.295H176.881V183.084H206.004V181.295Z" fill="#131D42"/>
<path d="M174.869 159.414C174.869 159.414 202.604 157.181 204.727 159.414C206.849 161.646 205.684 164.876 205.684 164.876H174.106L174.869 159.414Z" fill="#131A70"/>
<path d="M197.651 149.608L194.548 147.256L190.287 151.209C190.287 151.209 179.714 151.167 177.871 151.997C174.998 153.289 162.903 185.164 162.903 185.164H167.955L182.036 161.436C182.036 161.436 195.925 162.549 198.632 161.256C201.337 159.964 197.651 149.608 197.651 149.608Z" fill="#FFA07F"/>
<path d="M170.071 192.334L167.935 192.805L167.373 189.485C167.373 189.485 166.074 193.237 165.425 193.508C164.776 193.78 158.424 194.376 156.009 193.986C153.543 193.585 153.597 192.868 153.597 192.868C153.808 192.346 155.577 190.957 157.31 190.264C157.661 190.124 158.113 189.815 158.612 189.411C160.568 187.829 163.237 184.79 163.237 184.79L167.875 184.471C169.961 186.725 170.071 192.334 170.071 192.334Z" fill="#FFA07F"/>
<path d="M170.071 192.335L167.935 192.804L167.373 189.485C167.373 189.485 166.074 193.236 165.425 193.508C164.776 193.78 158.424 194.376 156.009 193.986C153.543 193.585 153.597 192.868 153.597 192.868C153.808 192.346 155.577 190.957 157.31 190.264C157.31 190.264 158.305 192.594 160.014 192.426C161.727 192.258 165.828 188.841 166.331 187.289C166.838 185.736 168.399 185.166 168.399 185.166C170.485 187.42 170.071 192.335 170.071 192.335Z" fill="#3547C7"/>
<path d="M181.017 146.284C181.017 146.284 171.723 145.808 169.77 149.247C167.819 152.685 163.481 161.649 163.481 161.649L174.194 167.065C174.194 167.065 177.297 164.124 176.88 164.876C176.463 165.628 178.52 169.619 178.52 169.619L182.034 161.436C182.034 161.436 195.218 163.846 198.63 161.256C202.042 158.666 197.649 148.877 197.649 148.877L181.017 146.284Z" fill="#FACC07"/>
<path d="M184.984 162.727L181.823 161.904L185.584 147.467L203.305 147.431L205.837 161.904L202.679 162.125L200.584 150.703L188.11 150.729L184.984 162.727Z" fill="#131D42"/>
<path d="M147.212 142.819H168.96L165.328 127.924H143.581L147.212 142.819Z" fill="#131D42"/>
<path d="M153.397 135.538C154.159 135.538 154.776 134.92 154.776 134.159C154.776 133.836 154.661 133.544 154.476 133.309C154.66 133.257 154.851 133.221 155.052 133.221C156.24 133.221 157.203 134.184 157.203 135.372C157.203 136.561 156.24 137.523 155.052 137.523C153.888 137.523 152.947 136.598 152.908 135.444C153.06 135.502 153.224 135.538 153.397 135.538Z" fill="#FFF5F2"/>
<path d="M147.212 142.819H172.732V140.721H147.212V142.819Z" fill="#131D42"/>
<path d="M196.68 119.516C196.68 119.516 192.234 122.65 191.781 124.758C191.327 126.866 189.795 135.372 189.795 135.372C189.795 135.372 180.204 135.077 178.415 135.372C176.627 135.667 173.451 136.847 173.451 136.847V141.475C173.451 141.475 176.186 143.526 178.721 143.642C181.257 143.758 192.501 142.564 194.499 141.203C196.499 139.842 200.673 130.405 200.673 128.499C200.673 126.593 199.773 119.495 196.68 119.516Z" fill="#CD2B7B"/>
<path d="M173.449 141.112L172.732 140.722H168.448L167.953 138.69C167.953 138.69 171.06 137.534 171.454 137.524C171.847 137.513 173.45 137.271 173.45 137.271V141.112H173.449Z" fill="#FFA07F"/>
<path d="M173.088 135.789L173.451 142.14L175.084 142.819L175.304 135.372L173.088 135.789Z" fill="#FFF5F2"/>
<path d="M180.127 128.747C179.718 131.496 180.84 134.424 182.983 136.194C181.162 134.368 180.458 131.505 181.226 129.042C181.51 128.131 181.974 127.286 182.289 126.385C182.479 125.841 182.82 124.859 182.564 124.293C182.185 123.455 181.758 124.409 181.555 124.797C180.905 126.04 180.336 127.349 180.127 128.747Z" fill="#AE115D"/>
<path d="M192.332 116.333C192.332 116.333 188.854 117.733 188.274 117.601C187.693 117.473 186.885 117.233 186.885 117.233C186.982 117.076 187.582 115.658 187.484 115.232C187.257 114.252 186.708 112.915 186.708 112.915L189.887 111.321C189.887 111.321 190.152 112.256 190.48 113.239C190.811 114.235 192.1 116.204 192.332 116.333Z" fill="#FFA07F"/>
<path d="M190.479 113.238C189.656 114.044 188.639 115.005 188.288 115.179C188.001 115.321 187.713 115.298 187.486 115.232C187.257 114.251 186.708 112.916 186.708 112.916L189.886 111.321C189.886 111.321 190.154 112.258 190.479 113.238Z" fill="#FF7D6F"/>
<path d="M190.471 101.732C188.362 99.8853 185.214 99.6678 182.994 101.38C182.484 101.774 182.09 102.196 181.945 102.621C181.364 104.325 181.02 110.352 182.616 113.013C184.212 115.674 186.078 115.03 186.734 114.739C187.39 114.449 190.419 112.681 191.02 111.535C191.622 110.389 192.488 104.776 191.945 103.417C191.763 102.962 191.174 102.348 190.471 101.732Z" fill="#FFBF90"/>
<path d="M190.635 101.279C188.526 99.4327 185.378 99.2152 183.158 100.927C182.648 101.321 182.255 101.743 182.11 102.169C181.529 103.872 181.184 109.899 182.78 112.56C184.377 115.221 186.242 114.577 186.898 114.286C187.554 113.996 190.583 112.228 191.185 111.082C191.786 109.937 192.652 104.323 192.109 102.964C191.927 102.51 191.339 101.896 190.635 101.279Z" fill="#FFA07F"/>
<path d="M185.475 109.471C185.618 109.427 185.763 109.359 185.912 109.383C185.743 109.714 185.44 109.974 185.087 110.09C185.06 110.098 185.031 110.107 185.003 110.104C184.968 110.101 184.937 110.082 184.908 110.063C184.723 109.939 184.564 109.779 184.44 109.595C184.415 109.557 184.392 109.517 184.384 109.473C184.359 109.327 184.456 109.364 184.54 109.403C184.637 109.448 184.74 109.481 184.846 109.501C185.054 109.54 185.271 109.531 185.475 109.471Z" fill="#FF7D6F"/>
<path d="M185.061 110.005C184.977 109.921 184.882 109.848 184.796 109.766C184.69 109.664 184.592 109.555 184.508 109.434C184.997 109.138 185.021 108.647 185.031 108.089C185.036 107.838 184.98 107.586 184.871 107.359C184.814 107.24 184.742 107.128 184.658 107.026C184.615 106.975 184.569 106.926 184.52 106.88C184.472 106.835 184.421 106.808 184.362 106.78C184.389 106.814 184.407 106.854 184.431 106.89C184.494 106.983 184.561 107.07 184.614 107.169C184.667 107.269 184.712 107.373 184.747 107.48C184.818 107.695 184.854 107.921 184.848 108.147C184.843 108.369 184.798 108.59 184.705 108.792C184.598 109.023 184.421 109.247 184.198 109.371C184.197 109.373 184.497 109.765 184.527 109.797C184.604 109.88 184.689 109.957 184.781 110.023C184.872 110.088 184.976 110.166 185.091 110.168C185.127 110.168 185.164 110.162 185.195 110.143C185.176 110.129 185.158 110.113 185.142 110.096C185.135 110.088 185.129 110.08 185.122 110.072C185.102 110.049 185.082 110.027 185.061 110.005Z" fill="#FC5B68"/>
<path d="M188.059 110.483C187.009 111.262 185.611 111.552 184.336 111.258C184.984 111.593 185.677 111.769 186.393 111.629C187.109 111.488 187.588 111.039 188.059 110.483Z" fill="#FC5B68"/>
<path d="M187.107 111.885C186.672 112.237 186.061 112.359 185.524 112.2C185.749 112.418 186.039 112.536 186.35 112.494C186.662 112.451 186.949 112.156 187.107 111.885Z" fill="#FC5B68"/>
<path d="M190.943 108.571C191.104 108.467 191.819 107.222 192.515 107.831C193.211 108.441 193.522 109.558 193.033 110.27C192.586 110.921 191.94 111.644 191.023 111.534L190.943 108.571Z" fill="#FFA07F"/>
<path d="M192.607 108.703C192.662 108.85 192.658 109.012 192.629 109.167C192.506 109.828 191.967 110.386 191.448 110.906C191.584 110.577 191.605 110.22 191.529 109.885C191.502 109.768 191.465 109.653 191.449 109.535C191.387 109.058 192.282 107.832 192.607 108.703Z" fill="#FF7D6F"/>
<path d="M191.186 111.123C191.186 111.123 191.196 111.115 191.216 111.099C191.235 111.084 191.266 111.062 191.301 111.03C191.372 110.966 191.467 110.866 191.551 110.724C191.635 110.583 191.704 110.4 191.723 110.191C191.737 109.982 191.701 109.746 191.57 109.53C191.556 109.502 191.537 109.477 191.519 109.452L191.505 109.433C191.501 109.428 191.503 109.431 191.503 109.431H191.503C191.503 109.431 191.502 109.432 191.504 109.427L191.511 109.408L191.526 109.369C191.536 109.344 191.546 109.319 191.557 109.294C191.6 109.194 191.648 109.099 191.698 109.011C191.749 108.922 191.802 108.84 191.855 108.764C191.909 108.688 191.961 108.618 192.015 108.563C192.068 108.508 192.129 108.469 192.19 108.454C192.25 108.439 192.309 108.447 192.351 108.462C192.393 108.478 192.418 108.503 192.429 108.521C192.441 108.54 192.442 108.552 192.442 108.552C192.442 108.552 192.445 108.54 192.437 108.518C192.431 108.496 192.411 108.465 192.368 108.438C192.325 108.413 192.261 108.392 192.18 108.4C192.099 108.408 192.015 108.448 191.943 108.504C191.87 108.56 191.808 108.627 191.741 108.701C191.675 108.774 191.61 108.857 191.547 108.947C191.486 109.037 191.427 109.135 191.376 109.24C191.364 109.266 191.352 109.292 191.34 109.319L191.322 109.36L191.3 109.417L191.284 109.457C191.29 109.469 191.3 109.481 191.308 109.492L191.344 109.543C191.36 109.565 191.376 109.587 191.388 109.611C191.501 109.798 191.546 110.003 191.552 110.191C191.554 110.38 191.515 110.552 191.459 110.692C191.403 110.832 191.333 110.94 191.279 111.012C191.252 111.048 191.227 111.073 191.212 111.092C191.194 111.113 191.186 111.123 191.186 111.123Z" fill="#CF4A57"/>
<path d="M181.823 105.607C181.823 105.607 182.583 104.844 183.118 104.825C183.653 104.806 183.876 105.27 183.681 105.394C183.485 105.517 181.823 105.607 181.823 105.607Z" fill="#131A70"/>
<path d="M189.403 105.451C189.403 105.451 188.043 104.539 187.202 104.49C186.361 104.441 186.117 104.962 186.451 105.113C186.784 105.264 189.403 105.451 189.403 105.451Z" fill="#131A70"/>
<path d="M187.741 109.479C187.807 109.726 188.39 109.784 189.043 109.609C189.695 109.434 190.17 109.092 190.104 108.845C190.038 108.598 189.455 108.539 188.802 108.714C188.15 108.89 187.675 109.232 187.741 109.479Z" fill="#FF7D6F"/>
<path d="M181.101 109.039C181.042 109.224 181.445 109.518 182.001 109.696C182.557 109.874 183.055 109.869 183.114 109.684C183.173 109.5 182.771 109.206 182.215 109.028C181.659 108.849 181.16 108.855 181.101 109.039Z" fill="#FF7D6F"/>
<path d="M188.972 106.248C188.877 106.459 188.589 106.614 188.388 106.699C188.293 106.579 188.174 106.504 188.041 106.498C187.702 106.481 187.405 106.909 187.378 107.453C187.351 107.998 187.604 108.452 187.943 108.469C188.282 108.486 188.579 108.059 188.606 107.514C188.615 107.345 188.596 107.186 188.556 107.044C188.826 106.83 188.972 106.248 188.972 106.248Z" fill="#282828"/>
<path d="M182.242 106.506C182.307 106.681 182.531 106.82 182.687 106.899C182.77 106.808 182.87 106.754 182.977 106.756C183.25 106.76 183.466 107.119 183.459 107.558C183.452 107.997 183.225 108.349 182.951 108.345C182.678 108.34 182.462 107.981 182.469 107.542C182.472 107.407 182.495 107.279 182.534 107.168C182.328 106.981 182.242 106.506 182.242 106.506Z" fill="#282828"/>
<path d="M182.951 107.606C182.951 107.606 182.673 107.695 182.416 107.591C182.16 107.487 182.022 107.229 182.022 107.229C182.022 107.229 182.301 107.14 182.557 107.244C182.814 107.348 182.951 107.606 182.951 107.606Z" fill="white"/>
<path d="M188.002 107.553C188.002 107.553 188.34 107.687 188.666 107.579C188.993 107.47 189.184 107.161 189.184 107.161C189.184 107.161 188.846 107.028 188.52 107.136C188.193 107.244 188.002 107.553 188.002 107.553Z" fill="white"/>
<path d="M183.301 103.276C182.463 103.793 181.781 104.56 181.368 105.455C180.34 103.567 181.024 101.049 182.62 99.608C184.215 98.168 186.514 97.6995 188.65 97.9397C190.147 98.1085 191.652 98.6229 192.747 99.6588C193.956 100.802 194.556 102.495 194.58 104.158C194.604 105.821 193.988 107.672 193.245 109.161C193.245 109.161 193.027 108.297 192.491 108.021C191.955 107.745 191.52 108.217 191.52 108.217C191.302 107.734 190.984 104.744 190.984 104.744C190.984 104.744 187.121 104.421 186.337 102.771L186.932 104.089C186.932 104.089 183.781 104.639 183.301 103.276Z" fill="#131D42"/>
<path d="M179.156 107.433C179.196 107.334 179.238 107.238 179.279 107.142C180.224 104.928 181.404 102.69 183.391 101.33C184.01 101.981 184.77 102.497 185.603 102.83C185.532 102.156 185.462 101.481 185.391 100.807C186.988 102.273 189.038 103.231 191.187 103.514C191.944 103.614 192.756 103.646 193.388 104.078C194.264 104.674 194.52 105.819 194.878 106.817C195.644 108.941 197.198 110.767 199.152 111.895C199.129 111.737 199.09 111.581 199.038 111.428C198.699 110.458 197.839 109.764 197.343 108.863C196.874 108.015 196.763 107.047 196.651 106.075C196.606 105.647 196.56 105.215 196.485 104.795C196.228 103.352 195.573 101.996 194.658 100.858C193.121 98.9442 190.551 97.3917 188.051 97.2651C185.418 97.1326 182.226 98.9502 180.894 101.162C180.725 101.44 180.578 101.728 180.451 102.026C179.964 103.146 179.731 104.375 179.504 105.582C179.389 106.201 179.273 106.815 179.156 107.433Z" fill="#131A70"/>
<path d="M180.454 102.027C181.491 101.059 182.595 100.167 183.756 99.3526C184.152 99.8822 184.548 100.409 184.943 100.938C184.972 100.449 184.999 99.9557 185.026 99.4629C186.248 100.429 187.72 101.081 189.257 101.331C188.934 100.812 188.612 100.299 188.285 99.7805C188.765 100.505 189.623 100.912 190.46 101.17C191.359 101.45 192.314 101.615 193.125 102.095C193.958 102.591 194.568 103.376 195.16 104.14C195.659 104.786 196.155 105.432 196.653 106.075C196.607 105.647 196.561 105.215 196.487 104.795C196.23 103.352 195.575 101.997 194.66 100.859C193.123 98.9447 190.553 97.3922 188.053 97.2656C185.42 97.1331 182.227 98.9507 180.896 101.162C180.728 101.441 180.581 101.729 180.454 102.027Z" fill="#172D8A"/>
<path d="M139.954 142.819H135.602C135.245 142.819 134.956 142.529 134.956 142.173V135.397H140.599V142.173C140.6 142.53 140.311 142.819 139.954 142.819Z" fill="#6FB1FE"/>
<path d="M141.177 141.952H138.973V136.264H141.178C141.99 136.264 142.652 136.925 142.652 137.738V140.478C142.651 141.291 141.99 141.952 141.177 141.952ZM139.815 141.109H141.177C141.525 141.109 141.809 140.826 141.809 140.478V137.738C141.809 137.389 141.525 137.106 141.177 137.106H139.815V141.109Z" fill="#6FB1FE"/>
<path d="M184.314 117.375C184.314 117.375 186.272 121.883 188.178 121.153C190.085 120.423 194.094 117.474 194.094 117.474L192.333 116.333L186.887 117.233C186.887 117.233 185.482 117.068 184.314 117.375Z" fill="#FFA07F"/>
<path d="M187.729 121.232C187.729 121.232 189.991 124.074 192.047 122.567C194.102 121.061 194.094 117.473 194.094 117.473L187.729 121.232Z" fill="white"/>
<path d="M184.314 117.375C184.314 117.375 183.329 122.294 184.881 122.431C186.433 122.567 187.729 121.232 187.729 121.232C187.729 121.232 185.537 121.049 184.314 117.375Z" fill="white"/>
<path d="M175.3 135.372C175.3 135.372 179.584 134.976 182.528 135.688C185.473 136.4 190.553 135.828 190.478 135.475C190.403 135.122 191.513 127.27 192.647 125.718C193.781 124.166 196.648 121.792 196.648 121.792C196.648 121.792 193.847 125.536 193.266 127.453C192.686 129.37 191.2 137.359 190.939 137.108C190.677 136.857 179.373 136.77 178.067 136.266C176.763 135.761 175.3 135.372 175.3 135.372Z" fill="#AE115D"/>
<path d="M181.609 143.53C181.609 143.53 191.484 142.572 193.134 141.77C194.783 140.969 194.783 140.969 194.783 140.969C195.056 141.716 190.212 143.579 186.572 143.53C183.078 143.483 181.609 143.53 181.609 143.53Z" fill="#AE115D"/>
<path d="M72.56 44.218L52.5537 64.23L56.3185 67.9937L76.3247 47.9817L72.56 44.218Z" fill="#FDE4D9"/>
<path d="M72.5639 44.2215L68.3003 48.4839L72.064 52.2486L76.3276 47.9862L72.5639 44.2215Z" fill="#CCA190"/>
<path d="M71.1304 54.8408L65.3039 49.0148C64.6109 48.3219 63.4879 48.3219 62.795 49.0148L42.9855 68.8237C42.2926 69.5167 42.2926 70.6402 42.9855 71.3327L48.8132 77.1597C49.5061 77.8527 50.6291 77.8527 51.3221 77.1597L71.131 57.3503C71.8234 56.6568 71.8234 55.5338 71.1304 54.8408Z" fill="#131A70"/>
<path d="M71.1288 54.8408L68.2142 51.9268L45.8975 74.2457L48.8115 77.1597C49.5045 77.8527 50.628 77.8527 51.3204 77.1597L71.1288 57.3503C71.8218 56.6568 71.8218 55.5338 71.1288 54.8408Z" fill="#131D42"/>
<path d="M72.5647 47.9838C61.6658 37.0859 61.6668 19.3515 72.5664 8.45252C83.4626 -2.44484 101.198 -2.44538 112.096 8.45252C122.996 19.3515 122.996 37.0848 112.096 47.9822C101.198 58.8828 83.4632 58.8828 72.5647 47.9838ZM107.876 12.6735C99.3043 4.10331 85.3581 4.10169 76.7868 12.6735C68.215 21.2448 68.215 35.1931 76.7857 43.7633C85.357 52.3341 99.3043 52.3341 107.876 43.7633C116.447 35.191 116.446 21.2443 107.876 12.6735Z" fill="#FDE4D9"/>
<path d="M107.92 26.9949C107.92 30.5029 105.076 33.3472 101.568 33.3472C98.0601 33.3472 95.2163 30.5034 95.2163 26.9949C95.2163 23.4868 98.0601 20.6431 101.568 20.6431C105.076 20.6431 107.92 23.4868 107.92 26.9949Z" fill="#FDE4D9"/>
<path d="M191.138 52.4933H181.813V62.107C176.654 62.107 172.477 57.926 172.477 52.7708C172.477 47.615 176.654 43.4346 181.813 43.4346C186.875 43.4346 190.995 47.4641 191.138 52.4933Z" fill="#E1BFB2"/>
<path d="M184.031 63.9152V54.8311H193.822C193.822 54.8311 194.151 65.2892 184.031 63.9152Z" fill="#E1BFB2"/>
</g>
<defs>
<filter id="filter0_d_1_28632" x="0.5" y="0.279297" width="217" height="204.613" filterUnits="userSpaceOnUse" color-interpolation-filters="sRGB">
<feFlood flood-opacity="0" result="BackgroundImageFix"/>
<feColorMatrix in="SourceAlpha" type="matrix" values="0 0 0 0 0 0 0 0 0 0 0 0 0 0 0 0 0 0 127 0" result="hardAlpha"/>
<feOffset dy="4"/>
<feGaussianBlur stdDeviation="2"/>
<feComposite in2="hardAlpha" operator="out"/>
<feColorMatrix type="matrix" values="0 0 0 0 0 0 0 0 0 0 0 0 0 0 0 0 0 0 0.25 0"/>
<feBlend mode="normal" in2="BackgroundImageFix" result="effect1_dropShadow_1_28632"/>
<feBlend mode="normal" in="SourceGraphic" in2="effect1_dropShadow_1_28632" result="shape"/>
</filter>
</defs>
</svg>
