<svg width="50" height="50" viewBox="0 0 50 50" fill="none" xmlns="http://www.w3.org/2000/svg">
<g clip-path="url(#clip0_1_28585)">
<path d="M48.4464 18.517C46.6258 16.9863 43.8401 17.1686 42.2595 19.0534L41.3096 20.1772L48.0425 25.8266L48.9495 24.7068C50.5096 22.8514 50.3122 20.0803 48.4464 18.517Z" fill="#002046"/>
<path d="M29.4309 34.2319L28.9298 34.8249C28.495 35.3456 28.1817 35.9679 28.0244 36.6273L26.6626 42.3265C26.5338 42.8657 26.7212 43.4322 27.146 43.7885C27.5595 44.1359 28.1427 44.2368 28.6696 44.0116L34.0468 41.6799C34.6691 41.4095 35.227 40.9933 35.6619 40.4769L36.1647 39.8819L29.4309 34.2319Z" fill="#002046"/>
<path d="M39.4197 22.4136L31.3218 31.995L38.0552 37.645L46.1526 28.0629L39.4197 22.4136Z" fill="#002046"/>
<path d="M36.7208 6.49463L31.1562 1.20742C30.6301 0.708691 29.9829 0.414941 29.3008 0.224121V8.78916H37.9973C37.8155 7.91904 37.3722 7.11299 36.7208 6.49463Z" fill="#002046"/>
<path d="M25.1752 35.9464C25.437 34.8506 25.9591 33.8135 26.6829 32.9466L38.0898 19.4491V11.7188H27.8359C27.0263 11.7188 26.3711 11.0636 26.3711 10.2539V0H4.39844C1.9752 0 0.00390625 1.97129 0.00390625 4.39453V45.6055C0.00390625 48.0287 1.9752 50 4.39844 50H33.6953C36.1186 50 38.0898 48.0287 38.0898 45.6055V42.1427L37.8996 42.3678C37.1801 43.2247 36.2517 43.9156 35.2174 44.3663L29.8358 46.6995C28.319 47.3545 26.5633 47.1225 25.264 46.0343C23.9808 44.9571 23.4243 43.2763 23.8134 41.6455L25.1752 35.9464ZM7.32812 8.78906H21.9766C22.7862 8.78906 23.4414 9.44424 23.4414 10.2539C23.4414 11.0636 22.7862 11.7188 21.9766 11.7188H7.32812C6.51846 11.7188 5.86328 11.0636 5.86328 10.2539C5.86328 9.44424 6.51846 8.78906 7.32812 8.78906ZM7.32812 17.6758H30.7656C31.5753 17.6758 32.2305 18.331 32.2305 19.1406C32.2305 19.9503 31.5753 20.6055 30.7656 20.6055H7.32812C6.51846 20.6055 5.86328 19.9503 5.86328 19.1406C5.86328 18.331 6.51846 17.6758 7.32812 17.6758ZM19.0469 38.1836H7.32812C6.51846 38.1836 5.86328 37.5284 5.86328 36.7188C5.86328 35.9091 6.51846 35.2539 7.32812 35.2539H19.0469C19.8565 35.2539 20.5117 35.9091 20.5117 36.7188C20.5117 37.5284 19.8565 38.1836 19.0469 38.1836ZM7.32812 29.3945C6.51846 29.3945 5.86328 28.7394 5.86328 27.9297C5.86328 27.12 6.51846 26.4648 7.32812 26.4648H24.9062C25.7159 26.4648 26.3711 27.12 26.3711 27.9297C26.3711 28.7394 25.7159 29.3945 24.9062 29.3945H7.32812Z" fill="#002046"/>
</g>
<defs>
<clipPath id="clip0_1_28585">
<rect width="50" height="50" fill="white"/>
</clipPath>
</defs>
</svg>
