<svg width="50" height="50" viewBox="0 0 50 50" fill="none" xmlns="http://www.w3.org/2000/svg">
<path d="M25 0C11.1929 0 0 11.1929 0 25C0 38.8071 11.1929 50 25 50C38.8071 50 50 38.8071 50 25C49.9854 11.1991 38.801 0.0147531 25 0ZM35.5285 25.7966C35.3554 26.1437 35.0741 26.4252 34.7268 26.5982V26.6071L20.4411 33.75C19.5588 34.1909 18.4864 33.8331 18.0454 32.9509C17.9201 32.7001 17.8555 32.4232 17.8571 32.1429V17.8572C17.8567 16.8709 18.6558 16.0711 19.642 16.0706C19.9194 16.0705 20.193 16.135 20.4411 16.259L34.7268 23.4019C35.6095 23.8417 35.9685 24.9139 35.5285 25.7966Z" fill="#002046"/>
</svg>
