<svg width="49" height="50" viewBox="0 0 49 50" fill="none" xmlns="http://www.w3.org/2000/svg">
<path d="M40.881 7.31158C36.1874 2.62944 29.8284 0 23.1988 0C16.5692 0 10.2102 2.62944 5.51671 7.31158L3.84708 8.98313V2.75664C3.84708 2.24649 3.64442 1.75723 3.28368 1.39649C2.92295 1.03576 2.43369 0.833104 1.92354 0.833104C1.41338 0.833104 0.924125 1.03576 0.563392 1.39649C0.202658 1.75723 0 2.24649 0 2.75664V14.2979C0 14.808 0.202658 15.2973 0.563392 15.658C0.924125 16.0188 1.41338 16.2214 1.92354 16.2214H13.4648C13.9749 16.2214 14.4642 16.0188 14.8249 15.658C15.1856 15.2973 15.3883 14.808 15.3883 14.2979C15.3883 13.7877 15.1856 13.2985 14.8249 12.9377C14.4642 12.577 13.9749 12.3743 13.4648 12.3743H5.89564L8.23659 10.0315C11.1958 7.07251 14.9659 5.0575 19.0703 4.24122C23.1747 3.42494 27.429 3.84406 31.2952 5.44558C35.1613 7.0471 38.4658 9.75909 40.7907 13.2386C43.1156 16.7181 44.3565 20.8089 44.3565 24.9937C44.3565 29.1785 43.1156 33.2693 40.7907 36.7488C38.4658 40.2283 35.1613 42.9403 31.2952 44.5418C27.429 46.1433 23.1747 46.5625 19.0703 45.7462C14.9659 44.9299 11.1958 42.9149 8.23659 39.9559C8.05915 39.7722 7.8469 39.6257 7.61222 39.5249C7.37754 39.4241 7.12513 39.371 6.86973 39.3688C6.61432 39.3666 6.36103 39.4152 6.12463 39.512C5.88824 39.6087 5.67347 39.7515 5.49287 39.9321C5.31226 40.1127 5.16943 40.3275 5.07271 40.5639C4.976 40.8003 4.92733 41.0536 4.92955 41.309C4.93177 41.5644 4.98483 41.8168 5.08564 42.0515C5.18645 42.2861 5.33299 42.4984 5.51671 42.6758C7.83876 44.9979 10.5954 46.8398 13.6293 48.0965C16.6632 49.3532 19.915 50 23.1988 50C26.4827 50 29.7344 49.3532 32.7683 48.0965C35.8022 46.8398 38.5589 44.9979 40.881 42.6758C43.203 40.3538 45.045 37.5971 46.3016 34.5632C47.5583 31.5293 48.2051 28.2776 48.2051 24.9937C48.2051 21.7098 47.5583 18.4581 46.3016 15.4242C45.045 12.3903 43.203 9.63363 40.881 7.31158Z" fill="#002046"/>
<path d="M19.2356 34.9569C19.5846 34.9567 19.927 34.8617 20.2262 34.6818L32.2137 27.4878C32.4981 27.3168 32.7334 27.0751 32.8968 26.7862C33.0601 26.4974 33.146 26.1711 33.146 25.8393C33.146 25.5074 33.0601 25.1812 32.8968 24.8924C32.7334 24.6035 32.4981 24.3618 32.2137 24.1908L20.2262 16.991C19.9339 16.8154 19.6002 16.7207 19.2593 16.7165C18.9184 16.7122 18.5825 16.7987 18.286 16.967C17.9895 17.1354 17.743 17.3795 17.5719 17.6743C17.4007 17.9692 17.3111 18.3043 17.312 18.6453V33.0333C17.312 33.5435 17.5147 34.0327 17.8754 34.3935C18.2361 34.7542 18.7254 34.9569 19.2356 34.9569Z" fill="#002046"/>
</svg>
