<svg width="9" height="11" viewBox="0 0 9 11" fill="none" xmlns="http://www.w3.org/2000/svg">
<path d="M8.57582 8.5883C8.57582 9.07491 8.43631 9.49232 8.1573 9.84053C7.87828 10.1887 7.54234 10.3629 7.14948 10.3629H1.43073C1.03788 10.3629 0.701939 10.1887 0.422921 9.84053C0.143903 9.49232 0.00439453 9.07491 0.00439453 8.5883C0.00439453 8.20884 0.0233677 7.85058 0.0613142 7.51352C0.0992606 7.17647 0.169573 6.83718 0.272252 6.49567C0.37493 6.15415 0.505511 5.86174 0.663993 5.61843C0.822475 5.37513 1.0323 5.17647 1.29346 5.02245C1.55462 4.86843 1.85484 4.79143 2.19413 4.79143C2.77895 5.36285 3.47761 5.64857 4.29011 5.64857C5.10261 5.64857 5.80127 5.36285 6.38609 4.79143C6.72538 4.79143 7.0256 4.86843 7.28676 5.02245C7.54792 5.17647 7.75774 5.37513 7.91622 5.61843C8.07471 5.86174 8.20529 6.15415 8.30797 6.49567C8.41064 6.83718 8.48096 7.17647 8.5189 7.51352C8.55685 7.85058 8.57582 8.20884 8.57582 8.5883ZM6.10819 0.830488C6.10819 0.830488 6.23375 0.956046 6.48486 1.20716C6.73598 1.45828 6.86154 1.93875 6.86154 2.64857C6.86154 3.35839 6.61042 3.96442 6.10819 4.46665C5.60596 4.96888 4.99993 5.22 4.29011 5.22C3.58029 5.22 2.97426 4.96888 2.47203 4.46665C1.9698 3.96442 1.71868 3.35839 1.71868 2.64857C1.71868 1.93875 1.9698 1.33272 2.47203 0.830488C2.97426 0.328256 3.58029 0.0771399 4.29011 0.0771399C4.99993 0.0771399 5.60596 0.328256 6.10819 0.830488Z" fill="#002147"/>
</svg>
