<svg width="14" height="10" viewBox="0 0 14 10" fill="none" xmlns="http://www.w3.org/2000/svg">
<path d="M12.6177 5.45434C12.6177 5.29809 12.4994 5.21996 12.2628 5.21996H4.97712C4.79855 5.21996 4.6077 5.26795 4.40458 5.36393C4.20145 5.45992 4.04185 5.5771 3.92578 5.7155L1.95703 8.1463C1.87667 8.25344 1.8365 8.34273 1.8365 8.41416C1.8365 8.57041 1.9548 8.64853 2.19141 8.64853H9.47712C9.65569 8.64853 9.84766 8.59943 10.053 8.50121C10.2584 8.403 10.4169 8.28469 10.5285 8.1463L12.4972 5.7155C12.5776 5.61728 12.6177 5.53023 12.6177 5.45434ZM4.97712 4.36282H10.12V3.29139C10.12 3.11282 10.0575 2.96103 9.93248 2.83603C9.80748 2.71103 9.65569 2.64853 9.47712 2.64853H5.61998C5.44141 2.64853 5.28962 2.58603 5.16462 2.46103C5.03962 2.33603 4.97712 2.18425 4.97712 2.00568V1.5771C4.97712 1.39853 4.91462 1.24675 4.78962 1.12175C4.66462 0.996748 4.51283 0.934248 4.33426 0.934248H2.19141C2.01283 0.934248 1.86105 0.996748 1.73605 1.12175C1.61105 1.24675 1.54855 1.39853 1.54855 1.5771V7.28916L3.26283 5.17978C3.45926 4.94318 3.71819 4.74786 4.03962 4.59385C4.36105 4.43983 4.67355 4.36282 4.97712 4.36282ZM13.4749 5.45434C13.4749 5.73112 13.3722 5.99898 13.1669 6.25791L11.1914 8.68871C10.9994 8.92532 10.7405 9.12063 10.4146 9.27465C10.0887 9.42867 9.77623 9.50568 9.47712 9.50568H2.19141C1.78069 9.50568 1.42801 9.35835 1.13337 9.06371C0.838728 8.76907 0.691406 8.41639 0.691406 8.00568V1.5771C0.691406 1.16639 0.838728 0.813712 1.13337 0.519069C1.42801 0.224426 1.78069 0.0771046 2.19141 0.0771046H4.33426C4.74498 0.0771046 5.09766 0.224426 5.3923 0.519069C5.68694 0.813712 5.83426 1.16639 5.83426 1.5771V1.79139H9.47712C9.88783 1.79139 10.2405 1.93871 10.5352 2.23335C10.8298 2.528 10.9771 2.88068 10.9771 3.29139V4.36282H12.2628C12.5039 4.36282 12.7249 4.41751 12.9258 4.52688C13.1267 4.63626 13.2762 4.79362 13.3744 4.99898C13.4414 5.14184 13.4749 5.29362 13.4749 5.45434Z" fill="#002147"/>
</svg>
