<svg width="5" height="8" viewBox="0 0 5 8" fill="none" xmlns="http://www.w3.org/2000/svg">
<path d="M4.46875 3.71875C4.52083 3.77083 4.54688 3.83073 4.54688 3.89844C4.54688 3.96615 4.52083 4.02604 4.46875 4.07812L0.828125 7.71875C0.776042 7.77083 0.716146 7.79688 0.648438 7.79688C0.580729 7.79688 0.520833 7.77083 0.46875 7.71875L0.078125 7.32812C0.0260417 7.27604 0 7.21615 0 7.14844C0 7.08073 0.0260417 7.02083 0.078125 6.96875L3.14844 3.89844L0.078125 0.828125C0.0260417 0.776042 0 0.716146 0 0.648438C0 0.580729 0.0260417 0.520833 0.078125 0.46875L0.46875 0.078125C0.520833 0.0260417 0.580729 0 0.648438 0C0.716146 0 0.776042 0.0260417 0.828125 0.078125L4.46875 3.71875Z" fill="#002147"/>
</svg>
